<svg xmlns="http://www.w3.org/2000/svg" width="1198" height="157" viewBox="0 0 1198 157">
  <g id="グループ_816" data-name="グループ 816" transform="translate(-184 -6449)">
    <g id="グループ_2194" data-name="グループ 2194">
      <rect id="長方形_404" data-name="長方形 404" width="1198" height="157" transform="translate(184 6449)" fill="#06c755"/>
      <rect id="長方形_405" data-name="長方形 405" width="340" height="25.823" transform="translate(940 6479.514)" fill="#fff"/>
      <rect id="長方形_406" data-name="長方形 406" width="234.557" height="25.823" transform="translate(940 6515.02)" fill="#fff"/>
      <rect id="長方形_407" data-name="長方形 407" width="255" height="25.823" transform="translate(940 6550.525)" fill="#fff"/>
      <path id="パス_2689" data-name="パス 2689" d="M-33.659-.346q.6.051,1.173.051a.671.671,0,0,0,.506-.143.563.563,0,0,0,.1-.371V-1.5h-4.683v.793l.034,1.865q0,.152-.042.177a.267.267,0,0,1-.169.034h-1.35q-.143,0-.177-.042a.34.34,0,0,1-.025-.169l.034-1.831V-4.717l-.034-1.865q0-.152.042-.186a.34.34,0,0,1,.169-.025l2.135.034H-32.5l2.143-.034q.135,0,.16.042a.34.34,0,0,1,.025.169l-.034,2.017v1.544l.034,2.4A1.905,1.905,0,0,1-30.621.827a3.381,3.381,0,0,1-1.966.439H-32.8q-.253,0-.329-.11a1.514,1.514,0,0,1-.135-.43A3.759,3.759,0,0,0-33.659-.346Zm-2.9-2.3h4.683v-.852h-4.683Zm4.683-2.8h-4.683v.81h4.683Zm-4.709-2.034-2.346.017a.311.311,0,0,1-.169-.025.34.34,0,0,1-.025-.169v-.987q0-.135.042-.16a.264.264,0,0,1,.152-.025l2.346.034h1.451v-.793H-36l-2.177.034q-.135,0-.169-.042a.34.34,0,0,1-.025-.169v-.861q0-.143.042-.169a.264.264,0,0,1,.152-.025l2.177.034h.861v-.776h-1.139l-2.278.034a.267.267,0,0,1-.169-.034.315.315,0,0,1-.025-.16v-.928q0-.152.042-.186a.264.264,0,0,1,.152-.025l2.278.034h1.139q-.017-.844-.118-1.7.886.025,1.713.127.278.025.278.169a.775.775,0,0,1-.051.253q-.068.169-.076.194a4.177,4.177,0,0,0-.068.954h1.662l2.262-.034q.152,0,.177.042a.267.267,0,0,1,.034.169v.928q0,.143-.042.169a.34.34,0,0,1-.169.025l-2.262-.034h-1.662v.776h1.173l2.16-.034a.267.267,0,0,1,.169.034.315.315,0,0,1,.025.16v.861a.308.308,0,0,1-.034.186.315.315,0,0,1-.16.025l-2.16-.034h-1.173v.793h2.143l2.329-.034q.143,0,.169.034a.291.291,0,0,1,.025.152v.987q0,.152-.034.177a.413.413,0,0,1-.16.017l-2.329-.017Zm-5.907-7q1,.025,1.781.118.278.025.278.177a.93.93,0,0,1-.084.346,7.78,7.78,0,0,0-.127,1.916V-1.882l.034,3.021a.308.308,0,0,1-.034.186.291.291,0,0,1-.152.025h-1.4q-.143,0-.169-.042a.34.34,0,0,1-.025-.169l.034-3V-11.873A19.483,19.483,0,0,0-42.494-14.48Zm-1.367,3.629.81.169q.253.059.253.211v.068a15.052,15.052,0,0,1-.591,3.78q-.042.135-.1.135a.6.6,0,0,1-.177-.059l-.835-.346q-.211-.084-.211-.219a.489.489,0,0,1,.025-.127,14.16,14.16,0,0,0,.549-3.5q0-.143.076-.143A1.684,1.684,0,0,1-43.861-10.852Zm4.118-.574a.536.536,0,0,1,.152-.034q.093,0,.152.143a12.2,12.2,0,0,1,.709,2.051.491.491,0,0,1,.025.118q0,.093-.211.177l-.726.262a.739.739,0,0,1-.194.051q-.093,0-.118-.16A13.237,13.237,0,0,0-40.6-10.9a.537.537,0,0,1-.034-.143q0-.093.211-.152ZM-10.2-.262A4,4,0,0,0-10.876.911q-.177.38-.287.38a.968.968,0,0,1-.346-.186A15.219,15.219,0,0,1-13.585-.768,15.21,15.21,0,0,1-15.053.979q-.27.245-.346.245-.1,0-.312-.363A4.3,4.3,0,0,0-16.454-.16q.008.5.025.987.008.321.008.346,0,.169-.186.169h-1.333a.308.308,0,0,1-.186-.034.22.22,0,0,1-.025-.135l.034-3.612V-9.881l-.034-3.662q0-.143.042-.169a.34.34,0,0,1,.169-.025l2.143.034h2.785l1.949-.034q.228,0,.228.177,0,.017,0,.051-.025.2-.034.481-.017.346-.017.4a8.4,8.4,0,0,1-.38,2.591,1.5,1.5,0,0,1-.726.743,3.047,3.047,0,0,1-1.165.177q-.608,0-.911-.017a.684.684,0,0,1-.38-.093.881.881,0,0,1-.11-.354,5.678,5.678,0,0,0-.278-1.114,9.561,9.561,0,0,0,1.35.11.908.908,0,0,0,.515-.11.6.6,0,0,0,.211-.346,3.7,3.7,0,0,0,.127-1.072h-3.823v3.907h3.713a1.145,1.145,0,0,0,.489-.068.518.518,0,0,1,.262-.068q.186,0,.658.464.481.506.481.675a.485.485,0,0,1-.118.3,1.487,1.487,0,0,0-.3.65A16.143,16.143,0,0,1-12.674-2.27,11.9,11.9,0,0,0-10.2-.262Zm-6.253.051A11.71,11.71,0,0,0-14.64-2.169a12.817,12.817,0,0,1-1.7-4.489h-.118Zm3.662-6.447h-2.093A11.471,11.471,0,0,0-13.72-3.7,14.374,14.374,0,0,0-12.792-6.658Zm-10.8,3.527h.574V-4.548h-.886l-2.017.034q-.143,0-.169-.042a.34.34,0,0,1-.025-.169V-5.8q0-.135.034-.16a.315.315,0,0,1,.16-.025l2.017.034h2.042q.321-.785.549-1.519a6.539,6.539,0,0,0,.177-.819,13.115,13.115,0,0,1,1.451.346q.245.076.245.194a.266.266,0,0,1-.118.211.759.759,0,0,0-.228.321q-.3.734-.557,1.266l1.662-.034q.135,0,.16.034A.291.291,0,0,1-18.5-5.8v1.072a.308.308,0,0,1-.034.186.291.291,0,0,1-.152.025l-2.042-.034h-.641v1.418h.464l1.89-.034q.135,0,.16.034a.291.291,0,0,1,.025.152v1.072a.275.275,0,0,1-.03.165.254.254,0,0,1-.156.03l-1.89-.034h-.464V-.624l.034,1.8q0,.135-.034.16a.291.291,0,0,1-.152.025h-1.35a.267.267,0,0,1-.169-.034.291.291,0,0,1-.025-.152l.042-1.8V-1.747h-.574l-1.9.034a.267.267,0,0,1-.169-.034.315.315,0,0,1-.025-.16V-2.979q0-.135.034-.16a.315.315,0,0,1,.16-.025Zm-.3-6.65h.869v-1.367h-.473l-1.865.034q-.135,0-.16-.034a.291.291,0,0,1-.025-.152v-1.089q0-.177.186-.177l1.865.034h.473v-.034a11.469,11.469,0,0,0-.127-1.9,15.808,15.808,0,0,1,1.713.118q.278.025.278.177a.834.834,0,0,1-.1.312,2.067,2.067,0,0,0-.11.861v.464h.38l1.865-.034a.157.157,0,0,1,.177.177V-11.3q0,.186-.177.186l-1.865-.034h-.38V-9.78h.591l2.059-.034q.135,0,.16.042a.34.34,0,0,1,.025.169v1.072q0,.135-.034.16a.291.291,0,0,1-.152.025l-2.059-.034h-3.114l-2.017.034a.308.308,0,0,1-.186-.034.291.291,0,0,1-.025-.152V-9.6q0-.152.042-.186a.34.34,0,0,1,.169-.025Zm-.962,2.143A.336.336,0,0,1-24.9-7.78q0-.068.2-.135l.954-.3a.5.5,0,0,1,.135-.025q.1,0,.169.143a8.95,8.95,0,0,1,.591,1.51.709.709,0,0,1,.025.135q0,.093-.194.16L-23.973-6a.589.589,0,0,1-.177.042q-.084,0-.135-.16A10.556,10.556,0,0,0-24.85-7.637ZM8.211-.515A5.4,5.4,0,0,0,7.367.751q-.177.38-.312.38A1.1,1.1,0,0,1,6.692.954,15.683,15.683,0,0,1,3.409-2.084,16.966,16.966,0,0,1-.034,1.08a1,1,0,0,1-.413.186q-.16,0-.346-.413A2.857,2.857,0,0,0-1.586-.219,14.127,14.127,0,0,0,2.337-3.6a18.02,18.02,0,0,1-2.312-7.78l-.819.017q-.143,0-.177-.042A.315.315,0,0,1-1-11.569v-1.3q0-.143.034-.169a.34.34,0,0,1,.169-.025l2.093.034h4.27a1.322,1.322,0,0,0,.549-.068.518.518,0,0,1,.262-.068q.177,0,.726.574a1.04,1.04,0,0,1,.38.608.637.637,0,0,1-.152.413,2.663,2.663,0,0,0-.363,1.105,19.633,19.633,0,0,1-2.439,6.81A13.806,13.806,0,0,0,8.211-.515ZM5.274-11.4H1.764A16.381,16.381,0,0,0,3.426-5.3,18.439,18.439,0,0,0,5.274-11.4Zm-8.844-2.962q1.089.025,1.882.118.278.034.278.177a2.3,2.3,0,0,1-.084.346,7.391,7.391,0,0,0-.127,1.916v9.974l.034,3a.267.267,0,0,1-.034.169.291.291,0,0,1-.152.025h-1.51q-.135,0-.16-.034a.315.315,0,0,1-.025-.16l.034-2.987V-3.148q-1.384.624-2.979,1.2a2.726,2.726,0,0,0-.692.312.424.424,0,0,1-.253.118q-.135,0-.228-.245-.27-.776-.5-1.662.717-.11,1.24-.236V-9.746a22.687,22.687,0,0,0-.135-2.624q1,.025,1.831.118.262.025.262.186,0,.017-.084.371A7.584,7.584,0,0,0-5.1-9.78v5.561q1.173-.422,1.662-.633v-6.9A19.834,19.834,0,0,0-3.569-14.362ZM13.188-2.751l-2.194.034a.267.267,0,0,1-.169-.034A.291.291,0,0,1,10.8-2.9V-4.017q0-.169.194-.169l2.194.034h4.2v-.084q0-.582-.017-.878H15.23l-2.422.034q-.135,0-.16-.042a.34.34,0,0,1-.025-.169l.034-1.958V-9.983q-.515.506-1.021.962a.747.747,0,0,1-.363.219q-.11,0-.3-.363a3.869,3.869,0,0,0-.709-1,10.061,10.061,0,0,0,3.164-3.367A5.827,5.827,0,0,0,13.9-14.6a13.037,13.037,0,0,1,1.629.4q.228.076.228.236a.315.315,0,0,1-.16.262,3.111,3.111,0,0,0-.473.557l-.287.43h3.181a8.3,8.3,0,0,0,.464-.92,5.326,5.326,0,0,0,.278-.894,15.219,15.219,0,0,1,1.637.363q.211.068.211.245,0,.118-.177.253a1.284,1.284,0,0,0-.329.439q-.228.422-.3.515h2.633l2.346-.034q.194,0,.194.169v1.021a.308.308,0,0,1-.034.186.315.315,0,0,1-.16.025l-2.346-.034h-3v.861h2.186l2.329-.034q.152,0,.177.034a.23.23,0,0,1,.034.152V-9.5q0,.135-.042.16a.34.34,0,0,1-.169.025L21.627-9.35H19.441v.861h2.186l2.329-.034q.152,0,.177.034a.23.23,0,0,1,.034.152v.852q0,.135-.042.16a.34.34,0,0,1-.169.025l-2.329-.034H19.441v.92h3.148l2.388-.034q.135,0,.16.034a.291.291,0,0,1,.025.152v.97a.321.321,0,0,1-.03.177q-.03.034-.156.034l-2.388-.034H19.256l-.051.1a2.887,2.887,0,0,0-.051.759v.1h4.371l2.194-.034q.186,0,.186.169V-2.9a.254.254,0,0,1-.03.156.254.254,0,0,1-.156.03l-2.194-.034H20.277A15.683,15.683,0,0,0,26.251-.574,3.618,3.618,0,0,0,25.584.591q-.194.464-.346.464A2.484,2.484,0,0,1,24.833.97a14.236,14.236,0,0,1-5.713-3.063l.068,3.283q0,.186-.177.186H17.526q-.169,0-.169-.186,0-.034.025-1.148.034-1.013.042-2.084a12.992,12.992,0,0,1-5.6,2.979q-.38.1-.413.1-.177,0-.346-.447a3.237,3.237,0,0,0-.624-1.063,15.979,15.979,0,0,0,5.738-2.278Zm1.156-3.662h3.494v-.92H14.344Zm0-4.11h3.494v-.861H14.344Zm0,2.034h3.494V-9.35H14.344Zm23.4-2.1a20.907,20.907,0,0,1-2.16,7.443,3.36,3.36,0,0,1-2.945,1.991,2.632,2.632,0,0,1-2.211-1.316,5.455,5.455,0,0,1-.844-3.122,6.2,6.2,0,0,1,1.949-4.5,7.614,7.614,0,0,1,5.62-2.211,6.622,6.622,0,0,1,5.063,1.924,5.715,5.715,0,0,1,1.519,4.067q0,4.692-5.325,6.3a.981.981,0,0,1-.253.042q-.253,0-.489-.354a3.613,3.613,0,0,0-1.207-1.089A8.495,8.495,0,0,0,40.342-3.2a4.43,4.43,0,0,0,1.333-3.384A3.941,3.941,0,0,0,40.469-9.5a3.634,3.634,0,0,0-2.658-1.089Zm-2.008.1a5.312,5.312,0,0,0-2.953,1.57,4.764,4.764,0,0,0-1.35,3.2,3.73,3.73,0,0,0,.43,1.916q.338.557.743.557.709,0,1.3-1.055a14.821,14.821,0,0,0,1.156-2.97A21.724,21.724,0,0,0,35.735-10.489ZM-16.412,20.563a42.127,42.127,0,0,1,4.785,4.177.373.373,0,0,1,.135.245.424.424,0,0,1-.118.253,9.217,9.217,0,0,1-1.156,1.181.32.32,0,0,1-.211.1.4.4,0,0,1-.245-.135A31.369,31.369,0,0,0-17.711,22.1a25.014,25.014,0,0,1-5.806,4.565,1.468,1.468,0,0,1-.4.135.376.376,0,0,1-.3-.152,4.784,4.784,0,0,0-1.451-1.131,24.018,24.018,0,0,0,3.578-2.177,22.264,22.264,0,0,0,2.506-2.228,22.277,22.277,0,0,0,3.249-4.337l-4.456.017q-1.333,0-2.734.11-.169.017-.228-.3a8.291,8.291,0,0,1-.152-1.8q.928.068,2.92.068h4.751a2.843,2.843,0,0,0,1.19-.16.325.325,0,0,1,.194-.068.709.709,0,0,1,.3.135A6.132,6.132,0,0,1-13.425,16a.494.494,0,0,1,.084.219.457.457,0,0,1-.228.346,3.32,3.32,0,0,0-.633.768A29.949,29.949,0,0,1-16.412,20.563Zm18.319,0A42.127,42.127,0,0,1,6.692,24.74a.373.373,0,0,1,.135.245.424.424,0,0,1-.118.253,9.217,9.217,0,0,1-1.156,1.181.32.32,0,0,1-.211.1.4.4,0,0,1-.245-.135A31.369,31.369,0,0,0,.608,22.1,25.014,25.014,0,0,1-5.2,26.664a1.468,1.468,0,0,1-.4.135.376.376,0,0,1-.3-.152,4.784,4.784,0,0,0-1.451-1.131,24.018,24.018,0,0,0,3.578-2.177,22.264,22.264,0,0,0,2.506-2.228,22.277,22.277,0,0,0,3.249-4.337l-4.456.017q-1.333,0-2.734.11-.169.017-.228-.3a8.291,8.291,0,0,1-.152-1.8q.928.068,2.92.068H2.093a2.843,2.843,0,0,0,1.19-.16.325.325,0,0,1,.194-.068.709.709,0,0,1,.3.135A6.132,6.132,0,0,1,4.894,16a.494.494,0,0,1,.084.219.457.457,0,0,1-.228.346,3.32,3.32,0,0,0-.633.768A29.949,29.949,0,0,1,1.907,20.563Zm16.977-1.814a22.651,22.651,0,0,0,1.662-3.063,10.042,10.042,0,0,0,.658-2.126,7.682,7.682,0,0,1,2.177,1.089.365.365,0,0,1,.169.3.48.48,0,0,1-.194.38,4.94,4.94,0,0,0-.776,1.156A34.885,34.885,0,0,1,20.614,19.9a23.668,23.668,0,0,1,2.54,2.346.4.4,0,0,1,.1.245.494.494,0,0,1-.084.219q-.346.456-1.055,1.232a.266.266,0,0,1-.211.118.338.338,0,0,1-.236-.152,18.513,18.513,0,0,0-2.262-2.287,23.014,23.014,0,0,1-5.915,5.4.775.775,0,0,1-.4.135.5.5,0,0,1-.329-.118,4.906,4.906,0,0,0-1.553-.954,23.59,23.59,0,0,0,3.755-2.675,22.416,22.416,0,0,0,2.759-3,21.323,21.323,0,0,0-3.367-2.059q.945-1.207,1.139-1.418a.243.243,0,0,1,.169-.084.52.52,0,0,1,.211.068A24.658,24.658,0,0,1,18.884,18.748Z" transform="translate(264.058 6525.268)" fill="#fff"/>
      <path id="パス_2687" data-name="パス 2687" d="M13.975-15.821V.04H11.24V-7.117H4.632V.04H1.9V-15.821H4.632v6.458H11.24v-6.458Zm7.976,4.392a4.614,4.614,0,0,1,3.843,1.767A6.428,6.428,0,0,1,27.021-5.58a6.2,6.2,0,0,1-1.577,4.522A4.7,4.7,0,0,1,21.93.329a4.608,4.608,0,0,1-3.853-1.767A6.439,6.439,0,0,1,16.86-5.52a6.2,6.2,0,0,1,1.587-4.522A4.707,4.707,0,0,1,21.95-11.429Zm0,1.857q-2.456,0-2.456,4.013,0,4.033,2.436,4.033,2.456,0,2.456-4.033Q24.386-9.573,21.95-9.573Zm10.771-5.27v3.663h2.515V-9.3H32.721v6.159q0,1.617,1.387,1.617a5.832,5.832,0,0,0,1.308-.13L35.316.18a13.466,13.466,0,0,1-2.006.13,3.193,3.193,0,0,1-2.456-.819,3.1,3.1,0,0,1-.669-2.166V-9.3H28.508V-11.18h1.677v-3.084Zm21.691-.978V-13.6H49.69V.04H46.905V-13.6H42.224v-2.226Zm4.562,4.392a4.614,4.614,0,0,1,3.843,1.767A6.428,6.428,0,0,1,64.044-5.58a6.2,6.2,0,0,1-1.577,4.522A4.7,4.7,0,0,1,58.953.329,4.608,4.608,0,0,1,55.1-1.437,6.439,6.439,0,0,1,53.883-5.52a6.2,6.2,0,0,1,1.587-4.522A4.707,4.707,0,0,1,58.973-11.429Zm0,1.857q-2.456,0-2.456,4.013,0,4.033,2.436,4.033,2.456,0,2.456-4.033Q61.409-9.573,58.973-9.573ZM69.155-11.18v1.657A3.55,3.55,0,0,1,72.3-11.429a3.7,3.7,0,0,1,3.2,1.647A7.143,7.143,0,0,1,76.572-5.64a6.7,6.7,0,0,1-1.457,4.612A3.77,3.77,0,0,1,72.18.309a3.2,3.2,0,0,1-2.945-1.847v5.52H66.679V-11.18Zm.08,3.653v3.973q.809,1.877,2.266,1.877a2.015,2.015,0,0,0,1.807-1.068,5.393,5.393,0,0,0,.629-2.835,5.086,5.086,0,0,0-.749-3.054,1.832,1.832,0,0,0-1.537-.789A2.634,2.634,0,0,0,69.235-7.526ZM81.762-11.18V.04H79.187V-11.18Zm.11-4.642v2.635H79.087v-2.635ZM94.01-7.846l-2.5.569q-.359-2.276-1.986-2.276-2.515,0-2.515,3.993,0,4.013,2.515,4.013,1.777,0,2.146-2.356l2.4.659A4.465,4.465,0,0,1,92.3-.469a4.844,4.844,0,0,1-2.835.8,4.649,4.649,0,0,1-3.913-1.757A6.556,6.556,0,0,1,84.377-5.52a6.208,6.208,0,0,1,1.557-4.522,4.7,4.7,0,0,1,3.534-1.387,4.6,4.6,0,0,1,3.144,1.058A4.518,4.518,0,0,1,94.01-7.846Zm10.421-.719-2.436.7q-.419-1.807-2-1.807a2.072,2.072,0,0,0-1.348.4.984.984,0,0,0-.409.809,1.257,1.257,0,0,0,.449,1.058,4.778,4.778,0,0,0,1.547.619l.938.25a5.8,5.8,0,0,1,2.8,1.387,2.9,2.9,0,0,1,.679,2.026,3,3,0,0,1-1.288,2.6,5.459,5.459,0,0,1-3.254.858q-3.663,0-4.682-2.8l2.4-.838a2.282,2.282,0,0,0,2.346,1.887q2.046,0,2.046-1.447a1.181,1.181,0,0,0-.479-1.048,7.206,7.206,0,0,0-1.687-.639l-.938-.26a5.29,5.29,0,0,1-2.665-1.358,3.075,3.075,0,0,1-.629-2.056,2.782,2.782,0,0,1,1.228-2.386,5.016,5.016,0,0,1,2.985-.809Q103.463-11.429,104.431-8.565Zm9.623-8.3a11.446,11.446,0,0,1,2.326.579.343.343,0,0,1,.25.349.36.36,0,0,1-.14.3,1.518,1.518,0,0,0-.349.489q-.04.1-.13.3-.18.429-.349.809a33.052,33.052,0,0,0,3.723-.639.866.866,0,0,1,.12-.01q.16,0,.21.22a7.093,7.093,0,0,1,.21,1.467v.06q0,.22-.349.27-2.386.349-4.791.619a26.489,26.489,0,0,1-1.527,2.266l.02.04a3.7,3.7,0,0,1,2.046-.629,2.252,2.252,0,0,1,2.486,2.206q2.1-.968,3.015-1.437a6.051,6.051,0,0,0,1.547-1.1,11.246,11.246,0,0,1,1.437,1.8.857.857,0,0,1,.16.449q0,.23-.309.289a6.7,6.7,0,0,0-1.248.309q-3,1.058-4.392,1.627v3.294q0,.309-.389.369a9.824,9.824,0,0,1-1.447.1q-.27,0-.27-.329,0-1.757.02-2.486a6.283,6.283,0,0,0-1.986,1.427,1.971,1.971,0,0,0-.479,1.288q0,1.407,2.835,1.407a36.445,36.445,0,0,0,5.091-.409h.06q.2,0,.22.23a7.67,7.67,0,0,1,.19,1.677V.4q0,.309-.23.309a40.183,40.183,0,0,1-5.061.27q-5.131,0-5.131-3.374a3.964,3.964,0,0,1,1.138-2.785,11.792,11.792,0,0,1,3.174-2.2,1.97,1.97,0,0,0-.309-1.128.982.982,0,0,0-.8-.289h-.12A5.019,5.019,0,0,0,111.7-7.317q-.948.928-2.046,2.226-.15.18-.25.18-.08,0-.22-.14A8.791,8.791,0,0,1,108.015-6.4a.343.343,0,0,1-.08-.19.3.3,0,0,1,.14-.22,21.077,21.077,0,0,0,4.282-5.071q-1.427.06-3.274.06-.23,0-.289-.329-.07-.389-.2-1.687.978.04,2.056.04,1.3,0,2.645-.07a16.784,16.784,0,0,0,.609-1.757A5.206,5.206,0,0,0,114.054-16.87ZM139.638-6.149a18.366,18.366,0,0,1,2.206,2.056.417.417,0,0,1,.12.289.4.4,0,0,1-.12.27,9.711,9.711,0,0,1-1.268,1.288.447.447,0,0,1-.25.1.332.332,0,0,1-.22-.12,19.953,19.953,0,0,0-1.986-1.986A25.476,25.476,0,0,1,131.6.858a1.192,1.192,0,0,1-.509.18.621.621,0,0,1-.389-.18A6.1,6.1,0,0,0,128.757-.18a29.894,29.894,0,0,0,4.322-2.635,26.3,26.3,0,0,0,3.2-2.9,17.721,17.721,0,0,0-2.945-1.927q1.228-1.338,1.348-1.457a.4.4,0,0,1,.27-.14.7.7,0,0,1,.2.08,21.639,21.639,0,0,1,2.635,1.637,19.953,19.953,0,0,0,2.4-4.043l-5.071.1a26.272,26.272,0,0,1-4.372,4.6.815.815,0,0,1-.409.18.451.451,0,0,1-.329-.14,8.643,8.643,0,0,0-1.717-.938,25.9,25.9,0,0,0,3.623-3.424,22.271,22.271,0,0,0,2.166-2.995,9.043,9.043,0,0,0,1.1-2.515,13.692,13.692,0,0,1,2.4,1,.352.352,0,0,1,.22.329.507.507,0,0,1-.25.409,1.52,1.52,0,0,0-.419.429q-.24.419-.639,1.018l3.6-.08A2.183,2.183,0,0,0,141.2-13.9a.679.679,0,0,1,.349-.14.721.721,0,0,1,.369.16,6.161,6.161,0,0,1,1.4,1.248.53.53,0,0,1,.16.369.545.545,0,0,1-.23.389,2.693,2.693,0,0,0-.609.779A32.809,32.809,0,0,1,139.638-6.149Zm19.385-4.442v6.768q0,1.8.06,4.252v.06q0,.289-.309.289-.5.03-1.018.03t-1.018-.03q-.289,0-.289-.26V.449q.01-.479.05-2.266.03-1.168.03-1.927V-8.5a32.237,32.237,0,0,1-5.62,3.923.613.613,0,0,1-.309.08.624.624,0,0,1-.429-.2,7.546,7.546,0,0,0-1.757-1.208A35.808,35.808,0,0,0,154.85-10.1a32.349,32.349,0,0,0,4.352-4.272,7.149,7.149,0,0,0,1.3-2.106,17.521,17.521,0,0,1,2.266,1.437.345.345,0,0,1,.16.3.523.523,0,0,1-.289.449,7.818,7.818,0,0,0-1.218,1.128A34.849,34.849,0,0,1,159.023-10.591Zm16.5-5.48A12.127,12.127,0,0,1,178.278-15q.25.17.25.329a.684.684,0,0,1-.21.409,7.1,7.1,0,0,0-.829,1.7q-2.366,6.448-3.524,9.193,4.592-.389,7.157-.779a19.935,19.935,0,0,0-2.276-3.264l1.787-.988a.412.412,0,0,1,.19-.06.432.432,0,0,1,.3.18A26.921,26.921,0,0,1,185.255-1.6a.543.543,0,0,1,.08.27q0,.2-.27.349a10.705,10.705,0,0,1-1.547.838.6.6,0,0,1-.25.06q-.19,0-.289-.289-.539-1.258-.719-1.637-3.773.569-9.7,1.188a7.876,7.876,0,0,0-2.4.5.663.663,0,0,1-.26.06.335.335,0,0,1-.329-.27,18.255,18.255,0,0,1-.719-2.635q.559.04,1.248.04.329,0,1.248-.02,2.026-5.121,3.574-10.122A12.787,12.787,0,0,0,175.523-16.071Zm17.009.289a16.736,16.736,0,0,1,2.545.429q.349.09.349.329a.9.9,0,0,1-.09.309,5.436,5.436,0,0,0-.22,1.936v4.133q0,.379.05,2.575,0,.409-.439.409h-1.647q-.379,0-.379-.3v-.05l.06-2.785v-4A15.264,15.264,0,0,0,192.532-15.781ZM193.57-.489a9.892,9.892,0,0,0,4.981-2.985q1.378-1.7,1.378-5.46V-12.8a18,18,0,0,0-.23-3.334,13.226,13.226,0,0,1,2.665.449.349.349,0,0,1,.279.349.653.653,0,0,1-.08.329,7.882,7.882,0,0,0-.18,2.226v3.8a15.9,15.9,0,0,1-.439,4.083,7.437,7.437,0,0,1-1.228,2.585,8.817,8.817,0,0,1-2.136,1.976A10.822,10.822,0,0,1,196.225.908a1.322,1.322,0,0,1-.429.1.687.687,0,0,1-.489-.25A6.9,6.9,0,0,0,193.57-.489Zm16.37-8.485a30.186,30.186,0,0,0,4.412.25h6.588q.968,0,2.5-.03,1.946-.03,2.206-.04h.1q.27,0,.27.289.03.469.03.968t-.03.958q0,.309-.289.309h-.08q-3.064-.04-4.562-.04h-7.357l-3,.25a.45.45,0,0,1-.469-.429A19.436,19.436,0,0,1,209.94-8.974Zm22.05-6.6a9.531,9.531,0,0,1,2.2.749q.469.25.469.489a1.64,1.64,0,0,1-.309.619,6.2,6.2,0,0,0-.489,1.447A30.6,30.6,0,0,0,233-5.66a21.724,21.724,0,0,0,.12,2.386q1.387-3.035,1.387-3.044a7.819,7.819,0,0,0,.719,1.288.913.913,0,0,1,.14.309.649.649,0,0,1-.1.329A22.143,22.143,0,0,0,234.1-1.308a2.371,2.371,0,0,0-.06.639l.04.569q0,.21-.27.27A10.835,10.835,0,0,1,232.14.5h-.04q-.17,0-.23-.23a13.393,13.393,0,0,1-.719-3.025,22.512,22.512,0,0,1-.22-3.064,38.783,38.783,0,0,1,.7-6.708A20.38,20.38,0,0,0,231.991-15.572ZM236.7-5.031l1.857-.16h.04q.16,0,.16.309a1.771,1.771,0,0,0,.988,1.547,5.671,5.671,0,0,0,2.346.369,34.418,34.418,0,0,0,3.9-.26.854.854,0,0,1,.09-.01q.16,0,.2.27a12.7,12.7,0,0,1,.12,1.757q0,.2-.05.24a.791.791,0,0,1-.3.06,28.341,28.341,0,0,1-3.334.23,11.237,11.237,0,0,1-3.623-.449,3.559,3.559,0,0,1-1.687-1.248A4.252,4.252,0,0,1,236.7-5.031Zm.649-5.8q.03-1.757.06-2.006a.348.348,0,0,1,.289-.349,24.3,24.3,0,0,1,4.442-.369q1.737,0,3.025.12a.931.931,0,0,1,.409.08q.06.04.06.19,0,1.168-.04,1.737-.03.25-.22.25h-.05q-1.837-.13-3.334-.13A26.215,26.215,0,0,0,237.351-10.83Zm15.183-3.793-2.5.04q-.2,0-.2-.22v-1.457q0-.22.2-.22l2.5.04h4.083l2.505-.04q.16,0,.19.04a.344.344,0,0,1,.03.18V-14.8q0,.16-.04.19a.344.344,0,0,1-.18.03l-2.505-.04h-.16v1.966l2.086-.04q.23,0,.23.21l-.04,3.863v3.8l.04,5.73q0,.16-.05.19a.312.312,0,0,1-.18.03h-1.248q-.18,0-.21-.04a.344.344,0,0,1-.03-.18V.23h-4.861V1.268q0,.23-.21.23H250.7q-.16,0-.19-.04a.373.373,0,0,1-.03-.19l.04-5.869V-8.075l-.04-4.412q0-.21.22-.21l2.086.04v-1.966Zm1.607,5.869a9.1,9.1,0,0,1-.848,3.114q-.1.18-.21.18-.13,0-.24-.27a2.364,2.364,0,0,0-.649-.9V-4.7h4.861V-6.418H256.3a1.585,1.585,0,0,1-1.008-.23q-.3-.25-.3-1.158V-11.04h-.759Q254.23-9.653,254.141-8.754Zm-1.946,7.227h4.861V-3h-4.861Zm0-9.513v4.192a3.743,3.743,0,0,0,.5-1.078,9.334,9.334,0,0,0,.23-1.358q.04-.489.04-1.757Zm4.861,0H256.3v2.126a2.182,2.182,0,0,0,.06.7q.07.14.389.14h.309Zm-2.825-1.617h.759v-1.966h-.759Zm6.109-3.8,2.126.04h2.615l2.146-.04q.18,0,.21.04a.293.293,0,0,1,.04.19l-.04,2.186v4.6l.04,2.2q0,.15-.04.185a.379.379,0,0,1-.21.035H265.59q-.16,0-.19-.04a.344.344,0,0,1-.03-.18v-.7h-3.184v5.929a1.5,1.5,0,0,0,.18.918,2.653,2.653,0,0,0,1.527.26,2.873,2.873,0,0,0,1.907-.409,1.85,1.85,0,0,0,.329-.928q.08-.519.14-1.747a4.556,4.556,0,0,0,1.387.579,1.657,1.657,0,0,1,.509.2.368.368,0,0,1,.1.3q0,.08-.02.319a4.323,4.323,0,0,1-1,2.935q-.838.739-3.434.739T260.629.619a2.2,2.2,0,0,1-.509-1.637V-7.377L260.08-9.7a.364.364,0,0,1,.04-.22.4.4,0,0,1,.2-.03l1.946.04h3.1v-4.522h-2.9l-2.126.04q-.22,0-.22-.2v-1.647q0-.16.04-.19A.344.344,0,0,1,260.339-16.46ZM278.267,1.527H276.61q-.16,0-.19-.04a.344.344,0,0,1-.03-.18l.04-2.725V-2.795l-.04-1.827q0-.2.22-.2l2.685.04h4.881l2.635-.04q.23,0,.23.2L287-3.044v1.587l.04,2.7q0,.21-.23.21h-1.7q-.22,0-.22-.21V.629h-6.4v.679q0,.16-.04.19A.373.373,0,0,1,278.267,1.527Zm.23-4.572v1.936h6.4V-3.044ZM269.6-9.133a19.437,19.437,0,0,0,3.534-6.588,7.156,7.156,0,0,0,.349-1.467,17.889,17.889,0,0,1,1.887.549q.349.12.349.309a.628.628,0,0,1-.23.369,2.65,2.65,0,0,0-.409.858q-.449,1.278-.978,2.486v10.88l.04,3.1a.316.316,0,0,1-.04.2.372.372,0,0,1-.19.03h-1.7q-.2,0-.2-.23l.04-3.1v-7.2a18.254,18.254,0,0,1-1.208,1.627q-.21.27-.369.27-.13,0-.22-.349A6.162,6.162,0,0,0,269.6-9.133Zm8.644-2.4-2.825.04q-.16,0-.19-.04a.44.44,0,0,1-.03-.2v-1.437a.34.34,0,0,1,.04-.21.344.344,0,0,1,.18-.03l2.825.04H285.6l2.8-.04q.17,0,.21.05a.373.373,0,0,1,.03.19v1.437a.34.34,0,0,1-.04.21.4.4,0,0,1-.2.03l-2.8-.04Zm5.74-2.965h-4.412l-2.555.04a.316.316,0,0,1-.2-.04.344.344,0,0,1-.03-.18v-1.378q0-.16.05-.19a.312.312,0,0,1,.18-.03l2.555.04h4.412l2.515-.04a.364.364,0,0,1,.22.04.343.343,0,0,1,.03.18v1.378q0,.16-.05.19a.4.4,0,0,1-.2.03Zm-.16,5.77h-4.232l-2.535.04q-.23,0-.23-.2v-1.358q0-.16.05-.19a.312.312,0,0,1,.18-.03l2.535.04h4.232l2.515-.04q.16,0,.19.04a.344.344,0,0,1,.03.18v1.358q0,.2-.22.2Zm0,2.815h-4.232l-2.535.04a.316.316,0,0,1-.2-.04.343.343,0,0,1-.03-.18V-7.427q0-.16.05-.19a.312.312,0,0,1,.18-.03l2.535.04h4.232l2.515-.04q.16,0,.19.04a.344.344,0,0,1,.03.18v1.338a.3.3,0,0,1-.035.185.3.3,0,0,1-.185.035Zm13.44-10.281-.549,12.168h-2.066l-.569-12.168ZM294.2-2.036h2.9V.719h-2.9ZM14.324,33.011a8.315,8.315,0,0,0-.08,1.288,1.154,1.154,0,0,1-.1.629,1.322,1.322,0,0,1-.509.21q-2.346.729-5.2,1.387a1.916,1.916,0,0,0-.649.25.555.555,0,0,1-.329.14.245.245,0,0,1-.25-.2,15.162,15.162,0,0,1-.449-1.946,15.975,15.975,0,0,0,1.717-.22l.679-.13V23.059l-.04-3.6q0-.16.04-.19a.344.344,0,0,1,.18-.03l2.645.04h3.613l2.356-.04q.16,0,.19.04a.344.344,0,0,1,.03.18l-.04,2.246v3.783l.04,2.276q0,.16-.04.19a.344.344,0,0,1-.18.03l-2.356-.04h-1a12.593,12.593,0,0,0,.8,2.655q.7-.549,1.7-1.507a5.6,5.6,0,0,0,.649-.858,16.323,16.323,0,0,1,1.417,1.188.548.548,0,0,1,.16.319q0,.21-.25.289a2.558,2.558,0,0,0-.878.609,22.4,22.4,0,0,1-1.877,1.557,9,9,0,0,0,3.534,2.925,6.015,6.015,0,0,0-.918,1.477q-.25.489-.369.489a1.268,1.268,0,0,1-.449-.23,12.205,12.205,0,0,1-5.44-8.914H11.22v6.029Q12.917,33.53,14.324,33.011ZM16.061,26.2V24.386H11.22V26.2Zm0-5.131H11.22v1.677h4.841ZM4.232,31.194q.16.01.3.01a1.909,1.909,0,0,0,1.308-.359,1.433,1.433,0,0,0,.389-1.118,3.876,3.876,0,0,0-.4-1.657,16.211,16.211,0,0,0-1.5-2.376,26.62,26.62,0,0,0,1.857-4.622H3.9V32.562l.04,4.332a.316.316,0,0,1-.04.2.344.344,0,0,1-.18.03H2.056a.3.3,0,0,1-.185-.035.325.325,0,0,1-.035-.195l.04-4.332V23.748l-.04-4.342a.364.364,0,0,1,.04-.22.373.373,0,0,1,.19-.03L3.8,19.2h3a.994.994,0,0,0,.409-.06.5.5,0,0,1,.22-.06q.26,0,.8.609.529.529.529.8a.485.485,0,0,1-.2.369,1.678,1.678,0,0,0-.389.649,41.666,41.666,0,0,1-1.717,4.023,9.063,9.063,0,0,1,1.547,2.765,5.966,5.966,0,0,1,.21,1.7q0,2.935-2.795,3.164-.25.02-.329.02-.26,0-.329-.13a1.666,1.666,0,0,1-.08-.479A2.53,2.53,0,0,0,4.232,31.194ZM27.85,26.313l-2.755.04a.364.364,0,0,1-.22-.04.373.373,0,0,1-.03-.19v-1.5q0-.16.05-.19a.4.4,0,0,1,.2-.03l2.755.04h5.77l2.755-.04a.316.316,0,0,1,.2.04.344.344,0,0,1,.03.18v1.5a.316.316,0,0,1-.04.2.373.373,0,0,1-.19.03l-2.755-.04H31.882v2.715h2.5l2.346-.04q.18,0,.21.04a.272.272,0,0,1,.04.18v1.5q0,.14-.04.17a.434.434,0,0,1-.21.03l-2.346-.04h-2.5v3.494a35.67,35.67,0,0,0,3.943.18q1.547,0,3.963-.18a5.751,5.751,0,0,0-.389,1.467q-.06.489-.18.579a1.46,1.46,0,0,1-.549.12q-1.168.06-2.416.06-5.43-.02-7.606-1a6.69,6.69,0,0,1-2.755-2.555,11.879,11.879,0,0,1-2.5,3.494q-.319.349-.449.349-.11,0-.409-.389a4.422,4.422,0,0,0-1.188-1.058,9.566,9.566,0,0,0,3.683-6.458,12.479,12.479,0,0,0,.12-1.308q.888.13,1.946.389.389.08.389.279a.67.67,0,0,1-.19.389,1.857,1.857,0,0,0-.27.639,14.435,14.435,0,0,1-.369,1.607,7.147,7.147,0,0,0,1.308,1.887,4.873,4.873,0,0,0,1.767,1.038V26.313ZM36.394,20.5l2.7-.04q.23,0,.23.2l-.04,1.068v.878l.04,2.246q0,.16-.05.19a.312.312,0,0,1-.18.03H37.412q-.16,0-.19-.04a.344.344,0,0,1-.03-.18V22.38H24.256v2.476q0,.16-.05.19a.4.4,0,0,1-.2.03H22.35q-.16,0-.19-.04a.344.344,0,0,1-.03-.18l.04-2.246v-.7l-.04-1.248q0-.2.22-.2l2.725.04h4.372v-.18a8.92,8.92,0,0,0-.15-1.946q1.028,0,2.186.1.309.04.309.21a1.322,1.322,0,0,1-.12.389,4.9,4.9,0,0,0-.08,1.228v.2Zm16.021,2.476a24.732,24.732,0,0,1-2.555,8.8,3.974,3.974,0,0,1-3.484,2.356,3.114,3.114,0,0,1-2.615-1.557,6.452,6.452,0,0,1-1-3.693,7.33,7.33,0,0,1,2.306-5.32,9.006,9.006,0,0,1,6.648-2.615,7.834,7.834,0,0,1,5.989,2.276,6.76,6.76,0,0,1,1.8,4.811q0,5.55-6.3,7.447a1.161,1.161,0,0,1-.3.05q-.3,0-.579-.419A4.274,4.274,0,0,0,50.9,33.829a10.049,10.049,0,0,0,4.592-2.106,5.24,5.24,0,0,0,1.577-4,4.662,4.662,0,0,0-1.427-3.454A4.3,4.3,0,0,0,52.5,22.979Zm-2.376.12a6.284,6.284,0,0,0-3.494,1.857,5.635,5.635,0,0,0-1.6,3.783A4.412,4.412,0,0,0,45.458,31q.4.659.878.659.838,0,1.537-1.248A17.532,17.532,0,0,0,49.241,26.9,25.7,25.7,0,0,0,50.04,23.1Zm17.888.389.02-2.336a7.768,7.768,0,0,0-.14-1.647,11.548,11.548,0,0,1,2.426.359q.409.11.409.389a.737.737,0,0,1-.12.329,2.6,2.6,0,0,0-.289.8q-.06.589-.1,1.7a21.2,21.2,0,0,0,2.625-.749.407.407,0,0,1,.14-.03q.18,0,.21.21a10.3,10.3,0,0,1,.12,1.587.326.326,0,0,1-.27.329,27.491,27.491,0,0,1-2.925.779l-.04,2.965a12.314,12.314,0,0,1,5.031-1.128A4.41,4.41,0,0,1,78.3,28.319a3.858,3.858,0,0,1,1.078,2.8,3.894,3.894,0,0,1-1.338,3.194,4.726,4.726,0,0,1-3.094.958,7.363,7.363,0,0,1-1.677-.18.572.572,0,0,1-.449-.619,3.428,3.428,0,0,0-.619-1.727,8.225,8.225,0,0,0,2.555.359,2.236,2.236,0,0,0,1.607-.579,2.007,2.007,0,0,0,.6-1.527,1.929,1.929,0,0,0-.669-1.6,2.435,2.435,0,0,0-1.577-.469,10.567,10.567,0,0,0-4.682,1.4q.03,1.308.08,2.456.17,2.386.17,2.655a1.872,1.872,0,0,1-.03.439.349.349,0,0,1-.279.23,7.059,7.059,0,0,1-1.507.25q-.2.02-.5-.409a11.6,11.6,0,0,0-2.9-2.615,3.577,3.577,0,0,0-.649.449.5.5,0,0,1-.349.14.554.554,0,0,1-.449-.329,18.991,18.991,0,0,1-.938-1.9,7.3,7.3,0,0,0,1.877-.719q.928-.509,3.334-1.9V25.594q-2.046.16-3.434.16a.438.438,0,0,1-.489-.429q-.08-.489-.23-1.777a11,11,0,0,0,1.6.1Q66.21,23.648,67.927,23.488Zm.06,7.746q-1.3.878-2,1.387a20.133,20.133,0,0,0,1.917.918.428.428,0,0,0,.11.02q.1,0,.1-.12a.188.188,0,0,0-.01-.06q-.02-.309-.06-1.1T67.987,31.234Zm6.838-7.746a12.6,12.6,0,0,1,.938-1.6q.16-.26.27-.26a.429.429,0,0,1,.08.01,9.827,9.827,0,0,1,4.332,2.5.362.362,0,0,1,.12.21.7.7,0,0,1-.08.2q-.17.26-.579.779-.449.579-.529.679-.05.07-.22.07-.15,0-.19-.07A9.588,9.588,0,0,0,74.825,23.488Zm16.141,8.1-2.795.04q-.17,0-.2-.05a.373.373,0,0,1-.03-.19V30.006q0-.16.04-.19a.373.373,0,0,1,.19-.03l2.795.04h5.42V28.6H91.2l-2.785.04a.339.339,0,0,1-.21-.04.344.344,0,0,1-.03-.18V27.062q0-.16.04-.19a.4.4,0,0,1,.2-.03l2.785.04h6.828l2.795-.04q.21,0,.21.22v1.358q0,.22-.21.22l-.309-.01q-.918-.02-2.056-.03v1.228l2.386-.04q.17,0,.2.04a.344.344,0,0,1,.03.18v1.378a.353.353,0,0,1-.035.2q-.035.04-.195.04l-.289-.01q-.908-.02-2.1-.03v.938L98.472,35a1.671,1.671,0,0,1-.7,1.537,6.392,6.392,0,0,1-2.835.389q-.489,0-.579-.1a1.448,1.448,0,0,1-.18-.539,4.607,4.607,0,0,0-.579-1.427,15.891,15.891,0,0,0,1.767.09q.23,0,.449-.01.569,0,.569-.619V31.583Zm5.57-12.408,2.505-.04q.17,0,.2.04a.344.344,0,0,1,.03.18l-.04,1.827v2.635l.04,1.817q0,.17-.04.2a.373.373,0,0,1-.19.03l-2.505-.04H92.563l-2.515.04q-.16,0-.19-.04a.373.373,0,0,1-.03-.19l.04-1.817V21.182l-.04-1.827q0-.16.04-.19a.344.344,0,0,1,.18-.03l2.515.04Zm.709,5.091V23.248H91.8v1.018ZM91.8,20.753v1h5.44v-1Zm-4.961,2.206a13.463,13.463,0,0,1,1.507.978.562.562,0,0,1,.27.409q0,.16-.23.309a2.043,2.043,0,0,0-.569.709q-.5.809-.858,1.308v7.686L87,36.894a.316.316,0,0,1-.04.2.344.344,0,0,1-.18.03H85.076q-.16,0-.19-.04a.373.373,0,0,1-.03-.19l.04-2.535V31.294q0-.739.04-2.246-.6.6-1.128,1.038a1.214,1.214,0,0,1-.469.27q-.15,0-.26-.409a4.129,4.129,0,0,0-.719-1.5A16.87,16.87,0,0,0,86.3,24.037,5.082,5.082,0,0,0,86.843,22.959Zm-.19-4.5a12.1,12.1,0,0,1,1.587.958q.289.2.289.389a.3.3,0,0,1-.21.27,1.6,1.6,0,0,0-.609.549A20.352,20.352,0,0,1,84.178,24.1a1.133,1.133,0,0,1-.449.25q-.13,0-.369-.469a4,4,0,0,0-.918-1.208,12.9,12.9,0,0,0,3.584-3.254A4.838,4.838,0,0,0,86.653,18.457Zm5.091,13.5a11.328,11.328,0,0,1,1.976,2.286.336.336,0,0,1,.08.17q0,.08-.2.22l-1.288.8a.481.481,0,0,1-.24.1q-.08,0-.17-.14a12.4,12.4,0,0,0-1.857-2.376q-.12-.1-.12-.16t.2-.19l1.188-.729a.512.512,0,0,1,.22-.09A.338.338,0,0,1,91.744,31.953Zm22.449-1.008q-.14-1.507-.18-3.514a7.938,7.938,0,0,0-.17-1.447,12.452,12.452,0,0,1,2.226.389.31.31,0,0,1,.289.319,2.327,2.327,0,0,1-.12.429,1.98,1.98,0,0,0-.09.609q0,.07.01.23a30.578,30.578,0,0,0,.22,3.474,18.105,18.105,0,0,1,3.683,1.907q.18.13.18.24a.463.463,0,0,1-.06.19,14.421,14.421,0,0,1-.938,1.657q-.09.14-.19.14a.327.327,0,0,1-.2-.12,16.564,16.564,0,0,0-2.5-1.717,2.632,2.632,0,0,1-1.158,2.356,4.8,4.8,0,0,1-2.635.629,4.219,4.219,0,0,1-2.855-.9,2.521,2.521,0,0,1-.908-2.006,2.613,2.613,0,0,1,1.158-2.256,4.406,4.406,0,0,1,2.625-.729A10.557,10.557,0,0,1,114.194,30.945Zm.04,1.946a5.206,5.206,0,0,0-1.667-.309,2.383,2.383,0,0,0-1.358.339.987.987,0,0,0-.459.848q0,.978,1.737.978a1.905,1.905,0,0,0,1.358-.459,1.305,1.305,0,0,0,.409-.988A2.853,2.853,0,0,0,114.233,32.891ZM110.909,22.4a20.823,20.823,0,0,0,2.535-.439.454.454,0,0,1,.15-.04q.12,0,.15.2a9.458,9.458,0,0,1,.19,1.657q0,.21-.25.24-1.058.22-3.374.549a58.571,58.571,0,0,1-3.983,8.774q-.12.2-.23.2a.6.6,0,0,1-.24-.1,8.337,8.337,0,0,1-1.417-1.048.3.3,0,0,1-.14-.22.414.414,0,0,1,.1-.25,43.69,43.69,0,0,0,3.544-7.127q-.779.04-2.046.04-.619,0-1.128-.02-.23,0-.289-.329a11.562,11.562,0,0,1-.2-1.737q1.108.08,1.9.08,1.188,0,2.356-.1.27-.948.529-2.286a9.409,9.409,0,0,0,.13-1.657,18.488,18.488,0,0,1,2.386.429q.329.06.329.3a.544.544,0,0,1-.18.389,2.609,2.609,0,0,0-.329.759q-.05.17-.25.888Q111.009,22.071,110.909,22.4Zm4.532,1.946q.838-1.487.918-1.6.12-.19.25-.19a.553.553,0,0,1,.18.04,14.355,14.355,0,0,1,4.013,1.927q.18.12.18.22a.516.516,0,0,1-.08.25,11.472,11.472,0,0,1-.858,1.517q-.09.14-.19.14a.338.338,0,0,1-.18-.08A17.5,17.5,0,0,0,115.441,24.347ZM136.4,35.1q.709.06,1.387.06a.794.794,0,0,0,.6-.17.666.666,0,0,0,.12-.439V33.73h-5.54v.938l.04,2.206q0,.18-.05.21a.316.316,0,0,1-.2.04h-1.6q-.17,0-.21-.05a.4.4,0,0,1-.03-.2l.04-2.166V29.926l-.04-2.206q0-.18.05-.22a.4.4,0,0,1,.2-.03l2.525.04h4.073l2.535-.04q.16,0,.19.05a.4.4,0,0,1,.03.2l-.04,2.386v1.827l.04,2.835A2.254,2.254,0,0,1,140,36.485a4,4,0,0,1-2.326.519h-.25q-.3,0-.389-.13a1.791,1.791,0,0,1-.16-.509A4.446,4.446,0,0,0,136.4,35.1Zm-3.434-2.715h5.54V31.374h-5.54Zm5.54-3.314h-5.54v.958h5.54Zm-5.57-2.406-2.775.02a.368.368,0,0,1-.2-.03.4.4,0,0,1-.03-.2V25.285q0-.16.05-.19a.312.312,0,0,1,.18-.03l2.775.04h1.717v-.938h-1.018l-2.575.04q-.16,0-.2-.05a.4.4,0,0,1-.03-.2V22.939q0-.17.05-.2a.312.312,0,0,1,.18-.03l2.575.04h1.018v-.918h-1.348l-2.7.04a.316.316,0,0,1-.2-.04.373.373,0,0,1-.03-.19v-1.1q0-.18.05-.22a.312.312,0,0,1,.18-.03l2.7.04h1.348q-.02-1-.14-2.006,1.048.03,2.026.15.329.03.329.2a.916.916,0,0,1-.06.3q-.08.2-.09.23a4.941,4.941,0,0,0-.08,1.128h1.966l2.675-.04q.18,0,.21.05a.316.316,0,0,1,.04.2v1.1q0,.17-.05.2a.4.4,0,0,1-.2.03l-2.675-.04h-1.966v.918h1.387l2.555-.04a.316.316,0,0,1,.2.04.372.372,0,0,1,.03.19v1.018a.364.364,0,0,1-.04.22.373.373,0,0,1-.19.03l-2.555-.04h-1.387v.938h2.535l2.755-.04q.17,0,.2.04a.344.344,0,0,1,.03.18v1.168q0,.18-.04.21a.489.489,0,0,1-.19.02l-2.755-.02Zm-6.987-8.285q1.178.03,2.106.14.329.03.329.21a1.1,1.1,0,0,1-.1.409,9.2,9.2,0,0,0-.15,2.266V33.28l.04,3.574a.364.364,0,0,1-.04.22.344.344,0,0,1-.18.03H126.3q-.17,0-.2-.05a.4.4,0,0,1-.03-.2l.04-3.554V21.462A23.046,23.046,0,0,0,125.952,18.377Zm-1.617,4.292.958.2q.3.07.3.25v.08a17.806,17.806,0,0,1-.7,4.472q-.05.16-.12.16a.715.715,0,0,1-.21-.07l-.988-.409q-.25-.1-.25-.26a.579.579,0,0,1,.03-.15,16.75,16.75,0,0,0,.649-4.143q0-.17.09-.17A1.992,1.992,0,0,1,124.335,22.67Zm4.871-.679a.634.634,0,0,1,.18-.04q.11,0,.18.17a14.433,14.433,0,0,1,.838,2.426.581.581,0,0,1,.03.14q0,.11-.25.21l-.858.309a.874.874,0,0,1-.23.06q-.11,0-.14-.19a15.658,15.658,0,0,0-.759-2.466.635.635,0,0,1-.04-.17q0-.11.25-.18ZM162.925,35.2a4.734,4.734,0,0,0-.8,1.387q-.21.449-.339.449a1.145,1.145,0,0,1-.409-.22,18,18,0,0,1-2.456-2.216,17.991,17.991,0,0,1-1.737,2.066q-.319.289-.409.289-.12,0-.369-.429a5.087,5.087,0,0,0-.878-1.208q.01.589.03,1.168.01.379.01.409,0,.2-.22.2h-1.577a.364.364,0,0,1-.22-.04.261.261,0,0,1-.03-.16l.04-4.272v-8.8l-.04-4.332q0-.17.05-.2a.4.4,0,0,1,.2-.03l2.535.04H159.6l2.306-.04q.27,0,.27.21v.06q-.03.24-.04.569-.02.409-.02.469a9.932,9.932,0,0,1-.449,3.064,1.779,1.779,0,0,1-.858.878,3.6,3.6,0,0,1-1.378.21q-.719,0-1.078-.02a.81.81,0,0,1-.449-.11,1.042,1.042,0,0,1-.13-.419,6.717,6.717,0,0,0-.329-1.318,11.31,11.31,0,0,0,1.6.13,1.074,1.074,0,0,0,.609-.13.71.71,0,0,0,.25-.409,4.371,4.371,0,0,0,.15-1.268h-4.522v4.622h4.392a1.355,1.355,0,0,0,.579-.08.613.613,0,0,1,.309-.08q.22,0,.779.549.569.6.569.8a.574.574,0,0,1-.14.349,1.759,1.759,0,0,0-.349.769A19.1,19.1,0,0,1,160,32.821,14.082,14.082,0,0,0,162.925,35.2Zm-7.4.06a13.853,13.853,0,0,0,2.146-2.316,15.161,15.161,0,0,1-2.006-5.31h-.14Zm4.332-7.626h-2.476a13.569,13.569,0,0,0,1.378,3.494A17,17,0,0,0,159.861,27.631ZM147.084,31.8h.679V30.126h-1.048l-2.386.04q-.17,0-.2-.05a.4.4,0,0,1-.03-.2V28.649q0-.16.04-.19a.373.373,0,0,1,.19-.03l2.386.04h2.416q.379-.928.649-1.8a7.736,7.736,0,0,0,.21-.968,15.513,15.513,0,0,1,1.717.409q.289.09.289.23a.315.315,0,0,1-.14.25.9.9,0,0,0-.27.379q-.349.868-.659,1.5l1.966-.04q.16,0,.19.04a.344.344,0,0,1,.03.18v1.268a.364.364,0,0,1-.04.22.344.344,0,0,1-.18.03l-2.416-.04h-.759V31.8h.549l2.236-.04q.16,0,.19.04a.344.344,0,0,1,.03.18V33.25a.325.325,0,0,1-.035.195.3.3,0,0,1-.185.035l-2.236-.04h-.549v1.328l.04,2.126q0,.16-.04.19a.344.344,0,0,1-.18.03h-1.6a.316.316,0,0,1-.2-.04.344.344,0,0,1-.03-.18l.05-2.126V33.44h-.679l-2.246.04a.316.316,0,0,1-.2-.04.373.373,0,0,1-.03-.19V31.983q0-.16.04-.19a.373.373,0,0,1,.19-.03Zm-.349-7.866h1.028V22.32H147.2L145,22.36q-.16,0-.19-.04a.344.344,0,0,1-.03-.18V20.853q0-.21.22-.21l2.206.04h.559v-.04a13.566,13.566,0,0,0-.15-2.246,18.7,18.7,0,0,1,2.026.14q.329.03.329.21a.987.987,0,0,1-.12.369,2.445,2.445,0,0,0-.13,1.018v.549h.449l2.206-.04a.185.185,0,0,1,.21.21V22.14q0,.22-.21.22l-2.206-.04h-.449v1.617h.7l2.436-.04q.16,0,.19.05a.4.4,0,0,1,.03.2v1.268q0,.16-.04.19a.344.344,0,0,1-.18.03l-2.436-.04h-3.683l-2.386.04a.364.364,0,0,1-.22-.04.344.344,0,0,1-.03-.18V24.147q0-.18.05-.22a.4.4,0,0,1,.2-.03ZM145.6,26.473a.4.4,0,0,1-.06-.17q0-.08.24-.16l1.128-.349a.589.589,0,0,1,.16-.03q.12,0,.2.17a10.587,10.587,0,0,1,.7,1.787.839.839,0,0,1,.03.16q0,.11-.23.19l-1.128.339a.7.7,0,0,1-.21.05q-.1,0-.16-.19A12.483,12.483,0,0,0,145.6,26.473ZM171.959,30.2a13.383,13.383,0,0,0-.12,1.647,2.583,2.583,0,0,0,.739,2.1,3.106,3.106,0,0,0,1.976.519q3.723,0,3.723-2.755a4.047,4.047,0,0,0-.389-1.8,8.542,8.542,0,0,0-1.447-1.927,4.2,4.2,0,0,0,.629.05,11.824,11.824,0,0,0,1.457-.17.507.507,0,0,1,.14-.02.437.437,0,0,1,.289.1,5.14,5.14,0,0,1,1.737,3.843,4.253,4.253,0,0,1-1.837,3.643,6.787,6.787,0,0,1-4.053,1.138q-5.151,0-5.151-4.612,0-.319.14-1.927a17.788,17.788,0,0,1-2.775-.609q-.2-.06-.23-.389-.06-.649-.06-1.228,0-.349.02-.679a13.926,13.926,0,0,0,3.314.8q.22-1.657.349-2.925a16.563,16.563,0,0,1-2.945-.569q-.329-.08-.329-.349-.06-1.467-.06-1.9a18.373,18.373,0,0,0,3.7.779q.21-1.537.26-2.356.03-.389.03-.779a8.324,8.324,0,0,0-.05-.938,10.166,10.166,0,0,1,2.456.569q.449.16.449.469a.6.6,0,0,1-.16.389,2.14,2.14,0,0,0-.369.878q-.18.819-.329,1.927.3.02.659.02a13.909,13.909,0,0,0,1.857-.14q.21,0,.21.24.01.279.01.569a8.126,8.126,0,0,1-.05.968q0,.27-.329.3a18.855,18.855,0,0,1-2.116.11H172.7q-.09.519-.449,2.925.449.01.779.01,1.028,0,2.126-.08a.727.727,0,0,1,.12-.01q.21,0,.21.24a11.189,11.189,0,0,1-.1,1.537q-.03.329-.289.329-.9.07-2.086.07Q172.508,30.206,171.959,30.2Zm19.728-10.88-.549,12.168h-2.066L188.5,19.316ZM188.623,33.47h2.9v2.755h-2.9ZM3.923,66.491A24.635,24.635,0,0,0,8.9,64.255a15.037,15.037,0,0,0,2.925-2.346,5.252,5.252,0,0,0,.739-1.018,16.483,16.483,0,0,1,1.757.589q.309.13.309.329,0,.17-.25.309a2.407,2.407,0,0,0-.549.469l-.429.429H16.66a1.919,1.919,0,0,0,.719-.1,1.228,1.228,0,0,1,.319-.1,1.843,1.843,0,0,1,.908.549q.569.5.569.719,0,.18-.25.349a3.748,3.748,0,0,0-.609.609,18.983,18.983,0,0,1-5.869,5.181,26.958,26.958,0,0,1-7.586,2.545,3.231,3.231,0,0,1-.469.06q-.23,0-.429-.489a4.729,4.729,0,0,0-.878-1.368,27.494,27.494,0,0,0,7.886-2.3,16.742,16.742,0,0,0-1.6-1.308q-.14-.14-.14-.2,0-.08.15-.19l1.1-.8a.461.461,0,0,1,.23-.09.512.512,0,0,1,.24.09A13.393,13.393,0,0,1,12.8,67.619a14.845,14.845,0,0,0,3.144-2.885H11.569a23.306,23.306,0,0,1-5.75,3.354,3.349,3.349,0,0,1-.489.14q-.14,0-.369-.429A4.783,4.783,0,0,0,3.923,66.491ZM1.677,59.034a17.565,17.565,0,0,0,6.5-4.252,4.407,4.407,0,0,0,.759-1.058,15.381,15.381,0,0,1,1.976.449q.289.05.289.26,0,.17-.25.309a2.032,2.032,0,0,0-.569.509l-.309.349h3.5a1.955,1.955,0,0,0,.729-.1,1.366,1.366,0,0,1,.369-.08,1.486,1.486,0,0,1,.8.449q.7.569.7.819a.405.405,0,0,1-.25.349,2.857,2.857,0,0,0-.649.629A20.477,20.477,0,0,1,10.3,61.979a27.57,27.57,0,0,1-7.1,2.965,2.418,2.418,0,0,1-.429.08q-.19,0-.449-.489a4.965,4.965,0,0,0-.918-1.228,28.116,28.116,0,0,0,6.538-2.246,11.217,11.217,0,0,0-1.467-1.148q-.16-.13-.16-.18,0-.08.16-.21l1.018-.8a.391.391,0,0,1,.22-.1.531.531,0,0,1,.25.1,19.057,19.057,0,0,1,1.767,1.288,15.409,15.409,0,0,0,3.1-2.7H8.395a17.044,17.044,0,0,1-4.781,3.074,1.329,1.329,0,0,1-.449.16q-.13,0-.389-.369A5.634,5.634,0,0,0,1.677,59.034Zm30.6-4.622a15.849,15.849,0,0,1,2.256,1.557.4.4,0,0,1,.16.319.405.405,0,0,1-.289.389,4.466,4.466,0,0,0-.978.719q-3.364,3.015-5.58,5.31a1.029,1.029,0,0,0-.27.449q0,.16.27.369a56.1,56.1,0,0,1,7.606,6.438.537.537,0,0,1,.14.27.382.382,0,0,1-.14.24q-.819.888-1.417,1.417a.555.555,0,0,1-.279.16q-.09,0-.25-.18a53.152,53.152,0,0,0-7.437-6.908,2.263,2.263,0,0,1-1.088-1.727,1.714,1.714,0,0,1,.3-.948,6.659,6.659,0,0,1,.7-.848q.789-.838,2.765-2.915,1.527-1.587,2.436-2.575A6.291,6.291,0,0,0,32.282,54.413Zm20.134,4.073a24.732,24.732,0,0,1-2.555,8.8,3.974,3.974,0,0,1-3.484,2.356,3.114,3.114,0,0,1-2.615-1.557,6.452,6.452,0,0,1-1-3.693,7.33,7.33,0,0,1,2.306-5.32,9.006,9.006,0,0,1,6.648-2.615,7.834,7.834,0,0,1,5.989,2.276,6.76,6.76,0,0,1,1.8,4.811q0,5.55-6.3,7.447a1.161,1.161,0,0,1-.3.05q-.3,0-.579-.419A4.274,4.274,0,0,0,50.9,69.336a10.049,10.049,0,0,0,4.592-2.106,5.24,5.24,0,0,0,1.577-4,4.662,4.662,0,0,0-1.427-3.454A4.3,4.3,0,0,0,52.5,58.485Zm-2.376.12a6.284,6.284,0,0,0-3.494,1.857,5.635,5.635,0,0,0-1.6,3.783,4.412,4.412,0,0,0,.509,2.266q.4.659.878.659.838,0,1.537-1.248a17.532,17.532,0,0,0,1.368-3.514A25.7,25.7,0,0,0,50.04,58.605Zm17.079,4.662-2.785.04q-.18,0-.21-.04a.344.344,0,0,1-.03-.18V61.5q0-.16.04-.19a.4.4,0,0,1,.2-.03l2.785.04h3.124V58.775h-4.8l-2.6.04q-.17,0-.2-.04a.373.373,0,0,1-.03-.19V57.038a.364.364,0,0,1,.04-.22.373.373,0,0,1,.19-.03l2.6.04h4.8v-.27a17.74,17.74,0,0,0-.16-2.635q1.557.04,2.266.12.309.04.309.23a1.322,1.322,0,0,1-.1.429,5.143,5.143,0,0,0-.13,1.387v.739H77.68l2.6-.04q.17,0,.2.05a.4.4,0,0,1,.03.2v1.547q0,.17-.04.2a.373.373,0,0,1-.19.03l-2.6-.04H72.429V61.32h3.394l2.8-.04q.16,0,.19.04a.344.344,0,0,1,.03.18v1.587q0,.16-.04.19a.344.344,0,0,1-.18.03l-2.8-.04Zm7.516,4.622a5.979,5.979,0,0,0,1.557.609q.469.13.469.359a3.086,3.086,0,0,1-.04.359,3.274,3.274,0,0,1-1.148,2.476,4.151,4.151,0,0,1-1.587.439,23.275,23.275,0,0,1-2.376.09,7.75,7.75,0,0,1-3.374-.449q-.739-.4-.739-1.737V66.391a12.8,12.8,0,0,0-.1-1.7q1.108.04,2.086.17.369.06.369.24a1.073,1.073,0,0,1-.1.329,2.421,2.421,0,0,0-.15.978V69.3q0,.619.329.8a6.51,6.51,0,0,0,1.857.16,5.542,5.542,0,0,0,2.4-.329Q74.605,69.565,74.635,67.888Zm3.554-2.645A19.939,19.939,0,0,1,80.644,69.5a.493.493,0,0,1,.03.15q0,.13-.19.24l-1.378.779a.583.583,0,0,1-.26.12q-.08,0-.15-.16a17.847,17.847,0,0,0-2.306-4.392.341.341,0,0,1-.08-.16q0-.07.22-.19l1.248-.7a.571.571,0,0,1,.23-.09Q78.089,65.093,78.189,65.243Zm-13.915.25q.03-.16.1-.16a1.112,1.112,0,0,1,.24.08l1.358.489q.26.1.26.23a.546.546,0,0,1-.02.12,13.751,13.751,0,0,1-1.917,4.761q-.09.14-.17.14a.375.375,0,0,1-.24-.1l-1.268-.878q-.23-.14-.23-.25a.46.46,0,0,1,.06-.18A10.45,10.45,0,0,0,64.274,65.493Zm7.746-1.6a14.115,14.115,0,0,1,2.226,2.356.341.341,0,0,1,.08.16q0,.08-.18.23l-1.168.878a1.169,1.169,0,0,1-.25.14q-.06,0-.16-.16A11.246,11.246,0,0,0,70.483,65q-.12-.12-.12-.16,0-.08.16-.21l1.068-.719a.617.617,0,0,1,.24-.12A.458.458,0,0,1,72.02,63.9Zm28.658-9.114q-.04.339-.12,1.7a44.274,44.274,0,0,1-.539,5.221q-.359,1.946-1.547,2.216a7.984,7.984,0,0,1-1.537.12,1.527,1.527,0,0,1-.639-.08q-.12-.06-.16-.309a4.413,4.413,0,0,0-.429-1.407,10.17,10.17,0,0,0,1.218.08q.27,0,.519-.02.449-.06.659-1.168H94.07a6.965,6.965,0,0,1-2.026,2.875,1.061,1.061,0,0,1-.489.289q-.15,0-.509-.329A3.362,3.362,0,0,0,89.8,63.2a5.569,5.569,0,0,0,.878-.6.576.576,0,0,1-.22.05,25.2,25.2,0,0,1-2.625.12A8.156,8.156,0,0,1,85.2,62.5q-.838-.339-.838-1.757V57.807q-.479.01-.918.03l-.309.01q-.16,0-.19-.04a.344.344,0,0,1-.03-.18V56.189q0-.16.04-.19a.448.448,0,0,1,.18-.02l2.4.02h1.068v-.589a8.02,8.02,0,0,0-.13-1.447q1.3.04,2.066.12.289.03.289.2a1.551,1.551,0,0,1-.12.349,1.808,1.808,0,0,0-.11.759V56h.619l2.386-.02a.368.368,0,0,1,.2.03.312.312,0,0,1,.03.18v1.437q0,.16-.04.19a.373.373,0,0,1-.19.03l-2.386-.04H86.364v2.126q0,.709.309.838a3.685,3.685,0,0,0,1.248.14,21.443,21.443,0,0,0,2.575-.15q.1-.01.16-.01a.147.147,0,0,1,.16.12,1.612,1.612,0,0,1,.03.4v.8a.987.987,0,0,1-.07.449,5.31,5.31,0,0,0,1.607-2.456,14.3,14.3,0,0,0,.549-3.334q.05-.759.05-1.308,0-.279-.01-.619,0-.25.2-.25l1.657.04h3.414l2.186-.04Q100.678,54.552,100.678,54.782Zm-2.236,3.9h-3.8q-.08.689-.14,1h3.823Q98.442,58.835,98.442,58.685Zm.19-2.456h-3.8l-.04,1.008h3.783ZM85.6,72.141l-2.535.04q-.2,0-.2-.22V70.6q0-.22.2-.22l2.535.04h5.241V69.116H88.2l-2.825.04q-.16,0-.2-.05a.4.4,0,0,1-.03-.2V67.679q0-.16.05-.19a.312.312,0,0,1,.18-.03l2.825.04h2.635V66.211H86.993l-2.765.04q-.16,0-.19-.04a.344.344,0,0,1-.03-.18V64.754q0-.16.04-.19a.344.344,0,0,1,.18-.03l2.765.04H97.045l2.745-.04a.339.339,0,0,1,.21.04.344.344,0,0,1,.03.18v1.278a.3.3,0,0,1-.035.185.351.351,0,0,1-.2.035l-2.745-.04H92.922V67.5h2.895l2.825-.04q.18,0,.21.04a.272.272,0,0,1,.04.18v1.228q0,.18-.04.215a.379.379,0,0,1-.21.035l-2.825-.04H92.922v1.308h5.47l2.555-.04q.21,0,.21.22v1.358q0,.22-.21.22l-2.555-.04Zm17.359-6.648a42.2,42.2,0,0,0,8.225-3.564H106.1l-2.535.04q-.16,0-.19-.04a.344.344,0,0,1-.03-.18V60.272q0-.2.22-.2l2.535.04h4.342V58.156h-1.867l-2.6.04a.316.316,0,0,1-.2-.04.344.344,0,0,1-.03-.18V56.519q0-.16.04-.19a.373.373,0,0,1,.19-.03l2.6.04h1.867V56.05a10.678,10.678,0,0,0-.16-2.106q1.278.04,2.206.15.329.03.329.2a1.1,1.1,0,0,1-.1.409,4.028,4.028,0,0,0-.15,1.407v.23h.609l2.575-.04q.18,0,.21.04a.272.272,0,0,1,.04.18v1.557a20.687,20.687,0,0,0,1.467-1.657,6.579,6.579,0,0,0,.918-1.517,11.933,11.933,0,0,1,1.757,1.028.448.448,0,0,1,.25.369q0,.17-.23.279a2.7,2.7,0,0,0-.838.759,30.187,30.187,0,0,1-2.795,2.775h2.306l2.555-.04a.176.176,0,0,1,.2.2v1.477q0,.22-.2.22l-2.555-.04h-4.392q-1.238.868-2.486,1.617h3.973l2.745-.04q.17,0,.21.05a.4.4,0,0,1,.03.2l-.04,2.755v2.046l.04,3.733q0,.15-.05.18a.373.373,0,0,1-.19.03h-1.7q-.23,0-.23-.21v-.649h-6.838v.739q0,.16-.05.19a.312.312,0,0,1-.18.03h-1.7q-.17,0-.2-.04a.344.344,0,0,1-.03-.18l.04-3.843v-2.8q-2.026.918-3.044,1.318a3.144,3.144,0,0,1-.449.14q-.17,0-.449-.509A4.463,4.463,0,0,0,102.954,65.493Zm6.957,4.452h6.838V68.4h-6.838Zm6.838-4.7h-6.838v1.5h6.838Zm-1-7.047-2.575-.04h-.609v1.956h1.148a18.618,18.618,0,0,0,2.156-1.917Zm21.641-1.917,1.088-.759a.188.188,0,0,1,.12-.05.286.286,0,0,1,.18.09,8.774,8.774,0,0,1,1.946,2.186.255.255,0,0,1,.06.15.241.241,0,0,1-.12.18l-.858.629a.274.274,0,0,1-.16.07.244.244,0,0,1-.19-.13A10.127,10.127,0,0,0,137.392,56.279Zm1.887-1.358,1.018-.739a.267.267,0,0,1,.13-.05.32.32,0,0,1,.18.09,8.127,8.127,0,0,1,1.936,2.116.3.3,0,0,1,.06.16.252.252,0,0,1-.12.2l-.819.639a.274.274,0,0,1-.16.07.244.244,0,0,1-.19-.13A9.959,9.959,0,0,0,139.278,54.922Zm-10.062,4.662q.309-1.108.609-2.575a13.532,13.532,0,0,0,.21-2.266,18.329,18.329,0,0,1,2.446.669.4.4,0,0,1,.329.409.429.429,0,0,1-.14.309,2.688,2.688,0,0,0-.409.779q-.15.459-.389,1.3-.23.769-.349,1.158a13.794,13.794,0,0,1,1.637-.09q2.925,0,2.925,3.943a21.162,21.162,0,0,1-.329,3.7,10.659,10.659,0,0,1-.779,2.705,2.88,2.88,0,0,1-2.755,1.917,5.438,5.438,0,0,1-2.126-.309.561.561,0,0,1-.369-.569,6.688,6.688,0,0,0-.389-1.9,5.528,5.528,0,0,0,2.356.529,1.2,1.2,0,0,0,.829-.26,2.353,2.353,0,0,0,.479-.829,14.446,14.446,0,0,0,.8-5.091,2.855,2.855,0,0,0-.279-1.527,1.036,1.036,0,0,0-.888-.349,13.33,13.33,0,0,0-1.717.14,60.063,60.063,0,0,1-4.113,9.613q-.11.25-.3.25a.5.5,0,0,1-.23-.07,5.817,5.817,0,0,1-1.417-.9.447.447,0,0,1-.16-.3.385.385,0,0,1,.08-.23,46.633,46.633,0,0,0,3.743-8.016q-.7.11-2,.349a7.125,7.125,0,0,0-1.128.329.753.753,0,0,1-.25.05.422.422,0,0,1-.409-.319,19.688,19.688,0,0,1-.629-2.106q1.128,0,2.7-.14Q127.909,59.783,129.216,59.583Zm7.057-.16q1.148-.779,1.647-1.048a.322.322,0,0,1,.14-.04.385.385,0,0,1,.25.14,13.329,13.329,0,0,1,3.394,4.971.461.461,0,0,1,.05.18.307.307,0,0,1-.13.23,6.547,6.547,0,0,1-1.537,1.018.439.439,0,0,1-.21.06.256.256,0,0,1-.26-.22A13.873,13.873,0,0,0,136.274,59.424Zm16,2.725-2.845.04q-.16,0-.19-.04a.344.344,0,0,1-.03-.18V60.342q0-.2.22-.2l2.845.04h2.4V57.507q-1.537.24-3.544.449-.24.02-.359.02a.376.376,0,0,1-.319-.12,1.957,1.957,0,0,1-.16-.419,4.7,4.7,0,0,0-.569-1.348,49.344,49.344,0,0,0,5.29-.609,28.747,28.747,0,0,0,3.723-.838,6.259,6.259,0,0,0,1.328-.579,12.212,12.212,0,0,1,1.358,1.318.638.638,0,0,1,.18.409q0,.23-.289.26a4.67,4.67,0,0,0-1.1.23,28.61,28.61,0,0,1-3.334.838v3.064h2.675l2.825-.04a.176.176,0,0,1,.2.2v1.627q0,.22-.2.22l-2.825-.04h-2.675v2.635h1.467l2.665-.04q.16,0,.19.04a.344.344,0,0,1,.03.18l-.04,2.046v1.837l.04,3.474q0,.2-.22.2h-1.737q-.23,0-.23-.2v-.7h-6.378v.8q0,.2-.22.2h-1.677a.364.364,0,0,1-.22-.04.261.261,0,0,1-.03-.16l.04-3.514V67.3l-.04-2.336q0-.16.05-.19a.4.4,0,0,1,.2-.03l2.655.04h1.248V62.149Zm.389,4.472v3.164h6.378V66.621Zm-8.445,4.512a10.269,10.269,0,0,0,1.088-1.617,48.659,48.659,0,0,0,2.046-4.7,7.851,7.851,0,0,0,1.1,1.048q.449.339.449.509a2.139,2.139,0,0,1-.14.489q-.938,2.406-1.986,4.5a3.6,3.6,0,0,0-.349.769q-.06.27-.26.27a.888.888,0,0,1-.369-.14A12.356,12.356,0,0,1,144.219,71.132Zm2.086-16.9a15.347,15.347,0,0,1,2.845,2.106.241.241,0,0,1,.12.18.678.678,0,0,1-.12.25l-.918,1.288q-.11.16-.19.16a.407.407,0,0,1-.18-.1,16.135,16.135,0,0,0-2.885-2.316q-.14-.08-.14-.14a.56.56,0,0,1,.14-.25l.938-1.1q.14-.15.22-.15A.361.361,0,0,1,146.305,54.233Zm-.8,5.171a15.2,15.2,0,0,1,2.9,2.086q.12.12.12.16a.678.678,0,0,1-.12.25l-.918,1.308q-.09.14-.16.14t-.19-.12a15.738,15.738,0,0,0-2.885-2.236q-.14-.08-.14-.14a.439.439,0,0,1,.12-.24L145.1,59.5q.14-.17.23-.17A.415.415,0,0,1,145.507,59.4ZM177.2,70.284q1.118.08,1.9.08a.587.587,0,0,0,.659-.669V66.3h-4.811v2.436l.04,3.025q0,.16-.04.19a.344.344,0,0,1-.18.03H173q-.16,0-.19-.04a.344.344,0,0,1-.03-.18l.04-3.025V66.3h-4.662a13.671,13.671,0,0,1-1.777,5.66q-.23.409-.369.409-.1,0-.429-.329A5.525,5.525,0,0,0,164.133,71a9.166,9.166,0,0,0,1.677-3.813,27.78,27.78,0,0,0,.429-5.46V58.376l-.04-3.344q0-.18.05-.22a.4.4,0,0,1,.2-.03l2.795.04h9.613l2.815-.04q.17,0,.2.05a.4.4,0,0,1,.03.2l-.04,3.344v9.054l.04,2.815a2.022,2.022,0,0,1-.679,1.657,4.467,4.467,0,0,1-2.7.529,1.124,1.124,0,0,1-.579-.08,1.265,1.265,0,0,1-.18-.509A5.872,5.872,0,0,0,177.2,70.284ZM174.944,64.4h4.811V61.52h-4.811Zm4.811-7.616h-4.811v2.835h4.811ZM168.306,64.4h4.512V61.52h-4.452v.23Q168.366,63.207,168.306,64.4Zm.06-4.781h4.452V56.788h-4.452Zm24.456-5.74q1.368.03,2.266.14.349.04.349.25a.948.948,0,0,1-.1.409,5.006,5.006,0,0,0-.17,1.647v1.537h3.963l2.775-.04q.17,0,.2.04a.373.373,0,0,1,.03.19l-.04,2.535v2.366l.04,3.993a.327.327,0,0,1-.035.19q-.035.04-.185.04h-1.737q-.17,0-.2-.05a.312.312,0,0,1-.03-.18v-.858h-4.781v2.515l.04,3.783q0,.16-.04.19a.344.344,0,0,1-.18.03h-1.827q-.16,0-.19-.04a.344.344,0,0,1-.03-.18l.04-3.743V66.092h-4.522v.938a.364.364,0,0,1-.04.22.373.373,0,0,1-.19.03h-1.737q-.16,0-.19-.05a.4.4,0,0,1-.03-.2l.04-4V60.921l-.04-2.865q0-.17.04-.2a.373.373,0,0,1,.19-.03l2.775.04h3.7V56.5A16.962,16.962,0,0,0,192.821,53.884Zm7.127,5.969h-4.781v4.252h4.781Zm-11.489,0v4.252h4.522V59.853Zm23.671-5.031-.549,12.168h-2.066l-.569-12.168Zm-3.064,14.154h2.9v2.755h-2.9Z" transform="translate(975.568 6500.244)" fill="#06c755"/>
      <path id="パス_2688" data-name="パス 2688" d="M15.879-11.344a22.969,22.969,0,0,1-.528,4.129,12.552,12.552,0,0,1-1.11,2.938,12.9,12.9,0,0,1-2.355,3.222A12.786,12.786,0,0,1,9.368.961a1.729,1.729,0,0,1-.826.338.815.815,0,0,1-.582-.271A6.737,6.737,0,0,0,5.483-.447,17.661,17.661,0,0,0,9-2.829a10.059,10.059,0,0,0,2-2.559,9.784,9.784,0,0,0,1.083-2.856,20.068,20.068,0,0,0,.325-3.1H7.148q-1.327,0-4.156.162-.311.041-.366-.528a15.485,15.485,0,0,1-.217-2.653q1.557.135,4.711.135H19.575q2.965,0,5.4-.162.3,0,.3.555.027.284.027,1.069t-.027,1.056q0,.474-.406.474-2.938-.108-5.266-.108ZM5.794-20.793q2.423.135,4.6.135H16.61q2.843,0,4.67-.108.338,0,.338.528.041.514.041,1,0,.514-.041,1.015,0,.528-.366.528-2.261-.081-4.643-.081H10.4q-.785,0-3.939.108-.433,0-.474-.474-.041-.379-.095-1.3Q5.821-20.387,5.794-20.793Zm35.86,3.073,4.982-.108a2.7,2.7,0,0,0,1.394-.338.546.546,0,0,1,.352-.108.824.824,0,0,1,.447.162,12.588,12.588,0,0,1,1.882,1.5.893.893,0,0,1,.366.636.785.785,0,0,1-.338.582,3.454,3.454,0,0,0-.907,1.191,38.853,38.853,0,0,1-5.5,8.569A35.641,35.641,0,0,1,39.962-1.5a29.343,29.343,0,0,1-4.048,2.775.832.832,0,0,1-.447.135,1,1,0,0,1-.636-.3,7.421,7.421,0,0,0-2.64-1.273A42.052,42.052,0,0,0,37.7-3.709a34.624,34.624,0,0,0,3.723-3.533,28.573,28.573,0,0,0,2.924-3.763,36.577,36.577,0,0,0,2.207-4.1l-6.714.19A41.475,41.475,0,0,1,34.6-9.232a.835.835,0,0,1-.582.311.65.65,0,0,1-.406-.162,7.02,7.02,0,0,0-2.667-1.2,34.639,34.639,0,0,0,7.459-8.231,13.906,13.906,0,0,0,1.638-3.75,14.251,14.251,0,0,1,3.235,1.476.58.58,0,0,1,.284.474.551.551,0,0,1-.311.474,4.239,4.239,0,0,0-.69.745Q42.263-18.627,41.654-17.72Zm31.623-3.425a22.3,22.3,0,0,1,3.6,1.679.6.6,0,0,1,.338.474.921.921,0,0,1-.19.474,6.785,6.785,0,0,0-1.191,1.882,40.35,40.35,0,0,1-5.131,8.786,33.236,33.236,0,0,1-8.149,7.8,1.037,1.037,0,0,1-.582.217.891.891,0,0,1-.582-.244A9.979,9.979,0,0,0,58.752-1.5a33.2,33.2,0,0,0,8.962-8.041,34.789,34.789,0,0,0,4.562-7.973A15.693,15.693,0,0,0,73.277-21.145Zm26.817,11.006a67.581,67.581,0,0,1,7.676,6.7.6.6,0,0,1,.217.393.68.68,0,0,1-.19.406,14.786,14.786,0,0,1-1.855,1.9.513.513,0,0,1-.338.162.64.64,0,0,1-.393-.217,50.323,50.323,0,0,0-7.2-6.877A40.129,40.129,0,0,1,88.7-.352a2.354,2.354,0,0,1-.636.217.6.6,0,0,1-.474-.244,7.674,7.674,0,0,0-2.328-1.814A38.53,38.53,0,0,0,91-5.686a35.717,35.717,0,0,0,4.021-3.574,35.738,35.738,0,0,0,5.212-6.958l-7.148.027q-2.139,0-4.386.176-.271.027-.366-.474a13.3,13.3,0,0,1-.244-2.883q1.489.108,4.684.108h7.621a4.56,4.56,0,0,0,1.909-.257.522.522,0,0,1,.311-.108,1.138,1.138,0,0,1,.474.217,9.837,9.837,0,0,1,1.8,1.949.793.793,0,0,1,.135.352.732.732,0,0,1-.366.555,5.325,5.325,0,0,0-1.015,1.232A48.044,48.044,0,0,1,100.095-10.139Zm22.242-6q.176-1.99.2-3.736a11.317,11.317,0,0,0-.2-2.193,21.024,21.024,0,0,1,3.6.582.582.582,0,0,1,.474.582,1.237,1.237,0,0,1-.135.528,3.136,3.136,0,0,0-.366,1.3q-.014.271-.108,1.367-.054.8-.135,1.543h4.21l3.858-.054q.582,0,.582.379,0,.014-.108,2.951a41.233,41.233,0,0,1-1.029,9.111,5.958,5.958,0,0,1-1.286,2.626A3.981,3.981,0,0,1,129.9-.027a11.275,11.275,0,0,1-2.789.3.661.661,0,0,1-.663-.555A6.275,6.275,0,0,0,124.841-2.8q.717.027,1.232.027a8.991,8.991,0,0,0,2.531-.271,1.727,1.727,0,0,0,.921-.663A4.11,4.11,0,0,0,130.053-5a41.505,41.505,0,0,0,.826-8.312h-5.6a20.927,20.927,0,0,1-2.464,7.676A17.315,17.315,0,0,1,116.935.081,1.244,1.244,0,0,1,116.3.3a.708.708,0,0,1-.528-.271,6.72,6.72,0,0,0-2.328-1.611,16.229,16.229,0,0,0,6.511-5.659,16.468,16.468,0,0,0,2-5.983h-2.5q-1.828,0-3.98.149h-.068q-.311,0-.352-.474a26.927,26.927,0,0,1-.23-2.694q1.746.108,4.6.108Zm25.68,11.29a49.161,49.161,0,0,0,7.066-3.493A37.862,37.862,0,0,0,162.434-14a11.948,11.948,0,0,0,.447,3.208,1.517,1.517,0,0,1,.081.447.853.853,0,0,1-.366.663,44.193,44.193,0,0,1-6.931,4.765,63.025,63.025,0,0,1-6.782,3.438,6.284,6.284,0,0,0-1.557.893.828.828,0,0,1-.5.217.809.809,0,0,1-.474-.217,8.909,8.909,0,0,1-1.692-1.882.737.737,0,0,1-.162-.447,1.091,1.091,0,0,1,.135-.474,6.317,6.317,0,0,0,.108-1.584l.068-10.424a27.778,27.778,0,0,0-.311-4.819,26.045,26.045,0,0,1,3.6.609.533.533,0,0,1,.447.528,2.3,2.3,0,0,1-.135.582,12.161,12.161,0,0,0-.311,3.438Zm23.406-8.217q.812-.447,2.193-1.1a.674.674,0,0,1,.3-.081.552.552,0,0,1,.42.271,14.624,14.624,0,0,1,2.383,4.1q.108.393.108.42,0,.176-.325.393a12.448,12.448,0,0,1-1.787.853.665.665,0,0,1-.244.054q-.284,0-.447-.433A16.173,16.173,0,0,0,171.422-13.063ZM177-14.471q1.773-.839,2.22-1.015a.654.654,0,0,1,.284-.081.553.553,0,0,1,.433.3,13.894,13.894,0,0,1,2.139,4.048,1.093,1.093,0,0,1,.068.325q0,.23-.352.42a11.554,11.554,0,0,1-1.909.853.53.53,0,0,1-.176.041q-.217,0-.379-.447A20.018,20.018,0,0,0,177-14.471Zm8.732-.663a12.246,12.246,0,0,1,3.1,1.327q.366.271.366.474a.734.734,0,0,1-.3.5,4.39,4.39,0,0,0-.839,1.408,33.566,33.566,0,0,1-4.183,7.378,24.138,24.138,0,0,1-5.713,5.361,1.243,1.243,0,0,1-.663.3.611.611,0,0,1-.447-.19A6.69,6.69,0,0,0,174.7.257a39.3,39.3,0,0,0,4.156-3.073,19.243,19.243,0,0,0,2.491-2.694A25.647,25.647,0,0,0,185.1-12.2,12.394,12.394,0,0,0,185.731-15.135Zm11.087,3.086q.108-.176.921-1.516.366-.6.555-.853a.549.549,0,0,1,.42-.284.3.3,0,0,1,.095.014,19.849,19.849,0,0,1,5.334,2.721q.3.217.3.406a.953.953,0,0,1-.108.311,12.09,12.09,0,0,1-1.218,2.112q-.23.271-.366.271a.6.6,0,0,1-.325-.162A24.53,24.53,0,0,0,196.818-12.048Zm3.357-6.511,1.462-2.22q.19-.311.393-.311a.741.741,0,0,1,.311.095,18.413,18.413,0,0,1,5.212,3.073.426.426,0,0,1,.217.352.737.737,0,0,1-.108.366,11.366,11.366,0,0,1-1.421,2.085.3.3,0,0,1-.271.162.734.734,0,0,1-.42-.19A23.729,23.729,0,0,0,200.176-18.56Zm-1.164,15.8a14.194,14.194,0,0,0,3.763-1.367,49.512,49.512,0,0,0,7.594-4.792,48.4,48.4,0,0,0,7.987-7.73,17.078,17.078,0,0,0,.812,3.1,1.457,1.457,0,0,1,.135.528.925.925,0,0,1-.3.636,58.921,58.921,0,0,1-7.053,6.4,66.4,66.4,0,0,1-8.285,5.212,12.968,12.968,0,0,0-1.611.948.635.635,0,0,1-.447.217.713.713,0,0,1-.555-.338A16.836,16.836,0,0,1,199.011-2.762Zm13.862-17.856,1.462-1.029a.3.3,0,0,1,.162-.068.438.438,0,0,1,.257.122,12.009,12.009,0,0,1,2.626,2.965.4.4,0,0,1,.081.2.3.3,0,0,1-.162.244l-1.164.866a.405.405,0,0,1-.217.081q-.122,0-.244-.176A14.564,14.564,0,0,0,212.874-20.617Zm2.545-1.828,1.394-1a.309.309,0,0,1,.176-.068.382.382,0,0,1,.23.122,10.729,10.729,0,0,1,2.64,2.856.42.42,0,0,1,.081.23.342.342,0,0,1-.162.271l-1.11.853a.371.371,0,0,1-.217.095.307.307,0,0,1-.257-.176A13.117,13.117,0,0,0,215.419-22.445ZM240.341-8.867A64.023,64.023,0,0,1,246.243,0a.541.541,0,0,1,.081.217q0,.122-.325.311l-2.085,1.191a.8.8,0,0,1-.338.135q-.135,0-.244-.217-.406-.839-1.3-2.531Q235.44.095,227.44.772a2.374,2.374,0,0,0-1.042.311.868.868,0,0,1-.474.19q-.284,0-.42-.447a20.572,20.572,0,0,1-.663-2.938q.474.014.839.014.961,0,2.315-.068l.785-.027a77.39,77.39,0,0,0,3.574-8.975,18.877,18.877,0,0,0,.745-2.911q2.41.555,2.965.717.528.19.528.474a.828.828,0,0,1-.217.5,4.4,4.4,0,0,0-.731,1.327q-1.855,4.968-3.547,8.623,4.44-.352,8.542-.812-1.489-2.328-2.829-4.1a.362.362,0,0,1-.095-.19q0-.108.325-.311l1.746-1.042a1.237,1.237,0,0,1,.325-.149Q240.165-9.043,240.341-8.867Zm8.474-3.114A6.94,6.94,0,0,0,247.272-9.9q-.325.609-.528.609a1.481,1.481,0,0,1-.582-.366A28.6,28.6,0,0,1,237.119-21.1a.615.615,0,0,1-.054-.2q0-.122.338-.284l1.855-.785a.92.92,0,0,1,.311-.095q.122,0,.244.244A21.925,21.925,0,0,0,243.9-15.96,20.974,20.974,0,0,0,248.815-11.98Zm-26.222.447a20.24,20.24,0,0,0,8.014-9.1,8.8,8.8,0,0,0,.582-1.8,17.627,17.627,0,0,1,2.735.975q.42.19.42.474a.5.5,0,0,1-.244.406,2.281,2.281,0,0,0-.636.866,28.332,28.332,0,0,1-8.149,10.194,1.616,1.616,0,0,1-.636.393q-.162,0-.528-.609A5.7,5.7,0,0,0,222.593-11.534Zm32.747-3.655-3.56.054q-.19,0-.23-.047a.585.585,0,0,1-.041-.291v-2.179a.582.582,0,0,1,.041-.3.387.387,0,0,1,.23-.041l3.56.054h9.95l-.027-1.137a30.422,30.422,0,0,0-.23-3.966q2.112.054,3.019.162.447.054.447.338a4.251,4.251,0,0,1-.162.582,6.33,6.33,0,0,0-.149,1.733q0,.338.014,1.069v1.218h3.411l3.547-.054q.217,0,.257.068a.546.546,0,0,1,.041.271v2.179a.494.494,0,0,1-.054.3.423.423,0,0,1-.244.041l-3.547-.054h-3.3a35.593,35.593,0,0,0,1.584,9.49q1.327,4.1,2.491,4.1.988,0,1.245-4.061a7.72,7.72,0,0,0,1.8,1.259,2.774,2.774,0,0,1,.609.393.512.512,0,0,1,.135.379,5.248,5.248,0,0,1-.054.528q-.785,5.063-3.344,5.022-3.4-.041-5.442-6.105a43.3,43.3,0,0,1-1.909-11.006ZM260.9-9.043h-1.083V-3.6q3.154-.772,5.4-1.557a16.577,16.577,0,0,0-.081,1.746,1.759,1.759,0,0,1-.122.866,1.91,1.91,0,0,1-.7.3A94.38,94.38,0,0,1,254.392.447a3.764,3.764,0,0,0-1.164.42,1.3,1.3,0,0,1-.5.19q-.271,0-.393-.366-.257-.772-.717-2.8a16.206,16.206,0,0,0,2.653-.325l2.667-.5V-9.043h-.948l-3.29.068q-.311,0-.311-.284v-2.071a.494.494,0,0,1,.054-.3.505.505,0,0,1,.257-.041l3.29.054H260.9l3.276-.054q.23,0,.284.068a.546.546,0,0,1,.041.271v2.071q0,.2-.054.244a.6.6,0,0,1-.271.041Zm10.708-13.524a12.779,12.779,0,0,1,2.383,2.545.429.429,0,0,1,.095.23q0,.135-.284.325l-1.313.893a.79.79,0,0,1-.352.162q-.122,0-.257-.217a11.991,11.991,0,0,0-2.166-2.64.371.371,0,0,1-.135-.217q0-.108.257-.284l1.164-.8a.837.837,0,0,1,.325-.162A.446.446,0,0,1,271.612-22.567Zm128.022-.311a15.522,15.522,0,0,1,3.154.785.465.465,0,0,1,.338.474.489.489,0,0,1-.19.406,2.059,2.059,0,0,0-.474.663q-.054.135-.176.406-.244.582-.474,1.1a44.824,44.824,0,0,0,5.049-.866,1.174,1.174,0,0,1,.162-.014q.217,0,.284.3a9.619,9.619,0,0,1,.284,1.99v.081q0,.3-.474.366-3.235.474-6.5.839a35.919,35.919,0,0,1-2.071,3.073l.027.054a5.012,5.012,0,0,1,2.775-.853,3.054,3.054,0,0,1,3.371,2.992q2.843-1.313,4.088-1.949a8.205,8.205,0,0,0,2.1-1.489,15.252,15.252,0,0,1,1.949,2.437,1.163,1.163,0,0,1,.217.609q0,.311-.42.393a9.089,9.089,0,0,0-1.692.42q-4.075,1.435-5.956,2.207v4.467q0,.42-.528.5a13.323,13.323,0,0,1-1.963.135q-.366,0-.366-.447,0-2.383.027-3.371a8.521,8.521,0,0,0-2.694,1.936,2.673,2.673,0,0,0-.65,1.746q0,1.909,3.845,1.909a49.426,49.426,0,0,0,6.9-.555h.081q.271,0,.3.311A10.4,10.4,0,0,1,410.22.447V.541q0,.42-.311.42a54.5,54.5,0,0,1-6.863.366q-6.958,0-6.958-4.576a5.376,5.376,0,0,1,1.543-3.777,15.991,15.991,0,0,1,4.3-2.978,2.672,2.672,0,0,0-.42-1.53,1.332,1.332,0,0,0-1.083-.393h-.162a6.807,6.807,0,0,0-3.831,2q-1.286,1.259-2.775,3.019-.2.244-.338.244-.108,0-.3-.19a11.919,11.919,0,0,1-1.584-1.828.465.465,0,0,1-.108-.257.4.4,0,0,1,.19-.3,28.583,28.583,0,0,0,5.807-6.877q-1.936.081-4.44.081-.311,0-.393-.447-.095-.528-.271-2.288,1.327.054,2.789.054,1.76,0,3.587-.095a22.758,22.758,0,0,0,.826-2.383A7.06,7.06,0,0,0,399.634-22.878Zm26.235,11.534h7.7l3.655-.054q.23,0,.271.068a.546.546,0,0,1,.041.271l-.054,1.99v2.139l.054,1.99a.515.515,0,0,1-.047.284q-.047.054-.264.054l-3.655-.054h-.406q1.449.406,2.423.785.366.108.366.352a.464.464,0,0,1-.271.393,1.612,1.612,0,0,0-.528.636l-.826,1.448h3.763l3.52-.054q.311,0,.311.271V1.232q0,.217-.068.257a.423.423,0,0,1-.244.041l-3.52-.054H421.4l-3.52.054q-.217,0-.257-.054a.466.466,0,0,1-.041-.244V-.826q0-.271.3-.271l3.52.054h3.547a17.022,17.022,0,0,0-1.164-2.22.489.489,0,0,1-.095-.23q0-.122.3-.217l1.828-.785a.923.923,0,0,1,.3-.081.4.4,0,0,1,.311.217,19.093,19.093,0,0,1,1.245,2.125.539.539,0,0,1,.081.23q0,.135-.352.3l-1.5.663h5.32a21.3,21.3,0,0,0,1.164-2.085,5.7,5.7,0,0,0,.528-1.53h-7.039l-3.655.054q-.23,0-.271-.068a.546.546,0,0,1-.041-.271l.054-1.99V-9.07l-.054-1.99a.494.494,0,0,1,.054-.3.505.505,0,0,1,.257-.041ZM424.786-9.1V-6.9h9.869V-9.1Zm17.937-3.79a8.186,8.186,0,0,0-1,1.746q-.3.717-.528.717a1.835,1.835,0,0,1-.636-.19,27.8,27.8,0,0,1-6.4-3.669v1.313q0,.217-.054.257a.466.466,0,0,1-.244.041l-2.748-.054h-2.856l-2.721.054q-.217,0-.257-.054a.466.466,0,0,1-.041-.244V-14.39a31.75,31.75,0,0,1-6.214,3.858,2.169,2.169,0,0,1-.636.217q-.217,0-.582-.717a5.677,5.677,0,0,0-1.137-1.53,30.868,30.868,0,0,0,5.266-2.653,27.064,27.064,0,0,0-2.775-2.64q-.217-.176-.217-.284,0-.068.217-.244l1.394-1.11a.649.649,0,0,1,.311-.176.493.493,0,0,1,.244.122Q422.931-18,424.1-16.8a18.7,18.7,0,0,0,3.073-3.222H424.1l-2.91.054a.494.494,0,0,1-.3-.054.353.353,0,0,1-.041-.217v-1.922q0-.217.068-.257a.546.546,0,0,1,.271-.041l2.91.054h3.966l2.518-.054a.5.5,0,0,1,.474.338,8.6,8.6,0,0,0,1.272,2.383,3.533,3.533,0,0,0,.393.514A13.331,13.331,0,0,0,434.384-21a7.88,7.88,0,0,0,.772-1.164,22.247,22.247,0,0,1,2.125,1.286q.311.2.311.433,0,.271-.365.393a2.838,2.838,0,0,0-.934.772q-1.042,1.1-1.909,1.841a18.009,18.009,0,0,0,1.543,1.245,25.929,25.929,0,0,0,2.274-2.22,8.861,8.861,0,0,0,.785-1.191q1.137.609,2.152,1.273.338.23.338.474t-.366.393a2.593,2.593,0,0,0-.961.745q-1.042,1.042-2.031,1.882A30.066,30.066,0,0,0,442.723-12.887Zm-14.471-2.166h2.856q1.692,0,2.112-.027a16.808,16.808,0,0,1-3.438-4.3,23.441,23.441,0,0,1-3.75,4.3Q426.424-15.053,428.251-15.053Zm29.755,4.264A17.311,17.311,0,0,1,460.2-7.7a.457.457,0,0,1,.108.23q0,.122-.271.325l-1.218.934a1.555,1.555,0,0,1-.338.2q-.095,0-.217-.244A15.582,15.582,0,0,0,456.1-9.368q-.122-.122-.122-.19,0-.095.257-.284l1.218-.975a.726.726,0,0,1,.284-.162Q457.817-10.979,458.006-10.789Zm-5.564,6.552a25.192,25.192,0,0,0,1.015-3.276,9.515,9.515,0,0,0,.122-1.029,12,12,0,0,1,2.017.663q.311.122.311.284a.4.4,0,0,1-.162.311,1.06,1.06,0,0,0-.366.582,24.75,24.75,0,0,1-.893,2.41q-.244.609-.433.609a1.99,1.99,0,0,1-.6-.217A4.125,4.125,0,0,0,452.442-4.237Zm5.686,3.628q1.11.108,1.936.108a1.394,1.394,0,0,0,.921-.217.879.879,0,0,0,.19-.636V-3.52a36.923,36.923,0,0,1-3.885,2.667,2.384,2.384,0,0,0-.717.582.414.414,0,0,1-.338.244.45.45,0,0,1-.352-.217,19.29,19.29,0,0,1-1.083-1.9,2.711,2.711,0,0,0-.027.447,1.625,1.625,0,0,1-.149.826,1.962,1.962,0,0,1-.69.284q-3.019.921-6.376,1.692a3.4,3.4,0,0,0-.975.366.911.911,0,0,1-.447.19A.448.448,0,0,1,445.7,1.3q-.433-1.286-.7-2.383,1.381-.122,2.45-.3,1.408-.257,1.936-.366V-9.341h-.772l-2.856.054a.494.494,0,0,1-.3-.054.505.505,0,0,1-.041-.257v-1.828q0-.217.068-.257a.546.546,0,0,1,.271-.041l2.856.054h.772v-2.166q-.853.014-1.516.041l-.447.014q-.23,0-.271-.054a.6.6,0,0,1-.041-.271v-1.245l-.636.555a1.089,1.089,0,0,1-.582.325q-.244,0-.447-.609a7.306,7.306,0,0,0-.853-1.855,15.725,15.725,0,0,0,4.494-4.765,6.9,6.9,0,0,0,.609-1.448,19.838,19.838,0,0,1,2.572.447q.42.081.42.338,0,.2-.3.433l-.176.135a19.389,19.389,0,0,0,3.912,3.411,6.384,6.384,0,0,0-1.083,1.421q-.338.636-.487.636t-.6-.393a19.808,19.808,0,0,1-2.938-3.127,21.289,21.289,0,0,1-3.141,3.736q.366.027,1.841.027h2.22l2.3-.054q.244,0,.284.054a.4.4,0,0,1,.054.257v1.719q0,.23-.068.284a.546.546,0,0,1-.271.041L452-13.835v2.166h.162l2.856-.054h.176v-2q0-.217.054-.257a.466.466,0,0,1,.244-.041l3.655.054h5.388l.081-1.719h-4.1l-3.168.054q-.217,0-.257-.054a.466.466,0,0,1-.041-.244v-1.841q0-.217.054-.257a.466.466,0,0,1,.244-.041l3.168.054h4.237l.081-1.665H459.82l-3.114.054q-.217,0-.257-.054a.466.466,0,0,1-.041-.244v-1.9q0-.217.054-.257a.466.466,0,0,1,.244-.041l3.114.054h4.373l3.114-.054q.338,0,.338.244v.095q-.054.487-.108,1.245-.054.88-.068,1.042l-.311,5.523,2.856-.054a.494.494,0,0,1,.3.054.466.466,0,0,1,.041.244v1.9q0,.217-.068.257a.546.546,0,0,1-.271.041l-3.655-.054h-2.64a17.636,17.636,0,0,0,1.5,3.912,19.5,19.5,0,0,0,2.058-2.3,6.966,6.966,0,0,0,.636-1.056,20.617,20.617,0,0,1,1.773,1.381.786.786,0,0,1,.271.474q0,.162-.366.393a3.131,3.131,0,0,0-.772.717,21.443,21.443,0,0,1-2.328,2.383,15.021,15.021,0,0,0,4.156,3.723,7.555,7.555,0,0,0-1.137,1.936q-.23.555-.406.555a1.031,1.031,0,0,1-.555-.338,16.785,16.785,0,0,1-4.914-7.012l.149,6.105a2.65,2.65,0,0,1-.921,2.355,5.918,5.918,0,0,1-2.856.555h-.338q-.406,0-.514-.176a3.277,3.277,0,0,1-.2-.663A5.852,5.852,0,0,0,458.128-.609Zm1.015-10.979-3.655.054h-.135V-9.6q0,.23-.068.271a.546.546,0,0,1-.271.041l-2.856-.054H452v6.958q1.218-.311,2.938-.893-.054.271-.108.785L456.07-3.1a35.158,35.158,0,0,0,5.1-3.438v-5.049ZM447.813-8.014a27.125,27.125,0,0,1,.934,4.183,1.158,1.158,0,0,1,.014.122q0,.217-.338.352l-1.191.474a1.164,1.164,0,0,1-.325.081q-.135,0-.176-.244a19.246,19.246,0,0,0-.948-4.2.731.731,0,0,1-.054-.217q0-.149.366-.271l1.245-.447a1.108,1.108,0,0,1,.271-.068Q447.731-8.244,447.813-8.014Zm30.906-13.862a34.553,34.553,0,0,1,3.466.5q.663.162.663.528a3.354,3.354,0,0,1-.284.921,18.628,18.628,0,0,0-.379,3.371q-.42,6.417-.42,10.735a5.073,5.073,0,0,0,.514,2.87,2.7,2.7,0,0,0,2.031.569,10.747,10.747,0,0,0,4.86-1.367,18.3,18.3,0,0,0,4.86-3.736,9.061,9.061,0,0,0,.636,2.64,2.093,2.093,0,0,1,.217.663,1.3,1.3,0,0,1-.555.866,15.6,15.6,0,0,1-5.388,3.235,14.951,14.951,0,0,1-5.117.921q-2.911,0-4.1-1.421a6.562,6.562,0,0,1-1.11-4.237q0-2.586.393-11.98.041-1.408.041-1.922A13.084,13.084,0,0,0,478.718-21.876Zm35.238,6.132A26.5,26.5,0,0,0,520.278-17a.627.627,0,0,1,.122-.014q.149,0,.217.19a18.97,18.97,0,0,1,.663,2.355.688.688,0,0,1,.014.135q0,.2-.244.284a42.221,42.221,0,0,1-7.012,1.245q.068,2.518.474,6.4a33.581,33.581,0,0,1,8.041,3.574.307.307,0,0,1,.176.257.525.525,0,0,1-.068.217A11.093,11.093,0,0,1,521.2-.027q-.176.176-.271.176a.364.364,0,0,1-.2-.095,28.574,28.574,0,0,0-6.159-3.493,5.557,5.557,0,0,1-.027.636A3.831,3.831,0,0,1,512.9.311a6.713,6.713,0,0,1-3.966,1.042A7.257,7.257,0,0,1,504.507.135a3.424,3.424,0,0,1-1.476-2.856,3.645,3.645,0,0,1,1.976-3.195,7.63,7.63,0,0,1,4.1-1.042,21.613,21.613,0,0,1,2.328.081q-.379-4.021-.474-8.894-.027-1-.081-3.831a8.557,8.557,0,0,0-.393-2.518,24.145,24.145,0,0,1,3.547.5q.447.108.447.46a.843.843,0,0,1-.135.42,3.714,3.714,0,0,0-.338,1.5Q513.956-18.411,513.956-15.744ZM511.492-4.183a13.325,13.325,0,0,0-2.559-.284,4.873,4.873,0,0,0-2.423.5,1.288,1.288,0,0,0-.758,1.137q0,1.408,2.856,1.408a3.128,3.128,0,0,0,2.288-.785,1.929,1.929,0,0,0,.623-1.448V-3.8Zm26.046-18.776a36.552,36.552,0,0,0,8.041,1.976q.379.068.379.393a.445.445,0,0,1-.014.108,16.755,16.755,0,0,1-.609,2.437q-.122.393-.338.393h-.054a40.171,40.171,0,0,1-8.041-2.139.35.35,0,0,1-.217-.352.839.839,0,0,1,.027-.2A15.258,15.258,0,0,1,537.538-22.959Zm-5.374,9.151a18.735,18.735,0,0,0,3.3-.8A21.928,21.928,0,0,1,541.815-16a5.366,5.366,0,0,1,4.508,2,7.3,7.3,0,0,1,1.34,4.589,10.749,10.749,0,0,1-2.247,6.633,15.442,15.442,0,0,1-5.347,4.413,1.43,1.43,0,0,1-.474.135.975.975,0,0,1-.663-.366,6.924,6.924,0,0,0-2.3-1.462,15.336,15.336,0,0,0,6.092-4.63,8.31,8.31,0,0,0,1.53-4.914,4.112,4.112,0,0,0-.772-2.721,2.267,2.267,0,0,0-1.814-.772,10.037,10.037,0,0,0-4.345,1.191,15.875,15.875,0,0,0-2.355,1.327,1.092,1.092,0,0,1-.609.284q-.379,0-.785-.609A16.613,16.613,0,0,1,532.163-13.808Zm38.31-8.149-.745,16.5h-2.8l-.772-16.5Zm-4.156,19.2h3.939V.975h-3.939Z" transform="translate(343.668 6538.509)" fill="#fff"/>
      <g id="グループ_811" data-name="グループ 811">
        <path id="パス_2690" data-name="パス 2690" d="M-114.336.227A.136.136,0,0,1-114.3.3q0,.055-.2.156l-.5.289a.813.813,0,0,1-.219.094q-.055,0-.1-.094-.484-.914-.844-1.516Q-119.2-.3-124.7.2a1.491,1.491,0,0,0-.641.18.457.457,0,0,1-.2.078q-.117,0-.164-.187a10.569,10.569,0,0,1-.273-1.055q.266.008.57.008.492,0,1.211-.047l.477-.008A48.177,48.177,0,0,0-121.562-6.3a10.373,10.373,0,0,0,.43-1.7q.617.156,1.023.3.211.078.211.211a.386.386,0,0,1-.109.219,3.006,3.006,0,0,0-.391.789q-1.125,3.141-2.227,5.547,2.961-.242,5.969-.641A27.449,27.449,0,0,0-118.664-4.3a.137.137,0,0,1-.039-.07q0-.055.2-.187l.414-.25a.432.432,0,0,1,.164-.086q.039,0,.109.07A35.023,35.023,0,0,1-114.336.227Zm1.813-6.625a2.184,2.184,0,0,0-.531.633q-.133.227-.2.227a.66.66,0,0,1-.227-.125,15.724,15.724,0,0,1-5.484-6.562.236.236,0,0,1-.023-.078q0-.062.18-.141l.445-.2a.566.566,0,0,1,.188-.07q.055,0,.1.1a13.377,13.377,0,0,0,2.469,3.719A13.594,13.594,0,0,0-112.523-6.4Zm-8.5-5.727a.241.241,0,0,1-.109.188,1.015,1.015,0,0,0-.289.352,17.03,17.03,0,0,1-2.312,3.57,15.924,15.924,0,0,1-2.7,2.438.735.735,0,0,1-.242.141q-.062,0-.219-.211a1.74,1.74,0,0,0-.562-.547,12.57,12.57,0,0,0,3.211-2.758,12.175,12.175,0,0,0,1.781-2.82,3.2,3.2,0,0,0,.273-.914,6.324,6.324,0,0,1,.969.336Q-121.023-12.258-121.023-12.125Zm24.266,10.25q-.375,2.82-1.711,2.82-1.719,0-2.875-3.234a25.4,25.4,0,0,1-1.2-6.75H-108.3l-2.148.031a.11.11,0,0,1-.125-.125v-.758a.11.11,0,0,1,.125-.125l2.148.031h5.711q0-.016-.047-1.187a14.9,14.9,0,0,0-.164-1.961,8.706,8.706,0,0,1,1.117.094q.211.031.211.172,0,.023-.078.3a2.89,2.89,0,0,0-.086.844q0,.211.008.5,0,.031.047,1.234h2.078l2.148-.031a.11.11,0,0,1,.125.125v.758a.11.11,0,0,1-.125.125l-2.148-.031h-2.047a24.153,24.153,0,0,0,1.07,6.18q.914,2.672,1.891,2.672.734,0,.93-2.625a2.98,2.98,0,0,0,.609.445q.313.18.313.352A.819.819,0,0,1-96.758-1.875Zm-6.125-.906a3.805,3.805,0,0,0-.047.609.552.552,0,0,1-.055.313.737.737,0,0,1-.266.133,51.672,51.672,0,0,1-5.891,1.711,1.861,1.861,0,0,0-.625.242.715.715,0,0,1-.242.109q-.094,0-.172-.18a9.279,9.279,0,0,1-.3-.953,10.8,10.8,0,0,0,1.469-.242l1.844-.414V-5.516h-.852l-1.93.031a.117.117,0,0,1-.133-.133v-.672q0-.141.133-.141l1.93.031h2.789l1.922-.031q.125,0,.125.141v.672q0,.133-.125.133l-1.922-.031h-.945v3.789A28.582,28.582,0,0,0-102.883-2.781Zm4.688-8.531a.157.157,0,0,1,.047.094q0,.063-.141.18l-.336.258a.477.477,0,0,1-.2.109q-.047,0-.117-.078a6.936,6.936,0,0,0-1.523-1.445q-.062-.039-.062-.078,0-.055.133-.156l.281-.227a.336.336,0,0,1,.18-.1.244.244,0,0,1,.125.055A9.756,9.756,0,0,1-98.2-11.312Zm4.211.141q1.141.109,3.3.109h6.656a4.766,4.766,0,0,0,1.2-.094.714.714,0,0,1,.242-.062.424.424,0,0,1,.242.109,3.789,3.789,0,0,1,.586.625.324.324,0,0,1,.086.211.293.293,0,0,1-.164.25,1.4,1.4,0,0,0-.352.406A12.972,12.972,0,0,1-85.25-6.469a.321.321,0,0,1-.2.07.314.314,0,0,1-.219-.086,2.363,2.363,0,0,0-.836-.406,10.294,10.294,0,0,0,3.25-3.148h-7.312a28.1,28.1,0,0,0-2.977.148h-.047a.2.2,0,0,1-.219-.18A7.486,7.486,0,0,1-93.984-11.172ZM-92.812-.117A7.114,7.114,0,0,0-89.5-3.258,9.034,9.034,0,0,0-88.7-7.2a5.83,5.83,0,0,0-.148-1.32,4.82,4.82,0,0,1,1.266.219q.219.086.219.258a.494.494,0,0,1-.062.211,1.743,1.743,0,0,0-.125.781,9.4,9.4,0,0,1-.914,4.258,8.059,8.059,0,0,1-3,3.164.544.544,0,0,1-.266.086.314.314,0,0,1-.219-.086A2.5,2.5,0,0,0-92.812-.117Zm19.883-8.8q.1-1.234.117-1.711.016-.273.016-.539a6.677,6.677,0,0,0-.1-1.187,5.662,5.662,0,0,1,1.281.234q.211.078.211.25a.564.564,0,0,1-.078.25,3.453,3.453,0,0,0-.211,1.055q-.031.555-.141,1.648h2.719l2.016-.031q.242,0,.242.2,0,.578-.047,1.469A25.456,25.456,0,0,1-67.5-2.219a3.545,3.545,0,0,1-.609,1.367,1.858,1.858,0,0,1-.867.547,5.281,5.281,0,0,1-1.664.2A.244.244,0,0,1-70.9-.3a1.869,1.869,0,0,0-.555-.891q.313.016.6.016a4.661,4.661,0,0,0,1.445-.18.908.908,0,0,0,.516-.375,4.461,4.461,0,0,0,.313-.93,25.412,25.412,0,0,0,.547-5.258h-3.937a12.075,12.075,0,0,1-1.437,4.43,8.307,8.307,0,0,1-1.531,1.875A11,11,0,0,1-76.8-.2a.385.385,0,0,1-.2.078.23.23,0,0,1-.18-.094,2.077,2.077,0,0,0-.867-.523,9.012,9.012,0,0,0,3.68-3.219,10.54,10.54,0,0,0,1.313-3.953H-74.93q-1.219,0-2.2.086h-.047q-.109,0-.148-.211-.07-.523-.094-.961,1.117.078,2.477.078ZM-55.5-9.953h2.445a4.326,4.326,0,0,0,1.461-.141.218.218,0,0,1,.133-.047.4.4,0,0,1,.234.094,2.349,2.349,0,0,1,.664.641.28.28,0,0,1,.07.18.338.338,0,0,1-.117.234,1.96,1.96,0,0,0-.234.563,16.4,16.4,0,0,1-1.922,4.75A12.238,12.238,0,0,1-57.008.4a.282.282,0,0,1-.164.063.344.344,0,0,1-.187-.094A3.143,3.143,0,0,0-58.3-.094,11.838,11.838,0,0,0-53.8-4.164a15.1,15.1,0,0,0,1.859-4.781H-59.82v1.555q0,.945.047,1.922,0,.234-.187.234-.2.016-.422.016t-.414-.016q-.172,0-.172-.2.031-.727.031-1.937V-8.5q0-.922-.039-1.32v-.039q0-.141.156-.141h.039q.891.063,2.18.063h1.969v-.844a9.09,9.09,0,0,0-.148-1.906,7.63,7.63,0,0,1,1.3.156q.211.047.211.227a.357.357,0,0,1-.055.18,3.039,3.039,0,0,0-.172,1.258Zm10.188-.125q.4-.484.625-.734a.218.218,0,0,1,.156-.086.272.272,0,0,1,.133.047,14.565,14.565,0,0,1,2.883,2.133.284.284,0,0,1,.094.172.272.272,0,0,1-.047.133,4.649,4.649,0,0,1-.547.688q-.078.094-.133.094a.214.214,0,0,1-.125-.078A16.219,16.219,0,0,0-45.312-10.078Zm.383,8.4a10,10,0,0,0,1.68-.656,28.993,28.993,0,0,0,4.625-2.977,27.13,27.13,0,0,0,4.32-4.3,5.337,5.337,0,0,0,.273,1.055.56.56,0,0,1,.055.219A.56.56,0,0,1-34.148-8a28.719,28.719,0,0,1-3.883,3.68,33.754,33.754,0,0,1-4.8,3.125,5.62,5.62,0,0,0-.875.617.336.336,0,0,1-.219.109.3.3,0,0,1-.211-.125A5.792,5.792,0,0,1-44.93-1.68Zm20.148-6.242A22.075,22.075,0,0,1-19.57-5.7q.141.063.141.164a.246.246,0,0,1-.023.094,5.453,5.453,0,0,1-.383.781q-.094.117-.164.117a.285.285,0,0,1-.141-.055A16.807,16.807,0,0,0-24.8-6.734v3.711q0,.609.016,1.719.023,1.4.023,1.547A.23.23,0,0,1-24.75.3q0,.148-.211.148-.164.016-.4.016t-.414-.016A.2.2,0,0,1-26,.227q.07-1.375.07-3.25v-7.1a13.443,13.443,0,0,0-.18-2.562,5.961,5.961,0,0,1,1.32.211q.188.039.188.188a1.132,1.132,0,0,1-.07.289,7.9,7.9,0,0,0-.109,1.773Zm9.953,2.867a4.508,4.508,0,0,0,1.234-.75q1.32-1.109,2.875-2.531A1.77,1.77,0,0,1-9.531-8.93a1.369,1.369,0,0,1,.648.148,3.287,3.287,0,0,1,.531.383Q-5.5-6.117-4.633-5.492A34.8,34.8,0,0,0-1.117-3.281q.125.07.125.156a.126.126,0,0,1-.016.055,4.726,4.726,0,0,1-.461.875.191.191,0,0,1-.148.1.234.234,0,0,1-.125-.047Q-3.594-3.289-5.133-4.453q-.945-.7-3.57-2.9A1.382,1.382,0,0,0-9.516-7.8a1.169,1.169,0,0,0-.687.4q-1.656,1.578-2.9,2.742a5.183,5.183,0,0,0-.523.578.255.255,0,0,1-.2.125A.265.265,0,0,1-14-4.047,6.518,6.518,0,0,1-14.828-5.055Z" transform="translate(1337.579 6583.55)" fill="#fff"/>
        <path id="パス_1701" data-name="パス 1701" d="M1347.9,6571.9l8.6,5.6-8.6,5.6" fill="none" stroke="#fff" stroke-miterlimit="10" stroke-width="1"/>
      </g>
      <g id="グループ_815" data-name="グループ 815">
        <g id="グループ_814" data-name="グループ 814">
          <g id="グループ_812" data-name="グループ 812">
            <path id="パス_1702" data-name="パス 1702" d="M721.275,6528.212c0-19.574-19.623-35.5-43.745-35.5s-43.744,15.926-43.744,35.5c0,17.548,15.562,32.245,36.584,35.023,1.425.308,3.364.94,3.854,2.157a8.994,8.994,0,0,1,.142,3.956s-.513,3.086-.625,3.745c-.191,1.105-.879,4.325,3.789,2.358s25.192-14.834,34.37-25.4h0C718.238,6543.1,721.275,6536.046,721.275,6528.212Z" fill="#fff"/>
          </g>
          <g id="グループ_813" data-name="グループ 813">
            <path id="パス_1703" data-name="パス 1703" d="M706.722,6539.515h-12.29a.835.835,0,0,1-.835-.836v-.013h0v-19.077a.835.835,0,0,1,.835-.835h12.29a.838.838,0,0,1,.836.835v3.1a.836.836,0,0,1-.836.836H698.37v3.221h8.352a.838.838,0,0,1,.836.836v3.1a.835.835,0,0,1-.836.835H698.37v3.222h8.352a.838.838,0,0,1,.836.835v3.1A.836.836,0,0,1,706.722,6539.515Z" fill="#06c755"/>
            <path id="パス_1704" data-name="パス 1704" d="M661.261,6539.515a.836.836,0,0,0,.836-.836v-3.1a.838.838,0,0,0-.836-.835h-8.352v-15.154a.838.838,0,0,0-.835-.835h-3.1a.835.835,0,0,0-.835.835v19.077h0v.013a.835.835,0,0,0,.835.836h12.29Z" fill="#06c755"/>
            <rect id="長方形_408" data-name="長方形 408" width="4.773" height="20.762" rx="0.835" transform="translate(664.722 6518.753)" fill="#06c755"/>
            <path id="パス_1705" data-name="パス 1705" d="M689.78,6518.753h-3.1a.835.835,0,0,0-.835.835v11.339l-8.735-11.8a.8.8,0,0,0-.067-.086l-.005-.006c-.016-.018-.033-.036-.05-.052l-.016-.014c-.015-.014-.03-.027-.045-.039l-.023-.017-.044-.03-.026-.016-.046-.025-.027-.013-.048-.021-.028-.01-.05-.016-.03-.008-.049-.01-.036-.006-.045-.005-.045,0h-3.114a.835.835,0,0,0-.835.835v19.091a.835.835,0,0,0,.835.836h3.1a.835.835,0,0,0,.835-.836v-11.335L686,6539.155a.837.837,0,0,0,.215.21l.01.007.052.032.025.013.04.019.041.018.027.01a.6.6,0,0,0,.057.018l.012,0a.83.83,0,0,0,.218.03h3.086a.835.835,0,0,0,.835-.836v-19.091A.835.835,0,0,0,689.78,6518.753Z" fill="#06c755"/>
          </g>
        </g>
      </g>
      <circle id="楕円形_67" data-name="楕円形 67" cx="54.25" cy="54.25" r="54.25" transform="translate(208.5 6472.25)" fill="none" stroke="#fff" stroke-miterlimit="10" stroke-width="3"/>
      <path id="パス_1706" data-name="パス 1706" d="M946.456,6492.424l5.38,5.38,11.835-10.759" fill="none" stroke="#06c755" stroke-miterlimit="10" stroke-width="2"/>
      <path id="パス_1707" data-name="パス 1707" d="M946.456,6527.931l5.38,5.38,11.835-10.759" fill="none" stroke="#06c755" stroke-miterlimit="10" stroke-width="2"/>
      <path id="パス_1708" data-name="パス 1708" d="M946.456,6563.437l5.38,5.38,11.835-10.759" fill="none" stroke="#06c755" stroke-miterlimit="10" stroke-width="2"/>
    </g>
  </g>
</svg>
