<svg xmlns="http://www.w3.org/2000/svg" width="340" height="289" viewBox="0 0 340 289">
  <g id="グループ_2198" data-name="グループ 2198" transform="translate(-1564.5 -7428)">
    <rect id="長方形_297" data-name="長方形 297" width="340" height="289" transform="translate(1564.5 7428)" fill="#06c755"/>
    <rect id="長方形_298" data-name="長方形 298" width="304" height="23.089" transform="translate(1582.5 7576.514)" fill="#fff"/>
    <rect id="長方形_299" data-name="長方形 299" width="209.722" height="23.089" transform="translate(1582.5 7608.26)" fill="#fff"/>
    <rect id="長方形_300" data-name="長方形 300" width="228" height="23.089" transform="translate(1582.5 7640.007)" fill="#fff"/>
    <path id="パス_2687" data-name="パス 2687" d="M-33.659-.346q.6.051,1.173.051a.671.671,0,0,0,.506-.143.563.563,0,0,0,.1-.371V-1.5h-4.683v.793l.034,1.865q0,.152-.042.177a.267.267,0,0,1-.169.034h-1.35q-.143,0-.177-.042a.34.34,0,0,1-.025-.169l.034-1.831V-4.717l-.034-1.865q0-.152.042-.186a.34.34,0,0,1,.169-.025l2.135.034H-32.5l2.143-.034q.135,0,.16.042a.34.34,0,0,1,.025.169l-.034,2.017v1.544l.034,2.4A1.905,1.905,0,0,1-30.621.827a3.381,3.381,0,0,1-1.966.439H-32.8q-.253,0-.329-.11a1.514,1.514,0,0,1-.135-.43A3.759,3.759,0,0,0-33.659-.346Zm-2.9-2.3h4.683v-.852h-4.683Zm4.683-2.8h-4.683v.81h4.683Zm-4.709-2.034-2.346.017a.311.311,0,0,1-.169-.025.34.34,0,0,1-.025-.169v-.987q0-.135.042-.16a.264.264,0,0,1,.152-.025l2.346.034h1.451v-.793H-36l-2.177.034q-.135,0-.169-.042a.34.34,0,0,1-.025-.169v-.861q0-.143.042-.169a.264.264,0,0,1,.152-.025l2.177.034h.861v-.776h-1.139l-2.278.034a.267.267,0,0,1-.169-.034.315.315,0,0,1-.025-.16v-.928q0-.152.042-.186a.264.264,0,0,1,.152-.025l2.278.034h1.139q-.017-.844-.118-1.7.886.025,1.713.127.278.025.278.169a.775.775,0,0,1-.051.253q-.068.169-.076.194a4.177,4.177,0,0,0-.068.954h1.662l2.262-.034q.152,0,.177.042a.267.267,0,0,1,.034.169v.928q0,.143-.042.169a.34.34,0,0,1-.169.025l-2.262-.034h-1.662v.776h1.173l2.16-.034a.267.267,0,0,1,.169.034.315.315,0,0,1,.025.16v.861a.308.308,0,0,1-.034.186.315.315,0,0,1-.16.025l-2.16-.034h-1.173v.793h2.143l2.329-.034q.143,0,.169.034a.291.291,0,0,1,.025.152v.987q0,.152-.034.177a.413.413,0,0,1-.16.017l-2.329-.017Zm-5.907-7q1,.025,1.781.118.278.025.278.177a.93.93,0,0,1-.084.346,7.78,7.78,0,0,0-.127,1.916V-1.882l.034,3.021a.308.308,0,0,1-.034.186.291.291,0,0,1-.152.025h-1.4q-.143,0-.169-.042a.34.34,0,0,1-.025-.169l.034-3V-11.873A19.483,19.483,0,0,0-42.494-14.48Zm-1.367,3.629.81.169q.253.059.253.211v.068a15.052,15.052,0,0,1-.591,3.78q-.042.135-.1.135a.6.6,0,0,1-.177-.059l-.835-.346q-.211-.084-.211-.219a.489.489,0,0,1,.025-.127,14.16,14.16,0,0,0,.549-3.5q0-.143.076-.143A1.684,1.684,0,0,1-43.861-10.852Zm4.118-.574a.536.536,0,0,1,.152-.034q.093,0,.152.143a12.2,12.2,0,0,1,.709,2.051.491.491,0,0,1,.025.118q0,.093-.211.177l-.726.262a.739.739,0,0,1-.194.051q-.093,0-.118-.16A13.237,13.237,0,0,0-40.6-10.9a.537.537,0,0,1-.034-.143q0-.093.211-.152ZM-10.2-.262A4,4,0,0,0-10.876.911q-.177.38-.287.38a.968.968,0,0,1-.346-.186A15.219,15.219,0,0,1-13.585-.768,15.21,15.21,0,0,1-15.053.979q-.27.245-.346.245-.1,0-.312-.363A4.3,4.3,0,0,0-16.454-.16q.008.5.025.987.008.321.008.346,0,.169-.186.169h-1.333a.308.308,0,0,1-.186-.034.22.22,0,0,1-.025-.135l.034-3.612V-9.881l-.034-3.662q0-.143.042-.169a.34.34,0,0,1,.169-.025l2.143.034h2.785l1.949-.034q.228,0,.228.177,0,.017,0,.051-.025.2-.034.481-.017.346-.017.4a8.4,8.4,0,0,1-.38,2.591,1.5,1.5,0,0,1-.726.743,3.047,3.047,0,0,1-1.165.177q-.608,0-.911-.017a.684.684,0,0,1-.38-.093.881.881,0,0,1-.11-.354,5.678,5.678,0,0,0-.278-1.114,9.561,9.561,0,0,0,1.35.11.908.908,0,0,0,.515-.11.6.6,0,0,0,.211-.346,3.7,3.7,0,0,0,.127-1.072h-3.823v3.907h3.713a1.145,1.145,0,0,0,.489-.068.518.518,0,0,1,.262-.068q.186,0,.658.464.481.506.481.675a.485.485,0,0,1-.118.3,1.487,1.487,0,0,0-.3.65A16.143,16.143,0,0,1-12.674-2.27,11.9,11.9,0,0,0-10.2-.262Zm-6.253.051A11.71,11.71,0,0,0-14.64-2.169a12.817,12.817,0,0,1-1.7-4.489h-.118Zm3.662-6.447h-2.093A11.471,11.471,0,0,0-13.72-3.7,14.374,14.374,0,0,0-12.792-6.658Zm-10.8,3.527h.574V-4.548h-.886l-2.017.034q-.143,0-.169-.042a.34.34,0,0,1-.025-.169V-5.8q0-.135.034-.16a.315.315,0,0,1,.16-.025l2.017.034h2.042q.321-.785.549-1.519a6.539,6.539,0,0,0,.177-.819,13.115,13.115,0,0,1,1.451.346q.245.076.245.194a.266.266,0,0,1-.118.211.759.759,0,0,0-.228.321q-.3.734-.557,1.266l1.662-.034q.135,0,.16.034A.291.291,0,0,1-18.5-5.8v1.072a.308.308,0,0,1-.034.186.291.291,0,0,1-.152.025l-2.042-.034h-.641v1.418h.464l1.89-.034q.135,0,.16.034a.291.291,0,0,1,.025.152v1.072a.275.275,0,0,1-.03.165.254.254,0,0,1-.156.03l-1.89-.034h-.464V-.624l.034,1.8q0,.135-.034.16a.291.291,0,0,1-.152.025h-1.35a.267.267,0,0,1-.169-.034.291.291,0,0,1-.025-.152l.042-1.8V-1.747h-.574l-1.9.034a.267.267,0,0,1-.169-.034.315.315,0,0,1-.025-.16V-2.979q0-.135.034-.16a.315.315,0,0,1,.16-.025Zm-.3-6.65h.869v-1.367h-.473l-1.865.034q-.135,0-.16-.034a.291.291,0,0,1-.025-.152v-1.089q0-.177.186-.177l1.865.034h.473v-.034a11.469,11.469,0,0,0-.127-1.9,15.808,15.808,0,0,1,1.713.118q.278.025.278.177a.834.834,0,0,1-.1.312,2.067,2.067,0,0,0-.11.861v.464h.38l1.865-.034a.157.157,0,0,1,.177.177V-11.3q0,.186-.177.186l-1.865-.034h-.38V-9.78h.591l2.059-.034q.135,0,.16.042a.34.34,0,0,1,.025.169v1.072q0,.135-.034.16a.291.291,0,0,1-.152.025l-2.059-.034h-3.114l-2.017.034a.308.308,0,0,1-.186-.034.291.291,0,0,1-.025-.152V-9.6q0-.152.042-.186a.34.34,0,0,1,.169-.025Zm-.962,2.143A.336.336,0,0,1-24.9-7.78q0-.068.2-.135l.954-.3a.5.5,0,0,1,.135-.025q.1,0,.169.143a8.95,8.95,0,0,1,.591,1.51.709.709,0,0,1,.025.135q0,.093-.194.16L-23.973-6a.589.589,0,0,1-.177.042q-.084,0-.135-.16A10.556,10.556,0,0,0-24.85-7.637ZM8.211-.515A5.4,5.4,0,0,0,7.367.751q-.177.38-.312.38A1.1,1.1,0,0,1,6.692.954,15.683,15.683,0,0,1,3.409-2.084,16.966,16.966,0,0,1-.034,1.08a1,1,0,0,1-.413.186q-.16,0-.346-.413A2.857,2.857,0,0,0-1.586-.219,14.127,14.127,0,0,0,2.337-3.6a18.02,18.02,0,0,1-2.312-7.78l-.819.017q-.143,0-.177-.042A.315.315,0,0,1-1-11.569v-1.3q0-.143.034-.169a.34.34,0,0,1,.169-.025l2.093.034h4.27a1.322,1.322,0,0,0,.549-.068.518.518,0,0,1,.262-.068q.177,0,.726.574a1.04,1.04,0,0,1,.38.608.637.637,0,0,1-.152.413,2.663,2.663,0,0,0-.363,1.105,19.633,19.633,0,0,1-2.439,6.81A13.806,13.806,0,0,0,8.211-.515ZM5.274-11.4H1.764A16.381,16.381,0,0,0,3.426-5.3,18.439,18.439,0,0,0,5.274-11.4Zm-8.844-2.962q1.089.025,1.882.118.278.034.278.177a2.3,2.3,0,0,1-.084.346,7.391,7.391,0,0,0-.127,1.916v9.974l.034,3a.267.267,0,0,1-.034.169.291.291,0,0,1-.152.025h-1.51q-.135,0-.16-.034a.315.315,0,0,1-.025-.16l.034-2.987V-3.148q-1.384.624-2.979,1.2a2.726,2.726,0,0,0-.692.312.424.424,0,0,1-.253.118q-.135,0-.228-.245-.27-.776-.5-1.662.717-.11,1.24-.236V-9.746a22.687,22.687,0,0,0-.135-2.624q1,.025,1.831.118.262.025.262.186,0,.017-.084.371A7.584,7.584,0,0,0-5.1-9.78v5.561q1.173-.422,1.662-.633v-6.9A19.834,19.834,0,0,0-3.569-14.362ZM13.188-2.751l-2.194.034a.267.267,0,0,1-.169-.034A.291.291,0,0,1,10.8-2.9V-4.017q0-.169.194-.169l2.194.034h4.2v-.084q0-.582-.017-.878H15.23l-2.422.034q-.135,0-.16-.042a.34.34,0,0,1-.025-.169l.034-1.958V-9.983q-.515.506-1.021.962a.747.747,0,0,1-.363.219q-.11,0-.3-.363a3.869,3.869,0,0,0-.709-1,10.061,10.061,0,0,0,3.164-3.367A5.827,5.827,0,0,0,13.9-14.6a13.037,13.037,0,0,1,1.629.4q.228.076.228.236a.315.315,0,0,1-.16.262,3.111,3.111,0,0,0-.473.557l-.287.43h3.181a8.3,8.3,0,0,0,.464-.92,5.326,5.326,0,0,0,.278-.894,15.219,15.219,0,0,1,1.637.363q.211.068.211.245,0,.118-.177.253a1.284,1.284,0,0,0-.329.439q-.228.422-.3.515h2.633l2.346-.034q.194,0,.194.169v1.021a.308.308,0,0,1-.034.186.315.315,0,0,1-.16.025l-2.346-.034h-3v.861h2.186l2.329-.034q.152,0,.177.034a.23.23,0,0,1,.034.152V-9.5q0,.135-.042.16a.34.34,0,0,1-.169.025L21.627-9.35H19.441v.861h2.186l2.329-.034q.152,0,.177.034a.23.23,0,0,1,.034.152v.852q0,.135-.042.16a.34.34,0,0,1-.169.025l-2.329-.034H19.441v.92h3.148l2.388-.034q.135,0,.16.034a.291.291,0,0,1,.025.152v.97a.321.321,0,0,1-.03.177q-.03.034-.156.034l-2.388-.034H19.256l-.051.1a2.887,2.887,0,0,0-.051.759v.1h4.371l2.194-.034q.186,0,.186.169V-2.9a.254.254,0,0,1-.03.156.254.254,0,0,1-.156.03l-2.194-.034H20.277A15.683,15.683,0,0,0,26.251-.574,3.618,3.618,0,0,0,25.584.591q-.194.464-.346.464A2.484,2.484,0,0,1,24.833.97a14.236,14.236,0,0,1-5.713-3.063l.068,3.283q0,.186-.177.186H17.526q-.169,0-.169-.186,0-.034.025-1.148.034-1.013.042-2.084a12.992,12.992,0,0,1-5.6,2.979q-.38.1-.413.1-.177,0-.346-.447a3.237,3.237,0,0,0-.624-1.063,15.979,15.979,0,0,0,5.738-2.278Zm1.156-3.662h3.494v-.92H14.344Zm0-4.11h3.494v-.861H14.344Zm0,2.034h3.494V-9.35H14.344Zm23.4-2.1a20.907,20.907,0,0,1-2.16,7.443,3.36,3.36,0,0,1-2.945,1.991,2.632,2.632,0,0,1-2.211-1.316,5.455,5.455,0,0,1-.844-3.122,6.2,6.2,0,0,1,1.949-4.5,7.614,7.614,0,0,1,5.62-2.211,6.622,6.622,0,0,1,5.063,1.924,5.715,5.715,0,0,1,1.519,4.067q0,4.692-5.325,6.3a.981.981,0,0,1-.253.042q-.253,0-.489-.354a3.613,3.613,0,0,0-1.207-1.089A8.495,8.495,0,0,0,40.342-3.2a4.43,4.43,0,0,0,1.333-3.384A3.941,3.941,0,0,0,40.469-9.5a3.634,3.634,0,0,0-2.658-1.089Zm-2.008.1a5.312,5.312,0,0,0-2.953,1.57,4.764,4.764,0,0,0-1.35,3.2,3.73,3.73,0,0,0,.43,1.916q.338.557.743.557.709,0,1.3-1.055a14.821,14.821,0,0,0,1.156-2.97A21.724,21.724,0,0,0,35.735-10.489ZM-16.412,20.563a42.127,42.127,0,0,1,4.785,4.177.373.373,0,0,1,.135.245.424.424,0,0,1-.118.253,9.217,9.217,0,0,1-1.156,1.181.32.32,0,0,1-.211.1.4.4,0,0,1-.245-.135A31.369,31.369,0,0,0-17.711,22.1a25.014,25.014,0,0,1-5.806,4.565,1.468,1.468,0,0,1-.4.135.376.376,0,0,1-.3-.152,4.784,4.784,0,0,0-1.451-1.131,24.018,24.018,0,0,0,3.578-2.177,22.264,22.264,0,0,0,2.506-2.228,22.277,22.277,0,0,0,3.249-4.337l-4.456.017q-1.333,0-2.734.11-.169.017-.228-.3a8.291,8.291,0,0,1-.152-1.8q.928.068,2.92.068h4.751a2.843,2.843,0,0,0,1.19-.16.325.325,0,0,1,.194-.068.709.709,0,0,1,.3.135A6.132,6.132,0,0,1-13.425,16a.494.494,0,0,1,.084.219.457.457,0,0,1-.228.346,3.32,3.32,0,0,0-.633.768A29.949,29.949,0,0,1-16.412,20.563Zm18.319,0A42.127,42.127,0,0,1,6.692,24.74a.373.373,0,0,1,.135.245.424.424,0,0,1-.118.253,9.217,9.217,0,0,1-1.156,1.181.32.32,0,0,1-.211.1.4.4,0,0,1-.245-.135A31.369,31.369,0,0,0,.608,22.1,25.014,25.014,0,0,1-5.2,26.664a1.468,1.468,0,0,1-.4.135.376.376,0,0,1-.3-.152,4.784,4.784,0,0,0-1.451-1.131,24.018,24.018,0,0,0,3.578-2.177,22.264,22.264,0,0,0,2.506-2.228,22.277,22.277,0,0,0,3.249-4.337l-4.456.017q-1.333,0-2.734.11-.169.017-.228-.3a8.291,8.291,0,0,1-.152-1.8q.928.068,2.92.068H2.093a2.843,2.843,0,0,0,1.19-.16.325.325,0,0,1,.194-.068.709.709,0,0,1,.3.135A6.132,6.132,0,0,1,4.894,16a.494.494,0,0,1,.084.219.457.457,0,0,1-.228.346,3.32,3.32,0,0,0-.633.768A29.949,29.949,0,0,1,1.907,20.563Zm16.977-1.814a22.651,22.651,0,0,0,1.662-3.063,10.042,10.042,0,0,0,.658-2.126,7.682,7.682,0,0,1,2.177,1.089.365.365,0,0,1,.169.3.48.48,0,0,1-.194.38,4.94,4.94,0,0,0-.776,1.156A34.885,34.885,0,0,1,20.614,19.9a23.668,23.668,0,0,1,2.54,2.346.4.4,0,0,1,.1.245.494.494,0,0,1-.084.219q-.346.456-1.055,1.232a.266.266,0,0,1-.211.118.338.338,0,0,1-.236-.152,18.513,18.513,0,0,0-2.262-2.287,23.014,23.014,0,0,1-5.915,5.4.775.775,0,0,1-.4.135.5.5,0,0,1-.329-.118,4.906,4.906,0,0,0-1.553-.954,23.59,23.59,0,0,0,3.755-2.675,22.416,22.416,0,0,0,2.759-3,21.323,21.323,0,0,0-3.367-2.059q.945-1.207,1.139-1.418a.243.243,0,0,1,.169-.084.52.52,0,0,1,.211.068A24.658,24.658,0,0,1,18.884,18.748Z" transform="translate(1628.559 7498.268)" fill="#fff"/>
    <path id="パス_2690" data-name="パス 2690" d="M12.5-14.146V.036H10.05v-6.4H4.141v6.4H1.7V-14.146H4.141v5.775H10.05v-5.775Zm7.131,3.927a4.125,4.125,0,0,1,3.436,1.58,5.748,5.748,0,0,1,1.1,3.65A5.547,5.547,0,0,1,22.75-.946,4.2,4.2,0,0,1,19.608.295a4.12,4.12,0,0,1-3.445-1.58,5.757,5.757,0,0,1-1.089-3.65,5.545,5.545,0,0,1,1.419-4.043A4.209,4.209,0,0,1,19.626-10.219Zm0,1.66q-2.2,0-2.2,3.588,0,3.606,2.178,3.606,2.2,0,2.2-3.606Q21.8-8.559,19.626-8.559Zm9.63-4.712V-10h2.249v1.678H29.256v5.507q0,1.446,1.241,1.446a5.214,5.214,0,0,0,1.169-.116L31.577.161a12.04,12.04,0,0,1-1.794.116,2.855,2.855,0,0,1-2.2-.732,2.776,2.776,0,0,1-.6-1.937V-8.318h-1.5V-10h1.5v-2.758Zm19.394-.875v1.99H44.429V.036h-2.49V-12.156H37.753v-1.99Zm4.079,3.927a4.125,4.125,0,0,1,3.436,1.58,5.748,5.748,0,0,1,1.1,3.65,5.547,5.547,0,0,1-1.41,4.043A4.2,4.2,0,0,1,52.711.295a4.12,4.12,0,0,1-3.445-1.58,5.757,5.757,0,0,1-1.089-3.65A5.545,5.545,0,0,1,49.6-8.979,4.209,4.209,0,0,1,52.729-10.219Zm0,1.66q-2.2,0-2.2,3.588,0,3.606,2.178,3.606,2.2,0,2.2-3.606Q54.907-8.559,52.729-8.559ZM61.833-10v1.482a3.174,3.174,0,0,1,2.811-1.7,3.31,3.31,0,0,1,2.865,1.473,6.386,6.386,0,0,1,.955,3.7,5.993,5.993,0,0,1-1.3,4.123,3.371,3.371,0,0,1-2.624,1.2A2.865,2.865,0,0,1,61.9-1.374V3.561H59.619V-10ZM61.9-6.729v3.552Q62.627-1.5,63.93-1.5a1.8,1.8,0,0,0,1.615-.955,4.822,4.822,0,0,0,.562-2.535,4.547,4.547,0,0,0-.669-2.731,1.638,1.638,0,0,0-1.374-.705A2.355,2.355,0,0,0,61.9-6.729ZM73.1-10V.036H70.8V-10Zm.1-4.15v2.356h-2.49v-2.356ZM84.056-7.015l-2.231.509Q81.5-8.541,80.049-8.541q-2.249,0-2.249,3.57,0,3.588,2.249,3.588,1.589,0,1.919-2.106L84.11-2.9A3.992,3.992,0,0,1,82.53-.419,4.331,4.331,0,0,1,80,.295a4.156,4.156,0,0,1-3.5-1.571,5.862,5.862,0,0,1-1.053-3.659,5.551,5.551,0,0,1,1.392-4.043A4.206,4.206,0,0,1,80-10.219a4.111,4.111,0,0,1,2.811.946A4.039,4.039,0,0,1,84.056-7.015Zm9.318-.643L91.2-7.033q-.375-1.615-1.785-1.615a1.853,1.853,0,0,0-1.2.357.88.88,0,0,0-.366.723,1.124,1.124,0,0,0,.4.946,4.272,4.272,0,0,0,1.383.553l.839.223a5.181,5.181,0,0,1,2.508,1.241,2.6,2.6,0,0,1,.607,1.812A2.683,2.683,0,0,1,92.428-.473a4.881,4.881,0,0,1-2.91.768q-3.275,0-4.186-2.508l2.142-.75a2.041,2.041,0,0,0,2.1,1.687q1.83,0,1.83-1.294a1.056,1.056,0,0,0-.428-.937,6.443,6.443,0,0,0-1.508-.571l-.839-.232a4.73,4.73,0,0,1-2.383-1.214,2.75,2.75,0,0,1-.562-1.839,2.487,2.487,0,0,1,1.1-2.133,4.485,4.485,0,0,1,2.669-.723A3.7,3.7,0,0,1,93.374-7.658Zm8.6-7.426a10.234,10.234,0,0,1,2.08.518.307.307,0,0,1,.223.312.322.322,0,0,1-.125.268,1.358,1.358,0,0,0-.312.437q-.036.089-.116.268-.161.384-.312.723a29.552,29.552,0,0,0,3.329-.571.774.774,0,0,1,.107-.009q.143,0,.187.2a6.342,6.342,0,0,1,.187,1.312v.054q0,.2-.312.241-2.133.312-4.284.553a23.687,23.687,0,0,1-1.366,2.026l.018.036a3.3,3.3,0,0,1,1.83-.562,2.013,2.013,0,0,1,2.222,1.972q1.874-.866,2.7-1.285a5.41,5.41,0,0,0,1.383-.982A10.055,10.055,0,0,1,110.7-7.97a.767.767,0,0,1,.143.4q0,.205-.277.259a5.992,5.992,0,0,0-1.116.277q-2.686.946-3.927,1.455v2.945q0,.277-.348.33a8.784,8.784,0,0,1-1.294.089q-.241,0-.241-.295,0-1.571.018-2.222a5.618,5.618,0,0,0-1.776,1.276,1.762,1.762,0,0,0-.428,1.151q0,1.258,2.535,1.258a32.586,32.586,0,0,0,4.552-.366h.054q.178,0,.2.205a6.858,6.858,0,0,1,.17,1.5V.357q0,.277-.205.277a35.928,35.928,0,0,1-4.525.241q-4.587,0-4.587-3.017a3.545,3.545,0,0,1,1.017-2.49A10.543,10.543,0,0,1,103.495-6.6a1.761,1.761,0,0,0-.277-1.009.878.878,0,0,0-.714-.259H102.4a4.488,4.488,0,0,0-2.526,1.321q-.848.83-1.83,1.99-.134.161-.223.161-.071,0-.2-.125a7.86,7.86,0,0,1-1.044-1.2.306.306,0,0,1-.071-.17.265.265,0,0,1,.125-.2,18.845,18.845,0,0,0,3.829-4.534q-1.276.054-2.927.054-.205,0-.259-.295-.062-.348-.179-1.508.875.036,1.839.036,1.16,0,2.365-.062a15.008,15.008,0,0,0,.544-1.571A4.655,4.655,0,0,0,101.978-15.083ZM124.852-5.5a16.421,16.421,0,0,1,1.972,1.839.373.373,0,0,1,.107.259.354.354,0,0,1-.107.241,8.682,8.682,0,0,1-1.133,1.151.4.4,0,0,1-.223.089.3.3,0,0,1-.2-.107A17.841,17.841,0,0,0,123.5-3.8a22.779,22.779,0,0,1-5.828,4.57,1.066,1.066,0,0,1-.455.161.555.555,0,0,1-.348-.161,5.455,5.455,0,0,0-1.74-.928,26.728,26.728,0,0,0,3.865-2.356,23.515,23.515,0,0,0,2.865-2.6,15.845,15.845,0,0,0-2.633-1.723q1.1-1.2,1.2-1.3a.354.354,0,0,1,.241-.125.626.626,0,0,1,.179.071A19.348,19.348,0,0,1,123.2-6.729a17.841,17.841,0,0,0,2.142-3.615l-4.534.089A23.491,23.491,0,0,1,116.9-6.14a.729.729,0,0,1-.366.161.4.4,0,0,1-.295-.125,7.727,7.727,0,0,0-1.535-.839A23.161,23.161,0,0,0,117.944-10a19.912,19.912,0,0,0,1.937-2.678,8.086,8.086,0,0,0,.982-2.249,12.241,12.241,0,0,1,2.142.893.314.314,0,0,1,.2.295.453.453,0,0,1-.223.366,1.359,1.359,0,0,0-.375.384q-.214.375-.571.91l3.222-.071a1.952,1.952,0,0,0,1-.277.607.607,0,0,1,.312-.125.644.644,0,0,1,.33.143,5.509,5.509,0,0,1,1.25,1.116.474.474,0,0,1,.143.33.487.487,0,0,1-.205.348,2.408,2.408,0,0,0-.544.7A29.336,29.336,0,0,1,124.852-5.5Zm17.332-3.972v6.051q0,1.607.054,3.8V.437q0,.259-.277.259-.446.027-.91.027T140.141.7q-.259,0-.259-.232V.4q.009-.428.045-2.026.027-1.044.027-1.723V-7.6A28.823,28.823,0,0,1,134.929-4.1a.548.548,0,0,1-.277.071.558.558,0,0,1-.384-.179,6.747,6.747,0,0,0-1.571-1.08,32.016,32.016,0,0,0,5.757-3.749,28.923,28.923,0,0,0,3.891-3.82,6.392,6.392,0,0,0,1.16-1.883,15.664,15.664,0,0,1,2.026,1.285.308.308,0,0,1,.143.268.468.468,0,0,1-.259.4,6.99,6.99,0,0,0-1.089,1.009A31.156,31.156,0,0,1,142.185-9.469Zm14.753-4.9a10.843,10.843,0,0,1,2.463.955q.223.152.223.295a.611.611,0,0,1-.187.366,6.353,6.353,0,0,0-.741,1.517q-2.115,5.766-3.151,8.22,4.106-.348,6.4-.7a17.824,17.824,0,0,0-2.035-2.918l1.6-.884a.368.368,0,0,1,.17-.054.387.387,0,0,1,.268.161,24.071,24.071,0,0,1,3.695,5.98.486.486,0,0,1,.071.241q0,.179-.241.312a9.572,9.572,0,0,1-1.383.75.532.532,0,0,1-.223.054q-.17,0-.259-.259-.482-1.125-.643-1.464-3.374.509-8.675,1.062a7.042,7.042,0,0,0-2.142.446.593.593,0,0,1-.232.054.3.3,0,0,1-.295-.241,16.323,16.323,0,0,1-.643-2.356q.5.036,1.116.036.295,0,1.116-.018,1.812-4.579,3.2-9.05A11.434,11.434,0,0,0,156.938-14.369Zm15.208.259a14.964,14.964,0,0,1,2.276.384q.312.08.312.295a.807.807,0,0,1-.08.277,4.861,4.861,0,0,0-.2,1.731v3.695q0,.339.045,2.3,0,.366-.393.366h-1.473q-.339,0-.339-.268v-.045l.054-2.49v-3.579A13.647,13.647,0,0,0,172.146-14.11Zm.928,13.673a8.844,8.844,0,0,0,4.454-2.669q1.232-1.517,1.232-4.882v-3.454a16.093,16.093,0,0,0-.205-2.981,11.826,11.826,0,0,1,2.383.4.312.312,0,0,1,.25.312.584.584,0,0,1-.071.295,7.047,7.047,0,0,0-.161,1.99v3.4a14.216,14.216,0,0,1-.393,3.65,6.65,6.65,0,0,1-1.1,2.312,7.883,7.883,0,0,1-1.91,1.767A9.676,9.676,0,0,1,175.448.812a1.182,1.182,0,0,1-.384.089.615.615,0,0,1-.437-.223A6.168,6.168,0,0,0,173.074-.437Zm14.637-7.586a26.99,26.99,0,0,0,3.945.223h5.891q.866,0,2.231-.027,1.74-.027,1.972-.036h.089q.241,0,.241.259.027.419.027.866t-.027.857q0,.277-.259.277h-.071q-2.74-.036-4.079-.036h-6.578l-2.686.223a.4.4,0,0,1-.419-.384A17.381,17.381,0,0,1,187.711-8.024Zm19.715-5.9a8.522,8.522,0,0,1,1.964.669q.419.223.419.437a1.466,1.466,0,0,1-.277.553,5.539,5.539,0,0,0-.437,1.294,27.362,27.362,0,0,0-.768,5.908,19.424,19.424,0,0,0,.107,2.133q1.241-2.713,1.241-2.722a6.991,6.991,0,0,0,.643,1.151.816.816,0,0,1,.125.277.58.58,0,0,1-.089.295,19.8,19.8,0,0,0-1.044,2.758,2.12,2.12,0,0,0-.054.571l.036.509q0,.187-.241.241a9.688,9.688,0,0,1-1.49.295h-.036q-.152,0-.205-.205a11.975,11.975,0,0,1-.643-2.7,20.128,20.128,0,0,1-.2-2.74,34.676,34.676,0,0,1,.625-6A18.223,18.223,0,0,0,207.427-13.923ZM211.639-4.5l1.66-.143h.036q.143,0,.143.277a1.583,1.583,0,0,0,.884,1.383,5.071,5.071,0,0,0,2.1.33,30.774,30.774,0,0,0,3.49-.232.764.764,0,0,1,.08-.009q.143,0,.178.241a11.355,11.355,0,0,1,.107,1.571q0,.179-.045.214A.707.707,0,0,1,220-.812a25.34,25.34,0,0,1-2.981.205,10.047,10.047,0,0,1-3.24-.4,3.182,3.182,0,0,1-1.508-1.116A3.8,3.8,0,0,1,211.639-4.5Zm.58-5.185q.027-1.571.054-1.794a.311.311,0,0,1,.259-.312,21.727,21.727,0,0,1,3.972-.33q1.553,0,2.7.107a.833.833,0,0,1,.366.071q.054.036.054.17,0,1.044-.036,1.553-.027.223-.2.223h-.045q-1.642-.116-2.981-.116A23.439,23.439,0,0,0,212.22-9.684Zm13.575-3.392-2.231.036q-.179,0-.178-.2v-1.3q0-.2.178-.2l2.231.036h3.65l2.24-.036q.143,0,.17.036a.308.308,0,0,1,.027.161v1.3q0,.143-.036.17a.307.307,0,0,1-.161.027l-2.24-.036H229.3v1.758l1.865-.036q.205,0,.205.187l-.036,3.454v3.4l.036,5.123q0,.143-.045.17a.279.279,0,0,1-.161.027h-1.116q-.161,0-.187-.036a.308.308,0,0,1-.027-.161V.205h-4.346v.928q0,.205-.187.205h-1.151q-.143,0-.17-.036a.333.333,0,0,1-.027-.17l.036-5.248V-7.22l-.036-3.945q0-.187.2-.187l1.865.036v-1.758Zm1.437,5.248a8.133,8.133,0,0,1-.759,2.785q-.089.161-.187.161-.116,0-.214-.241a2.114,2.114,0,0,0-.58-.8V-4.2h4.346V-5.739h-.678a1.417,1.417,0,0,1-.9-.205q-.268-.223-.268-1.035V-9.871h-.678Q227.312-8.631,227.232-7.827Zm-1.74,6.462h4.346V-2.686h-4.346Zm0-8.506v3.749a3.347,3.347,0,0,0,.446-.964,8.347,8.347,0,0,0,.205-1.214q.036-.437.036-1.571Zm4.346,0h-.678v1.9a1.952,1.952,0,0,0,.054.625q.062.125.348.125h.277Zm-2.526-1.446h.678v-1.758h-.678Zm5.462-3.4,1.9.036h2.338l1.919-.036q.161,0,.187.036a.262.262,0,0,1,.036.17l-.036,1.955v4.114l.036,1.964q0,.134-.036.165a.339.339,0,0,1-.187.031h-1.464q-.143,0-.17-.036a.307.307,0,0,1-.027-.161V-7.1h-2.847v5.3a1.337,1.337,0,0,0,.161.821,2.372,2.372,0,0,0,1.366.232,2.569,2.569,0,0,0,1.7-.366,1.654,1.654,0,0,0,.295-.83q.071-.464.125-1.562a4.074,4.074,0,0,0,1.241.518,1.481,1.481,0,0,1,.455.179.329.329,0,0,1,.089.268q0,.071-.018.286A3.865,3.865,0,0,1,238.95.366a4.937,4.937,0,0,1-3.07.66q-2.321,0-2.847-.473a1.969,1.969,0,0,1-.455-1.464V-6.6l-.036-2.08a.326.326,0,0,1,.036-.2.36.36,0,0,1,.179-.027l1.74.036h2.776v-4.043h-2.6l-1.9.036q-.2,0-.2-.179v-1.473q0-.143.036-.17A.307.307,0,0,1,232.774-14.717ZM248.8,1.366h-1.482q-.143,0-.17-.036a.307.307,0,0,1-.027-.161l.036-2.437V-2.5l-.036-1.633q0-.179.2-.179l2.4.036h4.364l2.356-.036q.205,0,.205.179l-.036,1.41V-1.3l.036,2.41q0,.187-.205.187h-1.517q-.2,0-.2-.187V.562h-5.721v.607q0,.143-.036.17A.333.333,0,0,1,248.8,1.366Zm.205-4.088V-.991h5.721V-2.722Zm-7.952-5.444a17.378,17.378,0,0,0,3.159-5.891,6.4,6.4,0,0,0,.312-1.312,16,16,0,0,1,1.687.491q.312.107.312.277a.562.562,0,0,1-.205.33,2.37,2.37,0,0,0-.366.768q-.4,1.142-.875,2.222v9.728l.036,2.776a.283.283,0,0,1-.036.179.333.333,0,0,1-.17.027h-1.517q-.179,0-.179-.205l.036-2.776V-7.988a16.323,16.323,0,0,1-1.08,1.455q-.187.241-.33.241-.116,0-.2-.312A5.509,5.509,0,0,0,241.056-8.166Zm7.729-2.142-2.526.036q-.143,0-.17-.036a.393.393,0,0,1-.027-.179v-1.285a.3.3,0,0,1,.036-.187.307.307,0,0,1,.161-.027l2.526.036h6.578l2.508-.036q.152,0,.187.045a.333.333,0,0,1,.027.17v1.285a.3.3,0,0,1-.036.187.36.36,0,0,1-.179.027l-2.508-.036Zm5.132-2.651h-3.945l-2.285.036a.282.282,0,0,1-.178-.036.307.307,0,0,1-.027-.161v-1.232q0-.143.045-.17a.279.279,0,0,1,.161-.027l2.285.036h3.945l2.249-.036a.325.325,0,0,1,.2.036.307.307,0,0,1,.027.161v1.232q0,.143-.045.17a.36.36,0,0,1-.178.027ZM253.775-7.8H249.99l-2.267.036q-.205,0-.205-.179V-9.157q0-.143.045-.17a.279.279,0,0,1,.161-.027l2.267.036h3.784l2.249-.036q.143,0,.17.036a.307.307,0,0,1,.027.161v1.214q0,.179-.2.179Zm0,2.517H249.99l-2.267.036a.282.282,0,0,1-.179-.036.308.308,0,0,1-.027-.161v-1.2q0-.143.045-.17a.279.279,0,0,1,.161-.027l2.267.036h3.784l2.249-.036q.143,0,.17.036a.307.307,0,0,1,.027.161v1.2a.268.268,0,0,1-.031.165.268.268,0,0,1-.165.031Zm12.017-9.193L265.3-3.6h-1.848l-.509-10.88Zm-2.74,12.656h2.6V.643h-2.6ZM12.807,29.516a7.434,7.434,0,0,0-.071,1.151,1.032,1.032,0,0,1-.089.562,1.182,1.182,0,0,1-.455.187q-2.1.652-4.65,1.241a1.714,1.714,0,0,0-.58.223.5.5,0,0,1-.295.125.219.219,0,0,1-.223-.179,13.557,13.557,0,0,1-.4-1.74,14.283,14.283,0,0,0,1.535-.2l.607-.116V20.617L8.149,17.4q0-.143.036-.17a.307.307,0,0,1,.161-.027l2.365.036h3.231l2.106-.036q.143,0,.17.036a.307.307,0,0,1,.027.161L16.208,19.4v3.383l.036,2.035q0,.143-.036.17a.307.307,0,0,1-.161.027l-2.106-.036h-.893a11.26,11.26,0,0,0,.714,2.374q.625-.491,1.517-1.348a5.005,5.005,0,0,0,.58-.768A14.594,14.594,0,0,1,17.127,26.3a.49.49,0,0,1,.143.286q0,.187-.223.259a2.287,2.287,0,0,0-.785.544,20.024,20.024,0,0,1-1.678,1.392A8.046,8.046,0,0,0,17.743,31.4a5.378,5.378,0,0,0-.821,1.321q-.223.437-.33.437a1.133,1.133,0,0,1-.4-.205,10.913,10.913,0,0,1-4.864-7.97H10.032v5.391Q11.549,29.98,12.807,29.516Zm1.553-6.087V21.8H10.032v1.624Zm0-4.587H10.032v1.5H14.36ZM3.784,27.891q.143.009.268.009a1.707,1.707,0,0,0,1.169-.321,1.281,1.281,0,0,0,.348-1A3.466,3.466,0,0,0,5.212,25.1a14.494,14.494,0,0,0-1.339-2.124,23.8,23.8,0,0,0,1.66-4.132H3.49V29.114l.036,3.873a.282.282,0,0,1-.036.179.307.307,0,0,1-.161.027H1.839a.268.268,0,0,1-.165-.031.29.29,0,0,1-.031-.174l.036-3.873V21.233l-.036-3.882a.325.325,0,0,1,.036-.2.333.333,0,0,1,.17-.027l1.553.036H6.087a.889.889,0,0,0,.366-.054.444.444,0,0,1,.2-.054q.232,0,.714.544.473.473.473.714a.434.434,0,0,1-.179.33,1.5,1.5,0,0,0-.348.58,37.254,37.254,0,0,1-1.535,3.6,8.1,8.1,0,0,1,1.383,2.472,5.334,5.334,0,0,1,.187,1.517,2.484,2.484,0,0,1-2.5,2.829q-.223.018-.295.018-.232,0-.295-.116a1.489,1.489,0,0,1-.071-.428A2.262,2.262,0,0,0,3.784,27.891ZM24.9,23.527l-2.463.036a.325.325,0,0,1-.2-.036.333.333,0,0,1-.027-.17V22.019q0-.143.045-.17a.36.36,0,0,1,.179-.027l2.463.036H30.06l2.463-.036a.282.282,0,0,1,.179.036.307.307,0,0,1,.027.161v1.339a.282.282,0,0,1-.036.179.333.333,0,0,1-.17.027l-2.463-.036H28.507v2.428h2.231l2.1-.036q.161,0,.187.036a.243.243,0,0,1,.036.161v1.339q0,.125-.036.152a.388.388,0,0,1-.187.027l-2.1-.036H28.507V30.72a31.894,31.894,0,0,0,3.525.161q1.383,0,3.543-.161a5.142,5.142,0,0,0-.348,1.312q-.054.437-.161.518a1.306,1.306,0,0,1-.491.107q-1.044.054-2.16.054-4.855-.018-6.8-.893a5.982,5.982,0,0,1-2.463-2.285,10.621,10.621,0,0,1-2.231,3.124q-.286.312-.4.312-.1,0-.366-.348a3.953,3.953,0,0,0-1.062-.946A8.553,8.553,0,0,0,22.384,25.9a11.158,11.158,0,0,0,.107-1.169q.794.116,1.74.348.348.071.348.25a.6.6,0,0,1-.17.348,1.661,1.661,0,0,0-.241.571,12.907,12.907,0,0,1-.33,1.437,6.391,6.391,0,0,0,1.169,1.687,4.357,4.357,0,0,0,1.58.928V23.527Zm7.64-5.194,2.41-.036q.205,0,.205.179l-.036.955v.785l.036,2.008q0,.143-.045.17a.279.279,0,0,1-.161.027h-1.5q-.143,0-.17-.036a.307.307,0,0,1-.027-.161V20.01H21.688v2.213q0,.143-.045.17a.36.36,0,0,1-.179.027H19.983q-.143,0-.17-.036a.307.307,0,0,1-.027-.161l.036-2.008v-.625l-.036-1.116q0-.179.2-.179l2.437.036h3.909v-.161a7.975,7.975,0,0,0-.134-1.74q.919,0,1.955.089.277.036.277.187a1.182,1.182,0,0,1-.107.348,4.384,4.384,0,0,0-.071,1.1v.178Zm14.325,2.213a22.113,22.113,0,0,1-2.285,7.872,3.554,3.554,0,0,1-3.115,2.106,2.784,2.784,0,0,1-2.338-1.392,5.769,5.769,0,0,1-.893-3.3A6.554,6.554,0,0,1,40.3,21.072a8.053,8.053,0,0,1,5.944-2.338A7,7,0,0,1,51.6,20.769a6.044,6.044,0,0,1,1.607,4.3q0,4.962-5.632,6.658a1.038,1.038,0,0,1-.268.045q-.268,0-.518-.375a3.821,3.821,0,0,0-1.276-1.151,8.985,8.985,0,0,0,4.106-1.883,4.685,4.685,0,0,0,1.41-3.579A4.169,4.169,0,0,0,49.748,21.7a3.844,3.844,0,0,0-2.811-1.151Zm-2.124.107a5.618,5.618,0,0,0-3.124,1.66A5.038,5.038,0,0,0,40.189,25.7a3.945,3.945,0,0,0,.455,2.026q.357.589.785.589.75,0,1.374-1.116a15.675,15.675,0,0,0,1.223-3.142A22.976,22.976,0,0,0,44.741,20.653ZM60.735,21l.018-2.088a6.945,6.945,0,0,0-.125-1.473,10.325,10.325,0,0,1,2.169.321q.366.1.366.348a.659.659,0,0,1-.107.295,2.324,2.324,0,0,0-.259.714q-.054.527-.089,1.517a18.953,18.953,0,0,0,2.347-.669.364.364,0,0,1,.125-.027q.161,0,.187.187a9.2,9.2,0,0,1,.107,1.419.291.291,0,0,1-.241.295,24.58,24.58,0,0,1-2.615.7l-.036,2.651a11.01,11.01,0,0,1,4.5-1.009,3.943,3.943,0,0,1,2.927,1.142,3.449,3.449,0,0,1,.964,2.508,3.482,3.482,0,0,1-1.2,2.856,4.225,4.225,0,0,1-2.767.857,6.584,6.584,0,0,1-1.5-.161.511.511,0,0,1-.4-.553,3.065,3.065,0,0,0-.553-1.544,7.354,7.354,0,0,0,2.285.321,2,2,0,0,0,1.437-.518,1.8,1.8,0,0,0,.535-1.366,1.725,1.725,0,0,0-.6-1.428,2.177,2.177,0,0,0-1.41-.419,9.448,9.448,0,0,0-4.186,1.25q.027,1.169.071,2.2.152,2.133.152,2.374a1.674,1.674,0,0,1-.027.393.312.312,0,0,1-.25.205,6.312,6.312,0,0,1-1.348.223q-.178.018-.446-.366a10.375,10.375,0,0,0-2.6-2.338,3.2,3.2,0,0,0-.58.4.443.443,0,0,1-.312.125.5.5,0,0,1-.4-.295,16.98,16.98,0,0,1-.839-1.7,6.523,6.523,0,0,0,1.678-.643q.83-.455,2.981-1.7V22.884q-1.83.143-3.07.143a.391.391,0,0,1-.437-.384q-.071-.437-.205-1.589a9.836,9.836,0,0,0,1.428.089Q59.2,21.144,60.735,21Zm.054,6.926q-1.16.785-1.785,1.241a18,18,0,0,0,1.714.821.383.383,0,0,0,.1.018q.089,0,.089-.107a.168.168,0,0,0-.009-.054q-.018-.277-.054-.982T60.788,27.927ZM66.9,21a11.266,11.266,0,0,1,.839-1.428q.143-.232.241-.232a.384.384,0,0,1,.071.009,8.786,8.786,0,0,1,3.873,2.231.324.324,0,0,1,.107.187.626.626,0,0,1-.071.179q-.152.232-.518.7-.4.518-.473.607-.045.062-.2.062-.134,0-.17-.062A8.572,8.572,0,0,0,66.9,21Zm14.432,7.238-2.5.036q-.152,0-.178-.045a.333.333,0,0,1-.027-.17V26.829q0-.143.036-.17a.333.333,0,0,1,.17-.027l2.5.036H86.18v-1.1H81.539l-2.49.036a.3.3,0,0,1-.187-.036.307.307,0,0,1-.027-.161V24.2q0-.143.036-.17A.36.36,0,0,1,79.049,24l2.49.036h6.1l2.5-.036q.187,0,.187.2V25.41q0,.2-.187.2l-.277-.009q-.821-.018-1.839-.027v1.1l2.133-.036q.152,0,.178.036a.307.307,0,0,1,.027.161v1.232a.315.315,0,0,1-.031.179q-.031.036-.174.036l-.259-.009q-.812-.018-1.874-.027v.839l.018,2.213a1.494,1.494,0,0,1-.625,1.374,5.715,5.715,0,0,1-2.535.348q-.437,0-.518-.089a1.294,1.294,0,0,1-.161-.482,4.119,4.119,0,0,0-.518-1.276,14.208,14.208,0,0,0,1.58.08q.205,0,.4-.009.509,0,.509-.553V28.239Zm4.98-11.094,2.24-.036q.152,0,.179.036a.307.307,0,0,1,.027.161l-.036,1.633V21.3l.036,1.624q0,.152-.036.179a.333.333,0,0,1-.17.027l-2.24-.036H82.762l-2.249.036q-.143,0-.17-.036a.333.333,0,0,1-.027-.17l.036-1.624V18.939l-.036-1.633q0-.143.036-.17a.307.307,0,0,1,.161-.027l2.249.036Zm.634,4.552v-.91H82.084v.91Zm-4.864-3.142v.893h4.864v-.893Zm-4.436,1.972A12.037,12.037,0,0,1,79,21.4a.5.5,0,0,1,.241.366q0,.143-.205.277a1.826,1.826,0,0,0-.509.634q-.446.723-.768,1.169V30.72l.036,2.267a.282.282,0,0,1-.036.179.307.307,0,0,1-.161.027H76.068q-.143,0-.17-.036a.333.333,0,0,1-.027-.17l.036-2.267V27.98q0-.66.036-2.008-.536.536-1.009.928a1.086,1.086,0,0,1-.419.241q-.134,0-.232-.366a3.692,3.692,0,0,0-.643-1.339,15.084,15.084,0,0,0,3.525-3.945A4.545,4.545,0,0,0,77.648,20.528Zm-.17-4.025a10.82,10.82,0,0,1,1.419.857q.259.179.259.348a.271.271,0,0,1-.187.241,1.429,1.429,0,0,0-.544.491,18.2,18.2,0,0,1-3.159,3.106,1.013,1.013,0,0,1-.4.223q-.116,0-.33-.419a3.573,3.573,0,0,0-.821-1.08,11.538,11.538,0,0,0,3.2-2.91A4.326,4.326,0,0,0,77.478,16.5ZM82.03,28.57A10.129,10.129,0,0,1,83.8,30.613a.3.3,0,0,1,.071.152q0,.071-.178.2l-1.151.714a.43.43,0,0,1-.214.089q-.071,0-.152-.125a11.089,11.089,0,0,0-1.66-2.124q-.107-.089-.107-.143t.179-.17l1.062-.652a.458.458,0,0,1,.2-.08A.3.3,0,0,1,82.03,28.57Zm20.072-.9q-.125-1.348-.161-3.142a7.1,7.1,0,0,0-.152-1.294,11.133,11.133,0,0,1,1.99.348.277.277,0,0,1,.259.286,2.081,2.081,0,0,1-.107.384,1.77,1.77,0,0,0-.08.544q0,.062.009.205a27.339,27.339,0,0,0,.2,3.106,16.188,16.188,0,0,1,3.293,1.7q.161.116.161.214a.414.414,0,0,1-.054.17,12.894,12.894,0,0,1-.839,1.482q-.08.125-.17.125a.292.292,0,0,1-.178-.107,14.81,14.81,0,0,0-2.231-1.535A2.353,2.353,0,0,1,103,32.264a4.287,4.287,0,0,1-2.356.562,3.772,3.772,0,0,1-2.553-.8,2.254,2.254,0,0,1-.812-1.794,2.336,2.336,0,0,1,1.035-2.017,3.939,3.939,0,0,1,2.347-.652A9.439,9.439,0,0,1,102.1,27.668Zm.036,1.74a4.655,4.655,0,0,0-1.49-.277,2.131,2.131,0,0,0-1.214.3.882.882,0,0,0-.411.759q0,.875,1.553.875a1.7,1.7,0,0,0,1.214-.411,1.167,1.167,0,0,0,.366-.884A2.553,2.553,0,0,0,102.138,29.408Zm-2.972-9.38a18.619,18.619,0,0,0,2.267-.393.406.406,0,0,1,.134-.036q.107,0,.134.179a8.454,8.454,0,0,1,.17,1.482q0,.187-.223.214-.946.2-3.017.491A52.369,52.369,0,0,1,95.07,29.81q-.107.179-.205.179a.532.532,0,0,1-.214-.089,7.455,7.455,0,0,1-1.267-.937.265.265,0,0,1-.125-.2.37.37,0,0,1,.089-.223,39.064,39.064,0,0,0,3.168-6.372q-.7.036-1.83.036-.553,0-1.009-.018-.205,0-.259-.295a10.338,10.338,0,0,1-.179-1.553q.991.071,1.7.071,1.062,0,2.106-.089.241-.848.473-2.044a8.412,8.412,0,0,0,.116-1.482,16.531,16.531,0,0,1,2.133.384q.295.054.295.268a.486.486,0,0,1-.161.348,2.332,2.332,0,0,0-.295.678q-.045.152-.223.794Q99.255,19.734,99.166,20.028Zm4.052,1.74q.75-1.33.821-1.428.107-.17.223-.17a.5.5,0,0,1,.161.036,12.835,12.835,0,0,1,3.588,1.723q.161.107.161.2a.462.462,0,0,1-.071.223,10.257,10.257,0,0,1-.768,1.357q-.08.125-.17.125a.3.3,0,0,1-.161-.071A15.645,15.645,0,0,0,103.218,21.769Zm18.743,9.612q.634.054,1.241.054a.71.71,0,0,0,.536-.152.6.6,0,0,0,.107-.393v-.732H118.89V31l.036,1.972q0,.161-.045.187a.282.282,0,0,1-.178.036h-1.428q-.152,0-.187-.045a.36.36,0,0,1-.027-.179l.036-1.937V26.758l-.036-1.972q0-.161.045-.2a.36.36,0,0,1,.179-.027l2.258.036h3.641l2.267-.036q.143,0,.17.045a.36.36,0,0,1,.027.179l-.036,2.133v1.633l.036,2.535a2.015,2.015,0,0,1-.473,1.535,3.576,3.576,0,0,1-2.08.464h-.223q-.268,0-.348-.116a1.6,1.6,0,0,1-.143-.455A3.975,3.975,0,0,0,121.961,31.381Zm-3.07-2.428h4.953v-.9H118.89Zm4.953-2.963H118.89v.857h4.953Zm-4.98-2.151-2.481.018a.329.329,0,0,1-.179-.027.36.36,0,0,1-.027-.179V22.608q0-.143.045-.17a.279.279,0,0,1,.161-.027l2.481.036H120.4v-.839h-.91l-2.3.036q-.143,0-.179-.045a.36.36,0,0,1-.027-.178v-.91q0-.152.045-.179a.279.279,0,0,1,.161-.027l2.3.036h.91V19.52h-1.2l-2.41.036a.282.282,0,0,1-.179-.036.333.333,0,0,1-.027-.17v-.982q0-.161.045-.2a.279.279,0,0,1,.161-.027l2.41.036h1.2q-.018-.893-.125-1.794.937.027,1.812.134.295.027.295.179a.819.819,0,0,1-.054.268q-.071.179-.08.205a4.418,4.418,0,0,0-.071,1.009h1.758l2.392-.036q.161,0,.187.045a.282.282,0,0,1,.036.179v.982q0,.152-.045.179a.36.36,0,0,1-.179.027l-2.392-.036h-1.758v.821h1.241L125.7,20.3a.282.282,0,0,1,.178.036.333.333,0,0,1,.027.17v.91a.325.325,0,0,1-.036.2.333.333,0,0,1-.17.027l-2.285-.036h-1.241v.839h2.267l2.463-.036q.152,0,.178.036a.307.307,0,0,1,.027.161v1.044q0,.161-.036.187a.437.437,0,0,1-.17.018l-2.463-.018Zm-6.248-7.408q1.053.027,1.883.125.295.027.295.187a.984.984,0,0,1-.089.366,8.228,8.228,0,0,0-.134,2.026V29.757l.036,3.2a.325.325,0,0,1-.036.2.307.307,0,0,1-.161.027h-1.482q-.152,0-.178-.045a.36.36,0,0,1-.027-.179l.036-3.177V19.189A20.606,20.606,0,0,0,112.616,16.431Zm-1.446,3.838.857.178q.268.062.268.223v.071a15.921,15.921,0,0,1-.625,4q-.045.143-.107.143a.639.639,0,0,1-.187-.062l-.884-.366q-.223-.089-.223-.232a.518.518,0,0,1,.027-.134,14.977,14.977,0,0,0,.58-3.7q0-.152.08-.152A1.781,1.781,0,0,1,111.17,20.269Zm4.355-.607a.567.567,0,0,1,.161-.036q.1,0,.161.152a12.906,12.906,0,0,1,.75,2.169.52.52,0,0,1,.027.125q0,.1-.223.187l-.768.277a.782.782,0,0,1-.205.054q-.1,0-.125-.17a14,14,0,0,0-.678-2.2.568.568,0,0,1-.036-.152q0-.1.223-.161ZM145.674,31.47a4.232,4.232,0,0,0-.714,1.241q-.187.4-.3.4a1.024,1.024,0,0,1-.366-.2,16.1,16.1,0,0,1-2.2-1.981,16.084,16.084,0,0,1-1.553,1.847q-.286.259-.366.259-.107,0-.33-.384a4.548,4.548,0,0,0-.785-1.08q.009.527.027,1.044.009.339.009.366,0,.178-.2.179h-1.41a.325.325,0,0,1-.2-.036.233.233,0,0,1-.027-.143l.036-3.82V21.3l-.036-3.873q0-.152.045-.179a.36.36,0,0,1,.178-.027l2.267.036H142.7l2.062-.036q.241,0,.241.187v.054q-.027.214-.036.509-.018.366-.018.419a8.881,8.881,0,0,1-.4,2.74,1.591,1.591,0,0,1-.768.785,3.223,3.223,0,0,1-1.232.187q-.643,0-.964-.018a.724.724,0,0,1-.4-.1.932.932,0,0,1-.116-.375,6,6,0,0,0-.295-1.178,10.112,10.112,0,0,0,1.428.116.96.96,0,0,0,.544-.116.635.635,0,0,0,.223-.366,3.908,3.908,0,0,0,.134-1.133h-4.043v4.132h3.927a1.211,1.211,0,0,0,.518-.071.548.548,0,0,1,.277-.071q.2,0,.7.491.509.536.509.714a.513.513,0,0,1-.125.312,1.573,1.573,0,0,0-.312.687,17.074,17.074,0,0,1-1.49,4.222A12.591,12.591,0,0,0,145.674,31.47Zm-6.613.054a12.386,12.386,0,0,0,1.919-2.071,13.556,13.556,0,0,1-1.794-4.748h-.125Zm3.873-6.819h-2.213a12.132,12.132,0,0,0,1.232,3.124A15.2,15.2,0,0,0,142.935,24.7ZM131.51,28.436h.607v-1.5h-.937l-2.133.036q-.152,0-.179-.045a.36.36,0,0,1-.027-.179V25.615q0-.143.036-.17a.333.333,0,0,1,.17-.027l2.133.036h2.16q.339-.83.58-1.607a6.916,6.916,0,0,0,.187-.866,13.87,13.87,0,0,1,1.535.366q.259.08.259.205a.282.282,0,0,1-.125.223.8.8,0,0,0-.241.339q-.312.776-.589,1.339l1.758-.036q.143,0,.17.036a.307.307,0,0,1,.027.161v1.133a.325.325,0,0,1-.036.2.307.307,0,0,1-.161.027l-2.16-.036h-.678v1.5h.491l2-.036q.143,0,.17.036a.307.307,0,0,1,.027.161V29.73a.29.29,0,0,1-.031.174.268.268,0,0,1-.165.031l-2-.036h-.491v1.187l.036,1.9q0,.143-.036.17a.307.307,0,0,1-.161.027h-1.428a.282.282,0,0,1-.179-.036.308.308,0,0,1-.027-.161l.045-1.9V29.9h-.607l-2.008.036a.282.282,0,0,1-.178-.036.333.333,0,0,1-.027-.17V28.6q0-.143.036-.17a.333.333,0,0,1,.17-.027ZM131.2,21.4h.919V19.957h-.5l-1.972.036q-.143,0-.17-.036a.308.308,0,0,1-.027-.161V18.645q0-.187.2-.187l1.972.036h.5v-.036a12.13,12.13,0,0,0-.134-2.008,16.72,16.72,0,0,1,1.812.125q.295.027.295.187a.882.882,0,0,1-.107.33,2.186,2.186,0,0,0-.116.91v.491h.4l1.972-.036a.166.166,0,0,1,.187.187V19.8q0,.2-.187.2l-1.972-.036h-.4V21.4h.625l2.178-.036q.143,0,.17.045a.36.36,0,0,1,.027.179v1.133q0,.143-.036.17a.307.307,0,0,1-.161.027l-2.178-.036H131.2l-2.133.036a.325.325,0,0,1-.2-.036.308.308,0,0,1-.027-.161V21.59q0-.161.045-.2a.36.36,0,0,1,.178-.027Zm-1.017,2.267a.355.355,0,0,1-.054-.152q0-.071.214-.143l1.009-.312a.527.527,0,0,1,.143-.027q.107,0,.179.152a9.466,9.466,0,0,1,.625,1.6.75.75,0,0,1,.027.143q0,.1-.205.17l-1.009.3a.623.623,0,0,1-.187.045q-.089,0-.143-.17A11.164,11.164,0,0,0,130.181,23.67ZM153.752,27a11.966,11.966,0,0,0-.107,1.473,2.31,2.31,0,0,0,.66,1.874,2.777,2.777,0,0,0,1.767.464q3.329,0,3.329-2.463a3.618,3.618,0,0,0-.348-1.607,7.638,7.638,0,0,0-1.294-1.723,3.757,3.757,0,0,0,.562.045,10.572,10.572,0,0,0,1.3-.152.453.453,0,0,1,.125-.018.391.391,0,0,1,.259.089,4.6,4.6,0,0,1,1.553,3.436,3.8,3.8,0,0,1-1.642,3.258,6.068,6.068,0,0,1-3.624,1.017q-4.605,0-4.605-4.123,0-.286.125-1.723a15.9,15.9,0,0,1-2.481-.544q-.179-.054-.205-.348-.054-.58-.054-1.1,0-.312.018-.607a12.451,12.451,0,0,0,2.963.714q.2-1.482.312-2.615a14.81,14.81,0,0,1-2.633-.509q-.295-.071-.295-.312-.054-1.312-.054-1.7a16.427,16.427,0,0,0,3.311.7q.187-1.374.232-2.106.027-.348.027-.7a7.446,7.446,0,0,0-.045-.839,9.089,9.089,0,0,1,2.2.509q.4.143.4.419a.537.537,0,0,1-.143.348,1.914,1.914,0,0,0-.33.785q-.161.732-.295,1.723.268.018.589.018a12.436,12.436,0,0,0,1.66-.125q.187,0,.187.214.009.25.009.509a7.269,7.269,0,0,1-.045.866q0,.241-.295.268a16.859,16.859,0,0,1-1.892.1h-.544q-.08.464-.4,2.615.4.009.7.009.919,0,1.9-.071a.65.65,0,0,1,.107-.009q.187,0,.187.214a10,10,0,0,1-.089,1.374q-.027.295-.259.295-.8.062-1.865.062Q154.243,27.008,153.752,27Zm17.639-9.728L170.9,28.15h-1.847l-.509-10.88Zm-2.74,12.656h2.6v2.463h-2.6ZM3.508,59.451a22.026,22.026,0,0,0,4.454-2,13.445,13.445,0,0,0,2.615-2.1,4.7,4.7,0,0,0,.66-.91,14.739,14.739,0,0,1,1.571.527q.277.116.277.295,0,.152-.223.277a2.152,2.152,0,0,0-.491.419l-.384.384H14.9a1.716,1.716,0,0,0,.643-.089,1.1,1.1,0,0,1,.286-.089,1.648,1.648,0,0,1,.812.491q.509.446.509.643,0,.161-.223.312a3.351,3.351,0,0,0-.544.544,16.973,16.973,0,0,1-5.248,4.632,24.1,24.1,0,0,1-6.783,2.276,2.889,2.889,0,0,1-.419.054q-.205,0-.384-.437a4.229,4.229,0,0,0-.785-1.223,24.583,24.583,0,0,0,7.051-2.053,14.969,14.969,0,0,0-1.428-1.169q-.125-.125-.125-.178,0-.071.134-.17l.982-.714a.412.412,0,0,1,.205-.08.458.458,0,0,1,.214.08,11.975,11.975,0,0,1,1.651,1.285,13.273,13.273,0,0,0,2.811-2.579H10.344a20.838,20.838,0,0,1-5.141,3A2.994,2.994,0,0,1,4.766,61q-.125,0-.33-.384A4.276,4.276,0,0,0,3.508,59.451ZM1.5,52.784a15.705,15.705,0,0,0,5.81-3.8,3.941,3.941,0,0,0,.678-.946,13.753,13.753,0,0,1,1.767.4q.259.045.259.232,0,.152-.223.277a1.817,1.817,0,0,0-.509.455l-.277.312h3.133a1.748,1.748,0,0,0,.652-.089,1.221,1.221,0,0,1,.33-.071,1.328,1.328,0,0,1,.714.4q.625.509.625.732a.362.362,0,0,1-.223.312,2.554,2.554,0,0,0-.58.562,18.309,18.309,0,0,1-4.445,3.856,24.651,24.651,0,0,1-6.346,2.651,2.161,2.161,0,0,1-.384.071q-.17,0-.4-.437a4.439,4.439,0,0,0-.821-1.1A25.139,25.139,0,0,0,7.1,54.6a10.03,10.03,0,0,0-1.312-1.026q-.143-.116-.143-.161,0-.071.143-.187l.91-.714a.35.35,0,0,1,.2-.089.475.475,0,0,1,.223.089A17.037,17.037,0,0,1,8.7,53.658a13.777,13.777,0,0,0,2.776-2.41H7.506A15.239,15.239,0,0,1,3.231,54a1.188,1.188,0,0,1-.4.143q-.116,0-.348-.33A5.037,5.037,0,0,0,1.5,52.784Zm27.364-4.132a14.171,14.171,0,0,1,2.017,1.392.355.355,0,0,1,.143.286.362.362,0,0,1-.259.348,3.993,3.993,0,0,0-.875.643q-3.008,2.7-4.989,4.748a.92.92,0,0,0-.241.4q0,.143.241.33a50.16,50.16,0,0,1,6.8,5.757.48.48,0,0,1,.125.241.342.342,0,0,1-.125.214q-.732.794-1.267,1.267a.5.5,0,0,1-.25.143q-.08,0-.223-.161a47.524,47.524,0,0,0-6.649-6.176,2.023,2.023,0,0,1-.973-1.544,1.532,1.532,0,0,1,.268-.848,5.954,5.954,0,0,1,.625-.759q.705-.75,2.472-2.606,1.366-1.419,2.178-2.3A5.625,5.625,0,0,0,28.864,48.651Zm18,3.641a22.113,22.113,0,0,1-2.285,7.872,3.554,3.554,0,0,1-3.115,2.106,2.784,2.784,0,0,1-2.338-1.392,5.769,5.769,0,0,1-.893-3.3A6.554,6.554,0,0,1,40.3,52.819a8.053,8.053,0,0,1,5.944-2.338A7,7,0,0,1,51.6,52.516a6.044,6.044,0,0,1,1.607,4.3q0,4.962-5.632,6.658a1.038,1.038,0,0,1-.268.045q-.268,0-.518-.375a3.821,3.821,0,0,0-1.276-1.151,8.985,8.985,0,0,0,4.106-1.883,4.685,4.685,0,0,0,1.41-3.579,4.169,4.169,0,0,0-1.276-3.088,3.844,3.844,0,0,0-2.811-1.151Zm-2.124.107a5.618,5.618,0,0,0-3.124,1.66,5.038,5.038,0,0,0-1.428,3.383,3.945,3.945,0,0,0,.455,2.026q.357.589.785.589.75,0,1.374-1.116A15.676,15.676,0,0,0,44.027,55.8,22.976,22.976,0,0,0,44.741,52.4Zm15.271,4.168-2.49.036q-.161,0-.187-.036a.307.307,0,0,1-.027-.161V54.988q0-.143.036-.17a.36.36,0,0,1,.179-.027l2.49.036h2.794V52.552H58.513l-2.321.036q-.152,0-.179-.036a.333.333,0,0,1-.027-.17V51a.325.325,0,0,1,.036-.2.333.333,0,0,1,.17-.027l2.321.036h4.293V50.57a15.861,15.861,0,0,0-.143-2.356q1.392.036,2.026.107.277.036.277.205a1.182,1.182,0,0,1-.089.384,4.6,4.6,0,0,0-.116,1.241v.66h4.695l2.321-.036q.152,0,.179.045A.36.36,0,0,1,71.98,51v1.383q0,.152-.036.179a.333.333,0,0,1-.17.027l-2.321-.036H64.76v2.276h3.035l2.508-.036q.143,0,.17.036a.307.307,0,0,1,.027.161v1.419q0,.143-.036.17a.307.307,0,0,1-.161.027l-2.508-.036ZM66.733,60.7a5.346,5.346,0,0,0,1.392.544q.419.116.419.321a2.76,2.76,0,0,1-.036.321A2.927,2.927,0,0,1,67.482,64.1a3.712,3.712,0,0,1-1.419.393,20.811,20.811,0,0,1-2.124.08,6.929,6.929,0,0,1-3.017-.4q-.66-.357-.66-1.553V59.361a11.446,11.446,0,0,0-.089-1.517q.991.036,1.865.152.33.054.33.214a.959.959,0,0,1-.089.295,2.165,2.165,0,0,0-.134.875v2.579q0,.553.295.714a5.821,5.821,0,0,0,1.66.143,4.955,4.955,0,0,0,2.142-.295Q66.706,62.2,66.733,60.7Zm3.177-2.365a17.828,17.828,0,0,1,2.2,3.8.441.441,0,0,1,.027.134q0,.116-.17.214l-1.232.7a.521.521,0,0,1-.232.107q-.071,0-.134-.143A15.957,15.957,0,0,0,68.3,59.219a.305.305,0,0,1-.071-.143q0-.062.2-.17l1.116-.625a.51.51,0,0,1,.205-.08Q69.821,58.2,69.91,58.335Zm-12.442.223q.027-.143.089-.143a.994.994,0,0,1,.214.071l1.214.437q.232.089.232.205a.488.488,0,0,1-.018.107,12.3,12.3,0,0,1-1.714,4.257q-.08.125-.152.125a.335.335,0,0,1-.214-.089l-1.133-.785q-.205-.125-.205-.223a.411.411,0,0,1,.054-.161A9.344,9.344,0,0,0,57.468,58.558Zm6.926-1.428a12.62,12.62,0,0,1,1.99,2.106.3.3,0,0,1,.071.143q0,.071-.161.205l-1.044.785a1.046,1.046,0,0,1-.223.125q-.054,0-.143-.143a10.055,10.055,0,0,0-1.865-2.231q-.107-.107-.107-.143,0-.071.143-.187l.955-.643a.552.552,0,0,1,.214-.107A.41.41,0,0,1,64.394,57.13Zm25.624-8.149q-.036.3-.107,1.517a39.584,39.584,0,0,1-.482,4.668q-.321,1.74-1.383,1.981a7.138,7.138,0,0,1-1.374.107,1.365,1.365,0,0,1-.571-.071q-.107-.054-.143-.277a3.946,3.946,0,0,0-.384-1.258,9.094,9.094,0,0,0,1.089.071q.241,0,.464-.018.4-.054.589-1.044H84.11a6.228,6.228,0,0,1-1.812,2.57.949.949,0,0,1-.437.259q-.134,0-.455-.295a3.006,3.006,0,0,0-1.116-.687,4.98,4.98,0,0,0,.785-.536.515.515,0,0,1-.2.045,22.528,22.528,0,0,1-2.347.107,7.292,7.292,0,0,1-2.356-.241q-.75-.3-.75-1.571V51.686q-.428.009-.821.027l-.277.009q-.143,0-.17-.036a.307.307,0,0,1-.027-.161V50.24q0-.143.036-.17a.4.4,0,0,1,.161-.018l2.142.018h.955v-.527a7.171,7.171,0,0,0-.116-1.294q1.16.036,1.847.107.259.027.259.179a1.386,1.386,0,0,1-.107.312,1.616,1.616,0,0,0-.1.678v.544h.553l2.133-.018a.329.329,0,0,1,.178.027.279.279,0,0,1,.027.161v1.285q0,.143-.036.17a.333.333,0,0,1-.17.027l-2.133-.036H77.219v1.9q0,.634.277.75a3.3,3.3,0,0,0,1.116.125,19.172,19.172,0,0,0,2.3-.134q.089-.009.143-.009a.132.132,0,0,1,.143.107,1.441,1.441,0,0,1,.027.357V55.5a.882.882,0,0,1-.062.4A4.748,4.748,0,0,0,82.6,53.7a12.788,12.788,0,0,0,.491-2.981q.045-.678.045-1.169,0-.25-.009-.553,0-.223.179-.223l1.482.036H87.84l1.955-.036Q90.018,48.776,90.018,48.982Zm-2,3.49h-3.4q-.071.616-.125.893h3.418Q88.019,52.605,88.019,52.471Zm.17-2.2h-3.4l-.036.9h3.383ZM76.532,64.5l-2.267.036q-.178,0-.178-.2V63.128q0-.2.178-.2l2.267.036h4.686V61.8H78.862l-2.526.036q-.143,0-.178-.045a.36.36,0,0,1-.027-.179v-1.1q0-.143.045-.17a.279.279,0,0,1,.161-.027l2.526.036h2.356V59.2H77.782l-2.472.036q-.143,0-.17-.036a.307.307,0,0,1-.027-.161V57.9q0-.143.036-.17a.307.307,0,0,1,.161-.027l2.472.036h8.988l2.454-.036a.3.3,0,0,1,.187.036.307.307,0,0,1,.027.161V59.04a.268.268,0,0,1-.031.165.313.313,0,0,1-.183.031L86.769,59.2H83.083v1.151h2.588l2.526-.036q.161,0,.187.036a.243.243,0,0,1,.036.161v1.1q0,.161-.036.192a.339.339,0,0,1-.187.031L85.671,61.8H83.083v1.169h4.891l2.285-.036q.187,0,.187.2v1.214q0,.2-.187.2L87.974,64.5Zm15.521-5.944a37.732,37.732,0,0,0,7.354-3.186H94.864l-2.267.036q-.143,0-.17-.036a.307.307,0,0,1-.027-.161V53.89q0-.178.2-.178l2.267.036h3.882V52H97.078l-2.321.036A.282.282,0,0,1,94.579,52a.307.307,0,0,1-.027-.161v-1.3q0-.143.036-.17a.333.333,0,0,1,.17-.027l2.321.036h1.669v-.259a9.547,9.547,0,0,0-.143-1.883q1.142.036,1.972.134.295.027.295.179a.984.984,0,0,1-.089.366,3.6,3.6,0,0,0-.134,1.258v.205h.544l2.3-.036q.161,0,.187.036a.243.243,0,0,1,.036.161v1.392a18.5,18.5,0,0,0,1.312-1.482,5.882,5.882,0,0,0,.821-1.357,10.67,10.67,0,0,1,1.571.919.4.4,0,0,1,.223.33q0,.152-.205.25a2.416,2.416,0,0,0-.75.678,26.99,26.99,0,0,1-2.5,2.481h2.062l2.285-.036a.158.158,0,0,1,.179.178v1.321q0,.2-.179.2l-2.285-.036h-3.927q-1.107.776-2.222,1.446h3.552l2.454-.036q.152,0,.187.045a.36.36,0,0,1,.027.179l-.036,2.463V61.3l.036,3.338q0,.134-.045.161a.333.333,0,0,1-.17.027h-1.517q-.205,0-.205-.187v-.58H98.274v.66q0,.143-.045.17a.279.279,0,0,1-.161.027H96.551q-.152,0-.179-.036a.307.307,0,0,1-.027-.161l.036-3.436V58.772q-1.812.821-2.722,1.178a2.81,2.81,0,0,1-.4.125q-.152,0-.4-.455A3.991,3.991,0,0,0,92.053,58.558Zm6.221,3.981h6.114V61.155H98.274Zm6.114-4.2H98.274v1.339h6.114Zm-.893-6.3-2.3-.036h-.544v1.749h1.026a16.646,16.646,0,0,0,1.928-1.714Zm19.349-1.714.973-.678a.168.168,0,0,1,.107-.045.256.256,0,0,1,.161.08,7.845,7.845,0,0,1,1.74,1.955.228.228,0,0,1,.054.134.216.216,0,0,1-.107.161l-.768.562a.245.245,0,0,1-.143.062.218.218,0,0,1-.17-.116A9.055,9.055,0,0,0,122.844,50.32Zm1.687-1.214.91-.66a.239.239,0,0,1,.116-.045.286.286,0,0,1,.161.08,7.267,7.267,0,0,1,1.731,1.892.267.267,0,0,1,.054.143.225.225,0,0,1-.107.179l-.732.571a.245.245,0,0,1-.143.062.218.218,0,0,1-.17-.116A8.9,8.9,0,0,0,124.531,49.107Zm-9,4.168q.277-.991.544-2.3a12.1,12.1,0,0,0,.187-2.026,16.39,16.39,0,0,1,2.187.6.361.361,0,0,1,.295.366.384.384,0,0,1-.125.277,2.4,2.4,0,0,0-.366.7q-.134.411-.348,1.16-.205.687-.312,1.035A12.333,12.333,0,0,1,119.06,53q2.615,0,2.615,3.525a18.921,18.921,0,0,1-.295,3.311,9.529,9.529,0,0,1-.7,2.419,2.575,2.575,0,0,1-2.463,1.714,4.862,4.862,0,0,1-1.9-.277.5.5,0,0,1-.33-.509,5.979,5.979,0,0,0-.348-1.7,4.943,4.943,0,0,0,2.106.473,1.073,1.073,0,0,0,.741-.232,2.1,2.1,0,0,0,.428-.741,12.917,12.917,0,0,0,.714-4.552,2.552,2.552,0,0,0-.25-1.366.926.926,0,0,0-.794-.312,11.919,11.919,0,0,0-1.535.125,53.7,53.7,0,0,1-3.677,8.595q-.1.223-.268.223a.445.445,0,0,1-.205-.062,5.2,5.2,0,0,1-1.267-.8.4.4,0,0,1-.143-.268.344.344,0,0,1,.071-.205,41.7,41.7,0,0,0,3.347-7.167q-.625.1-1.785.312a6.37,6.37,0,0,0-1.009.295.673.673,0,0,1-.223.045.377.377,0,0,1-.366-.286,17.6,17.6,0,0,1-.562-1.883q1.009,0,2.41-.125Q114.365,53.453,115.535,53.275Zm6.31-.143q1.026-.7,1.473-.937a.288.288,0,0,1,.125-.036.344.344,0,0,1,.223.125,11.917,11.917,0,0,1,3.035,4.445.412.412,0,0,1,.045.161.274.274,0,0,1-.116.205,5.854,5.854,0,0,1-1.374.91.392.392,0,0,1-.187.054.229.229,0,0,1-.232-.2A12.4,12.4,0,0,0,121.845,53.132Zm14.307,2.437-2.544.036q-.143,0-.17-.036a.307.307,0,0,1-.027-.161V53.953q0-.178.2-.179l2.544.036h2.142V51.418q-1.374.214-3.168.4-.214.018-.321.018a.336.336,0,0,1-.286-.107,1.75,1.75,0,0,1-.143-.375,4.2,4.2,0,0,0-.509-1.2,44.118,44.118,0,0,0,4.73-.544,25.7,25.7,0,0,0,3.329-.75,5.6,5.6,0,0,0,1.187-.518,10.92,10.92,0,0,1,1.214,1.178.57.57,0,0,1,.161.366q0,.205-.259.232a4.176,4.176,0,0,0-.982.205,25.582,25.582,0,0,1-2.981.75v2.74h2.392l2.526-.036a.158.158,0,0,1,.179.179v1.455q0,.2-.179.2l-2.526-.036h-2.392v2.356h1.312l2.383-.036q.143,0,.17.036a.308.308,0,0,1,.027.161l-.036,1.83v1.642l.036,3.106q0,.179-.2.179h-1.553q-.205,0-.205-.179v-.625h-5.7v.714q0,.178-.2.178h-1.5a.325.325,0,0,1-.2-.036.233.233,0,0,1-.027-.143l.036-3.142V60.174l-.036-2.088q0-.143.045-.17a.36.36,0,0,1,.178-.027l2.374.036h1.116V55.568Zm.348,4V62.4h5.7V59.567ZM128.949,63.6a9.182,9.182,0,0,0,.973-1.446,43.506,43.506,0,0,0,1.83-4.2,7.019,7.019,0,0,0,.982.937q.4.3.4.455a1.913,1.913,0,0,1-.125.437q-.839,2.151-1.776,4.025a3.214,3.214,0,0,0-.312.687q-.054.241-.232.241a.794.794,0,0,1-.33-.125A11.048,11.048,0,0,1,128.949,63.6Zm1.865-15.11a13.722,13.722,0,0,1,2.544,1.883.216.216,0,0,1,.107.161.606.606,0,0,1-.107.223l-.821,1.151q-.1.143-.17.143a.364.364,0,0,1-.161-.089,14.426,14.426,0,0,0-2.579-2.071q-.125-.071-.125-.125a.5.5,0,0,1,.125-.223l.839-.982q.125-.134.2-.134A.323.323,0,0,1,130.814,48.491Zm-.714,4.623a13.588,13.588,0,0,1,2.6,1.865q.107.107.107.143a.606.606,0,0,1-.107.223l-.821,1.169q-.08.125-.143.125t-.17-.107a14.071,14.071,0,0,0-2.579-2q-.125-.071-.125-.125a.393.393,0,0,1,.107-.214l.768-.991q.125-.152.205-.152A.371.371,0,0,1,130.1,53.114Zm28.337,9.728q1,.071,1.7.071a.525.525,0,0,0,.589-.6V59.281h-4.3v2.178l.036,2.7q0,.143-.036.17a.308.308,0,0,1-.161.027h-1.58q-.143,0-.17-.036a.307.307,0,0,1-.027-.161l.036-2.7V59.281h-4.168a12.224,12.224,0,0,1-1.589,5.061q-.205.366-.33.366-.089,0-.384-.295a4.94,4.94,0,0,0-1.294-.928,8.2,8.2,0,0,0,1.5-3.409,24.839,24.839,0,0,0,.384-4.882v-3L148.6,49.2q0-.161.045-.2a.36.36,0,0,1,.178-.027l2.5.036h8.595l2.517-.036q.152,0,.178.045a.36.36,0,0,1,.027.178l-.036,2.99v8.1l.036,2.517a1.808,1.808,0,0,1-.607,1.482,3.994,3.994,0,0,1-2.41.473,1,1,0,0,1-.518-.071,1.131,1.131,0,0,1-.161-.455A5.251,5.251,0,0,0,158.437,62.842Zm-2.017-5.257h4.3V55.006h-4.3Zm4.3-6.81h-4.3V53.31h4.3Zm-10.237,6.81h4.034V55.006h-3.981v.205Q150.539,56.514,150.485,57.585Zm.054-4.275h3.981V50.775h-3.981ZM172.4,48.178q1.223.027,2.026.125.312.036.312.223a.848.848,0,0,1-.089.366,4.476,4.476,0,0,0-.152,1.473v1.374h3.543l2.481-.036q.152,0,.178.036a.333.333,0,0,1,.027.17l-.036,2.267v2.115l.036,3.57a.292.292,0,0,1-.031.17q-.031.036-.165.036h-1.553q-.152,0-.178-.045a.279.279,0,0,1-.027-.161v-.768H174.5v2.249l.036,3.383q0,.143-.036.17a.308.308,0,0,1-.161.027h-1.633q-.143,0-.17-.036a.307.307,0,0,1-.027-.161l.036-3.347V59.094H168.5v.839a.326.326,0,0,1-.036.2.333.333,0,0,1-.17.027h-1.553q-.143,0-.17-.045a.36.36,0,0,1-.027-.179l.036-3.579V54.47l-.036-2.561q0-.152.036-.179a.333.333,0,0,1,.17-.027l2.481.036h3.311V50.517A15.167,15.167,0,0,0,172.4,48.178Zm6.372,5.337H174.5v3.8h4.275Zm-10.273,0v3.8h4.043v-3.8Zm21.165-4.5-.491,10.88h-1.847l-.509-10.88Zm-2.74,12.656h2.6v2.463h-2.6Z" transform="translate(1614.303 7595.049)" fill="#06c755"/>
    <path id="パス_2688" data-name="パス 2688" d="M10.956-7.827a15.848,15.848,0,0,1-.364,2.849,8.661,8.661,0,0,1-.766,2.027A8.9,8.9,0,0,1,8.2-.729,8.822,8.822,0,0,1,6.464.663,1.193,1.193,0,0,1,5.894.9a.562.562,0,0,1-.4-.187A4.649,4.649,0,0,0,3.783-.308,12.186,12.186,0,0,0,6.211-1.952,6.94,6.94,0,0,0,7.594-3.718a6.751,6.751,0,0,0,.747-1.971,13.847,13.847,0,0,0,.224-2.139H4.932q-.915,0-2.868.112-.215.028-.252-.364A10.684,10.684,0,0,1,1.663-9.91q1.074.093,3.251.093h8.593q2.046,0,3.727-.112.205,0,.205.383.019.2.019.738t-.019.729q0,.327-.28.327-2.027-.075-3.633-.075ZM4-14.347q1.672.093,3.176.093h4.287q1.962,0,3.222-.075.234,0,.234.364.028.355.028.691,0,.355-.028.7,0,.364-.252.364-1.56-.056-3.2-.056H7.174q-.542,0-2.718.075-.3,0-.327-.327-.028-.262-.065-.9Q4.016-14.067,4-14.347Zm24.743,2.12,3.437-.075a1.865,1.865,0,0,0,.962-.234.377.377,0,0,1,.243-.075.568.568,0,0,1,.308.112,8.685,8.685,0,0,1,1.3,1.037.616.616,0,0,1,.252.439.542.542,0,0,1-.234.4,2.383,2.383,0,0,0-.626.822A26.808,26.808,0,0,1,30.59-3.886a24.592,24.592,0,0,1-3.017,2.849A20.247,20.247,0,0,1,24.78.878a.574.574,0,0,1-.308.093.688.688,0,0,1-.439-.205,5.12,5.12,0,0,0-1.821-.878,29.015,29.015,0,0,0,3.8-2.447A23.89,23.89,0,0,0,28.582-5a19.715,19.715,0,0,0,2.018-2.6,25.238,25.238,0,0,0,1.523-2.83l-4.633.131A28.617,28.617,0,0,1,23.874-6.37a.576.576,0,0,1-.4.215.449.449,0,0,1-.28-.112,4.844,4.844,0,0,0-1.84-.831A23.9,23.9,0,0,0,26.5-12.778a9.6,9.6,0,0,0,1.13-2.587,9.833,9.833,0,0,1,2.232,1.018.4.4,0,0,1,.2.327.38.38,0,0,1-.215.327,2.925,2.925,0,0,0-.476.514Q29.161-12.853,28.741-12.227ZM50.56-14.59a15.387,15.387,0,0,1,2.485,1.158.41.41,0,0,1,.234.327.636.636,0,0,1-.131.327,4.681,4.681,0,0,0-.822,1.3,27.841,27.841,0,0,1-3.54,6.062,22.933,22.933,0,0,1-5.623,5.38.715.715,0,0,1-.4.149.615.615,0,0,1-.4-.168,6.885,6.885,0,0,0-1.821-.981,22.907,22.907,0,0,0,6.183-5.548,24,24,0,0,0,3.148-5.5A10.828,10.828,0,0,0,50.56-14.59ZM69.064-7a46.63,46.63,0,0,1,5.3,4.624.413.413,0,0,1,.149.271.469.469,0,0,1-.131.28A10.2,10.2,0,0,1,73.1-.514a.354.354,0,0,1-.234.112.442.442,0,0,1-.271-.149A34.723,34.723,0,0,0,67.626-5.3,27.689,27.689,0,0,1,61.2-.243a1.624,1.624,0,0,1-.439.149.416.416,0,0,1-.327-.168,5.3,5.3,0,0,0-1.607-1.252,26.585,26.585,0,0,0,3.96-2.41,24.644,24.644,0,0,0,2.774-2.466,24.659,24.659,0,0,0,3.6-4.8l-4.932.019q-1.476,0-3.026.121-.187.019-.252-.327a9.177,9.177,0,0,1-.168-1.99q1.027.075,3.232.075h5.259a3.146,3.146,0,0,0,1.317-.177.36.36,0,0,1,.215-.075.785.785,0,0,1,.327.149,6.787,6.787,0,0,1,1.242,1.345.547.547,0,0,1,.093.243.505.505,0,0,1-.252.383,3.675,3.675,0,0,0-.7.85A33.15,33.15,0,0,1,69.064-7ZM84.41-11.134q.121-1.373.14-2.578a7.808,7.808,0,0,0-.14-1.513,14.506,14.506,0,0,1,2.485.4.4.4,0,0,1,.327.4.853.853,0,0,1-.093.364,2.164,2.164,0,0,0-.252.9q-.009.187-.075.943-.037.551-.093,1.065h2.9l2.662-.037q.4,0,.4.262,0,.009-.075,2.036a28.451,28.451,0,0,1-.71,6.286A4.111,4.111,0,0,1,91-.794a2.747,2.747,0,0,1-1.373.775,7.779,7.779,0,0,1-1.924.205A.456.456,0,0,1,87.25-.2a4.329,4.329,0,0,0-1.112-1.737q.5.019.85.019A6.2,6.2,0,0,0,88.735-2.1a1.191,1.191,0,0,0,.635-.458,2.836,2.836,0,0,0,.364-.887,28.639,28.639,0,0,0,.57-5.735H86.437a14.44,14.44,0,0,1-1.7,5.3A11.947,11.947,0,0,1,80.684.056a.858.858,0,0,1-.439.149A.488.488,0,0,1,79.88.019a4.637,4.637,0,0,0-1.607-1.112A11.2,11.2,0,0,0,82.767-5a11.363,11.363,0,0,0,1.382-4.129H82.421q-1.261,0-2.746.1h-.047q-.215,0-.243-.327a18.582,18.582,0,0,1-.159-1.859q1.2.075,3.176.075Zm17.719,7.79a33.92,33.92,0,0,0,4.876-2.41,26.124,26.124,0,0,0,5.072-3.9,8.244,8.244,0,0,0,.308,2.214,1.047,1.047,0,0,1,.056.308.588.588,0,0,1-.252.458,30.493,30.493,0,0,1-4.782,3.288,43.486,43.486,0,0,1-4.68,2.372,4.336,4.336,0,0,0-1.074.616.571.571,0,0,1-.346.149.558.558,0,0,1-.327-.149,6.147,6.147,0,0,1-1.168-1.3.508.508,0,0,1-.112-.308.753.753,0,0,1,.093-.327,4.359,4.359,0,0,0,.075-1.093l.047-7.192a19.165,19.165,0,0,0-.215-3.325,17.971,17.971,0,0,1,2.485.42.368.368,0,0,1,.308.364,1.589,1.589,0,0,1-.093.4,8.39,8.39,0,0,0-.215,2.372Zm16.15-5.67q.56-.308,1.513-.757A.465.465,0,0,1,120-9.826a.381.381,0,0,1,.29.187,10.09,10.09,0,0,1,1.644,2.83q.075.271.075.29,0,.121-.224.271a8.589,8.589,0,0,1-1.233.588.459.459,0,0,1-.168.037q-.2,0-.308-.3A11.159,11.159,0,0,0,118.279-9.014Zm3.848-.971q1.224-.579,1.532-.7a.452.452,0,0,1,.2-.056.382.382,0,0,1,.3.205,9.587,9.587,0,0,1,1.476,2.793.754.754,0,0,1,.047.224q0,.159-.243.29a7.972,7.972,0,0,1-1.317.588.366.366,0,0,1-.121.028q-.149,0-.262-.308A13.812,13.812,0,0,0,122.128-9.985Zm6.025-.458a8.45,8.45,0,0,1,2.139.915q.252.187.252.327a.507.507,0,0,1-.205.346,3.029,3.029,0,0,0-.579.971,23.16,23.16,0,0,1-2.886,5.091,16.655,16.655,0,0,1-3.942,3.7.858.858,0,0,1-.458.205.422.422,0,0,1-.308-.131,4.616,4.616,0,0,0-1.625-.8,27.112,27.112,0,0,0,2.868-2.12A13.276,13.276,0,0,0,125.126-3.8a17.7,17.7,0,0,0,2.587-4.614A8.551,8.551,0,0,0,128.152-10.443Zm7.65,2.13q.075-.121.635-1.046.252-.411.383-.588a.379.379,0,0,1,.29-.2.207.207,0,0,1,.065.009,13.7,13.7,0,0,1,3.68,1.877q.206.149.206.28a.658.658,0,0,1-.075.215,8.341,8.341,0,0,1-.841,1.457q-.159.187-.252.187a.411.411,0,0,1-.224-.112A16.925,16.925,0,0,0,135.8-8.313Zm2.316-4.493,1.009-1.532q.131-.215.271-.215a.511.511,0,0,1,.215.065,12.7,12.7,0,0,1,3.6,2.12.294.294,0,0,1,.149.243.508.508,0,0,1-.075.252,7.841,7.841,0,0,1-.981,1.438.205.205,0,0,1-.187.112.506.506,0,0,1-.29-.131A16.373,16.373,0,0,0,138.119-12.806Zm-.8,10.9a9.794,9.794,0,0,0,2.6-.943,34.163,34.163,0,0,0,5.24-3.307,33.4,33.4,0,0,0,5.511-5.333,11.783,11.783,0,0,0,.56,2.139,1,1,0,0,1,.093.364.638.638,0,0,1-.205.439,40.656,40.656,0,0,1-4.866,4.418,45.815,45.815,0,0,1-5.716,3.6,8.946,8.946,0,0,0-1.112.654.438.438,0,0,1-.308.149.492.492,0,0,1-.383-.234A11.617,11.617,0,0,1,137.315-1.905Zm9.565-12.32,1.009-.71a.206.206,0,0,1,.112-.047.3.3,0,0,1,.177.084,8.286,8.286,0,0,1,1.812,2.046.272.272,0,0,1,.056.14.208.208,0,0,1-.112.168l-.8.6a.28.28,0,0,1-.149.056q-.084,0-.168-.121A10.049,10.049,0,0,0,146.88-14.226Zm1.756-1.261.962-.691a.213.213,0,0,1,.121-.047.264.264,0,0,1,.159.084A7.4,7.4,0,0,1,151.7-14.17a.289.289,0,0,1,.056.159.236.236,0,0,1-.112.187l-.766.588a.256.256,0,0,1-.149.065.212.212,0,0,1-.177-.121A9.051,9.051,0,0,0,148.636-15.487Zm17.2,9.369A44.175,44.175,0,0,1,169.9,0a.373.373,0,0,1,.056.149q0,.084-.224.215l-1.438.822a.549.549,0,0,1-.234.093q-.093,0-.168-.149-.28-.579-.9-1.747Q162.451.065,156.93.532a1.638,1.638,0,0,0-.719.215.6.6,0,0,1-.327.131q-.2,0-.29-.308a14.193,14.193,0,0,1-.458-2.027q.327.009.579.009.663,0,1.6-.047l.542-.019a53.4,53.4,0,0,0,2.466-6.193,13.026,13.026,0,0,0,.514-2.008q1.663.383,2.046.5.364.131.364.327a.571.571,0,0,1-.149.346,3.039,3.039,0,0,0-.5.915q-1.28,3.428-2.447,5.95,3.064-.243,5.894-.56-1.027-1.607-1.952-2.83a.25.25,0,0,1-.065-.131q0-.075.224-.215l1.2-.719a.853.853,0,0,1,.224-.1Q165.711-6.239,165.832-6.118Zm5.847-2.148a4.788,4.788,0,0,0-1.065,1.438q-.224.42-.364.42a1.022,1.022,0,0,1-.4-.252,19.736,19.736,0,0,1-6.239-7.9.424.424,0,0,1-.037-.14q0-.084.234-.2l1.28-.542a.635.635,0,0,1,.215-.065q.084,0,.168.168a15.128,15.128,0,0,0,2.821,4.325A14.471,14.471,0,0,0,171.679-8.266Zm-18.093.308a13.965,13.965,0,0,0,5.53-6.277,6.067,6.067,0,0,0,.4-1.242,12.163,12.163,0,0,1,1.887.673q.29.131.29.327a.345.345,0,0,1-.168.28,1.574,1.574,0,0,0-.439.6,19.549,19.549,0,0,1-5.623,7.033,1.115,1.115,0,0,1-.439.271q-.112,0-.364-.42A3.936,3.936,0,0,0,153.587-7.958Zm22.595-2.522-2.457.037q-.131,0-.159-.033a.4.4,0,0,1-.028-.2v-1.5a.4.4,0,0,1,.028-.205.267.267,0,0,1,.159-.028l2.457.037h6.865l-.019-.785a20.991,20.991,0,0,0-.159-2.737q1.457.037,2.083.112.308.037.308.234a2.935,2.935,0,0,1-.112.4,4.367,4.367,0,0,0-.1,1.2q0,.234.009.738v.841h2.354l2.447-.037q.149,0,.177.047a.377.377,0,0,1,.028.187v1.5a.34.34,0,0,1-.037.205.292.292,0,0,1-.168.028l-2.447-.037H185.13a24.558,24.558,0,0,0,1.093,6.548q.915,2.83,1.719,2.83.682,0,.859-2.8a5.327,5.327,0,0,0,1.242.869,1.914,1.914,0,0,1,.42.271.354.354,0,0,1,.093.262,3.623,3.623,0,0,1-.037.364q-.542,3.493-2.307,3.465-2.344-.028-3.755-4.213a29.875,29.875,0,0,1-1.317-7.594Zm3.839,4.241h-.747v3.755q2.176-.532,3.727-1.074a11.44,11.44,0,0,0-.056,1.2,1.214,1.214,0,0,1-.084.6,1.318,1.318,0,0,1-.486.205A65.124,65.124,0,0,1,175.527.308a2.6,2.6,0,0,0-.8.29.9.9,0,0,1-.346.131q-.187,0-.271-.252-.177-.532-.5-1.933a11.182,11.182,0,0,0,1.831-.224l1.84-.346V-6.239h-.654l-2.27.047q-.215,0-.215-.2V-7.818a.34.34,0,0,1,.037-.205.349.349,0,0,1,.177-.028l2.27.037h3.391l2.26-.037q.159,0,.2.047a.377.377,0,0,1,.028.187v1.429q0,.14-.037.168a.412.412,0,0,1-.187.028Zm7.388-9.331a8.818,8.818,0,0,1,1.644,1.756.3.3,0,0,1,.065.159q0,.093-.2.224l-.906.616a.545.545,0,0,1-.243.112q-.084,0-.177-.149a8.274,8.274,0,0,0-1.494-1.821.256.256,0,0,1-.093-.149q0-.075.177-.2l.8-.551a.578.578,0,0,1,.224-.112A.307.307,0,0,1,187.409-15.571Z" transform="translate(1699.168 7480.945)" fill="#fff"/>
    <path id="パス_2689" data-name="パス 2689" d="M7.93-15.786a10.711,10.711,0,0,1,2.176.542.321.321,0,0,1,.234.327.337.337,0,0,1-.131.28,1.421,1.421,0,0,0-.327.458q-.037.093-.121.28-.168.4-.327.757a30.928,30.928,0,0,0,3.484-.6.81.81,0,0,1,.112-.009q.149,0,.2.205a6.637,6.637,0,0,1,.2,1.373v.056q0,.205-.327.252-2.232.327-4.483.579a24.786,24.786,0,0,1-1.429,2.12l.019.037a3.458,3.458,0,0,1,1.915-.588A2.107,2.107,0,0,1,11.442-7.65q1.962-.906,2.821-1.345a5.662,5.662,0,0,0,1.448-1.027,10.523,10.523,0,0,1,1.345,1.681.8.8,0,0,1,.149.42q0,.215-.29.271a6.271,6.271,0,0,0-1.168.29q-2.812.99-4.11,1.523v3.082q0,.29-.364.346a9.193,9.193,0,0,1-1.354.093q-.252,0-.252-.308,0-1.644.019-2.326A5.879,5.879,0,0,0,7.827-3.615a1.844,1.844,0,0,0-.448,1.2q0,1.317,2.653,1.317A34.1,34.1,0,0,0,14.8-1.476h.056q.187,0,.205.215A7.177,7.177,0,0,1,15.234.308V.374q0,.29-.215.29a37.6,37.6,0,0,1-4.736.252q-4.8,0-4.8-3.157A3.71,3.71,0,0,1,6.548-4.848,11.034,11.034,0,0,1,9.518-6.9a1.843,1.843,0,0,0-.29-1.055.919.919,0,0,0-.747-.271H8.369A4.7,4.7,0,0,0,5.726-6.847q-.887.869-1.915,2.083-.14.168-.234.168-.075,0-.205-.131A8.226,8.226,0,0,1,2.279-5.987.321.321,0,0,1,2.2-6.165a.278.278,0,0,1,.131-.205,19.722,19.722,0,0,0,4.007-4.745q-1.336.056-3.064.056-.215,0-.271-.308-.065-.364-.187-1.579.915.037,1.924.037,1.214,0,2.475-.065a15.706,15.706,0,0,0,.57-1.644A4.872,4.872,0,0,0,7.93-15.786Zm18.1,7.958h5.315l2.522-.037q.159,0,.187.047a.377.377,0,0,1,.028.187l-.037,1.373v1.476l.037,1.373a.355.355,0,0,1-.033.2q-.033.037-.182.037l-2.522-.037h-.28q1,.28,1.672.542.252.075.252.243a.32.32,0,0,1-.187.271,1.112,1.112,0,0,0-.364.439l-.57,1h2.6L36.9-.757q.215,0,.215.187V.85q0,.149-.047.177a.292.292,0,0,1-.168.028l-2.429-.037H22.95l-2.429.037q-.149,0-.177-.037A.322.322,0,0,1,20.316.85V-.57q0-.187.205-.187l2.429.037H25.4a11.743,11.743,0,0,0-.8-1.532.338.338,0,0,1-.065-.159q0-.084.205-.149L25.995-3.1a.637.637,0,0,1,.205-.056.278.278,0,0,1,.215.149,13.17,13.17,0,0,1,.859,1.466.372.372,0,0,1,.056.159q0,.093-.243.205l-1.037.458h3.671a14.7,14.7,0,0,0,.8-1.438,3.934,3.934,0,0,0,.364-1.055H26.032l-2.522.037q-.159,0-.187-.047a.377.377,0,0,1-.028-.187l.037-1.373V-6.258L23.3-7.631a.341.341,0,0,1,.037-.205.349.349,0,0,1,.177-.028Zm-.747,1.551v1.513h6.809V-6.277ZM37.661-8.892a5.648,5.648,0,0,0-.691,1.2q-.205.5-.364.5a1.266,1.266,0,0,1-.439-.131,19.183,19.183,0,0,1-4.418-2.531v.906q0,.149-.037.177a.322.322,0,0,1-.168.028l-1.9-.037H27.676L25.8-8.743q-.149,0-.177-.037a.322.322,0,0,1-.028-.168v-.981a21.907,21.907,0,0,1-4.287,2.662,1.5,1.5,0,0,1-.439.149q-.149,0-.4-.5a3.917,3.917,0,0,0-.785-1.055A21.3,21.3,0,0,0,23.314-10.5,18.674,18.674,0,0,0,21.4-12.32q-.149-.121-.149-.2,0-.047.149-.168l.962-.766a.448.448,0,0,1,.215-.121.34.34,0,0,1,.168.084q1.261,1.065,2.064,1.9a12.905,12.905,0,0,0,2.12-2.223h-2.12l-2.008.037a.341.341,0,0,1-.205-.037.244.244,0,0,1-.028-.149V-15.29q0-.149.047-.177A.377.377,0,0,1,22.8-15.5l2.008.037h2.737l1.737-.037a.342.342,0,0,1,.327.234,5.931,5.931,0,0,0,.878,1.644,2.437,2.437,0,0,0,.271.355,9.2,9.2,0,0,0,1.149-1.224,5.436,5.436,0,0,0,.532-.8,15.352,15.352,0,0,1,1.466.887q.215.14.215.3,0,.187-.252.271a1.958,1.958,0,0,0-.644.532q-.719.757-1.317,1.27a12.425,12.425,0,0,0,1.065.859A17.888,17.888,0,0,0,34.541-12.7a6.112,6.112,0,0,0,.542-.822q.785.42,1.485.878.234.159.234.327t-.252.271a1.789,1.789,0,0,0-.663.514q-.719.719-1.4,1.3A20.746,20.746,0,0,0,37.661-8.892Zm-9.985-1.494h1.971q1.168,0,1.457-.019a11.6,11.6,0,0,1-2.372-2.97,16.174,16.174,0,0,1-2.587,2.97Q26.415-10.387,27.676-10.387ZM48.207-7.444a11.944,11.944,0,0,1,1.513,2.13.315.315,0,0,1,.075.159q0,.084-.187.224l-.841.644a1.073,1.073,0,0,1-.234.14q-.065,0-.149-.168A10.752,10.752,0,0,0,46.89-6.464q-.084-.084-.084-.131,0-.065.177-.2l.841-.673a.5.5,0,0,1,.2-.112Q48.076-7.575,48.207-7.444ZM44.368-2.924a17.382,17.382,0,0,0,.7-2.26,6.568,6.568,0,0,0,.084-.71,8.28,8.28,0,0,1,1.392.458q.215.084.215.2a.275.275,0,0,1-.112.215.731.731,0,0,0-.252.4,17.073,17.073,0,0,1-.616,1.663q-.168.42-.3.42a1.373,1.373,0,0,1-.411-.149A2.846,2.846,0,0,0,44.368-2.924Zm3.923,2.5q.766.075,1.336.075A.962.962,0,0,0,50.261-.5a.607.607,0,0,0,.131-.439V-2.429a25.478,25.478,0,0,1-2.681,1.84,1.645,1.645,0,0,0-.5.4.286.286,0,0,1-.234.168.311.311,0,0,1-.243-.149,13.308,13.308,0,0,1-.747-1.308,1.869,1.869,0,0,0-.019.308,1.121,1.121,0,0,1-.1.57,1.354,1.354,0,0,1-.476.2Q43.312.234,41,.766a2.344,2.344,0,0,0-.673.252.628.628,0,0,1-.308.131.309.309,0,0,1-.3-.252q-.3-.887-.486-1.644.953-.084,1.691-.205.971-.177,1.336-.252v-5.24h-.532l-1.971.037a.341.341,0,0,1-.205-.037.349.349,0,0,1-.028-.177V-7.883q0-.149.047-.177a.377.377,0,0,1,.187-.028l1.971.037h.532V-9.546q-.588.009-1.046.028l-.308.009q-.159,0-.187-.037a.412.412,0,0,1-.028-.187v-.859l-.439.383a.751.751,0,0,1-.4.224q-.168,0-.308-.42a5.04,5.04,0,0,0-.588-1.28,10.85,10.85,0,0,0,3.1-3.288,4.763,4.763,0,0,0,.42-1,13.688,13.688,0,0,1,1.775.308q.29.056.29.234,0,.14-.205.3l-.121.093a13.378,13.378,0,0,0,2.7,2.354,4.4,4.4,0,0,0-.747.981q-.234.439-.336.439t-.411-.271a13.667,13.667,0,0,1-2.027-2.158,14.689,14.689,0,0,1-2.167,2.578q.252.019,1.27.019h1.532l1.588-.037q.168,0,.2.037a.274.274,0,0,1,.037.177v1.186q0,.159-.047.2a.377.377,0,0,1-.187.028l-1.551-.037v1.494h.112l1.971-.037h.121V-9.471q0-.149.037-.177a.322.322,0,0,1,.168-.028l2.522.037h3.718l.056-1.186h-2.83l-2.186.037q-.149,0-.177-.037a.322.322,0,0,1-.028-.168v-1.27q0-.149.037-.177a.322.322,0,0,1,.168-.028l2.186.037h2.924l.056-1.149H49.458l-2.148.037q-.149,0-.177-.037a.322.322,0,0,1-.028-.168v-1.308q0-.149.037-.177a.322.322,0,0,1,.168-.028l2.148.037h3.017l2.148-.037q.234,0,.234.168v.065q-.037.336-.075.859-.037.607-.047.719l-.215,3.811,1.971-.037a.341.341,0,0,1,.205.037.322.322,0,0,1,.028.168v1.308q0,.149-.047.177a.377.377,0,0,1-.187.028L53.97-8H52.148a12.169,12.169,0,0,0,1.037,2.7A13.454,13.454,0,0,0,54.6-6.884a4.808,4.808,0,0,0,.439-.729,14.222,14.222,0,0,1,1.224.953.542.542,0,0,1,.187.327q0,.112-.252.271a2.16,2.16,0,0,0-.532.5,14.8,14.8,0,0,1-1.607,1.644,10.365,10.365,0,0,0,2.868,2.569,5.213,5.213,0,0,0-.785,1.336q-.159.383-.28.383a.711.711,0,0,1-.383-.234,11.582,11.582,0,0,1-3.391-4.838l.1,4.213A1.829,1.829,0,0,1,51.56,1.13a4.083,4.083,0,0,1-1.971.383h-.234q-.28,0-.355-.121a2.26,2.26,0,0,1-.14-.458A4.038,4.038,0,0,0,48.291-.42ZM48.991-8l-2.522.037h-.093v1.336q0,.159-.047.187a.377.377,0,0,1-.187.028l-1.971-.037h-.112v4.8q.841-.215,2.027-.616-.037.187-.075.542l.859-.42a24.259,24.259,0,0,0,3.521-2.372V-8ZM41.173-5.53a18.716,18.716,0,0,1,.644,2.886.8.8,0,0,1,.009.084q0,.149-.234.243l-.822.327a.8.8,0,0,1-.224.056q-.093,0-.121-.168A13.279,13.279,0,0,0,39.772-5a.5.5,0,0,1-.037-.149q0-.1.252-.187l.859-.308a.764.764,0,0,1,.187-.047Q41.117-5.688,41.173-5.53ZM62.5-15.094a23.842,23.842,0,0,1,2.391.346q.458.112.458.364a2.315,2.315,0,0,1-.2.635,12.852,12.852,0,0,0-.262,2.326Q64.6-7,64.6-4.016a3.5,3.5,0,0,0,.355,1.98,1.863,1.863,0,0,0,1.4.392,7.415,7.415,0,0,0,3.353-.943,12.626,12.626,0,0,0,3.353-2.578A6.252,6.252,0,0,0,73.5-3.344a1.444,1.444,0,0,1,.149.458.9.9,0,0,1-.383.6A10.762,10.762,0,0,1,69.55-.056a10.316,10.316,0,0,1-3.531.635A3.52,3.52,0,0,1,63.189-.4a4.528,4.528,0,0,1-.766-2.924q0-1.784.271-8.266.028-.971.028-1.326A9.027,9.027,0,0,0,62.5-15.094Zm24.313,4.231a18.287,18.287,0,0,0,4.362-.869.433.433,0,0,1,.084-.009q.1,0,.149.131a13.1,13.1,0,0,1,.458,1.625.475.475,0,0,1,.009.093q0,.14-.168.2a29.132,29.132,0,0,1-4.838.859q.047,1.737.327,4.418a23.17,23.17,0,0,1,5.548,2.466.212.212,0,0,1,.121.177.362.362,0,0,1-.047.149A7.654,7.654,0,0,1,91.808-.019Q91.687.1,91.621.1a.251.251,0,0,1-.14-.065,19.716,19.716,0,0,0-4.25-2.41,3.827,3.827,0,0,1-.019.439A2.643,2.643,0,0,1,86.082.215a4.632,4.632,0,0,1-2.737.719A5.007,5.007,0,0,1,80.291.093a2.362,2.362,0,0,1-1.018-1.971,2.515,2.515,0,0,1,1.364-2.2,5.265,5.265,0,0,1,2.83-.719,14.912,14.912,0,0,1,1.607.056q-.262-2.774-.327-6.137-.019-.691-.056-2.643a5.9,5.9,0,0,0-.271-1.737,16.661,16.661,0,0,1,2.447.346q.308.075.308.318a.582.582,0,0,1-.093.29,2.563,2.563,0,0,0-.234,1.037Q86.811-12.7,86.811-10.863Zm-1.7,7.977a9.194,9.194,0,0,0-1.765-.2,3.362,3.362,0,0,0-1.672.346.889.889,0,0,0-.523.785q0,.971,1.971.971A2.158,2.158,0,0,0,84.7-1.523a1.331,1.331,0,0,0,.43-1v-.1Zm17.971-12.955a25.221,25.221,0,0,0,5.548,1.364q.262.047.262.271a.307.307,0,0,1-.009.075,11.561,11.561,0,0,1-.42,1.681q-.084.271-.234.271h-.037a27.718,27.718,0,0,1-5.548-1.476.242.242,0,0,1-.149-.243.579.579,0,0,1,.019-.14A10.527,10.527,0,0,1,103.082-15.842ZM99.374-9.527a12.927,12.927,0,0,0,2.279-.551,15.13,15.13,0,0,1,4.381-.962,3.7,3.7,0,0,1,3.11,1.382,5.037,5.037,0,0,1,.925,3.166,7.417,7.417,0,0,1-1.551,4.577,10.655,10.655,0,0,1-3.69,3.045.987.987,0,0,1-.327.093.672.672,0,0,1-.458-.252,4.778,4.778,0,0,0-1.588-1.009,10.582,10.582,0,0,0,4.2-3.194,5.734,5.734,0,0,0,1.055-3.391,2.838,2.838,0,0,0-.532-1.877,1.564,1.564,0,0,0-1.252-.532,6.926,6.926,0,0,0-3,.822,10.955,10.955,0,0,0-1.625.915.753.753,0,0,1-.42.2q-.262,0-.542-.42A11.464,11.464,0,0,1,99.374-9.527Zm21.651-5.623-.514,11.386h-1.933l-.532-11.386ZM118.158-1.905h2.718V.673h-2.718Z" transform="translate(1767.168 7523.773)" fill="#fff"/>
    <g id="グループ_629" data-name="グループ 629">
      <g id="グループ_627" data-name="グループ 627">
        <path id="パス_1449" data-name="パス 1449" d="M1762.5,7516.644c0-15.038-15.076-27.272-33.607-27.272s-33.607,12.234-33.607,27.272c0,13.482,11.956,24.773,28.106,26.907,1.094.237,2.584.722,2.961,1.658a6.9,6.9,0,0,1,.109,3.038s-.4,2.372-.48,2.877c-.147.849-.676,3.323,2.911,1.812s19.354-11.4,26.405-19.512h0C1760.167,7528.083,1762.5,7522.663,1762.5,7516.644Z" fill="#fff"/>
      </g>
      <g id="グループ_628" data-name="グループ 628">
        <path id="パス_1450" data-name="パス 1450" d="M1751.32,7525.328h-9.442a.642.642,0,0,1-.642-.642v-.01h0v-14.641h0v-.014a.642.642,0,0,1,.642-.641h9.442a.642.642,0,0,1,.641.641v2.384a.641.641,0,0,1-.641.641H1744.9v2.475h6.417a.643.643,0,0,1,.641.642v2.383a.641.641,0,0,1-.641.642H1744.9v2.475h6.417a.643.643,0,0,1,.641.642v2.383A.641.641,0,0,1,1751.32,7525.328Z" fill="#06c755"/>
        <path id="パス_1451" data-name="パス 1451" d="M1716.394,7525.328a.642.642,0,0,0,.642-.642V7522.3a.644.644,0,0,0-.642-.642h-6.417v-11.642a.642.642,0,0,0-.641-.641h-2.384a.641.641,0,0,0-.641.641v14.656h0v.01a.641.641,0,0,0,.641.642h9.442Z" fill="#06c755"/>
        <rect id="長方形_301" data-name="長方形 301" width="3.667" height="15.95" rx="0.642" transform="translate(1719.053 7509.377)" fill="#06c755"/>
        <path id="パス_1452" data-name="パス 1452" d="M1738.3,7509.377h-2.383a.643.643,0,0,0-.642.642v8.711l-6.71-9.062a.652.652,0,0,0-.052-.066l0,0c-.012-.014-.025-.027-.038-.04l-.012-.011c-.012-.01-.023-.02-.035-.029l-.018-.013-.034-.024-.019-.011-.036-.02-.02-.01-.038-.016-.021-.008-.038-.012-.023-.006-.038-.008-.028,0-.034,0h-.035l-.022,0h-2.37a.642.642,0,0,0-.641.642v14.667a.642.642,0,0,0,.641.642h2.384a.642.642,0,0,0,.641-.642v-8.709l6.719,9.074a.632.632,0,0,0,.166.162l.007,0a.457.457,0,0,0,.04.024l.019.011.031.015.032.013.02.008.044.014.009,0a.682.682,0,0,0,.168.023h2.37a.642.642,0,0,0,.642-.642v-14.667A.642.642,0,0,0,1738.3,7509.377Z" fill="#06c755"/>
      </g>
    </g>
    <circle id="楕円形_55" data-name="楕円形 55" cx="54.25" cy="54.25" r="54.25" transform="translate(1573 7445.25)" fill="none" stroke="#fff" stroke-miterlimit="10" stroke-width="3"/>
    <path id="パス_1453" data-name="パス 1453" d="M1588.272,7588.058l4.81,4.81,10.582-9.621" fill="none" stroke="#06c755" stroke-miterlimit="10" stroke-width="2"/>
    <path id="パス_1454" data-name="パス 1454" d="M1588.272,7619.8l4.81,4.81,10.582-9.62" fill="none" stroke="#06c755" stroke-miterlimit="10" stroke-width="2"/>
    <path id="パス_1455" data-name="パス 1455" d="M1588.272,7651.551l4.81,4.81,10.582-9.621" fill="none" stroke="#06c755" stroke-miterlimit="10" stroke-width="2"/>
    <g id="グループ_705" data-name="グループ 705">
      <path id="パス_2691" data-name="パス 2691" d="M-100.044.2a.119.119,0,0,1,.034.068q0,.048-.171.137l-.437.253a.711.711,0,0,1-.191.082q-.048,0-.089-.082-.424-.8-.738-1.326-2.659.41-7.479.848a1.3,1.3,0,0,0-.561.157.4.4,0,0,1-.178.068q-.1,0-.144-.164a9.248,9.248,0,0,1-.239-.923q.232.007.5.007.431,0,1.06-.041l.417-.007a42.156,42.156,0,0,0,1.894-4.792A9.076,9.076,0,0,0-105.991-7q.54.137.9.267.185.068.185.185a.338.338,0,0,1-.1.191,2.63,2.63,0,0,0-.342.69q-.984,2.748-1.948,4.854,2.591-.212,5.223-.561a24.018,24.018,0,0,0-1.757-2.393.12.12,0,0,1-.034-.062q0-.048.171-.164l.362-.219a.378.378,0,0,1,.144-.075q.034,0,.1.062A30.645,30.645,0,0,1-100.044.2Zm1.586-5.8a1.911,1.911,0,0,0-.465.554q-.116.2-.178.2a.578.578,0,0,1-.2-.109,13.758,13.758,0,0,1-4.8-5.742.207.207,0,0,1-.021-.068q0-.055.157-.123l.39-.171a.5.5,0,0,1,.164-.062q.048,0,.089.089a11.705,11.705,0,0,0,2.16,3.254A11.9,11.9,0,0,0-98.458-5.6Zm-7.437-5.011a.211.211,0,0,1-.1.164.888.888,0,0,0-.253.308,14.9,14.9,0,0,1-2.023,3.124,13.934,13.934,0,0,1-2.358,2.133.644.644,0,0,1-.212.123q-.055,0-.191-.185a1.523,1.523,0,0,0-.492-.479,11,11,0,0,0,2.81-2.413,10.653,10.653,0,0,0,1.559-2.468,2.8,2.8,0,0,0,.239-.8,5.533,5.533,0,0,1,.848.294Q-105.9-10.726-105.9-10.609Zm21.232,8.969Q-84.991.827-86.16.827q-1.5,0-2.516-2.83a22.224,22.224,0,0,1-1.053-5.906h-5.038l-1.88.027a.1.1,0,0,1-.109-.109v-.663a.1.1,0,0,1,.109-.109l1.88.027h5q0-.014-.041-1.039a13.04,13.04,0,0,0-.144-1.716,7.618,7.618,0,0,1,.978.082q.185.027.185.15,0,.021-.068.267a2.528,2.528,0,0,0-.075.738q0,.185.007.438,0,.027.041,1.08h1.818l1.88-.027a.1.1,0,0,1,.109.109v.663a.1.1,0,0,1-.109.109l-1.88-.027H-88.86A21.134,21.134,0,0,0-87.924-2.5q.8,2.338,1.654,2.338.643,0,.813-2.3a2.607,2.607,0,0,0,.533.39q.273.157.273.308A.717.717,0,0,1-84.663-1.641Zm-5.359-.793a3.33,3.33,0,0,0-.041.533.483.483,0,0,1-.048.273.645.645,0,0,1-.232.116A45.213,45.213,0,0,1-95.5-.014,1.629,1.629,0,0,0-96.045.2a.625.625,0,0,1-.212.1q-.082,0-.15-.157A8.117,8.117,0,0,1-96.674-.7a9.452,9.452,0,0,0,1.285-.212l1.613-.362V-4.826h-.745l-1.688.027a.1.1,0,0,1-.116-.116V-5.5q0-.123.116-.123l1.688.027h2.44l1.682-.027q.109,0,.109.123v.588q0,.116-.109.116l-1.682-.027h-.827v3.315A25.009,25.009,0,0,0-90.022-2.434Zm4.1-7.465a.138.138,0,0,1,.041.082q0,.055-.123.157l-.294.226a.418.418,0,0,1-.178.1q-.041,0-.1-.068a6.069,6.069,0,0,0-1.333-1.265q-.055-.034-.055-.068t.116-.137l.246-.2a.294.294,0,0,1,.157-.089.214.214,0,0,1,.109.048A8.537,8.537,0,0,1-85.921-9.9Zm3.685.123q1,.1,2.885.1h5.824a4.17,4.17,0,0,0,1.046-.082.624.624,0,0,1,.212-.055.371.371,0,0,1,.212.1,3.316,3.316,0,0,1,.513.547.283.283,0,0,1,.075.185.256.256,0,0,1-.144.219,1.226,1.226,0,0,0-.308.355A11.35,11.35,0,0,1-74.594-5.66a.281.281,0,0,1-.171.062.274.274,0,0,1-.191-.075,2.067,2.067,0,0,0-.731-.355,9.007,9.007,0,0,0,2.844-2.755h-6.4a24.59,24.59,0,0,0-2.6.13h-.041a.179.179,0,0,1-.191-.157A6.55,6.55,0,0,1-82.236-9.775ZM-81.211-.1a6.225,6.225,0,0,0,2.9-2.748,7.9,7.9,0,0,0,.7-3.445,5.1,5.1,0,0,0-.13-1.155,4.217,4.217,0,0,1,1.107.191q.191.075.191.226a.432.432,0,0,1-.055.185,1.525,1.525,0,0,0-.109.684,8.23,8.23,0,0,1-.8,3.726A7.052,7.052,0,0,1-80.035.328.476.476,0,0,1-80.268.4a.274.274,0,0,1-.191-.075A2.191,2.191,0,0,0-81.211-.1Zm17.4-7.7q.089-1.08.1-1.5.014-.239.014-.472a5.843,5.843,0,0,0-.089-1.039,4.954,4.954,0,0,1,1.121.205q.185.068.185.219a.494.494,0,0,1-.068.219,3.021,3.021,0,0,0-.185.923q-.027.485-.123,1.442h2.379l1.764-.027q.212,0,.212.171,0,.506-.041,1.285a22.274,22.274,0,0,1-.52,4.43,3.1,3.1,0,0,1-.533,1.2,1.625,1.625,0,0,1-.759.479A4.621,4.621,0,0,1-61.811-.1a.213.213,0,0,1-.226-.171,1.635,1.635,0,0,0-.485-.779q.273.014.526.014a4.078,4.078,0,0,0,1.265-.157.794.794,0,0,0,.451-.328,3.9,3.9,0,0,0,.273-.813,22.235,22.235,0,0,0,.479-4.6h-3.445A10.566,10.566,0,0,1-64.23-3.056a7.269,7.269,0,0,1-1.34,1.641A9.627,9.627,0,0,1-67.2-.171a.337.337,0,0,1-.178.068.2.2,0,0,1-.157-.082,1.818,1.818,0,0,0-.759-.458,7.886,7.886,0,0,0,3.22-2.816,9.222,9.222,0,0,0,1.148-3.459h-1.641q-1.066,0-1.928.075h-.041q-.1,0-.13-.185-.062-.458-.082-.841.978.068,2.167.068Zm15.251-.909h2.14a3.785,3.785,0,0,0,1.278-.123.19.19,0,0,1,.116-.041.349.349,0,0,1,.205.082,2.055,2.055,0,0,1,.581.561.245.245,0,0,1,.062.157.3.3,0,0,1-.1.205,1.716,1.716,0,0,0-.205.492A14.348,14.348,0,0,1-46.17-3.22,10.709,10.709,0,0,1-49.882.349.247.247,0,0,1-50.025.4a.3.3,0,0,1-.164-.082,2.75,2.75,0,0,0-.82-.4,10.358,10.358,0,0,0,3.931-3.562,13.21,13.21,0,0,0,1.627-4.184h-6.891v1.36q0,.827.041,1.682,0,.205-.164.205t-.369.014q-.185,0-.362-.014-.15,0-.15-.178.027-.636.027-1.7v-.984q0-.807-.034-1.155v-.034q0-.123.137-.123h.034q.779.055,1.907.055h1.723v-.738a7.953,7.953,0,0,0-.13-1.668,6.676,6.676,0,0,1,1.135.137q.185.041.185.2a.313.313,0,0,1-.048.157,2.659,2.659,0,0,0-.15,1.1Zm8.914-.109q.349-.424.547-.643a.191.191,0,0,1,.137-.075.238.238,0,0,1,.116.041,12.744,12.744,0,0,1,2.522,1.866.248.248,0,0,1,.082.15.238.238,0,0,1-.041.116,4.068,4.068,0,0,1-.479.6q-.068.082-.116.082a.187.187,0,0,1-.109-.068A14.192,14.192,0,0,0-39.648-8.818Zm.335,7.349a8.748,8.748,0,0,0,1.47-.574,25.369,25.369,0,0,0,4.047-2.6,23.738,23.738,0,0,0,3.78-3.767,4.67,4.67,0,0,0,.239.923.49.49,0,0,1,.048.191.49.49,0,0,1-.15.3,25.13,25.13,0,0,1-3.4,3.22,29.535,29.535,0,0,1-4.2,2.734,4.917,4.917,0,0,0-.766.54.294.294,0,0,1-.191.1.261.261,0,0,1-.185-.109A5.068,5.068,0,0,1-39.313-1.47Zm17.63-5.462a19.315,19.315,0,0,1,4.56,1.948q.123.055.123.144a.215.215,0,0,1-.021.082,4.771,4.771,0,0,1-.335.684q-.082.1-.144.1a.249.249,0,0,1-.123-.048A14.706,14.706,0,0,0-21.7-5.893v3.247q0,.533.014,1.5.021,1.224.021,1.354a.2.2,0,0,1,.007.048q0,.13-.185.13Q-21.984.4-22.189.4T-22.552.39A.172.172,0,0,1-22.75.2q.062-1.2.062-2.844V-8.859a11.763,11.763,0,0,0-.157-2.242,5.216,5.216,0,0,1,1.155.185q.164.034.164.164a.99.99,0,0,1-.062.253,6.914,6.914,0,0,0-.1,1.552Zm8.709,2.509a3.945,3.945,0,0,0,1.08-.656q1.155-.971,2.516-2.215a1.549,1.549,0,0,1,1.039-.52,1.2,1.2,0,0,1,.567.13,2.876,2.876,0,0,1,.465.335q2.5,2,3.254,2.543A30.454,30.454,0,0,0-.978-2.871q.109.062.109.137a.11.11,0,0,1-.014.048,4.135,4.135,0,0,1-.4.766.167.167,0,0,1-.13.089.2.2,0,0,1-.109-.041q-1.62-1-2.967-2.023-.827-.615-3.124-2.536a1.209,1.209,0,0,0-.711-.39,1.023,1.023,0,0,0-.6.349q-1.449,1.381-2.536,2.4a4.535,4.535,0,0,0-.458.506.224.224,0,0,1-.171.109.232.232,0,0,1-.157-.082A5.7,5.7,0,0,1-12.975-4.423Z" transform="translate(1868.079 7699.55)" fill="#fff"/>
      <path id="パス_1511" data-name="パス 1511" d="M1877.221,7689.087,1884,7693.5l-6.779,4.413" fill="none" stroke="#fff" stroke-miterlimit="10" stroke-width="1"/>
    </g>
  </g>
</svg>
