<svg xmlns="http://www.w3.org/2000/svg" width="160.921" height="149.73" viewBox="0 0 160.921 149.73">
  <g id="グループ_2198" data-name="グループ 2198" transform="translate(-244.472 -5911.907)">
    <g id="グループ_852" data-name="グループ 852">
      <path id="パス_1734" data-name="パス 1734" d="M250.191,5988.059a47,47,0,0,1-4.37-19.826c0-28.142,24.976-51.038,55.676-51.038a58.212,58.212,0,0,1,40.6,16.131,60.776,60.776,0,0,1,6.236-.327c30.7,0,55.678,22.9,55.678,51.04,0,21.5-14.581,39.922-35.148,47.43l14.122,27.657-35.683-21.41c-10.138,14.867-27.746,23.921-47.159,23.921-30.7,0-55.676-22.9-55.676-51.039A47.7,47.7,0,0,1,250.191,5988.059Z" fill="#ffd600"/>
      <g id="グループ_851" data-name="グループ 851">
        <path id="パス_1735" data-name="パス 1735" d="M256.316,5983.387a44.118,44.118,0,0,1-4.777-19.935c0-26.414,23.488-47.826,52.463-47.826a54.609,54.609,0,0,1,39.424,16.29,57.9,57.9,0,0,1,7.418-.485c28.974,0,52.463,21.412,52.463,47.826s-23.489,47.825-52.463,47.825c-.4,0-.789-.019-1.184-.027-8.582,15.754-26.4,26.587-47.007,26.587-28.974,0-52.463-21.412-52.463-47.826A44.292,44.292,0,0,1,256.316,5983.387Z" fill="#fff"/>
      </g>
      <path id="パス_1736" data-name="パス 1736" d="M250.755,6022.593c4.525,13.349,15.233,24.305,28.156,30.071a58.451,58.451,0,0,0,20.562,5.1,59.67,59.67,0,0,0,21.148-2.315,58.2,58.2,0,0,0,18.979-9.877,52.126,52.126,0,0,0,12.525-14.336c13.977-.509,27.831-5.823,38.021-15.444a49.347,49.347,0,0,0,12.2-18.279,46.823,46.823,0,0,0,2.79-21.52,48.361,48.361,0,0,0-6.906-20.235c-1.023-1.463-2-2.958-3.075-4.372-1.163-1.345-2.212-2.794-3.471-4.047a57.167,57.167,0,0,0-8.053-6.936,41.271,41.271,0,0,0-4.468-2.881l-2.318-1.309c-.773-.437-1.607-.748-2.409-1.128l-2.416-1.126c-.817-.346-1.664-.617-2.5-.929l-2.512-.906c-.853-.25-1.719-.457-2.58-.687l-2.588-.682-2.632-.479-2.644-.467c-.887-.108-1.781-.159-2.673-.241a54.339,54.339,0,0,0-9.452-.171,54.85,54.85,0,0,0-41.459-17.479l-4.763.208-4.721.7a59.768,59.768,0,0,0-17.889,6.405,55.207,55.207,0,0,0-14.684,12.014,48,48,0,0,0-9.159,16.524,46.408,46.408,0,0,0-1.786,18.566,42.141,42.141,0,0,0,2.062,9,39.376,39.376,0,0,0,1.738,4.239,26.623,26.623,0,0,0,2.119,3.8,29.843,29.843,0,0,0-2.554,4.115,39.475,39.475,0,0,0-2.094,4.624,45.1,45.1,0,0,0-2.554,9.915A45.633,45.633,0,0,0,250.755,6022.593ZM252,6002.3a42.307,42.307,0,0,1,1.307-9.532c.387-1.573.908-3.111,1.454-4.649.56-1.579,1.176-2.917,1.974-4.722-.619-1.718-1.085-2.922-1.5-4.386-.409-1.414-.78-2.831-1.071-4.261a47.222,47.222,0,0,1-.882-8.632,45.718,45.718,0,0,1,3.248-16.654,43.581,43.581,0,0,1,9.1-14.043,48.526,48.526,0,0,1,13.359-9.968,55.334,55.334,0,0,1,32.481-5.6,53.483,53.483,0,0,1,30.2,13.762l.986.922,1.1-.19a46.857,46.857,0,0,1,9.947-.785c.836.013,1.677-.006,2.513.03l2.5.249,2.508.257,2.469.5c.821.176,1.651.328,2.47.523l2.414.738c.8.255,1.622.469,2.413.758l2.339.963c.768.348,1.571.628,2.311,1.032l2.226,1.208a38.725,38.725,0,0,1,4.3,2.668,45.934,45.934,0,0,1,7.62,6.632c1.181,1.2,2.151,2.591,3.239,3.874.974,1.37,1.831,2.822,2.746,4.226a41.337,41.337,0,0,1,1.432,38.108,45.7,45.7,0,0,1-11.742,15.263,50.791,50.791,0,0,1-16.717,9.462,54.53,54.53,0,0,1-18.983,2.771l-2.473-.062-1.323,2.265a48.509,48.509,0,0,1-5.237,7.349,51.436,51.436,0,0,1-6.622,6.171,49.271,49.271,0,0,1-16.1,8.3,51.232,51.232,0,0,1-18.087,2.4,54.266,54.266,0,0,1-17.945-3.722,50.61,50.61,0,0,1-15.573-9.782,45.466,45.466,0,0,1-10.75-15.032,34.91,34.91,0,0,1-1.641-4.388,33.312,33.312,0,0,1-1.16-4.563,34.875,34.875,0,0,1-.639-4.692A31.447,31.447,0,0,1,252,6002.3Z" fill="#333"/>
      <path id="パス_1737" data-name="パス 1737" d="M340.346,6024.444l39.179,23.507-17.1-33.48Z" fill="#fff"/>
      <path id="パス_1738" data-name="パス 1738" d="M350.892,6029.07l5.146,2.523,5.081,2.634c4.008,2.106,7.954,4.317,11.863,6.589-.009-.021-.02-.04-.029-.061-1.334-2.836-2.6-5.709-3.829-8.6-1.27-2.869-2.412-5.8-3.561-8.734-1.116-2.948-2.21-5.907-3.134-8.953,1.926,2.535,3.681,5.156,5.415,7.788,1.7,2.649,3.407,5.3,4.987,8.006,1.617,2.692,3.2,5.4,4.719,8.143s3.013,5.5,4.46,8.275l4.491,8.626-8.411-4.965c-6.558-3.872-13.029-7.887-19.337-12.175l-4.715-3.243-4.648-3.354c-3.063-2.295-6.125-4.593-9.044-7.128C343.957,6025.827,347.425,6027.447,350.892,6029.07Z" fill="#333"/>
    </g>
    <path id="パス_2689" data-name="パス 2689" d="M-29.417-7.251a6.151,6.151,0,0,1,1.327.791q.22.185.22.316a.525.525,0,0,1-.2.343,2.7,2.7,0,0,0-.369.729,15.072,15.072,0,0,1-1.477,2.681q.343,1.433.791,1.433.185,0,.308-.519.105-.448.246-1.6a3.221,3.221,0,0,0,.958.721.392.392,0,0,1,.264.343,2.464,2.464,0,0,1-.044.369q-.378,2.7-1.7,2.7-1.169,0-1.978-2a13.447,13.447,0,0,1-2.54,2.171.894.894,0,0,1-.4.2q-.185,0-.413-.466a2.728,2.728,0,0,0-.668-.826,12.2,12.2,0,0,0,1.6-1.081h-.949a.278.278,0,0,1-.176-.035.3.3,0,0,1-.026-.158v-.22h-1.907V-.343a.264.264,0,0,1-.031.163.264.264,0,0,1-.163.031h-1.1q-.149,0-.176-.035a.3.3,0,0,1-.026-.158L-38-3.331V-4.913l-.035-2.145q0-.141.035-.167a.328.328,0,0,1,.167-.026l1.512.035h1.494l1.512-.035q.176,0,.176.193l-.035,1.714v1.635q0,2.153.035,2.514a12.246,12.246,0,0,0,1.529-1.538q-.053-.2-.123-.633a31.088,31.088,0,0,1-.448-4.57H-36.4l-2.127.035q-.132,0-.158-.035a.416.416,0,0,1-.026-.185V-9.29q0-.132.035-.158a.36.36,0,0,1,.149-.018l1.187.018a15.07,15.07,0,0,0-.483-1.477.406.406,0,0,1-.044-.158q0-.114.22-.167l.861-.211a.721.721,0,0,1,.158-.026q.1,0,.167.167a12.853,12.853,0,0,1,.545,1.872h.65a9.036,9.036,0,0,0,.334-1.274q.07-.431.1-.782l1.459.272a.2.2,0,0,1,.176.2.288.288,0,0,1-.088.211.554.554,0,0,0-.185.29,9.721,9.721,0,0,1-.36,1.081h1.591q-.009-.158-.062-3.041a20.326,20.326,0,0,0-.141-2.522q.7.018,1.635.123.308.035.308.2a1.127,1.127,0,0,1-.105.378,7.713,7.713,0,0,0-.105,1.767q0,1.222.035,3.094h.264l2.47-.018a.324.324,0,0,1,.176.026.251.251,0,0,1,.026.149v1.169q0,.158-.044.193a.275.275,0,0,1-.158.026l-2.47-.035h-.229q.079,1.942.272,3.349.316-.624.589-1.3A8.174,8.174,0,0,0-29.417-7.251Zm-7.128,4.605h1.907V-3.691h-1.907Zm1.907-3.261h-1.907v.958h1.907Zm-9.448-6.785q-.149,0-.176-.035a.3.3,0,0,1-.026-.158V-14.15q0-.141.035-.167a.328.328,0,0,1,.167-.026l1.758.035h1.942l1.767-.035q.185,0,.185.193v1.266q0,.193-.185.193t-.413-.018V-.686L-39,1.2q0,.149-.035.176a.416.416,0,0,1-.185.026h-1.2q-.141,0-.167-.035a.328.328,0,0,1-.026-.167l.035-1.89V-1.723q-1.187.4-2.452.773a2.112,2.112,0,0,0-.589.22.636.636,0,0,1-.29.123q-.149,0-.211-.237a17.405,17.405,0,0,1-.343-1.731q.088,0,.914-.105V-12.709Zm3.507,9.22V-5.581h-1.441v2.54Q-41.432-3.2-40.579-3.472Zm-1.441-3.656h1.441v-2.03h-1.441Zm0-3.577h1.441v-2.021h-1.441Zm7.348-1.028H-36.51l-1.582.035a.278.278,0,0,1-.176-.035.3.3,0,0,1-.026-.158v-1.116q0-.149.044-.176a.275.275,0,0,1,.158-.026l1.582.035h.088v-.571a7.146,7.146,0,0,0-.105-1.371q.923.026,1.635.088.29.026.29.22a.925.925,0,0,1-.105.264,2.782,2.782,0,0,0-.07.817v.554h.105l1.679-.035q.141,0,.167.035a.328.328,0,0,1,.026.167v1.116q0,.141-.035.167a.3.3,0,0,1-.158.026Zm5.757-2a8.594,8.594,0,0,1,1.081,2.25.434.434,0,0,1,.026.132q0,.105-.149.185l-.879.475a.533.533,0,0,1-.2.062q-.088,0-.158-.193a12.264,12.264,0,0,0-1.011-2.3.35.35,0,0,1-.053-.149q0-.079.211-.193l.782-.4a.315.315,0,0,1,.158-.053Q-29.013-13.913-28.916-13.729Zm5.432,10.723-2.276.035a.3.3,0,0,1-.185-.035.3.3,0,0,1-.026-.158V-4.236a.3.3,0,0,1,.035-.185.355.355,0,0,1,.176-.026l2.276.035h4.438v-.967h-2.531l-2.487.035q-.141,0-.158-.035a.43.43,0,0,1-.018-.167V-6.574a.351.351,0,0,1,.026-.185.251.251,0,0,1,.149-.026l2.487.035h2.531V-7.7H-22.43l-2.408.035q-.158,0-.185-.035t-.035-.141V-8.9q0-.149.044-.176a.355.355,0,0,1,.176-.026l2.408.035h1.1A11.894,11.894,0,0,0-21.9-10.2a.418.418,0,0,1-.062-.167q0-.079.185-.141l1.169-.325h-2.874l-2.276.035a.3.3,0,0,1-.185-.035A.3.3,0,0,1-25.972-11v-1.116a.32.32,0,0,1,.035-.193.355.355,0,0,1,.176-.026l2.276.035h.123a9.118,9.118,0,0,0-1.028-1.547.2.2,0,0,1-.062-.123q0-.079.211-.185l1.037-.483a.465.465,0,0,1,.167-.053q.079,0,.176.123a10.345,10.345,0,0,1,1.213,1.749.362.362,0,0,1,.053.132q0,.062-.2.176l-.431.211h1.67v-1.187a8.343,8.343,0,0,0-.105-1.564q1.09.035,1.74.105.22.026.22.158a1.21,1.21,0,0,1-.07.308,3.044,3.044,0,0,0-.105.993V-12.3h1.459v-1.169a7.837,7.837,0,0,0-.114-1.582,16,16,0,0,1,1.731.123q.237.026.237.167a.874.874,0,0,1-.07.281,2.823,2.823,0,0,0-.114.993V-12.3h1.116a13.121,13.121,0,0,0,.826-1.477,3.5,3.5,0,0,0,.308-.967,13.731,13.731,0,0,1,1.74.466q.237.079.237.229a.415.415,0,0,1-.176.308,1.788,1.788,0,0,0-.308.343q-.229.36-.738,1.1h.255l2.268-.035q.141,0,.167.044a.355.355,0,0,1,.026.176V-11q0,.141-.035.167a.3.3,0,0,1-.158.026l-2.268-.035h-3.155q.747.141,1.424.325.237.062.237.22a.3.3,0,0,1-.2.264,1.762,1.762,0,0,0-.246.378l-.325.58h1.169l2.408-.035q.149,0,.176.035a.328.328,0,0,1,.026.167V-7.84q0,.176-.2.176L-13.588-7.7h-3.639v.949h2.865l2.479-.035q.149,0,.176.044a.328.328,0,0,1,.026.167v1.028a.286.286,0,0,1-.031.171.286.286,0,0,1-.171.031l-2.479-.035h-2.865v.967h4.737l2.268-.035q.141,0,.167.044a.328.328,0,0,1,.026.167v1.072A.264.264,0,0,1-10.059-3a.264.264,0,0,1-.163.031l-2.268-.035H-15.7A16.844,16.844,0,0,0-9.7-.668a5.022,5.022,0,0,0-.7,1.16q-.193.466-.4.466A2.442,2.442,0,0,1-11.215.87a15.187,15.187,0,0,1-6.047-3.226l.088,3.56a.278.278,0,0,1-.035.176.3.3,0,0,1-.158.026H-18.9q-.185,0-.185-.2,0-.088.018-.562.044-1.45.053-2.927A14.863,14.863,0,0,1-24.785.94a1.523,1.523,0,0,1-.413.105q-.176,0-.4-.466A3.994,3.994,0,0,0-26.314-.5a15.549,15.549,0,0,0,5.739-2.5Zm7.427-7.11a4.123,4.123,0,0,0,.2-.721h-4.588a.494.494,0,0,1,.141.141,11.982,11.982,0,0,1,.809,1.626h2.953Q-16.3-9.527-16.058-10.116ZM1.151-11.03A21.776,21.776,0,0,1-1.1-3.278,3.5,3.5,0,0,1-4.166-1.2a2.742,2.742,0,0,1-2.3-1.371,5.681,5.681,0,0,1-.879-3.252,6.454,6.454,0,0,1,2.03-4.685,7.93,7.93,0,0,1,5.854-2.3,6.9,6.9,0,0,1,5.273,2A5.952,5.952,0,0,1,7.392-6.574q0,4.887-5.546,6.557a1.022,1.022,0,0,1-.264.044q-.264,0-.51-.369A3.763,3.763,0,0,0-.185-1.477,8.848,8.848,0,0,0,3.858-3.331,4.614,4.614,0,0,0,5.247-6.855,4.105,4.105,0,0,0,3.99-9.9,3.785,3.785,0,0,0,1.222-11.03Zm-2.092.105A5.533,5.533,0,0,0-4.017-9.29,4.962,4.962,0,0,0-5.423-5.959a3.885,3.885,0,0,0,.448,2q.352.58.773.58.738,0,1.354-1.1a15.437,15.437,0,0,0,1.2-3.094A22.626,22.626,0,0,0-.94-10.925ZM26.657-8.9a3.8,3.8,0,0,0-.738,1.512q-.123.466-.308.466a1.109,1.109,0,0,1-.431-.158A19.456,19.456,0,0,1,21.4-9.316v1.389q0,.141-.035.167a.328.328,0,0,1-.167.026L19.257-7.77h-2.5l-1.934.035a.3.3,0,0,1-.185-.035.3.3,0,0,1-.026-.158v-1.45A23.58,23.58,0,0,1,11-7.031a1.06,1.06,0,0,1-.413.158q-.149,0-.325-.431a3.1,3.1,0,0,0-.826-1.239,15.756,15.756,0,0,0,6.952-5.476,4.821,4.821,0,0,0,.659-1.274,13.457,13.457,0,0,1,1.925.4q.325.053.325.246a.312.312,0,0,1-.176.272l-.149.105A15.507,15.507,0,0,0,26.657-8.9ZM14.792-9.519h.035l1.934.018h2.5l1.872-.018a16.409,16.409,0,0,1-3.2-3.278A17.547,17.547,0,0,1,14.792-9.519Zm6.2,4.948H14.941l-2.452.035q-.141,0-.167-.044a.355.355,0,0,1-.026-.176V-6.161q0-.141.035-.167a.3.3,0,0,1,.158-.026l2.452.035h6.478a1.93,1.93,0,0,0,.633-.07,1.24,1.24,0,0,1,.264-.07,1.438,1.438,0,0,1,.809.5q.633.615.633.835a.53.53,0,0,1-.237.4,3.074,3.074,0,0,0-.589.861,35.177,35.177,0,0,1-3.516,5.238.3.3,0,0,1-.211.141,4.773,4.773,0,0,1-.905-.325Q17.385.826,17.385.7q0-.053.105-.167A19.961,19.961,0,0,0,20.988-4.57Zm11.549-9.7a10.2,10.2,0,0,1,2.364.22q.325.079.325.281l-.132.756q0,.176.088,1.213a27.322,27.322,0,0,0,.58,3.094q.536-.29,1.318-.7l1.239-.668a4.583,4.583,0,0,0,1.239-.967A8.981,8.981,0,0,1,40.878-9.36.7.7,0,0,1,41-8.982q0,.308-.36.36a8.633,8.633,0,0,0-1.731.545,25.922,25.922,0,0,0-4.228,2.1q-2.127,1.4-2.127,2.725a1.229,1.229,0,0,0,.747,1.2,5.43,5.43,0,0,0,2.118.308,30.752,30.752,0,0,0,5.493-.422.962.962,0,0,1,.114-.009q.167,0,.211.229a15.654,15.654,0,0,1,.176,1.679q.026.272-.325.3a42.3,42.3,0,0,1-5.361.272q-5.2,0-5.2-3.454A4.087,4.087,0,0,1,31.57-5.871,10.4,10.4,0,0,1,33.943-7.8a25.922,25.922,0,0,1-.932-4.386A8.586,8.586,0,0,0,32.537-14.273Zm-64.4,33.26q.694.352,1.389.721.141.079.141.176a.306.306,0,0,1-.053.149,2.513,2.513,0,0,0-.475,1.371q0,.923,1.116,1.318a9.946,9.946,0,0,0,3.155.369,22.864,22.864,0,0,0,4.878-.519.922.922,0,0,1,.158-.018.21.21,0,0,1,.22.185,10.189,10.189,0,0,1,.29,1.758v.035q0,.185-.308.237a30.162,30.162,0,0,1-5.37.431,8.512,8.512,0,0,1-4.755-1.063,2.95,2.95,0,0,1-1.345-2.575A4.983,4.983,0,0,1-31.86,18.986Zm.4-6.8a22.562,22.562,0,0,0,5.054.466q1.239,0,3.814-.158h.053a.2.2,0,0,1,.22.2,12.1,12.1,0,0,1,.088,1.529q0,.352-.308.378a11.321,11.321,0,0,0-4.4,1.784.772.772,0,0,1-.457.158.787.787,0,0,1-.378-.105,4.268,4.268,0,0,0-1.257-.58q1.468-.958,2.355-1.494a13.4,13.4,0,0,1-1.477.053,17.918,17.918,0,0,1-3.146-.308.292.292,0,0,1-.237-.325Q-31.544,13.5-31.465,12.183Zm18.255-1.529A10.641,10.641,0,0,1-11.162,11q.378.1.378.36a.782.782,0,0,1-.123.343,2.634,2.634,0,0,0-.167.888q-.035.686-.088,1.793a6.561,6.561,0,0,1,.686.4.319.319,0,0,1,.158.255.382.382,0,0,1-.088.2,18.7,18.7,0,0,0-.932,1.705v.088q.756-.853,1.67-1.74a5.164,5.164,0,0,1,3.252-1.767,2.009,2.009,0,0,1,1.661.721,2.628,2.628,0,0,1,.5,1.679q0,1.38-.149,3.27-.035.686-.123,2.021-.053.712-.053,1a1.407,1.407,0,0,0,.185.879.645.645,0,0,0,.483.149,2.249,2.249,0,0,0,1.336-.65,4.928,4.928,0,0,0,1.081-1.512,5.16,5.16,0,0,0,.668,1.354.732.732,0,0,1,.193.413.6.6,0,0,1-.123.308,4.228,4.228,0,0,1-3.463,2.065q-2.3,0-2.3-2.751,0-.554.141-3.023.132-2.206.132-2.953,0-1.187-.562-1.187a3.715,3.715,0,0,0-2.013,1.169q-1.468,1.433-2.514,2.646,0,.642.044,3.762.026,1.978.026,3.059a.225.225,0,0,1-.255.255,10.183,10.183,0,0,1-1.4.07q-.255,0-.255-.308,0-3.524.053-5.15-.879,1.38-2.092,3.243-.1.176-.193.176a.516.516,0,0,1-.22-.088,4.361,4.361,0,0,1-1.116-1.011.293.293,0,0,1-.105-.193.449.449,0,0,1,.158-.308q1.8-2.294,3.533-4.729,0-.791.018-1.222a15.324,15.324,0,0,0-2.162.712q-.053.026-.167.1a.764.764,0,0,1-.352.158q-.22,0-.36-.29a10.38,10.38,0,0,1-.7-1.652,9.15,9.15,0,0,0,1.31-.167q1.433-.334,2.54-.677V12.4A7.149,7.149,0,0,0-13.21,10.654ZM6.012,15.137q.272-.976.536-2.268a11.916,11.916,0,0,0,.185-2,16.139,16.139,0,0,1,2.153.589.355.355,0,0,1,.29.36.378.378,0,0,1-.123.272,2.367,2.367,0,0,0-.36.686q-.132.4-.343,1.143-.2.677-.308,1.02a11.821,11.821,0,0,1,1.406-.079,2.278,2.278,0,0,1,2.021.967,4.087,4.087,0,0,1,.589,2.364,19.64,19.64,0,0,1-.29,3.4,9.533,9.533,0,0,1-.686,2.382,2.536,2.536,0,0,1-2.426,1.688,6.081,6.081,0,0,1-1.784-.2.467.467,0,0,1-.325-.5,5.825,5.825,0,0,0-.334-1.67,5.6,5.6,0,0,0,1.978.4,1.057,1.057,0,0,0,.729-.229,2.071,2.071,0,0,0,.422-.729,12.634,12.634,0,0,0,.7-4.456A2.583,2.583,0,0,0,9.8,16.9a.912.912,0,0,0-.782-.308,11.737,11.737,0,0,0-1.512.123,52.886,52.886,0,0,1-3.621,8.464q-.1.22-.264.22a.438.438,0,0,1-.2-.062,5.122,5.122,0,0,1-1.248-.791.393.393,0,0,1-.141-.264.339.339,0,0,1,.07-.2,41.06,41.06,0,0,0,3.3-7.058q-.615.1-1.758.308a6.273,6.273,0,0,0-.993.29.663.663,0,0,1-.22.044.371.371,0,0,1-.36-.281,17.336,17.336,0,0,1-.554-1.854q.993,0,2.373-.123Q4.86,15.312,6.012,15.137ZM12.419,15q1.011-.686,1.459-.923A.246.246,0,0,1,14,14.038a.339.339,0,0,1,.22.123,11.736,11.736,0,0,1,2.988,4.377.406.406,0,0,1,.044.158.27.27,0,0,1-.114.2,5.423,5.423,0,0,1-1.354.9.386.386,0,0,1-.185.053.225.225,0,0,1-.229-.193A12.3,12.3,0,0,0,12.419,15Zm10.907-3.041a10.175,10.175,0,0,1,1.063-1.406.329.329,0,0,1,.229-.114.418.418,0,0,1,.114.018A12.2,12.2,0,0,1,28.266,12.6a.285.285,0,0,1,.123.2.524.524,0,0,1-.088.211,9.957,9.957,0,0,1-.923,1.266q-.114.141-.193.141a.339.339,0,0,1-.22-.123A14.248,14.248,0,0,0,23.326,11.955Zm-1.257,2.5a10.708,10.708,0,0,1,1.872.65q.29.132.29.343a.548.548,0,0,1-.088.272,3.406,3.406,0,0,0-.36.949,27.724,27.724,0,0,0-.439,3.278,10.254,10.254,0,0,1,3.015-2.153,7.154,7.154,0,0,1,3.006-.694,4.222,4.222,0,0,1,3.217,1.2,3.68,3.68,0,0,1,.976,2.654,4.329,4.329,0,0,1-2.716,4.034,14.444,14.444,0,0,1-4.614,1.239,2.157,2.157,0,0,1-.281.026.492.492,0,0,1-.439-.255,4.908,4.908,0,0,0-1.222-1.529,14.458,14.458,0,0,0,4.948-1.011,2.938,2.938,0,0,0,2.127-2.716,1.719,1.719,0,0,0-.571-1.362,2.36,2.36,0,0,0-1.591-.492,5.615,5.615,0,0,0-2.725.826,11.158,11.158,0,0,0-2.461,1.907,5.457,5.457,0,0,0-.773.993.269.269,0,0,1-.22.158.848.848,0,0,1-.193-.035,10.392,10.392,0,0,1-1.222-.483.358.358,0,0,1-.255-.36q.141-2.716.554-5.81A15.139,15.139,0,0,0,22.069,14.451Z" transform="translate(322.855 5981.694)"/>
  </g>
</svg>
