<svg xmlns="http://www.w3.org/2000/svg" width="398.78" height="119.532" viewBox="0 0 398.78 119.532">
  <g id="グループ_2194" data-name="グループ 2194" transform="translate(-582.576 -5337.96)">
    <g id="グループ_802" data-name="グループ 802">
      <g id="グループ_788" data-name="グループ 788">
        <path id="パス_1684" data-name="パス 1684" d="M698.41,5367.108c-.533-.736-.586-.828-1.2-1.6l-7.769,6.037c.084.108.734.944,1.3,1.522l-1.349,1.05a9.143,9.143,0,0,0-1.105-1.693c-.372-.478-.608-.734-.846-.99.372-.211,1.765-1.257,2.216-1.588a5.749,5.749,0,0,0-2.185-.641l.528-1.368a5.059,5.059,0,0,1,2.282.718l-.484,1.2c.168-.13,1.437-1.062,1.521-1.126l2.223-1.728c.036-.028,1.419-1.159,1.563-1.27l-.989.231a6.748,6.748,0,0,0-.42-2.512l1.387-.387c.123-.039.334-.088.391-.017.166.216-.072.478-.184.6a14.625,14.625,0,0,1,.176,1.78c.588-.478,1.444-1.2,2.125-1.805.181.282.445.671.908,1.268a7.717,7.717,0,0,0,1.2,1.315Zm-6.123.484a5.02,5.02,0,0,0-2.276-.858l.526-1.272a4.028,4.028,0,0,1,2.322.842Zm6.563,4.274-1.1.855.324.419c.166.214.983,1.189,1.169,1.428a1,1,0,0,1,.025,1.439,9.472,9.472,0,0,1-1.448,1.221l-1.51-.858c.231-.122,1.181-.65,1.29-.734.357-.279.186-.548-.231-1.086l-.743-.956-1.446,1.124c-.443.344-2.262,1.776-3.463,2.845l-.893-1.148c1.485-1,3.517-2.579,3.613-2.653l1.434-1.115a7.274,7.274,0,0,0-1.116-1.165l.937-.421a12.9,12.9,0,0,0,.322-1.61l-2.606,2.025c-.539.418-1.067.847-1.577,1.3l-.837-1.076c.213-.146,1.966-1.392,2.3-1.653l1.338-1.04c.539-.418,1.652-1.378,2.107-1.829l.9.3c-.044.264-.27,1.627-.3,1.9l-.111.892-.185,1.465,1.063-.826c.527-.408,2.382-1.869,3.5-2.873l.892,1.148C701.33,5369.978,699.973,5370.993,698.85,5371.866Z" fill="#333"/>
      </g>
      <g id="グループ_789" data-name="グループ 789">
        <path id="パス_1685" data-name="パス 1685" d="M714.437,5365.978l-4.124,2.207c-1.308.7-2.616,1.434-3.879,2.214l-.7-1.307c1.413-.635,3.4-1.666,4-1.988l1.749-.936-1.514-2.829-.855.457c-.973.521-1.947,1.077-2.857,1.684l-.707-1.32c1.051-.442,2.533-1.2,2.986-1.445l.855-.457-1.244-2.321-2.962,1.585a8.739,8.739,0,0,1-.609,3.192l-1.585-.266a9.048,9.048,0,0,0,.344-6.349l1.629-.166c.175-.027.385-.018.457.116.106.2-.113.335-.367.471.027.242.03.343.105,1.317.01.148.011.183.021.3l2.389-1.279c-.507-.947-1.091-1.973-1.877-3.184l1.76-.752c.221-.1.429-.195.528-.009s-.03.361-.287.618c.4.883.784,1.623,1.29,2.571l1.014-.543c.214-.115,1.483-.793,3.006-1.762l.707,1.321c-1.057.462-2.1.973-3.134,1.523l-1.014.543,1.244,2.321.613-.329c1.015-.542,1.993-1.118,2.951-1.733l.707,1.321c-1.25.55-2.373,1.115-3.08,1.494l-.613.328,1.513,2.829.961-.515c.267-.142,2-1.071,4.034-2.311l.7,1.308C717.193,5364.554,715.8,5365.249,714.437,5365.978Z" fill="#333"/>
      </g>
      <g id="グループ_790" data-name="グループ 790">
        <path id="パス_1686" data-name="パス 1686" d="M730.411,5358.484a15.579,15.579,0,0,0-5.084-2.525,16.006,16.006,0,0,1-3.778,5.877l-1.536-.862a12.711,12.711,0,0,0,2.936-3.379,13.755,13.755,0,0,0,1.8-6.882l-2.523.945a32.434,32.434,0,0,0-3.373,1.44l-.53-1.417c.469-.128,2.239-.709,2.82-.927l2.084-.781a9.052,9.052,0,0,0,1.674-.708,1.61,1.61,0,0,0,.573-.586l1.484.769c-.2.284-.259.388-.494.751a32.061,32.061,0,0,1-.734,4.429,18.948,18.948,0,0,1,5.445,2.406Z" fill="#333"/>
      </g>
      <g id="グループ_791" data-name="グループ 791">
        <path id="パス_1687" data-name="パス 1687" d="M741.8,5346.887a18.757,18.757,0,0,1-.531,4.1c.609.23,1.005.424,1.578.7l-.67,1.492a9.631,9.631,0,0,0-1.387-.747,11.064,11.064,0,0,1-4.524,5.28l-1.418-.924a8.688,8.688,0,0,0,3.511-2.947,8.9,8.9,0,0,0,1.091-1.917,26.49,26.49,0,0,0-3.248-.737l.488-1.117c.845.059,2.784.408,3.2.5a11.6,11.6,0,0,0,.344-3.44l-4.172,1.1a12.308,12.308,0,0,1-2.017,3.977l-1.629-.477a8.9,8.9,0,0,0,2.2-3.651,12.066,12.066,0,0,0,.641-2.611,4.192,4.192,0,0,0,.01-.848l1.762.208c.1.006.283.066.318.2.054.205-.241.393-.5.492-.07.207-.356,1.316-.38,1.4l1.785-.471a13.84,13.84,0,0,0,1.771-.64,3.615,3.615,0,0,0,.881-.577l1.361.767A3.6,3.6,0,0,0,741.8,5346.887Z" fill="#333"/>
      </g>
      <g id="グループ_792" data-name="グループ 792">
        <path id="パス_1688" data-name="パス 1688" d="M748.027,5349.061a10.173,10.173,0,0,0-1.727-2.124l1.052-.572a11.528,11.528,0,0,1,1.719,2.08Zm2.809-1.159a8.132,8.132,0,0,0-1.689-2.161l1.05-.585a10.128,10.128,0,0,1,1.694,2.192Zm4.633-2.661a.532.532,0,0,0-.252.229c-.031.082-.208,1.6-.263,1.9a10.052,10.052,0,0,1-4.353,6.855l-1.145-.735a8.709,8.709,0,0,0,3.524-3.8,11.064,11.064,0,0,0,.877-5.134l1.239.227c.316.051.5.126.52.246S755.568,5345.192,755.469,5345.241Z" fill="#333"/>
      </g>
      <g id="グループ_793" data-name="グループ 793">
        <path id="パス_1689" data-name="パス 1689" d="M767.67,5341.809a13.021,13.021,0,0,1-2.553,6.874,11.4,11.4,0,0,1-3.879,3.241l-1.525-1.145a8.943,8.943,0,0,0,5.51-5.17,8.046,8.046,0,0,0,.881-3.918l-3.6.394c-.844.092-3.822.555-4.9.749l-.162-1.49c1.018-.02,2.992-.206,3.82-.3l2.528-.276a20.538,20.538,0,0,0,2.108-.352.953.953,0,0,0,.655-.422l1.456.922C767.932,5341.142,767.871,5341.284,767.67,5341.809Z" fill="#333"/>
      </g>
      <g id="グループ_794" data-name="グループ 794">
        <path id="パス_1690" data-name="パス 1690" d="M779.126,5349.564a1.978,1.978,0,0,1-1.846,1.251,9.653,9.653,0,0,1-1.4-.127l-.285-1.536a6.167,6.167,0,0,0,1.493.247c.3-.011.633-.085.982-.856a10.385,10.385,0,0,0,.553-3.777,2.5,2.5,0,0,0-.356-1.411,1.019,1.019,0,0,0-.627-.158,6.2,6.2,0,0,0-1.294.232,29.306,29.306,0,0,1-1.334,4.731,15.2,15.2,0,0,1-1.412,2.72l-1.627-.574a13.256,13.256,0,0,0,2.873-6.471,16.954,16.954,0,0,0-2.356.952l-.513-1.54a21.312,21.312,0,0,0,3.078-.708,19,19,0,0,0,.16-3.37l1.915.185a.227.227,0,0,1,.22.189c.006.2-.289.391-.467.5a14.362,14.362,0,0,0-.359,2.1,7.541,7.541,0,0,1,1.4-.235c1.482-.057,1.988,1.273,2.049,2.861A11.8,11.8,0,0,1,779.126,5349.564Zm2.52-3.05-.992-1.37c.332-.013,1.393-.04,1.369-.66-.01-.271-.512-1.509-2.717-3.335l1.121-.8a15.839,15.839,0,0,1,2.468,2.754,3.205,3.205,0,0,1,.7,1.61C783.612,5345.259,783.269,5346.164,781.646,5346.514Zm1.176-5.317c-.174-.189-.7-.746-.8-.847a3.76,3.76,0,0,0-.579-.448l.7-.784a13.068,13.068,0,0,1,1.443,1.309Zm1.457-1.1a9.5,9.5,0,0,0-1.412-1.28l.747-.679a10.846,10.846,0,0,1,1.41,1.234Z" fill="#333"/>
      </g>
      <g id="グループ_795" data-name="グループ 795">
        <path id="パス_1691" data-name="パス 1691" d="M800.762,5344.889a11.162,11.162,0,0,1-6.1-4.969,12.292,12.292,0,0,1-2.818,2.849,13.847,13.847,0,0,1-3.528,1.973l-1.054-1.342a11.687,11.687,0,0,0,3.95-1.957,9.158,9.158,0,0,0,2.9-3.483l1.45.555c.343.133.417.212.412.333s-.129.223-.253.294a9.1,9.1,0,0,0,2.488,2.712,12.013,12.013,0,0,0,3.706,1.79Zm-4.316,6.458-4.31-.16c-1.225-.046-2.77-.089-4.375-.042l.055-1.483c1.328.141,1.69.154,2.416.2l.1-2.828c.034-.907.031-1.256.011-2.332l1.611.24c.377.061.495.125.489.276-.007.2-.112.224-.513.376l-.162,4.341.409.015,1.482.055.172-4.629c.037-1,.035-1.361,0-2.817l1.566.224c.422.062.573.082.565.3-.007.166-.053.195-.53.419l-.078,2.071,1.845.07c.409.014.607.008.954.006h.849l-.054,1.452c-.877-.062-1.147-.088-1.767-.111l-1.892-.07-.117,3.147,1.315.048c1.484.055,2.951.08,4.422.043l-.056,1.483C799.637,5351.511,798.232,5351.413,796.446,5351.347Z" fill="#333"/>
      </g>
      <g id="グループ_796" data-name="グループ 796">
        <path id="パス_1692" data-name="パス 1692" d="M817.735,5344.049c-.124.778-.232,1.573-.328,2.37l-.237,1.983c-.095.8-.514,4.68-.539,5.272l-1.548-.185a7.415,7.415,0,0,0,.194-.983l-9.29-1.11c-.019.166-.087.858-.087,1l-1.534-.184c.147-.714.436-2.493.506-3.08l.456-3.817.2-1.713c.071-.587.164-1.369.179-1.748l1.387.257c.314.054.448.084.426.264-.016.135-.05.163-.438.344-.18,1.122-.247,1.556-.319,2.157l-.638,5.336,9.3,1.112.594-4.974c.062-.511.231-2.184.333-3.177l1.406.243c.253.045.445.084.421.28S817.961,5343.954,817.735,5344.049Zm-3.464-2.654-1.743-.208-.2,1.637,1.187.142c.256.031,1.4.137,1.628.148-.117.734-.239,1.755-.316,2.4l-.307,2.57c-.083.691-.119.992-.194,1.867-.462-.085-1.3-.216-2.021-.3l-3.1-.37c-.467-.055-.647-.077-1.722-.145.031-.255.223-1.345.25-1.57l.289-2.42c.165-1.382.157-1.445.247-2.837.583.1,1.169.17,1.454.205l1.369.163.2-1.638-1.653-.2c-1.414-.169-1.915-.306-4.459-.443l.162-1.351c1.788.335,4.266.646,4.431.666l4.629.553c1.489.177,2.981.325,4.466.4l-.162,1.352C817.44,5341.788,816.2,5341.625,814.271,5341.4Zm-3.641,5.219-1.488-.177-.2,1.623,1.489.177Zm.328-2.75-1.488-.177-.191,1.592,1.489.178Zm2.407,3.077-1.5-.179-.194,1.623,1.5.179Zm.328-2.75-1.5-.179L812,5345.6l1.5.18Z" fill="#333"/>
      </g>
      <g id="グループ_797" data-name="グループ 797">
        <path id="パス_1693" data-name="パス 1693" d="M824.742,5348.267a1.469,1.469,0,1,1-1.172-1.714A1.469,1.469,0,0,1,824.742,5348.267Z" fill="#333"/>
      </g>
      <g id="グループ_798" data-name="グループ 798">
        <path id="パス_1694" data-name="パス 1694" d="M840.149,5358.742c-1.356-.377-7.419-1.9-8.608-2.375a2.755,2.755,0,0,1-1.678-1.763,11.831,11.831,0,0,1-1.739.711c-.1.367-.2.588-.468.518-.117-.031-.127-.112-.14-.179l-.256-1.681a12.146,12.146,0,0,0,2.049-.455l.846-3.176-.907-.241c-.16-.043-.476-.1-.819-.157l.355-1.33a5.17,5.17,0,0,0,.939.3l1.111.3a7.092,7.092,0,0,0,1.035.231c-.1.365-.373,1.279-.455,1.585l-.554,2.077a1.766,1.766,0,0,0,.316,1.4c.484.771.865.873,3.189,1.494a44.5,44.5,0,0,0,6.611,1.416Zm-9.167-11.5a10.125,10.125,0,0,0-1.291-3.384l1.3-.544a9.077,9.077,0,0,1,1.442,3.408Zm10.309,1.058a4.976,4.976,0,0,0,.232-.753l.191-.717-3-.8-.2.746.4.106c1.213.324,2.221.545,2.311.554l-.269,1.008c-.537-.159-1.4-.4-2.2-.617l-.483-.129-.18.672.717.192c.746.2,1.723.412,2.484.553-.15.445-.425,1.359-.469,1.521l-.4,1.506a15.906,15.906,0,0,0-.311,1.75c-.433-.132-1.246-.38-2.416-.692l-.818-.219-.162.724,1.112.3c.76.2,1.4.342,2.827.677l-.3,1.126c-.333-.1-1.648-.519-2.7-.8l-1.154-.309a10.945,10.945,0,0,0-.242,1.377l-1.594-.426c.115-.314.215-.568.432-1.325l-.907-.242c-.688-.184-1.686-.435-2.905-.681l.3-1.14c.934.311,2.275.684,2.891.848l.906.242.206-.711-.658-.176c-.438-.117-2.159-.545-2.528-.627a9.861,9.861,0,0,0,.448-1.385l.476-1.785c.031-.117.261-.978.348-1.537.788.273.964.32,2.543.742l.6.16.18-.672-.394-.1c-.5-.133-1.583-.408-2.353-.52l.288-1.082a19.349,19.349,0,0,0,2.295.676l.41.11.2-.747-3.056-.816-.183.688a6.647,6.647,0,0,0-.156.757l-1.359-.362a8.659,8.659,0,0,0,.273-.852l.227-.847a7.136,7.136,0,0,0,.167-.8c.789.273,1.52.469,3.172.909l3.393.9c1.6.425,1.778.443,3.33.794a7.659,7.659,0,0,0-.281.819l-.239.891a3.89,3.89,0,0,0-.153.868Zm-5.218,2.524-1.871-.5-.237.892,1.871.5Zm.48-1.8-1.871-.5-.234.878,1.871.5Zm2.679,2.643-1.886-.5-.239.892,1.887.5Zm.481-1.8-1.887-.5-.234.878,1.887.5Z" fill="#333"/>
      </g>
      <g id="グループ_799" data-name="グループ 799">
        <path id="パス_1695" data-name="パス 1695" d="M852.043,5363.663a2.729,2.729,0,0,0,.237-.475l-6.845-2.732c-.115.329-.132.371-.168.5l-1.35-.539c.159-.277.538-1.1.555-1.147l.477-1.195c.185-.464.489-1.387.631-1.867a13.675,13.675,0,0,0,1.592.75l1.631.65a11.123,11.123,0,0,0,.924-.8l-.212-.084c-.337-.135-2.179-.788-2.683-.957.092-.143.4-.834.461-.99l.331-.829c.045-.113.458-1.187.577-1.611.356.174,2.709,1.178,2.821,1.223l1.645.656c.7.281,2.421.918,3.062,1.108-.057.141-.539,1.269-.628,1.493l-.331.83c-.068.168-.348.954-.382,1.12-.574-.28-2.1-.938-2.736-1.191l-.562-.224c-.388.4-.666.647-.868.827l3.135,1.252a17.087,17.087,0,0,0,1.794.568c-.356.771-.468,1.052-.749,1.755l-.41,1.026c-.162.408-.342,1.021-.5,1.461Zm4.213-6.761c.151-.3.741-1.692.867-1.968l-9.448-3.77c-.575,1.482-.656,1.727-.745,2.033l-1.407-.56c.309-.612.595-1.328.853-1.975a8.158,8.158,0,0,0,.4-1.128c.969.436,1.618.728,2.551,1.083a6.435,6.435,0,0,0-.473-2.16l1.43-.277a6.776,6.776,0,0,1,.485,2.3l-1.265.228,1.5.6,3.317,1.324c.2.078,1.117.43,1.3.5l-.773-.879a6.918,6.918,0,0,0,1.873-1.551l1.03,1.1c.14.137.224.252.174.379-.039.1-.186.22-.574.049-.184.136-1.126.822-1.462,1.013,1.622.631,2.288.879,2.958,1.082a18.711,18.711,0,0,0-1.149,3.16Zm-2.972,3.77-6.846-2.733-.572,1.434,6.846,2.732Zm.751-4.737-4.922-1.964-.527,1.322,4.922,1.963Zm-1.558-4.06a6.592,6.592,0,0,0-.222-2.387l1.451-.2a8.343,8.343,0,0,1,.279,2.442Z" fill="#333"/>
      </g>
      <g id="グループ_800" data-name="グループ 800">
        <path id="パス_1696" data-name="パス 1696" d="M870.455,5361.815c-.842-.479-1.172-.633-1.708-.886-.19.275-.982,1.512-1.146,1.768a5.164,5.164,0,0,1-.659,2.5,8.035,8.035,0,0,1-4.879,3.612l-1.156-1.459a4.019,4.019,0,0,0,1.781-.222,4.288,4.288,0,0,0,1.8-1.2,1.842,1.842,0,0,1-1.187-.24,2.3,2.3,0,0,1-.6-3.233c.637-1.117,2.169-2.092,3.51-1.328a6.234,6.234,0,0,1,.6.393c.214-.348.259-.427.686-1.176a48.827,48.827,0,0,0-5.535-2.546l.635-1.45c.347.215.432.281.827.506.473.269,2.6,1.375,3.024,1.6.6.324.928.512,1.58.866a13.727,13.727,0,0,0,1.057-2.219l1.369.867c.2.133.492.3.373.508a.3.3,0,0,1-.237.109c-.191.03-.211.037-.383.061a9.985,9.985,0,0,0-.871,1.316,33.51,33.51,0,0,0,4.238,1.979l-.712,1.371C871.744,5362.551,870.744,5361.98,870.455,5361.815Zm-4.865.468c-.553-.315-1.287.085-1.707.821-.48.842-.111,1.418.152,1.568.842.48,1.462-.3,1.717-.746C866.179,5363.176,866.023,5362.529,865.59,5362.283Z" fill="#333"/>
      </g>
      <g id="グループ_801" data-name="グループ 801">
        <path id="パス_1697" data-name="パス 1697" d="M874.462,5376.08c-1.024-.807-2.108-2.412-1.209-3.554a2.243,2.243,0,0,1,3.123-.1,3.626,3.626,0,0,1,1.253,2.18,3.8,3.8,0,0,1,0,1.271,2.551,2.551,0,0,0,2.237-.934,2.292,2.292,0,0,0-.473-3.533,5.308,5.308,0,0,0-2.97-1.048,15.626,15.626,0,0,0-3.248.332l-.369-1.562a42.606,42.606,0,0,0,8.63-1.123c-.918-.452-1.364-.668-2.256-1.2-.244-.154-1.307-.835-1.528-.971l.659-1.351a7.465,7.465,0,0,0,.748.666,19,19,0,0,0,4.758,2.668l.058,1.394a7.155,7.155,0,0,0-2.2.078,24.628,24.628,0,0,0-3.043.514,4.191,4.191,0,0,1,1.812.83,3.574,3.574,0,0,1,.737,5.009A4.791,4.791,0,0,1,874.462,5376.08Zm1.9-1.53a2.2,2.2,0,0,0-.762-1.14c-.594-.467-1.106-.331-1.275-.117-.355.452.171,1.252.861,1.795a3.309,3.309,0,0,0,1.061.586A2.555,2.555,0,0,0,876.361,5374.55Z" fill="#333"/>
      </g>
    </g>
    <g id="グループ_818" data-name="グループ 818">
      <g id="グループ_817" data-name="グループ 817">
        <path id="パス_1709" data-name="パス 1709" d="M588.576,5411.892a13.1,13.1,0,0,1,1.08-5.472,11.578,11.578,0,0,1,2.88-3.96,12.2,12.2,0,0,1,3.925-2.3,12.772,12.772,0,0,1,8.855,0,13.122,13.122,0,0,1,4,2.3,12.054,12.054,0,0,1,2.807,3.96,13.1,13.1,0,0,1,1.08,5.472v27.072a12.973,12.973,0,0,1-1.08,5.544,11.438,11.438,0,0,1-2.807,3.816,12.394,12.394,0,0,1-4,2.376,12.772,12.772,0,0,1-8.855,0,11.557,11.557,0,0,1-3.925-2.376,11.007,11.007,0,0,1-2.88-3.816,12.973,12.973,0,0,1-1.08-5.544Zm7.344,27.072a4.881,4.881,0,0,0,1.476,3.924,5.471,5.471,0,0,0,6.985,0,4.887,4.887,0,0,0,1.475-3.924v-27.072a4.89,4.89,0,0,0-1.475-3.924,5.471,5.471,0,0,0-6.985,0,4.884,4.884,0,0,0-1.476,3.924Z" fill="none" stroke="#fff" stroke-miterlimit="10" stroke-width="12"/>
        <path id="パス_1710" data-name="パス 1710" d="M626.88,5451.06V5399.8H637.9a16.381,16.381,0,0,1,5.328.792,10.26,10.26,0,0,1,4.176,2.808,11,11,0,0,1,2.592,4.716,29.551,29.551,0,0,1,.72,7.308,36.365,36.365,0,0,1-.4,5.832,12.2,12.2,0,0,1-1.692,4.464,10.727,10.727,0,0,1-4.032,3.924,13.575,13.575,0,0,1-6.624,1.4h-3.744v20.016Zm7.344-44.352v17.424h3.528a7.5,7.5,0,0,0,3.456-.648,4.083,4.083,0,0,0,1.8-1.8,6.575,6.575,0,0,0,.683-2.664q.109-1.584.109-3.528,0-1.8-.071-3.42a7.436,7.436,0,0,0-.649-2.844,4.105,4.105,0,0,0-1.728-1.872,6.858,6.858,0,0,0-3.312-.648Z" fill="none" stroke="#fff" stroke-miterlimit="10" stroke-width="12"/>
        <path id="パス_1711" data-name="パス 1711" d="M663.383,5451.06V5399.8h21.888v6.912H670.727v15.048H683.4v6.912H670.727v15.048h14.544v7.344Z" fill="none" stroke="#fff" stroke-miterlimit="10" stroke-width="12"/>
        <path id="パス_1712" data-name="パス 1712" d="M696.935,5451.06V5399.8h7.055l11.088,30.888h.145V5399.8h7.343v51.264h-6.912l-11.231-30.816h-.145v30.816Z" fill="none" stroke="#fff" stroke-miterlimit="10" stroke-width="12"/>
        <path id="パス_1713" data-name="パス 1713" d="M780.31,5436.444v3.168a11.413,11.413,0,0,1-.9,4.5,12.46,12.46,0,0,1-2.483,3.78,11.982,11.982,0,0,1-3.708,2.628,10.866,10.866,0,0,1-4.572.972,16.535,16.535,0,0,1-4.249-.575,10.026,10.026,0,0,1-3.887-2.017,11.125,11.125,0,0,1-2.845-3.708,13.125,13.125,0,0,1-1.115-5.8v-28.224a12.487,12.487,0,0,1,.863-4.68,11,11,0,0,1,2.448-3.743,11.39,11.39,0,0,1,3.781-2.485,12.708,12.708,0,0,1,4.859-.9,11.141,11.141,0,0,1,8.425,3.385,12.051,12.051,0,0,1,2.483,3.923,13.259,13.259,0,0,1,.9,4.932v2.88h-7.344v-2.448a5.946,5.946,0,0,0-1.225-3.744,3.967,3.967,0,0,0-3.311-1.584q-2.739,0-3.637,1.692a9.062,9.062,0,0,0-.9,4.284v26.208a6.8,6.8,0,0,0,.971,3.744,3.831,3.831,0,0,0,3.492,1.512,5.3,5.3,0,0,0,1.548-.252,4.6,4.6,0,0,0,1.548-.828,4.368,4.368,0,0,0,1.08-1.584,6.416,6.416,0,0,0,.433-2.52v-2.52Z" fill="none" stroke="#fff" stroke-miterlimit="10" stroke-width="12"/>
        <path id="パス_1714" data-name="パス 1714" d="M790.173,5451.06l11.448-51.264h6.12l11.448,51.264h-7.343l-2.16-11.016H799.678l-2.16,11.016Zm18.144-17.928-3.6-18.576h-.145l-3.6,18.576Z" fill="none" stroke="#fff" stroke-miterlimit="10" stroke-width="12"/>
        <path id="パス_1715" data-name="パス 1715" d="M829.989,5451.06V5399.8h7.056l9.433,27.144h.143l9.36-27.144h7.128v51.264h-7.343v-31.176h-.145l-7.271,22.033h-3.673l-7.2-22.033h-.145v31.176Z" fill="none" stroke="#fff" stroke-miterlimit="10" stroke-width="12"/>
        <path id="パス_1716" data-name="パス 1716" d="M877.221,5451.06V5399.8h11.015a16.377,16.377,0,0,1,5.328.792,10.24,10.24,0,0,1,4.176,2.808,10.99,10.99,0,0,1,2.593,4.716,29.551,29.551,0,0,1,.72,7.308,36.239,36.239,0,0,1-.4,5.832,12.165,12.165,0,0,1-1.691,4.464,10.72,10.72,0,0,1-4.032,3.924,13.572,13.572,0,0,1-6.624,1.4h-3.745v20.016Zm7.343-44.352v17.424h3.529a7.5,7.5,0,0,0,3.456-.648,4.083,4.083,0,0,0,1.8-1.8,6.576,6.576,0,0,0,.683-2.664q.108-1.584.109-3.528,0-1.8-.073-3.42a7.381,7.381,0,0,0-.647-2.844,4.1,4.1,0,0,0-1.729-1.872,6.857,6.857,0,0,0-3.311-.648Z" fill="none" stroke="#fff" stroke-miterlimit="10" stroke-width="12"/>
        <path id="パス_1717" data-name="パス 1717" d="M937.484,5399.8v39.745a11.593,11.593,0,0,1-3.456,8.423,12.193,12.193,0,0,1-3.815,2.592,11.492,11.492,0,0,1-4.609.936,11.23,11.23,0,0,1-4.572-.936,12.516,12.516,0,0,1-6.372-6.372,11.38,11.38,0,0,1-.935-4.643V5399.8h7.343v39.024a5.5,5.5,0,0,0,1.3,4.032,4.7,4.7,0,0,0,6.481,0,5.5,5.5,0,0,0,1.3-4.032V5399.8Z" fill="none" stroke="#fff" stroke-miterlimit="10" stroke-width="12"/>
        <path id="パス_1718" data-name="パス 1718" d="M975.356,5414.556h-7.343V5412.9a7.842,7.842,0,0,0-1.189-4.356,4.393,4.393,0,0,0-3.995-1.836,4.622,4.622,0,0,0-2.448.576,4.817,4.817,0,0,0-1.513,1.44,6.091,6.091,0,0,0-.792,2.124,13.959,13.959,0,0,0-.216,2.485,24.024,24.024,0,0,0,.109,2.519,4.773,4.773,0,0,0,.54,1.8,3.981,3.981,0,0,0,1.26,1.368,11.413,11.413,0,0,0,2.268,1.152l5.615,2.232a13.976,13.976,0,0,1,3.96,2.2,9.485,9.485,0,0,1,2.376,2.916,13.6,13.6,0,0,1,1.08,3.924,38.835,38.835,0,0,1,.288,5,26.4,26.4,0,0,1-.647,6.013,12.7,12.7,0,0,1-2.088,4.715,10.36,10.36,0,0,1-3.961,3.168,13.98,13.98,0,0,1-5.975,1.152,13.084,13.084,0,0,1-4.968-.936,11.768,11.768,0,0,1-3.96-2.592,12.55,12.55,0,0,1-2.628-3.852,11.679,11.679,0,0,1-.973-4.788v-2.736H957.5v2.3a6,6,0,0,0,1.187,3.636,4.63,4.63,0,0,0,4,1.62,6.449,6.449,0,0,0,2.916-.54,3.876,3.876,0,0,0,1.62-1.548,5.685,5.685,0,0,0,.683-2.412q.109-1.4.109-3.132a30.989,30.989,0,0,0-.145-3.312,5.724,5.724,0,0,0-.575-2.088,4.079,4.079,0,0,0-1.332-1.3,17.449,17.449,0,0,0-2.2-1.08l-5.256-2.16q-4.752-1.944-6.372-5.148a17.707,17.707,0,0,1-1.62-8.028,18.594,18.594,0,0,1,.792-5.472,12.425,12.425,0,0,1,2.376-4.464,10.9,10.9,0,0,1,3.852-2.988,12.865,12.865,0,0,1,5.579-1.116,12.21,12.21,0,0,1,5,1.008,12.912,12.912,0,0,1,3.924,2.664,11.127,11.127,0,0,1,3.311,7.921Z" fill="none" stroke="#fff" stroke-miterlimit="10" stroke-width="12"/>
      </g>
    </g>
    <g id="グループ_820" data-name="グループ 820">
      <g id="グループ_819" data-name="グループ 819">
        <path id="パス_1719" data-name="パス 1719" d="M588.576,5411.892a13.1,13.1,0,0,1,1.08-5.472,11.578,11.578,0,0,1,2.88-3.96,12.2,12.2,0,0,1,3.925-2.3,12.772,12.772,0,0,1,8.855,0,13.122,13.122,0,0,1,4,2.3,12.054,12.054,0,0,1,2.807,3.96,13.1,13.1,0,0,1,1.08,5.472v27.072a12.973,12.973,0,0,1-1.08,5.544,11.438,11.438,0,0,1-2.807,3.816,12.394,12.394,0,0,1-4,2.376,12.772,12.772,0,0,1-8.855,0,11.557,11.557,0,0,1-3.925-2.376,11.007,11.007,0,0,1-2.88-3.816,12.973,12.973,0,0,1-1.08-5.544Zm7.344,27.072a4.881,4.881,0,0,0,1.476,3.924,5.471,5.471,0,0,0,6.985,0,4.887,4.887,0,0,0,1.475-3.924v-27.072a4.89,4.89,0,0,0-1.475-3.924,5.471,5.471,0,0,0-6.985,0,4.884,4.884,0,0,0-1.476,3.924Z" fill="#00ad93"/>
        <path id="パス_1720" data-name="パス 1720" d="M626.88,5451.06V5399.8H637.9a16.381,16.381,0,0,1,5.328.792,10.26,10.26,0,0,1,4.176,2.808,11,11,0,0,1,2.592,4.716,29.551,29.551,0,0,1,.72,7.308,36.365,36.365,0,0,1-.4,5.832,12.2,12.2,0,0,1-1.692,4.464,10.727,10.727,0,0,1-4.032,3.924,13.575,13.575,0,0,1-6.624,1.4h-3.744v20.016Zm7.344-44.352v17.424h3.528a7.5,7.5,0,0,0,3.456-.648,4.083,4.083,0,0,0,1.8-1.8,6.575,6.575,0,0,0,.683-2.664q.109-1.584.109-3.528,0-1.8-.071-3.42a7.436,7.436,0,0,0-.649-2.844,4.105,4.105,0,0,0-1.728-1.872,6.858,6.858,0,0,0-3.312-.648Z" fill="#e65290"/>
        <path id="パス_1721" data-name="パス 1721" d="M663.383,5451.06V5399.8h21.888v6.912H670.727v15.048H683.4v6.912H670.727v15.048h14.544v7.344Z" fill="#00ace6"/>
        <path id="パス_1722" data-name="パス 1722" d="M696.935,5451.06V5399.8h7.055l11.088,30.888h.145V5399.8h7.343v51.264h-6.912l-11.231-30.816h-.145v30.816Z" fill="#ee8a00"/>
        <path id="パス_1723" data-name="パス 1723" d="M780.31,5436.444v3.168a11.413,11.413,0,0,1-.9,4.5,12.46,12.46,0,0,1-2.483,3.78,11.982,11.982,0,0,1-3.708,2.628,10.866,10.866,0,0,1-4.572.972,16.535,16.535,0,0,1-4.249-.575,10.026,10.026,0,0,1-3.887-2.017,11.125,11.125,0,0,1-2.845-3.708,13.125,13.125,0,0,1-1.115-5.8v-28.224a12.487,12.487,0,0,1,.863-4.68,11,11,0,0,1,2.448-3.743,11.39,11.39,0,0,1,3.781-2.485,12.708,12.708,0,0,1,4.859-.9,11.141,11.141,0,0,1,8.425,3.385,12.051,12.051,0,0,1,2.483,3.923,13.259,13.259,0,0,1,.9,4.932v2.88h-7.344v-2.448a5.946,5.946,0,0,0-1.225-3.744,3.967,3.967,0,0,0-3.311-1.584q-2.739,0-3.637,1.692a9.062,9.062,0,0,0-.9,4.284v26.208a6.8,6.8,0,0,0,.971,3.744,3.831,3.831,0,0,0,3.492,1.512,5.3,5.3,0,0,0,1.548-.252,4.6,4.6,0,0,0,1.548-.828,4.368,4.368,0,0,0,1.08-1.584,6.416,6.416,0,0,0,.433-2.52v-2.52Z" fill="#7fbc26"/>
        <path id="パス_1724" data-name="パス 1724" d="M790.173,5451.06l11.448-51.264h6.12l11.448,51.264h-7.343l-2.16-11.016H799.678l-2.16,11.016Zm18.144-17.928-3.6-18.576h-.145l-3.6,18.576Z" fill="#3071b5"/>
        <path id="パス_1725" data-name="パス 1725" d="M829.989,5451.06V5399.8h7.056l9.433,27.144h.143l9.36-27.144h7.128v51.264h-7.343v-31.176h-.145l-7.271,22.033h-3.673l-7.2-22.033h-.145v31.176Z" fill="#ffd600"/>
        <path id="パス_1726" data-name="パス 1726" d="M877.221,5451.06V5399.8h11.015a16.377,16.377,0,0,1,5.328.792,10.24,10.24,0,0,1,4.176,2.808,10.99,10.99,0,0,1,2.593,4.716,29.551,29.551,0,0,1,.72,7.308,36.239,36.239,0,0,1-.4,5.832,12.165,12.165,0,0,1-1.691,4.464,10.72,10.72,0,0,1-4.032,3.924,13.572,13.572,0,0,1-6.624,1.4h-3.745v20.016Zm7.343-44.352v17.424h3.529a7.5,7.5,0,0,0,3.456-.648,4.083,4.083,0,0,0,1.8-1.8,6.576,6.576,0,0,0,.683-2.664q.108-1.584.109-3.528,0-1.8-.073-3.42a7.381,7.381,0,0,0-.647-2.844,4.1,4.1,0,0,0-1.729-1.872,6.857,6.857,0,0,0-3.311-.648Z" fill="#00ad93"/>
        <path id="パス_1727" data-name="パス 1727" d="M937.484,5399.8v39.745a11.593,11.593,0,0,1-3.456,8.423,12.193,12.193,0,0,1-3.815,2.592,11.492,11.492,0,0,1-4.609.936,11.23,11.23,0,0,1-4.572-.936,12.516,12.516,0,0,1-6.372-6.372,11.38,11.38,0,0,1-.935-4.643V5399.8h7.343v39.024a5.5,5.5,0,0,0,1.3,4.032,4.7,4.7,0,0,0,6.481,0,5.5,5.5,0,0,0,1.3-4.032V5399.8Z" fill="#e65290"/>
        <path id="パス_1728" data-name="パス 1728" d="M975.356,5414.556h-7.343V5412.9a7.842,7.842,0,0,0-1.189-4.356,4.393,4.393,0,0,0-3.995-1.836,4.622,4.622,0,0,0-2.448.576,4.817,4.817,0,0,0-1.513,1.44,6.091,6.091,0,0,0-.792,2.124,13.959,13.959,0,0,0-.216,2.485,24.024,24.024,0,0,0,.109,2.519,4.773,4.773,0,0,0,.54,1.8,3.981,3.981,0,0,0,1.26,1.368,11.413,11.413,0,0,0,2.268,1.152l5.615,2.232a13.976,13.976,0,0,1,3.96,2.2,9.485,9.485,0,0,1,2.376,2.916,13.6,13.6,0,0,1,1.08,3.924,38.835,38.835,0,0,1,.288,5,26.4,26.4,0,0,1-.647,6.013,12.7,12.7,0,0,1-2.088,4.715,10.36,10.36,0,0,1-3.961,3.168,13.98,13.98,0,0,1-5.975,1.152,13.084,13.084,0,0,1-4.968-.936,11.768,11.768,0,0,1-3.96-2.592,12.55,12.55,0,0,1-2.628-3.852,11.679,11.679,0,0,1-.973-4.788v-2.736H957.5v2.3a6,6,0,0,0,1.187,3.636,4.63,4.63,0,0,0,4,1.62,6.449,6.449,0,0,0,2.916-.54,3.876,3.876,0,0,0,1.62-1.548,5.685,5.685,0,0,0,.683-2.412q.109-1.4.109-3.132a30.989,30.989,0,0,0-.145-3.312,5.724,5.724,0,0,0-.575-2.088,4.079,4.079,0,0,0-1.332-1.3,17.449,17.449,0,0,0-2.2-1.08l-5.256-2.16q-4.752-1.944-6.372-5.148a17.707,17.707,0,0,1-1.62-8.028,18.594,18.594,0,0,1,.792-5.472,12.425,12.425,0,0,1,2.376-4.464,10.9,10.9,0,0,1,3.852-2.988,12.865,12.865,0,0,1,5.579-1.116,12.21,12.21,0,0,1,5,1.008,12.912,12.912,0,0,1,3.924,2.664,11.127,11.127,0,0,1,3.311,7.921Z" fill="#00ace6"/>
      </g>
    </g>
  </g>
</svg>
