<svg xmlns="http://www.w3.org/2000/svg" width="184.674" height="144.764" viewBox="0 0 184.674 144.764">
  <g id="グループ_2196" data-name="グループ 2196" transform="translate(-222.02 -5638.623)">
    <g id="グループ_850" data-name="グループ 850">
      <path id="パス_1729" data-name="パス 1729" d="M266.181,5641.018l101.932,8.918,32.487,70.078-20.909,30,21.41,28.545-33.982-10.5-10.68,15.327-101.934-8.918-32.485-70.078Z" fill="#00ad93"/>
      <g id="グループ_849" data-name="グループ 849">
        <g id="グループ_847" data-name="グループ 847">
          <path id="パス_1730" data-name="パス 1730" d="M271.915,5638.987l99.152,8.675,31.317,67.556-42.573,61.092-99.152-8.675-31.317-67.556Z" fill="#fff"/>
          <path id="パス_1731" data-name="パス 1731" d="M225.32,5699.627l.844,1.925,7.478,17.052c2.475,5.692,5.051,11.337,7.6,17,2.571,5.648,5.051,11.337,7.7,16.952l7.856,16.876,1.059,2.275,2.441.182,49.633,3.688c8.275.578,16.552,1.14,24.837,1.608l24.863,1.318,1.339.071.657-1,10.189-15.589c3.367-5.217,6.885-10.329,10.343-15.482,3.536-5.1,7-10.252,10.615-15.293l5.383-7.593,5.493-7.517.5-.681-.364-.837c-2.481-5.69-4.875-11.419-7.272-17.147l-7.158-17.2c-2.429-5.713-4.816-11.446-7.345-17.113-2.465-5.7-5.071-11.328-7.661-16.967l-.869-1.893-2.086-.181c-8.415-.733-16.837-1.325-25.244-1.979-8.4-.523-16.8-1.141-25.14-1.561-8.35-.477-16.644-.85-24.876-1.2-8.209-.287-16.384-.608-24.377-.709-3.749,4.7-7.477,9.561-11.255,14.406-3.792,4.829-7.556,9.777-11.352,14.732L237.777,5682.8l-11.308,15.277Zm8.044.7,8.831-13.515,9.926-15.508,9.934-15.814,10.031-16.139c8.532,1.345,16.883,2.47,25.2,3.628,8.293,1.1,16.525,2.168,24.7,3.137,8.184,1.026,16.311,1.854,24.435,2.777,7.426.724,14.84,1.489,22.259,2.162,2.335,4.995,4.669,9.99,7.117,14.933,2.69,5.592,5.522,11.119,8.313,16.665l8.5,16.577c2.7,5.281,5.388,10.564,8.011,15.879l-4.642,6.99-5.26,7.679c-3.476,5.141-7.112,10.171-10.671,15.253-3.637,5.029-7.215,10.1-10.943,15.064l-10.3,13.877-23.518-2.874c-8.241-.977-16.489-1.862-24.739-2.729l-47.038-4.737-6.784-14.694c-2.576-5.646-5.315-11.215-7.964-16.827-2.676-5.6-5.319-11.213-8.064-16.78Z" fill="#333"/>
        </g>
        <g id="グループ_848" data-name="グループ 848">
          <path id="パス_1732" data-name="パス 1732" d="M360.092,5757.4l39.18,12.11-23.508-31.344Z" fill="#fff"/>
          <path id="パス_1733" data-name="パス 1733" d="M370.315,5759.043l5.041,1.051,5,1.176c3.979.957,7.921,2.034,11.842,3.179-.288-.41-.589-.809-.875-1.22-1.879-2.672-3.694-5.392-5.479-8.134-1.818-2.718-3.525-5.519-5.236-8.317-1.679-2.822-3.341-5.657-4.847-8.608,2.413,2.271,4.669,4.661,6.908,7.063,2.207,2.426,4.418,4.848,6.518,7.355,2.132,2.482,4.235,4.985,6.275,7.537s4.064,5.114,6.04,7.713l5.19,6.827-8.247-2.485c-6.544-1.972-13.041-4.1-19.442-6.534l-4.793-1.851-4.754-1.977c-3.149-1.384-6.3-2.767-9.366-4.415C363.554,5757.774,366.935,5758.409,370.315,5759.043Z" fill="#333"/>
        </g>
      </g>
    </g>
    <path id="パス_2690" data-name="パス 2690" d="M-41.563-3.349l-2.25.035q-.141,0-.167-.035a.3.3,0,0,1-.026-.158V-4.9q0-.149.035-.176a.3.3,0,0,1,.158-.026l2.25.035h4.737q-.035-1.011-.105-1.529l1.046.105a11.669,11.669,0,0,0,1.635-1.292h-3.885l-2.329.035q-.193,0-.193-.176V-9.185q0-.141.035-.167a.3.3,0,0,1,.158-.026l2.329.035h4.878a1.483,1.483,0,0,0,.431-.035.994.994,0,0,1,.229-.07q.176,0,.782.571.5.527.5.773a.291.291,0,0,1-.22.29,4.823,4.823,0,0,0-.861.6,21.89,21.89,0,0,1-2.522,1.863v.29h4.5l2.25-.035a.278.278,0,0,1,.176.035.328.328,0,0,1,.026.167v1.389A.264.264,0,0,1-28-3.344a.286.286,0,0,1-.171.031l-2.25-.035h-4.5V-2.18l.035,1.564A1.691,1.691,0,0,1-35.455.861a2.511,2.511,0,0,1-.993.316,14.317,14.317,0,0,1-1.767.079,1.05,1.05,0,0,1-.519-.07,1.164,1.164,0,0,1-.185-.448A5.208,5.208,0,0,0-39.454-.58q1.072.105,1.925.105a.835.835,0,0,0,.563-.141.671.671,0,0,0,.141-.483v-2.25Zm.044-11.118,1.081-.4a.534.534,0,0,1,.193-.053q.1,0,.2.141a12.534,12.534,0,0,1,1.2,1.872.5.5,0,0,1,.053.149q0,.062-.22.141l-1.187.431h3.744a12.157,12.157,0,0,0-1.028-2.25.3.3,0,0,1-.053-.132q0-.062.22-.141l1.187-.36a.647.647,0,0,1,.167-.035q.105,0,.193.141a11.874,11.874,0,0,1,.993,2.092.512.512,0,0,1,.026.123q0,.07-.229.149l-1.169.413h2.777A16.333,16.333,0,0,0-32.484-14a6,6,0,0,0,.272-.949,8.821,8.821,0,0,1,1.775.536q.255.114.255.272a.341.341,0,0,1-.176.272,1.046,1.046,0,0,0-.343.413q-.378.7-.738,1.274h.466l2.373-.035a.32.32,0,0,1,.193.035.3.3,0,0,1,.026.158l-.035.976v.826l.035,2.013q0,.158-.044.193a.355.355,0,0,1-.176.026h-1.415q-.149,0-.176-.044a.355.355,0,0,1-.026-.176v-2.373H-41.739v2.373q0,.149-.035.176a.3.3,0,0,1-.158.026h-1.424a.32.32,0,0,1-.193-.035.328.328,0,0,1-.026-.167l.035-2.03v-.668l-.035-1.116q0-.141.044-.167a.355.355,0,0,1,.176-.026l2.373.035h.483a9.271,9.271,0,0,0-1.151-2.013.32.32,0,0,1-.062-.141Q-41.713-14.405-41.52-14.467ZM-25.3-2.716q-.167.272-.29.272-.1,0-.193-.308A5.651,5.651,0,0,0-26.4-4.1a15.818,15.818,0,0,0,2.7-5.687h-.308l-1.74.035q-.141,0-.176-.044a.328.328,0,0,1-.026-.167V-11.25q0-.176.2-.176l1.74.035h.413v-1.2a16.383,16.383,0,0,0-.141-2.47q1.037.026,1.8.123.308.035.308.185a1.074,1.074,0,0,1-.105.4,5.946,5.946,0,0,0-.132,1.731v1.239l1.582-.035q.2,0,.2.176v1.283a.3.3,0,0,1-.035.185.328.328,0,0,1-.167.026l-1.529-.035a11.26,11.26,0,0,0,1.986,3.4,4.712,4.712,0,0,0-.65,1.169q-.141.325-.22.325-.1,0-.246-.29a11.9,11.9,0,0,1-.976-2.25q.009,3.023.07,6.267.018.712.044,1.811.009.5.009.563a.32.32,0,0,1-.035.193.355.355,0,0,1-.176.026h-1.459q-.149,0-.176-.035a.416.416,0,0,1-.026-.185q0-.035.026-1.239.088-3.516.105-6.565A15.127,15.127,0,0,1-25.3-2.716ZM-9.589-.483A5.811,5.811,0,0,0-10.415.791q-.211.431-.36.431a1.408,1.408,0,0,1-.413-.141,13.677,13.677,0,0,1-4.017-2.628,13.483,13.483,0,0,1-4.342,2.76,1.359,1.359,0,0,1-.431.141q-.132,0-.36-.431A3.567,3.567,0,0,0-21.2-.158a11.875,11.875,0,0,0,4.808-2.76,13.9,13.9,0,0,1-1.731-3.3.333.333,0,0,1-.035-.123q0-.07.237-.193l1.037-.58a.476.476,0,0,1,.176-.062q.088,0,.149.185A11.131,11.131,0,0,0-15.24-4.359a9.252,9.252,0,0,0,.738-1.4A6.386,6.386,0,0,0-14.054-7.3a9.517,9.517,0,0,1,1.582.756q.255.149.255.264a.532.532,0,0,1-.2.36,2.539,2.539,0,0,0-.413.756,12.279,12.279,0,0,1-1.2,2.232A12.012,12.012,0,0,0-9.589-.483ZM-17.35-10.96l-2.391.035a.278.278,0,0,1-.176-.035.3.3,0,0,1-.026-.158v-1.371a.278.278,0,0,1,.035-.176.328.328,0,0,1,.167-.026l2.391.044H-16.2v-.527a12.212,12.212,0,0,0-.123-1.907q1.187.035,1.96.123.308.035.308.185a1.127,1.127,0,0,1-.105.378,3.169,3.169,0,0,0-.149,1.222v.527h1.661l2.373-.044q.158,0,.185.035a.258.258,0,0,1,.035.167v1.371q0,.141-.044.167a.355.355,0,0,1-.176.026l-2.373-.035Zm4.588.536A9.513,9.513,0,0,0-9.809-7.611,5.343,5.343,0,0,0-10.617-6.5q-.193.4-.325.4a.84.84,0,0,1-.378-.22A11.447,11.447,0,0,1-14.212-9.58a.275.275,0,0,1-.062-.132q0-.07.2-.185l.932-.58a.6.6,0,0,1,.211-.088Q-12.858-10.564-12.762-10.424Zm-5-.141a11.682,11.682,0,0,1,1.406.606q.272.167.272.29a.41.41,0,0,1-.185.308A2.908,2.908,0,0,0-16.7-8.8a11.664,11.664,0,0,1-2.013,2.461q-.316.29-.4.29-.105,0-.343-.378a3.979,3.979,0,0,0-.87-.879,9.441,9.441,0,0,0,2.162-2.4A4.1,4.1,0,0,0-17.763-10.564ZM1.151-11.03A21.776,21.776,0,0,1-1.1-3.278,3.5,3.5,0,0,1-4.166-1.2a2.742,2.742,0,0,1-2.3-1.371,5.681,5.681,0,0,1-.879-3.252,6.454,6.454,0,0,1,2.03-4.685,7.93,7.93,0,0,1,5.854-2.3,6.9,6.9,0,0,1,5.273,2A5.952,5.952,0,0,1,7.392-6.574q0,4.887-5.546,6.557a1.022,1.022,0,0,1-.264.044q-.264,0-.51-.369A3.763,3.763,0,0,0-.185-1.477,8.848,8.848,0,0,0,3.858-3.331,4.614,4.614,0,0,0,5.247-6.855,4.105,4.105,0,0,0,3.99-9.9,3.785,3.785,0,0,0,1.222-11.03Zm-2.092.105A5.533,5.533,0,0,0-4.017-9.29,4.962,4.962,0,0,0-5.423-5.959a3.885,3.885,0,0,0,.448,2q.352.58.773.58.738,0,1.354-1.1a15.437,15.437,0,0,0,1.2-3.094A22.626,22.626,0,0,0-.94-10.925ZM19.854-.562q.633.053,1.257.053.352,0,.668-.018a.533.533,0,0,0,.413-.158.687.687,0,0,0,.088-.4v-3.56H18.738l-2.391.035a.278.278,0,0,1-.176-.035.3.3,0,0,1-.026-.158V-5.73q-.035.026-.343.185-.237.132-.659.334l-.6.29v3.006l.035,3.173q0,.141-.044.167a.328.328,0,0,1-.167.026H12.92q-.141,0-.167-.035a.3.3,0,0,1-.026-.158L12.762-1.9V-4.1L11.5-3.551a1.737,1.737,0,0,0-.6.36.391.391,0,0,1-.308.158.283.283,0,0,1-.264-.2,13.9,13.9,0,0,1-.6-1.74,9.89,9.89,0,0,0,1.67-.483q.668-.211,1.354-.483V-9.633H11.7a20.48,20.48,0,0,1-.413,2.074q-.105.431-.22.431a1.412,1.412,0,0,1-.413-.185,6.51,6.51,0,0,0-.984-.36,19.517,19.517,0,0,0,.756-4.711q.009-.237.009-.457,0-.369-.026-.694.888.105,1.45.22.29.07.29.211a.688.688,0,0,1-.088.29,2.2,2.2,0,0,0-.088.615l-.07.879h.861v-1.011a23.6,23.6,0,0,0-.141-2.716q.976.026,1.854.123.29.035.29.185a1.414,1.414,0,0,1-.114.378,9.407,9.407,0,0,0-.105,2v1.046L16-11.355a.3.3,0,0,1,.185.035.229.229,0,0,1,.026.141v1.389q0,.149-.053.176l2.4.035h1.31v-1.793h-.738l-2.232.035q-.158,0-.185-.035a.3.3,0,0,1-.026-.158v-1.283q0-.141.035-.167a.355.355,0,0,1,.176-.026l2.232.035h.738a12.514,12.514,0,0,0-.158-2.057q.809.026,1.89.149.281.026.281.176a1.135,1.135,0,0,1-.105.36,4.873,4.873,0,0,0-.123,1.371h1.257l2.268-.035q.141,0,.167.035a.3.3,0,0,1,.026.158v1.283q0,.141-.035.167a.275.275,0,0,1-.158.026l-2.268-.035H21.656V-9.58h1.978l2.391-.035q.2,0,.2.176v1.283q0,.141-.035.167a.328.328,0,0,1-.167.026L23.634-8H18.563l-2.435.035q-.141,0-.167-.035a.3.3,0,0,1-.026-.158V-9.439A.239.239,0,0,1,15.97-9.6L15.5-9.606q-.448-.018-.958-.026V-6.7q1.406-.686,1.652-.817,0,.6.053,1.2h.1l2.391.035H22.28a7.5,7.5,0,0,0-.123-1.441,14.408,14.408,0,0,1,1.837.193q.29.062.29.22A.659.659,0,0,1,24.179-7a1.561,1.561,0,0,0-.114.721l1.925-.035a.278.278,0,0,1,.176.035.3.3,0,0,1,.026.158v1.318a.264.264,0,0,1-.031.163.286.286,0,0,1-.171.031l-.246-.009q-.729-.018-1.679-.026v1.837L24.1-.58A1.753,1.753,0,0,1,23.484.949a4.77,4.77,0,0,1-2.391.4.921.921,0,0,1-.51-.079,1.206,1.206,0,0,1-.167-.475A3.564,3.564,0,0,0,19.854-.562ZM18.22-4.069a.5.5,0,0,1,.211-.079.265.265,0,0,1,.167.1,14.308,14.308,0,0,1,1.74,2.092.3.3,0,0,1,.07.149q0,.062-.176.193l-1.081.773a.544.544,0,0,1-.211.105q-.07,0-.132-.141a11.618,11.618,0,0,0-1.652-2.25.32.32,0,0,1-.079-.158q0-.062.167-.167ZM30.463-5.238,28.187-5.2q-.176,0-.176-.193V-6.732q0-.193.176-.193l2.276.035H31v-5.221l-.035-2.03q0-.149.035-.176a.328.328,0,0,1,.167-.026l2.479.035h6.012l2.443-.035a.32.32,0,0,1,.193.035.3.3,0,0,1,.026.158v1.318q0,.123-.044.149a.355.355,0,0,1-.176.026l-2.443-.035h-6.75v1.011H38.9l2.338-.035q.141,0,.176.044a.328.328,0,0,1,.026.167v1.055q0,.141-.044.167a.275.275,0,0,1-.158.026L38.9-10.292H32.906v.984H38.9l2.32-.035q.158,0,.185.035a.324.324,0,0,1,.035.185v1.046q0,.141-.044.167a.355.355,0,0,1-.176.026L38.9-7.919H32.906v1.028h8.64l2.25-.035q.158,0,.185.035a.239.239,0,0,1,.035.158V-5.4q0,.132-.035.163A.334.334,0,0,1,43.8-5.2l-2.25-.035h-5.08a7.6,7.6,0,0,0,1.89,2.268,13.791,13.791,0,0,0,1.837-1.477,2.646,2.646,0,0,0,.58-.738q1.028.65,1.433.958a.336.336,0,0,1,.185.264q0,.149-.211.185a2.065,2.065,0,0,0-.633.378,21,21,0,0,1-1.837,1.31,15,15,0,0,0,4.72,1.556A4.2,4.2,0,0,0,43.655.7q-.246.5-.431.5a2.269,2.269,0,0,1-.387-.07Q36.817-.439,34.673-5.238H32.906v3.85q1.925-.448,3.366-.861a7.321,7.321,0,0,0-.07,1.134.991.991,0,0,1-.088.545,1.28,1.28,0,0,1-.475.193Q32.713.5,29.9,1.1a1.5,1.5,0,0,0-.633.237A.422.422,0,0,1,29,1.441q-.114,0-.22-.237-.22-.624-.5-1.74a18.993,18.993,0,0,0,1.925-.272L31-.976V-5.238Zm-67.2,26.483q-.07-1.687-.088-2.145-.756.018-1.362.018-1.266,0-2.347-.1-.264,0-.29-.3a9.078,9.078,0,0,1-.105-1.529,24.152,24.152,0,0,0,2.9.167q.563,0,1.151-.026l-.035-2.065q-1.072.035-1.811.035a22.482,22.482,0,0,1-2.5-.123.267.267,0,0,1-.308-.255q-.079-.659-.123-1.617a46.185,46.185,0,0,0,4.72.176q0-.519-.035-1.749a5.686,5.686,0,0,0-.22-1.2,10.631,10.631,0,0,1,2.268.325.329.329,0,0,1,.255.343.369.369,0,0,1-.053.193,2.22,2.22,0,0,0-.272.87q-.009.2-.018.545-.009.4-.018.606a32.508,32.508,0,0,0,3.938-.545.629.629,0,0,1,.132-.018q.158,0,.176.237a9.513,9.513,0,0,1,.088,1.31q0,.264-.193.29a38.5,38.5,0,0,1-4.157.466l.018,2.039q.817-.053,3.524-.466a.615.615,0,0,1,.149-.026q.123,0,.141.167.053,1.028.053,1.477,0,.229-.272.255-1.89.308-3.524.431.079,1.819.123,2.54a16.421,16.421,0,0,1,4.772,2.171A.378.378,0,0,1-29.9,24a.745.745,0,0,1-.035.176,4.037,4.037,0,0,1-.791,1.336.276.276,0,0,1-.229.141.278.278,0,0,1-.2-.088,14.465,14.465,0,0,0-3.577-2.048,2.421,2.421,0,0,1-1.037,2.18,4.95,4.95,0,0,1-2.619.554,4.462,4.462,0,0,1-2.839-.791,2.107,2.107,0,0,1-.835-1.723,2.191,2.191,0,0,1,1.116-1.916,4.469,4.469,0,0,1,2.487-.642Q-37.582,21.175-36.738,21.245Zm.035,1.705a7.239,7.239,0,0,0-1.67-.211q-1.942,0-1.942.949,0,.809,1.784.809a2,2,0,0,0,1.635-.536A1.866,1.866,0,0,0-36.7,22.95Zm19.266-9.686q-1.687.308-3.48.686a5.334,5.334,0,0,0-.756.22,1.023,1.023,0,0,1-.36.088.426.426,0,0,1-.4-.308,10.18,10.18,0,0,1-.624-1.942,7.321,7.321,0,0,0,.976.062q.352,0,.694-.026,1.854-.185,4.087-.615a4.452,4.452,0,0,0,.984-.272.883.883,0,0,1,.343-.141.716.716,0,0,1,.413.141,7.1,7.1,0,0,1,1.2,1.151.679.679,0,0,1,.2.439.457.457,0,0,1-.308.431,3.954,3.954,0,0,0-.791.571q-.554.545-2.048,2.048-1.116,1.116-1.837,1.811l.018.053a5.752,5.752,0,0,1,2.865-.809A4.4,4.4,0,0,1-12.876,18.2a4.216,4.216,0,0,1,1.09,2.979,4.329,4.329,0,0,1-1.925,3.762,7.446,7.446,0,0,1-4.359,1.169,4.317,4.317,0,0,1-2.795-.791,2.264,2.264,0,0,1-.844-1.854,1.985,1.985,0,0,1,.835-1.626,2.685,2.685,0,0,1,1.705-.571,3.4,3.4,0,0,1,2.268.756,3.494,3.494,0,0,1,1.116,1.872,3.2,3.2,0,0,0,1.45-1.16,2.986,2.986,0,0,0,.387-1.582,2.57,2.57,0,0,0-.888-2.065,2.893,2.893,0,0,0-1.942-.65,7.069,7.069,0,0,0-4.605,1.907q-.343.316-1.564,1.529-.2.2-.308.2a.462.462,0,0,1-.272-.158,7.832,7.832,0,0,1-1.055-1.178.224.224,0,0,1-.062-.149.41.41,0,0,1,.149-.264,46.348,46.348,0,0,0,4.263-3.973Q-18.4,14.451-17.437,13.264Zm-.132,11.074q-.36-1.547-1.529-1.547a.918.918,0,0,0-.65.229.583.583,0,0,0-.211.457q0,.932,1.564.932A4.346,4.346,0,0,0-17.569,24.339Zm13.6-13.808a15.74,15.74,0,0,1,2.083.308q.387.105.387.378a.748.748,0,0,1-.062.255,3.169,3.169,0,0,0-.176.773q-.009.185-.044.729-.026.483-.053.888l.149-.053a.283.283,0,0,1,.123-.035q.2,0,.483.413a1.186,1.186,0,0,1,.29.563q0,.149-.308.5-.536.686-.949,1.292v.563A8.11,8.11,0,0,1,3.12,15a4.272,4.272,0,0,1,3.41,1.433A4.6,4.6,0,0,1,7.6,19.566q0,4.069-4.79,5.8a.678.678,0,0,1-.308.07.57.57,0,0,1-.466-.255A5.6,5.6,0,0,0,.615,24a9.2,9.2,0,0,0,3.621-1.784A3.49,3.49,0,0,0,5.458,19.5a2.756,2.756,0,0,0-.791-2.118,2.63,2.63,0,0,0-1.89-.668,5.381,5.381,0,0,0-2.531.668,12.951,12.951,0,0,0-2.294,1.635q.009,1.371.053,3.63.044,2.47.053,3.278,0,.22-.237.22-.791.07-1.6.07-.2,0-.2-.193v-.062q.026-2.074.1-5.563-1.222,1.828-2.435,3.568-.149.176-.246.176a.322.322,0,0,1-.2-.105,13.631,13.631,0,0,1-1.1-1.081.242.242,0,0,1-.105-.2.3.3,0,0,1,.105-.211Q-5.449,19.6-3.9,17.483q0-.94.018-1.283-1.547.483-2.057.668a2.72,2.72,0,0,0-.387.211.513.513,0,0,1-.2.1q-.2,0-.36-.325a14.241,14.241,0,0,1-.721-1.582,10.657,10.657,0,0,0,1.222-.185q1.169-.264,2.558-.642.035-.773.035-2.347A6.81,6.81,0,0,0-3.973,10.531Zm18.984,4.605q.272-.976.536-2.268a11.916,11.916,0,0,0,.185-2,16.139,16.139,0,0,1,2.153.589.355.355,0,0,1,.29.36.378.378,0,0,1-.123.272,2.367,2.367,0,0,0-.36.686q-.132.4-.343,1.143-.2.677-.308,1.02a11.821,11.821,0,0,1,1.406-.079,2.278,2.278,0,0,1,2.021.967,4.087,4.087,0,0,1,.589,2.364,19.64,19.64,0,0,1-.29,3.4,9.533,9.533,0,0,1-.686,2.382,2.536,2.536,0,0,1-2.426,1.688,6.081,6.081,0,0,1-1.784-.2.467.467,0,0,1-.325-.5,5.825,5.825,0,0,0-.334-1.67,5.6,5.6,0,0,0,1.978.4,1.057,1.057,0,0,0,.729-.229,2.071,2.071,0,0,0,.422-.729,12.634,12.634,0,0,0,.7-4.456A2.583,2.583,0,0,0,18.8,16.9a.912.912,0,0,0-.782-.308,11.737,11.737,0,0,0-1.512.123,52.886,52.886,0,0,1-3.621,8.464q-.1.22-.264.22a.438.438,0,0,1-.2-.062,5.122,5.122,0,0,1-1.248-.791.393.393,0,0,1-.141-.264.339.339,0,0,1,.07-.2,41.06,41.06,0,0,0,3.3-7.058q-.615.1-1.758.308a6.273,6.273,0,0,0-.993.29.663.663,0,0,1-.22.044.371.371,0,0,1-.36-.281,17.336,17.336,0,0,1-.554-1.854q.993,0,2.373-.123Q13.86,15.312,15.012,15.137ZM21.419,15q1.011-.686,1.459-.923A.246.246,0,0,1,23,14.038a.339.339,0,0,1,.22.123,11.736,11.736,0,0,1,2.988,4.377.406.406,0,0,1,.044.158.27.27,0,0,1-.114.2,5.423,5.423,0,0,1-1.354.9.386.386,0,0,1-.185.053.225.225,0,0,1-.229-.193A12.3,12.3,0,0,0,21.419,15ZM31.975,10.8a9.458,9.458,0,0,1,1.96.554q.343.132.343.36a.462.462,0,0,1-.123.29,2.263,2.263,0,0,0-.325.844q-.246,1.187-.5,3.437-.07,1.187-.07,1.529,0,.237.009.457.65-1.16,1.257-2.312a4.081,4.081,0,0,0,.563,1.169.454.454,0,0,1,.105.29.86.86,0,0,1-.176.448,16.764,16.764,0,0,0-1.063,2.3,2.647,2.647,0,0,0-.1.545.264.264,0,0,1-.229.281,13.532,13.532,0,0,1-1.441.22q-.176.026-.255-.237a10.629,10.629,0,0,1-.536-3.647,43.01,43.01,0,0,1,.431-4.482A18.081,18.081,0,0,0,31.975,10.8Zm5.757.035a11.874,11.874,0,0,1,2.057.211q.369.1.369.334,0,.062-.009.158a5.34,5.34,0,0,0-.044.826q.255,3.4.255,4.641a11.59,11.59,0,0,1-1.371,6.249,9.263,9.263,0,0,1-2.971,2.9.622.622,0,0,1-.36.123.565.565,0,0,1-.378-.2,3.894,3.894,0,0,0-1.529-.826,9.82,9.82,0,0,0,3.067-2.408,7.176,7.176,0,0,0,1.2-2.522,13.7,13.7,0,0,0,.316-3.226,39.053,39.053,0,0,0-.22-4.3A9.865,9.865,0,0,0,37.731,10.839Z" transform="translate(316.855 5705.694)"/>
  </g>
</svg>
