<svg xmlns="http://www.w3.org/2000/svg" width="227.808" height="164.032" viewBox="0 0 227.808 164.032">
  <g id="グループ_2197" data-name="グループ 2197" transform="translate(-1620.652 -6617.96)">
    <g id="グループ_655" data-name="グループ 655">
      <g id="グループ_641" data-name="グループ 641">
        <path id="パス_1458" data-name="パス 1458" d="M1647.91,6647.108c-.533-.736-.586-.828-1.2-1.6l-7.769,6.037c.084.108.734.944,1.3,1.522l-1.349,1.05a9.131,9.131,0,0,0-1.1-1.693c-.372-.478-.608-.734-.846-.99.372-.211,1.765-1.257,2.216-1.588a5.749,5.749,0,0,0-2.185-.641l.528-1.368a5.059,5.059,0,0,1,2.282.718l-.484,1.2c.168-.13,1.437-1.062,1.521-1.126l2.223-1.728c.036-.028,1.419-1.159,1.563-1.27l-.989.231a6.746,6.746,0,0,0-.42-2.512l1.387-.387c.123-.039.334-.088.391-.017.166.216-.072.478-.184.6a14.637,14.637,0,0,1,.176,1.78c.588-.478,1.444-1.2,2.125-1.805.181.282.445.671.908,1.268a7.723,7.723,0,0,0,1.195,1.315Zm-6.123.484a5.02,5.02,0,0,0-2.276-.858l.526-1.272a4.028,4.028,0,0,1,2.322.842Zm6.563,4.274-1.1.855.324.419c.166.214.983,1.189,1.169,1.428a1,1,0,0,1,.025,1.439,9.472,9.472,0,0,1-1.448,1.221l-1.51-.858c.231-.122,1.181-.65,1.29-.734.357-.279.186-.548-.231-1.086l-.743-.956-1.446,1.124c-.443.344-2.262,1.776-3.463,2.845l-.893-1.148c1.485-1,3.517-2.579,3.613-2.653l1.434-1.115a7.272,7.272,0,0,0-1.116-1.165l.937-.421a12.912,12.912,0,0,0,.322-1.61l-2.606,2.025c-.539.418-1.067.847-1.577,1.3l-.837-1.076c.213-.146,1.966-1.392,2.3-1.653l1.338-1.04c.539-.418,1.652-1.378,2.107-1.829l.9.3c-.044.264-.27,1.627-.3,1.9l-.111.892-.185,1.465,1.063-.826c.527-.408,2.382-1.869,3.5-2.873l.892,1.148C1650.83,6649.978,1649.473,6650.993,1648.35,6651.866Z" fill="#333"/>
      </g>
      <g id="グループ_642" data-name="グループ 642">
        <path id="パス_1459" data-name="パス 1459" d="M1663.937,6645.978l-4.124,2.207c-1.308.7-2.616,1.434-3.879,2.214l-.7-1.307c1.413-.635,3.4-1.666,4-1.988l1.749-.936-1.514-2.829-.855.457c-.973.521-1.947,1.077-2.857,1.684l-.707-1.32c1.051-.442,2.533-1.2,2.986-1.445l.855-.457-1.244-2.321-2.962,1.585a8.736,8.736,0,0,1-.609,3.192l-1.585-.266a9.048,9.048,0,0,0,.344-6.349l1.629-.166c.175-.027.385-.018.457.116.106.2-.113.335-.367.471.027.242.03.343.1,1.317.01.148.011.183.021.3l2.389-1.279c-.507-.947-1.091-1.973-1.877-3.184l1.76-.752c.221-.1.429-.195.528-.009s-.03.361-.287.618c.4.883.784,1.623,1.29,2.571l1.014-.543c.214-.115,1.483-.793,3.006-1.762l.707,1.321c-1.057.462-2.1.973-3.134,1.523l-1.014.543,1.244,2.321.613-.329c1.015-.542,1.993-1.118,2.951-1.733l.707,1.321c-1.25.55-2.373,1.115-3.08,1.494l-.613.328,1.513,2.829.961-.515c.267-.142,2-1.071,4.034-2.311l.7,1.308C1666.693,6644.554,1665.3,6645.249,1663.937,6645.978Z" fill="#333"/>
      </g>
      <g id="グループ_643" data-name="グループ 643">
        <path id="パス_1460" data-name="パス 1460" d="M1679.911,6638.484a15.579,15.579,0,0,0-5.084-2.525,16,16,0,0,1-3.778,5.877l-1.536-.862a12.71,12.71,0,0,0,2.936-3.379,13.756,13.756,0,0,0,1.8-6.882l-2.523.945a32.435,32.435,0,0,0-3.373,1.44l-.53-1.417c.469-.128,2.239-.709,2.82-.927l2.084-.781a9.057,9.057,0,0,0,1.674-.708,1.611,1.611,0,0,0,.573-.586l1.484.769c-.2.284-.259.388-.494.751a32.08,32.08,0,0,1-.734,4.429,18.949,18.949,0,0,1,5.445,2.406Z" fill="#333"/>
      </g>
      <g id="グループ_644" data-name="グループ 644">
        <path id="パス_1461" data-name="パス 1461" d="M1691.305,6626.887a18.769,18.769,0,0,1-.531,4.1c.609.23,1.005.424,1.578.7l-.67,1.492a9.627,9.627,0,0,0-1.387-.747,11.064,11.064,0,0,1-4.524,5.28l-1.418-.924a8.689,8.689,0,0,0,3.511-2.947,8.894,8.894,0,0,0,1.091-1.917,26.487,26.487,0,0,0-3.248-.737l.488-1.117c.845.059,2.784.408,3.2.5a11.6,11.6,0,0,0,.344-3.44l-4.172,1.1a12.306,12.306,0,0,1-2.017,3.977l-1.629-.477a8.9,8.9,0,0,0,2.2-3.651,12.066,12.066,0,0,0,.641-2.611,4.189,4.189,0,0,0,.01-.848l1.762.208c.095.006.283.066.318.2.054.205-.241.393-.5.492-.07.207-.356,1.316-.38,1.4l1.785-.471a13.84,13.84,0,0,0,1.771-.64,3.615,3.615,0,0,0,.881-.577l1.361.767A3.6,3.6,0,0,0,1691.305,6626.887Z" fill="#333"/>
      </g>
      <g id="グループ_645" data-name="グループ 645">
        <path id="パス_1462" data-name="パス 1462" d="M1697.527,6629.061a10.175,10.175,0,0,0-1.727-2.124l1.052-.572a11.533,11.533,0,0,1,1.719,2.08Zm2.809-1.159a8.132,8.132,0,0,0-1.689-2.161l1.05-.585a10.128,10.128,0,0,1,1.694,2.192Zm4.633-2.661a.532.532,0,0,0-.252.229c-.031.082-.208,1.6-.263,1.9a10.052,10.052,0,0,1-4.353,6.855l-1.145-.735a8.709,8.709,0,0,0,3.524-3.8,11.065,11.065,0,0,0,.877-5.134l1.239.227c.316.051.5.126.52.246S1705.068,6625.192,1704.969,6625.241Z" fill="#333"/>
      </g>
      <g id="グループ_646" data-name="グループ 646">
        <path id="パス_1463" data-name="パス 1463" d="M1717.17,6621.809a13.02,13.02,0,0,1-2.553,6.874,11.4,11.4,0,0,1-3.879,3.241l-1.525-1.145a8.943,8.943,0,0,0,5.51-5.17,8.046,8.046,0,0,0,.881-3.918l-3.6.394c-.844.092-3.822.555-4.9.749l-.162-1.49c1.018-.02,2.992-.206,3.82-.3l2.528-.276a20.534,20.534,0,0,0,2.108-.352.953.953,0,0,0,.655-.422l1.456.922C1717.432,6621.142,1717.371,6621.284,1717.17,6621.809Z" fill="#333"/>
      </g>
      <g id="グループ_647" data-name="グループ 647">
        <path id="パス_1464" data-name="パス 1464" d="M1728.626,6629.564a1.978,1.978,0,0,1-1.846,1.251,9.653,9.653,0,0,1-1.4-.127l-.285-1.536a6.166,6.166,0,0,0,1.493.247c.3-.011.633-.085.982-.856a10.383,10.383,0,0,0,.553-3.777,2.5,2.5,0,0,0-.356-1.411,1.02,1.02,0,0,0-.627-.158,6.2,6.2,0,0,0-1.294.232,29.325,29.325,0,0,1-1.334,4.731,15.207,15.207,0,0,1-1.412,2.72l-1.627-.574a13.256,13.256,0,0,0,2.873-6.471,16.958,16.958,0,0,0-2.356.952l-.513-1.54a21.312,21.312,0,0,0,3.078-.708,19,19,0,0,0,.16-3.37l1.915.185a.227.227,0,0,1,.22.189c.006.2-.289.391-.467.5a14.362,14.362,0,0,0-.359,2.1,7.541,7.541,0,0,1,1.4-.235c1.482-.057,1.988,1.273,2.049,2.861A11.8,11.8,0,0,1,1728.626,6629.564Zm2.52-3.05-.992-1.37c.332-.013,1.393-.04,1.369-.66-.01-.271-.512-1.509-2.717-3.335l1.121-.8a15.839,15.839,0,0,1,2.468,2.754,3.207,3.207,0,0,1,.7,1.61C1733.112,6625.259,1732.769,6626.164,1731.146,6626.514Zm1.176-5.317c-.174-.189-.7-.746-.8-.847a3.754,3.754,0,0,0-.579-.448l.7-.784a13.062,13.062,0,0,1,1.443,1.309Zm1.457-1.1a9.5,9.5,0,0,0-1.412-1.28l.747-.679a10.861,10.861,0,0,1,1.41,1.234Z" fill="#333"/>
      </g>
      <g id="グループ_648" data-name="グループ 648">
        <path id="パス_1465" data-name="パス 1465" d="M1750.262,6624.889a11.163,11.163,0,0,1-6.1-4.969,12.294,12.294,0,0,1-2.818,2.849,13.846,13.846,0,0,1-3.528,1.973l-1.054-1.342a11.688,11.688,0,0,0,3.95-1.957,9.157,9.157,0,0,0,2.9-3.483l1.45.555c.343.133.417.212.412.333s-.129.223-.253.294a9.1,9.1,0,0,0,2.488,2.712,12.011,12.011,0,0,0,3.706,1.79Zm-4.316,6.458-4.31-.16c-1.225-.046-2.77-.089-4.375-.042l.055-1.483c1.328.141,1.69.154,2.416.2l.1-2.828c.034-.907.031-1.256.011-2.332l1.611.24c.377.061.495.125.489.276-.007.2-.112.224-.513.376l-.162,4.341.409.015,1.482.055.172-4.629c.037-1,.035-1.361,0-2.817l1.566.224c.422.062.573.082.565.3-.007.166-.053.195-.53.419l-.078,2.071,1.845.07c.409.014.607.008.954.006h.849l-.054,1.452c-.877-.062-1.147-.088-1.767-.111l-1.892-.07-.117,3.147,1.315.048c1.484.055,2.951.08,4.422.043l-.056,1.483C1749.137,6631.511,1747.732,6631.413,1745.946,6631.347Z" fill="#333"/>
      </g>
      <g id="グループ_649" data-name="グループ 649">
        <path id="パス_1466" data-name="パス 1466" d="M1767.235,6624.049c-.124.778-.232,1.573-.328,2.37l-.237,1.983c-.1.8-.514,4.68-.539,5.272l-1.548-.185a7.405,7.405,0,0,0,.194-.983l-9.29-1.11c-.019.166-.087.858-.087,1l-1.534-.184c.147-.714.436-2.493.506-3.08l.456-3.817.2-1.713c.071-.587.164-1.369.179-1.748l1.387.257c.314.054.448.084.426.264-.016.135-.05.163-.438.344-.18,1.122-.247,1.556-.319,2.157l-.638,5.336,9.3,1.112.594-4.974c.062-.511.231-2.184.333-3.177l1.406.243c.253.045.445.084.421.28S1767.461,6623.954,1767.235,6624.049Zm-3.464-2.654-1.743-.208-.195,1.637,1.187.142c.256.031,1.4.137,1.628.148-.117.734-.239,1.755-.316,2.4l-.307,2.57c-.083.691-.119.992-.194,1.867-.462-.085-1.3-.216-2.021-.3l-3.1-.37c-.467-.055-.647-.077-1.722-.145.031-.255.223-1.345.25-1.57l.289-2.42c.165-1.382.157-1.445.247-2.837.583.1,1.169.17,1.454.205l1.369.163.2-1.638-1.653-.2c-1.414-.169-1.915-.306-4.459-.443l.162-1.351c1.788.335,4.266.646,4.431.666l4.629.553c1.489.177,2.981.325,4.466.4l-.162,1.352C1766.94,6621.788,1765.695,6621.625,1763.771,6621.4Zm-3.641,5.219-1.488-.177-.195,1.623,1.489.177Zm.328-2.75-1.488-.177-.191,1.592,1.489.178Zm2.407,3.077-1.5-.179-.194,1.623,1.5.179Zm.328-2.75-1.5-.179-.19,1.592,1.5.18Z" fill="#333"/>
      </g>
      <g id="グループ_650" data-name="グループ 650">
        <path id="パス_1467" data-name="パス 1467" d="M1774.242,6628.267a1.469,1.469,0,1,1-1.172-1.714A1.469,1.469,0,0,1,1774.242,6628.267Z" fill="#333"/>
      </g>
      <g id="グループ_651" data-name="グループ 651">
        <path id="パス_1468" data-name="パス 1468" d="M1789.649,6638.742c-1.356-.377-7.419-1.9-8.608-2.375a2.754,2.754,0,0,1-1.678-1.763,11.834,11.834,0,0,1-1.739.711c-.1.367-.2.588-.468.518-.117-.031-.127-.112-.14-.179l-.256-1.681a12.144,12.144,0,0,0,2.049-.455l.846-3.176-.907-.241c-.16-.043-.476-.1-.819-.157l.355-1.33a5.167,5.167,0,0,0,.939.3l1.111.3a7.092,7.092,0,0,0,1.035.231c-.1.365-.373,1.279-.455,1.585l-.554,2.077a1.766,1.766,0,0,0,.316,1.4c.484.771.865.873,3.189,1.494a44.5,44.5,0,0,0,6.611,1.416Zm-9.167-11.5a10.125,10.125,0,0,0-1.291-3.384l1.3-.544a9.075,9.075,0,0,1,1.442,3.408Zm10.309,1.058a4.971,4.971,0,0,0,.232-.753l.191-.717-3-.8-.2.746.4.106c1.213.324,2.221.545,2.311.554l-.269,1.008c-.537-.159-1.4-.4-2.2-.617l-.483-.129-.18.672.717.192c.746.2,1.723.412,2.484.553-.15.445-.425,1.359-.469,1.521l-.4,1.506a15.922,15.922,0,0,0-.311,1.75c-.433-.132-1.246-.38-2.416-.692l-.818-.219-.162.724,1.112.3c.76.2,1.4.342,2.827.677l-.3,1.126c-.333-.1-1.648-.519-2.7-.8L1786,6634.7a10.951,10.951,0,0,0-.242,1.377l-1.594-.426c.115-.314.215-.568.432-1.325l-.907-.242c-.688-.184-1.686-.435-2.905-.681l.305-1.14c.934.311,2.275.684,2.891.848l.906.242.206-.711-.658-.176c-.438-.117-2.159-.545-2.528-.627a9.879,9.879,0,0,0,.448-1.385l.476-1.785c.031-.117.261-.978.348-1.537.788.273.964.32,2.543.742l.6.16.18-.672-.394-.1c-.5-.133-1.583-.408-2.353-.52l.288-1.082a19.362,19.362,0,0,0,2.3.676l.41.11.2-.747-3.056-.816-.183.688a6.633,6.633,0,0,0-.156.757l-1.359-.362a8.659,8.659,0,0,0,.273-.852l.227-.847a7.15,7.15,0,0,0,.167-.8c.789.273,1.52.469,3.172.909l3.393.9c1.595.425,1.778.443,3.33.794a7.659,7.659,0,0,0-.281.819l-.239.891a3.89,3.89,0,0,0-.153.868Zm-5.218,2.524-1.871-.5-.237.892,1.871.5Zm.48-1.8-1.871-.5-.234.878,1.871.5Zm2.679,2.643-1.886-.5-.239.892,1.887.5Zm.481-1.8-1.887-.5-.234.878,1.887.5Z" fill="#333"/>
      </g>
      <g id="グループ_652" data-name="グループ 652">
        <path id="パス_1469" data-name="パス 1469" d="M1801.543,6643.663a2.717,2.717,0,0,0,.237-.475l-6.845-2.732c-.115.329-.132.371-.168.5l-1.35-.539c.159-.277.538-1.1.555-1.147l.477-1.195c.185-.464.489-1.387.631-1.867a13.68,13.68,0,0,0,1.592.75l1.631.65a11.135,11.135,0,0,0,.924-.8l-.212-.084c-.337-.135-2.179-.788-2.683-.957.092-.143.4-.834.461-.99l.331-.829c.045-.113.458-1.187.577-1.611.356.174,2.709,1.178,2.821,1.223l1.645.656c.7.281,2.421.918,3.062,1.108-.057.141-.539,1.269-.628,1.493l-.331.83c-.068.168-.348.954-.382,1.12-.574-.28-2.1-.938-2.736-1.191l-.562-.224c-.388.4-.666.647-.868.827l3.135,1.252a17.081,17.081,0,0,0,1.794.568c-.356.771-.468,1.052-.749,1.755l-.41,1.026c-.162.408-.342,1.021-.5,1.461Zm4.213-6.761c.151-.3.741-1.692.867-1.968l-9.448-3.77c-.575,1.482-.656,1.727-.745,2.033l-1.407-.56c.309-.612.6-1.328.853-1.975a8.174,8.174,0,0,0,.4-1.128c.969.436,1.618.728,2.551,1.083a6.433,6.433,0,0,0-.473-2.16l1.43-.277a6.778,6.778,0,0,1,.485,2.3l-1.265.228,1.505.6,3.317,1.324c.2.078,1.117.43,1.3.5l-.773-.879a6.918,6.918,0,0,0,1.873-1.551l1.03,1.1c.14.137.224.252.174.379-.039.1-.186.22-.574.049-.184.136-1.126.822-1.462,1.013,1.622.631,2.288.879,2.958,1.082a18.711,18.711,0,0,0-1.149,3.16Zm-2.972,3.77-6.846-2.733-.572,1.434,6.846,2.732Zm.751-4.737-4.922-1.964-.527,1.322,4.922,1.963Zm-1.558-4.06a6.6,6.6,0,0,0-.222-2.387l1.451-.2a8.344,8.344,0,0,1,.279,2.442Z" fill="#333"/>
      </g>
      <g id="グループ_653" data-name="グループ 653">
        <path id="パス_1470" data-name="パス 1470" d="M1819.955,6641.815c-.842-.479-1.172-.633-1.708-.886-.19.275-.982,1.512-1.146,1.768a5.163,5.163,0,0,1-.659,2.5,8.035,8.035,0,0,1-4.879,3.612l-1.156-1.459a4.019,4.019,0,0,0,1.781-.222,4.288,4.288,0,0,0,1.8-1.2,1.842,1.842,0,0,1-1.187-.24,2.3,2.3,0,0,1-.6-3.233c.637-1.117,2.169-2.092,3.51-1.328a6.221,6.221,0,0,1,.6.393c.214-.348.259-.427.686-1.176a48.838,48.838,0,0,0-5.535-2.546l.635-1.45c.347.215.432.281.827.506.473.269,2.6,1.375,3.024,1.6.6.324.928.512,1.58.866a13.742,13.742,0,0,0,1.057-2.219l1.369.867c.2.133.492.3.373.508a.3.3,0,0,1-.237.109c-.191.03-.211.037-.383.061a9.98,9.98,0,0,0-.871,1.316,33.5,33.5,0,0,0,4.238,1.979l-.712,1.371C1821.244,6642.551,1820.244,6641.98,1819.955,6641.815Zm-4.865.468c-.553-.315-1.287.085-1.707.821-.48.842-.111,1.418.152,1.568.842.48,1.462-.3,1.717-.746C1815.679,6643.176,1815.523,6642.529,1815.09,6642.283Z" fill="#333"/>
      </g>
      <g id="グループ_654" data-name="グループ 654">
        <path id="パス_1471" data-name="パス 1471" d="M1823.962,6656.08c-1.024-.807-2.108-2.412-1.209-3.554a2.243,2.243,0,0,1,3.123-.1,3.626,3.626,0,0,1,1.253,2.18,3.8,3.8,0,0,1,0,1.271,2.551,2.551,0,0,0,2.237-.934,2.292,2.292,0,0,0-.473-3.533,5.307,5.307,0,0,0-2.97-1.048,15.625,15.625,0,0,0-3.248.332l-.369-1.562a42.608,42.608,0,0,0,8.63-1.123c-.918-.452-1.364-.668-2.256-1.2-.244-.154-1.307-.835-1.528-.971l.659-1.351a7.454,7.454,0,0,0,.748.666,19.006,19.006,0,0,0,4.758,2.668l.058,1.394a7.156,7.156,0,0,0-2.2.078,24.629,24.629,0,0,0-3.043.514,4.191,4.191,0,0,1,1.812.83,3.574,3.574,0,0,1,.737,5.009A4.791,4.791,0,0,1,1823.962,6656.08Zm1.9-1.53a2.2,2.2,0,0,0-.762-1.14c-.594-.467-1.106-.331-1.275-.117-.355.452.171,1.252.861,1.795a3.308,3.308,0,0,0,1.061.586A2.553,2.553,0,0,0,1825.861,6654.55Z" fill="#333"/>
      </g>
    </g>
    <g id="グループ_660" data-name="グループ 660">
      <g id="グループ_657" data-name="グループ 657">
        <g id="グループ_656" data-name="グループ 656">
          <path id="パス_1472" data-name="パス 1472" d="M1666.985,6673.892a13.118,13.118,0,0,1,1.08-5.472,11.566,11.566,0,0,1,2.88-3.96,12.2,12.2,0,0,1,3.924-2.3,13.067,13.067,0,0,1,12.852,2.3,12.042,12.042,0,0,1,2.808,3.96,13.087,13.087,0,0,1,1.08,5.472v27.072a12.96,12.96,0,0,1-1.08,5.544,11.426,11.426,0,0,1-2.808,3.816,12.364,12.364,0,0,1-3.995,2.376,12.777,12.777,0,0,1-8.857,0,11.565,11.565,0,0,1-3.924-2.376,11,11,0,0,1-2.88-3.816,12.989,12.989,0,0,1-1.08-5.544Zm7.345,27.072a4.878,4.878,0,0,0,1.476,3.924,5.468,5.468,0,0,0,6.983,0,4.884,4.884,0,0,0,1.477-3.924v-27.072a4.888,4.888,0,0,0-1.477-3.924,5.468,5.468,0,0,0-6.983,0,4.881,4.881,0,0,0-1.476,3.924Z" fill="none" stroke="#fff" stroke-miterlimit="10" stroke-width="9"/>
          <path id="パス_1473" data-name="パス 1473" d="M1705.289,6713.06V6661.8h11.016a16.39,16.39,0,0,1,5.328.792,10.253,10.253,0,0,1,4.176,2.808,10.986,10.986,0,0,1,2.591,4.716,29.449,29.449,0,0,1,.721,7.308,36.358,36.358,0,0,1-.4,5.832,12.2,12.2,0,0,1-1.692,4.464,10.711,10.711,0,0,1-4.032,3.924,13.572,13.572,0,0,1-6.624,1.4h-3.744v20.016Zm7.344-44.352v17.424h3.528a7.493,7.493,0,0,0,3.456-.648,4.078,4.078,0,0,0,1.8-1.8,6.591,6.591,0,0,0,.685-2.664q.106-1.584.107-3.528,0-1.8-.072-3.42a7.38,7.38,0,0,0-.649-2.844,4.1,4.1,0,0,0-1.726-1.872,6.868,6.868,0,0,0-3.313-.648Z" fill="none" stroke="#fff" stroke-miterlimit="10" stroke-width="9"/>
          <path id="パス_1474" data-name="パス 1474" d="M1741.793,6713.06V6661.8h21.888v6.912h-14.544v15.048h12.672v6.912h-12.672v15.048h14.544v7.344Z" fill="none" stroke="#fff" stroke-miterlimit="10" stroke-width="9"/>
          <path id="パス_1475" data-name="パス 1475" d="M1775.344,6713.06V6661.8h7.056l11.088,30.888h.145V6661.8h7.344v51.264h-6.913l-11.232-30.816h-.144v30.816Z" fill="none" stroke="#fff" stroke-miterlimit="10" stroke-width="9"/>
          <path id="パス_1476" data-name="パス 1476" d="M1648.913,6762.444v3.168a11.427,11.427,0,0,1-.9,4.5,12.463,12.463,0,0,1-2.484,3.78,11.963,11.963,0,0,1-3.709,2.628,10.851,10.851,0,0,1-4.571.972,16.523,16.523,0,0,1-4.248-.575,10.044,10.044,0,0,1-3.888-2.017,11.12,11.12,0,0,1-2.843-3.708,13.079,13.079,0,0,1-1.118-5.8v-28.224a12.472,12.472,0,0,1,.866-4.68,10.968,10.968,0,0,1,2.447-3.743,11.377,11.377,0,0,1,3.78-2.485,12.714,12.714,0,0,1,4.86-.9,11.138,11.138,0,0,1,8.424,3.385,12.053,12.053,0,0,1,2.484,3.923,13.275,13.275,0,0,1,.9,4.932v2.88h-7.345v-2.448a5.95,5.95,0,0,0-1.223-3.744,3.97,3.97,0,0,0-3.312-1.584q-2.737,0-3.637,1.692a9.086,9.086,0,0,0-.9,4.284v26.208a6.781,6.781,0,0,0,.972,3.744,3.828,3.828,0,0,0,3.492,1.512,5.312,5.312,0,0,0,1.548-.252,4.6,4.6,0,0,0,1.548-.828,4.379,4.379,0,0,0,1.08-1.584,6.416,6.416,0,0,0,.431-2.52v-2.52Z" fill="none" stroke="#fff" stroke-miterlimit="10" stroke-width="9"/>
          <path id="パス_1477" data-name="パス 1477" d="M1658.777,6777.06l11.448-51.264h6.12l11.448,51.264h-7.344l-2.16-11.016h-10.008l-2.16,11.016Zm18.144-17.928-3.6-18.576h-.143l-3.6,18.576Z" fill="none" stroke="#fff" stroke-miterlimit="10" stroke-width="9"/>
          <path id="パス_1478" data-name="パス 1478" d="M1698.592,6777.06V6725.8h7.056l9.432,27.144h.145l9.359-27.144h7.129v51.264h-7.345v-31.176h-.143l-7.273,22.033h-3.672l-7.2-22.033h-.144v31.176Z" fill="none" stroke="#fff" stroke-miterlimit="10" stroke-width="9"/>
          <path id="パス_1479" data-name="パス 1479" d="M1745.824,6777.06V6725.8h11.017a16.379,16.379,0,0,1,5.327.792,10.257,10.257,0,0,1,4.177,2.808,11.008,11.008,0,0,1,2.592,4.716,29.558,29.558,0,0,1,.719,7.308,36.5,36.5,0,0,1-.4,5.832,12.186,12.186,0,0,1-1.693,4.464,10.7,10.7,0,0,1-4.031,3.924,13.579,13.579,0,0,1-6.625,1.4h-3.744v20.016Zm7.344-44.352v17.424h3.529a7.489,7.489,0,0,0,3.455-.648,4.075,4.075,0,0,0,1.8-1.8,6.608,6.608,0,0,0,.684-2.664q.108-1.584.107-3.528,0-1.8-.071-3.42a7.4,7.4,0,0,0-.649-2.844,4.093,4.093,0,0,0-1.727-1.872,6.862,6.862,0,0,0-3.313-.648Z" fill="none" stroke="#fff" stroke-miterlimit="10" stroke-width="9"/>
          <path id="パス_1480" data-name="パス 1480" d="M1806.088,6725.8v39.745a11.6,11.6,0,0,1-3.456,8.423,12.2,12.2,0,0,1-3.816,2.592,11.48,11.48,0,0,1-4.608.936,11.215,11.215,0,0,1-4.571-.936,12.493,12.493,0,0,1-6.373-6.372,11.38,11.38,0,0,1-.936-4.643V6725.8h7.344v39.024a5.5,5.5,0,0,0,1.3,4.032,4.7,4.7,0,0,0,6.479,0,5.5,5.5,0,0,0,1.3-4.032V6725.8Z" fill="none" stroke="#fff" stroke-miterlimit="10" stroke-width="9"/>
          <path id="パス_1481" data-name="パス 1481" d="M1843.96,6740.556h-7.344V6738.9a7.842,7.842,0,0,0-1.188-4.356,4.393,4.393,0,0,0-3.995-1.836,4.626,4.626,0,0,0-2.449.576,4.8,4.8,0,0,0-1.512,1.44,6.069,6.069,0,0,0-.792,2.124,13.863,13.863,0,0,0-.216,2.485,24.33,24.33,0,0,0,.108,2.519,4.788,4.788,0,0,0,.54,1.8,3.98,3.98,0,0,0,1.26,1.368,11.455,11.455,0,0,0,2.269,1.152l5.615,2.232a13.976,13.976,0,0,1,3.96,2.2,9.486,9.486,0,0,1,2.376,2.916,13.662,13.662,0,0,1,1.08,3.924,39.012,39.012,0,0,1,.288,5,26.453,26.453,0,0,1-.647,6.013,12.7,12.7,0,0,1-2.088,4.715,10.36,10.36,0,0,1-3.961,3.168,13.982,13.982,0,0,1-5.976,1.152,13.088,13.088,0,0,1-4.968-.936,11.778,11.778,0,0,1-3.96-2.592,12.585,12.585,0,0,1-2.628-3.852,11.7,11.7,0,0,1-.972-4.788v-2.736h7.344v2.3a6,6,0,0,0,1.188,3.636,4.628,4.628,0,0,0,4,1.62,6.445,6.445,0,0,0,2.916-.54,3.876,3.876,0,0,0,1.62-1.548,5.671,5.671,0,0,0,.684-2.412q.108-1.4.108-3.132a31.307,31.307,0,0,0-.144-3.312,5.7,5.7,0,0,0-.576-2.088,4.069,4.069,0,0,0-1.332-1.3,17.38,17.38,0,0,0-2.2-1.08l-5.256-2.16q-4.752-1.944-6.372-5.148a17.708,17.708,0,0,1-1.62-8.028,18.629,18.629,0,0,1,.792-5.472,12.425,12.425,0,0,1,2.376-4.464,10.9,10.9,0,0,1,3.853-2.988,12.861,12.861,0,0,1,5.579-1.116,12.21,12.21,0,0,1,5.005,1.008,12.907,12.907,0,0,1,3.923,2.664,11.128,11.128,0,0,1,3.312,7.921Z" fill="none" stroke="#fff" stroke-miterlimit="10" stroke-width="9"/>
        </g>
      </g>
      <g id="グループ_659" data-name="グループ 659">
        <g id="グループ_658" data-name="グループ 658">
          <path id="パス_1482" data-name="パス 1482" d="M1666.985,6673.892a13.118,13.118,0,0,1,1.08-5.472,11.566,11.566,0,0,1,2.88-3.96,12.2,12.2,0,0,1,3.924-2.3,13.067,13.067,0,0,1,12.852,2.3,12.042,12.042,0,0,1,2.808,3.96,13.087,13.087,0,0,1,1.08,5.472v27.072a12.96,12.96,0,0,1-1.08,5.544,11.426,11.426,0,0,1-2.808,3.816,12.364,12.364,0,0,1-3.995,2.376,12.777,12.777,0,0,1-8.857,0,11.565,11.565,0,0,1-3.924-2.376,11,11,0,0,1-2.88-3.816,12.989,12.989,0,0,1-1.08-5.544Zm7.345,27.072a4.878,4.878,0,0,0,1.476,3.924,5.468,5.468,0,0,0,6.983,0,4.884,4.884,0,0,0,1.477-3.924v-27.072a4.888,4.888,0,0,0-1.477-3.924,5.468,5.468,0,0,0-6.983,0,4.881,4.881,0,0,0-1.476,3.924Z" fill="#00ad93"/>
          <path id="パス_1483" data-name="パス 1483" d="M1705.289,6713.06V6661.8h11.016a16.39,16.39,0,0,1,5.328.792,10.253,10.253,0,0,1,4.176,2.808,10.986,10.986,0,0,1,2.591,4.716,29.449,29.449,0,0,1,.721,7.308,36.358,36.358,0,0,1-.4,5.832,12.2,12.2,0,0,1-1.692,4.464,10.711,10.711,0,0,1-4.032,3.924,13.572,13.572,0,0,1-6.624,1.4h-3.744v20.016Zm7.344-44.352v17.424h3.528a7.493,7.493,0,0,0,3.456-.648,4.078,4.078,0,0,0,1.8-1.8,6.591,6.591,0,0,0,.685-2.664q.106-1.584.107-3.528,0-1.8-.072-3.42a7.38,7.38,0,0,0-.649-2.844,4.1,4.1,0,0,0-1.726-1.872,6.868,6.868,0,0,0-3.313-.648Z" fill="#e65290"/>
          <path id="パス_1484" data-name="パス 1484" d="M1741.793,6713.06V6661.8h21.888v6.912h-14.544v15.048h12.672v6.912h-12.672v15.048h14.544v7.344Z" fill="#00ace6"/>
          <path id="パス_1485" data-name="パス 1485" d="M1775.344,6713.06V6661.8h7.056l11.088,30.888h.145V6661.8h7.344v51.264h-6.913l-11.232-30.816h-.144v30.816Z" fill="#ee8a00"/>
          <path id="パス_1486" data-name="パス 1486" d="M1648.913,6762.444v3.168a11.427,11.427,0,0,1-.9,4.5,12.463,12.463,0,0,1-2.484,3.78,11.963,11.963,0,0,1-3.709,2.628,10.851,10.851,0,0,1-4.571.972,16.523,16.523,0,0,1-4.248-.575,10.044,10.044,0,0,1-3.888-2.017,11.12,11.12,0,0,1-2.843-3.708,13.079,13.079,0,0,1-1.118-5.8v-28.224a12.472,12.472,0,0,1,.866-4.68,10.968,10.968,0,0,1,2.447-3.743,11.377,11.377,0,0,1,3.78-2.485,12.714,12.714,0,0,1,4.86-.9,11.138,11.138,0,0,1,8.424,3.385,12.053,12.053,0,0,1,2.484,3.923,13.275,13.275,0,0,1,.9,4.932v2.88h-7.345v-2.448a5.95,5.95,0,0,0-1.223-3.744,3.97,3.97,0,0,0-3.312-1.584q-2.737,0-3.637,1.692a9.086,9.086,0,0,0-.9,4.284v26.208a6.781,6.781,0,0,0,.972,3.744,3.828,3.828,0,0,0,3.492,1.512,5.312,5.312,0,0,0,1.548-.252,4.6,4.6,0,0,0,1.548-.828,4.379,4.379,0,0,0,1.08-1.584,6.416,6.416,0,0,0,.431-2.52v-2.52Z" fill="#7fbc26"/>
          <path id="パス_1487" data-name="パス 1487" d="M1658.777,6777.06l11.448-51.264h6.12l11.448,51.264h-7.344l-2.16-11.016h-10.008l-2.16,11.016Zm18.144-17.928-3.6-18.576h-.143l-3.6,18.576Z" fill="#3071b5"/>
          <path id="パス_1488" data-name="パス 1488" d="M1698.592,6777.06V6725.8h7.056l9.432,27.144h.145l9.359-27.144h7.129v51.264h-7.345v-31.176h-.143l-7.273,22.033h-3.672l-7.2-22.033h-.144v31.176Z" fill="#ffd600"/>
          <path id="パス_1489" data-name="パス 1489" d="M1745.824,6777.06V6725.8h11.017a16.379,16.379,0,0,1,5.327.792,10.257,10.257,0,0,1,4.177,2.808,11.008,11.008,0,0,1,2.592,4.716,29.558,29.558,0,0,1,.719,7.308,36.5,36.5,0,0,1-.4,5.832,12.186,12.186,0,0,1-1.693,4.464,10.7,10.7,0,0,1-4.031,3.924,13.579,13.579,0,0,1-6.625,1.4h-3.744v20.016Zm7.344-44.352v17.424h3.529a7.489,7.489,0,0,0,3.455-.648,4.075,4.075,0,0,0,1.8-1.8,6.608,6.608,0,0,0,.684-2.664q.108-1.584.107-3.528,0-1.8-.071-3.42a7.4,7.4,0,0,0-.649-2.844,4.093,4.093,0,0,0-1.727-1.872,6.862,6.862,0,0,0-3.313-.648Z" fill="#00ad93"/>
          <path id="パス_1490" data-name="パス 1490" d="M1806.088,6725.8v39.745a11.6,11.6,0,0,1-3.456,8.423,12.2,12.2,0,0,1-3.816,2.592,11.48,11.48,0,0,1-4.608.936,11.215,11.215,0,0,1-4.571-.936,12.493,12.493,0,0,1-6.373-6.372,11.38,11.38,0,0,1-.936-4.643V6725.8h7.344v39.024a5.5,5.5,0,0,0,1.3,4.032,4.7,4.7,0,0,0,6.479,0,5.5,5.5,0,0,0,1.3-4.032V6725.8Z" fill="#e65290"/>
          <path id="パス_1491" data-name="パス 1491" d="M1843.96,6740.556h-7.344V6738.9a7.842,7.842,0,0,0-1.188-4.356,4.393,4.393,0,0,0-3.995-1.836,4.626,4.626,0,0,0-2.449.576,4.8,4.8,0,0,0-1.512,1.44,6.069,6.069,0,0,0-.792,2.124,13.863,13.863,0,0,0-.216,2.485,24.33,24.33,0,0,0,.108,2.519,4.788,4.788,0,0,0,.54,1.8,3.98,3.98,0,0,0,1.26,1.368,11.455,11.455,0,0,0,2.269,1.152l5.615,2.232a13.976,13.976,0,0,1,3.96,2.2,9.486,9.486,0,0,1,2.376,2.916,13.662,13.662,0,0,1,1.08,3.924,39.012,39.012,0,0,1,.288,5,26.453,26.453,0,0,1-.647,6.013,12.7,12.7,0,0,1-2.088,4.715,10.36,10.36,0,0,1-3.961,3.168,13.982,13.982,0,0,1-5.976,1.152,13.088,13.088,0,0,1-4.968-.936,11.778,11.778,0,0,1-3.96-2.592,12.585,12.585,0,0,1-2.628-3.852,11.7,11.7,0,0,1-.972-4.788v-2.736h7.344v2.3a6,6,0,0,0,1.188,3.636,4.628,4.628,0,0,0,4,1.62,6.445,6.445,0,0,0,2.916-.54,3.876,3.876,0,0,0,1.62-1.548,5.671,5.671,0,0,0,.684-2.412q.108-1.4.108-3.132a31.307,31.307,0,0,0-.144-3.312,5.7,5.7,0,0,0-.576-2.088,4.069,4.069,0,0,0-1.332-1.3,17.38,17.38,0,0,0-2.2-1.08l-5.256-2.16q-4.752-1.944-6.372-5.148a17.708,17.708,0,0,1-1.62-8.028,18.629,18.629,0,0,1,.792-5.472,12.425,12.425,0,0,1,2.376-4.464,10.9,10.9,0,0,1,3.853-2.988,12.861,12.861,0,0,1,5.579-1.116,12.21,12.21,0,0,1,5.005,1.008,12.907,12.907,0,0,1,3.923,2.664,11.128,11.128,0,0,1,3.312,7.921Z" fill="#00ace6"/>
        </g>
      </g>
    </g>
  </g>
</svg>
