<svg xmlns="http://www.w3.org/2000/svg" width="172.673" height="175.343" viewBox="0 0 172.673 175.343">
  <g id="グループ_2197" data-name="グループ 2197" transform="translate(-854.884 -5898.394)">
    <g id="グループ_855" data-name="グループ 855">
      <g id="グループ_854" data-name="グループ 854">
        <path id="パス_1739" data-name="パス 1739" d="M1005.175,5997.53l22.383-10.13-22.381-10.129,18.156-16.549L998.915,5958l12.153-21.352-24.06,4.961,4.961-24.06-21.35,12.153-2.719-24.417-16.549,18.155-10.129-22.381-10.129,22.383-16.551-18.156-2.717,24.417-21.35-12.153,4.961,24.06-24.062-4.961L883.526,5958l-24.418,2.718,18.158,16.549L854.884,5987.4l22.38,10.129-18.156,16.549,24.418,2.718-12.153,21.352,24.062-4.961-4.961,24.06,21.35-12.153,2.717,24.417,16.551-18.156,10.129,22.383,10.129-22.381,16.549,18.154,2.719-24.417,21.35,12.153-4.961-24.06,24.06,4.961L998.915,6016.8l24.418-2.718Z" fill="#e65290"/>
        <g id="グループ_853" data-name="グループ 853">
          <path id="パス_1740" data-name="パス 1740" d="M858.743,5983.757l20.614-9.33-16.722-15.243,22.488-2.5-11.193-19.664,22.161,4.568-4.569-22.161,19.664,11.193,2.5-22.488,15.243,16.722,9.329-20.614,9.33,20.614,15.243-16.722,2.5,22.488L985,5919.425l-4.569,22.161,22.161-4.568L991.4,5956.681l22.488,2.5-16.722,15.243,20.614,9.329-20.614,9.33,16.722,15.243-22.488,2.5,11.193,19.664-22.161-4.568L985,6048.088,965.336,6036.9l-2.5,22.488-15.243-16.722-9.33,20.614-9.329-20.614-15.243,16.722-2.5-22.488-19.664,11.193,4.569-22.161-22.161,4.568,11.193-19.664-22.488-2.5,16.722-15.243Z" fill="#fff"/>
          <path id="パス_1741" data-name="パス 1741" d="M1001.068,5993.662l17.505-8.149,3.881-1.806-3.881-1.707-18.383-8.085,14.671-13.662,2.349-2.188-3.164-.318-20.705-2.082,10.089-18.171,1.01-1.82-2.043.4-20.4,3.979,4.418-20.335.675-3.107-2.806,1.558-17.527,9.731-2.009-19.982-.424-4.218-2.917,3.132-13.159,14.131-7.793-17.717-2.133-4.851-2.258,4.851-7.837,16.837-12.4-13.9-4.378-4.907-.634,6.535L909,5926.483l-16.37-9.013-4.381-2.412,1.065,4.821,4.257,19.263-19.321-3.7-3.509-.672,1.788,3.04,10.492,17.838-20.5,2.576-2.127.267,1.584,1.4,16.217,14.366c-.426.2-.848.4-1.272.6l-19.648,8.891,17.908,8.1q1.465.7,2.939,1.4l-16.2,14.3-1.717,1.516,2.3.294,20.307,2.589-10.433,17.666-1.971,3.338,3.864-.733,19.023-3.606-4.227,18.964-1.188,5.331,4.859-2.664,16-8.774,1.738,18.26.684,7.187,4.884-5.377,11.975-13.185,7.368,16.2,2.868,6.306,2.841-6.306,7.365-16.351,12.1,13.223,4.556,4.981.734-6.7,1.965-17.948,15.7,8.9,5.718,3.242-1.337-6.425-3.7-17.8,17.8,3.637,6.34,1.295-3.243-5.558-9.387-16.091,18.435-2.251,5.311-.648-3.954-3.528ZM860.2,5983.756l17.342-7.849c.691-.3,1.387-.593,2.075-.894l.886-.388-.718-.673-14.942-14.014,20.417-1.979,1.926-.187-.951-1.727-9.191-16.693,18.652,4.122,2.834.626-.556-2.9-3.314-17.313,15.249,8.969,3.335,1.962.492-3.912,2.046-16.276,11.186,12.012,2.764,2.968,1.61-3.661,6.977-15.863,7.291,15.664,1.4,3.009,2.178-2.442,12.243-13.721,2.223,18.212.313,2.562,2.2-1.282,16.8-9.8-3.718,19.058-.353,1.81,1.777-.386,19.98-4.342-10.3,17.661-.916,1.57,1.83.224,19.275,2.353-14.512,12.948-1.9,1.695,2.34,1.089,16.635,7.743-16.833,7.4-3,1.318,2.429,2.261,12.644,11.775-17.242,1.733-3.98.4,1.969,3.546,7.9,14.236-15.975-3.323-4.357-.906.893,4.37,3.214,15.729-13.948-7.972-3.969-2.269-.515,4.554-1.784,15.776-10.682-11.76-3.156-3.475-1.947,4.283-6.5,14.291-6.452-14.324-1.978-4.391-3.258,3.562L916,6052.1l-1.978-15.518-.554-4.343-3.692,2.18-14.782,8.73,3.183-16.789.608-3.212-3.123.7-18.3,4.079,8.988-16.394,1.038-1.893-2.1-.2-20.248-1.927,14.786-13.917.771-.725-.949-.4-3-1.268Z" fill="#333"/>
        </g>
      </g>
    </g>
    <path id="パス_2688" data-name="パス 2688" d="M-23.563-3.349l-2.25.035q-.141,0-.167-.035a.3.3,0,0,1-.026-.158V-4.9q0-.149.035-.176a.3.3,0,0,1,.158-.026l2.25.035h4.737q-.035-1.011-.105-1.529l1.046.105a11.669,11.669,0,0,0,1.635-1.292h-3.885l-2.329.035q-.193,0-.193-.176V-9.185q0-.141.035-.167a.3.3,0,0,1,.158-.026l2.329.035h4.878a1.483,1.483,0,0,0,.431-.035.994.994,0,0,1,.229-.07q.176,0,.782.571.5.527.5.773a.291.291,0,0,1-.22.29,4.823,4.823,0,0,0-.861.6,21.89,21.89,0,0,1-2.522,1.863v.29h4.5l2.25-.035a.278.278,0,0,1,.176.035.328.328,0,0,1,.026.167v1.389A.264.264,0,0,1-10-3.344a.286.286,0,0,1-.171.031l-2.25-.035h-4.5V-2.18l.035,1.564A1.691,1.691,0,0,1-17.455.861a2.511,2.511,0,0,1-.993.316,14.317,14.317,0,0,1-1.767.079,1.05,1.05,0,0,1-.519-.07,1.164,1.164,0,0,1-.185-.448A5.208,5.208,0,0,0-21.454-.58q1.072.105,1.925.105a.835.835,0,0,0,.563-.141.671.671,0,0,0,.141-.483v-2.25Zm.044-11.118,1.081-.4a.534.534,0,0,1,.193-.053q.1,0,.2.141a12.534,12.534,0,0,1,1.2,1.872.5.5,0,0,1,.053.149q0,.062-.22.141l-1.187.431h3.744a12.157,12.157,0,0,0-1.028-2.25.3.3,0,0,1-.053-.132q0-.062.22-.141l1.187-.36a.647.647,0,0,1,.167-.035q.105,0,.193.141a11.874,11.874,0,0,1,.993,2.092.512.512,0,0,1,.026.123q0,.07-.229.149l-1.169.413h2.777A16.333,16.333,0,0,0-14.484-14a6,6,0,0,0,.272-.949,8.821,8.821,0,0,1,1.775.536q.255.114.255.272a.341.341,0,0,1-.176.272,1.046,1.046,0,0,0-.343.413q-.378.7-.738,1.274h.466l2.373-.035a.32.32,0,0,1,.193.035.3.3,0,0,1,.026.158l-.035.976v.826l.035,2.013q0,.158-.044.193a.355.355,0,0,1-.176.026h-1.415q-.149,0-.176-.044a.355.355,0,0,1-.026-.176v-2.373H-23.739v2.373q0,.149-.035.176a.3.3,0,0,1-.158.026h-1.424a.32.32,0,0,1-.193-.035.328.328,0,0,1-.026-.167l.035-2.03v-.668l-.035-1.116q0-.141.044-.167a.355.355,0,0,1,.176-.026l2.373.035h.483a9.271,9.271,0,0,0-1.151-2.013.32.32,0,0,1-.062-.141Q-23.713-14.405-23.52-14.467Zm21.3-.431a8.51,8.51,0,0,1,1.134,1.116.521.521,0,0,1,.167.316q0,.22-.325.22a2.02,2.02,0,0,0-.615.158,13.854,13.854,0,0,1-1.38.492v2.479h.158l1.978-.035q.149,0,.176.035A.328.328,0,0,1-.9-9.949v1.274A.278.278,0,0,1-.932-8.5a.328.328,0,0,1-.167.026l-1.942-.035a10.29,10.29,0,0,0,2.3,2.769A5.676,5.676,0,0,0-1.4-4.359q-.079.29-.2.29t-.308-.272a12.077,12.077,0,0,1-1.38-2.241l.105,7.831q0,.176-.2.176H-4.86q-.193,0-.193-.176,0-.1.026-1.2.088-3.375.114-6.249A14.324,14.324,0,0,1-7.022-2.145q-.2.29-.316.29t-.22-.308A3.8,3.8,0,0,0-8.3-3.524,13.318,13.318,0,0,0-5.309-8.508h-.448l-1.986.035q-.141,0-.167-.035a.328.328,0,0,1-.026-.167V-9.949q0-.149.035-.176a.3.3,0,0,1,.158-.026l1.986.035H-5v-2.03q-.536.114-1.477.29a2.85,2.85,0,0,1-.369.044.294.294,0,0,1-.255-.123,2.024,2.024,0,0,1-.185-.369A3.611,3.611,0,0,0-7.9-13.28a17.752,17.752,0,0,0,4.957-1.187A4.773,4.773,0,0,0-2.215-14.9ZM1.134-4.359l3.208-.624v-7.242a21.82,21.82,0,0,0-.149-2.716q1.072.026,1.9.123.29.026.29.185a.923.923,0,0,1-.1.378,9.824,9.824,0,0,0-.105,2v6.9q.7-.149,1.257-.29.079-.018.316-.079l.132-.035a.714.714,0,0,1,.088-.009q.07,0,.114.193l.229,1.406a.373.373,0,0,1,.018.088q0,.088-.193.123-.026.009-.624.114Q6.9-3.744,6.179-3.6v1.679L6.214,1.2a.278.278,0,0,1-.035.176.328.328,0,0,1-.167.026H4.482q-.176,0-.176-.2l.035-3.111V-3.226l-2.9.563-2.3.466a.372.372,0,0,1-.088.018q-.088,0-.132-.193l-.246-1.371a.494.494,0,0,1-.018-.114q0-.088.176-.123.035,0,.7-.105Q.264-4.2,1.134-4.359ZM.694-9.624a15.619,15.619,0,0,1,2.54,2.355.271.271,0,0,1,.088.158q0,.079-.141.22L2.3-5.977q-.132.132-.2.132a.243.243,0,0,1-.158-.088,14.558,14.558,0,0,0-2.479-2.5q-.105-.1-.105-.141,0-.062.132-.2l.87-.809q.114-.123.176-.123A.308.308,0,0,1,.694-9.624Zm.51-4.131a15.4,15.4,0,0,1,2.5,2.259.358.358,0,0,1,.088.158q0,.079-.132.185l-.879.9q-.149.158-.193.158T2.461-10.2A13.16,13.16,0,0,0-.018-12.56q-.114-.088-.114-.141t.149-.2l.861-.791q.123-.123.185-.123A.32.32,0,0,1,1.2-13.755ZM19.151-11.03A21.776,21.776,0,0,1,16.9-3.278,3.5,3.5,0,0,1,13.834-1.2a2.742,2.742,0,0,1-2.3-1.371,5.681,5.681,0,0,1-.879-3.252,6.454,6.454,0,0,1,2.03-4.685,7.93,7.93,0,0,1,5.854-2.3,6.9,6.9,0,0,1,5.273,2,5.952,5.952,0,0,1,1.582,4.236q0,4.887-5.546,6.557a1.022,1.022,0,0,1-.264.044q-.264,0-.51-.369a3.763,3.763,0,0,0-1.257-1.134,8.848,8.848,0,0,0,4.043-1.854,4.614,4.614,0,0,0,1.389-3.524A4.105,4.105,0,0,0,21.99-9.9a3.785,3.785,0,0,0-2.769-1.134Zm-2.092.105A5.533,5.533,0,0,0,13.983-9.29a4.962,4.962,0,0,0-1.406,3.331,3.885,3.885,0,0,0,.448,2q.352.58.773.58.738,0,1.354-1.1a15.437,15.437,0,0,0,1.2-3.094A22.626,22.626,0,0,0,17.06-10.925ZM-32.493,21.3V15.409h-6.284a25.968,25.968,0,0,0-2.7.105q-.272,0-.272-.308a18.03,18.03,0,0,1-.088-1.916q1.257.123,3.006.123h5.344q.94,0,2.848-.07.36,0,.36.255v.053l-.035,2.839V20.8q0,1.274.07,3.252,0,.229-.325.255-.369.026-.791.026t-.791-.026a.538.538,0,0,1-.29-.07A.359.359,0,0,1-32.493,24v-.721h-6.187q-.7,0-1.679.035-1.072.035-1.274.035-.229,0-.255-.272a16.835,16.835,0,0,1-.088-1.863q1.406.088,3.313.088Zm18,0V15.409h-6.284a25.968,25.968,0,0,0-2.7.105q-.272,0-.272-.308a18.03,18.03,0,0,1-.088-1.916q1.257.123,3.006.123h5.344q.94,0,2.848-.07.36,0,.36.255v.053l-.035,2.839V20.8q0,1.274.07,3.252,0,.229-.325.255-.369.026-.791.026t-.791-.026a.538.538,0,0,1-.29-.07A.359.359,0,0,1-14.493,24v-.721h-6.187q-.7,0-1.679.035-1.072.035-1.274.035-.229,0-.255-.272a16.835,16.835,0,0,1-.088-1.863q1.406.088,3.313.088Zm18.466-9.07.958-.668a.165.165,0,0,1,.105-.044.252.252,0,0,1,.158.079,7.725,7.725,0,0,1,1.714,1.925.224.224,0,0,1,.053.132.213.213,0,0,1-.105.158l-.756.554a.241.241,0,0,1-.141.062.215.215,0,0,1-.167-.114A8.917,8.917,0,0,0,3.973,12.227Zm1.661-1.2.9-.65a.235.235,0,0,1,.114-.044.281.281,0,0,1,.158.079A7.156,7.156,0,0,1,8.508,12.28a.263.263,0,0,1,.053.141.222.222,0,0,1-.105.176l-.721.563a.241.241,0,0,1-.141.062.215.215,0,0,1-.167-.114A8.769,8.769,0,0,0,5.634,11.032Zm-8.859,4.1q.272-.976.536-2.268a11.916,11.916,0,0,0,.185-2,16.139,16.139,0,0,1,2.153.589.355.355,0,0,1,.29.36.378.378,0,0,1-.123.272,2.367,2.367,0,0,0-.36.686q-.132.4-.343,1.143-.2.677-.308,1.02a12.145,12.145,0,0,1,1.441-.079q2.575,0,2.575,3.472a18.633,18.633,0,0,1-.29,3.261,9.384,9.384,0,0,1-.686,2.382A2.536,2.536,0,0,1-.58,25.666a4.788,4.788,0,0,1-1.872-.272.494.494,0,0,1-.325-.5,5.888,5.888,0,0,0-.343-1.67,4.867,4.867,0,0,0,2.074.466,1.057,1.057,0,0,0,.729-.229,2.071,2.071,0,0,0,.422-.729,12.72,12.72,0,0,0,.7-4.482A2.513,2.513,0,0,0,.563,16.9.912.912,0,0,0-.22,16.6a11.737,11.737,0,0,0-1.512.123,52.886,52.886,0,0,1-3.621,8.464q-.1.22-.264.22a.438.438,0,0,1-.2-.062,5.122,5.122,0,0,1-1.248-.791.393.393,0,0,1-.141-.264.339.339,0,0,1,.07-.2,41.06,41.06,0,0,0,3.3-7.058q-.615.1-1.758.308a6.273,6.273,0,0,0-.993.29.663.663,0,0,1-.22.044.371.371,0,0,1-.36-.281,17.336,17.336,0,0,1-.554-1.854q.993,0,2.373-.123Q-4.377,15.312-3.226,15.137ZM2.988,15Q4,14.31,4.438,14.073a.283.283,0,0,1,.123-.035.339.339,0,0,1,.22.123A11.736,11.736,0,0,1,7.77,18.538a.406.406,0,0,1,.044.158.27.27,0,0,1-.114.2,5.765,5.765,0,0,1-1.354.9.386.386,0,0,1-.185.053.225.225,0,0,1-.229-.193A12.216,12.216,0,0,0,2.988,15ZM17.209,22.95l-2.47.035a.3.3,0,0,1-.185-.035.3.3,0,0,1-.026-.158v-.976a.32.32,0,0,1,.035-.193.355.355,0,0,1,.176-.026l1.8.035V20.621q-.457.009-.879.026l-.29.009q-.141,0-.167-.044a.328.328,0,0,1-.026-.167v-.958q0-.141.035-.167a.3.3,0,0,1,.158-.026l2.373.035h2.5v-.773H18.325l-2.232.035q-.141,0-.167-.044a.355.355,0,0,1-.026-.176l.035-.949V16.6L15.9,15.62q0-.141.035-.167a.3.3,0,0,1,.158-.026l2.232.035H22l2.25-.035q.176,0,.176.193l-.035.976v.826l.035.949a.382.382,0,0,1-.026.185q-.026.035-.149.035l-2.268-.035v.773h.571l2.382-.035q.141,0,.167.035a.3.3,0,0,1,.026.158v.958a.31.31,0,0,1-.031.176q-.031.035-.163.035l-2.382-.035h-.571v1.011h1.327L25.8,21.6q.141,0,.167.044a.355.355,0,0,1,.026.176v.976a.147.147,0,0,1-.193.193l-2.487-.035H21.981l.035,1.081a.309.309,0,0,1-.031.18.286.286,0,0,1-.171.031h-1.4q-.149,0-.176-.035a.355.355,0,0,1-.026-.176q0-.018.009-.352.018-.36.026-.729Zm5.4-5.511v-.809H17.675v.809Zm-4.351,4.192h2V20.621h-2Zm8.35,2.654a2.566,2.566,0,0,0-.483,1.187q-.07.448-.167.519a1.1,1.1,0,0,1-.5.088q-3.419.167-6.3.167a12.806,12.806,0,0,1-4.245-.466,3.856,3.856,0,0,1-1.89-1.644,18.289,18.289,0,0,1-1.644,1.494,2.551,2.551,0,0,0-.413.387.316.316,0,0,1-.272.158A.282.282,0,0,1,10.424,26q-.316-.633-.721-1.661a7.652,7.652,0,0,0,1.046-.562,6.805,6.805,0,0,0,1.327-1.116V18.626h-.738L10.1,18.67q-.158,0-.193-.044a.355.355,0,0,1-.026-.176V17.079q0-.141.044-.167a.355.355,0,0,1,.176-.026l1.239.035h1.028l1.31-.035q.185,0,.185.193l-.035,1.731v3.92a2.993,2.993,0,0,0,1.714,1.556,13.773,13.773,0,0,0,3.56.325Q23.159,24.611,26.6,24.286Zm-9.5-9.562-2.5.035q-.141,0-.167-.035a.3.3,0,0,1-.026-.158V13.59q0-.141.035-.167A.275.275,0,0,1,14.6,13.4l2.5.035h.264q.369-.729.457-.94l-1.986.035q-.141,0-.167-.044a.355.355,0,0,1-.026-.176v-.9a.3.3,0,0,1,.035-.185.3.3,0,0,1,.158-.026l2.18.035h.343l.105-.29a4.362,4.362,0,0,0,.255-.967q.888.053,1.775.158.255.053.255.22a.432.432,0,0,1-.158.264,1.332,1.332,0,0,0-.255.492l-.053.123h1.354l2.206-.035q.158,0,.193.044a.355.355,0,0,1,.026.176l-.035.932v1.081l1.8-.035a.278.278,0,0,1,.176.035.3.3,0,0,1,.026.158v.976q0,.141-.044.167a.275.275,0,0,1-.158.026l-2.487-.035Zm5.168-2.232h-2.5l-.431.94h2.936ZM11.751,10.707a14.29,14.29,0,0,1,2.232,2.663.279.279,0,0,1,.062.149q0,.1-.149.229l-.949.8a.473.473,0,0,1-.237.123q-.07,0-.141-.123a13.248,13.248,0,0,0-2.2-2.795q-.105-.1-.105-.149t.176-.176l.932-.7a.624.624,0,0,1,.22-.1A.281.281,0,0,1,11.751,10.707ZM34,10.294a23.732,23.732,0,0,0,5.221,1.283q.246.044.246.255a.289.289,0,0,1-.009.07,10.878,10.878,0,0,1-.4,1.582q-.079.255-.22.255H38.8a26.081,26.081,0,0,1-5.221-1.389.227.227,0,0,1-.141-.229.545.545,0,0,1,.018-.132A9.9,9.9,0,0,1,34,10.294Zm-3.489,5.941a12.164,12.164,0,0,0,2.145-.519,14.236,14.236,0,0,1,4.122-.905,3.484,3.484,0,0,1,2.927,1.3,4.739,4.739,0,0,1,.87,2.979A6.979,6.979,0,0,1,39.111,23.4a10.025,10.025,0,0,1-3.472,2.865.928.928,0,0,1-.308.088.633.633,0,0,1-.431-.237,4.5,4.5,0,0,0-1.494-.949,9.957,9.957,0,0,0,3.955-3.006,5.4,5.4,0,0,0,.993-3.19,2.67,2.67,0,0,0-.5-1.767,1.472,1.472,0,0,0-1.178-.5,6.517,6.517,0,0,0-2.821.773,10.308,10.308,0,0,0-1.529.861.709.709,0,0,1-.4.185q-.246,0-.51-.4A10.787,10.787,0,0,1,30.507,16.235Z" transform="translate(937.855 5979.694)"/>
  </g>
</svg>
