<svg xmlns="http://www.w3.org/2000/svg" width="160.922" height="149.729" viewBox="0 0 160.922 149.729">
  <g id="グループ_2195" data-name="グループ 2195" transform="translate(-1187.987 -5709.631)">
    <g id="グループ_858" data-name="グループ 858">
      <g id="グループ_857" data-name="グループ 857">
        <path id="パス_1742" data-name="パス 1742" d="M1343.19,5785.783a47.021,47.021,0,0,0,4.37-19.826c0-28.142-24.977-51.038-55.676-51.038a58.215,58.215,0,0,0-40.6,16.13,61.193,61.193,0,0,0-6.237-.326c-30.7,0-55.677,22.9-55.677,51.04,0,21.5,14.58,39.922,35.148,47.429l-14.123,27.658,35.684-21.41c10.138,14.867,27.746,23.92,47.159,23.92,30.7,0,55.676-22.9,55.676-51.038A47.7,47.7,0,0,0,1343.19,5785.783Z" fill="#00ace6"/>
        <g id="グループ_856" data-name="グループ 856">
          <path id="パス_1743" data-name="パス 1743" d="M1337.065,5781.111a44.127,44.127,0,0,0,4.777-19.935c0-26.414-23.489-47.826-52.463-47.826a54.613,54.613,0,0,0-39.425,16.29,57.871,57.871,0,0,0-7.417-.485c-28.975,0-52.463,21.412-52.463,47.826s23.488,47.825,52.463,47.825c.4,0,.789-.019,1.184-.027,8.582,15.754,26.4,26.587,47.006,26.587,28.975,0,52.463-21.413,52.463-47.826A44.293,44.293,0,0,0,1337.065,5781.111Z" fill="#fff"/>
        </g>
        <path id="パス_1744" data-name="パス 1744" d="M1344.685,5799.752a45.029,45.029,0,0,0-2.553-9.915,39.3,39.3,0,0,0-2.095-4.624,29.743,29.743,0,0,0-2.553-4.115,26.568,26.568,0,0,0,2.118-3.8,39.411,39.411,0,0,0,1.739-4.239,42.167,42.167,0,0,0,2.061-9,46.406,46.406,0,0,0-1.785-18.566,48.02,48.02,0,0,0-9.159-16.524,55.2,55.2,0,0,0-14.685-12.014,59.758,59.758,0,0,0-17.888-6.405l-4.722-.7-4.763-.207a54.85,54.85,0,0,0-41.458,17.479,54.206,54.206,0,0,0-9.453.171c-.892.081-1.785.133-2.672.241l-2.644.467-2.633.479-2.588.682c-.86.23-1.726.437-2.579.687l-2.512.906c-.833.312-1.68.583-2.5.929l-2.416,1.125c-.8.38-1.635.692-2.408,1.129l-2.318,1.309a41.18,41.18,0,0,0-4.468,2.881,57.053,57.053,0,0,0-8.053,6.936c-1.259,1.253-2.309,2.7-3.471,4.047-1.077,1.413-2.053,2.909-3.075,4.372a48.368,48.368,0,0,0-6.907,20.235,46.813,46.813,0,0,0,2.791,21.52,49.345,49.345,0,0,0,12.2,18.279c10.189,9.621,24.043,14.934,38.02,15.444a52.126,52.126,0,0,0,12.525,14.336,58.21,58.21,0,0,0,18.98,9.877,59.645,59.645,0,0,0,21.148,2.315,58.439,58.439,0,0,0,20.562-5.1c12.923-5.766,23.631-16.722,28.156-30.071A45.649,45.649,0,0,0,1344.685,5799.752Zm-3.5,5.04a34.683,34.683,0,0,1-.638,4.693,33.279,33.279,0,0,1-1.161,4.563,35.052,35.052,0,0,1-1.64,4.388,45.481,45.481,0,0,1-10.751,15.032,50.591,50.591,0,0,1-15.573,9.782,54.3,54.3,0,0,1-17.945,3.722,51.283,51.283,0,0,1-18.087-2.4,49.257,49.257,0,0,1-16.1-8.3,51.469,51.469,0,0,1-6.622-6.171,48.461,48.461,0,0,1-5.237-7.349l-1.323-2.265-2.473.062a54.564,54.564,0,0,1-18.983-2.771,50.792,50.792,0,0,1-16.717-9.462,45.708,45.708,0,0,1-11.743-15.263,41.341,41.341,0,0,1,1.433-38.108c.914-1.405,1.771-2.856,2.745-4.226,1.088-1.283,2.058-2.672,3.24-3.874a45.928,45.928,0,0,1,7.619-6.632,38.838,38.838,0,0,1,4.3-2.669l2.225-1.207c.741-.4,1.543-.684,2.311-1.032l2.34-.963c.791-.289,1.61-.5,2.412-.758l2.415-.738c.818-.195,1.648-.347,2.47-.523l2.469-.5,2.507-.257,2.5-.249c.836-.036,1.676-.017,2.512-.03a46.829,46.829,0,0,1,9.948.785l1.1.19.986-.922a53.476,53.476,0,0,1,30.2-13.762,55.335,55.335,0,0,1,32.482,5.6,48.53,48.53,0,0,1,13.359,9.968,43.59,43.59,0,0,1,9.095,14.043,45.692,45.692,0,0,1,3.247,16.654,47.143,47.143,0,0,1-.882,8.632c-.29,1.43-.661,2.847-1.07,4.261-.42,1.464-.887,2.668-1.506,4.386.8,1.805,1.415,3.143,1.974,4.722a48.164,48.164,0,0,1,1.454,4.649,42.236,42.236,0,0,1,1.308,9.531A31.321,31.321,0,0,1,1341.181,5804.792Z" fill="#333"/>
      </g>
      <path id="パス_1745" data-name="パス 1745" d="M1265.682,5822.48l-39.179,23.508,17.1-33.48Z" fill="#fff"/>
      <path id="パス_1746" data-name="パス 1746" d="M1255.136,5827.107l-5.146,2.522-5.081,2.634c-4.008,2.107-7.954,4.318-11.863,6.589.009-.02.02-.04.029-.06,1.334-2.837,2.6-5.709,3.829-8.6,1.27-2.869,2.412-5.8,3.561-8.734,1.116-2.948,2.21-5.907,3.134-8.952-1.926,2.534-3.681,5.155-5.415,7.787-1.7,2.65-3.407,5.3-4.987,8.006-1.617,2.692-3.2,5.4-4.719,8.143s-3.013,5.5-4.46,8.275l-4.491,8.627,8.411-4.966c6.558-3.871,13.029-7.887,19.337-12.174l4.715-3.243,4.648-3.355c3.063-2.295,6.125-4.592,9.044-7.127C1262.071,5823.863,1258.6,5825.484,1255.136,5827.107Z" fill="#333"/>
    </g>
    <path id="パス_2687" data-name="パス 2687" d="M-50.484-3.006l-2.276.035a.3.3,0,0,1-.185-.035.3.3,0,0,1-.026-.158V-4.236a.3.3,0,0,1,.035-.185.355.355,0,0,1,.176-.026l2.276.035h4.438v-.967h-2.531l-2.487.035q-.141,0-.158-.035a.43.43,0,0,1-.018-.167V-6.574a.351.351,0,0,1,.026-.185.251.251,0,0,1,.149-.026l2.487.035h2.531V-7.7H-49.43l-2.408.035q-.158,0-.185-.035t-.035-.141V-8.9q0-.149.044-.176a.355.355,0,0,1,.176-.026l2.408.035h1.1A11.894,11.894,0,0,0-48.9-10.2a.418.418,0,0,1-.062-.167q0-.079.185-.141l1.169-.325h-2.874l-2.276.035a.3.3,0,0,1-.185-.035A.3.3,0,0,1-52.972-11v-1.116a.32.32,0,0,1,.035-.193.355.355,0,0,1,.176-.026l2.276.035h.123a9.118,9.118,0,0,0-1.028-1.547.2.2,0,0,1-.062-.123q0-.079.211-.185l1.037-.483a.465.465,0,0,1,.167-.053q.079,0,.176.123a10.345,10.345,0,0,1,1.213,1.749.362.362,0,0,1,.053.132q0,.062-.2.176l-.431.211h1.67v-1.187a8.343,8.343,0,0,0-.105-1.564q1.09.035,1.74.105.22.026.22.158a1.21,1.21,0,0,1-.07.308,3.044,3.044,0,0,0-.105.993V-12.3h1.459v-1.169a7.837,7.837,0,0,0-.114-1.582,16,16,0,0,1,1.731.123q.237.026.237.167a.874.874,0,0,1-.07.281,2.823,2.823,0,0,0-.114.993V-12.3h1.116a13.12,13.12,0,0,0,.826-1.477,3.5,3.5,0,0,0,.308-.967,13.731,13.731,0,0,1,1.74.466q.237.079.237.229a.415.415,0,0,1-.176.308,1.788,1.788,0,0,0-.308.343q-.229.36-.738,1.1h.255l2.268-.035q.141,0,.167.044a.355.355,0,0,1,.026.176V-11q0,.141-.035.167a.3.3,0,0,1-.158.026l-2.268-.035h-3.155q.747.141,1.424.325.237.062.237.22a.3.3,0,0,1-.2.264,1.762,1.762,0,0,0-.246.378l-.325.58h1.169l2.408-.035q.149,0,.176.035a.328.328,0,0,1,.026.167V-7.84q0,.176-.2.176L-40.588-7.7h-3.639v.949h2.865l2.479-.035q.149,0,.176.044a.328.328,0,0,1,.026.167v1.028a.286.286,0,0,1-.031.171.286.286,0,0,1-.171.031l-2.479-.035h-2.865v.967h4.737l2.268-.035q.141,0,.167.044a.328.328,0,0,1,.026.167v1.072A.264.264,0,0,1-37.059-3a.264.264,0,0,1-.163.031l-2.268-.035H-42.7A16.844,16.844,0,0,0-36.7-.668a5.022,5.022,0,0,0-.7,1.16q-.193.466-.4.466A2.442,2.442,0,0,1-38.215.87a15.187,15.187,0,0,1-6.047-3.226l.088,3.56a.278.278,0,0,1-.035.176.3.3,0,0,1-.158.026H-45.9q-.185,0-.185-.2,0-.088.018-.562.044-1.45.053-2.927A14.863,14.863,0,0,1-51.785.94a1.523,1.523,0,0,1-.413.105q-.176,0-.4-.466A3.994,3.994,0,0,0-53.314-.5a15.549,15.549,0,0,0,5.739-2.5Zm7.427-7.11a4.123,4.123,0,0,0,.2-.721h-4.588a.494.494,0,0,1,.141.141,11.982,11.982,0,0,1,.809,1.626h2.953Q-43.3-9.527-43.058-10.116ZM-25.84-5.124q.87.026,1.652.105a10.831,10.831,0,0,1-2-2.268h-1.89a11.451,11.451,0,0,1-1.784,2.162q.642.018,1.494.123.343.062.343.255a1.164,1.164,0,0,1-.105.343,2.312,2.312,0,0,0-.149.791,5.355,5.355,0,0,1-1.16,3.138,6.749,6.749,0,0,1-2.654,1.828,1.359,1.359,0,0,1-.431.141q-.132,0-.413-.431a3.781,3.781,0,0,0-.976-1.02,6.12,6.12,0,0,0,2.971-1.591A3.65,3.65,0,0,0-30.1-3.762q.009-.193.009-.4a4.063,4.063,0,0,0-.053-.712,12.458,12.458,0,0,1-3.727,2.241,1.329,1.329,0,0,1-.431.123q-.149,0-.378-.448A4.85,4.85,0,0,0-35.473-4.1a10.111,10.111,0,0,0,5.238-3.182h-.4l-2.5.035a.155.155,0,0,1-.176-.176l.035-1.784v-3.173l-.035-1.784q0-.193.176-.193l2.5.035h7.251l2.5-.035q.149,0,.176.035a.3.3,0,0,1,.026.158l-.035,1.784v3.173l.035,1.784q0,.176-.2.176l-2.5-.035H-24.1a11.222,11.222,0,0,0,5.484,3.041A4.783,4.783,0,0,0-19.424-3q-.193.466-.343.466a2.047,2.047,0,0,1-.413-.123,13.711,13.711,0,0,1-3.489-1.969,1.93,1.93,0,0,1-.088.272,10.593,10.593,0,0,0-.07,1.652V-.861l.035,2.092q0,.149-.044.185a.355.355,0,0,1-.176.026h-1.547q-.141,0-.167-.035a.355.355,0,0,1-.026-.176l.035-2.092V-2.681A19.821,19.821,0,0,0-25.84-5.124Zm3.27-3.639v-1.354h-3.577v1.354Zm0-4.069h-3.577v1.345h3.577Zm-8.868,1.345h3.489v-1.345h-3.489Zm0,2.725h3.489v-1.354h-3.489Zm23.59-2.268A21.776,21.776,0,0,1-10.1-3.278,3.5,3.5,0,0,1-13.166-1.2a2.742,2.742,0,0,1-2.3-1.371,5.681,5.681,0,0,1-.879-3.252,6.454,6.454,0,0,1,2.03-4.685,7.93,7.93,0,0,1,5.854-2.3,6.9,6.9,0,0,1,5.273,2A5.952,5.952,0,0,1-1.608-6.574q0,4.887-5.546,6.557a1.022,1.022,0,0,1-.264.044q-.264,0-.51-.369A3.763,3.763,0,0,0-9.185-1.477,8.848,8.848,0,0,0-5.142-3.331,4.614,4.614,0,0,0-3.753-6.855,4.105,4.105,0,0,0-5.01-9.9,3.785,3.785,0,0,0-7.778-11.03Zm-2.092.105A5.533,5.533,0,0,0-13.017-9.29a4.962,4.962,0,0,0-1.406,3.331,3.885,3.885,0,0,0,.448,2q.352.58.773.58.738,0,1.354-1.1a15.437,15.437,0,0,0,1.2-3.094A22.626,22.626,0,0,0-9.94-10.925ZM4.562-13.9a14.735,14.735,0,0,1,2.241.378q.308.079.308.29a.794.794,0,0,1-.079.272,4.787,4.787,0,0,0-.193,1.705v3.639q0,.334.044,2.268,0,.36-.387.36H5.045q-.334,0-.334-.264v-.044l.053-2.452v-3.524A13.44,13.44,0,0,0,4.562-13.9ZM5.476-.431A8.71,8.71,0,0,0,9.861-3.059q1.213-1.494,1.213-4.808v-3.4a15.849,15.849,0,0,0-.2-2.936,11.646,11.646,0,0,1,2.347.4.307.307,0,0,1,.246.308.575.575,0,0,1-.07.29,6.94,6.94,0,0,0-.158,1.96V-7.9a14,14,0,0,1-.387,3.595A6.549,6.549,0,0,1,11.769-2.03,7.763,7.763,0,0,1,9.888-.29,9.529,9.529,0,0,1,7.813.8a1.164,1.164,0,0,1-.378.088A.605.605,0,0,1,7,.668,6.074,6.074,0,0,0,5.476-.431ZM19.96-13.1q1.714.123,3.656.123h7.717a4.434,4.434,0,0,0,1.248-.105,2.226,2.226,0,0,1,.343-.132.592.592,0,0,1,.413.255,9.369,9.369,0,0,1,1.081,1.134.512.512,0,0,1,.141.325.481.481,0,0,1-.255.378,2.354,2.354,0,0,0-.483.519,15.012,15.012,0,0,1-3.164,3.48.535.535,0,0,1-.378.158.679.679,0,0,1-.439-.176,4.349,4.349,0,0,0-1.494-.747,18.748,18.748,0,0,0,1.916-1.591,10.628,10.628,0,0,0,1.31-1.556H23.792q-1.081,0-3.182.141a.291.291,0,0,1-.325-.272A17.284,17.284,0,0,1,19.96-13.1ZM21.041-.571A10.465,10.465,0,0,0,23.484-2.25,7.191,7.191,0,0,0,24.8-4.008a9.028,9.028,0,0,0,.879-4.254,7.538,7.538,0,0,0-.176-1.687,16.91,16.91,0,0,1,2.32.343.336.336,0,0,1,.308.343.72.72,0,0,1-.088.316,1.857,1.857,0,0,0-.167.738,11.655,11.655,0,0,1-1.063,4.957A9.264,9.264,0,0,1,23.546.334a.953.953,0,0,1-.51.176.5.5,0,0,1-.36-.167A5.244,5.244,0,0,0,21.041-.571ZM46.846-3.8A18.792,18.792,0,0,0,49.4-5.476,17.382,17.382,0,0,0,52.55-8.534a5.092,5.092,0,0,0,.563,1.819,1.366,1.366,0,0,1,.105.308.715.715,0,0,1-.272.448,23.041,23.041,0,0,1-2.663,2.364,31.911,31.911,0,0,1-3.2,2.162q-.255.167-.519.378a.583.583,0,0,1-.369.141.817.817,0,0,1-.378-.141,5.063,5.063,0,0,1-1.081-1.1.8.8,0,0,1-.158-.378.608.608,0,0,1,.07-.272,4.665,4.665,0,0,0,.105-1.371V-9.809a17.325,17.325,0,0,0-.185-3.138,19.029,19.029,0,0,1,2.259.378q.325.079.325.308a1.145,1.145,0,0,1-.141.457,6.5,6.5,0,0,0-.167,2ZM40.562-11.8a14.162,14.162,0,0,1,2.285.4q.29.079.29.325a.632.632,0,0,1-.053.229,2.743,2.743,0,0,0-.22,1.222,13.555,13.555,0,0,1-.976,5.291A9.149,9.149,0,0,1,39.331-.958a.843.843,0,0,1-.466.237.643.643,0,0,1-.343-.141,6.416,6.416,0,0,0-1.529-.756A9.258,9.258,0,0,0,39.981-5.2a8.888,8.888,0,0,0,.58-2.083,21.611,21.611,0,0,0,.176-3.006A5.951,5.951,0,0,0,40.562-11.8Z" transform="translate(1269.855 5786.694)"/>
  </g>
</svg>
