<svg xmlns="http://www.w3.org/2000/svg" viewBox="0 0 198.64 19.24"><g id="レイヤー_2" data-name="レイヤー 2"><g id="レイヤー_1-2" data-name="レイヤー 1"><path d="M46.67,2.72A13.81,13.81,0,0,1,48,9.53a13.74,13.74,0,0,1-1.37,6.8q-1.37,2.39-4.77,2.38t-4.78-2.38a13.85,13.85,0,0,1-1.37-6.8,13.92,13.92,0,0,1,1.37-6.81Q38.49.32,41.9.32T46.67,2.72ZM39.83,14.23a2,2,0,0,0,2.07,1.63,2,2,0,0,0,2-1.63,17.06,17.06,0,0,0,.49-4.7,16.91,16.91,0,0,0-.49-4.77,2,2,0,0,0-2-1.55,2,2,0,0,0-2.07,1.55,16.47,16.47,0,0,0-.5,4.77A16.62,16.62,0,0,0,39.83,14.23Z" fill="#464646"/><path d="M50.71,6V3.59A15.46,15.46,0,0,0,53,3.37a3.26,3.26,0,0,0,1.71-.93,3,3,0,0,0,.69-1.28,3,3,0,0,0,.14-.71h2.92V18.27H54.9V6Z" fill="#464646"/><path d="M64.58,14.77A9.92,9.92,0,0,1,68.12,11a25.23,25.23,0,0,0,3.13-2.48A3.68,3.68,0,0,0,72.35,6a2.83,2.83,0,0,0-.63-1.88,2.21,2.21,0,0,0-1.79-.75,2.18,2.18,0,0,0-2.18,1.2,5.84,5.84,0,0,0-.39,2.18H64A8.5,8.5,0,0,1,64.78,3q1.39-2.67,5-2.67a6.28,6.28,0,0,1,4.5,1.57,5.39,5.39,0,0,1,1.68,4.15,5.58,5.58,0,0,1-1.19,3.51,11.68,11.68,0,0,1-2.54,2.28l-1.41,1c-.88.63-1.48,1.08-1.8,1.36a3.65,3.65,0,0,0-.82,1H76v3.08H63.75A8.42,8.42,0,0,1,64.58,14.77Z" fill="#464646"/><path d="M88.68,2.72a13.92,13.92,0,0,1,1.37,6.81,13.85,13.85,0,0,1-1.37,6.8c-.91,1.59-2.51,2.38-4.78,2.38s-3.86-.79-4.77-2.38a13.74,13.74,0,0,1-1.37-6.8,13.81,13.81,0,0,1,1.37-6.81Q80.5.32,83.9.32C86.17.32,87.77,1.12,88.68,2.72ZM81.84,14.23a2.11,2.11,0,0,0,4.11,0,17.46,17.46,0,0,0,.49-4.7A17.29,17.29,0,0,0,86,4.76a2.14,2.14,0,0,0-4.11,0,16.39,16.39,0,0,0-.51,4.77A16.55,16.55,0,0,0,81.84,14.23Z" fill="#464646"/><path d="M92.18,11.69V7.74h9.87v3.95Z" fill="#464646"/><path d="M112.49,4.93a1.78,1.78,0,0,0-.33-.94,1.93,1.93,0,0,0-1.71-.84A2.52,2.52,0,0,0,108,5.07a12,12,0,0,0-.54,3.12A3.83,3.83,0,0,1,109,7.06a5.05,5.05,0,0,1,2-.36,5.14,5.14,0,0,1,3.89,1.61,5.79,5.79,0,0,1,1.52,4.12,7,7,0,0,1-1.49,4.4,5.5,5.5,0,0,1-4.63,1.91,5.31,5.31,0,0,1-5-2.82,11.44,11.44,0,0,1-1.24-5.68,25,25,0,0,1,.17-3.32,10.08,10.08,0,0,1,1.19-3.78,6.13,6.13,0,0,1,2-2.08,5.42,5.42,0,0,1,3-.79,5.83,5.83,0,0,1,3.95,1.28A4.77,4.77,0,0,1,116,4.93ZM108.34,15a2.48,2.48,0,0,0,2,.91,2.19,2.19,0,0,0,1.84-.88,3.65,3.65,0,0,0,.67-2.28,3.4,3.4,0,0,0-.76-2.39,2.42,2.42,0,0,0-1.87-.83,2.46,2.46,0,0,0-1.58.54,3.05,3.05,0,0,0-1,2.58A3.49,3.49,0,0,0,108.34,15Z" fill="#464646"/><path d="M121.37,12.8a4,4,0,0,0,.34,1.77A2.36,2.36,0,0,0,124,15.86a2.56,2.56,0,0,0,1.8-.7,2.65,2.65,0,0,0,.76-2,2.3,2.3,0,0,0-1.42-2.35,7.24,7.24,0,0,0-2.55-.33V7.93A6.36,6.36,0,0,0,125,7.6a2,2,0,0,0,1.16-2.09,2.33,2.33,0,0,0-.59-1.66,2.21,2.21,0,0,0-1.67-.64,2.12,2.12,0,0,0-1.83.79,3.35,3.35,0,0,0-.55,2.1h-3.27a8.77,8.77,0,0,1,.45-2.52,5.74,5.74,0,0,1,1.35-1.93,4.66,4.66,0,0,1,1.63-1A7.14,7.14,0,0,1,124,.36a6.19,6.19,0,0,1,4.12,1.32,4.41,4.41,0,0,1,1.56,3.55,3.91,3.91,0,0,1-.93,2.65,3.39,3.39,0,0,1-1.23.93,2.52,2.52,0,0,1,1.38.82A4.41,4.41,0,0,1,130.25,13a5.74,5.74,0,0,1-1.57,4A6,6,0,0,1,124,18.71q-3.78,0-5.25-2.47a7.17,7.17,0,0,1-.86-3.44Z" fill="#464646"/><path d="M144.43,14.44h-2v3.83H139V14.44h-7.06V11.38L138.48.56h3.94V11.69h2ZM139,11.69V4l-4.45,7.67Z" fill="#464646"/><path d="M146.48,11.69V7.74h9.87v3.95Z" fill="#464646"/><path d="M159.17,14.77A9.92,9.92,0,0,1,162.71,11a25.23,25.23,0,0,0,3.13-2.48A3.68,3.68,0,0,0,166.94,6a2.83,2.83,0,0,0-.63-1.88,2.22,2.22,0,0,0-1.8-.75,2.18,2.18,0,0,0-2.17,1.2,5.81,5.81,0,0,0-.4,2.18h-3.4A8.66,8.66,0,0,1,159.36,3q1.41-2.67,5-2.67a6.29,6.29,0,0,1,4.5,1.57,5.39,5.39,0,0,1,1.68,4.15,5.58,5.58,0,0,1-1.19,3.51,11.53,11.53,0,0,1-2.55,2.28l-1.4,1c-.88.63-1.48,1.08-1.8,1.36a3.65,3.65,0,0,0-.82,1h7.78v3.08H158.34A8.27,8.27,0,0,1,159.17,14.77Z" fill="#464646"/><path d="M183.27,2.72a13.92,13.92,0,0,1,1.37,6.81,13.85,13.85,0,0,1-1.37,6.8q-1.38,2.39-4.78,2.38t-4.77-2.38a13.73,13.73,0,0,1-1.38-6.8,13.8,13.8,0,0,1,1.38-6.81q1.36-2.4,4.77-2.4T183.27,2.72Zm-6.84,11.51a2.11,2.11,0,0,0,4.11,0,17.54,17.54,0,0,0,.48-4.7,17.37,17.37,0,0,0-.48-4.77,2.14,2.14,0,0,0-4.11,0,16.39,16.39,0,0,0-.51,4.77A16.55,16.55,0,0,0,176.43,14.23Z" fill="#464646"/><path d="M197.27,2.72a13.92,13.92,0,0,1,1.37,6.81,13.85,13.85,0,0,1-1.37,6.8q-1.36,2.39-4.77,2.38t-4.78-2.38a13.74,13.74,0,0,1-1.37-6.8,13.81,13.81,0,0,1,1.37-6.81q1.36-2.4,4.78-2.4T197.27,2.72Zm-6.84,11.51a2,2,0,0,0,2.07,1.63,2,2,0,0,0,2-1.63,17.06,17.06,0,0,0,.49-4.7,16.91,16.91,0,0,0-.49-4.77,2,2,0,0,0-2-1.55,2,2,0,0,0-2.07,1.55,16.47,16.47,0,0,0-.5,4.77A16.62,16.62,0,0,0,190.43,14.23Z" fill="#464646"/><rect width="29.12" height="19" fill="#00973c"/><path d="M30,17.42a1.82,1.82,0,1,0,1.82-1.82A1.83,1.83,0,0,0,30,17.42m.21,0A1.61,1.61,0,1,1,31.81,19,1.61,1.61,0,0,1,30.2,17.42Z"/><path d="M32.69,18.6h-.34l-.71-1.09h-.31V18.6h-.28V16.19h.68a.81.81,0,0,1,.54.17.54.54,0,0,1,.2.46.65.65,0,0,1-.14.4.83.83,0,0,1-.4.23l.76,1.15m-1.36-1.34h.35a.52.52,0,0,0,.36-.12.36.36,0,0,0,.14-.3c0-.27-.16-.4-.49-.4h-.36Z"/><path d="M7.32,14.74A3.6,3.6,0,0,1,3.74,11c0-2,1.93-3.52,3.58-4.45C9,7.48,10.9,9,10.9,11a3.6,3.6,0,0,1-3.58,3.74m11-3.78c0-2,1.93-3.52,3.58-4.45C23.51,7.44,25.45,9,25.45,11a3.58,3.58,0,1,1-7.16,0M29.11,3a16.33,16.33,0,0,0-7.36,1.67A15.61,15.61,0,0,0,14.55,3,15.6,15.6,0,0,0,7.36,4.62,16.33,16.33,0,0,0,0,3V4.62a14.81,14.81,0,0,1,5.54,1C3.74,6.87,2,8.69,2,11a5.44,5.44,0,0,0,5.4,5.36A5.33,5.33,0,0,0,12.63,11c0-2.31-1.65-4.13-3.45-5.33a14.28,14.28,0,0,1,10.75,0c-1.8,1.2-3.45,3-3.45,5.33a5.33,5.33,0,0,0,5.27,5.36A5.4,5.4,0,0,0,27.11,11c0-2.31-1.74-4.13-3.54-5.33a14.81,14.81,0,0,1,5.54-1Z" fill="#fff"/></g></g></svg>