<svg xmlns="http://www.w3.org/2000/svg" viewBox="0 0 38.69 47.1"><g id="レイヤー_2" data-name="レイヤー 2"><g id="レイヤー_1-2" data-name="レイヤー 1"><path d="M36.28,31.92a.59.59,0,0,1,.64-.54c.58,0,1,.89.9,1.37s-.63,1.45-1.16.94a1.05,1.05,0,0,1-.24-.44A3.26,3.26,0,0,1,36.28,31.92Z" fill="#fff"/><path d="M37,34.34a1,1,0,0,1-.66-.28,1.5,1.5,0,0,1-.37-.65,3.59,3.59,0,0,1-.16-1.58,1.09,1.09,0,0,1,1.16-1,1.2,1.2,0,0,1,.9.47,2.1,2.1,0,0,1,.49,1.47,2,2,0,0,1-1,1.47A.85.85,0,0,1,37,34.34Zm-.07-2.45c-.07,0-.1,0-.12.13h0a2.74,2.74,0,0,0,.13,1.08.9.9,0,0,0,.08.19,1.27,1.27,0,0,0,.33-.6,1.17,1.17,0,0,0-.25-.69A.28.28,0,0,0,36.9,31.89Z" fill="#4bbbbe"/><path d="M2.73,32a.58.58,0,0,0-.64-.54c-.57,0-.95.89-.9,1.37s.64,1.45,1.16.94a1.05,1.05,0,0,0,.24-.44A3,3,0,0,0,2.73,32Z" fill="#fff"/><path d="M2.05,34.4a.91.91,0,0,1-.32-.06,1.94,1.94,0,0,1-1-1.47,2,2,0,0,1,.48-1.47,1.24,1.24,0,0,1,.91-.47,1.07,1.07,0,0,1,1.15,1h0a3.59,3.59,0,0,1-.15,1.58,1.56,1.56,0,0,1-.37.65A1,1,0,0,1,2.05,34.4ZM2.17,32a.3.3,0,0,0-.22.11,1.09,1.09,0,0,0-.25.69,1.4,1.4,0,0,0,.32.6.68.68,0,0,0,.08-.19,2.57,2.57,0,0,0,.13-1.08.27.27,0,0,0,0-.13Z" fill="#4bbbbe"/><path d="M36.05,13.58c-1.16,8-5.27,9.18-12.86,9.18S9.44,19.69,9.44,12.58,15,0,22.54,0c3.28,0,8.59,2.11,8.66,5.41A7,7,0,0,1,36.05,13.58Z" fill="#4bbbbe"/><path d="M30.15,20.15c-2.81,9.94-20.29,11-19.88-1.66.22-6.69,4-8.16,6.38-10.11,0,0,.91,3.06,5.05,3.56a4.26,4.26,0,0,1-1.16-2.82l4.88,2a15,15,0,0,1,4.24,4.19c2.32,0,3.31.73,3.31,2.36s-1.74,3.85-3.64,1.61" fill="#fff"/><path d="M19.18,28.25a11.66,11.66,0,0,1-1.78-.14A8.87,8.87,0,0,1,12,25.25a9.48,9.48,0,0,1-2.13-6.77c.19-5.87,3.06-7.92,5.36-9.57.42-.3.82-.58,1.18-.88A.47.47,0,0,1,16.78,8a.46.46,0,0,1,.29.3,5,5,0,0,0,3.62,3.05,3.68,3.68,0,0,1-.58-2.23.42.42,0,0,1,.21-.33.45.45,0,0,1,.39,0l4.88,2,.06,0a15,15,0,0,1,4.24,4.13c1.58,0,3.52.41,3.52,2.8a3.16,3.16,0,0,1-1.8,2.88,1.83,1.83,0,0,1-1.14.05,10.69,10.69,0,0,1-5.14,6A12.86,12.86,0,0,1,19.18,28.25ZM16.47,9.08l-.77.55c-2.25,1.61-4.81,3.44-5,8.88-.15,4.78,2.4,8,6.83,8.73,4.61.72,10.5-1.75,12.12-7a4.34,4.34,0,0,1-.67-.64.44.44,0,1,1,.67-.57c.4.46,1,1,1.65.72a2.33,2.33,0,0,0,1.22-2.05c0-1.59-1.15-1.92-2.87-1.92a.45.45,0,0,1-.37-.2,14.75,14.75,0,0,0-4.07-4L21,9.8a4.27,4.27,0,0,0,1,1.83.47.47,0,0,1,.07.51.46.46,0,0,1-.45.24A6.33,6.33,0,0,1,16.47,9.08Z" fill="#4bbbbe"/><path d="M16.31,16.59A1.37,1.37,0,0,1,15,17.66a.84.84,0,0,1-.84-1.07c.12-.58.62-.72,1.21-.72S16.44,16,16.31,16.59Z" fill="#4bbbbe"/><path d="M19.31,22.18a1.3,1.3,0,0,1-1.26.93.79.79,0,0,1-.86-.93,1.09,1.09,0,0,1,1.1-.9C18.87,21.28,19.42,21.67,19.31,22.18Z" fill="#4bbbbe"/><path d="M23.74,16.3a1.38,1.38,0,0,1-1.29,1.06.84.84,0,0,1-.84-1.06c.12-.59.63-.73,1.22-.73S23.86,15.71,23.74,16.3Z" fill="#4bbbbe"/><path d="M16.29,14.56c0,.19-.23.34-1,.34s-.85-.15-.81-.34.23-.34,1-.34S16.33,14.37,16.29,14.56Z" fill="#4bbbbe"/><path d="M22.3,14.26c0,.19.09.34.82.34s.91-.15.95-.34-.09-.34-.81-.34S22.34,14.07,22.3,14.26Z" fill="#4bbbbe"/><path d="M18.87,17.93c-.19,0-.37.15-.52.88s0,.88.15.88.25-.17.41-.9S19.06,17.93,18.87,17.93Z" fill="#4bbbbe"/><path d="M6.4,23.82a3,3,0,0,1,0-1c.18-.72,1-.79,1.6-.61L19.2,26" fill="#fff"/><path d="M19.2,26.47a.36.36,0,0,1-.14,0L7.9,22.63a1.14,1.14,0,0,0-.84,0,.39.39,0,0,0-.19.26,3.09,3.09,0,0,0,0,.88.43.43,0,0,1-.41.47A.45.45,0,0,1,6,23.85,3.63,3.63,0,0,1,6,22.7a1.28,1.28,0,0,1,.62-.83,2,2,0,0,1,1.54-.09l11.18,3.83a.44.44,0,0,1,.27.56A.43.43,0,0,1,19.2,26.47Z" fill="#4bbbbe"/><path d="M35.39,44.62,19.58,47.08a1.4,1.4,0,0,1-.5,0L3.73,44.62A1.6,1.6,0,0,1,2.38,43V24.8a1.6,1.6,0,0,1,1.85-1.58L19.14,25.6a1.4,1.4,0,0,0,.5,0l15.25-2.39a1.61,1.61,0,0,1,1.85,1.59V43A1.61,1.61,0,0,1,35.39,44.62Z" fill="#4bbbbe"/><path d="M35.14,24.22a.58.58,0,0,1,.58.58V43a.58.58,0,0,1-.49.58l-15.8,2.47h-.18L3.89,43.61A.57.57,0,0,1,3.4,43V24.8A.58.58,0,0,1,4,24.22h.09L19,26.61a2.73,2.73,0,0,0,.41,0,2.83,2.83,0,0,0,.41,0l15.25-2.39h.09m0-1-.25,0L19.64,25.6a1.57,1.57,0,0,1-.5,0L4.23,23.22,4,23.2a1.6,1.6,0,0,0-1.6,1.6V43a1.6,1.6,0,0,0,1.35,1.58l15.35,2.46a1.14,1.14,0,0,0,.26,0,1,1,0,0,0,.24,0l15.81-2.46A1.61,1.61,0,0,0,36.74,43V24.8a1.61,1.61,0,0,0-1.6-1.61Z" fill="#4bbbbe"/><path d="M19.46,44.71A.5.5,0,0,1,19,44.2V28.31a.51.51,0,0,1,.51-.52.51.51,0,0,1,.51.52V44.2A.51.51,0,0,1,19.46,44.71Z" fill="#fff"/><path d="M.52,34.83a2,2,0,0,1,1.6-2,7.29,7.29,0,0,1,1.53-.31,2.25,2.25,0,0,1,1.05.16c.17.07.49.75.21,1s-.52.31-.3.93c.34,1,.72,3-.46,3.56a2.79,2.79,0,0,1-2.86,0c-.47-.33-.53-1-.6-1.53A9.3,9.3,0,0,1,.52,34.83Z" fill="#fff"/><path d="M2.69,39.11A3,3,0,0,1,1,38.61,2.36,2.36,0,0,1,.2,36.85l-.07-.49A7.25,7.25,0,0,1,0,34.79H0a2.49,2.49,0,0,1,2-2.42A7.55,7.55,0,0,1,3.61,32a2.68,2.68,0,0,1,1.28.2,1.32,1.32,0,0,1,.61.92,1,1,0,0,1-.23.94L5,34.32H5a1.83,1.83,0,0,0,.06.19c.52,1.49.65,3.49-.71,4.18A3.8,3.8,0,0,1,2.69,39.11Zm1.19-6.06h-.2a6.1,6.1,0,0,0-1.41.29A1.48,1.48,0,0,0,1,34.86H1a6.36,6.36,0,0,0,.11,1.35l.07.5c.06.39.12.88.37,1a2.3,2.3,0,0,0,2.34,0c.77-.39.55-2,.21-2.94-.22-.62-.22-.89.23-1.29l.19-.17s-.08-.15-.13-.23A1.4,1.4,0,0,0,3.88,33.05Z" fill="#4bbbbe"/><path d="M3.47,35.77a.26.26,0,0,1,0-.51l.94-.15a.27.27,0,0,1,.3.21.26.26,0,0,1-.22.29l-.93.15Z" fill="#4bbbbe"/><path d="M3.55,36.65a.26.26,0,0,1-.25-.21.24.24,0,0,1,.21-.29L4.45,36a.24.24,0,0,1,.29.21.25.25,0,0,1-.21.29l-.94.15Z" fill="#4bbbbe"/><path d="M32.49,32.15l-.19-1.34L23.81,32,24,33.35l-.9.13-.32-2.22,7.58-1.07.4-1.85.9.12-.33,1.59,1.74-.25L33.39,32Zm-3.2,4.11.41,2.83-3.1.44-.13-.89,2.15-.3-.27-2-4.74.68-.13-.88,4.74-.68-.13-.93,1.66-1.38L25,33.88,24.85,33,31,32.15l.38-.33.59.67L29.1,34.85l.07.53,4.6-.65.13.88ZM24.38,31l-.65-1.32.78-.37.67,1.29Zm3-.47-.64-1.38.81-.34.63,1.38Z" fill="#fff"/><path d="M26.6,39.55h0l-.12-.9v0l2.13-.3-.27-1.91-4.72.67h0l-.13-.88,0,0,4.72-.67-.13-.92v0l1.61-1.33L25,33.9h0l0,0L24.83,33h0L31,32.13l.38-.32h0l.58.66a0,0,0,0,1,0,0h0l-2.89,2.36.07.5,4.59-.65h0l.13.88,0,0-4.59.65.4,2.82s0,0,0,0l-3.1.44Zm-.11-.89.13.85,3.06-.43-.4-2.82s0,0,0,0l4.59-.65-.12-.84-4.59.65h0l-.07-.52v0L32,32.48l-.56-.63-.37.31h0L24.87,33l.12.82,4.75-.68h0v0l-1.65,1.38.13.92a0,0,0,0,1,0,0l-4.72.67.12.85,4.72-.67h0l.28,1.94a0,0,0,0,1,0,0ZM23.1,33.5a0,0,0,0,1,0,0l-.32-2.21v0h0l7.56-1.08.4-1.84h0l.91.13h0v0L31.35,30l1.72-.25h0L33.41,32h0l-.9.12s0,0,0,0l-.19-1.32L23.83,32,24,33.35h0l-.91.13Zm-.3-2.22.31,2.18.87-.12L23.79,32a0,0,0,0,1,0,0l8.48-1.21,0,0,.19,1.32.87-.13-.31-2.18-1.73.25h0l.33-1.57-.87-.12-.4,1.83v0ZM24.38,31h0l-.65-1.31v0h0l.79-.37s0,0,0,0l.66,1.29v0h0l-.79.39Zm-.63-1.32.64,1.28.76-.38-.64-1.26Zm3.61.85s0,0,0,0l-.64-1.37v0h0l.82-.34h0l.63,1.38v0h0l-.81.33Zm-.62-1.38.62,1.34.78-.32-.62-1.35Z" fill="#fff"/><path d="M38.17,35a2,2,0,0,0-1.6-2A6.69,6.69,0,0,0,35,32.7a2.68,2.68,0,0,0-1.26.1.54.54,0,0,0-.34.53.77.77,0,0,0,.24.38c.4.44.62.48.4,1.11-.34,1-.72,3,.46,3.56a2.82,2.82,0,0,0,2.86-.05c.47-.32.53-1,.6-1.52A9.4,9.4,0,0,0,38.17,35Z" fill="#fff"/><path d="M36,39.26a3.69,3.69,0,0,1-1.69-.43c-1.36-.69-1.24-2.68-.71-4.18a1,1,0,0,0,.06-.23l-.15-.15-.21-.21a1.32,1.32,0,0,1-.36-.65,1.05,1.05,0,0,1,.62-1.08A3,3,0,0,1,35,32.18a7.4,7.4,0,0,1,1.69.33,2.5,2.5,0,0,1,2,2.43h0a7.35,7.35,0,0,1-.12,1.57l-.07.48a2.36,2.36,0,0,1-.81,1.76A2.92,2.92,0,0,1,36,39.26Zm-1.5-6.08a1.27,1.27,0,0,0-.51.08s0,.08.06.11l.18.18A1.15,1.15,0,0,1,34.56,35c-.34,1-.56,2.54.21,2.93a2.3,2.3,0,0,0,2.34,0c.25-.17.31-.66.36-1l.08-.5A6.36,6.36,0,0,0,37.66,35h0a1.49,1.49,0,0,0-1.24-1.52A5.56,5.56,0,0,0,35,33.21,4.49,4.49,0,0,0,34.5,33.18Z" fill="#4bbbbe"/><path d="M35.56,35.86h0l-1.28-.1a.26.26,0,0,1-.24-.27.25.25,0,0,1,.27-.24l1.29.1a.24.24,0,0,1,.23.27A.25.25,0,0,1,35.56,35.86Z" fill="#4bbbbe"/><path d="M35.49,36.75h0l-1.29-.1a.26.26,0,0,1-.23-.28.25.25,0,0,1,.27-.23l1.29.1a.25.25,0,0,1,.23.27A.26.26,0,0,1,35.49,36.75Z" fill="#4bbbbe"/></g></g></svg>