<svg xmlns="http://www.w3.org/2000/svg" viewBox="0 0 54.94 52.34"><g id="レイヤー_2" data-name="レイヤー 2"><g id="レイヤー_1-2" data-name="レイヤー 1"><path d="M32.5,49.16l-8.45-6a.39.39,0,0,1-.17-.32V39.27a.4.4,0,0,1,.63-.33L33,45a.37.37,0,0,1,.17.32v3.54A.39.39,0,0,1,32.5,49.16Z" fill="#fff"/><path d="M38.26,41.48l-8.44-6a.4.4,0,0,1-.17-.33V31.3a.4.4,0,0,1,.63-.32l8.45,6a.39.39,0,0,1,.16.32v3.82A.4.4,0,0,1,38.26,41.48Z" fill="#fff"/><path d="M44,33.52l-8.45-6a.37.37,0,0,1-.17-.32V23.34a.4.4,0,0,1,.63-.32l8.45,6a.42.42,0,0,1,.16.32V33.2A.39.39,0,0,1,44,33.52Z" fill="#fff"/><path d="M41.44,18.19l-7.66,2a.39.39,0,0,0-.29.38v6a.39.39,0,0,1-.31.38L28,28.17a.41.41,0,0,0-.3.39v5.95a.4.4,0,0,1-.31.39l-5.16,1.24a.39.39,0,0,0-.3.38v7.33a.42.42,0,0,0,.16.32l11.54,8.17.42-.1,19-4.73a.41.41,0,0,0,.3-.39V26.64a.4.4,0,0,0-.17-.32L41.77,18.25A.39.39,0,0,0,41.44,18.19Zm-8.94,31-8.45-6a.39.39,0,0,1-.17-.32V39.27a.4.4,0,0,1,.63-.33L33,45a.37.37,0,0,1,.17.32v3.54A.39.39,0,0,1,32.5,49.16Zm1.35-5.32L25.66,38a.39.39,0,0,1,.14-.7l2.88-.7a.41.41,0,0,1,.32.07l8.19,5.85a.4.4,0,0,1-.13.71l-2.89.69A.4.4,0,0,1,33.85,43.84Zm4.41-2.36-8.44-6a.4.4,0,0,1-.17-.33V31.3a.4.4,0,0,1,.63-.32l8.45,6a.39.39,0,0,1,.16.32v3.82A.4.4,0,0,1,38.26,41.48Zm1.36-5.61L31.43,30a.4.4,0,0,1,.14-.71l2.88-.69a.4.4,0,0,1,.32.06L43,34.54a.39.39,0,0,1-.13.7l-2.89.7A.41.41,0,0,1,39.62,35.87ZM44,33.52l-8.45-6a.37.37,0,0,1-.17-.32V23.34a.4.4,0,0,1,.63-.32l8.45,6a.42.42,0,0,1,.16.32V33.2A.39.39,0,0,1,44,33.52Zm1.35-5.62L37.16,22a.39.39,0,0,1,.13-.7l3.74-1a.41.41,0,0,1,.34.06l8.26,5.86a.39.39,0,0,1-.12.7L45.72,28A.36.36,0,0,1,45.39,27.9Z" fill="#efa449"/><path d="M34,44l-9.2-6.57a.44.44,0,0,1,.16-.79l3.23-.78a.48.48,0,0,1,.37.07l9.2,6.57a.45.45,0,0,1-.16.8l-3.23.78A.45.45,0,0,1,34,44Z" fill="#fae4c8"/><path d="M39.75,36.05l-9.21-6.57a.45.45,0,0,1,.16-.8l3.23-.77a.44.44,0,0,1,.37.07l9.2,6.57a.45.45,0,0,1-.16.8l-3.23.77A.42.42,0,0,1,39.75,36.05Z" fill="#f7d1a4"/><path d="M45.45,28.11l-9.23-6.6a.45.45,0,0,1,.14-.79l4.21-1.18a.45.45,0,0,1,.37.07l9.29,6.58a.45.45,0,0,1-.14.79l-4.26,1.19A.43.43,0,0,1,45.45,28.11Z" fill="#f2b66d"/><path d="M45.11,7.78c4.06.75,3.93,2.75,7.31,2.5,1.13,0,2.28-.59,2.5-.37s-1.25,3.88-3.75,4.94c-2,.86-4.75.94-6.06.06Z" fill="#efa449"/><path d="M43.16,22.86a1,1,0,0,1-1-1V8.27a1,1,0,0,1,1.94,0V21.89A1,1,0,0,1,43.16,22.86Z" fill="#efa449"/><circle cx="14.69" cy="14.69" r="14.69" transform="translate(-2.98 25.6) rotate(-76.72)" fill="#fff"/><path d="M14.69,1.81A12.88,12.88,0,1,1,1.81,14.69,12.9,12.9,0,0,1,14.69,1.81m0-1.81A14.69,14.69,0,1,0,29.37,14.69,14.69,14.69,0,0,0,14.69,0Z" fill="#efa449"/><path d="M21.34,18.42c-.73,1.59-1.6,3.31-2.24,4.72-.12.27-.89-.71-.56-1.94" fill="#efa449"/><path d="M20.39,18c-.74,1.6-1.61,3.31-2.25,4.73-.12.27-1-.82-.64-2.05" fill="#efa449"/><path d="M15.38,21.56c-5.05,0-9.15-3.83-9.15-8.57a8.22,8.22,0,0,1,8.58-8.37A8.93,8.93,0,0,1,21.5,8.13,7.81,7.81,0,0,1,23.8,15c-.28,1.85-2.43,5.83-3.7,8.63-.12.27-1-.88-.65-2.11" fill="#efa449"/><path d="M20,18c-1.87,6.62-13.22,7.34-13.22-1.1,0-4.51,4.09-6.91,5.7-8.21,0,0,2.85,4.89,7.19,6.11,1.49.42,2.21.5,2.21,1.58S20.73,19,19.46,17.48" fill="#fff"/><path d="M12.8,23.42a7.13,7.13,0,0,1-1-.07,6.1,6.1,0,0,1-3.71-1.87,6.62,6.62,0,0,1-1.57-4.55c0-4.09,3.19-6.47,5.1-7.89l.71-.55a.3.3,0,0,1,.24-.06.3.3,0,0,1,.2.14s2.84,4.81,7,6l.43.12c1.2.33,2,.54,2,1.74A2.1,2.1,0,0,1,21,18.32a1.23,1.23,0,0,1-.76,0,7.15,7.15,0,0,1-3.31,4A8.42,8.42,0,0,1,12.8,23.42ZM12.41,9.15l-.47.36c-1.82,1.35-4.86,3.63-4.86,7.42,0,3.24,1.78,5.42,4.77,5.84a7.18,7.18,0,0,0,7.84-4.68,2.16,2.16,0,0,1-.45-.42.29.29,0,0,1,.44-.38c.27.31.67.64,1.1.48a1.55,1.55,0,0,0,.81-1.36c0-.72-.32-.84-1.55-1.17l-.44-.12C15.76,14,13.1,10.24,12.41,9.15Z" fill="#efa449"/><path d="M13,19a1,1,0,0,1-.91.8.62.62,0,0,1-.71-.7c.05-.41.38-.17.83-.2S13.09,18.6,13,19Z" fill="#efa449"/><path d="M15.86,15.48a.92.92,0,0,1-.82.77.56.56,0,0,1-.61-.67c.06-.4.39-.52.79-.55S15.92,15.08,15.86,15.48Z" fill="#efa449"/><path d="M10.53,14.25c0,.13-.15,0-.63.1s-.55.22-.54.09.11-.25.6-.33S10.54,14.12,10.53,14.25Z" fill="#efa449"/><path d="M14.82,14.12c0,.13.16,0,.65,0s.57.14.54,0-.14-.23-.63-.24S14.8,14,14.82,14.12Z" fill="#efa449"/><path d="M12.46,16.49c-.13,0-.25.12-.32.62s0,.59.15.58.16-.12.23-.62S12.58,16.48,12.46,16.49Z" fill="#efa449"/><path d="M15.11,15.07A2.47,2.47,0,0,1,14.5,15c-.14,0-.05.2.06.33" fill="#efa449"/><path d="M10.78,15.67a.94.94,0,0,1-.82.77.57.57,0,0,1-.61-.68c.05-.4.39-.52.78-.54S10.83,15.27,10.78,15.67Z" fill="#efa449"/><path d="M10,15.26a3.14,3.14,0,0,1-.61,0c-.13,0,0,.2.07.32" fill="#efa449"/><path d="M26.44,28.18a.86.86,0,0,1-.63-.27l-2-2a.9.9,0,0,1,0-1.28.91.91,0,0,1,1.28,0l2,2a.91.91,0,0,1-.64,1.55Z" fill="#efa952"/></g></g></svg>