<svg xmlns="http://www.w3.org/2000/svg" viewBox="0 0 73.95 50.28"><g id="レイヤー_2" data-name="レイヤー 2"><g id="レイヤー_1-2" data-name="レイヤー 1"><path d="M34.22,33.56c-1.3,9-5.93,10.33-14.47,10.33S4.28,40.44,4.28,32.43,10.48,18.28,19,18.28c3.69,0,9.67,2.38,9.74,6.09A7.92,7.92,0,0,1,34.22,33.56Z" fill="#4499ca"/><path d="M27.59,41C24.42,52.14,4.75,53.36,5.21,39.09c.25-7.53,4.46-9.19,7.18-11.39,0,0,1,3.45,5.69,4a4.77,4.77,0,0,1-1.31-3.17l5.5,2.3A16.87,16.87,0,0,1,27,35.55c2.61,0,3.73.83,3.73,2.65s-2,4.34-4.1,1.82" fill="#fff"/><path d="M15.23,50.07a12,12,0,0,1-2-.16A10,10,0,0,1,7.11,46.7a10.65,10.65,0,0,1-2.39-7.63c.21-6.6,3.44-8.91,6-10.77.47-.33.92-.65,1.33-1a.5.5,0,0,1,.46-.08.5.5,0,0,1,.33.33A5.62,5.62,0,0,0,16.94,31a4.11,4.11,0,0,1-.66-2.51.52.52,0,0,1,.24-.37.51.51,0,0,1,.45,0l5.49,2.3.06,0a17.08,17.08,0,0,1,4.78,4.64c1.77,0,4,.46,4,3.15a3.58,3.58,0,0,1-2,3.25,2.14,2.14,0,0,1-1.29.06,12,12,0,0,1-5.78,6.77A14.51,14.51,0,0,1,15.23,50.07Zm-3-21.58-.86.62c-2.54,1.82-5.42,3.88-5.62,10-.18,5.37,2.7,9,7.68,9.82,5.19.81,11.82-2,13.65-7.87a4.46,4.46,0,0,1-.76-.71.51.51,0,0,1,0-.71.52.52,0,0,1,.71.06c.44.52,1.12,1.09,1.85.82a2.65,2.65,0,0,0,1.37-2.32C30.26,36.41,29,36,27,36a.5.5,0,0,1-.42-.22A16.62,16.62,0,0,0,22,31.28l-4.73-2a5,5,0,0,0,1.13,2.07.49.49,0,0,1,.08.56.48.48,0,0,1-.5.27A7.1,7.1,0,0,1,12.19,28.49Z" fill="#4499ca"/><path d="M12,37a1.54,1.54,0,0,1-1.44,1.2,1,1,0,0,1-1-1.2c.14-.66.71-.82,1.37-.82S12.15,36.29,12,37Z" fill="#4499ca"/><path d="M15.39,43.24a1.46,1.46,0,0,1-1.42,1,.88.88,0,0,1-1-1,1.23,1.23,0,0,1,1.24-1C14.89,42.22,15.51,42.66,15.39,43.24Z" fill="#4499ca"/><path d="M20.37,36.62a1.55,1.55,0,0,1-1.45,1.19A.93.93,0,0,1,18,36.62c.13-.67.7-.82,1.36-.82S20.51,36,20.37,36.62Z" fill="#4499ca"/><path d="M12,34.66c0,.21-.25.38-1.07.38s-1-.17-.91-.38.25-.38,1.07-.38S12,34.45,12,34.66Z" fill="#4499ca"/><path d="M18.76,34.32c-.05.22.09.39.91.39s1-.17,1.07-.39-.1-.38-.91-.38S18.8,34.11,18.76,34.32Z" fill="#4499ca"/><path d="M14.89,38.45c-.21,0-.42.18-.59,1s0,1,.18,1,.28-.2.45-1S15.1,38.45,14.89,38.45Z" fill="#4499ca"/><path d="M65.36,41.37c-1.25,2.69-2.72,5.6-3.8,8-.21.45-1.51-1.2-.94-3.29" fill="#dd7bac"/><path d="M63.74,40.62c-1.25,2.69-2.72,5.6-3.8,8-.21.45-1.65-1.39-1.08-3.47" fill="#dd7bac"/><path d="M55.26,46.69c-8.54,0-15.46-6.49-15.46-14.5S45.75,18,54.3,18A15.06,15.06,0,0,1,65.62,24a13.21,13.21,0,0,1,3.89,11.66c-.48,3.13-4.11,9.87-6.26,14.6-.2.45-1.67-1.49-1.1-3.58" fill="#dd7bac"/><path d="M63.1,40.71C59.93,51.9,40.73,53.12,40.73,38.85c0-7.64,6.92-11.69,9.65-13.89,0,0,4.81,8.28,12.16,10.35,2.52.7,3.73.83,3.73,2.65s-2,4.34-4.1,1.82" fill="#fff"/><path d="M50.91,49.83a12.65,12.65,0,0,1-1.75-.12,10.19,10.19,0,0,1-6.27-3.17,11.17,11.17,0,0,1-2.66-7.69c0-6.91,5.4-10.94,8.63-13.35.46-.35.86-.65,1.2-.93a.54.54,0,0,1,.41-.1.55.55,0,0,1,.34.24c0,.08,4.8,8.13,11.87,10.12l.72.2c2,.55,3.37.91,3.37,2.93a3.59,3.59,0,0,1-2,3.25,2.14,2.14,0,0,1-1.29.06A12.07,12.07,0,0,1,57.85,48,14.18,14.18,0,0,1,50.91,49.83ZM50.24,25.7c-.24.19-.51.39-.79.59-3.08,2.3-8.22,6.15-8.22,12.56,0,5.48,3,9.17,8.07,9.87a12.12,12.12,0,0,0,13.25-7.9,4.52,4.52,0,0,1-.76-.72.49.49,0,0,1,.06-.7.5.5,0,0,1,.7.06c.44.52,1.12,1.09,1.85.82A2.66,2.66,0,0,0,65.78,38c0-1.21-.55-1.41-2.64-2l-.73-.2C55.9,34,51.42,27.54,50.24,25.7Z" fill="#dd7bac"/><path d="M51.29,42.37a1.68,1.68,0,0,1-1.54,1.35,1,1,0,0,1-1.21-1.17c.1-.7.65-.29,1.41-.34S51.39,41.67,51.29,42.37Z" fill="#dd7bac"/><path d="M56.08,36.4a1.58,1.58,0,0,1-1.38,1.31,1,1,0,0,1-1-1.15c.1-.68.66-.87,1.33-.92S56.18,35.73,56.08,36.4Z" fill="#dd7bac"/><path d="M47.07,34.32c0,.22-.26,0-1.07.17s-.93.36-.92.14.2-.42,1-.55S47.08,34.1,47.07,34.32Z" fill="#dd7bac"/><path d="M54.33,34.1c0,.22.26,0,1.08,0s1,.24.93,0-.25-.39-1.08-.41S54.29,33.89,54.33,34.1Z" fill="#dd7bac"/><path d="M50.32,38.11c-.21,0-.41.21-.53,1s0,1,.24,1,.28-.22.4-1S50.54,38.1,50.32,38.11Z" fill="#dd7bac"/><path d="M54.8,35.71a4,4,0,0,1-1-.09c-.22-.06-.07.34.11.56" fill="#dd7bac"/><path d="M47.48,36.71A1.58,1.58,0,0,1,46.1,38a1,1,0,0,1-1-1.15c.1-.68.66-.87,1.33-.92S47.58,36,47.48,36.71Z" fill="#dd7bac"/><path d="M46.2,36a4,4,0,0,1-1-.09c-.22-.06-.07.34.11.56" fill="#dd7bac"/><path d="M14.16,10.24l2.69-.85.6,1.9-4.93,1.55L9.8,4.21,12,3.51Z" fill="#ffbe00"/><path d="M24.18,7.17l-4.51.89a1.22,1.22,0,0,0,1.6,1.08,1.1,1.1,0,0,0,.92-.76L24.25,8a3,3,0,0,1-2.67,2.67c-2,.4-3.72-.44-4.13-2.53a3.15,3.15,0,0,1,2.72-3.88,3.13,3.13,0,0,1,4,2.71ZM22,6.33a1.31,1.31,0,0,0-2.49.48Z" fill="#ffbe00"/><path d="M28.16,9.46,26,9.72l-.52-4.33-.71.09-.21-1.79.7-.09L25,1.77l2.17-.26.22,1.83,1.23-.14L28.86,5l-1.22.15Z" fill="#ffbe00"/><path d="M32.84,0,30.93,4.12l-1.39.1L30.81.14Z" fill="#ffbe00"/><path d="M36.1,4.37a2.64,2.64,0,0,0-1.19-.26c-.25,0-.68.13-.67.44s.7.46,1,.51c1,.16,1.82.61,1.86,1.75.06,1.62-1.39,2.35-2.82,2.4a4.89,4.89,0,0,1-2.51-.61L32.51,7a3.45,3.45,0,0,0,1.75.56c.27,0,.68-.15.66-.49s-.7-.48-1.39-.63A1.56,1.56,0,0,1,32.1,4.91c-.05-1.51,1.29-2.23,2.63-2.28A4.78,4.78,0,0,1,36.78,3Z" fill="#ffbe00"/><path d="M51.69,4.75a5.81,5.81,0,0,1-1.26,3.47,4.36,4.36,0,0,1-3.88,1.42A4.57,4.57,0,0,1,42.2,4.43,4.63,4.63,0,0,1,47.54,0,4.22,4.22,0,0,1,51.37,3l-2.31.72a2.05,2.05,0,0,0-1.82-1.62C45.7,1.9,44.76,3.3,44.63,4.67a2.59,2.59,0,0,0,2.12,3.05,1.71,1.71,0,0,0,2-1.39l-1.91-.18L47,4.31Z" fill="#ffbe00"/><path d="M59.66,8.4c-.43,2-2.36,2.86-4.3,2.45s-3.39-1.9-3-4S54.76,4,56.7,4.43,60.09,6.35,59.66,8.4Zm-5-1A1.33,1.33,0,0,0,55.75,9,1.31,1.31,0,0,0,57.4,7.93a1.4,1.4,0,0,0-2.75-.57Z" fill="#ffbe00"/><path d="M62.84,11.43a1.41,1.41,0,1,1-.93-1.76A1.4,1.4,0,0,1,62.84,11.43Zm-.09-8.28,2.17.67L63.15,9.53,61,8.86Z" fill="#ffbe00"/><path d="M7.45,16.35a.6.6,0,0,1-.28-.08L.22,11.63a.51.51,0,0,1-.14-.7.5.5,0,0,1,.7-.13l7,4.63a.51.51,0,0,1,.14.7A.52.52,0,0,1,7.45,16.35Z" fill="#ffbe00"/><path d="M66.5,16.35a.52.52,0,0,1-.42-.22.51.51,0,0,1,.14-.7l7-4.63a.5.5,0,0,1,.7.13.51.51,0,0,1-.14.7l-7,4.64A.57.57,0,0,1,66.5,16.35Z" fill="#ffbe00"/></g></g></svg>