<svg xmlns="http://www.w3.org/2000/svg" viewBox="0 0 46.18 47.22"><g id="レイヤー_2" data-name="レイヤー 2"><g id="レイヤー_1-2" data-name="レイヤー 1"><path d="M20.39,47.22a2.39,2.39,0,0,1-2-1.12,2.35,2.35,0,0,1-.34-1L18,44.71l-.43,0c-.46,0-.56.07-2-.69a1,1,0,0,1-.27-.22,2.62,2.62,0,0,1-.62-1.41l0-.41-.52,0a2.65,2.65,0,0,1-2.25-1.25,2.81,2.81,0,0,1-.38-1.07.94.94,0,0,0-.67-.81A2.64,2.64,0,0,1,8.92,36.4,2.67,2.67,0,0,1,9.3,35l.13-.22-.11-.22c-.13-.25-.26-.52-.37-.79a6.14,6.14,0,0,1-.37-1.19,1,1,0,0,0-.29-.52l-2.6-2.26a.9.9,0,0,0-.59-.22.91.91,0,0,0-.64.27l-.76.79L.26,27.23A.89.89,0,0,1,.25,26l10-10.32a.89.89,0,0,1,1.27,0l3.42,3.42-.47.49.38.3c.28.23.57.46.85.66a7.55,7.55,0,0,0,1.48.89,1.08,1.08,0,0,0,.43.07A11.27,11.27,0,0,0,19,21.31a12,12,0,0,1,1.95-.18,8,8,0,0,1,2,.25.83.83,0,0,0,.22,0,.76.76,0,0,0,.21,0,8,8,0,0,1,1.94-.25,12.19,12.19,0,0,1,2,.18,11.57,11.57,0,0,0,1.35.16,1.39,1.39,0,0,0,.48-.07,7.36,7.36,0,0,0,1.36-.82c.31-.22.64-.47.95-.72l.38-.31-.47-.49,3.42-3.42a.89.89,0,0,1,1.27,0L45.93,26a.89.89,0,0,1,0,1.25l-3.44,3.44-.87-.9A.87.87,0,0,0,41,29.5a.85.85,0,0,0-.59.22l-2.73,2.37a1,1,0,0,0-.28.52,6.89,6.89,0,0,1-.3,1A9.68,9.68,0,0,1,36.42,35l-.13.23.14.23c.07.11.11.16.14.22a1.77,1.77,0,0,1,.15.73,2.11,2.11,0,0,1-.28,1,2.94,2.94,0,0,1-.69.86,3.27,3.27,0,0,1-1,.59L34.5,39l0,.45a3.65,3.65,0,0,1-.33,1.5,2.71,2.71,0,0,1-1.09,1.25,2.09,2.09,0,0,1-.47.19l-.22.08-.07.22a2.44,2.44,0,0,1-.11.32,3,3,0,0,1-1.33,1.47,3.92,3.92,0,0,1-.88.4,2.77,2.77,0,0,1-.8.12h-.37l-.13.22a3.55,3.55,0,0,1-.93,1,3.12,3.12,0,0,1-1.8.55,4.31,4.31,0,0,1-1.67-.35,5.3,5.3,0,0,1-.81-.43l-.23-.15-1.65,1a2.27,2.27,0,0,1-1.24.36ZM22,42.85a1,1,0,0,0-.54.15l-1.59,1a1,1,0,0,0-.48.85,1.09,1.09,0,0,0,.15.54,1,1,0,0,0,1.4.32l1.59-1a1,1,0,0,0,.47-.86v-.1L22.52,43a1,1,0,0,0-.53-.15Zm-.59-3.28A2.54,2.54,0,0,1,21.79,41v.41l.41.13a2.38,2.38,0,0,1,2.16,2.36,2.2,2.2,0,0,1-.09.61l-.09.33.31.17a2.88,2.88,0,0,0,.37.2,2.85,2.85,0,0,0,1.11.24,1.73,1.73,0,0,0,1-.31,1.89,1.89,0,0,0,.55-.6l.23-.37-.37-.24-.26-.18a7.4,7.4,0,0,1-.82-.66.4.4,0,0,1,.27-.7.43.43,0,0,1,.28.11l.11.11.33.27a5.07,5.07,0,0,0,1,.63l.08,0,.14,0a4.18,4.18,0,0,0,.71.09,1.31,1.31,0,0,0,.41-.06,3.13,3.13,0,0,0,.61-.28,1.64,1.64,0,0,0,.74-.81l.19-.54-.46-.13a5,5,0,0,1-1.58-.74,5.5,5.5,0,0,1-1-.87.41.41,0,0,1,0-.56.43.43,0,0,1,.26-.1.41.41,0,0,1,.31.14l.21.22a5.2,5.2,0,0,0,.65.51,3.84,3.84,0,0,0,2.15.74h.09a1.13,1.13,0,0,0,.61-.13,1.33,1.33,0,0,0,.38-.37,2.09,2.09,0,0,0,.35-1.2v-.11L33,38.84a.37.37,0,0,1-.07-.12l-.09-.19-.19-.06-.31-.11a6,6,0,0,1-1.16-.62,7.71,7.71,0,0,1-1.07-.9.41.41,0,0,1,.29-.68.42.42,0,0,1,.3.13l.13.14.41.36a5.92,5.92,0,0,0,1.39.83,3.68,3.68,0,0,0,.54.16l.11,0,.1,0a.53.53,0,0,1,.16,0,2,2,0,0,0,1-.3,1.92,1.92,0,0,0,.67-.69.78.78,0,0,0,.11-.37v-.14l-.13-.2-.1-.06L28,29.81l-.44.07c-.48.08-1.16.21-2,.39a36.41,36.41,0,0,0-5.93,1.86,4.46,4.46,0,0,1-1.72.39,2.74,2.74,0,0,1-1.16-.25,2.59,2.59,0,0,1-.84-.67,3.13,3.13,0,0,1-.62-1.9,3.27,3.27,0,0,1,.65-2c.06-.07.16-.21.29-.39l.36-.51c.26-.35.66-.88,1.15-1.45a17.61,17.61,0,0,1,1.91-1.94l1.16-1-1.91.28a9.4,9.4,0,0,1-1.29.13,2.59,2.59,0,0,1-1-.17,9.75,9.75,0,0,1-1.75-1.05q-.37-.27-.75-.57a1,1,0,0,0-.56-.19.87.87,0,0,0-.64.27L6.65,27.61a.91.91,0,0,0-.25.66.87.87,0,0,0,.31.63l3.13,2.74v.29a4.47,4.47,0,0,0,.36,1.35s.27.57.27.57l.46-.18L12,33a2.65,2.65,0,0,1,3.65.85,2.81,2.81,0,0,1,.38,1.07.92.92,0,0,0,.67.8,2.6,2.6,0,0,1,1.48,1.14,2.46,2.46,0,0,1,.38,1.08l.05.41h.52a2.65,2.65,0,0,1,2.25,1.25Zm-2.26.11a1.21,1.21,0,0,0-.67.19L16.61,41A1.29,1.29,0,0,0,16,42.12a1.38,1.38,0,0,0,.2.68,1.29,1.29,0,0,0,1.09.61h0a1.28,1.28,0,0,0,.68-.2l1.85-1.15A1.28,1.28,0,0,0,20.43,41a1.25,1.25,0,0,0-.19-.68,1.29,1.29,0,0,0-1.09-.61ZM16,37a1.21,1.21,0,0,0-.67.19l-.12.08c-.11.09-.22.18-.34.26l-1.66,1,0,0A1.26,1.26,0,0,0,13,40.08a1.26,1.26,0,0,0,1.09.6h0a1.27,1.27,0,0,0,.68-.19l1.85-1.15A1.29,1.29,0,0,0,16,37Zm-2.54-3a1.34,1.34,0,0,0-.67.2L10.89,35.3a1.28,1.28,0,0,0-.61,1.09,1.25,1.25,0,0,0,.19.68,1.29,1.29,0,0,0,1.09.61,1.31,1.31,0,0,0,.68-.19l.12-.08a3,3,0,0,1,.34-.26l1.66-1,0,0a1.35,1.35,0,0,0,.31-.83,1.15,1.15,0,0,0,0-.26l-.47-.75a1.29,1.29,0,0,0-.79-.28h0Zm14.76-5.54a.68.68,0,0,1,.45.17l6.63,5.72.26-.52a6.31,6.31,0,0,0,.29-.66,4.17,4.17,0,0,0,.29-1.19v-.29l3.27-2.85a.9.9,0,0,0,.3-.63.91.91,0,0,0-.25-.66l-6.16-6.38a.87.87,0,0,0-.64-.27,1,1,0,0,0-.56.19l-.75.58a9,9,0,0,1-1.75,1,2.59,2.59,0,0,1-1,.17,8.45,8.45,0,0,1-1.31-.14l-.27,0a12.3,12.3,0,0,0-1.73-.16,6.31,6.31,0,0,0-3.34.93,11.72,11.72,0,0,0-2.49,2,22.37,22.37,0,0,0-1.78,2.15l-.35.48c-.13.18-.23.33-.33.45a1.93,1.93,0,0,0-.35,1.16,1.87,1.87,0,0,0,.18.83,1.05,1.05,0,0,0,.5.5,1.29,1.29,0,0,0,.57.12h0a3.11,3.11,0,0,0,1.19-.29,38.93,38.93,0,0,1,9-2.45Z" fill="#7c6faa"/><path d="M27.6,5.9a.38.38,0,0,0,0-.75,9.57,9.57,0,0,1-1.86-.59,5.18,5.18,0,0,1-1.46-.94,5.18,5.18,0,0,1-.94-1.46A9.57,9.57,0,0,1,22.75.3.38.38,0,0,0,22,.3a9.57,9.57,0,0,1-.59,1.86,5.18,5.18,0,0,1-.94,1.46A5,5,0,0,1,19,4.56a9.57,9.57,0,0,1-1.86.59.4.4,0,0,0-.3.38.38.38,0,0,0,.3.37A9,9,0,0,1,19,6.5a5.16,5.16,0,0,1,1.46.93,5.18,5.18,0,0,1,.94,1.46A9.57,9.57,0,0,1,22,10.75a.38.38,0,0,0,.38.3.38.38,0,0,0,.37-.3,9.57,9.57,0,0,1,.59-1.86,5.18,5.18,0,0,1,.94-1.46,5,5,0,0,1,1.46-.93A9,9,0,0,1,27.6,5.9Z" fill="#7c6faa"/><path d="M23.74,6.89a5.74,5.74,0,0,0-1.1,1.69c-.1.22-.18.45-.26.68-.09-.23-.17-.46-.27-.68A5.74,5.74,0,0,0,21,6.89a5.61,5.61,0,0,0-1.69-1.1c-.22-.1-.45-.18-.68-.26.23-.09.46-.17.68-.27A5.74,5.74,0,0,0,21,4.16a5.61,5.61,0,0,0,1.1-1.69c.1-.22.18-.45.26-.68.09.23.17.46.27.68a5.61,5.61,0,0,0,1.1,1.69,5.61,5.61,0,0,0,1.69,1.1c.22.1.45.18.68.27-.23.08-.46.16-.68.26A5.61,5.61,0,0,0,23.74,6.89Z" fill="#7c6faa"/><path d="M30.36,10.62a2.76,2.76,0,0,1-.83-.53A2.9,2.9,0,0,1,29,9.27a5.89,5.89,0,0,1-.34-1.08.39.39,0,0,0-.38-.3.37.37,0,0,0-.37.3,5.92,5.92,0,0,1-.35,1.08,2.32,2.32,0,0,1-1.35,1.35,5.92,5.92,0,0,1-1.08.35.37.37,0,0,0-.3.37.39.39,0,0,0,.3.38,5.21,5.21,0,0,1,1.08.34,2.77,2.77,0,0,1,.82.53,2.64,2.64,0,0,1,.53.83,5.58,5.58,0,0,1,.35,1.07.38.38,0,0,0,.75,0A5.56,5.56,0,0,1,29,13.42a2.83,2.83,0,0,1,.53-.83,3,3,0,0,1,.83-.53,5.21,5.21,0,0,1,1.08-.34.39.39,0,0,0,0-.76,5.21,5.21,0,0,1-1.08-.34" fill="#7c6faa"/><path d="M30.05,11.36a3.53,3.53,0,0,0-1.06.69,3.61,3.61,0,0,0-.69,1l0,.05V13.1a3.61,3.61,0,0,0-.69-1,3.53,3.53,0,0,0-1.06-.69l0,0,0,0a3.51,3.51,0,0,0,1.06-.68,3.53,3.53,0,0,0,.69-1.06v0l0,0A3.53,3.53,0,0,0,29,10.64a3.51,3.51,0,0,0,1.06.68l0,0Z" fill="#fff"/><path d="M23.36,14.22a4.41,4.41,0,0,1-.89-.29,1.85,1.85,0,0,1-1.11-1.1,5.56,5.56,0,0,1-.29-.9.38.38,0,0,0-.37-.3.4.4,0,0,0-.38.3,4.7,4.7,0,0,1-.28.9,2.42,2.42,0,0,1-.43.67,2.21,2.21,0,0,1-.68.43,4.63,4.63,0,0,1-.89.29A.38.38,0,0,0,18,15a4,4,0,0,1,.89.29,2.21,2.21,0,0,1,.68.43,2.42,2.42,0,0,1,.43.67,4.6,4.6,0,0,1,.28.89.39.39,0,0,0,.76,0,4.6,4.6,0,0,1,.28-.89,1.85,1.85,0,0,1,1.11-1.1,3.86,3.86,0,0,1,.89-.29.39.39,0,0,0,.3-.38A.37.37,0,0,0,23.36,14.22Zm-2.11.92a2.88,2.88,0,0,0-.55.82,2.88,2.88,0,0,0-.55-.82,3,3,0,0,0-.82-.55,2.92,2.92,0,0,0,.82-.54,3.1,3.1,0,0,0,.55-.82,2.7,2.7,0,0,0,.55.81,2.75,2.75,0,0,0,.82.55A3,3,0,0,0,21.25,15.14Z" fill="#7c6faa"/><path d="M21.25,15.14a2.88,2.88,0,0,0-.55.82,2.88,2.88,0,0,0-.55-.82,3,3,0,0,0-.82-.55,2.92,2.92,0,0,0,.82-.54,3.1,3.1,0,0,0,.55-.82,2.7,2.7,0,0,0,.55.81,2.75,2.75,0,0,0,.82.55A3,3,0,0,0,21.25,15.14Z" fill="#fff"/><path d="M22,42.85a1,1,0,0,0-.54.15l-1.59,1a1,1,0,0,0-.48.85,1.09,1.09,0,0,0,.15.54,1,1,0,0,0,1.4.32l1.59-1a1,1,0,0,0,.47-.86v-.1L22.52,43a1,1,0,0,0-.53-.15Z" fill="#fff"/><path d="M21.4,39.57A2.54,2.54,0,0,1,21.79,41v.41l.41.13a2.38,2.38,0,0,1,2.16,2.36,2.2,2.2,0,0,1-.09.61l-.09.33.31.17a2.88,2.88,0,0,0,.37.2,2.85,2.85,0,0,0,1.11.24,1.73,1.73,0,0,0,1-.31,1.89,1.89,0,0,0,.55-.6l.23-.37-.37-.24-.26-.18a7.4,7.4,0,0,1-.82-.66.4.4,0,0,1,.27-.7.43.43,0,0,1,.28.11l.11.11.33.27a5.07,5.07,0,0,0,1,.63l.08,0,.14,0a4.18,4.18,0,0,0,.71.09,1.31,1.31,0,0,0,.41-.06,3.13,3.13,0,0,0,.61-.28,1.64,1.64,0,0,0,.74-.81l.19-.54-.46-.13a5,5,0,0,1-1.58-.74,5.5,5.5,0,0,1-1-.87.41.41,0,0,1,0-.56.43.43,0,0,1,.26-.1.41.41,0,0,1,.31.14l.21.22a5.2,5.2,0,0,0,.65.51,3.84,3.84,0,0,0,2.15.74h.09a1.13,1.13,0,0,0,.61-.13,1.33,1.33,0,0,0,.38-.37,2.09,2.09,0,0,0,.35-1.2v-.11L33,38.84a.37.37,0,0,1-.07-.12l-.09-.19-.19-.06-.31-.11a6,6,0,0,1-1.16-.62,7.71,7.71,0,0,1-1.07-.9.41.41,0,0,1,.29-.68.42.42,0,0,1,.3.13l.13.14.41.36a5.92,5.92,0,0,0,1.39.83,3.68,3.68,0,0,0,.54.16l.11,0,.1,0a.53.53,0,0,1,.16,0,2,2,0,0,0,1-.3,1.92,1.92,0,0,0,.67-.69.78.78,0,0,0,.11-.37v-.14l-.13-.2-.1-.06L28,29.81l-.44.07c-.48.08-1.16.21-2,.39a36.41,36.41,0,0,0-5.93,1.86,4.46,4.46,0,0,1-1.72.39,2.74,2.74,0,0,1-1.16-.25,2.59,2.59,0,0,1-.84-.67,3.13,3.13,0,0,1-.62-1.9,3.27,3.27,0,0,1,.65-2c.06-.07.16-.21.29-.39l.36-.51c.26-.35.66-.88,1.15-1.45a17.61,17.61,0,0,1,1.91-1.94l1.16-1-1.91.28a9.4,9.4,0,0,1-1.29.13,2.59,2.59,0,0,1-1-.17,9.75,9.75,0,0,1-1.75-1.05q-.37-.27-.75-.57a1,1,0,0,0-.56-.19.87.87,0,0,0-.64.27L6.65,27.61a.91.91,0,0,0-.25.66.87.87,0,0,0,.31.63l3.13,2.74v.29a4.47,4.47,0,0,0,.36,1.35s.27.57.27.57l.46-.18L12,33a2.65,2.65,0,0,1,3.65.85,2.81,2.81,0,0,1,.38,1.07.92.92,0,0,0,.67.8,2.6,2.6,0,0,1,1.48,1.14,2.46,2.46,0,0,1,.38,1.08l.05.41h.52a2.65,2.65,0,0,1,2.25,1.25Z" fill="#fff"/><path d="M19.14,39.68a1.21,1.21,0,0,0-.67.19L16.61,41A1.29,1.29,0,0,0,16,42.12a1.38,1.38,0,0,0,.2.68,1.29,1.29,0,0,0,1.09.61h0a1.28,1.28,0,0,0,.68-.2l1.85-1.15A1.28,1.28,0,0,0,20.43,41a1.25,1.25,0,0,0-.19-.68,1.29,1.29,0,0,0-1.09-.61Z" fill="#fff"/><path d="M16,37a1.21,1.21,0,0,0-.67.19l-.12.08c-.11.09-.22.18-.34.26l-1.66,1,0,0A1.26,1.26,0,0,0,13,40.08a1.26,1.26,0,0,0,1.09.6h0a1.27,1.27,0,0,0,.68-.19l1.85-1.15A1.29,1.29,0,0,0,16,37Z" fill="#fff"/><path d="M13.41,34a1.34,1.34,0,0,0-.67.2L10.89,35.3a1.28,1.28,0,0,0-.61,1.09,1.25,1.25,0,0,0,.19.68,1.29,1.29,0,0,0,1.09.61,1.31,1.31,0,0,0,.68-.19l.12-.08a3,3,0,0,1,.34-.26l1.66-1,0,0a1.35,1.35,0,0,0,.31-.83,1.15,1.15,0,0,0,0-.26l-.47-.75a1.29,1.29,0,0,0-.79-.28h0Z" fill="#fff"/><path d="M28.17,28.41a.68.68,0,0,1,.45.17l6.63,5.72.26-.52a6.31,6.31,0,0,0,.29-.66,4.17,4.17,0,0,0,.29-1.19v-.29l3.27-2.85a.9.9,0,0,0,.3-.63.91.91,0,0,0-.25-.66l-6.16-6.38a.87.87,0,0,0-.64-.27,1,1,0,0,0-.56.19l-.75.58a9,9,0,0,1-1.75,1,2.59,2.59,0,0,1-1,.17,8.45,8.45,0,0,1-1.31-.14l-.27,0a12.3,12.3,0,0,0-1.73-.16,6.31,6.31,0,0,0-3.34.93,11.72,11.72,0,0,0-2.49,2,22.37,22.37,0,0,0-1.78,2.15l-.35.48c-.13.18-.23.33-.33.45a1.93,1.93,0,0,0-.35,1.16,1.87,1.87,0,0,0,.18.83,1.05,1.05,0,0,0,.5.5,1.29,1.29,0,0,0,.57.12h0a3.11,3.11,0,0,0,1.19-.29,38.93,38.93,0,0,1,9-2.45Z" fill="#fff"/></g></g></svg>