<svg xmlns="http://www.w3.org/2000/svg" viewBox="0 0 64.58 43.21"><g id="レイヤー_2" data-name="レイヤー 2"><g id="レイヤー_1-2" data-name="レイヤー 1"><path d="M43.35,6.58A.85.85,0,0,1,43,5.47l2.48-5a.72.72,0,0,1,1-.33.87.87,0,0,1,.31,1.11l-2.49,5A.71.71,0,0,1,43.35,6.58Z" fill="#e77b76"/><path d="M45.7,8.69a.82.82,0,0,1-.37-.48.83.83,0,0,1,.51-1l3.38-1.12a.75.75,0,0,1,.94.55.84.84,0,0,1-.51,1L46.27,8.76A.71.71,0,0,1,45.7,8.69Z" fill="#e77b76"/><path d="M40.23,5.49A.82.82,0,0,1,39.86,5L39,1.87a.83.83,0,0,1,.5-1,.73.73,0,0,1,.93.55l.87,3.13a.83.83,0,0,1-.5,1A.67.67,0,0,1,40.23,5.49Z" fill="#e77b76"/><polygon points="41.38 18.59 41.38 8.35 25.12 8.35 20.73 12.74 25.12 18.59 13.73 18.61 9.34 23.01 13.73 38.81 25.42 43.21 48.37 43.21 52.76 38.81 52.76 18.61 41.38 18.59" fill="#fff"/><path d="M40.12,9.61V19.84h1.25l10.13,0V38.29L47.85,42H25.65L14.78,37.86l-4-14.48,3.51-3.51,10.86,0h2.51l-1.51-2-3.73-5,3.25-3.25H40.12m1.26-1.26H25.12l-4.4,4.39,4.4,5.85-11.39,0L9.34,23l4.39,15.8,11.69,4.4H48.37l4.39-4.4V18.61l-11.38,0V8.35Z" fill="#e77b76"/><polygon points="32.28 43.21 48.37 43.21 48.37 23.01 36.98 22.98 36.98 12.74 20.73 12.74 20.73 22.98 9.34 23.01 9.34 43.21 25.42 43.21 32.28 43.21" fill="#fff"/><path d="M35.72,14V24.24H37l10.13,0V42H10.6V24.26l10.13,0H22V14H35.72M37,12.74H20.72V23L9.34,23v20.2h39V23L37,23V12.74Z" fill="#e77b76"/><rect x="13.84" y="35.42" width="4.01" height="4.41" rx="0.62" fill="#e77b76"/><rect x="13.84" y="26.89" width="4.01" height="4.41" rx="0.62" fill="#e77b76"/><rect x="26.85" y="26.89" width="4.01" height="4.41" rx="0.62" fill="#e77b76"/><path d="M28.89,22.42a3.78,3.78,0,1,1,3.77-3.78A3.79,3.79,0,0,1,28.89,22.42Z" fill="#e77b76"/><rect x="39.86" y="35.42" width="4.01" height="4.41" rx="0.62" fill="#e77b76"/><rect x="39.86" y="26.89" width="4.01" height="4.41" rx="0.62" fill="#e77b76"/><path d="M27.38,19.22a.36.36,0,1,1,0-.72h1.27V16.77a.34.34,0,0,1,.68,0v2.06a.34.34,0,0,1-.23.32.46.46,0,0,1-.23.07Z" fill="#fff"/><line x1="13.73" y1="18.61" x2="9.34" y2="23.01" fill="none"/><rect x="35.44" y="10.56" width="6.21" height="1.26" transform="translate(3.38 30.53) rotate(-45)" fill="#e77b76"/><rect x="35.78" y="20.41" width="6.21" height="1.26" transform="translate(-3.48 33.66) rotate(-45)" fill="#e77b76"/><line x1="52.76" y1="38.81" x2="48.37" y2="43.21" fill="none"/><rect x="46.81" y="20.83" width="6.21" height="1.26" transform="translate(-0.55 41.58) rotate(-45)" fill="#e77b76"/><rect x="25.42" y="34.92" width="6.86" height="8.28" rx="0.47" fill="#e77b76"/><rect x="51.08" y="26.85" width="2.7" height="6.56" rx="0.98" fill="#fff"/><path d="M53.84,28.23H51.12a1,1,0,0,1-.85-.48,1,1,0,0,1,0-1l.06-.11a9.51,9.51,0,0,1-4.89-8.11,7.84,7.84,0,0,1,2-5.81,7.12,7.12,0,0,1,10,0,7.84,7.84,0,0,1,2,5.81,9.53,9.53,0,0,1-4.89,8.11l.05.11a1,1,0,0,1-.86,1.45ZM47.42,17.48a8.39,8.39,0,0,0,0,1A7.37,7.37,0,0,0,52,25.24a1,1,0,0,1,.51.35,1,1,0,0,1,.51-.35,7.37,7.37,0,0,0,4.58-6.75h0a5.84,5.84,0,0,0-1.48-4.37,5.17,5.17,0,0,0-7.22,0A5.17,5.17,0,0,0,48,15.3a5.38,5.38,0,0,1,2-2,1.55,1.55,0,0,1,1.56,2.67h0a2,2,0,0,0-.46.36,2.54,2.54,0,0,0-.67,1.28,1.54,1.54,0,0,1-1.86,1.15A1.54,1.54,0,0,1,47.42,17.48Zm1.1-.36Zm2.55-2h0Z" fill="#fff"/><rect x="57.73" y="27.42" width="2.52" height="5.43" rx="0.98" fill="#fff"/><path d="M60,29H58a1,1,0,0,1-.92-1.32,7.15,7.15,0,0,1-1.74-1.45,1,1,0,0,1,.11-1.4,8.49,8.49,0,0,0,3-6.26,8.35,8.35,0,0,0-.19-2.08,1,1,0,0,1,.19-.85,1,1,0,0,1,.8-.36A5.39,5.39,0,0,1,63,16.93a6.11,6.11,0,0,1,1.54,4.48A7.44,7.44,0,0,1,61,27.62a1,1,0,0,1-.08.85A1,1,0,0,1,60,29Zm-2.55-3.41a3.91,3.91,0,0,0,1.21.68.89.89,0,0,1,.31.15.86.86,0,0,1,.32-.15,5.32,5.32,0,0,0,3.28-4.88h0a4.22,4.22,0,0,0-1-3.07,3.3,3.3,0,0,0-1.25-.83,8.8,8.8,0,0,1,0,1.15A10.43,10.43,0,0,1,57.49,25.54Z" fill="#fff"/><rect x="52.06" y="27.83" width="0.73" height="4.6" fill="#e77b76"/><path d="M58.55,18.52c.15-4.18-2.59-6.85-6.07-6.85s-6.22,2.67-6.07,6.85a8.35,8.35,0,0,0,5.28,7.67l-.57,1.06h2.72l-.58-1.06A8.35,8.35,0,0,0,58.55,18.52Zm-7.48-3.44a2.85,2.85,0,0,0-.67.53,3.66,3.66,0,0,0-.92,1.73.55.55,0,0,1-.67.42.56.56,0,0,1-.42-.67,4.81,4.81,0,0,1,1.2-2.26,4.31,4.31,0,0,1,.92-.72.56.56,0,0,1,.76.2A.56.56,0,0,1,51.07,15.08Z" fill="#e77b76"/><rect x="58.72" y="28.4" width="0.55" height="3.47" fill="#e77b76"/><path d="M63.59,21.38c.11-3.09-1.87-5.08-4.42-5.17a8.58,8.58,0,0,1,.22,2.34,9.43,9.43,0,0,1-3.33,7,5.39,5.39,0,0,0,2.36,1.63L58,28H60l-.44-.8A6.3,6.3,0,0,0,63.59,21.38Z" fill="#e77b76"/><rect x="5.72" y="16.59" width="0.74" height="4.65" fill="#e77b76"/><path d="M12.28,7.17C12.44,2.94,9.66.24,6.15.24S-.15,2.94,0,7.17a8.43,8.43,0,0,0,5.34,7.75L4.77,16H7.52l-.58-1.08A8.43,8.43,0,0,0,12.28,7.17ZM4.72,3.69A3.54,3.54,0,0,0,4,4.22,3.78,3.78,0,0,0,3.11,6a.56.56,0,0,1-.68.42A.57.57,0,0,1,2,5.72,4.86,4.86,0,0,1,3.23,3.44a4.05,4.05,0,0,1,.92-.73.58.58,0,0,1,.78.21A.57.57,0,0,1,4.72,3.69Z" fill="#e77b76"/><rect x="12.45" y="17.16" width="0.56" height="3.51" fill="#e77b76"/><path d="M17.38,10.06c.11-3.13-1.89-5.14-4.47-5.22a8.69,8.69,0,0,1,.22,2.36,9.57,9.57,0,0,1-3.36,7.06,5.39,5.39,0,0,0,2.38,1.64l-.44.82h2.08l-.44-.82A6.34,6.34,0,0,0,17.38,10.06Z" fill="#e77b76"/><path d="M4.72,3.69A3.54,3.54,0,0,0,4,4.22,3.78,3.78,0,0,0,3.11,6a.56.56,0,0,1-.68.42A.57.57,0,0,1,2,5.72,4.86,4.86,0,0,1,3.23,3.44a4.05,4.05,0,0,1,.92-.73.58.58,0,0,1,.78.21A.57.57,0,0,1,4.72,3.69Z" fill="#fff"/><path d="M51.07,15.08a2.85,2.85,0,0,0-.67.53,3.66,3.66,0,0,0-.92,1.73.55.55,0,0,1-.67.42.56.56,0,0,1-.42-.67,4.81,4.81,0,0,1,1.2-2.26,4.31,4.31,0,0,1,.92-.72.56.56,0,0,1,.76.2A.56.56,0,0,1,51.07,15.08Z" fill="#fff"/></g></g></svg>