<svg xmlns="http://www.w3.org/2000/svg" viewBox="0 0 34.79 24.97"><g id="レイヤー_2" data-name="レイヤー 2"><g id="レイヤー_1-2" data-name="レイヤー 1"><path d="M32.81,6.06,30,2.9,19.65,6.09,19.31,0H15.48l-.27,6.11L4.75,2.9,2,6.06,0,24.22,2.52,25l12.82-2.45h4.11L32.27,25l2.52-.75ZM7.19,17.11l-2.49.25L5.05,14l2.4,0Zm.38-4.62-2.38,0,.32-3.08,2.3.32Zm.36-4.26L5.65,7.91,6,4.74l2.2.66Zm2.89,8.53L8.69,17l.25-3L11,14Zm.27-4.23-2,0,.22-2.59,2,.28Zm.24-3.82L9.4,8.44l.22-2.61,1.86.56Zm2.61,7.75-1.62.15L12.48,14l1.58,0Zm.19-3.9H12.57l.14-2.15,1.52.22Zm.18-3.43-1.5-.21.13-2.09,1.46.43Zm3,11.09H15.52L16.14,4H17.3Zm.46,0V4h.9l.88,16.25Zm2.63-13,1.46-.43L22,8.92l-1.5.21Zm.17,3.36,1.52-.22.13,2.15H20.66Zm.29,5.84-.12-2.41,1.58,0,.16,2.58ZM23.31,6.39l1.86-.56.22,2.61-1.93.27Zm.24,3.81,2-.28.22,2.59-2,0ZM24,16.76,23.8,14l2.05,0,.25,3ZM26.62,5.4l2.2-.66.32,3.17-2.28.32ZM27,9.71l2.3-.32.31,3.08-2.38,0Zm.62,7.4L27.34,14l2.4,0,.35,3.41Z" fill="#fff"/></g></g></svg>