<svg xmlns="http://www.w3.org/2000/svg" viewBox="0 0 74.5 67.17"><g id="レイヤー_2" data-name="レイヤー 2"><g id="レイヤー_1-2" data-name="レイヤー 1"><rect y="5.23" width="1.23" height="28.18" fill="#0088cb"/><polygon points="31.9 1.05 30.67 1.05 29.44 1.05 28.21 1.05 26.98 1.05 26.98 37.6 28.21 37.6 29.44 37.6 30.67 37.6 31.9 37.6 33.13 37.6 33.13 1.05 31.9 1.05" fill="#a087af"/><polygon points="55.91 1.05 54.68 1.05 53.45 1.05 52.22 1.05 50.98 1.05 50.98 37.6 52.22 37.6 53.45 37.6 54.68 37.6 55.91 37.6 57.14 37.6 57.14 1.05 55.91 1.05" fill="#bd4a80"/><polygon points="39.45 0 39.45 38.65 40.68 38.65 41.91 38.65 43.13 38.65 44.37 38.65 45.6 38.65 46.83 38.65 46.83 0 39.45 0" fill="#b07697"/><polygon points="4.55 4.19 3.32 4.19 3.32 34.47 4.55 34.47 5.78 34.47 5.78 4.19 4.55 4.19" fill="#008bc6"/><polygon points="73.27 4.19 72.03 4.19 72.03 34.46 73.27 34.46 74.5 34.46 74.5 4.19 73.27 4.19" fill="#cf7e99"/><polygon points="11.39 3.14 10.16 3.14 8.93 3.14 8.93 35.51 10.16 35.51 11.39 35.51 12.62 35.51 12.62 3.14 11.39 3.14" fill="#5f8fc0"/><polygon points="69.75 3.14 68.53 3.14 67.3 3.14 67.3 35.51 68.53 35.51 69.75 35.51 70.99 35.51 70.99 3.14 69.75 3.14" fill="#ca4c80"/><polygon points="20.5 2.09 19.27 2.09 18.03 2.09 16.8 2.09 16.8 36.56 18.03 36.56 19.27 36.56 20.5 36.56 21.73 36.56 21.73 2.09 20.5 2.09" fill="#8a91b9"/><polygon points="63.97 2.09 62.74 2.09 61.51 2.09 60.28 2.09 60.28 36.56 61.51 36.56 62.74 36.56 63.97 36.56 65.2 36.56 65.2 2.09 63.97 2.09" fill="#c60078"/><polygon points="10.44 44.65 10.44 45.33 7.53 45.33 7.53 52.99 6.74 52.99 6.74 45.33 3.84 45.33 3.84 44.65 10.44 44.65" fill="#595757"/><polygon points="19 44.65 19 45.33 14.03 45.33 14.03 48.34 18.68 48.34 18.68 49.02 14.03 49.02 14.03 52.31 19.06 52.31 19.06 52.99 13.24 52.99 13.24 44.65 19 44.65" fill="#595757"/><path d="M27.94,46.31a2.37,2.37,0,0,0-.59-.63,2.31,2.31,0,0,0-.76-.4,2.73,2.73,0,0,0-.87-.13,2.81,2.81,0,0,0-2.4,1.15,3.67,3.67,0,0,0-.56,1.18,5,5,0,0,0-.18,1.34,5.09,5.09,0,0,0,.18,1.34,3.52,3.52,0,0,0,.56,1.17,2.85,2.85,0,0,0,1,.84,3,3,0,0,0,1.42.31,2.61,2.61,0,0,0,1.06-.21,2.43,2.43,0,0,0,.8-.57,2.84,2.84,0,0,0,.55-.84,3.69,3.69,0,0,0,.27-1h.79a4.3,4.3,0,0,1-.36,1.39,3.62,3.62,0,0,1-.72,1,3.2,3.2,0,0,1-1.05.67,3.76,3.76,0,0,1-1.34.23A3.92,3.92,0,0,1,24,52.79a3.51,3.51,0,0,1-1.23-.95A4,4,0,0,1,22,50.46a5.47,5.47,0,0,1-.24-1.64A5.58,5.58,0,0,1,22,47.17a4.17,4.17,0,0,1,.74-1.38,3.65,3.65,0,0,1,1.23-1,3.92,3.92,0,0,1,1.72-.36,3.86,3.86,0,0,1,1.17.18,3.28,3.28,0,0,1,1,.52,2.85,2.85,0,0,1,.77.85,2.66,2.66,0,0,1,.39,1.15h-.79a2.62,2.62,0,0,0-.34-.86" fill="#595757"/><polygon points="33.22 44.65 33.22 48.27 38.17 48.27 38.17 44.65 38.97 44.65 38.97 52.99 38.17 52.99 38.17 48.95 33.22 48.95 33.22 52.99 32.43 52.99 32.43 44.65 33.22 44.65" fill="#595757"/><polygon points="43.54 44.65 48.4 51.7 48.43 51.7 48.43 44.65 49.22 44.65 49.22 52.99 48.33 52.99 43.47 45.93 43.45 45.93 43.45 52.99 42.66 52.99 42.66 44.65 43.54 44.65" fill="#595757"/><path d="M52.71,47.17a4,4,0,0,1,.74-1.38,3.47,3.47,0,0,1,1.23-1,4.29,4.29,0,0,1,3.44,0,3.52,3.52,0,0,1,1.22,1,4,4,0,0,1,.74,1.38,5.58,5.58,0,0,1,.25,1.65,5.52,5.52,0,0,1-.25,1.64,3.82,3.82,0,0,1-.74,1.38,3.38,3.38,0,0,1-1.22.95,4.29,4.29,0,0,1-3.44,0,3.34,3.34,0,0,1-1.23-.95,3.82,3.82,0,0,1-.74-1.38,5.51,5.51,0,0,1-.24-1.64,5.58,5.58,0,0,1,.24-1.65m.73,3A3.52,3.52,0,0,0,54,51.33a2.76,2.76,0,0,0,1,.84,3.41,3.41,0,0,0,2.84,0,2.82,2.82,0,0,0,1-.84,3.52,3.52,0,0,0,.56-1.17,5.12,5.12,0,0,0,0-2.69,3.72,3.72,0,0,0-.56-1.17,2.9,2.9,0,0,0-1-.83,3.31,3.31,0,0,0-2.84,0,2.84,2.84,0,0,0-1,.83,3.72,3.72,0,0,0-.56,1.17,5.12,5.12,0,0,0,0,2.69" fill="#595757"/><path d="M64.15,51.32a1.88,1.88,0,0,0,.58.69,2.42,2.42,0,0,0,.87.36,4.71,4.71,0,0,0,1.08.11,3.21,3.21,0,0,0,.71-.09,2.29,2.29,0,0,0,.72-.3,1.82,1.82,0,0,0,.55-.52,1.33,1.33,0,0,0,.22-.78,1.23,1.23,0,0,0-.15-.61,1.52,1.52,0,0,0-.41-.43,2.44,2.44,0,0,0-.56-.28,5,5,0,0,0-.59-.19l-1.86-.45a6.51,6.51,0,0,1-.71-.23,2,2,0,0,1-.6-.38,1.61,1.61,0,0,1-.41-.57,1.89,1.89,0,0,1-.16-.83,2.57,2.57,0,0,1,.12-.71,1.94,1.94,0,0,1,.44-.77,2.51,2.51,0,0,1,.88-.62,3.63,3.63,0,0,1,1.43-.25,4.1,4.1,0,0,1,1.18.17,2.66,2.66,0,0,1,1,.49,2.3,2.3,0,0,1,.67.81,2.39,2.39,0,0,1,.26,1.13h-.8a1.86,1.86,0,0,0-.21-.84,1.92,1.92,0,0,0-.5-.59,2.45,2.45,0,0,0-.72-.37,2.94,2.94,0,0,0-.84-.12,3.35,3.35,0,0,0-.79.09,1.93,1.93,0,0,0-.67.28,1.51,1.51,0,0,0-.46.51,1.55,1.55,0,0,0-.17.78,1.36,1.36,0,0,0,.09.51,1.25,1.25,0,0,0,.28.37,1.47,1.47,0,0,0,.4.24,3.51,3.51,0,0,0,.49.15l2,.5a6.75,6.75,0,0,1,.83.29,2.65,2.65,0,0,1,.69.42,1.76,1.76,0,0,1,.47.61,2.16,2.16,0,0,1,.17.88,3,3,0,0,1,0,.37,2,2,0,0,1-.14.5,2.14,2.14,0,0,1-.32.53,2,2,0,0,1-.56.49,3.29,3.29,0,0,1-.88.35,5.14,5.14,0,0,1-1.26.13A5.41,5.41,0,0,1,65.12,53a2.81,2.81,0,0,1-1.07-.52,2.2,2.2,0,0,1-.68-.9,3,3,0,0,1-.21-1.32H64a2.49,2.49,0,0,0,.19,1.08" fill="#595757"/><path d="M10.48,60.33a2.37,2.37,0,0,0-.58-.64,2.88,2.88,0,0,0-.76-.39,2.82,2.82,0,0,0-.87-.13,3,3,0,0,0-1.43.31,2.82,2.82,0,0,0-1,.84,3.34,3.34,0,0,0-.56,1.17,4.82,4.82,0,0,0,0,2.68,3.48,3.48,0,0,0,.56,1.18,2.79,2.79,0,0,0,1,.83,2.91,2.91,0,0,0,1.43.32,2.52,2.52,0,0,0,1.05-.21,2.43,2.43,0,0,0,.8-.57,2.89,2.89,0,0,0,.55-.85,3.54,3.54,0,0,0,.27-1h.79a4.37,4.37,0,0,1-.36,1.39,3.44,3.44,0,0,1-.72,1,3,3,0,0,1-1.05.66,3.54,3.54,0,0,1-1.33.24,3.93,3.93,0,0,1-1.73-.36,3.76,3.76,0,0,1-1.23-1,4.36,4.36,0,0,1-.74-1.38,5.76,5.76,0,0,1,0-3.29,4.41,4.41,0,0,1,.74-1.39,3.65,3.65,0,0,1,1.23-1,4.08,4.08,0,0,1,1.73-.35,4.17,4.17,0,0,1,1.16.17,3.39,3.39,0,0,1,1,.52,3.17,3.17,0,0,1,.78.85,3,3,0,0,1,.39,1.16h-.8a2.62,2.62,0,0,0-.34-.86" fill="#595757"/><path d="M15.13,61.19a4,4,0,0,1,.74-1.39,3.56,3.56,0,0,1,1.23-1,4.4,4.4,0,0,1,3.44,0,3.65,3.65,0,0,1,1.23,1,4.1,4.1,0,0,1,.73,1.39,5.54,5.54,0,0,1,0,3.29,4.15,4.15,0,0,1-.73,1.38,3.63,3.63,0,0,1-1.23,1,4.29,4.29,0,0,1-3.44,0,3.53,3.53,0,0,1-1.23-1,4,4,0,0,1-.74-1.38,5.76,5.76,0,0,1,0-3.29m.73,3a3.67,3.67,0,0,0,.56,1.18,2.74,2.74,0,0,0,1,.83,3,3,0,0,0,1.42.32,3,3,0,0,0,1.42-.32,2.7,2.7,0,0,0,1-.83,3.67,3.67,0,0,0,.56-1.18A5.09,5.09,0,0,0,22,62.83a5,5,0,0,0-.18-1.34,3.52,3.52,0,0,0-.56-1.17,2.73,2.73,0,0,0-1-.84,3,3,0,0,0-1.42-.31,3,3,0,0,0-1.42.31,2.76,2.76,0,0,0-1,.84,3.52,3.52,0,0,0-.56,1.17,5,5,0,0,0-.18,1.34,5.09,5.09,0,0,0,.18,1.34" fill="#595757"/><polygon points="26.37 58.66 26.37 67 31.83 67 31.83 66.33 27.16 66.33 27.16 58.66 26.37 58.66" fill="#595757"/><polygon points="35.02 58.66 35.02 67 40.49 67 40.49 66.33 35.81 66.33 35.81 58.66 35.02 58.66" fill="#595757"/><polygon points="43.67 58.66 43.67 67 49.49 67 49.49 66.33 44.46 66.33 44.46 63.03 49.12 63.03 49.12 62.35 44.46 62.35 44.46 59.34 49.43 59.34 49.43 58.66 43.67 58.66" fill="#595757"/><path d="M59.53,67l-.1-1.52h0a2.67,2.67,0,0,1-.52.77,2.62,2.62,0,0,1-.68.52,2.86,2.86,0,0,1-.8.3,3.65,3.65,0,0,1-.88.1,3.93,3.93,0,0,1-1.73-.36,3.63,3.63,0,0,1-1.23-1,4.15,4.15,0,0,1-.73-1.38,5.54,5.54,0,0,1,0-3.29,4.1,4.1,0,0,1,.73-1.39,3.65,3.65,0,0,1,1.23-1,4.08,4.08,0,0,1,1.73-.35,4.58,4.58,0,0,1,1.24.17,3.52,3.52,0,0,1,1,.53,3.19,3.19,0,0,1,.77.86A3.48,3.48,0,0,1,60,61.26h-.8a1.7,1.7,0,0,0-.24-.73,2.65,2.65,0,0,0-.54-.68,2.94,2.94,0,0,0-.83-.49,2.83,2.83,0,0,0-1.07-.19,3,3,0,0,0-1.43.31,2.82,2.82,0,0,0-1,.84,3.34,3.34,0,0,0-.56,1.17,5,5,0,0,0-.18,1.34,5.09,5.09,0,0,0,.18,1.34,3.48,3.48,0,0,0,.56,1.18,2.79,2.79,0,0,0,1,.83,3,3,0,0,0,1.43.32,3,3,0,0,0,1.23-.23,2.6,2.6,0,0,0,.92-.63,2.84,2.84,0,0,0,.56-1,3.77,3.77,0,0,0,.17-1.23H56.56v-.68H60.1V67Z" fill="#595757"/><polygon points="64.02 58.66 64.02 67 69.83 67 69.83 66.33 64.81 66.33 64.81 63.03 69.46 63.03 69.46 62.35 64.81 62.35 64.81 59.34 69.77 59.34 69.77 58.66 64.02 58.66" fill="#595757"/></g></g></svg>