<svg xmlns="http://www.w3.org/2000/svg" viewBox="0 0 93.52 49.57"><g id="レイヤー_2" data-name="レイヤー 2"><g id="レイヤー_1-2" data-name="レイヤー 1"><polygon points="4.38 43.92 4.38 44.37 2.45 44.37 2.45 49.47 1.92 49.47 1.92 44.37 0 44.37 0 43.92 4.38 43.92" fill="#fff"/><polygon points="10.07 43.92 10.07 44.37 6.77 44.37 6.77 46.38 9.86 46.38 9.86 46.83 6.77 46.83 6.77 49.02 10.11 49.02 10.11 49.47 6.25 49.47 6.25 43.92 10.07 43.92" fill="#fff"/><path d="M16,45a1.31,1.31,0,0,0-.39-.42,1.59,1.59,0,0,0-.5-.26,1.85,1.85,0,0,0-.58-.09,2,2,0,0,0-.94.21A1.84,1.84,0,0,0,13,45a2.36,2.36,0,0,0-.38.78,3.82,3.82,0,0,0-.12.89,3.74,3.74,0,0,0,.12.89,2.32,2.32,0,0,0,.38.79,1.84,1.84,0,0,0,.65.55,2,2,0,0,0,.94.21,1.75,1.75,0,0,0,.7-.14,1.6,1.6,0,0,0,.54-.38,1.92,1.92,0,0,0,.36-.56,2.33,2.33,0,0,0,.18-.7h.53a3.25,3.25,0,0,1-.24.93,2.71,2.71,0,0,1-.48.7,2,2,0,0,1-.7.44,2.52,2.52,0,0,1-.89.15,2.73,2.73,0,0,1-1.14-.23,2.36,2.36,0,0,1-.82-.64,2.58,2.58,0,0,1-.49-.91,3.83,3.83,0,0,1,0-2.19,2.71,2.71,0,0,1,.49-.92A2.36,2.36,0,0,1,13.4,44a2.73,2.73,0,0,1,1.14-.23,2.94,2.94,0,0,1,.78.11,2.58,2.58,0,0,1,.68.35,2.11,2.11,0,0,1,.51.56,1.9,1.9,0,0,1,.26.77h-.53A1.59,1.59,0,0,0,16,45" fill="#fff"/><polygon points="19.52 43.92 19.52 46.33 22.82 46.33 22.82 43.92 23.34 43.92 23.34 49.47 22.82 49.47 22.82 46.78 19.52 46.78 19.52 49.47 19 49.47 19 43.92 19.52 43.92" fill="#fff"/><polygon points="26.39 43.92 29.61 48.61 29.63 48.61 29.63 43.92 30.16 43.92 30.16 49.47 29.57 49.47 26.34 44.78 26.32 44.78 26.32 49.47 25.8 49.47 25.8 43.92 26.39 43.92" fill="#fff"/><path d="M32.48,45.6a2.55,2.55,0,0,1,.49-.92,2.33,2.33,0,0,1,.81-.64,2.78,2.78,0,0,1,1.15-.23,2.73,2.73,0,0,1,1.14.23,2.36,2.36,0,0,1,.82.64,2.9,2.9,0,0,1,.49.92,3.83,3.83,0,0,1,0,2.19,2.75,2.75,0,0,1-.49.91,2.36,2.36,0,0,1-.82.64,2.73,2.73,0,0,1-1.14.23,2.78,2.78,0,0,1-1.15-.23A2.33,2.33,0,0,1,33,48.7a2.43,2.43,0,0,1-.49-.91,3.61,3.61,0,0,1,0-2.19m.48,2a2.5,2.5,0,0,0,.37.79,1.93,1.93,0,0,0,.65.55,2,2,0,0,0,1,.21,2,2,0,0,0,.94-.21,1.93,1.93,0,0,0,.65-.55,2.3,2.3,0,0,0,.37-.79,3.36,3.36,0,0,0,0-1.78,2.34,2.34,0,0,0-.37-.78,1.93,1.93,0,0,0-.65-.55,2,2,0,0,0-.94-.21,2,2,0,0,0-1,.21,1.93,1.93,0,0,0-.65.55,2.55,2.55,0,0,0-.37.78,3.36,3.36,0,0,0,0,1.78" fill="#fff"/><path d="M40.08,48.36a1.14,1.14,0,0,0,.39.45,1.48,1.48,0,0,0,.57.25,3.38,3.38,0,0,0,.72.07,2.09,2.09,0,0,0,.47-.06,1.68,1.68,0,0,0,.48-.2,1.12,1.12,0,0,0,.37-.35.85.85,0,0,0,.15-.51.78.78,0,0,0-.11-.41.9.9,0,0,0-.27-.28,1.18,1.18,0,0,0-.37-.19L42.09,47l-1.24-.3a4.26,4.26,0,0,1-.47-.15,1.5,1.5,0,0,1-.4-.25,1.19,1.19,0,0,1-.27-.38,1.31,1.31,0,0,1-.11-.55,1.84,1.84,0,0,1,.08-.48,1.32,1.32,0,0,1,.29-.51,1.81,1.81,0,0,1,.59-.41,2.32,2.32,0,0,1,.95-.16,2.45,2.45,0,0,1,.78.11,2,2,0,0,1,.66.32,1.77,1.77,0,0,1,.44.54,1.66,1.66,0,0,1,.17.75H43a1.4,1.4,0,0,0-.14-.56,1.55,1.55,0,0,0-.33-.39,1.35,1.35,0,0,0-.48-.24,1.73,1.73,0,0,0-.56-.08,2.87,2.87,0,0,0-.52.05,1.53,1.53,0,0,0-.45.19,1,1,0,0,0-.3.34,1,1,0,0,0-.12.52.74.74,0,0,0,.07.34.69.69,0,0,0,.18.24.81.81,0,0,0,.27.16,1.09,1.09,0,0,0,.32.1l1.35.34a3,3,0,0,1,.55.19,1.62,1.62,0,0,1,.46.28,1.14,1.14,0,0,1,.31.41,1.58,1.58,0,0,1,.09.83,1.17,1.17,0,0,1-.09.33,1.9,1.9,0,0,1-.21.35,1.17,1.17,0,0,1-.37.32,1.77,1.77,0,0,1-.59.23,3.37,3.37,0,0,1-.84.09,3.27,3.27,0,0,1-.9-.11,2,2,0,0,1-.72-.34,1.58,1.58,0,0,1-.45-.6,2,2,0,0,1-.14-.88H40a1.72,1.72,0,0,0,.13.72" fill="#fff"/><path d="M54.07,45a1.74,1.74,0,0,0-.39-.42,1.83,1.83,0,0,0-.5-.26,1.9,1.9,0,0,0-.58-.09,2,2,0,0,0-1,.21A2,2,0,0,0,51,45a2.55,2.55,0,0,0-.37.78,3.3,3.3,0,0,0-.12.89,3.35,3.35,0,0,0,.12.89,2.55,2.55,0,0,0,.37.78,2,2,0,0,0,.65.56,2,2,0,0,0,1,.21,1.75,1.75,0,0,0,.7-.14,1.71,1.71,0,0,0,.53-.38A2.08,2.08,0,0,0,54.2,48a2.5,2.5,0,0,0,.18-.69h.52a2.65,2.65,0,0,1-.24.92,2.09,2.09,0,0,1-1.17,1.14,2.35,2.35,0,0,1-.89.16,2.63,2.63,0,0,1-1.15-.24,2.42,2.42,0,0,1-.81-.63,2.47,2.47,0,0,1-.49-.92A3.55,3.55,0,0,1,50,46.62a3.67,3.67,0,0,1,.17-1.1,2.63,2.63,0,0,1,.49-.92,2.42,2.42,0,0,1,.81-.63,2.63,2.63,0,0,1,1.15-.24,2.53,2.53,0,0,1,.77.12,2.07,2.07,0,0,1,.68.34,1.93,1.93,0,0,1,.78,1.33H54.3a1.8,1.8,0,0,0-.23-.57" fill="#fff"/><path d="M57.16,45.52a2.81,2.81,0,0,1,.49-.92,2.46,2.46,0,0,1,.82-.63,2.58,2.58,0,0,1,1.14-.24,2.52,2.52,0,0,1,1.14.24,2.46,2.46,0,0,1,.82.63,2.81,2.81,0,0,1,.49.92,3.66,3.66,0,0,1,.16,1.1,3.55,3.55,0,0,1-.16,1.09,2.62,2.62,0,0,1-.49.92,2.46,2.46,0,0,1-.82.63,2.52,2.52,0,0,1-1.14.24,2.58,2.58,0,0,1-1.14-.24,2.46,2.46,0,0,1-.82-.63,2.62,2.62,0,0,1-.49-.92A3.55,3.55,0,0,1,57,46.62a3.66,3.66,0,0,1,.16-1.1m.49,2a2.34,2.34,0,0,0,.37.78,1.86,1.86,0,0,0,.65.56,2.23,2.23,0,0,0,1.89,0,1.92,1.92,0,0,0,.64-.56,2.36,2.36,0,0,0,.38-.78,3.8,3.8,0,0,0,.11-.89,3.74,3.74,0,0,0-.11-.89A2.27,2.27,0,0,0,61.2,45a1.92,1.92,0,0,0-.64-.56,2.23,2.23,0,0,0-1.89,0A1.86,1.86,0,0,0,58,45a2.25,2.25,0,0,0-.37.78,3.3,3.3,0,0,0-.12.89,3.35,3.35,0,0,0,.12.89" fill="#fff"/><polygon points="64.63 43.85 64.63 49.39 68.26 49.39 68.26 48.94 65.16 48.94 65.16 43.85 64.63 43.85" fill="#fff"/><polygon points="70.38 43.85 70.38 49.39 74.01 49.39 74.01 48.94 70.91 48.94 70.91 43.85 70.38 43.85" fill="#fff"/><polygon points="76.13 43.85 76.13 49.39 79.99 49.39 79.99 48.94 76.66 48.94 76.66 46.75 79.75 46.75 79.75 46.3 76.66 46.3 76.66 44.3 79.95 44.3 79.95 43.85 76.13 43.85" fill="#fff"/><path d="M86.67,49.39l-.07-1h0a1.89,1.89,0,0,1-.34.51,1.93,1.93,0,0,1-.46.35,2.24,2.24,0,0,1-.53.2,2.78,2.78,0,0,1-.58.06,2.6,2.6,0,0,1-1.15-.24,2.46,2.46,0,0,1-.82-.63,2.62,2.62,0,0,1-.49-.92,3.79,3.79,0,0,1,0-2.18,2.76,2.76,0,0,1,.49-.93,2.46,2.46,0,0,1,.82-.63,2.6,2.6,0,0,1,1.15-.24,2.81,2.81,0,0,1,.82.12,2,2,0,0,1,.69.35,2,2,0,0,1,.51.57,2.24,2.24,0,0,1,.29.8h-.53a1.14,1.14,0,0,0-.16-.48,1.55,1.55,0,0,0-.36-.45,1.87,1.87,0,0,0-.55-.33,1.8,1.8,0,0,0-.71-.13,2,2,0,0,0-1,.21,2,2,0,0,0-.65.56,2.25,2.25,0,0,0-.37.78,3.3,3.3,0,0,0-.12.89,3.35,3.35,0,0,0,.12.89,2.34,2.34,0,0,0,.37.78,2,2,0,0,0,.65.56,2.22,2.22,0,0,0,1.77,0,1.71,1.71,0,0,0,.6-.42,1.79,1.79,0,0,0,.38-.64,2.4,2.4,0,0,0,.11-.82H84.7v-.45h2.35v2.82Z" fill="#fff"/><polygon points="89.65 43.85 89.65 49.39 93.52 49.39 93.52 48.94 90.18 48.94 90.18 46.75 93.27 46.75 93.27 46.3 90.18 46.3 90.18 44.3 93.47 44.3 93.47 43.85 89.65 43.85" fill="#fff"/><rect x="10.99" y="4.88" width="1.15" height="26.31" fill="#fff"/><polygon points="40.77 0.98 39.62 0.98 38.47 0.98 37.32 0.98 36.17 0.98 36.17 35.09 37.32 35.09 38.47 35.09 39.62 35.09 40.77 35.09 41.92 35.09 41.92 0.98 40.77 0.98" fill="#fff"/><polygon points="63.17 0.98 62.03 0.98 60.88 0.98 59.73 0.98 58.58 0.98 58.58 35.09 59.73 35.09 60.88 35.09 62.03 35.09 63.17 35.09 64.32 35.09 64.32 0.98 63.17 0.98" fill="#fff"/><polygon points="47.81 0 47.81 36.07 48.96 36.07 50.1 36.07 51.25 36.07 52.4 36.07 53.55 36.07 54.7 36.07 54.7 0 47.81 0" fill="#fff"/><polygon points="15.24 3.91 14.1 3.91 14.1 32.17 15.24 32.17 16.39 32.17 16.39 3.91 15.24 3.91" fill="#fff"/><polygon points="79.37 3.91 78.22 3.91 78.22 32.17 79.37 32.17 80.52 32.17 80.52 3.91 79.37 3.91" fill="#fff"/><polygon points="21.62 2.93 20.47 2.93 19.32 2.93 19.32 33.14 20.47 33.14 21.62 33.14 22.77 33.14 22.77 2.93 21.62 2.93" fill="#fff"/><polygon points="76.1 2.93 74.95 2.93 73.8 2.93 73.8 33.14 74.95 33.14 76.1 33.14 77.25 33.14 77.25 2.93 76.1 2.93" fill="#fff"/><polygon points="30.12 1.95 28.97 1.95 27.82 1.95 26.68 1.95 26.68 34.12 27.82 34.12 28.97 34.12 30.12 34.12 31.27 34.12 31.27 1.95 30.12 1.95" fill="#fff"/><polygon points="70.7 1.95 69.55 1.95 68.4 1.95 67.25 1.95 67.25 34.12 68.4 34.12 69.55 34.12 70.7 34.12 71.85 34.12 71.85 1.95 70.7 1.95" fill="#fff"/></g></g></svg>