<svg xmlns="http://www.w3.org/2000/svg" viewBox="0 0 25 25"><g id="レイヤー_2" data-name="レイヤー 2"><g id="レイヤー_1-2" data-name="レイヤー 1"><path d="M8.43,5A3.79,3.79,0,0,0,4.65,8.78a.52.52,0,0,0,.52.53.53.53,0,0,0,.53-.53A2.73,2.73,0,0,1,8.43,6.05.52.52,0,0,0,9,5.52.52.52,0,0,0,8.43,5Z" fill="#464646"/><path d="M17.66,14.72a9.5,9.5,0,0,0,1.5-5.14,9.58,9.58,0,1,0-9.58,9.59,9.46,9.46,0,0,0,5.13-1.5A9.65,9.65,0,0,0,17.66,14.72Zm-5,.92a6.73,6.73,0,0,1-3.1.75,6.81,6.81,0,0,1-6.8-6.81,6.73,6.73,0,0,1,.75-3.1,6.8,6.8,0,1,1,9.15,9.16Z" fill="#464646"/><path d="M24.39,21.44l-5.53-5.52a11.45,11.45,0,0,1-2.94,3l5.53,5.52a2.08,2.08,0,0,0,2.94,0A2.09,2.09,0,0,0,24.39,21.44Z" fill="#464646"/></g></g></svg>