<svg xmlns="http://www.w3.org/2000/svg" viewBox="0 0 378.5 36.07"><g id="レイヤー_2" data-name="レイヤー 2"><g id="_1" data-name="1"><polygon points="96.39 10.12 96.39 11.62 89.95 11.62 89.95 28.59 88.19 28.59 88.19 11.62 81.78 11.62 81.78 10.12 96.39 10.12" fill="#595757"/><polygon points="115.36 10.12 115.36 11.62 104.36 11.62 104.36 18.3 114.66 18.3 114.66 19.79 104.36 19.79 104.36 27.09 115.49 27.09 115.49 28.59 102.6 28.59 102.6 10.12 115.36 10.12" fill="#595757"/><path d="M135.16,13.81a5.35,5.35,0,0,0-1.3-1.42,5.56,5.56,0,0,0-1.68-.86,6.12,6.12,0,0,0-1.92-.3,6.73,6.73,0,0,0-3.16.7,6.26,6.26,0,0,0-2.16,1.85,7.82,7.82,0,0,0-1.24,2.6,11.23,11.23,0,0,0,0,5.94,7.87,7.87,0,0,0,1.24,2.61,6.16,6.16,0,0,0,2.16,1.85,6.61,6.61,0,0,0,3.16.7,5.67,5.67,0,0,0,2.33-.47,5.31,5.31,0,0,0,1.78-1.27,6.34,6.34,0,0,0,1.21-1.87,7.93,7.93,0,0,0,.61-2.32h1.75a10,10,0,0,1-.8,3.08,7.71,7.71,0,0,1-1.6,2.33,6.92,6.92,0,0,1-2.32,1.48,8.21,8.21,0,0,1-3,.52,8.69,8.69,0,0,1-3.82-.8,8,8,0,0,1-2.73-2.1A9,9,0,0,1,122.08,23a12.16,12.16,0,0,1-.54-3.65,12.31,12.31,0,0,1,.54-3.65,9.19,9.19,0,0,1,1.63-3.06,7.88,7.88,0,0,1,2.73-2.12,9.22,9.22,0,0,1,6.39-.4,7.42,7.42,0,0,1,2.28,1.15,6.65,6.65,0,0,1,1.7,1.88,6.23,6.23,0,0,1,.87,2.55h-1.76a5.77,5.77,0,0,0-.76-1.89" fill="#595757"/><polygon points="146.87 10.12 146.87 18.14 157.83 18.14 157.83 10.12 159.59 10.12 159.59 28.59 157.83 28.59 157.83 19.64 146.87 19.64 146.87 28.59 145.1 28.59 145.1 10.12 146.87 10.12" fill="#595757"/><polygon points="169.73 10.12 180.5 25.75 180.55 25.75 180.55 10.12 182.3 10.12 182.3 28.59 180.34 28.59 169.58 12.96 169.53 12.96 169.53 28.59 167.76 28.59 167.76 10.12 169.73 10.12" fill="#595757"/><path d="M190,15.71a9.14,9.14,0,0,1,1.63-3.07,7.79,7.79,0,0,1,2.73-2.12,8.69,8.69,0,0,1,3.82-.79,8.6,8.6,0,0,1,3.8.79,7.9,7.9,0,0,1,2.71,2.12,9,9,0,0,1,1.64,3.07,12.57,12.57,0,0,1,0,7.29,8.85,8.85,0,0,1-1.64,3.06,7.85,7.85,0,0,1-2.71,2.1,8.6,8.6,0,0,1-3.8.8,8.69,8.69,0,0,1-3.82-.8,7.74,7.74,0,0,1-2.73-2.1A9,9,0,0,1,190,23a12.57,12.57,0,0,1,0-7.29m1.62,6.61a8.16,8.16,0,0,0,1.23,2.61,6.39,6.39,0,0,0,2.17,1.85,6.61,6.61,0,0,0,3.16.7,6.53,6.53,0,0,0,3.14-.7,6.32,6.32,0,0,0,2.15-1.85,8,8,0,0,0,1.24-2.61,11.23,11.23,0,0,0,0-5.94,8,8,0,0,0-1.24-2.6,6.32,6.32,0,0,0-2.15-1.85,6.65,6.65,0,0,0-3.14-.7,6.73,6.73,0,0,0-3.16.7,6.39,6.39,0,0,0-2.17,1.85,8.2,8.2,0,0,0-1.23,2.6,11,11,0,0,0,0,5.94" fill="#595757"/><path d="M215.39,24.89a3.93,3.93,0,0,0,1.28,1.53,5.33,5.33,0,0,0,1.93.81,10.6,10.6,0,0,0,2.38.25,6.68,6.68,0,0,0,1.58-.21,5.69,5.69,0,0,0,1.59-.66,4.13,4.13,0,0,0,1.23-1.16,3,3,0,0,0,.49-1.72,2.56,2.56,0,0,0-.35-1.35,3.05,3.05,0,0,0-.91-.95,4.88,4.88,0,0,0-1.22-.64,12.29,12.29,0,0,0-1.32-.4l-4.12-1a12.41,12.41,0,0,1-1.56-.52,4.43,4.43,0,0,1-1.34-.82,3.93,3.93,0,0,1-.91-1.27,4.26,4.26,0,0,1-.35-1.84,6.32,6.32,0,0,1,.25-1.58,4.51,4.51,0,0,1,1-1.71A5.61,5.61,0,0,1,217,10.29a7.85,7.85,0,0,1,3.18-.56,9.25,9.25,0,0,1,2.61.36,6.38,6.38,0,0,1,2.18,1.09,5.3,5.3,0,0,1,1.48,1.8,5.23,5.23,0,0,1,.56,2.49h-1.76a4.19,4.19,0,0,0-.48-1.85,4,4,0,0,0-1.11-1.31,4.64,4.64,0,0,0-1.58-.81,6.41,6.41,0,0,0-1.87-.27,8.3,8.3,0,0,0-1.75.19,4.25,4.25,0,0,0-1.47.63,3.17,3.17,0,0,0-1,1.12,3.63,3.63,0,0,0-.38,1.73,2.49,2.49,0,0,0,.82,2,3.36,3.36,0,0,0,.9.54,5.81,5.81,0,0,0,1.07.33l4.5,1.12a12.56,12.56,0,0,1,1.85.63,6.13,6.13,0,0,1,1.53.93,3.75,3.75,0,0,1,1,1.36,4.57,4.57,0,0,1,.38,1.94,5.87,5.87,0,0,1-.07.83,3.91,3.91,0,0,1-.31,1.1,5.39,5.39,0,0,1-.69,1.18,4.3,4.3,0,0,1-1.25,1.07,7.2,7.2,0,0,1-1.95.78,11.88,11.88,0,0,1-2.8.3,11.62,11.62,0,0,1-3-.38,6.44,6.44,0,0,1-2.38-1.15,5.15,5.15,0,0,1-1.52-2,6.58,6.58,0,0,1-.45-2.92H215a5.17,5.17,0,0,0,.44,2.38" fill="#595757"/><path d="M247,13.55a5.13,5.13,0,0,0-1.3-1.4,5.38,5.38,0,0,0-1.68-.87,6.14,6.14,0,0,0-1.93-.3,6.64,6.64,0,0,0-3.16.7,6.32,6.32,0,0,0-2.15,1.85,7.74,7.74,0,0,0-1.25,2.6,11,11,0,0,0-.4,3,11.13,11.13,0,0,0,.4,3,7.89,7.89,0,0,0,1.25,2.61A6.32,6.32,0,0,0,239,26.53a6.76,6.76,0,0,0,3.16.7,5.64,5.64,0,0,0,2.33-.47,5.58,5.58,0,0,0,1.79-1.26,6.89,6.89,0,0,0,1.21-1.88,8,8,0,0,0,.6-2.32h1.76a9.75,9.75,0,0,1-.81,3.08,7.48,7.48,0,0,1-1.6,2.33,6.75,6.75,0,0,1-2.32,1.47,8,8,0,0,1-3,.52,8.65,8.65,0,0,1-3.81-.79,7.77,7.77,0,0,1-2.73-2.11,9.15,9.15,0,0,1-1.64-3.05,12.57,12.57,0,0,1,0-7.29,9.34,9.34,0,0,1,1.64-3.07,7.68,7.68,0,0,1,2.73-2.12,8.79,8.79,0,0,1,3.81-.79,8.68,8.68,0,0,1,2.58.39A7.26,7.26,0,0,1,247,11a6.51,6.51,0,0,1,1.71,1.87,6.42,6.42,0,0,1,.87,2.57h-1.76a6.11,6.11,0,0,0-.76-1.91" fill="#595757"/><path d="M257.32,15.46A9.14,9.14,0,0,1,259,12.39a7.77,7.77,0,0,1,2.73-2.12,8.66,8.66,0,0,1,3.82-.79,8.54,8.54,0,0,1,3.8.79A7.82,7.82,0,0,1,272,12.39a9.32,9.32,0,0,1,1.63,3.07,12.57,12.57,0,0,1,0,7.29A9.13,9.13,0,0,1,272,25.8a7.91,7.91,0,0,1-2.72,2.11,8.54,8.54,0,0,1-3.8.79,8.66,8.66,0,0,1-3.82-.79A7.86,7.86,0,0,1,259,25.8a9,9,0,0,1-1.63-3.05,12.57,12.57,0,0,1,0-7.29m1.62,6.61a8.07,8.07,0,0,0,1.24,2.61,6.13,6.13,0,0,0,2.16,1.84,6.61,6.61,0,0,0,3.16.71,6.53,6.53,0,0,0,3.14-.71,6.19,6.19,0,0,0,2.15-1.84A7.87,7.87,0,0,0,272,22.07a11.13,11.13,0,0,0,.4-3,10.91,10.91,0,0,0-.4-3,7.72,7.72,0,0,0-1.24-2.6,6.22,6.22,0,0,0-2.15-1.85,6.53,6.53,0,0,0-3.14-.7,6.61,6.61,0,0,0-3.16.7,6.16,6.16,0,0,0-2.16,1.85,7.92,7.92,0,0,0-1.24,2.6,10.91,10.91,0,0,0-.4,3,11.13,11.13,0,0,0,.4,3" fill="#595757"/><polygon points="282.21 9.87 282.21 28.34 294.31 28.34 294.31 26.84 283.96 26.84 283.96 9.87 282.21 9.87" fill="#595757"/><polygon points="301.38 9.87 301.38 28.34 313.49 28.34 313.49 26.84 303.13 26.84 303.13 9.87 301.38 9.87" fill="#595757"/><polygon points="320.55 9.87 320.55 28.34 333.43 28.34 333.43 26.84 322.3 26.84 322.3 19.54 332.6 19.54 332.6 18.04 322.3 18.04 322.3 11.37 333.3 11.37 333.3 9.87 320.55 9.87" fill="#595757"/><path d="M355.68,28.34,355.44,25h-.05a6.19,6.19,0,0,1-2.66,2.86,7,7,0,0,1-1.78.67,9.55,9.55,0,0,1-1.95.2,8.69,8.69,0,0,1-3.82-.79,7.82,7.82,0,0,1-2.72-2.11,8.88,8.88,0,0,1-1.64-3.05,12.57,12.57,0,0,1,0-7.29,9.16,9.16,0,0,1,1.64-3.07,7.73,7.73,0,0,1,2.72-2.12A8.69,8.69,0,0,1,349,9.48a9.12,9.12,0,0,1,2.74.39A6.88,6.88,0,0,1,354.05,11a7,7,0,0,1,1.7,1.92,7.19,7.19,0,0,1,1,2.66H355a4.12,4.12,0,0,0-.53-1.62,5.47,5.47,0,0,0-1.22-1.48,6.2,6.2,0,0,0-1.82-1.11A6.43,6.43,0,0,0,349,11a6.64,6.64,0,0,0-3.16.7,6.23,6.23,0,0,0-2.15,1.85,7.74,7.74,0,0,0-1.25,2.6,11.37,11.37,0,0,0-.4,3,11.55,11.55,0,0,0,.4,3,7.89,7.89,0,0,0,1.25,2.61,6.1,6.1,0,0,0,2.15,1.84,6.64,6.64,0,0,0,3.16.71,6.92,6.92,0,0,0,2.73-.51,5.66,5.66,0,0,0,2-1.41A6,6,0,0,0,355,23.17a8.21,8.21,0,0,0,.38-2.72H349.1V19h7.84v9.39Z" fill="#595757"/><polygon points="365.61 9.87 365.61 28.34 378.5 28.34 378.5 26.84 367.37 26.84 367.37 19.54 377.67 19.54 377.67 18.04 367.37 18.04 367.37 11.37 378.37 11.37 378.37 9.87 365.61 9.87" fill="#595757"/><rect y="4.88" width="1.15" height="26.31" fill="#0088cb"/><polygon points="29.78 0.98 28.63 0.98 27.48 0.98 26.33 0.98 25.18 0.98 25.18 35.09 26.33 35.09 27.48 35.09 28.63 35.09 29.78 35.09 30.93 35.09 30.93 0.98 29.78 0.98" fill="#a087af"/><polygon points="52.18 0.98 51.03 0.98 49.88 0.98 48.74 0.98 47.59 0.98 47.59 35.09 48.74 35.09 49.88 35.09 51.03 35.09 52.18 35.09 53.33 35.09 53.33 0.98 52.18 0.98" fill="#bd4a80"/><polygon points="36.81 0 36.81 36.07 37.97 36.07 39.11 36.07 40.26 36.07 41.41 36.07 42.56 36.07 43.71 36.07 43.71 0 36.81 0" fill="#b07697"/><polygon points="4.25 3.91 3.1 3.91 3.1 32.17 4.25 32.17 5.4 32.17 5.4 3.91 4.25 3.91" fill="#008bc6"/><polygon points="68.38 3.91 67.23 3.91 67.23 32.17 68.38 32.17 69.53 32.17 69.53 3.91 68.38 3.91" fill="#cf7e99"/><polygon points="10.63 2.93 9.48 2.93 8.33 2.93 8.33 33.14 9.48 33.14 10.63 33.14 11.78 33.14 11.78 2.93 10.63 2.93" fill="#5f8fc0"/><polygon points="65.11 2.93 63.96 2.93 62.81 2.93 62.81 33.14 63.96 33.14 65.11 33.14 66.25 33.14 66.25 2.93 65.11 2.93" fill="#ca4c80"/><polygon points="19.13 1.95 17.98 1.95 16.83 1.95 15.68 1.95 15.68 34.12 16.83 34.12 17.98 34.12 19.13 34.12 20.28 34.12 20.28 1.95 19.13 1.95" fill="#8a91b9"/><polygon points="59.7 1.95 58.56 1.95 57.41 1.95 56.26 1.95 56.26 34.12 57.41 34.12 58.56 34.12 59.7 34.12 60.85 34.12 60.85 1.95 59.7 1.95" fill="#c60078"/></g></g></svg>