<svg xmlns="http://www.w3.org/2000/svg" viewBox="0 0 30.46 25.15"><g id="レイヤー_2" data-name="レイヤー 2"><g id="_1" data-name="1"><path d="M15.23,24.15a10.42,10.42,0,0,0-6-2.88A20.37,20.37,0,0,0,1,22.2V2.43A13.58,13.58,0,0,1,8.88,1.11a9.56,9.56,0,0,1,6.35,3.28Z" fill="#fff" stroke="#595757" stroke-linecap="round" stroke-linejoin="round" stroke-width="2"/><path d="M15.23,24.15a10.42,10.42,0,0,1,6-2.88,20.34,20.34,0,0,1,8.27.93V2.43a13.58,13.58,0,0,0-7.88-1.32,9.56,9.56,0,0,0-6.35,3.28Z" fill="#fff" stroke="#595757" stroke-linecap="round" stroke-linejoin="round" stroke-width="2"/></g></g></svg>