<svg xmlns="http://www.w3.org/2000/svg" viewBox="0 0 65.39 32.25"><g id="レイヤー_2" data-name="レイヤー 2"><g id="_1" data-name="1"><path d="M29.94,15.52c-1.3,9-5.93,10.34-14.47,10.34S0,22.4,0,14.4,6.2.24,14.74.24c3.69,0,9.67,2.38,9.74,6.09A7.92,7.92,0,0,1,29.94,15.52Z" fill="#595757"/><path d="M23.31,22.92C20.14,34.11.47,35.32.93,21.06c.25-7.53,4.46-9.2,7.18-11.39,0,0,1,3.45,5.69,4a4.8,4.8,0,0,1-1.31-3.17L18,12.8a17,17,0,0,1,4.76,4.71c2.61,0,3.73.83,3.73,2.66s-2,4.34-4.1,1.82" fill="#fff"/><path d="M11,32a13.13,13.13,0,0,1-2-.15,10,10,0,0,1-6.13-3.22A10.63,10.63,0,0,1,.44,21c.21-6.61,3.44-8.92,6-10.77.47-.34.92-.66,1.33-1a.48.48,0,0,1,.46-.09.52.52,0,0,1,.33.33A5.58,5.58,0,0,0,12.66,13a4.07,4.07,0,0,1-.66-2.5.49.49,0,0,1,.24-.37.51.51,0,0,1,.45,0l5.49,2.29.06,0A16.94,16.94,0,0,1,23,17c1.77,0,4,.46,4,3.15a3.58,3.58,0,0,1-2,3.25,2.08,2.08,0,0,1-1.29,0,12,12,0,0,1-5.78,6.78A14.61,14.61,0,0,1,11,32Zm-3-21.58-.86.63C4.51,12.9,1.63,15,1.43,21.07c-.18,5.38,2.7,9.05,7.68,9.83,5.19.8,11.82-2,13.65-7.87a4.55,4.55,0,0,1-.76-.72.49.49,0,1,1,.75-.64c.45.52,1.13,1.08,1.86.81A2.64,2.64,0,0,0,26,20.17C26,18.38,24.69,18,22.75,18a.5.5,0,0,1-.42-.23,16.5,16.5,0,0,0-4.57-4.53l-4.73-2a5,5,0,0,0,1.13,2.06.5.5,0,0,1,.08.57.48.48,0,0,1-.5.27A7.1,7.1,0,0,1,7.91,10.45Z" fill="#595757"/><path d="M7.73,18.92a1.54,1.54,0,0,1-1.44,1.19.94.94,0,0,1-1-1.19c.14-.66.71-.82,1.37-.82S7.87,18.26,7.73,18.92Z" fill="#595757"/><path d="M11.1,25.2a1.45,1.45,0,0,1-1.41,1.05.89.89,0,0,1-1-1.05,1.23,1.23,0,0,1,1.24-1C10.61,24.19,11.22,24.62,11.1,25.2Z" fill="#595757"/><path d="M16.09,18.58a1.56,1.56,0,0,1-1.45,1.2.94.94,0,0,1-.94-1.2c.13-.66.7-.82,1.36-.82S16.23,17.92,16.09,18.58Z" fill="#595757"/><path d="M7.7,16.63c0,.21-.25.38-1.07.38s-1-.17-.91-.38.25-.39,1.07-.39S7.75,16.41,7.7,16.63Z" fill="#595757"/><path d="M14.48,16.29c-.05.21.09.38.91.38s1-.17,1.07-.38-.1-.38-.91-.38S14.52,16.08,14.48,16.29Z" fill="#595757"/><path d="M10.61,20.42c-.21,0-.42.17-.59,1s0,1,.18,1,.28-.19.45-1S10.82,20.42,10.61,20.42Z" fill="#595757"/><path d="M61.08,23.33c-1.25,2.69-2.72,5.6-3.8,8-.21.45-1.51-1.21-.94-3.29" fill="#595757"/><path d="M59.46,22.58c-1.25,2.7-2.72,5.6-3.8,8-.21.45-1.65-1.39-1.08-3.48" fill="#595757"/><path d="M51,28.65c-8.54,0-15.46-6.49-15.46-14.49S41.47,0,50,0A15.06,15.06,0,0,1,61.34,5.93a13.21,13.21,0,0,1,3.89,11.66c-.48,3.13-4.11,9.86-6.26,14.59-.2.45-1.67-1.49-1.1-3.57" fill="#595757"/><path d="M58.82,22.68c-3.17,11.19-22.37,12.41-22.37-1.86,0-7.64,6.92-11.7,9.65-13.89,0,0,4.81,8.28,12.16,10.34C60.78,18,62,18.1,62,19.93s-2,4.33-4.1,1.82" fill="#fff"/><path d="M46.63,31.79a12.65,12.65,0,0,1-1.75-.12,10.18,10.18,0,0,1-6.27-3.16A11.17,11.17,0,0,1,36,20.82c0-6.92,5.4-11,8.63-13.36l1.2-.92a.5.5,0,0,1,.41-.1.49.49,0,0,1,.34.24c0,.08,4.8,8.13,11.87,10.11l.72.2c2,.55,3.37.92,3.37,2.94a3.59,3.59,0,0,1-2,3.25,2.08,2.08,0,0,1-1.29.05A12,12,0,0,1,53.57,30,14.18,14.18,0,0,1,46.63,31.79ZM46,7.66l-.79.6C42.09,10.56,37,14.4,37,20.82,37,26.3,40,30,45,30.69a12.12,12.12,0,0,0,13.25-7.9,5,5,0,0,1-.76-.72.49.49,0,0,1,.06-.7.5.5,0,0,1,.7.05c.44.53,1.12,1.09,1.85.82a2.65,2.65,0,0,0,1.38-2.31c0-1.21-.55-1.41-2.64-2l-.73-.2C51.62,15.92,47.14,9.5,46,7.66Z" fill="#595757"/><path d="M47,24.33a1.69,1.69,0,0,1-1.54,1.36,1.05,1.05,0,0,1-1.21-1.18c.1-.7.65-.29,1.41-.34S47.11,23.64,47,24.33Z" fill="#595757"/><path d="M51.8,18.37a1.56,1.56,0,0,1-1.38,1.3,1,1,0,0,1-1-1.14c.1-.68.66-.88,1.33-.92S51.9,17.69,51.8,18.37Z" fill="#595757"/><path d="M42.79,16.29c0,.22-.26,0-1.07.17s-.93.36-.92.14.2-.42,1-.55S42.8,16.07,42.79,16.29Z" fill="#595757"/><path d="M50.05,16.07c0,.21.26,0,1.08,0s1,.24.93,0-.25-.4-1.08-.42S50,15.85,50.05,16.07Z" fill="#595757"/><path d="M46,20.08c-.21,0-.41.2-.53,1s0,1,.24,1,.28-.21.39-1.05S46.25,20.06,46,20.08Z" fill="#595757"/><path d="M50.52,17.68a5.06,5.06,0,0,1-1-.09c-.22-.06-.07.34.11.56" fill="#595757"/><path d="M43.2,18.68A1.56,1.56,0,0,1,41.82,20a1,1,0,0,1-1-1.14c.1-.68.66-.88,1.33-.92S43.3,18,43.2,18.68Z" fill="#595757"/><path d="M41.92,18a5.06,5.06,0,0,1-1-.09c-.22-.06-.07.34.11.56" fill="#595757"/></g></g></svg>