<svg xmlns="http://www.w3.org/2000/svg" viewBox="0 0 20.28 28.61"><g id="レイヤー_2" data-name="レイヤー 2"><g id="_1" data-name="1"><path d="M3.28,16.81A90.24,90.24,0,0,0,9,26.06l1.11,1.55,1.11-1.55s2-2.75,3.95-6A52.25,52.25,0,0,0,18,14.88a21.14,21.14,0,0,0,.94-2.46,7.8,7.8,0,0,0,.39-2.28A9.14,9.14,0,0,0,1,10.14a8.14,8.14,0,0,0,.39,2.28A27.14,27.14,0,0,0,3.28,16.81Z" fill="#fff"/><path d="M3.28,16.81A90.24,90.24,0,0,0,9,26.06l1.11,1.55,1.11-1.55s2-2.75,3.95-6A52.25,52.25,0,0,0,18,14.88a21.14,21.14,0,0,0,.94-2.46,7.8,7.8,0,0,0,.39-2.28A9.14,9.14,0,0,0,1,10.14a8.14,8.14,0,0,0,.39,2.28A27.14,27.14,0,0,0,3.28,16.81Z" fill="none" stroke="#595757" stroke-linecap="round" stroke-linejoin="round" stroke-width="2"/><path d="M10.14,13.74a3.47,3.47,0,1,0-3.47-3.47A3.47,3.47,0,0,0,10.14,13.74Z" fill="#595757"/></g></g></svg>