<svg id="レイヤー_1" data-name="レイヤー 1" xmlns="http://www.w3.org/2000/svg" viewBox="0 0 216.63 18.46"><defs><style>.cls-1{fill:#646464;}</style></defs><path class="cls-1" d="M47.63,200.84V204H42.25v14.81H38.47V204H33.06v-3.18Z" transform="translate(-33.06 -200.84)"/><path class="cls-1" d="M63.14,204H53.62v3.82h8.74V211H53.62v4.63h10v3.23H49.94v-18h13.2Z" transform="translate(-33.06 -200.84)"/><path class="cls-1" d="M66.51,200.84h3.76V215.6h9v3.23H66.51Z" transform="translate(-33.06 -200.84)"/><path class="cls-1" d="M82.71,204H86.4v3.65H82.71Zm0,9.14H86.4v3.65H82.71Z" transform="translate(-33.06 -200.84)"/><path class="cls-1" d="M102.33,203.39a17.46,17.46,0,0,1,0,13.51q-1.36,2.37-4.75,2.37t-4.74-2.37a17.46,17.46,0,0,1,0-13.51Q94.21,201,97.58,201T102.33,203.39Zm-6.8,11.43a2,2,0,0,0,2,1.62,2,2,0,0,0,2-1.62,23.3,23.3,0,0,0,0-9.41,2,2,0,0,0-2-1.53,2,2,0,0,0-2,1.53,22.39,22.39,0,0,0,0,9.41Z" transform="translate(-33.06 -200.84)"/><path class="cls-1" d="M117.68,215h-2v3.81h-3.4V215h-7v-3l6.51-10.74h3.9V212.3h2Zm-5.41-2.72v-7.62l-4.42,7.62Z" transform="translate(-33.06 -200.84)"/><path class="cls-1" d="M120.11,215.35a9.75,9.75,0,0,1,3.51-3.75,25.82,25.82,0,0,0,3.11-2.46,3.64,3.64,0,0,0,1.09-2.54,2.85,2.85,0,0,0-.62-1.87,2.55,2.55,0,0,0-4,.44,6.08,6.08,0,0,0-.39,2.17h-3.38a8.6,8.6,0,0,1,.82-3.65q1.4-2.64,5-2.64a6.27,6.27,0,0,1,4.47,1.55,5.37,5.37,0,0,1,1.66,4.12,5.59,5.59,0,0,1-1.17,3.49,11.57,11.57,0,0,1-2.53,2.26l-1.4,1c-.87.62-1.47,1.07-1.79,1.34a4,4,0,0,0-.81,1h7.73v3.06H119.29A8.17,8.17,0,0,1,120.11,215.35Z" transform="translate(-33.06 -200.84)"/><path class="cls-1" d="M133.61,212.29v-3.93h9.8v3.93Z" transform="translate(-33.06 -200.84)"/><path class="cls-1" d="M148.69,213.4a4,4,0,0,0,.34,1.76,2.34,2.34,0,0,0,2.3,1.28,2.56,2.56,0,0,0,1.78-.7,2.62,2.62,0,0,0,.77-2,2.29,2.29,0,0,0-1.42-2.34,7.16,7.16,0,0,0-2.53-.32v-2.5a6.23,6.23,0,0,0,2.36-.33,2,2,0,0,0,1.16-2.07,2.33,2.33,0,0,0-.59-1.65,2.18,2.18,0,0,0-1.66-.63,2.1,2.1,0,0,0-1.81.78,3.32,3.32,0,0,0-.56,2.09h-3.24a8.64,8.64,0,0,1,.45-2.51,5.5,5.5,0,0,1,1.34-1.91,4.53,4.53,0,0,1,1.62-1,7,7,0,0,1,2.3-.32,6.12,6.12,0,0,1,4.1,1.31,4.38,4.38,0,0,1,1.55,3.52,3.91,3.91,0,0,1-.93,2.64,3.22,3.22,0,0,1-1.22.91,2.47,2.47,0,0,1,1.37.82,4.35,4.35,0,0,1,1.33,3.37,5.71,5.71,0,0,1-1.55,3.95,6,6,0,0,1-4.61,1.7q-3.75,0-5.22-2.45a7.35,7.35,0,0,1-.85-3.42Z" transform="translate(-33.06 -200.84)"/><path class="cls-1" d="M159.85,211.22a4.23,4.23,0,0,1,2-1.81,4.18,4.18,0,0,1-1.68-1.85,5.37,5.37,0,0,1-.38-1.86,4.32,4.32,0,0,1,1.45-3.29,6.91,6.91,0,0,1,8.23,0,4.32,4.32,0,0,1,1.45,3.29,5.37,5.37,0,0,1-.38,1.86,3.52,3.52,0,0,1-1.67,1.72,5,5,0,0,1,2,1.94,5.46,5.46,0,0,1,.67,2.7,5,5,0,0,1-1.66,3.81,6.46,6.46,0,0,1-4.62,1.56,6,6,0,0,1-4.5-1.56,5.27,5.27,0,0,1-1.53-3.81A5.47,5.47,0,0,1,159.85,211.22Zm3.61,4.5a2.8,2.8,0,0,0,3.75,0,3.4,3.4,0,0,0,0-4.09,2.52,2.52,0,0,0-1.86-.7,2.56,2.56,0,0,0-1.87.7,3.44,3.44,0,0,0,0,4.09Zm.22-8.06a2.2,2.2,0,0,0,1.65.61,2.05,2.05,0,0,0,2.23-2.18,2.26,2.26,0,0,0-.58-1.65,2.23,2.23,0,0,0-1.65-.59,2,2,0,0,0-2.24,2.24A2.18,2.18,0,0,0,163.68,207.66Z" transform="translate(-33.06 -200.84)"/><path class="cls-1" d="M185.6,204.08a23.09,23.09,0,0,0-2.18,2.74,23,23,0,0,0-3.68,8.1,16.71,16.71,0,0,0-.6,3.91h-3.61a21.33,21.33,0,0,1,3.13-9.9,23.76,23.76,0,0,1,3.21-4.44h-8.82l0-3.13h12.5Z" transform="translate(-33.06 -200.84)"/><path class="cls-1" d="M187.52,212.29v-3.93h9.8v3.93Z" transform="translate(-33.06 -200.84)"/><path class="cls-1" d="M211.59,215h-2v3.81h-3.4V215h-7v-3l6.51-10.74h3.9V212.3h2Zm-5.4-2.72v-7.62l-4.42,7.62Z" transform="translate(-33.06 -200.84)"/><path class="cls-1" d="M213.76,211.22a4.23,4.23,0,0,1,2-1.81,4.18,4.18,0,0,1-1.68-1.85,5.37,5.37,0,0,1-.38-1.86,4.29,4.29,0,0,1,1.46-3.29,6.89,6.89,0,0,1,8.22,0,4.32,4.32,0,0,1,1.45,3.29,5.37,5.37,0,0,1-.38,1.86,3.52,3.52,0,0,1-1.67,1.72,5,5,0,0,1,2,1.94,5.56,5.56,0,0,1,.66,2.7,5,5,0,0,1-1.66,3.81,6.46,6.46,0,0,1-4.62,1.56,6,6,0,0,1-4.5-1.56,5.27,5.27,0,0,1-1.53-3.81A5.47,5.47,0,0,1,213.76,211.22Zm3.62,4.5a2.79,2.79,0,0,0,3.74,0,3.4,3.4,0,0,0,0-4.09,2.82,2.82,0,0,0-3.72,0,3.4,3.4,0,0,0,0,4.09Zm.22-8.06a2.23,2.23,0,0,0,3.87-1.57,2.26,2.26,0,0,0-.58-1.65,2.25,2.25,0,0,0-3.89,1.65A2.15,2.15,0,0,0,217.6,207.66Z" transform="translate(-33.06 -200.84)"/><path class="cls-1" d="M239.4,215h-2v3.81H234V215h-7v-3l6.5-10.74h3.91V212.3h2ZM234,212.3v-7.62l-4.41,7.62Z" transform="translate(-33.06 -200.84)"/><path class="cls-1" d="M242,206.62v-2.36a16.77,16.77,0,0,0,2.31-.22,3.34,3.34,0,0,0,1.7-.93,3.66,3.66,0,0,0,.82-2h2.9v17.7h-3.56V206.62Z" transform="translate(-33.06 -200.84)"/></svg>