<svg xmlns="http://www.w3.org/2000/svg" width="499.943" height="65.412" viewBox="0 0 499.943 65.412">
  <g id="グループ_2188" data-name="グループ 2188" transform="translate(-187.867 -1956.297)">
    <g id="グループ_1842" data-name="グループ 1842">
      <path id="パス_2384" data-name="パス 2384" d="M193.307,2011.111c-3.56,0-4.759.08-5,.08-.4,0-.441-.04-.441-.44v-3.079c0-.4.04-.441.441-.441.24,0,1.439.081,5,.081h10.518a28.92,28.92,0,0,0-.24-3.4l2.319.24a24.915,24.915,0,0,0,3.64-2.88H200.9c-3.679,0-4.959.081-5.159.081-.4,0-.439-.04-.439-.4v-2.8c0-.4.04-.44.439-.44.2,0,1.48.08,5.159.08h10.838a2.5,2.5,0,0,0,.96-.08,1.317,1.317,0,0,1,.521-.159c.319,0,.719.319,1.719,1.279.8.84,1.12,1.36,1.12,1.72a.636.636,0,0,1-.48.639,9.637,9.637,0,0,0-1.92,1.321,47.362,47.362,0,0,1-5.6,4.159v.64h10c3.559,0,4.758-.081,5-.081.4,0,.44.04.44.441v3.079c0,.4-.04.44-.44.44-.241,0-1.44-.08-5-.08h-10v2.6c0,.96.081,2.439.081,3.479,0,1.72-.321,2.6-1.281,3.28-1.04.639-2.279.88-6.119.88-1.239,0-1.239.04-1.559-1.161a12.1,12.1,0,0,0-1.2-2.919,38.893,38.893,0,0,0,4.28.24c1.119,0,1.559-.28,1.559-1.4v-5Zm2.479-25.595c.521-.2.64-.12.88.2a30.071,30.071,0,0,1,2.68,4.16c.2.4.2.439-.361.64l-2.639.96h8.319a30.97,30.97,0,0,0-2.28-5c-.239-.4-.119-.441.36-.6l2.64-.8c.479-.16.6-.08.8.24a31.382,31.382,0,0,1,2.2,4.64c.12.359.12.4-.44.6l-2.6.92H211.5a31.68,31.68,0,0,0,1.959-4.04,13.247,13.247,0,0,0,.6-2.12,20.086,20.086,0,0,1,3.959,1.2c.361.159.56.359.56.6a.752.752,0,0,1-.4.6,2.986,2.986,0,0,0-.76.92c-.561,1.04-1.04,1.88-1.64,2.84h1.039c3.72,0,5.04-.08,5.28-.08.44,0,.48.04.48.439,0,.24-.08,1-.08,2.16v1.84c0,3.6.08,4.239.08,4.479,0,.44-.04.48-.48.48h-3.16c-.4,0-.439-.04-.439-.48v-5.279h-25.6v5.279c0,.4-.04.44-.44.44h-3.159c-.441,0-.481-.04-.481-.44,0-.28.08-.92.08-4.519v-1.481c0-1.479-.08-2.2-.08-2.479,0-.4.04-.439.481-.439.239,0,1.559.08,5.279.08h1.079a23.212,23.212,0,0,0-2.56-4.48c-.239-.36-.2-.44.281-.6Z" fill="#d40e64"/>
      <path id="パス_2385" data-name="パス 2385" d="M237.507,2021.709c-.4,0-.441-.04-.441-.48,0-.679.241-8.159.281-17.357a33.516,33.516,0,0,1-3.919,8.639c-.24.4-.441.6-.641.6-.159,0-.279-.2-.439-.679a13.132,13.132,0,0,0-1.361-3,36.075,36.075,0,0,0,6-12.639h-.679c-2.76,0-3.64.08-3.879.08-.4,0-.441-.04-.441-.479v-2.84c0-.36.04-.4.441-.4.239,0,1.119.08,3.879.08h.92v-2.679a30.507,30.507,0,0,0-.32-5.48,38.394,38.394,0,0,1,4,.28c.4.041.68.2.68.4a2.05,2.05,0,0,1-.24.88c-.24.48-.28,1.12-.28,3.84v2.759c2.48,0,3.28-.08,3.52-.08.4,0,.439.04.439.4v2.84c0,.439-.04.479-.439.479-.24,0-1.04-.08-3.4-.08a25.547,25.547,0,0,0,4.4,7.56,10.688,10.688,0,0,0-1.439,2.6c-.2.48-.321.72-.48.72s-.32-.2-.561-.641a26.155,26.155,0,0,1-2.159-5c.04,10.4.28,18.518.28,19.2,0,.44-.039.48-.48.48Zm14.638-18.956c.479-.24.559-.16.719.279a24.923,24.923,0,0,0,2.919,5.839,19.114,19.114,0,0,0,1.64-3.119,13.484,13.484,0,0,0,1-3.439,22.4,22.4,0,0,1,3.519,1.679c.4.24.561.4.561.6a1.093,1.093,0,0,1-.44.8,5.043,5.043,0,0,0-.92,1.679,27.991,27.991,0,0,1-2.68,4.96,26.1,26.1,0,0,0,9.879,5.439,12.732,12.732,0,0,0-1.84,2.84c-.32.679-.481.96-.8.96a2.758,2.758,0,0,1-.92-.321,29.994,29.994,0,0,1-8.919-5.839,29.52,29.52,0,0,1-9.637,6.119,2.62,2.62,0,0,1-.96.32c-.281,0-.441-.279-.8-.959a8.107,8.107,0,0,0-1.92-2.4,26,26,0,0,0,10.678-6.118,30.742,30.742,0,0,1-3.839-7.319c-.16-.4-.08-.439.439-.72Zm1.159-6.319c.4.24.6.4.6.639a.889.889,0,0,1-.4.68,5.832,5.832,0,0,0-.96,1.24,25.721,25.721,0,0,1-4.48,5.48c-.439.4-.679.639-.879.639s-.4-.28-.76-.84a8.946,8.946,0,0,0-1.919-1.959,21.025,21.025,0,0,0,4.8-5.32,9.394,9.394,0,0,0,.88-1.919A25.788,25.788,0,0,1,253.3,1996.434Zm-2.2-2.24c-3.759,0-5.079.079-5.319.079-.4,0-.439-.039-.439-.439V1990.8c0-.4.04-.441.439-.441.24,0,1.56.081,5.319.081h2.56v-1.161a23.083,23.083,0,0,0-.28-4.239c1.479.04,3.04.12,4.359.28.4.04.68.241.68.4a1.888,1.888,0,0,1-.239.84,6.233,6.233,0,0,0-.321,2.719v1.161h3.68c3.759,0,5.039-.081,5.278-.081.441,0,.481.041.481.441v3.039c0,.4-.04.439-.481.439-.239,0-1.519-.079-5.278-.079Zm9.359,1.079c.479-.279.559-.279.84.121a21.335,21.335,0,0,0,6.558,6.239,12.067,12.067,0,0,0-1.8,2.479c-.32.64-.48.88-.72.88-.2,0-.44-.16-.84-.48a25.323,25.323,0,0,1-6.439-7.239c-.24-.36-.16-.44.32-.719Z" fill="#d40e64"/>
      <path id="パス_2386" data-name="パス 2386" d="M296.1,2012.791c0,.439-.24.64-.76.72a21.64,21.64,0,0,1-2.839.2c-.36,0-.521-.24-.521-.641,0-1.439,0-3.439.04-4.879-3.559,1.84-4.838,3.4-4.838,5.32,0,1.679,1.359,2.76,5.558,2.76a68.473,68.473,0,0,0,9.959-.8c.36-.04.52.08.56.439a17.888,17.888,0,0,1,.36,3.279c.04.481-.12.76-.44.76a70.96,70.96,0,0,1-9.918.521c-6.559,0-10.038-1.96-10.038-6.6,0-3.839,2.4-6.639,8.438-9.758-.12-2.04-.6-2.84-2.4-2.759-1.88.08-3.68,1.28-5.52,2.879a53.516,53.516,0,0,0-4,4.36c-.2.239-.32.359-.48.359a.8.8,0,0,1-.44-.279,19.089,19.089,0,0,1-2.28-2.64.655.655,0,0,1-.159-.36c0-.16.08-.28.279-.44a40.822,40.822,0,0,0,8.358-9.919c-1.879.081-4.039.121-6.4.121-.36,0-.48-.2-.56-.64-.12-.64-.28-2.12-.4-3.319a88.2,88.2,0,0,0,9.2-.04,30.692,30.692,0,0,0,1.2-3.44,9.681,9.681,0,0,0,.281-2.439,25.168,25.168,0,0,1,4.558,1.119.717.717,0,0,1,.481.68.77.77,0,0,1-.281.6,3.116,3.116,0,0,0-.679.96c-.24.56-.441,1.079-.92,2.159a64.058,64.058,0,0,0,7.278-1.239c.441-.08.561.04.641.4a13.56,13.56,0,0,1,.4,2.88c.04.4-.12.56-.679.64-3,.44-6.44.88-9.359,1.2a41.272,41.272,0,0,1-3,4.439l.04.08a7.959,7.959,0,0,1,4-1.24c2.64,0,4.479,1.2,4.879,4.32,1.56-.72,3.839-1.76,5.879-2.8a12.022,12.022,0,0,0,3.04-2.159,24.7,24.7,0,0,1,2.8,3.518,1.586,1.586,0,0,1,.32.88c0,.321-.2.481-.6.561a12.8,12.8,0,0,0-2.441.6c-2.6.92-5.2,1.8-8.6,3.2Z" fill="#d40e64"/>
      <path id="パス_2387" data-name="パス 2387" d="M327.626,2004.512a2.026,2.026,0,0,1-.08.52,22.005,22.005,0,0,0,7.4,8.679,10.848,10.848,0,0,0-1.88,2.919c-.24.56-.4.8-.6.8s-.441-.2-.84-.6a26.438,26.438,0,0,1-5.239-7.039,24.819,24.819,0,0,1-6.919,10.2c-.361.321-.6.481-.8.481-.28,0-.521-.281-.84-.76a7.383,7.383,0,0,0-2.16-2.28,18.635,18.635,0,0,0,7.639-11.4c.12-.48.2-1,.28-1.52h-2.119c-3.4,0-4.56.08-4.8.08-.439,0-.48-.04-.48-.48v-2.92c0-.359.041-.4.48-.4.24,0,1.4.08,4.8.08h2.559c.16-1.88.2-3.96.24-6.119h-2.36c-.6,1.08-1.24,2.159-1.92,3.159-.319.521-.519.76-.759.76s-.48-.2-.92-.6a7.834,7.834,0,0,0-2.28-1.439,23.745,23.745,0,0,0,4.719-8.879,10.764,10.764,0,0,0,.441-2.56,26.9,26.9,0,0,1,3.719.84c.44.12.68.28.68.56,0,.24-.12.4-.36.68a3.263,3.263,0,0,0-.84,1.48c-.241.76-.52,1.559-.84,2.359h4.72c3.479,0,4.638-.08,4.879-.08.439,0,.479.04.479.441v2.919c0,.4-.04.44-.479.44-.241,0-1.4-.08-4.879-.08-.04,2.079-.08,4.119-.241,6.119h.96c3.44,0,4.6-.08,4.839-.08.4,0,.441.04.441.4v2.92c0,.44-.04.48-.441.48-.24,0-1.4-.08-4.839-.08Zm8.359,15.758c-.4,0-.44-.041-.44-.44,0-.28.08-2.44.08-12.038v-9.318c0-6.68-.08-8.919-.08-9.2,0-.359.04-.4.44-.4.28,0,1.32.08,4.359.08h5.6c3.079,0,4.12-.08,4.36-.08.439,0,.479.04.479.4,0,.241-.08,2.48-.08,8v10.319c0,9.4.08,11.557.08,11.8,0,.4-.04.44-.479.44h-3.28c-.4,0-.44-.04-.44-.44v-2.4H339.7v2.84c0,.4-.04.44-.439.44Zm3.719-7.16h6.879v-20.316H339.7Z" fill="#d40e64"/>
      <path id="パス_2388" data-name="パス 2388" d="M372.985,2001.793a12.04,12.04,0,0,1,6.36-1.8c5.839,0,9.918,3.839,9.918,9.6,0,6.679-5.4,10.958-13.957,10.958-5.039,0-8.079-2.16-8.079-5.879,0-2.68,2.519-4.88,5.639-4.88a7.279,7.279,0,0,1,7.519,5.839c2.8-1.279,4.079-3.039,4.079-6.078,0-3.64-2.56-6.039-6.279-6.039a16.282,16.282,0,0,0-10.239,4.239c-1.159,1.039-2.279,2.2-3.479,3.4-.279.28-.48.44-.68.44a.981.981,0,0,1-.6-.36,17.994,17.994,0,0,1-2.36-2.6c-.24-.32-.12-.6.2-.92a96.152,96.152,0,0,0,9.479-8.839c2.479-2.56,4.359-4.56,6.2-6.839-2.4.441-5.239,1-7.719,1.52a12.288,12.288,0,0,0-1.679.48,2.945,2.945,0,0,1-.8.2.91.91,0,0,1-.88-.68,19.091,19.091,0,0,1-1.4-4.32,19.094,19.094,0,0,0,3.718.08c2.441-.239,5.959-.759,9.079-1.359a10.606,10.606,0,0,0,2.2-.6,2.062,2.062,0,0,1,.759-.32,1.422,1.422,0,0,1,.92.32,15.1,15.1,0,0,1,2.68,2.56,1.387,1.387,0,0,1,.44.959,1.057,1.057,0,0,1-.68.96,6.494,6.494,0,0,0-1.76,1.28c-2.919,2.839-5.6,5.639-8.638,8.559Zm.04,11.4c-1.159,0-1.919.68-1.919,1.521,0,1.239,1.08,2.079,3.48,2.079a8.748,8.748,0,0,0,1.839-.16C375.9,2014.431,374.7,2013.19,373.025,2013.19Z" fill="#d40e64"/>
      <path id="パス_2389" data-name="パス 2389" d="M424.3,1997.921a3.275,3.275,0,0,0,1.736-.252.575.575,0,0,1,.644.112,8.111,8.111,0,0,1,1.456,1.485c.2.279.14.475-.168.755a4.93,4.93,0,0,0-.924,1.121,45.2,45.2,0,0,1-3.892,5.683,60.48,60.48,0,0,1,7.9,6.916c.252.252.28.364.028.7a15.719,15.719,0,0,1-1.372,1.372c-.224.224-.391.2-.616-.056a48.959,48.959,0,0,0-7.5-7.028,42.126,42.126,0,0,1-9.771,7.644c-.365.2-.617.28-.869-.027a5.89,5.89,0,0,0-1.876-1.372,34.943,34.943,0,0,0,10.108-7.42,33.95,33.95,0,0,0,5.292-7.281H416.6c-1.54,0-2.857.084-4.2.168-.252,0-.308-.112-.364-.391a12.329,12.329,0,0,1-.2-2.24c1.429.111,2.744.111,4.508.111Z" fill="#d40e64"/>
      <path id="パス_2390" data-name="パス 2390" d="M440.959,2005.817c1.148-1.175,2.6-2.631,4.032-4.116.84-.9,1.288-1.147,2.016-1.147a2.813,2.813,0,0,1,2.016.924,97.04,97.04,0,0,0,12.712,9.127.418.418,0,0,1,.2.644,10.354,10.354,0,0,1-1.119,1.82c-.168.252-.336.336-.588.14a148.88,148.88,0,0,1-12.573-9.632.8.8,0,0,0-.5-.252.68.68,0,0,0-.5.252c-1.289,1.317-2.717,2.884-4.649,4.985a10.837,10.837,0,0,0-1.147,1.456.444.444,0,0,1-.757.139,19.288,19.288,0,0,1-2.044-1.876A16.925,16.925,0,0,0,440.959,2005.817Zm19.124-6.076a3.038,3.038,0,1,1-3.023-3.023A3,3,0,0,1,460.083,1999.741Zm-4.731,0a1.662,1.662,0,0,0,1.708,1.708,1.64,1.64,0,0,0,1.679-1.708,1.617,1.617,0,0,0-1.679-1.679A1.64,1.64,0,0,0,455.352,1999.741Z" fill="#d40e64"/>
      <path id="パス_2391" data-name="パス 2391" d="M469.66,2002.682a.432.432,0,0,1,.5-.225,20.09,20.09,0,0,1,5.124,2.632c.309.2.309.364.168.644a11.849,11.849,0,0,1-.979,1.624c-.2.252-.336.281-.588.084a21.883,21.883,0,0,0-5.376-2.94C469.017,2003.718,469.408,2003.045,469.66,2002.682Zm4.4,10.611a47.805,47.805,0,0,0,7.7-4.844,50.847,50.847,0,0,0,8.009-7.756,7.512,7.512,0,0,0,.672,2.352.77.77,0,0,1-.141.952,49.181,49.181,0,0,1-7.308,6.72,62.558,62.558,0,0,1-8.259,5.236,7.686,7.686,0,0,0-1.457.952.513.513,0,0,1-.868-.084,13.161,13.161,0,0,1-1.652-2.324A12.313,12.313,0,0,0,474.057,2013.293Zm-1.036-17.023c.2-.252.279-.309.587-.168a20.76,20.76,0,0,1,5.04,2.939c.281.2.252.364.113.616a12.71,12.71,0,0,1-1.12,1.68c-.2.2-.365.141-.588-.056a21.552,21.552,0,0,0-5.208-3.248C472.181,1997.5,472.628,1996.8,473.021,1996.27Z" fill="#d40e64"/>
      <path id="パス_2392" data-name="パス 2392" d="M501.664,2008.226a29.852,29.852,0,0,0-3.052,1.007c-.42.168-.588.2-.784-.2a12.571,12.571,0,0,1-.783-2.016,30.839,30.839,0,0,0,3.976-.784l2.072-.532-.645-2.435a9.6,9.6,0,0,0-1.092-2.716c.9-.113,2.212-.2,2.8-.2.393,0,.532.2.477.5a4.289,4.289,0,0,0,.139,1.876l.588,2.38,6.328-1.679a3.262,3.262,0,0,0,1.4-.617c.224-.223.447-.139.727.056a8.67,8.67,0,0,1,1.372,1.093c.252.252.224.531-.055.811a2.069,2.069,0,0,0-.505.616,25.983,25.983,0,0,1-3.191,5.208c-.252.281-.393.336-.756.14a5.193,5.193,0,0,0-1.765-.616,17.775,17.775,0,0,0,3.305-4.76l-6.328,1.736,1.4,5.405c.421,1.651.841,3.052,1.288,4.647.084.336,0,.476-.279.588a9.123,9.123,0,0,1-1.569.42c-.307.057-.475.057-.559-.364-.364-1.6-.729-3.052-1.12-4.592l-1.4-5.516Z" fill="#d40e64"/>
      <path id="パス_2393" data-name="パス 2393" d="M530.729,1999.377c.392.141.42.42.281.784a5.021,5.021,0,0,0-.309,2.072,18.8,18.8,0,0,1-1.651,7.9,15.048,15.048,0,0,1-4,5.124c-.393.364-.673.393-.981.141a7.043,7.043,0,0,0-1.9-.924,13.578,13.578,0,0,0,4.565-5.376,16.7,16.7,0,0,0,1.372-7.532,9.694,9.694,0,0,0-.252-2.661A16.951,16.951,0,0,1,530.729,1999.377Zm5.993,12.32a30.111,30.111,0,0,0,4.4-2.771,25.578,25.578,0,0,0,4.928-4.7,6.278,6.278,0,0,0,.644,2.212c.168.336.2.5-.2.9a38.864,38.864,0,0,1-4.311,3.836,51.506,51.506,0,0,1-4.9,3.221,3.9,3.9,0,0,0-.868.615.659.659,0,0,1-.924,0,7.592,7.592,0,0,1-1.343-1.344.775.775,0,0,1-.084-.84,8.091,8.091,0,0,0,.139-2.492v-8.288a24.456,24.456,0,0,0-.279-4.9,22.315,22.315,0,0,1,2.827.447c.532.168.448.477.225.98a10.8,10.8,0,0,0-.252,3.445Z" fill="#d40e64"/>
      <path id="パス_2394" data-name="パス 2394" d="M569.845,2001.505h-10a40.726,40.726,0,0,0-4.117.168c-.28,0-.391-.111-.391-.42a20.2,20.2,0,0,1-.112-2.323,40.247,40.247,0,0,0,4.591.195h7.617c1.484,0,3.051-.056,4.563-.111.421,0,.532.111.505.447,0,1.4-.057,2.828-.057,4.257v6.355c0,1.821.084,3.865.113,4.872,0,.281-.084.336-.42.365-.561.027-1.288.027-1.821,0-.391-.029-.475-.057-.475-.42v-1.177H559.9c-1.651,0-3.107.057-4.452.112-.223,0-.307-.084-.336-.391a16.763,16.763,0,0,1-.111-2.241c1.372.113,2.968.14,4.928.14h9.912Z" fill="#d40e64"/>
      <path id="パス_2395" data-name="パス 2395" d="M583.705,1997.726a.419.419,0,0,1,.616-.057,26.83,26.83,0,0,1,5.208,3.836c.224.224.252.337.084.616a13.51,13.51,0,0,1-1.343,1.6c-.252.223-.309.279-.561.027a29.217,29.217,0,0,0-5.488-4.311C582.7,1998.817,583.285,1998.174,583.705,1997.726Zm2.464,14.784a48.929,48.929,0,0,0,8.064-5.153,41.377,41.377,0,0,0,7.616-7.56,8.6,8.6,0,0,0,.616,2.436c.2.449.168.672-.252,1.148a49.575,49.575,0,0,1-6.636,6.244,62.84,62.84,0,0,1-8.428,5.46,9.008,9.008,0,0,0-1.68,1.177.523.523,0,0,1-.867-.029,13.988,13.988,0,0,1-1.737-2.436A15.512,15.512,0,0,0,586.169,2012.51Z" fill="#d40e64"/>
      <path id="パス_2396" data-name="パス 2396" d="M622.373,2005.117a16.331,16.331,0,0,1-1.708,7.28,13.311,13.311,0,0,1-4.956,5.292c-.448.281-.784.42-1.12.084a4.7,4.7,0,0,0-1.988-1.175c2.772-1.485,4.368-2.912,5.515-5.069a13.313,13.313,0,0,0,1.429-6.412h-5.488c-1.4,0-2.828.084-4.117.168-.279.028-.336-.139-.363-.475a13.028,13.028,0,0,1-.2-2.1c1.6.112,3.08.141,4.676.141h12.292c2.044,0,3.555-.029,5.263-.141.252,0,.309.112.309.477v1.624c0,.307-.141.419-.393.419-1.567-.056-3.3-.112-5.151-.112Zm-5.013-6.328c-1.259,0-2.547.028-3.975.112-.336.029-.392-.112-.42-.42a20.318,20.318,0,0,1-.168-2.1c1.792.112,3.3.14,4.563.14h5.8c1.513,0,3.277,0,4.733-.083.252-.029.307.112.307.419a6.953,6.953,0,0,1,0,1.54c0,.365-.055.449-.336.449-1.511-.057-3.219-.057-4.7-.057Z" fill="#d40e64"/>
      <path id="パス_2397" data-name="パス 2397" d="M640.405,1997.726a.419.419,0,0,1,.616-.057,26.832,26.832,0,0,1,5.208,3.836c.224.224.252.337.084.616a13.51,13.51,0,0,1-1.343,1.6c-.252.223-.309.279-.561.027a29.217,29.217,0,0,0-5.488-4.311C639.4,1998.817,639.985,1998.174,640.405,1997.726Zm2.464,14.784a48.941,48.941,0,0,0,8.065-5.153,41.4,41.4,0,0,0,7.615-7.56,8.6,8.6,0,0,0,.616,2.436c.2.449.168.672-.252,1.148a49.509,49.509,0,0,1-6.636,6.244,62.886,62.886,0,0,1-8.427,5.46,8.992,8.992,0,0,0-1.681,1.177.523.523,0,0,1-.867-.029,14.1,14.1,0,0,1-1.737-2.436A15.514,15.514,0,0,0,642.869,2012.51Z" fill="#d40e64"/>
      <path id="パス_2398" data-name="パス 2398" d="M668.349,1998.453a.449.449,0,0,1,.616.141,21.24,21.24,0,0,1,3.024,5.124.446.446,0,0,1-.2.643,8.508,8.508,0,0,1-1.68.812c-.364.112-.5.028-.644-.336a21.308,21.308,0,0,0-3.108-5.4A13.919,13.919,0,0,1,668.349,1998.453Zm19.236.168a.523.523,0,0,1,.028.84,6.3,6.3,0,0,0-1.12,1.988,41.968,41.968,0,0,1-5.124,9.044,30.713,30.713,0,0,1-7.5,7c-.364.224-.588.308-.868.056a5.11,5.11,0,0,0-2.156-1.008,31.722,31.722,0,0,0,8.316-7.392,33.152,33.152,0,0,0,4.648-8.343,12.74,12.74,0,0,0,.84-3.529A13.907,13.907,0,0,1,687.585,1998.621Zm-12.124-1.848a.436.436,0,0,1,.588.14,21.336,21.336,0,0,1,2.688,5.068.477.477,0,0,1-.2.672,12.69,12.69,0,0,1-1.68.728c-.364.112-.505.112-.644-.252a21.369,21.369,0,0,0-2.772-5.46C674.061,1997.361,674.817,1997.025,675.461,1996.773Z" fill="#d40e64"/>
    </g>
    <g id="グループ_1845" data-name="グループ 1845">
      <path id="パス_2439" data-name="パス 2439" d="M212.8,1966.267h-4.964V1964.6H212.8Z" fill="#d40e64"/>
      <path id="パス_2440" data-name="パス 2440" d="M229.175,1963.6a9.719,9.719,0,0,1-1,4.334,8.563,8.563,0,0,1-2.992,3.213,1.035,1.035,0,0,1-.51.2.5.5,0,0,1-.357-.17,4.474,4.474,0,0,0-1.513-.9,7.543,7.543,0,0,0,3.383-3.025,7.229,7.229,0,0,0,.867-3.654h-3.23c-.85,0-1.682.05-2.549.1-.154.018-.205-.1-.221-.322a10.235,10.235,0,0,1-.137-1.632c.952.085,1.9.085,2.89.085h7.633c1.325,0,2.311-.034,3.314-.1.17,0,.187.1.187.339.017.222.017,1.088,0,1.31,0,.221-.1.288-.255.288-.884-.033-2.057-.067-3.23-.067Zm-3.366-3.944c-.782,0-1.462.034-2.413.068-.222,0-.273-.085-.29-.289-.05-.408-.068-1.02-.119-1.632,1.19.068,2.057.085,2.822.085h3.807c.952,0,2.024-.017,2.873-.068.17,0,.2.1.2.323a7.346,7.346,0,0,1,0,1.241c0,.238-.034.323-.22.323-.918-.034-1.921-.051-2.857-.051Z" fill="#d40e64"/>
      <path id="パス_2441" data-name="パス 2441" d="M247.977,1959.62a1.57,1.57,0,0,0,.849-.2.346.346,0,0,1,.222-.068.488.488,0,0,1,.271.1,7.858,7.858,0,0,1,1.157.918.553.553,0,0,1,.22.391.49.49,0,0,1-.2.357,2.045,2.045,0,0,0-.56.731,23.42,23.42,0,0,1-3.367,5.253,21.611,21.611,0,0,1-5.167,4.232.467.467,0,0,1-.272.085.6.6,0,0,1-.391-.188,4.482,4.482,0,0,0-1.615-.781,19.585,19.585,0,0,0,5.661-4.335,17.337,17.337,0,0,0,3.145-4.827l-4.113.118a23.813,23.813,0,0,1-3.213,3.486.531.531,0,0,1-.358.186.413.413,0,0,1-.255-.1,4.579,4.579,0,0,0-1.632-.732,20.179,20.179,0,0,0,4.573-5.048,7.26,7.26,0,0,0,1-2.295,8.363,8.363,0,0,1,1.989.9.355.355,0,0,1,.17.289.339.339,0,0,1-.187.289,1.824,1.824,0,0,0-.425.459c-.187.289-.357.544-.561.85Z" fill="#d40e64"/>
      <path id="パス_2442" data-name="パス 2442" d="M264.484,1958.617a.362.362,0,0,1,.2.289.52.52,0,0,1-.119.289,3.556,3.556,0,0,0-.73,1.156,27.58,27.58,0,0,1-3.146,5.388,20.682,20.682,0,0,1-5,4.777.624.624,0,0,1-.357.135.554.554,0,0,1-.357-.152,6.223,6.223,0,0,0-1.615-.867,20.059,20.059,0,0,0,5.491-4.93,21.508,21.508,0,0,0,2.8-4.9,7.561,7.561,0,0,0,.611-2.227A13.331,13.331,0,0,1,264.484,1958.617Z" fill="#d40e64"/>
      <path id="パス_2443" data-name="パス 2443" d="M278.1,1958.736a2.49,2.49,0,0,0,1.172-.153.287.287,0,0,1,.188-.068.569.569,0,0,1,.289.136,6.165,6.165,0,0,1,1.1,1.19.454.454,0,0,1,.085.221.468.468,0,0,1-.22.339,3.129,3.129,0,0,0-.629.748,26.788,26.788,0,0,1-2.176,3.179,39.881,39.881,0,0,1,4.708,4.114.389.389,0,0,1,.137.238.421.421,0,0,1-.119.255,9.173,9.173,0,0,1-1.139,1.156.294.294,0,0,1-.2.1.347.347,0,0,1-.238-.135,30.947,30.947,0,0,0-4.42-4.216,24.472,24.472,0,0,1-5.711,4.488,1.108,1.108,0,0,1-.391.136.38.38,0,0,1-.289-.153,4.649,4.649,0,0,0-1.429-1.1,21.218,21.218,0,0,0,9.18-8.6l-4.386.018c-.884,0-1.767.034-2.685.1-.136.017-.188-.1-.221-.289a9.9,9.9,0,0,1-.153-1.768c.918.068,1.767.068,2.873.068Z" fill="#d40e64"/>
      <path id="パス_2444" data-name="パス 2444" d="M291.956,1960.657c.067-.833.1-1.377.119-2.295a6.52,6.52,0,0,0-.119-1.342,13.243,13.243,0,0,1,2.21.356.35.35,0,0,1,.288.357.749.749,0,0,1-.085.323,1.6,1.6,0,0,0-.221.8c-.05.543-.067.952-.152,1.785h2.583c.782,0,1.581-.035,2.363-.035.272,0,.357.052.357.239,0,.22-.034.9-.068,1.8a29.06,29.06,0,0,1-.628,5.592,2.709,2.709,0,0,1-2.006,2.295,7.189,7.189,0,0,1-1.717.187.414.414,0,0,1-.408-.34,3.55,3.55,0,0,0-.987-1.547,6.949,6.949,0,0,0,2.313-.153c.459-.153.68-.425.884-1.19a23.821,23.821,0,0,0,.509-5.1h-3.433a12.653,12.653,0,0,1-1.513,4.709,10.981,10.981,0,0,1-3.6,3.5.777.777,0,0,1-.392.135.433.433,0,0,1-.323-.17,4.334,4.334,0,0,0-1.428-.985,9.464,9.464,0,0,0,3.995-3.468,9.9,9.9,0,0,0,1.224-3.672h-1.53c-.833,0-1.649.035-2.448.085-.17.018-.238-.085-.255-.289-.068-.407-.1-1.019-.135-1.648,1.07.068,1.836.068,2.821.068Z" fill="#d40e64"/>
      <path id="パス_2445" data-name="パス 2445" d="M307.682,1967.575a27.977,27.977,0,0,0,4.334-2.141,21.07,21.07,0,0,0,4.505-3.468,7.654,7.654,0,0,0,.271,1.972.533.533,0,0,1-.17.679,27.429,27.429,0,0,1-4.249,2.924,37.844,37.844,0,0,1-4.165,2.107,3.981,3.981,0,0,0-.951.544.5.5,0,0,1-.307.137.46.46,0,0,1-.289-.137,5.237,5.237,0,0,1-1.036-1.155.418.418,0,0,1-.1-.272.706.706,0,0,1,.085-.289,3.305,3.305,0,0,0,.069-.969l.034-6.391a16.06,16.06,0,0,0-.188-2.958,17.229,17.229,0,0,1,2.21.374.326.326,0,0,1,.272.323,1.264,1.264,0,0,1-.085.357,7.025,7.025,0,0,0-.187,2.107Z" fill="#d40e64"/>
      <path id="パス_2446" data-name="パス 2446" d="M322.046,1961.863a.305.305,0,0,1,.442.119,9.117,9.117,0,0,1,1.462,2.516,1.177,1.177,0,0,1,.069.255c0,.1-.069.153-.205.238a7.2,7.2,0,0,1-1.087.528c-.239.085-.34,0-.425-.239a10.048,10.048,0,0,0-1.6-2.736C321.281,1962.221,321.689,1962.033,322.046,1961.863Zm9.332.222c.137.1.222.186.222.289s-.051.187-.188.306a2.326,2.326,0,0,0-.51.867,20.7,20.7,0,0,1-2.566,4.521,13.632,13.632,0,0,1-3.5,3.281.735.735,0,0,1-.408.187.39.39,0,0,1-.272-.119,3.838,3.838,0,0,0-1.445-.714,14.781,14.781,0,0,0,4.08-3.536,17.582,17.582,0,0,0,2.3-4.1,6.156,6.156,0,0,0,.391-1.8A8.053,8.053,0,0,1,331.378,1962.085Zm-5.9-1.037a.3.3,0,0,1,.443.136,9.775,9.775,0,0,1,1.308,2.481c.085.256.052.341-.169.459a6.944,6.944,0,0,1-1.173.527c-.187.069-.255-.016-.34-.255a11.561,11.561,0,0,0-1.428-2.719C324.8,1961.354,325.191,1961.167,325.479,1961.048Z" fill="#d40e64"/>
      <path id="パス_2447" data-name="パス 2447" d="M336.939,1961.881c.085-.119.17-.2.323-.17a11.778,11.778,0,0,1,3.263,1.666c.12.085.188.152.188.255a.5.5,0,0,1-.068.186,6.839,6.839,0,0,1-.749,1.292c-.084.1-.152.17-.22.17a.332.332,0,0,1-.2-.1,14.913,14.913,0,0,0-3.434-1.854C336.463,1962.646,336.735,1962.152,336.939,1961.881Zm2.754,6.307a28.594,28.594,0,0,0,4.658-2.942,31.01,31.01,0,0,0,4.895-4.742,8.468,8.468,0,0,0,.493,1.9.836.836,0,0,1,.085.323.532.532,0,0,1-.187.391,31.667,31.667,0,0,1-4.318,3.927,39.371,39.371,0,0,1-5.082,3.2,5.52,5.52,0,0,0-.986.578.377.377,0,0,1-.272.136.437.437,0,0,1-.34-.2,10.783,10.783,0,0,1-1.258-1.734A7.881,7.881,0,0,0,339.693,1968.188Zm-.7-10.217c.119-.2.221-.238.425-.136a11.537,11.537,0,0,1,3.2,1.887.268.268,0,0,1,.137.221.42.42,0,0,1-.068.221,7.282,7.282,0,0,1-.868,1.274.19.19,0,0,1-.17.1.444.444,0,0,1-.254-.119,16.39,16.39,0,0,0-3.3-2.091C338.384,1958.889,338.707,1958.413,339,1957.971Zm7.785-.527c.085-.068.154-.05.255.035a7.8,7.8,0,0,1,1.615,1.818.171.171,0,0,1-.051.272l-.714.527a.178.178,0,0,1-.289-.051,8.432,8.432,0,0,0-1.717-1.972Zm1.513-1.1c.1-.068.153-.051.255.034a7.116,7.116,0,0,1,1.615,1.751.2.2,0,0,1-.051.306l-.68.527a.174.174,0,0,1-.289-.051,8.043,8.043,0,0,0-1.7-1.955Z" fill="#d40e64"/>
      <path id="パス_2448" data-name="パス 2448" d="M362.949,1966.267h-4.964V1964.6h4.964Z" fill="#d40e64"/>
    </g>
  </g>
</svg>
