<svg xmlns="http://www.w3.org/2000/svg" width="202.794" height="94.51" viewBox="0 0 202.794 94.51">
  <g id="グループ_2190" data-name="グループ 2190" transform="translate(-1684.969 -2475.297)">
    <g id="グループ_1651" data-name="グループ 1651">
      <path id="パス_2045" data-name="パス 2045" d="M1691.807,2530.111c-3.56,0-4.759.08-5,.08-.4,0-.441-.04-.441-.44v-3.079c0-.4.04-.441.441-.441.24,0,1.439.081,5,.081h10.518a28.89,28.89,0,0,0-.24-3.4l2.319.24a24.913,24.913,0,0,0,3.64-2.88h-8.639c-3.679,0-4.959.081-5.159.081-.4,0-.439-.04-.439-.4v-2.8c0-.4.04-.44.439-.44.2,0,1.48.08,5.159.08h10.838a2.5,2.5,0,0,0,.96-.08,1.319,1.319,0,0,1,.521-.159c.319,0,.719.319,1.719,1.279.8.84,1.12,1.36,1.12,1.72a.636.636,0,0,1-.48.639,9.646,9.646,0,0,0-1.92,1.321,47.361,47.361,0,0,1-5.6,4.159v.64h10c3.559,0,4.758-.081,5-.081.4,0,.44.04.44.441v3.079c0,.4-.04.44-.44.44-.241,0-1.44-.08-5-.08h-10v2.6c0,.96.081,2.439.081,3.479,0,1.72-.321,2.6-1.281,3.28-1.04.639-2.279.88-6.119.88-1.239,0-1.239.04-1.559-1.161a12.1,12.1,0,0,0-1.2-2.919,38.925,38.925,0,0,0,4.28.24c1.119,0,1.559-.28,1.559-1.4v-5Zm2.479-25.595c.521-.2.64-.12.88.2a30.075,30.075,0,0,1,2.68,4.16c.2.4.2.439-.361.64l-2.639.96h8.319a30.98,30.98,0,0,0-2.28-5c-.239-.4-.119-.441.36-.6l2.64-.8c.479-.16.6-.08.8.24a31.378,31.378,0,0,1,2.2,4.64c.12.359.12.4-.44.6l-2.6.92H1710a31.676,31.676,0,0,0,1.959-4.04,13.252,13.252,0,0,0,.6-2.12,20.067,20.067,0,0,1,3.959,1.2c.361.159.56.359.56.6a.752.752,0,0,1-.4.6,2.984,2.984,0,0,0-.76.92c-.561,1.04-1.04,1.88-1.64,2.84h1.039c3.72,0,5.04-.08,5.28-.08.44,0,.48.04.48.439,0,.24-.08,1-.08,2.16v1.84c0,3.6.08,4.239.08,4.479,0,.44-.04.48-.48.48h-3.16c-.4,0-.439-.04-.439-.48v-5.279h-25.6v5.279c0,.4-.04.44-.44.44h-3.159c-.441,0-.481-.04-.481-.44,0-.28.08-.92.08-4.519v-1.481c0-1.479-.08-2.2-.08-2.479,0-.4.04-.439.481-.439.239,0,1.559.08,5.279.08h1.079a23.2,23.2,0,0,0-2.56-4.48c-.239-.36-.2-.44.281-.6Z" fill="#d40e64"/>
      <path id="パス_2046" data-name="パス 2046" d="M1736.007,2540.709c-.4,0-.441-.04-.441-.48,0-.679.241-8.159.281-17.357a33.519,33.519,0,0,1-3.919,8.639c-.24.4-.441.6-.641.6-.159,0-.279-.2-.439-.679a13.135,13.135,0,0,0-1.361-3,36.074,36.074,0,0,0,6-12.639h-.679c-2.76,0-3.64.08-3.879.08-.4,0-.441-.04-.441-.479v-2.84c0-.36.04-.4.441-.4.239,0,1.119.08,3.879.08h.92v-2.679a30.5,30.5,0,0,0-.32-5.48,38.427,38.427,0,0,1,4,.28c.4.041.68.2.68.4a2.05,2.05,0,0,1-.24.88c-.24.48-.28,1.12-.28,3.84v2.759c2.48,0,3.28-.08,3.52-.08.4,0,.439.04.439.4v2.84c0,.439-.04.479-.439.479-.24,0-1.04-.08-3.4-.08a25.546,25.546,0,0,0,4.4,7.56,10.69,10.69,0,0,0-1.439,2.6c-.2.48-.321.72-.48.72s-.32-.2-.561-.641a26.15,26.15,0,0,1-2.159-5c.04,10.4.28,18.518.28,19.2,0,.44-.039.48-.48.48Zm14.638-18.956c.479-.24.559-.16.719.279a24.928,24.928,0,0,0,2.919,5.839,19.119,19.119,0,0,0,1.64-3.119,13.486,13.486,0,0,0,1-3.439,22.409,22.409,0,0,1,3.519,1.679c.4.24.561.4.561.6a1.093,1.093,0,0,1-.44.8,5.039,5.039,0,0,0-.92,1.679,27.975,27.975,0,0,1-2.68,4.96,26.1,26.1,0,0,0,9.879,5.439,12.736,12.736,0,0,0-1.84,2.84c-.32.679-.481.96-.8.96a2.761,2.761,0,0,1-.92-.321,30,30,0,0,1-8.919-5.839,29.517,29.517,0,0,1-9.637,6.119,2.622,2.622,0,0,1-.96.32c-.281,0-.441-.279-.8-.959a8.107,8.107,0,0,0-1.92-2.4,26,26,0,0,0,10.678-6.118,30.74,30.74,0,0,1-3.839-7.319c-.16-.4-.08-.439.439-.72Zm1.159-6.319c.4.24.6.4.6.639a.889.889,0,0,1-.4.68,5.842,5.842,0,0,0-.96,1.24,25.712,25.712,0,0,1-4.48,5.48c-.439.4-.679.639-.879.639s-.4-.28-.76-.84a8.943,8.943,0,0,0-1.919-1.959,21.024,21.024,0,0,0,4.8-5.32,9.4,9.4,0,0,0,.88-1.919A25.764,25.764,0,0,1,1751.8,2515.434Zm-2.2-2.24c-3.759,0-5.079.079-5.319.079-.4,0-.439-.039-.439-.439v-3.039c0-.4.04-.441.439-.441.24,0,1.56.081,5.319.081h2.56v-1.161a23.085,23.085,0,0,0-.28-4.239c1.479.04,3.04.12,4.359.28.4.04.68.241.68.4a1.887,1.887,0,0,1-.239.84,6.234,6.234,0,0,0-.321,2.719v1.161h3.68c3.759,0,5.039-.081,5.278-.081.441,0,.481.041.481.441v3.039c0,.4-.04.439-.481.439-.239,0-1.519-.079-5.278-.079Zm9.359,1.079c.479-.279.559-.279.84.121a21.337,21.337,0,0,0,6.558,6.239,12.063,12.063,0,0,0-1.8,2.479c-.32.64-.48.88-.72.88-.2,0-.44-.16-.84-.48a25.324,25.324,0,0,1-6.439-7.239c-.24-.36-.16-.44.32-.719Z" fill="#d40e64"/>
      <path id="パス_2047" data-name="パス 2047" d="M1794.6,2531.791c0,.439-.24.64-.76.72a21.623,21.623,0,0,1-2.839.2c-.36,0-.521-.24-.521-.641,0-1.439,0-3.439.04-4.879-3.559,1.84-4.838,3.4-4.838,5.32,0,1.679,1.359,2.76,5.558,2.76a68.49,68.49,0,0,0,9.959-.8c.36-.04.52.08.56.439a17.887,17.887,0,0,1,.36,3.279c.04.481-.12.76-.44.76a70.978,70.978,0,0,1-9.918.521c-6.559,0-10.038-1.96-10.038-6.6,0-3.839,2.4-6.639,8.438-9.758-.12-2.04-.6-2.84-2.4-2.759-1.88.08-3.68,1.28-5.52,2.879a53.574,53.574,0,0,0-4,4.36c-.2.239-.32.359-.48.359a.8.8,0,0,1-.44-.279,19.081,19.081,0,0,1-2.28-2.64.654.654,0,0,1-.159-.36c0-.16.08-.28.279-.44a40.823,40.823,0,0,0,8.358-9.919c-1.879.081-4.039.121-6.4.121-.36,0-.48-.2-.56-.64-.12-.64-.28-2.12-.4-3.319a88.238,88.238,0,0,0,9.2-.04,30.674,30.674,0,0,0,1.2-3.44,9.683,9.683,0,0,0,.281-2.439,25.169,25.169,0,0,1,4.558,1.119.717.717,0,0,1,.481.68.771.771,0,0,1-.281.6,3.111,3.111,0,0,0-.679.96c-.24.56-.441,1.079-.92,2.159a64.083,64.083,0,0,0,7.278-1.239c.441-.08.561.04.641.4a13.556,13.556,0,0,1,.4,2.88c.04.4-.12.56-.679.64-3,.44-6.44.88-9.359,1.2a41.281,41.281,0,0,1-3,4.439l.04.08a7.961,7.961,0,0,1,4-1.24c2.64,0,4.479,1.2,4.879,4.32,1.56-.72,3.839-1.76,5.879-2.8a12.018,12.018,0,0,0,3.04-2.159,24.692,24.692,0,0,1,2.8,3.518,1.586,1.586,0,0,1,.32.88c0,.321-.2.481-.6.561a12.8,12.8,0,0,0-2.441.6c-2.6.92-5.2,1.8-8.6,3.2Z" fill="#d40e64"/>
      <path id="パス_2048" data-name="パス 2048" d="M1826.126,2523.512a2.025,2.025,0,0,1-.08.52,22.005,22.005,0,0,0,7.4,8.679,10.858,10.858,0,0,0-1.88,2.919c-.24.56-.4.8-.6.8s-.441-.2-.84-.6a26.44,26.44,0,0,1-5.239-7.039,24.818,24.818,0,0,1-6.919,10.2c-.361.321-.6.481-.8.481-.28,0-.521-.281-.84-.76a7.384,7.384,0,0,0-2.16-2.28,18.634,18.634,0,0,0,7.639-11.4c.12-.48.2-1,.28-1.52h-2.119c-3.4,0-4.56.08-4.8.08-.439,0-.48-.04-.48-.48v-2.92c0-.359.041-.4.48-.4.24,0,1.4.08,4.8.08h2.559c.16-1.88.2-3.96.24-6.119h-2.36c-.6,1.08-1.24,2.159-1.92,3.159-.319.521-.519.76-.759.76s-.48-.2-.92-.6a7.829,7.829,0,0,0-2.28-1.439,23.742,23.742,0,0,0,4.719-8.879,10.757,10.757,0,0,0,.441-2.56,26.9,26.9,0,0,1,3.719.84c.44.12.68.28.68.56,0,.24-.12.4-.36.68a3.263,3.263,0,0,0-.84,1.48c-.241.76-.52,1.559-.84,2.359h4.72c3.479,0,4.638-.08,4.879-.08.439,0,.479.04.479.441v2.919c0,.4-.04.44-.479.44-.241,0-1.4-.08-4.879-.08-.04,2.079-.08,4.119-.241,6.119h.96c3.44,0,4.6-.08,4.839-.08.4,0,.441.04.441.4v2.92c0,.44-.04.48-.441.48-.24,0-1.4-.08-4.839-.08Zm8.359,15.758c-.4,0-.44-.041-.44-.44,0-.28.08-2.44.08-12.038v-9.318c0-6.68-.08-8.919-.08-9.2,0-.359.04-.4.44-.4.28,0,1.32.08,4.359.08h5.6c3.079,0,4.12-.08,4.36-.08.439,0,.479.04.479.4,0,.241-.08,2.48-.08,8v10.319c0,9.4.08,11.557.08,11.8,0,.4-.04.44-.479.44h-3.28c-.4,0-.44-.04-.44-.44v-2.4H1838.2v2.84c0,.4-.04.44-.439.44Zm3.719-7.16h6.879v-20.316H1838.2Z" fill="#d40e64"/>
      <path id="パス_2049" data-name="パス 2049" d="M1871.485,2520.793a12.04,12.04,0,0,1,6.36-1.8c5.839,0,9.918,3.839,9.918,9.6,0,6.679-5.4,10.958-13.957,10.958-5.039,0-8.079-2.16-8.079-5.879,0-2.68,2.519-4.88,5.639-4.88a7.279,7.279,0,0,1,7.519,5.839c2.8-1.279,4.079-3.039,4.079-6.078,0-3.64-2.56-6.039-6.279-6.039a16.282,16.282,0,0,0-10.239,4.239c-1.159,1.039-2.279,2.2-3.479,3.4-.279.28-.48.44-.68.44a.981.981,0,0,1-.6-.36,18.01,18.01,0,0,1-2.36-2.6c-.24-.32-.12-.6.2-.92a96.149,96.149,0,0,0,9.479-8.839c2.479-2.56,4.359-4.56,6.2-6.839-2.4.441-5.239,1-7.719,1.52a12.325,12.325,0,0,0-1.679.48,2.94,2.94,0,0,1-.8.2.91.91,0,0,1-.88-.68,19.093,19.093,0,0,1-1.4-4.32,19.085,19.085,0,0,0,3.718.08c2.441-.239,5.959-.759,9.079-1.359a10.627,10.627,0,0,0,2.2-.6,2.066,2.066,0,0,1,.759-.32,1.423,1.423,0,0,1,.92.32,15.094,15.094,0,0,1,2.68,2.56,1.386,1.386,0,0,1,.44.959,1.057,1.057,0,0,1-.68.96,6.494,6.494,0,0,0-1.76,1.28c-2.919,2.839-5.6,5.639-8.638,8.559Zm.04,11.4c-1.159,0-1.919.68-1.919,1.521,0,1.239,1.08,2.079,3.48,2.079a8.74,8.74,0,0,0,1.839-.16C1874.405,2533.431,1873.2,2532.19,1871.525,2532.19Z" fill="#d40e64"/>
      <path id="パス_2050" data-name="パス 2050" d="M1695.852,2555.326a2.342,2.342,0,0,0,1.24-.18.408.408,0,0,1,.46.081,5.845,5.845,0,0,1,1.04,1.059c.139.2.1.341-.12.54a3.521,3.521,0,0,0-.66.8,32.389,32.389,0,0,1-2.781,4.061,43.139,43.139,0,0,1,5.641,4.941c.181.18.2.26.02.5a11.165,11.165,0,0,1-.98.98c-.16.161-.28.14-.441-.04a34.966,34.966,0,0,0-5.36-5.021,30.146,30.146,0,0,1-6.981,5.461c-.261.14-.441.2-.62-.02a4.246,4.246,0,0,0-1.341-.98,24.932,24.932,0,0,0,7.221-5.3,24.281,24.281,0,0,0,3.782-5.2h-5.622c-1.1,0-2.04.059-3,.12-.181,0-.221-.08-.261-.28a8.9,8.9,0,0,1-.14-1.6c1.021.08,1.961.08,3.221.08Z" fill="#333"/>
      <path id="パス_2051" data-name="パス 2051" d="M1707.749,2560.968c.82-.841,1.86-1.881,2.88-2.941.6-.64.921-.82,1.44-.82a2.015,2.015,0,0,1,1.441.66,69.44,69.44,0,0,0,9.082,6.522.3.3,0,0,1,.139.46,7.323,7.323,0,0,1-.8,1.3c-.12.181-.241.241-.42.1a106.63,106.63,0,0,1-8.983-6.882.565.565,0,0,0-.359-.179.487.487,0,0,0-.36.179c-.92.941-1.941,2.061-3.321,3.561a7.935,7.935,0,0,0-.82,1.04.317.317,0,0,1-.54.1,13.78,13.78,0,0,1-1.461-1.34A12.162,12.162,0,0,0,1707.749,2560.968Zm13.663-4.341a2.171,2.171,0,1,1-2.161-2.161A2.143,2.143,0,0,1,1721.412,2556.627Zm-3.381,0a1.188,1.188,0,0,0,1.22,1.22,1.172,1.172,0,0,0,1.2-1.22,1.155,1.155,0,0,0-1.2-1.2A1.172,1.172,0,0,0,1718.031,2556.627Z" fill="#333"/>
      <path id="パス_2052" data-name="パス 2052" d="M1728.249,2558.727a.309.309,0,0,1,.36-.16,14.375,14.375,0,0,1,3.661,1.88c.22.141.22.26.12.46a8.335,8.335,0,0,1-.7,1.16c-.139.181-.239.2-.419.061a15.569,15.569,0,0,0-3.841-2.1C1727.789,2559.467,1728.069,2558.987,1728.249,2558.727Zm3.141,7.582a34.257,34.257,0,0,0,5.5-3.461,36.3,36.3,0,0,0,5.721-5.541,5.429,5.429,0,0,0,.48,1.68.549.549,0,0,1-.1.68,35.242,35.242,0,0,1-5.221,4.8,44.7,44.7,0,0,1-5.9,3.74,5.4,5.4,0,0,0-1.04.681.367.367,0,0,1-.62-.061,9.43,9.43,0,0,1-1.181-1.66A8.8,8.8,0,0,0,1731.39,2566.309Zm-.741-12.163c.141-.18.2-.22.42-.12a14.847,14.847,0,0,1,3.6,2.1c.2.14.18.26.08.439a9.042,9.042,0,0,1-.8,1.2c-.139.14-.26.1-.42-.04a15.394,15.394,0,0,0-3.72-2.321C1730.05,2555.026,1730.369,2554.526,1730.649,2554.146Z" fill="#333"/>
      <path id="パス_2053" data-name="パス 2053" d="M1751.11,2562.688a21.425,21.425,0,0,0-2.18.72c-.3.12-.42.14-.561-.14a9.141,9.141,0,0,1-.559-1.44,22.4,22.4,0,0,0,2.84-.56l1.48-.38-.46-1.741a6.891,6.891,0,0,0-.78-1.94c.64-.08,1.581-.141,2-.141.28,0,.38.141.339.361a3.079,3.079,0,0,0,.1,1.34l.42,1.7,4.52-1.2a2.328,2.328,0,0,0,1-.441c.161-.16.321-.1.521.04a6.226,6.226,0,0,1,.98.78c.18.18.161.38-.04.581a1.453,1.453,0,0,0-.36.439,18.586,18.586,0,0,1-2.28,3.722c-.181.2-.28.239-.54.1a3.708,3.708,0,0,0-1.261-.44,12.659,12.659,0,0,0,2.36-3.4l-4.52,1.241,1,3.86c.3,1.181.6,2.181.92,3.321.06.241,0,.34-.2.42a6.612,6.612,0,0,1-1.122.3c-.219.04-.339.04-.4-.26-.261-1.14-.52-2.18-.8-3.28l-1-3.941Z" fill="#333"/>
      <path id="パス_2054" data-name="パス 2054" d="M1771.87,2556.366c.28.1.3.3.2.561a3.6,3.6,0,0,0-.219,1.48,13.438,13.438,0,0,1-1.181,5.641,10.753,10.753,0,0,1-2.86,3.661c-.281.26-.481.28-.7.1a5.1,5.1,0,0,0-1.36-.661,9.688,9.688,0,0,0,3.261-3.84,11.93,11.93,0,0,0,.98-5.381,6.905,6.905,0,0,0-.18-1.9A12.049,12.049,0,0,1,1771.87,2556.366Zm4.281,8.8a21.452,21.452,0,0,0,3.141-1.98,18.247,18.247,0,0,0,3.521-3.361,4.5,4.5,0,0,0,.459,1.58c.121.24.141.361-.139.641a27.769,27.769,0,0,1-3.081,2.74,36.647,36.647,0,0,1-3.5,2.3,2.732,2.732,0,0,0-.62.44.472.472,0,0,1-.661,0,5.429,5.429,0,0,1-.96-.961.552.552,0,0,1-.06-.6,5.748,5.748,0,0,0,.1-1.781v-5.921a17.345,17.345,0,0,0-.2-3.5,15.723,15.723,0,0,1,2.021.319c.381.12.32.341.16.7a7.74,7.74,0,0,0-.18,2.461Z" fill="#333"/>
      <path id="パス_2055" data-name="パス 2055" d="M1799.811,2557.887h-7.142a28.837,28.837,0,0,0-2.94.12c-.2,0-.281-.08-.281-.3a14.675,14.675,0,0,1-.079-1.66,29,29,0,0,0,3.28.14h5.442c1.059,0,2.18-.041,3.261-.081.3,0,.379.081.359.321,0,1-.04,2.02-.04,3.04v4.541c0,1.3.06,2.761.08,3.481,0,.2-.06.24-.3.26-.4.02-.92.02-1.3,0-.28-.02-.34-.04-.34-.3v-.841h-7.1c-1.18,0-2.22.04-3.181.08-.159,0-.219-.059-.239-.28a11.938,11.938,0,0,1-.08-1.6c.979.08,2.12.1,3.52.1h7.082Z" fill="#333"/>
      <path id="パス_2056" data-name="パス 2056" d="M1809.709,2555.187a.3.3,0,0,1,.44-.041,19.231,19.231,0,0,1,3.721,2.741c.16.16.18.24.06.44a9.5,9.5,0,0,1-.96,1.14c-.18.16-.22.2-.4.02a20.958,20.958,0,0,0-3.921-3.081C1808.989,2555.967,1809.409,2555.506,1809.709,2555.187Zm1.761,10.561a34.836,34.836,0,0,0,5.76-3.681,29.54,29.54,0,0,0,5.442-5.4,6.115,6.115,0,0,0,.44,1.74c.14.32.12.48-.18.821a35.46,35.46,0,0,1-4.741,4.46,45.022,45.022,0,0,1-6.021,3.9,6.442,6.442,0,0,0-1.2.84.374.374,0,0,1-.62-.02,10.048,10.048,0,0,1-1.241-1.74A11.114,11.114,0,0,0,1811.47,2565.748Z" fill="#333"/>
      <path id="パス_2057" data-name="パス 2057" d="M1837.331,2560.468a11.665,11.665,0,0,1-1.22,5.2,9.515,9.515,0,0,1-3.541,3.78c-.32.2-.56.3-.8.061a3.372,3.372,0,0,0-1.421-.841,8.556,8.556,0,0,0,3.941-3.62,9.517,9.517,0,0,0,1.02-4.581h-3.921c-1,0-2.021.059-2.941.12-.2.019-.24-.1-.26-.341a9.293,9.293,0,0,1-.14-1.5c1.14.08,2.2.1,3.341.1h8.782c1.46,0,2.541-.02,3.761-.1.179,0,.219.08.219.34v1.16c0,.221-.1.3-.279.3-1.121-.04-2.361-.08-3.682-.08Zm-3.58-4.522c-.9,0-1.821.021-2.841.08-.24.021-.28-.08-.3-.3-.059-.38-.1-.981-.119-1.5,1.281.079,2.361.1,3.261.1h4.141c1.08,0,2.339,0,3.38-.06.18-.02.22.08.22.3a5.052,5.052,0,0,1,0,1.1c0,.261-.04.32-.24.32-1.08-.04-2.3-.04-3.36-.04Z" fill="#333"/>
      <path id="パス_2058" data-name="パス 2058" d="M1850.21,2555.187a.3.3,0,0,1,.44-.041,19.227,19.227,0,0,1,3.721,2.741c.16.16.18.24.06.44a9.477,9.477,0,0,1-.96,1.14c-.18.16-.22.2-.4.02a20.962,20.962,0,0,0-3.921-3.081C1849.49,2555.967,1849.91,2555.506,1850.21,2555.187Zm1.761,10.561a34.836,34.836,0,0,0,5.76-3.681,29.54,29.54,0,0,0,5.442-5.4,6.119,6.119,0,0,0,.44,1.74c.14.32.12.48-.18.821a35.46,35.46,0,0,1-4.741,4.46,45.022,45.022,0,0,1-6.021,3.9,6.442,6.442,0,0,0-1.2.84.374.374,0,0,1-.62-.02,10.048,10.048,0,0,1-1.241-1.74A11.114,11.114,0,0,0,1851.971,2565.748Z" fill="#333"/>
      <path id="パス_2059" data-name="パス 2059" d="M1870.17,2555.706a.32.32,0,0,1,.44.1,15.2,15.2,0,0,1,2.161,3.66.321.321,0,0,1-.14.461,6.2,6.2,0,0,1-1.2.58c-.261.08-.361.019-.461-.24a15.261,15.261,0,0,0-2.22-3.862A10.088,10.088,0,0,1,1870.17,2555.706Zm13.743.12a.375.375,0,0,1,.02.6,4.5,4.5,0,0,0-.8,1.42,29.97,29.97,0,0,1-3.661,6.462,21.966,21.966,0,0,1-5.362,5c-.259.16-.42.219-.62.04a3.643,3.643,0,0,0-1.54-.721,22.655,22.655,0,0,0,5.942-5.281,23.673,23.673,0,0,0,3.32-5.961,9.071,9.071,0,0,0,.6-2.521A9.89,9.89,0,0,1,1883.913,2555.826Zm-8.662-1.32a.31.31,0,0,1,.42.1,15.238,15.238,0,0,1,1.921,3.621.341.341,0,0,1-.141.48,9.222,9.222,0,0,1-1.2.521c-.26.08-.359.08-.46-.181a15.229,15.229,0,0,0-1.98-3.9C1874.251,2554.926,1874.791,2554.687,1875.251,2554.506Z" fill="#333"/>
    </g>
    <g id="グループ_1652" data-name="グループ 1652">
      <path id="パス_2060" data-name="パス 2060" d="M1694.305,2485.267h-4.964V2483.6h4.964Z" fill="#d40e64"/>
      <path id="パス_2061" data-name="パス 2061" d="M1710.675,2482.6a9.719,9.719,0,0,1-1,4.334,8.564,8.564,0,0,1-2.992,3.213,1.037,1.037,0,0,1-.51.2.5.5,0,0,1-.357-.17,4.474,4.474,0,0,0-1.513-.9,7.544,7.544,0,0,0,3.383-3.025,7.231,7.231,0,0,0,.867-3.654h-3.23c-.85,0-1.682.05-2.549.1-.154.018-.2-.1-.221-.322a10.228,10.228,0,0,1-.137-1.632c.952.085,1.9.085,2.89.085h7.633c1.325,0,2.311-.034,3.314-.1.17,0,.187.1.187.339.017.222.017,1.088,0,1.31,0,.221-.1.288-.255.288-.884-.033-2.057-.067-3.23-.067Zm-3.366-3.944c-.782,0-1.462.034-2.413.068-.222,0-.273-.085-.29-.289-.05-.408-.068-1.02-.119-1.632,1.19.068,2.057.085,2.822.085h3.807c.952,0,2.024-.017,2.873-.068.17,0,.2.1.2.323a7.339,7.339,0,0,1,0,1.241c0,.238-.034.323-.22.323-.918-.034-1.921-.051-2.857-.051Z" fill="#d40e64"/>
      <path id="パス_2062" data-name="パス 2062" d="M1729.477,2478.62a1.573,1.573,0,0,0,.849-.2.346.346,0,0,1,.222-.068.489.489,0,0,1,.271.1,7.845,7.845,0,0,1,1.157.918.552.552,0,0,1,.22.391.49.49,0,0,1-.2.357,2.046,2.046,0,0,0-.56.731,23.42,23.42,0,0,1-3.367,5.253,21.61,21.61,0,0,1-5.167,4.232.467.467,0,0,1-.272.085.6.6,0,0,1-.391-.188,4.48,4.48,0,0,0-1.615-.781,19.583,19.583,0,0,0,5.661-4.335,17.337,17.337,0,0,0,3.145-4.827l-4.113.118a23.791,23.791,0,0,1-3.213,3.486.53.53,0,0,1-.358.186.413.413,0,0,1-.255-.1,4.581,4.581,0,0,0-1.632-.732,20.178,20.178,0,0,0,4.573-5.048,7.261,7.261,0,0,0,1-2.3,8.367,8.367,0,0,1,1.989.9.355.355,0,0,1,.17.289.338.338,0,0,1-.187.289,1.83,1.83,0,0,0-.425.459c-.187.289-.357.544-.561.85Z" fill="#d40e64"/>
      <path id="パス_2063" data-name="パス 2063" d="M1745.984,2477.617a.362.362,0,0,1,.2.289.521.521,0,0,1-.119.289,3.554,3.554,0,0,0-.73,1.156,27.58,27.58,0,0,1-3.146,5.388,20.685,20.685,0,0,1-5,4.777.624.624,0,0,1-.357.135.553.553,0,0,1-.357-.152,6.217,6.217,0,0,0-1.615-.867,20.062,20.062,0,0,0,5.491-4.93,21.507,21.507,0,0,0,2.8-4.9,7.56,7.56,0,0,0,.611-2.227A13.334,13.334,0,0,1,1745.984,2477.617Z" fill="#d40e64"/>
      <path id="パス_2064" data-name="パス 2064" d="M1759.6,2477.736a2.489,2.489,0,0,0,1.172-.153.287.287,0,0,1,.188-.068.57.57,0,0,1,.289.136,6.166,6.166,0,0,1,1.1,1.19.452.452,0,0,1,.085.221.467.467,0,0,1-.22.339,3.138,3.138,0,0,0-.629.748,26.754,26.754,0,0,1-2.176,3.179,39.906,39.906,0,0,1,4.708,4.114.39.39,0,0,1,.137.238.421.421,0,0,1-.119.255,9.193,9.193,0,0,1-1.139,1.156.294.294,0,0,1-.2.1.346.346,0,0,1-.238-.135,30.961,30.961,0,0,0-4.42-4.216,24.481,24.481,0,0,1-5.711,4.488,1.11,1.11,0,0,1-.391.136.38.38,0,0,1-.289-.153,4.649,4.649,0,0,0-1.429-1.1,21.216,21.216,0,0,0,9.18-8.6l-4.386.018c-.884,0-1.767.034-2.685.1-.136.017-.188-.1-.221-.289a9.909,9.909,0,0,1-.153-1.768c.918.068,1.767.068,2.873.068Z" fill="#d40e64"/>
      <path id="パス_2065" data-name="パス 2065" d="M1773.456,2479.657c.067-.833.1-1.377.119-2.295a6.525,6.525,0,0,0-.119-1.342,13.233,13.233,0,0,1,2.21.356.35.35,0,0,1,.288.357.747.747,0,0,1-.085.323,1.6,1.6,0,0,0-.221.8c-.05.543-.067.952-.152,1.785h2.583c.782,0,1.581-.035,2.363-.035.272,0,.357.052.357.239,0,.22-.034.9-.068,1.8a29.056,29.056,0,0,1-.628,5.592,2.709,2.709,0,0,1-2.006,2.295,7.191,7.191,0,0,1-1.717.187.413.413,0,0,1-.408-.34,3.551,3.551,0,0,0-.987-1.547,6.948,6.948,0,0,0,2.313-.153c.459-.153.68-.425.884-1.19a23.82,23.82,0,0,0,.509-5.1h-3.433a12.657,12.657,0,0,1-1.513,4.709,10.983,10.983,0,0,1-3.6,3.5.778.778,0,0,1-.392.135.433.433,0,0,1-.323-.17,4.331,4.331,0,0,0-1.428-.985,9.465,9.465,0,0,0,3.995-3.468,9.9,9.9,0,0,0,1.224-3.672h-1.53c-.833,0-1.649.035-2.448.085-.17.018-.238-.085-.255-.289-.068-.407-.1-1.019-.135-1.648,1.07.068,1.836.068,2.821.068Z" fill="#d40e64"/>
      <path id="パス_2066" data-name="パス 2066" d="M1789.182,2486.575a27.986,27.986,0,0,0,4.334-2.141,21.075,21.075,0,0,0,4.505-3.468,7.653,7.653,0,0,0,.271,1.972.533.533,0,0,1-.17.679,27.418,27.418,0,0,1-4.249,2.924,37.866,37.866,0,0,1-4.165,2.107,3.986,3.986,0,0,0-.951.544.5.5,0,0,1-.307.137.459.459,0,0,1-.289-.137,5.231,5.231,0,0,1-1.036-1.155.419.419,0,0,1-.1-.272.7.7,0,0,1,.085-.289,3.308,3.308,0,0,0,.069-.969l.034-6.391a16.058,16.058,0,0,0-.188-2.958,17.276,17.276,0,0,1,2.21.374.326.326,0,0,1,.272.323,1.262,1.262,0,0,1-.085.357,7.032,7.032,0,0,0-.187,2.107Z" fill="#d40e64"/>
      <path id="パス_2067" data-name="パス 2067" d="M1803.546,2480.863a.305.305,0,0,1,.442.119,9.118,9.118,0,0,1,1.462,2.516,1.176,1.176,0,0,1,.069.255c0,.1-.069.153-.205.238a7.2,7.2,0,0,1-1.087.528c-.239.085-.34,0-.425-.239a10.043,10.043,0,0,0-1.6-2.736C1802.781,2481.221,1803.189,2481.033,1803.546,2480.863Zm9.332.222c.137.1.222.186.222.289s-.051.187-.188.306a2.326,2.326,0,0,0-.51.867,20.712,20.712,0,0,1-2.566,4.521,13.634,13.634,0,0,1-3.5,3.281.736.736,0,0,1-.408.187.389.389,0,0,1-.272-.119,3.837,3.837,0,0,0-1.445-.714,14.776,14.776,0,0,0,4.08-3.536,17.581,17.581,0,0,0,2.3-4.1,6.156,6.156,0,0,0,.391-1.8A8.049,8.049,0,0,1,1812.878,2481.085Zm-5.9-1.037a.3.3,0,0,1,.443.136,9.778,9.778,0,0,1,1.308,2.481c.085.256.052.341-.169.459a6.934,6.934,0,0,1-1.173.527c-.187.069-.255-.016-.34-.255a11.558,11.558,0,0,0-1.428-2.719C1806.3,2480.354,1806.691,2480.167,1806.979,2480.048Z" fill="#d40e64"/>
      <path id="パス_2068" data-name="パス 2068" d="M1818.439,2480.881c.085-.119.17-.2.323-.17a11.779,11.779,0,0,1,3.263,1.666c.12.085.188.152.188.255a.5.5,0,0,1-.068.186,6.848,6.848,0,0,1-.749,1.292c-.084.1-.152.17-.22.17a.331.331,0,0,1-.2-.1,14.912,14.912,0,0,0-3.434-1.854C1817.963,2481.646,1818.235,2481.152,1818.439,2480.881Zm2.754,6.307a28.6,28.6,0,0,0,4.658-2.942,31.014,31.014,0,0,0,4.9-4.742,8.47,8.47,0,0,0,.493,1.9.834.834,0,0,1,.085.323.532.532,0,0,1-.187.391,31.67,31.67,0,0,1-4.318,3.927,39.4,39.4,0,0,1-5.082,3.2,5.526,5.526,0,0,0-.986.578.376.376,0,0,1-.272.136.437.437,0,0,1-.34-.2,10.779,10.779,0,0,1-1.258-1.734A7.882,7.882,0,0,0,1821.193,2487.188Zm-.7-10.217c.119-.2.221-.238.425-.136a11.542,11.542,0,0,1,3.195,1.887.269.269,0,0,1,.137.221.421.421,0,0,1-.068.221,7.286,7.286,0,0,1-.868,1.274.19.19,0,0,1-.17.1.445.445,0,0,1-.254-.119,16.383,16.383,0,0,0-3.3-2.091C1819.884,2477.889,1820.207,2477.413,1820.5,2476.971Zm7.785-.527c.085-.068.154-.05.255.035a7.793,7.793,0,0,1,1.615,1.818.172.172,0,0,1-.051.272l-.714.527a.178.178,0,0,1-.289-.051,8.435,8.435,0,0,0-1.717-1.972Zm1.513-1.1c.1-.068.153-.051.255.034a7.116,7.116,0,0,1,1.615,1.751.2.2,0,0,1-.051.306l-.68.527a.174.174,0,0,1-.289-.051,8.045,8.045,0,0,0-1.7-1.955Z" fill="#d40e64"/>
      <path id="パス_2069" data-name="パス 2069" d="M1844.449,2485.267h-4.964V2483.6h4.964Z" fill="#d40e64"/>
    </g>
  </g>
</svg>
