<svg xmlns="http://www.w3.org/2000/svg" width="73" height="74" viewBox="0 0 73 74">
  <g id="グループ_2022" data-name="グループ 2022" transform="translate(-1157.214 -3896.16)">
    <path id="パス_2681" data-name="パス 2681" d="M1157.214,3911.8a15.811,15.811,0,0,1,1.284-6.541,15.331,15.331,0,0,1,3.442-4.906,14.837,14.837,0,0,1,4.984-3.117,16.8,16.8,0,0,1,11.817,0,14.846,14.846,0,0,1,4.984,3.117,15.332,15.332,0,0,1,3.442,4.906,15.829,15.829,0,0,1,1.285,6.541v42.724a15.822,15.822,0,0,1-1.285,6.541,15.287,15.287,0,0,1-3.442,4.907,14.8,14.8,0,0,1-4.984,3.117,16.8,16.8,0,0,1-11.817,0,14.794,14.794,0,0,1-4.984-3.117,15.287,15.287,0,0,1-3.442-4.907,15.8,15.8,0,0,1-1.284-6.541Zm10.48,42.724a5.13,5.13,0,0,0,1.44,3.731,5.359,5.359,0,0,0,7.4,0,5.141,5.141,0,0,0,1.439-3.731V3911.8a5.144,5.144,0,0,0-1.439-3.73,5.357,5.357,0,0,0-7.4,0,5.132,5.132,0,0,0-1.44,3.73Z" fill="#d40e64"/>
    <path id="パス_2682" data-name="パス 2682" d="M1211.983,3927.436q4.725,0,6.525-1.124t1.8-5.213v-9.4a5.068,5.068,0,0,0-1.388-3.679,4.985,4.985,0,0,0-3.75-1.43,4.433,4.433,0,0,0-3.956,1.737,6.011,6.011,0,0,0-1.183,3.372v5.928h-10.48v-6.03a15.1,15.1,0,0,1,1.232-6.031,14.678,14.678,0,0,1,3.392-4.906,16.864,16.864,0,0,1,5.035-3.27,15.532,15.532,0,0,1,6.165-1.228,13.768,13.768,0,0,1,7.142,1.686,16.485,16.485,0,0,1,4.264,3.425,22.421,22.421,0,0,1,1.8,2.454,11.884,11.884,0,0,1,1.285,2.963,40.58,40.58,0,0,1,.925,10.016q0,3.784-.154,6.133a12.773,12.773,0,0,1-.771,3.884,7.775,7.775,0,0,1-2,2.759,23.711,23.711,0,0,1-3.545,2.454,19.906,19.906,0,0,1,3.75,2.862,8.41,8.41,0,0,1,1.9,3.066,15.775,15.775,0,0,1,.719,4.344q.1,2.505.1,6.388,0,3.578-.154,5.928a30.291,30.291,0,0,1-.463,3.884,12.1,12.1,0,0,1-.821,2.76,17.01,17.01,0,0,1-1.336,2.351,16.566,16.566,0,0,1-4.985,4.752,14.864,14.864,0,0,1-7.964,1.891,18.61,18.61,0,0,1-5.24-.817,14.067,14.067,0,0,1-8.786-7.462,16.038,16.038,0,0,1-1.489-7.256V3948.7h10.48v5.417a5.9,5.9,0,0,0,1.388,4.037,5.233,5.233,0,0,0,7.5,0,6.2,6.2,0,0,0,1.388-4.241v-10.426q0-4.292-1.645-5.621a4.592,4.592,0,0,0-2.517-1.022,34.265,34.265,0,0,0-4.162-.2Z" transform="translate(-0.574)" fill="#d40e64"/>
  </g>
</svg>
