<svg xmlns="http://www.w3.org/2000/svg" width="298" height="68" viewBox="0 0 298 68">
  <g id="グループ_1650" data-name="グループ 1650" transform="translate(-1683.368 -3910.767)">
    <path id="パス_2026" data-name="パス 2026" d="M1687.909,3918.168a8.048,8.048,0,0,0,.74-2.541,8.216,8.216,0,0,1,2,.8c.321.179.261.42.04.639a3.7,3.7,0,0,0-.7,1.161,21.132,21.132,0,0,1-4.441,6.662.521.521,0,0,1-.78.1,3.529,3.529,0,0,0-1.4-.7A17.028,17.028,0,0,0,1687.909,3918.168Zm6.962-2.341c.2-.12.3-.139.48.04a26.156,26.156,0,0,1,5.021,7.262c.1.22.1.36-.1.5a8.359,8.359,0,0,1-1.28.8c-.22.1-.319.06-.4-.14a25.188,25.188,0,0,0-4.942-7.642C1694.15,3916.287,1694.61,3916.007,1694.871,3915.827Zm2.181-2.48c.1-.08.159-.06.279,0a10.663,10.663,0,0,1,2.2,2.4.2.2,0,0,1-.04.3l-.74.58a.188.188,0,0,1-.3-.079,9.846,9.846,0,0,0-2.3-2.581Zm1.86-1.42a.21.21,0,0,1,.279,0,10.6,10.6,0,0,1,2.221,2.34.231.231,0,0,1-.059.32l-.721.54c-.12.061-.2.061-.28-.06a10.314,10.314,0,0,0-2.281-2.52Z" fill="#333"/>
    <path id="パス_2027" data-name="パス 2027" d="M1707.889,3915.207a15.478,15.478,0,0,0-.22-2.921,13.22,13.22,0,0,1,2.04.36c.3.1.3.321.2.541a5.688,5.688,0,0,0-.2,2.02v3.661c0,1.04.02,1.8.061,2.6,0,.26-.1.34-.361.34h-1.261c-.239,0-.319-.08-.3-.321,0-.78.04-1.8.04-2.72Zm8.862,3.661c0,3.04-.6,4.921-1.7,6.341a10.172,10.172,0,0,1-4.4,3.041.532.532,0,0,1-.7-.12,5.232,5.232,0,0,0-1.32-.96,9.834,9.834,0,0,0,4.761-2.8c.94-1.181,1.48-2.841,1.48-5.421v-3.581a14.827,14.827,0,0,0-.22-3.4,9.951,9.951,0,0,1,2.121.359c.28.1.28.341.18.58a6.815,6.815,0,0,0-.2,2.442Z" fill="#333"/>
    <path id="パス_2028" data-name="パス 2028" d="M1732.791,3923.649h3.221c1.32,0,2.52-.04,3.841-.08.2-.02.3.06.3.28v1.2c0,.24-.059.3-.3.3-1.04-.021-2.54-.061-3.821-.061h-8.282c-.9,0-2.261.061-3.421.1-.26,0-.32-.061-.36-.361a9.556,9.556,0,0,1-.119-1.46c1.36.08,2.639.1,3.9.1h3.181v-7.262h-1.8c-1.3,0-2.18.04-3.061.1-.2.019-.239-.1-.279-.361a9.125,9.125,0,0,1-.12-1.44c1.04.08,1.9.08,3.38.08h5.382c1.219,0,2.28,0,3.5-.06.179-.02.219.08.219.26v1.2c0,.219-.04.3-.24.3-1.32-.059-2.3-.08-3.461-.08h-1.66Z" fill="#333"/>
    <path id="パス_2029" data-name="パス 2029" d="M1748.589,3921.028a15.763,15.763,0,0,0-2.8.22.372.372,0,0,1-.4-.34,18.4,18.4,0,0,1-.241-1.9,30.994,30.994,0,0,0,4.381.2h6.261c1.44,0,2.941-.02,4.481-.06.26-.02.321.04.321.26a8.211,8.211,0,0,1,0,1.4c0,.219-.061.28-.321.259-1.5-.019-2.98-.04-4.38-.04Z" transform="translate(-0.115)" fill="#333"/>
    <path id="パス_2030" data-name="パス 2030" d="M1766.649,3917.287a.31.31,0,0,1,.361-.159,14.332,14.332,0,0,1,3.66,1.88c.221.14.221.26.12.46a8.511,8.511,0,0,1-.7,1.16c-.14.181-.239.2-.42.06a15.577,15.577,0,0,0-3.841-2.1C1766.189,3918.027,1766.47,3917.548,1766.649,3917.287Zm3.141,7.582a34.059,34.059,0,0,0,5.5-3.461,36.252,36.252,0,0,0,5.722-5.541,5.421,5.421,0,0,0,.479,1.681.548.548,0,0,1-.1.68,35.282,35.282,0,0,1-5.221,4.8,44.734,44.734,0,0,1-5.9,3.741,5.454,5.454,0,0,0-1.041.68.367.367,0,0,1-.62-.06,9.477,9.477,0,0,1-1.18-1.661A8.753,8.753,0,0,0,1769.79,3924.869Zm-.74-12.162c.14-.181.2-.221.42-.12a14.823,14.823,0,0,1,3.6,2.1c.2.139.18.259.08.439a9.007,9.007,0,0,1-.8,1.2c-.14.141-.26.1-.42-.04a15.365,15.365,0,0,0-3.721-2.32C1768.45,3913.587,1768.77,3913.087,1769.05,3912.707Z" transform="translate(-0.153)" fill="#333"/>
    <path id="パス_2031" data-name="パス 2031" d="M1795.472,3918.988h-4.5c-.9,0-2.06.08-2.92.12-.181.02-.28-.08-.3-.36a11.75,11.75,0,0,1-.08-1.341c1.121.1,2.041.1,3.281.1h3.341c.86,0,1.82,0,2.62-.04.24,0,.28.08.261.28,0,.88-.04,1.72-.04,2.54v4.4c0,.821.04,1.821.08,2.84,0,.261-.08.321-.341.341s-.8.02-1.1.02c-.26,0-.3-.04-.3-.26v-.66h-4.66c-.881,0-1.862.04-2.841.12-.2.019-.261-.061-.281-.34a11.387,11.387,0,0,1-.08-1.32c1.1.059,2.2.08,3.261.08h4.6v-2.681h-4.16c-.821,0-1.921.02-2.8.1-.221.02-.281-.08-.321-.361a10.62,10.62,0,0,1-.08-1.28c1.12.061,2.081.08,3.181.08h4.181Z" transform="translate(-0.19)" fill="#333"/>
    <path id="パス_2032" data-name="パス 2032" d="M1805.169,3913.747a.3.3,0,0,1,.44-.04,19.209,19.209,0,0,1,3.721,2.74c.16.16.18.241.06.441a9.493,9.493,0,0,1-.96,1.139c-.18.161-.22.2-.4.021a20.912,20.912,0,0,0-3.921-3.081C1804.449,3914.527,1804.869,3914.066,1805.169,3913.747Zm1.761,10.562a34.9,34.9,0,0,0,5.76-3.681,29.609,29.609,0,0,0,5.442-5.4,6.119,6.119,0,0,0,.44,1.74c.14.319.12.479-.18.82a35.479,35.479,0,0,1-4.741,4.461,45.1,45.1,0,0,1-6.021,3.9,6.5,6.5,0,0,0-1.2.84.374.374,0,0,1-.62-.019,10.069,10.069,0,0,1-1.241-1.741A11.061,11.061,0,0,0,1806.93,3924.309Z" transform="translate(-0.224)" fill="#333"/>
    <path id="パス_2033" data-name="パス 2033" d="M1825.989,3928.33c-1.82,0-2.44.04-2.541.04-.159,0-.179-.02-.179-.181v-1.059c0-.181.02-.2.179-.2.1,0,.721.04,2.541.04h2.8c-.181-.4-.38-.76-.58-1.12-.1-.161-.061-.2.2-.281l.9-.24c.22-.059.26-.019.34.12a11.856,11.856,0,0,1,.76,1.521h3.481c.14-.241.24-.481.36-.741a4.918,4.918,0,0,0,.32-.959,13.819,13.819,0,0,1,1.441.359c.139.04.219.1.219.2,0,.08-.059.141-.16.221a1.578,1.578,0,0,0-.36.479,4.729,4.729,0,0,1-.26.441h2.9c1.82,0,2.42-.04,2.541-.04.139,0,.16.019.16.2v1.059c0,.161-.021.181-.16.181-.121,0-.721-.04-2.541-.04Zm.361-7.822c-1.881,0-2.5.04-2.6.04-.181,0-.2-.02-.2-.159v-1c0-.18.019-.2.2-.2.1,0,.72.04,2.6.04h11.662c1.881,0,2.48-.04,2.6-.04.16,0,.18.02.18.2v1c0,.139-.02.159-.18.159-.12,0-.719-.04-2.6-.04Zm7.061-8.222a10.317,10.317,0,0,0-.08-1.519c.56.019,1.02.059,1.42.1.16.02.22.06.22.16a.571.571,0,0,1-.079.3,2.87,2.87,0,0,0-.1.96v.061h1.24c2.021,0,2.721-.04,2.841-.04.16,0,.18.019.18.179,0,.12-.04.54-.04,1.66v2.282c0,1.12.04,1.54.04,1.639,0,.2-.02.221-.18.221-.12,0-.82-.04-2.841-.04h-7.721c-2,0-2.721.04-2.841.04-.159,0-.18-.02-.18-.221,0-.1.04-.519.04-1.639v-2.282c0-1.12-.04-1.519-.04-1.66,0-.16.021-.179.18-.179.12,0,.841.04,2.841.04h1.1a7.572,7.572,0,0,0-.12-1.58c.56.019,1.04.059,1.46.1.16.02.24.06.24.16a.849.849,0,0,1-.08.321,2.391,2.391,0,0,0-.12.96v.04h2.621Zm1.58,9.2c1.92,0,2.6-.04,2.721-.04.16,0,.18.021.18.181,0,.119-.04.359-.04,1.16v1.08c0,.76.04,1.021.04,1.14,0,.16-.02.18-.18.18-.12,0-.8-.04-2.721-.04h-5.721c-1.9,0-2.581.04-2.7.04-.179,0-.2-.02-.2-.18,0-.119.04-.38.04-1.14v-1.08c0-.8-.04-1.02-.04-1.16,0-.16.021-.181.2-.181.12,0,.8.04,2.7.04Zm-5.581-6.721v-1.3h-2.64v1.3Zm0,2.38v-1.379h-2.64v1.379Zm6.861,5.461h-8.3v1.441h8.3Zm-5.481-7.841h2.621v-1.3h-2.621Zm2.621,2.38v-1.379h-2.621v1.379Zm1.38-3.68v1.3h2.761v-1.3Zm2.761,2.3h-2.761v1.379h2.761Z" transform="translate(-0.262)" fill="#333"/>
    <path id="パス_2034" data-name="パス 2034" d="M1847.389,3916.348c0,.16-.02.179-.2.179h-1.22c-.16,0-.18-.019-.18-.179,0-.12.04-.4.04-2.081v-.621c0-.62-.04-.919-.04-1.04,0-.179.02-.2.18-.2.139,0,.82.04,2.7.04h4.5a6.86,6.86,0,0,0-.14-1.66,14.761,14.761,0,0,1,1.66.1c.161.02.281.08.281.18a1.027,1.027,0,0,1-.12.38,3.209,3.209,0,0,0-.1,1h4.8c1.9,0,2.58-.04,2.7-.04.16,0,.181.021.181.2,0,.121-.04.42-.04.92v.741c0,1.68.04,1.961.04,2.081,0,.16-.021.179-.181.179h-1.22c-.18,0-.2-.019-.2-.179v-2.621h-13.443Zm-.38,12.822c-.18,0-.2-.02-.2-.18,0-.12.04-.6.04-3.361v-1.52c0-1.52-.04-2.06-.04-2.18,0-.16.02-.181.2-.181.1,0,.8.04,2.8.04h8.622c2,0,2.7-.04,2.8-.04.18,0,.2.021.2.181,0,.12-.04.639-.04,1.88v1.781c0,2.76.04,3.24.04,3.34,0,.14-.02.16-.2.16h-1.16c-.16,0-.18-.02-.18-.16v-.7h-11.523v.761c0,.16-.019.18-.18.18Zm1.36-4.761h4.921v-1.44h-4.921Zm4.921,2.641v-1.5h-4.921v1.5Zm-1.98-10.983c-1.9,0-2.54.04-2.641.04-.2,0-.22-.02-.22-.179v-.9c0-.16.021-.18.22-.18.1,0,.74.04,2.641.04h5.6c1.9,0,2.541-.04,2.641-.04.2,0,.219.02.219.18v.9c0,.159-.019.179-.219.179-.1,0-.74-.04-2.641-.04Zm5.2,1.121c1.86,0,2.5-.041,2.621-.041.18,0,.2.021.2.18,0,.141-.04.381-.04,1.161v.88c0,.8.04,1.061.04,1.16,0,.18-.02.2-.2.2-.12,0-.761-.041-2.621-.041h-4.861c-1.88,0-2.52.041-2.621.041-.179,0-.2-.021-.2-.2,0-.12.04-.36.04-1.16v-.88c0-.78-.04-1.02-.04-1.161,0-.159.021-.18.2-.18.1,0,.741.041,2.621.041Zm1.26,1.1h-7.381v1.3h7.381Zm-3.02,4.681v1.44h5.141v-1.44Zm5.141,4.081v-1.5h-5.141v1.5Z" transform="translate(-0.303)" fill="#333"/>
    <path id="パス_2035" data-name="パス 2035" d="M1876.23,3914.547c.18-.06.241-.04.281.141a11.175,11.175,0,0,1,.12,1.179c.019.18-.04.22-.2.24-1.08.22-2.12.38-3.322.56a51.151,51.151,0,0,1-3.98,8.5c-.1.2-.2.181-.38.08a10.1,10.1,0,0,1-1.08-.78c-.141-.12-.16-.22-.021-.4a36.48,36.48,0,0,0,3.622-7.242c-.8.061-1.5.1-2.261.1a10.3,10.3,0,0,1-1.06-.04c-.2,0-.22-.04-.261-.261a7.037,7.037,0,0,1-.16-1.3c.721.06,1.221.08,1.7.08a22.41,22.41,0,0,0,2.5-.139c.241-.8.4-1.5.561-2.3a7.189,7.189,0,0,0,.16-1.58,13.3,13.3,0,0,1,1.92.4.274.274,0,0,1,.24.261.451.451,0,0,1-.16.34,1.567,1.567,0,0,0-.3.66c-.2.62-.4,1.38-.6,2.02A23.291,23.291,0,0,0,1876.23,3914.547Zm.9,5.061a8.5,8.5,0,0,0-.141-1.34,9.505,9.505,0,0,1,1.761.3.3.3,0,0,1,.26.281,1.423,1.423,0,0,1-.12.38,2.425,2.425,0,0,0-.079.9,32.3,32.3,0,0,0,.219,3.56,16.176,16.176,0,0,1,3.681,1.941c.18.12.18.181.1.36a7.57,7.57,0,0,1-.661,1.2c-.119.161-.219.141-.339.021a12.25,12.25,0,0,0-2.781-1.82c.02,2.02-1.18,3.04-3.661,3.04-1.8,0-3.36-.94-3.36-2.6,0-1.62,1.46-2.721,3.541-2.721a8.686,8.686,0,0,1,1.8.2C1877.23,3922.049,1877.15,3920.628,1877.131,3919.608Zm-1.54,4.9c-1.361,0-2.1.54-2.1,1.261,0,.82.66,1.2,1.9,1.2,1.42,0,2.04-.741,2.04-1.7a2.57,2.57,0,0,0-.02-.441A5.99,5.99,0,0,0,1875.591,3924.509Zm3.54-9.281c.12-.181.2-.2.38-.121a14.462,14.462,0,0,1,3.921,1.88c.18.12.18.2.06.4a6.059,6.059,0,0,1-.64,1.1c-.1.159-.16.159-.3.06a14.565,14.565,0,0,0-4.121-2.1C1878.691,3915.987,1878.931,3915.527,1879.131,3915.228Z" transform="translate(-0.343)" fill="#333"/>
    <path id="パス_2036" data-name="パス 2036" d="M1897.491,3919.028a11.648,11.648,0,0,1-1.22,5.2,9.517,9.517,0,0,1-3.541,3.781c-.32.2-.56.3-.8.06a3.372,3.372,0,0,0-1.421-.841,8.552,8.552,0,0,0,3.941-3.62,9.508,9.508,0,0,0,1.02-4.581h-3.921c-1,0-2.021.06-2.941.12-.2.02-.24-.1-.259-.34a9.3,9.3,0,0,1-.141-1.5c1.141.08,2.2.1,3.341.1h8.782c1.46,0,2.541-.019,3.761-.1.179,0,.22.08.22.339v1.161c0,.22-.1.3-.28.3-1.121-.04-2.361-.08-3.681-.08Zm-3.58-4.521c-.9,0-1.821.02-2.841.08-.24.02-.28-.08-.3-.3a14.728,14.728,0,0,1-.12-1.5c1.281.079,2.361.1,3.261.1h4.141c1.08,0,2.34,0,3.381-.061.179-.019.219.08.219.3a5.052,5.052,0,0,1,0,1.1c0,.26-.04.32-.24.32-1.08-.04-2.3-.04-3.36-.04Z" transform="translate(-0.382)" fill="#333"/>
    <path id="パス_2037" data-name="パス 2037" d="M1919.732,3914.787a1.625,1.625,0,0,0,1-.22c.161-.12.34-.08.54.06a7.252,7.252,0,0,1,1.061.84.441.441,0,0,1,.04.721,2.07,2.07,0,0,0-.58.759,27.7,27.7,0,0,1-3.9,6.222,25.1,25.1,0,0,1-6.181,5.1.435.435,0,0,1-.581-.081,3.906,3.906,0,0,0-1.5-.739,22.174,22.174,0,0,0,6.621-5.2,21.434,21.434,0,0,0,3.741-5.941l-5.321.16a29.458,29.458,0,0,1-3.881,4.2.457.457,0,0,1-.66.061,4.016,4.016,0,0,0-1.42-.6,22.052,22.052,0,0,0,5.281-5.881,6.6,6.6,0,0,0,1.08-2.581,6.989,6.989,0,0,1,1.88.86.319.319,0,0,1-.019.58,2.354,2.354,0,0,0-.54.621c-.281.419-.481.76-.741,1.14Z" transform="translate(-0.416)" fill="#333"/>
    <path id="パス_2038" data-name="パス 2038" d="M1938.713,3913.606a.361.361,0,0,1,.08.581,4.707,4.707,0,0,0-.88,1.42,32.658,32.658,0,0,1-3.581,6.1,24.213,24.213,0,0,1-5.981,5.661.468.468,0,0,1-.64-.02,4.332,4.332,0,0,0-1.481-.781,23.738,23.738,0,0,0,6.461-5.821,25.785,25.785,0,0,0,3.242-5.641,9.182,9.182,0,0,0,.679-2.5A10.827,10.827,0,0,1,1938.713,3913.606Z" transform="translate(-0.526)" fill="#333"/>
    <path id="パス_2039" data-name="パス 2039" d="M1955.232,3913.887a2.356,2.356,0,0,0,1.241-.18.409.409,0,0,1,.46.08,5.813,5.813,0,0,1,1.04,1.06c.139.2.1.341-.12.54a3.518,3.518,0,0,0-.661.8,32.268,32.268,0,0,1-2.78,4.06,43.348,43.348,0,0,1,5.641,4.941c.18.18.2.26.02.5a11.486,11.486,0,0,1-.98.981c-.16.16-.28.14-.441-.04a35,35,0,0,0-5.36-5.022,30.108,30.108,0,0,1-6.981,5.461c-.261.141-.441.2-.621-.019a4.212,4.212,0,0,0-1.34-.981,24.953,24.953,0,0,0,7.221-5.3,24.27,24.27,0,0,0,3.782-5.2h-5.623c-1.1,0-2.04.06-3,.121-.18,0-.22-.081-.26-.281a8.894,8.894,0,0,1-.14-1.6c1.021.08,1.961.08,3.221.08Z" transform="translate(-0.526)" fill="#333"/>
    <path id="パス_2040" data-name="パス 2040" d="M1972.372,3923.729c-.86,1.48-1.82,2.161-3.141,2.161-1.6,0-3.18-1.741-3.18-4.8a7.327,7.327,0,0,1,2.3-5.2,8.576,8.576,0,0,1,6.2-2.341c4.64,0,7.341,2.74,7.341,6.641,0,3.461-2.04,5.961-6.261,7.122a.529.529,0,0,1-.681-.281,2.89,2.89,0,0,0-1.04-.96c3.721-.8,6.161-2.62,6.161-6.141a4.857,4.857,0,0,0-5.121-4.861A23.072,23.072,0,0,1,1972.372,3923.729Zm-2.9-6.742a6,6,0,0,0-1.761,4.041c0,2.04.8,3,1.48,3,.621,0,1.161-.36,1.721-1.36a21.711,21.711,0,0,0,2.26-7.522A6.465,6.465,0,0,0,1969.472,3916.987Z" transform="translate(-0.526)" fill="#333"/>
    <path id="パス_2041" data-name="パス 2041" d="M1700.245,3944.956c2.879,0,3.759-.08,4-.08.36,0,.521.08.521.479a22.412,22.412,0,0,0,.239,4.44c1.24,10.8,6.159,19.037,15.558,24.716a11.763,11.763,0,0,0-2.36,3.039c-.32.64-.48.92-.72.92-.2,0-.48-.2-.919-.52-7.28-5.359-11.719-11.878-13.718-19.837a33.65,33.65,0,0,1-14.718,19.917c-.48.28-.72.48-.92.48-.28,0-.439-.32-.84-.96a9.583,9.583,0,0,0-2.359-2.64c9.918-4.879,15.557-14.437,16.077-25.875h-4.959c-2.88,0-3.76.08-4,.08-.439,0-.48-.04-.48-.44v-3.36c0-.4.041-.439.48-.439.24,0,1.12.08,4,.08Z" transform="translate(0 -0.183)" fill="#d40e64"/>
    <path id="パス_2042" data-name="パス 2042" d="M1733.807,3968.712c-3.56,0-4.759.08-5,.08-.4,0-.441-.04-.441-.44v-3.08c0-.4.04-.44.441-.44.24,0,1.439.08,5,.08h10.518a28.9,28.9,0,0,0-.24-3.4l2.319.24a24.978,24.978,0,0,0,3.64-2.88h-8.639c-3.679,0-4.959.08-5.159.08-.4,0-.439-.04-.439-.4v-2.8c0-.4.04-.441.439-.441.2,0,1.48.081,5.159.081h10.838a2.472,2.472,0,0,0,.96-.081,1.315,1.315,0,0,1,.521-.159c.319,0,.719.32,1.719,1.28.8.839,1.12,1.36,1.12,1.719a.636.636,0,0,1-.48.64,9.571,9.571,0,0,0-1.92,1.32,47.253,47.253,0,0,1-5.6,4.159v.64h10c3.559,0,4.758-.08,5-.08.4,0,.44.04.44.44v3.08c0,.4-.04.44-.44.44-.241,0-1.44-.08-5-.08h-10v2.6c0,.959.081,2.439.081,3.479,0,1.72-.321,2.6-1.281,3.279-1.04.64-2.279.88-6.119.88-1.239,0-1.239.04-1.559-1.16a12.094,12.094,0,0,0-1.2-2.919,39.163,39.163,0,0,0,4.28.239c1.119,0,1.559-.279,1.559-1.4v-5Zm2.479-25.6c.521-.2.64-.12.88.2a30.068,30.068,0,0,1,2.68,4.161c.2.4.2.439-.361.639l-2.639.96h8.319a30.98,30.98,0,0,0-2.28-5c-.239-.4-.119-.44.36-.6l2.64-.8c.479-.16.6-.08.8.24a31.281,31.281,0,0,1,2.2,4.64c.12.359.12.4-.44.6l-2.6.92H1752a31.549,31.549,0,0,0,1.959-4.04,13.192,13.192,0,0,0,.6-2.119,20.085,20.085,0,0,1,3.959,1.2c.361.159.56.36.56.6a.75.75,0,0,1-.4.6,3.011,3.011,0,0,0-.76.92c-.561,1.04-1.04,1.88-1.64,2.84h1.039c3.72,0,5.04-.08,5.28-.08.44,0,.48.04.48.44,0,.24-.08,1-.08,2.16v1.84c0,3.6.08,4.239.08,4.478,0,.441-.04.481-.48.481h-3.16c-.4,0-.439-.04-.439-.481v-5.278h-25.6v5.278c0,.4-.04.441-.44.441h-3.159c-.441,0-.481-.041-.481-.441,0-.279.08-.92.08-4.518v-1.481c0-1.479-.08-2.2-.08-2.479,0-.4.04-.44.481-.44.239,0,1.559.08,5.279.08h1.079a23.239,23.239,0,0,0-2.56-4.479c-.239-.361-.2-.44.281-.6Z" transform="translate(-0.09 -0.183)" fill="#d40e64"/>
    <path id="パス_2043" data-name="パス 2043" d="M1777.967,3953.4c-3.56,0-4.76.08-5.039.08-.4,0-.441-.04-.441-.481v-3.239c0-.441.04-.48.441-.48.279,0,1.479.079,5.039.079h9.8v-2.6a19.92,19.92,0,0,0-.28-3.919c1.44,0,3,.08,4.36.2.4.04.639.2.639.44a2.435,2.435,0,0,1-.24.839,5.715,5.715,0,0,0-.24,2.321v2.718h10.518c3.6,0,4.8-.079,5.04-.079.36,0,.4.039.4.48v3.239c0,.441-.04.481-.4.481-.241,0-1.44-.08-5.04-.08h-13.837c-.04,1.759-.161,3.4-.32,4.918h9.8c3.359,0,4.48-.08,4.72-.08.4,0,.479.121.479.56-.08,1.04-.12,2.12-.16,3.12a73.5,73.5,0,0,1-1.319,11.878c-.88,3.8-2.44,4.959-6.44,4.959-.719,0-1.839,0-3.159-.08-1.12-.08-1.12-.16-1.279-1.44a8.888,8.888,0,0,0-.88-3.08,38.728,38.728,0,0,0,4.919.361,2.232,2.232,0,0,0,2.359-2,48.665,48.665,0,0,0,1.241-10.158h-10.879c-1.52,7.4-4.919,12.078-11.718,16.117-.52.28-.76.44-.96.44-.279,0-.44-.28-.8-.88a8.7,8.7,0,0,0-2.4-2.439c9.2-4.52,12.2-10.039,12.278-22.2Z" transform="translate(-0.177 -0.183)" fill="#d40e64"/>
    <path id="パス_2044" data-name="パス 2044" d="M1817.768,3953.634c.279-.36.439-.4.8-.2a34.87,34.87,0,0,1,5.8,4.119.423.423,0,0,1,.2.359.687.687,0,0,1-.2.441l-1.8,2.439c-.2.28-.319.4-.439.4s-.2-.08-.36-.2a29.978,29.978,0,0,0-5.759-4.439c-.16-.12-.24-.2-.24-.321s.08-.239.24-.439Zm.04,19.917a63.7,63.7,0,0,0,3.678-9.639,21.046,21.046,0,0,0,2.321,2c.639.44.839.64.839,1a4.279,4.279,0,0,1-.2.92,87.374,87.374,0,0,1-3.4,9.038,10.575,10.575,0,0,0-.6,1.56c-.08.32-.24.52-.48.52a1.512,1.512,0,0,1-.72-.2,23.478,23.478,0,0,1-3.279-2.2A13.8,13.8,0,0,0,1817.808,3973.551Zm1.759-29.955c.32-.4.44-.4.76-.2a34.871,34.871,0,0,1,5.759,4.239c.28.24.32.36-.04.84l-1.8,2.44c-.279.4-.359.439-.72.159a29.019,29.019,0,0,0-5.758-4.638c-.361-.2-.361-.281,0-.72Zm11.758,19.957c-3.92,0-5.319.08-5.559.08-.4,0-.44-.04-.44-.481v-3.119c0-.4.04-.44.44-.44.24,0,1.639.08,5.559.08h4.6v-5.839h-2.76c-3.84,0-5.159.08-5.359.08-.4,0-.44-.04-.44-.439v-3.08c0-.4.039-.44.44-.44.2,0,1.519.08,5.359.08h2.76v-1.76a38.682,38.682,0,0,0-.28-5.319c1.519.04,2.918.12,4.239.24.4.04.639.24.639.48a2.136,2.136,0,0,1-.2.8,11.869,11.869,0,0,0-.279,3.679v1.88h4.359c3.839,0,5.16-.08,5.4-.08.4,0,.44.04.44.44v3.08c0,.4-.04.439-.44.439-.239,0-1.56-.08-5.4-.08h-4.359v5.839h6c3.919,0,5.318-.08,5.559-.08.36,0,.4.04.4.44v3.119c0,.441-.04.481-.4.481-.241,0-1.64-.08-5.559-.08H1838a96.757,96.757,0,0,1-3.52,9.4c3.52-.32,6.679-.68,9.919-1.16-.92-1.359-1.92-2.68-2.92-3.919-.28-.36-.24-.48.241-.76l2.159-1.28c.4-.24.52-.2.8.08a51.825,51.825,0,0,1,7.079,10.318c.2.4.2.44-.281.76l-2.479,1.48a1.106,1.106,0,0,1-.52.24c-.12,0-.2-.12-.28-.32-.559-1.079-1.12-2.16-1.72-3.24-5.919,1-11.158,1.68-17.636,2.32a3.971,3.971,0,0,0-1.48.36,1.246,1.246,0,0,1-.72.28c-.32,0-.52-.24-.64-.64a36.168,36.168,0,0,1-.88-3.959c1.72,0,2.96-.04,4.2-.16a3.432,3.432,0,0,0,.64-.04,62.983,62.983,0,0,0,3.6-9.758Z" transform="translate(-0.266 -0.183)" fill="#d40e64"/>
  </g>
</svg>
