<svg xmlns="http://www.w3.org/2000/svg" width="73" height="74" viewBox="0 0 73 74">
  <g id="グループ_2021" data-name="グループ 2021" transform="translate(-744.214 -3896.16)">
    <path id="パス_2679" data-name="パス 2679" d="M744.214,3911.8a15.812,15.812,0,0,1,1.284-6.541,15.332,15.332,0,0,1,3.442-4.906,14.837,14.837,0,0,1,4.984-3.117,16.8,16.8,0,0,1,11.817,0,14.846,14.846,0,0,1,4.984,3.117,15.332,15.332,0,0,1,3.442,4.906,15.828,15.828,0,0,1,1.285,6.541v42.724a15.821,15.821,0,0,1-1.285,6.541,15.287,15.287,0,0,1-3.442,4.907,14.8,14.8,0,0,1-4.984,3.117,16.8,16.8,0,0,1-11.817,0,14.794,14.794,0,0,1-4.984-3.117,15.288,15.288,0,0,1-3.442-4.907,15.806,15.806,0,0,1-1.284-6.541Zm10.48,42.724a5.13,5.13,0,0,0,1.44,3.731,5.359,5.359,0,0,0,7.4,0,5.141,5.141,0,0,0,1.439-3.731V3911.8a5.144,5.144,0,0,0-1.439-3.73,5.357,5.357,0,0,0-7.4,0,5.132,5.132,0,0,0-1.44,3.73Z" fill="#d40e64"/>
    <path id="パス_2680" data-name="パス 2680" d="M786.55,3969.543v-9.812l18.907-35.464a12.939,12.939,0,0,0,1.644-4.651q.2-1.993.206-4.956,0-1.328-.052-2.811a6.826,6.826,0,0,0-.565-2.607,4.863,4.863,0,0,0-1.542-1.891,4.926,4.926,0,0,0-2.979-.766,5.2,5.2,0,0,0-3.751,1.329,5.129,5.129,0,0,0-1.388,3.883v5.928H786.55V3912a15.353,15.353,0,0,1,1.232-6.133,15.827,15.827,0,0,1,3.392-5.008,15.4,15.4,0,0,1,4.931-3.424,15.041,15.041,0,0,1,6.166-1.277,15.463,15.463,0,0,1,7.04,1.482,14.067,14.067,0,0,1,4.88,4.037,17.576,17.576,0,0,1,2.723,5.825,26.908,26.908,0,0,1,.874,6.95q0,2.659-.1,4.446a26.908,26.908,0,0,1-.411,3.425,15.084,15.084,0,0,1-1.028,3.27q-.718,1.637-1.952,3.986l-15.414,29.537h18.908v10.425Z" transform="translate(-0.574 0)" fill="#d40e64"/>
  </g>
</svg>
