<svg xmlns="http://www.w3.org/2000/svg" width="604" height="36" viewBox="0 0 604 36">
  <g id="グループ_1844" data-name="グループ 1844" transform="translate(-187.348 -3764.995)">
    <path id="パス_2420" data-name="パス 2420" d="M193.7,3783.913a11.2,11.2,0,0,0,1.036-3.556,11.5,11.5,0,0,1,2.8,1.121c.447.251.363.587.056.9a5.139,5.139,0,0,0-.981,1.624,29.514,29.514,0,0,1-6.216,9.324.725.725,0,0,1-1.091.14,4.968,4.968,0,0,0-1.96-.98A23.826,23.826,0,0,0,193.7,3783.913Zm9.744-3.275c.281-.168.42-.2.672.055a36.611,36.611,0,0,1,7.028,10.164c.14.308.14.5-.139.7a12.087,12.087,0,0,1-1.792,1.12c-.309.139-.448.084-.561-.2a35.215,35.215,0,0,0-6.916-10.7C202.439,3781.281,203.084,3780.89,203.447,3780.638Zm3.052-3.473c.141-.111.225-.084.393,0a14.95,14.95,0,0,1,3.08,3.36.281.281,0,0,1-.057.42l-1.035.813a.263.263,0,0,1-.42-.112,13.78,13.78,0,0,0-3.221-3.613Zm2.605-1.987a.3.3,0,0,1,.391,0,14.907,14.907,0,0,1,3.109,3.275.325.325,0,0,1-.084.448l-1.008.756c-.168.084-.281.084-.393-.084a14.439,14.439,0,0,0-3.191-3.528Z" transform="translate(0 -0.202)" fill="#333"/>
    <path id="パス_2421" data-name="パス 2421" d="M221.676,3779.77a21.713,21.713,0,0,0-.308-4.088,18.067,18.067,0,0,1,2.856.5c.42.139.42.448.28.755a7.941,7.941,0,0,0-.28,2.829v5.124c0,1.456.028,2.519.084,3.639,0,.364-.14.477-.5.477H222.04c-.336,0-.448-.113-.42-.448,0-1.092.056-2.521.056-3.809Zm12.4,5.124c0,4.255-.84,6.887-2.38,8.876a14.24,14.24,0,0,1-6.16,4.255.745.745,0,0,1-.98-.168,7.321,7.321,0,0,0-1.848-1.343,13.772,13.772,0,0,0,6.664-3.92c1.315-1.653,2.072-3.977,2.072-7.589v-5.012a20.763,20.763,0,0,0-.308-4.76,13.926,13.926,0,0,1,2.967.5c.393.14.393.476.252.813-.223.475-.279,1.26-.279,3.415Z" transform="translate(0 -0.355)" fill="#333"/>
    <path id="パス_2422" data-name="パス 2422" d="M256.536,3791.585h4.508c1.849,0,3.528-.056,5.376-.111.28-.029.42.084.42.391v1.68c0,.336-.084.42-.42.42-1.456-.027-3.556-.084-5.348-.084H249.48c-1.259,0-3.164.084-4.788.14-.364,0-.448-.083-.5-.5a13.386,13.386,0,0,1-.167-2.044c1.9.111,3.7.139,5.459.139h4.453v-10.164h-2.521c-1.819,0-3.052.056-4.284.14-.279.028-.336-.14-.392-.5a12.927,12.927,0,0,1-.168-2.016c1.456.113,2.661.113,4.732.113h7.532c1.708,0,3.192,0,4.9-.084.252-.029.308.111.308.363v1.681c0,.307-.056.42-.336.42-1.848-.084-3.22-.113-4.844-.113h-2.324Z" transform="translate(0 -0.234)" fill="#333"/>
    <path id="パス_2423" data-name="パス 2423" d="M278.655,3787.917a21.989,21.989,0,0,0-3.92.309c-.307,0-.475-.141-.559-.477a25.547,25.547,0,0,1-.336-2.66,43.218,43.218,0,0,0,6.132.28h8.763c2.017,0,4.117-.027,6.273-.084.364-.028.448.057.448.364a11.453,11.453,0,0,1,0,1.96c0,.308-.084.392-.448.365-2.1-.029-4.172-.057-6.132-.057Z" transform="translate(0 -0.215)" fill="#333"/>
    <path id="パス_2424" data-name="パス 2424" d="M303.939,3782.682a.433.433,0,0,1,.5-.225,20.085,20.085,0,0,1,5.124,2.632c.309.2.309.364.168.644a11.82,11.82,0,0,1-.979,1.624c-.2.252-.336.281-.588.084a21.85,21.85,0,0,0-5.376-2.94C303.3,3783.718,303.688,3783.045,303.939,3782.682Zm4.4,10.611a47.768,47.768,0,0,0,7.7-4.844,50.812,50.812,0,0,0,8.009-7.756,7.537,7.537,0,0,0,.672,2.352.769.769,0,0,1-.141.952,49.176,49.176,0,0,1-7.307,6.72,62.533,62.533,0,0,1-8.26,5.236,7.638,7.638,0,0,0-1.456.952.513.513,0,0,1-.868-.084,13.168,13.168,0,0,1-1.653-2.324A12.29,12.29,0,0,0,308.336,3793.293ZM307.3,3776.27c.2-.252.279-.309.588-.168a20.8,20.8,0,0,1,5.04,2.939c.28.2.252.364.112.616a12.706,12.706,0,0,1-1.12,1.68c-.2.2-.364.141-.588-.056a21.548,21.548,0,0,0-5.208-3.248C306.46,3777.5,306.907,3776.8,307.3,3776.27Z" transform="translate(-0.034 -0.355)" fill="#333"/>
    <path id="パス_2425" data-name="パス 2425" d="M344.289,3785.062h-6.3c-1.26,0-2.885.111-4.089.167-.252.028-.391-.112-.42-.5a16.725,16.725,0,0,1-.111-1.876c1.568.139,2.856.139,4.592.139h4.676c1.2,0,2.548,0,3.668-.055.336,0,.391.111.364.391,0,1.233-.057,2.408-.057,3.556v6.16c0,1.148.057,2.548.113,3.977,0,.363-.113.447-.476.475s-1.12.028-1.54.028c-.364,0-.42-.056-.42-.364v-.924h-6.524c-1.232,0-2.6.056-3.976.168-.28.029-.364-.084-.393-.476a16.154,16.154,0,0,1-.111-1.848c1.54.084,3.08.112,4.564.112h6.44v-3.751h-5.824c-1.149,0-2.689.027-3.92.139-.308.028-.393-.112-.448-.5a14.833,14.833,0,0,1-.113-1.792c1.569.084,2.912.113,4.453.113h5.852Z" transform="translate(-0.042 -0.355)" fill="#333"/>
    <path id="パス_2426" data-name="パス 2426" d="M357.869,3777.726a.419.419,0,0,1,.616-.057,26.84,26.84,0,0,1,5.208,3.836c.224.224.252.337.084.616a13.511,13.511,0,0,1-1.343,1.6c-.252.223-.309.279-.561.027a29.207,29.207,0,0,0-5.488-4.311C356.861,3778.817,357.449,3778.174,357.869,3777.726Zm2.464,14.784a48.915,48.915,0,0,0,8.064-5.153,41.373,41.373,0,0,0,7.616-7.56,8.6,8.6,0,0,0,.616,2.436c.2.449.168.672-.252,1.148a49.579,49.579,0,0,1-6.636,6.244,62.841,62.841,0,0,1-8.428,5.46,9.014,9.014,0,0,0-1.68,1.177.523.523,0,0,1-.867-.029,14.042,14.042,0,0,1-1.737-2.436A15.507,15.507,0,0,0,360.333,3792.51Z" transform="translate(-0.05 -0.355)" fill="#333"/>
    <path id="パス_2427" data-name="パス 2427" d="M387.017,3798.138c-2.548,0-3.416.055-3.556.055-.224,0-.252-.028-.252-.252v-1.484c0-.252.028-.279.252-.279.14,0,1.008.055,3.556.055h3.92c-.252-.56-.532-1.064-.812-1.568-.14-.224-.084-.279.28-.392l1.26-.335c.308-.084.364-.029.476.167a16.759,16.759,0,0,1,1.064,2.128h4.872c.2-.336.336-.671.5-1.036a6.856,6.856,0,0,0,.448-1.343,18.96,18.96,0,0,1,2.016.5c.2.056.308.14.308.281,0,.111-.084.2-.224.307a2.213,2.213,0,0,0-.5.672,7.042,7.042,0,0,1-.364.616h4.06c2.548,0,3.388-.055,3.556-.055.2,0,.224.027.224.279v1.484c0,.224-.028.252-.224.252-.168,0-1.008-.055-3.556-.055Zm.5-10.949c-2.632,0-3.5.056-3.64.056-.252,0-.28-.027-.28-.224v-1.4c0-.252.028-.279.28-.279.14,0,1.008.055,3.64.055h16.324c2.632,0,3.471-.055,3.639-.055.225,0,.253.027.253.279v1.4c0,.2-.028.224-.253.224-.168,0-1.007-.056-3.639-.056Zm9.884-11.507a14.455,14.455,0,0,0-.112-2.128c.784.027,1.428.084,1.988.139.224.029.308.084.308.224a.79.79,0,0,1-.112.42,4.058,4.058,0,0,0-.14,1.345v.084h1.736c2.827,0,3.808-.057,3.976-.057.223,0,.252.028.252.252,0,.168-.056.757-.056,2.324v3.193c0,1.567.056,2.156.056,2.295,0,.281-.029.308-.252.308-.168,0-1.149-.056-3.976-.056H390.265c-2.8,0-3.808.056-3.976.056-.224,0-.252-.027-.252-.308,0-.139.056-.728.056-2.295v-3.193c0-1.567-.056-2.128-.056-2.324,0-.224.028-.252.252-.252.168,0,1.176.057,3.976.057h1.54a10.6,10.6,0,0,0-.168-2.212c.784.027,1.456.084,2.044.139.224.029.336.084.336.224a1.169,1.169,0,0,1-.112.448,3.335,3.335,0,0,0-.168,1.344v.057H397.4Zm2.212,12.88c2.688,0,3.64-.057,3.808-.057.223,0,.252.028.252.252,0,.169-.056.5-.056,1.624v1.513c0,1.063.056,1.427.056,1.595,0,.224-.029.252-.252.252-.168,0-1.12-.055-3.808-.055h-8.008c-2.66,0-3.612.055-3.78.055-.252,0-.28-.028-.28-.252,0-.168.055-.532.055-1.595v-1.513c0-1.119-.055-1.428-.055-1.624,0-.224.028-.252.28-.252.168,0,1.12.057,3.78.057Zm-7.812-9.409v-1.82h-3.7v1.82Zm0,3.332v-1.931h-3.7v1.931Zm9.6,7.644h-11.62v2.017h11.62Zm-7.672-10.976H397.4v-1.82h-3.668Zm3.668,3.332v-1.931h-3.668v1.931Zm1.932-5.152v1.82H403.2v-1.82Zm3.864,3.221h-3.864v1.931H403.2Z" transform="translate(-0.058 -0.355)" fill="#333"/>
    <path id="パス_2428" data-name="パス 2428" d="M416.977,3781.365c0,.224-.028.252-.281.252h-1.708c-.223,0-.252-.028-.252-.252,0-.168.057-.559.057-2.912v-.868c0-.867-.057-1.288-.057-1.456,0-.252.029-.279.252-.279.2,0,1.149.055,3.781.055h6.3a9.6,9.6,0,0,0-.2-2.324,20.711,20.711,0,0,1,2.323.141c.225.027.393.111.393.252a1.442,1.442,0,0,1-.168.531,4.481,4.481,0,0,0-.141,1.4H434c2.66,0,3.611-.055,3.779-.055.225,0,.252.027.252.279,0,.168-.055.589-.055,1.288v1.036c0,2.353.055,2.744.055,2.912,0,.224-.027.252-.252.252h-1.708c-.252,0-.279-.028-.279-.252V3777.7H416.977Zm-.533,17.948c-.252,0-.279-.028-.279-.251,0-.168.056-.84.056-4.705v-2.128c0-2.127-.056-2.883-.056-3.051,0-.225.027-.252.279-.252.141,0,1.12.055,3.92.055h12.069c2.8,0,3.78-.055,3.92-.055.251,0,.28.027.28.252,0,.168-.056.9-.056,2.632v2.491c0,3.864.056,4.536.056,4.677,0,.2-.029.223-.28.223h-1.624c-.224,0-.252-.028-.252-.223V3798H418.349v1.065c0,.223-.029.251-.252.251Zm1.9-6.664h6.887v-2.016h-6.887Zm6.887,3.7v-2.1h-6.887v2.1Zm-2.771-15.372c-2.66,0-3.556.055-3.7.055-.281,0-.308-.028-.308-.252v-1.259c0-.225.027-.252.308-.252.14,0,1.036.055,3.7.055h7.84c2.66,0,3.555-.055,3.7-.055.279,0,.308.027.308.252v1.259c0,.224-.029.252-.308.252-.141,0-1.036-.055-3.7-.055Zm7.28,1.567c2.6,0,3.5-.056,3.668-.056.252,0,.279.029.279.252,0,.2-.055.533-.055,1.624v1.233c0,1.119.055,1.483.055,1.624,0,.252-.027.279-.279.279-.168,0-1.064-.056-3.668-.056h-6.8c-2.631,0-3.527.056-3.668.056-.251,0-.279-.027-.279-.279,0-.169.056-.505.056-1.624v-1.233c0-1.091-.056-1.427-.056-1.624,0-.223.028-.252.279-.252.141,0,1.037.056,3.668.056Zm1.764,1.54H421.177v1.82h10.332Zm-4.229,6.552v2.016h7.2v-2.016Zm7.2,5.713v-2.1h-7.2v2.1Z" transform="translate(-0.067 -0.355)" fill="#333"/>
    <path id="パス_2429" data-name="パス 2429" d="M457.353,3778.846c.252-.084.336-.057.392.2a14.993,14.993,0,0,1,.168,1.652c.028.252-.056.308-.28.336-1.512.308-2.968.533-4.648.784a71.7,71.7,0,0,1-5.572,11.9c-.14.28-.28.252-.532.112a14.1,14.1,0,0,1-1.512-1.092c-.2-.168-.223-.308-.028-.56a51.152,51.152,0,0,0,5.068-10.136c-1.12.084-2.1.141-3.164.141a14.217,14.217,0,0,1-1.484-.057c-.28,0-.308-.056-.364-.363a9.746,9.746,0,0,1-.224-1.82c1.008.083,1.708.112,2.38.112a31.293,31.293,0,0,0,3.5-.2c.336-1.121.56-2.1.784-3.22a10.061,10.061,0,0,0,.225-2.213,19.078,19.078,0,0,1,2.687.56.383.383,0,0,1,.336.365.628.628,0,0,1-.224.475,2.174,2.174,0,0,0-.42.924c-.28.868-.56,1.933-.84,2.828A32.652,32.652,0,0,0,457.353,3778.846Zm1.26,7.084a11.868,11.868,0,0,0-.2-1.876,13.013,13.013,0,0,1,2.464.42.413.413,0,0,1,.364.391,1.992,1.992,0,0,1-.168.532,3.392,3.392,0,0,0-.112,1.26,45.293,45.293,0,0,0,.308,4.985,22.468,22.468,0,0,1,5.152,2.715c.252.168.252.252.14.5a10.762,10.762,0,0,1-.924,1.68c-.168.225-.308.2-.476.028a17.207,17.207,0,0,0-3.892-2.548c.028,2.829-1.652,4.256-5.124,4.256-2.52,0-4.7-1.316-4.7-3.639,0-2.269,2.044-3.809,4.956-3.809a12.166,12.166,0,0,1,2.52.28C458.753,3789.346,458.641,3787.357,458.613,3785.93Zm-2.156,6.859c-1.9,0-2.94.756-2.94,1.765,0,1.147.924,1.679,2.66,1.679,1.988,0,2.856-1.036,2.856-2.379a3.6,3.6,0,0,0-.028-.617A8.386,8.386,0,0,0,456.457,3792.789Zm4.956-12.992c.168-.252.28-.279.532-.168a20.2,20.2,0,0,1,5.488,2.633c.252.168.252.279.084.559a8.494,8.494,0,0,1-.9,1.54c-.14.224-.224.224-.42.084a20.382,20.382,0,0,0-5.768-2.94C460.8,3780.861,461.133,3780.218,461.413,3779.8Z" transform="translate(-0.076 -0.355)" fill="#333"/>
    <path id="パス_2430" data-name="パス 2430" d="M487.117,3785.117a16.332,16.332,0,0,1-1.708,7.28,13.313,13.313,0,0,1-4.956,5.292c-.448.281-.784.42-1.12.084a4.7,4.7,0,0,0-1.988-1.175c2.772-1.485,4.368-2.912,5.515-5.069a13.312,13.312,0,0,0,1.429-6.412H478.8c-1.4,0-2.828.084-4.116.168-.28.028-.336-.139-.364-.475a13.03,13.03,0,0,1-.2-2.1c1.6.112,3.08.141,4.676.141h12.292c2.044,0,3.555-.029,5.263-.141.252,0,.309.112.309.477v1.624c0,.307-.141.419-.393.419-1.567-.056-3.3-.112-5.151-.112Zm-5.013-6.328c-1.259,0-2.547.028-3.975.112-.336.029-.392-.112-.42-.42a20.338,20.338,0,0,1-.168-2.1c1.792.112,3.3.14,4.563.14h5.8c1.513,0,3.277,0,4.733-.083.252-.029.307.112.307.419a6.954,6.954,0,0,1,0,1.54c0,.365-.055.449-.336.449-1.511-.057-3.219-.057-4.7-.057Z" transform="translate(-0.085 -0.355)" fill="#333"/>
    <path id="パス_2431" data-name="パス 2431" d="M518.254,3779.182a2.274,2.274,0,0,0,1.4-.309c.225-.168.477-.111.756.084a10.081,10.081,0,0,1,1.485,1.177.617.617,0,0,1,.055,1.008,2.877,2.877,0,0,0-.811,1.063,38.757,38.757,0,0,1-5.46,8.708,35.088,35.088,0,0,1-8.653,7.141.608.608,0,0,1-.811-.113,5.47,5.47,0,0,0-2.1-1.036,31.042,31.042,0,0,0,9.269-7.28,30.044,30.044,0,0,0,5.235-8.315l-7.447.223a41.253,41.253,0,0,1-5.433,5.88.639.639,0,0,1-.924.084,5.592,5.592,0,0,0-1.988-.84,30.9,30.9,0,0,0,7.393-8.231,9.245,9.245,0,0,0,1.511-3.613,9.759,9.759,0,0,1,2.632,1.205.445.445,0,0,1-.027.811,3.329,3.329,0,0,0-.757.868c-.391.588-.672,1.065-1.035,1.6Z" transform="translate(-0.093 -0.355)" fill="#333"/>
    <path id="パス_2432" data-name="パス 2432" d="M544.826,3777.529a.5.5,0,0,1,.112.813,6.616,6.616,0,0,0-1.232,1.987,45.764,45.764,0,0,1-5.012,8.54,33.855,33.855,0,0,1-8.372,7.924.65.65,0,0,1-.9-.027,6.051,6.051,0,0,0-2.073-1.093,33.269,33.269,0,0,0,9.044-8.148,36.086,36.086,0,0,0,4.537-7.9,12.972,12.972,0,0,0,.952-3.5A15.036,15.036,0,0,1,544.826,3777.529Z" transform="translate(-0.1 -0.355)" fill="#333"/>
    <path id="パス_2433" data-name="パス 2433" d="M567.954,3777.921a3.275,3.275,0,0,0,1.736-.252.575.575,0,0,1,.644.112,8.116,8.116,0,0,1,1.456,1.485c.2.279.141.475-.168.755a4.929,4.929,0,0,0-.924,1.121,45.313,45.313,0,0,1-3.891,5.683,60.52,60.52,0,0,1,7.9,6.916c.252.252.28.364.028.7a15.565,15.565,0,0,1-1.372,1.372c-.223.224-.391.2-.616-.056a48.957,48.957,0,0,0-7.5-7.028,42.125,42.125,0,0,1-9.771,7.644c-.364.2-.616.28-.868-.027a5.907,5.907,0,0,0-1.876-1.372,34.958,34.958,0,0,0,10.107-7.42,33.917,33.917,0,0,0,5.292-7.281h-7.867c-1.54,0-2.857.084-4.2.168-.252,0-.309-.112-.365-.391a12.328,12.328,0,0,1-.2-2.24c1.429.111,2.744.111,4.508.111Z" transform="translate(-0.108 -0.355)" fill="#333"/>
    <path id="パス_2434" data-name="パス 2434" d="M591.95,3791.7c-1.2,2.073-2.548,3.025-4.4,3.025-2.24,0-4.451-2.437-4.451-6.721a10.259,10.259,0,0,1,3.219-7.279,12.009,12.009,0,0,1,8.68-3.277c6.5,0,10.276,3.836,10.276,9.3,0,4.844-2.856,8.344-8.764,9.968a.738.738,0,0,1-.951-.392,4.05,4.05,0,0,0-1.457-1.343c5.208-1.12,8.624-3.668,8.624-8.6a6.8,6.8,0,0,0-7.167-6.8C595,3784.306,593.687,3788.813,591.95,3791.7Zm-4.06-9.435a8.394,8.394,0,0,0-2.464,5.655c0,2.856,1.12,4.2,2.072,4.2.868,0,1.624-.5,2.408-1.9a30.363,30.363,0,0,0,3.164-10.527A9.039,9.039,0,0,0,587.89,3782.262Z" transform="translate(-0.117 -0.355)" fill="#333"/>
    <path id="パス_2435" data-name="パス 2435" d="M639.763,3767.354c2.879,0,3.758-.079,4-.079.36,0,.52.079.52.475a21.94,21.94,0,0,0,.239,4.392c1.241,10.684,6.16,18.836,15.558,24.455a11.677,11.677,0,0,0-2.359,3.007c-.321.634-.481.91-.72.91-.2,0-.48-.2-.92-.513-7.279-5.3-11.719-11.753-13.718-19.628a33.33,33.33,0,0,1-14.717,19.707c-.48.276-.72.474-.92.474-.281,0-.44-.316-.84-.95a9.518,9.518,0,0,0-2.36-2.611c9.918-4.828,15.558-14.285,16.078-25.6h-4.959c-2.88,0-3.76.079-4,.079-.44,0-.48-.039-.48-.436v-3.323c0-.4.04-.436.48-.436.24,0,1.12.079,4,.079Z" transform="translate(-0.132)" fill="#d40e64"/>
    <path id="パス_2436" data-name="パス 2436" d="M673.324,3790.856c-3.559,0-4.759.079-5,.079-.4,0-.44-.04-.44-.436v-3.049c0-.4.04-.437.44-.437.24,0,1.44.08,5,.08h10.519a28.372,28.372,0,0,0-.24-3.367l2.319.238a24.992,24.992,0,0,0,3.64-2.852h-8.639c-3.68,0-4.959.08-5.159.08-.4,0-.44-.04-.44-.4v-2.772c0-.4.04-.436.44-.436.2,0,1.479.079,5.159.079h10.838a2.526,2.526,0,0,0,.96-.079,1.332,1.332,0,0,1,.52-.157c.32,0,.72.316,1.72,1.267.8.832,1.119,1.347,1.119,1.7a.63.63,0,0,1-.479.633,9.62,9.62,0,0,0-1.92,1.308,47.425,47.425,0,0,1-5.6,4.119v.634h10c3.56,0,4.759-.08,5-.08.4,0,.441.04.441.437v3.049c0,.4-.041.436-.441.436-.24,0-1.439-.079-5-.079h-10v2.574c0,.951.08,2.415.08,3.445,0,1.7-.32,2.575-1.28,3.248-1.04.633-2.279.871-6.119.871-1.24,0-1.24.04-1.56-1.15a11.913,11.913,0,0,0-1.2-2.89,39.335,39.335,0,0,0,4.279.238c1.119,0,1.56-.277,1.56-1.386v-4.95Zm2.48-25.345c.52-.2.639-.119.88.2a29.642,29.642,0,0,1,2.679,4.119c.2.4.2.435-.36.634l-2.64.951h8.32a30.441,30.441,0,0,0-2.281-4.95c-.239-.4-.119-.437.361-.6l2.639-.792c.48-.158.6-.079.8.238a30.734,30.734,0,0,1,2.2,4.595c.12.355.12.4-.439.594l-2.6.911h6.159a31.106,31.106,0,0,0,1.959-4,12.9,12.9,0,0,0,.6-2.1,20.2,20.2,0,0,1,3.959,1.189c.36.157.56.355.56.593a.746.746,0,0,1-.4.594,2.985,2.985,0,0,0-.76.911c-.56,1.03-1.04,1.861-1.639,2.812h1.039c3.72,0,5.04-.079,5.279-.079.441,0,.481.04.481.435,0,.238-.08.99-.08,2.139v1.822c0,3.564.08,4.2.08,4.435,0,.436-.04.475-.481.475H698.96c-.4,0-.439-.04-.439-.475v-5.227h-25.6v5.227c0,.4-.04.436-.441.436h-3.159c-.44,0-.48-.04-.48-.436,0-.277.08-.911.08-4.475v-1.467c0-1.464-.08-2.177-.08-2.455,0-.4.04-.435.48-.435.239,0,1.56.079,5.279.079h1.08a22.927,22.927,0,0,0-2.56-4.436c-.239-.356-.2-.436.28-.593Z" transform="translate(-0.172)" fill="#d40e64"/>
    <path id="パス_2437" data-name="パス 2437" d="M717.484,3775.69c-3.559,0-4.759.079-5.039.079-.4,0-.44-.04-.44-.475v-3.208c0-.436.04-.475.44-.475.28,0,1.48.079,5.039.079h9.8v-2.574a19.633,19.633,0,0,0-.279-3.88c1.439,0,3,.079,4.359.2.4.04.64.2.64.435a2.4,2.4,0,0,1-.24.832,5.588,5.588,0,0,0-.241,2.3v2.692H742.04c3.6,0,4.8-.079,5.039-.079.36,0,.4.04.4.475v3.208c0,.436-.04.475-.4.475-.24,0-1.439-.079-5.039-.079H728.2c-.04,1.743-.16,3.366-.319,4.87h9.8c3.359,0,4.479-.079,4.719-.079.4,0,.48.119.48.553-.08,1.03-.12,2.1-.16,3.09a72.049,72.049,0,0,1-1.32,11.76c-.879,3.762-2.439,4.91-6.439,4.91-.72,0-1.839,0-3.159-.079-1.12-.079-1.12-.158-1.28-1.425a8.725,8.725,0,0,0-.879-3.049,39.258,39.258,0,0,0,4.919.356,2.225,2.225,0,0,0,2.359-1.98,47.693,47.693,0,0,0,1.24-10.058H727.282c-1.519,7.325-4.919,11.959-11.718,15.958a2.847,2.847,0,0,1-.96.437c-.279,0-.439-.278-.8-.872a8.672,8.672,0,0,0-2.4-2.416c9.2-4.475,12.2-9.94,12.279-21.978Z" transform="translate(-0.172)" fill="#d40e64"/>
    <path id="パス_2438" data-name="パス 2438" d="M757.285,3775.928c.279-.355.44-.4.8-.2a34.88,34.88,0,0,1,5.8,4.078.419.419,0,0,1,.2.357.672.672,0,0,1-.2.436l-1.8,2.415c-.2.278-.319.4-.439.4s-.2-.079-.361-.2a29.956,29.956,0,0,0-5.759-4.4c-.16-.119-.24-.2-.24-.317s.08-.237.24-.436Zm.04,19.72a62.692,62.692,0,0,0,3.679-9.543,20.9,20.9,0,0,0,2.32,1.98c.64.435.84.633.84.99a4.2,4.2,0,0,1-.2.91,85.668,85.668,0,0,1-3.4,8.95,10.382,10.382,0,0,0-.6,1.544c-.08.317-.24.516-.481.516a1.51,1.51,0,0,1-.719-.2,23.453,23.453,0,0,1-3.28-2.177A13.589,13.589,0,0,0,757.325,3795.648Zm1.76-29.659c.319-.4.439-.4.76-.2a34.916,34.916,0,0,1,5.759,4.2c.28.238.32.358-.041.832l-1.8,2.416c-.28.4-.36.436-.72.158a28.977,28.977,0,0,0-5.759-4.593c-.36-.2-.36-.277,0-.713Zm11.758,19.76c-3.92,0-5.32.079-5.56.079-.4,0-.439-.04-.439-.475v-3.088c0-.4.04-.437.439-.437.24,0,1.64.079,5.56.079h4.6v-5.781h-2.759c-3.84,0-5.16.079-5.36.079-.4,0-.439-.04-.439-.435v-3.05c0-.4.039-.436.439-.436.2,0,1.52.08,5.36.08h2.759v-1.743a37.928,37.928,0,0,0-.28-5.268c1.52.041,2.919.12,4.239.239.4.04.64.237.64.474a2.1,2.1,0,0,1-.2.792,11.645,11.645,0,0,0-.279,3.644v1.862h4.359c3.839,0,5.159-.08,5.4-.08.4,0,.441.041.441.436v3.05c0,.4-.04.435-.441.435-.239,0-1.559-.079-5.4-.079h-4.359v5.781h6c3.918,0,5.318-.079,5.558-.079.36,0,.4.04.4.437v3.088c0,.436-.041.475-.4.475-.24,0-1.64-.079-5.558-.079h-8.04a95.392,95.392,0,0,1-3.519,9.306c3.519-.318,6.679-.674,9.919-1.15-.92-1.345-1.92-2.653-2.92-3.88-.28-.356-.24-.475.24-.751l2.159-1.268c.4-.238.521-.2.8.08a51.24,51.24,0,0,1,7.079,10.216c.2.4.2.435-.28.753l-2.479,1.464a1.119,1.119,0,0,1-.52.238c-.12,0-.2-.119-.28-.317-.56-1.068-1.12-2.138-1.72-3.207-5.919.99-11.158,1.662-17.637,2.3a4,4,0,0,0-1.479.357,1.252,1.252,0,0,1-.721.278c-.319,0-.519-.238-.64-.635a35.6,35.6,0,0,1-.879-3.92c1.719,0,2.96-.039,4.2-.158a3.442,3.442,0,0,0,.639-.04,61.777,61.777,0,0,0,3.6-9.662Z" transform="translate(-0.172)" fill="#d40e64"/>
  </g>
</svg>
