<svg xmlns="http://www.w3.org/2000/svg" width="65" height="74" viewBox="0 0 65 74">
  <g id="グループ_2020" data-name="グループ 2020" transform="translate(-327.214 -3896.16)">
    <path id="パス_2677" data-name="パス 2677" d="M327.214,3911.8a15.812,15.812,0,0,1,1.284-6.541,15.332,15.332,0,0,1,3.442-4.906,14.836,14.836,0,0,1,4.984-3.117,16.8,16.8,0,0,1,11.817,0,14.846,14.846,0,0,1,4.984,3.117,15.332,15.332,0,0,1,3.442,4.906,15.828,15.828,0,0,1,1.285,6.541v42.724a15.821,15.821,0,0,1-1.285,6.541,15.287,15.287,0,0,1-3.442,4.907,14.8,14.8,0,0,1-4.984,3.117,16.8,16.8,0,0,1-11.817,0,14.794,14.794,0,0,1-4.984-3.117,15.288,15.288,0,0,1-3.442-4.907,15.806,15.806,0,0,1-1.284-6.541Zm10.48,42.724a5.13,5.13,0,0,0,1.44,3.731,5.359,5.359,0,0,0,7.4,0,5.141,5.141,0,0,0,1.439-3.731V3911.8a5.144,5.144,0,0,0-1.439-3.73,5.357,5.357,0,0,0-7.4,0,5.132,5.132,0,0,0-1.44,3.73Z" fill="#d40e64"/>
    <path id="パス_2678" data-name="パス 2678" d="M381.983,3969.543v-61.728L371.5,3915.48v-11.039l10.481-7.664h10.482v72.766Z" transform="translate(-0.251 0)" fill="#d40e64"/>
  </g>
</svg>
