<svg xmlns="http://www.w3.org/2000/svg" width="21.574" height="112.69" viewBox="0 0 21.574 112.69">
  <g id="グループ_1972" data-name="グループ 1972" transform="translate(-1266.984 -1645.53)">
    <path id="パス_2514" data-name="パス 2514" d="M1283.717,1754.151c-4.309-.97-.606,5.178-6.052,3.891-5.983-1.414-10.3-4.529-9.942-7.349.864-6.916,12.536-6.052,17.723-3.458C1288.394,1748.709,1290.619,1755.7,1283.717,1754.151Z" fill="rgba(0,0,0,0.2)" opacity="0.37"/>
    <g id="グループ_1971" data-name="グループ 1971">
      <path id="パス_2515" data-name="パス 2515" d="M1274.624,1654.253l-2.417,2.67s2.606,5.732-.616,15.578,7.575,2.339,7.86,1.707,6.511-4.385,6.511-4.385a9.584,9.584,0,0,1-.944-9.432C1287.27,1654.857,1274.624,1654.253,1274.624,1654.253Z" fill="#002b6a" fill-rule="evenodd"/>
      <g id="グループ_1969" data-name="グループ 1969">
        <path id="パス_2516" data-name="パス 2516" d="M1279.382,1736.623c-.8-5.951-1.734-10.025-1.334-14.16.3-3.13.454-5.155.495-6.706.332-5.4,6.1,1.558,6.035,6.151-.078,6.005-1.173,11.836-1.629,18.005.046.432.094.875.132,1.293.253,2.842.094,4.179.589,5.762a17.977,17.977,0,0,0,1.3,2.64s-2.061.971-2.293.991-3.3-1.006-3.3-1.006-1.158-5.2-1.142-5.491c.187-3.353-1.639-3.1.417-5.533A3.493,3.493,0,0,0,1279.382,1736.623Z" fill="#f79b69" fill-rule="evenodd"/>
        <path id="パス_2517" data-name="パス 2517" d="M1284.111,1747.833c1.094,1.608,1.393,2.5.906,3.4-.27.5-1.31.655-2.468.5a8.554,8.554,0,0,1-2.741-.767,12.561,12.561,0,0,1-.591-1.2,52.706,52.706,0,0,0-1.125-5.8l-.254,4.871-.441-.074a43.362,43.362,0,0,0-.46-5.33c-.093-.6-.34-1.194-.359-1.526-.082-1.444,1.055-2.34,1.93-3.347.4,2.674.324,8.238,2.87,9.623A2.357,2.357,0,0,0,1284.111,1747.833Z" fill="#c0301e" fill-rule="evenodd"/>
        <path id="パス_2518" data-name="パス 2518" d="M1273.447,1740.979c-.834-6.787-1.958-11.2-1.526-15.678.274-2.84.425-4.771.48-6.262.508-13.523,7.316-6.675,6.954-.675-.072,2.865-.876,4.246-.905,6.382-.066,5.1-.849,10.086-1.368,15.248.053,1.524.236,3,.36,4.385.255,2.842.095,4.18.59,5.763a18.069,18.069,0,0,0,1.3,2.64s-2.06.971-2.292.991-3.3-1.006-3.3-1.006-1.159-5.2-1.143-5.492c.187-3.352-1.638-3.1.417-5.532A2.789,2.789,0,0,0,1273.447,1740.979Z" fill="#fab585" fill-rule="evenodd"/>
        <path id="パス_2519" data-name="パス 2519" d="M1278.473,1751.007c1.095,1.607,1.394,2.5.907,3.4-.27.495-1.311.653-2.468.5a8.608,8.608,0,0,1-2.742-.767,12.8,12.8,0,0,1-.591-1.2,52.27,52.27,0,0,0-1.125-5.8l-.254,4.871-.44-.074a43.12,43.12,0,0,0-.461-5.329c-.093-.6-.339-1.194-.358-1.526-.082-1.445,1.054-2.34,1.93-3.347.4,2.674.323,8.238,2.87,9.623A2.358,2.358,0,0,0,1278.473,1751.007Z" fill="#c0301e" fill-rule="evenodd"/>
      </g>
      <path id="パス_2520" data-name="パス 2520" d="M1273.307,1690.8a5.5,5.5,0,0,1-.987,2.516,25.083,25.083,0,0,0-2.29,6.262c-1.034,6.58.373,9.659.907,21.112,0,0,1.9,1.748,2.762,1.794,6,.319,10.432-3.519,11.544-4.589,2.6-19.578,1.8-18.947.792-22.838-.547-2.12-1.653-4.05-1.513-5.04C1281.693,1692.724,1277.033,1692.809,1273.307,1690.8Z" fill="#002b6a" fill-rule="evenodd"/>
      <path id="パス_2521" data-name="パス 2521" d="M1281.139,1649.092c2.612.252,4.4.921,5.068,2.237,2.073,4.1,1.418,8.344-3.451,13.571-2-.732-2.995.8-6.194-8.538Z" fill="#05345e" fill-rule="evenodd"/>
      <path id="パス_2522" data-name="パス 2522" d="M1276.782,1660.824c.11,1.13,1.607,3.315.252,6.084l6.363,7.976-.264-6.112c-.38-2.442-.668-4.183-.069-6.315Z" fill="#f8a773" fill-rule="evenodd"/>
      <path id="パス_2523" data-name="パス 2523" d="M1277.485,1670.325l-3.887-.129,10.911,12.594,3.626-4.81-1.691-6.7-1.889-1.89-1.632,2.7Z" fill="#dbfff9" fill-rule="evenodd"/>
      <path id="パス_2524" data-name="パス 2524" d="M1286.454,1694.694c-1.139-4.41-1.2-8.448.393-12.184a8.141,8.141,0,0,0,1.535-2.4,13.494,13.494,0,0,0,.176-2.111s-.943-4.258-1.69-6.7a8.835,8.835,0,0,0-1.107-2.907,4.385,4.385,0,0,0-1.77-1.267c-.077-.029,1.023,8.047,1.023,8.047s-4.231,16.383-2.354,19.636c0,0,.749,1.7,1.273,1.67C1284.858,1696.418,1286.454,1694.694,1286.454,1694.694Z" fill="#013470" fill-rule="evenodd"/>
      <g id="グループ_1970" data-name="グループ 1970">
        <path id="パス_2525" data-name="パス 2525" d="M1279.707,1668.758l3.426-1.431v1.444l-.963,1.368Z" fill="#c0301e" fill-rule="evenodd"/>
        <path id="パス_2526" data-name="パス 2526" d="M1280.089,1668.6l2.98-1.759.027.708Z" fill="#e23d1e" fill-rule="evenodd"/>
        <path id="パス_2527" data-name="パス 2527" d="M1278.281,1667.854c.051.134,4.458,1.122,4.458,1.122l-1.452,1.94-1.836-1.31Z" fill="#ff6835" fill-rule="evenodd"/>
        <path id="パス_2528" data-name="パス 2528" d="M1282.924,1667.857l-.644,1.555-1.672,1.278,2.316,1.395.13-2.941Z" fill="#e23d1e" fill-rule="evenodd"/>
      </g>
      <path id="パス_2529" data-name="パス 2529" d="M1276.5,1667.327a8.513,8.513,0,0,1-3.243,2.708,3.659,3.659,0,0,0-1.839,3.155c-.247,2.565.8,6,1.439,8.676.584,2.457,1.054,4.619.621,5.9-.83,2.447-4.676,7.868-3.8,12.2,0,0,5.282.063,8.63-1.224,1.621-.623,3.655-1.448,4.344-3.16,2.114-5.249.985-16.689.985-16.689l-2.407-3.784S1277.366,1668.584,1276.5,1667.327Z" fill="#0f447a" fill-rule="evenodd"/>
      <path id="パス_2530" data-name="パス 2530" d="M1277.091,1666.071l2.36,3.535,3.473,2.478-3.473,2.123-2.961-6.47Z" fill="#fff" fill-rule="evenodd"/>
      <path id="パス_2531" data-name="パス 2531" d="M1282.739,1666.036l.315,3.107-.13,2.941,2.483.7-1.478-5.91Z" fill="#fff" fill-rule="evenodd"/>
      <path id="パス_2532" data-name="パス 2532" d="M1273.874,1700.554l-1.746,2.595-.18,3.118,2.363,1.473,1.014-.321v-3.863Z" fill="#fab585" fill-rule="evenodd"/>
      <path id="パス_2533" data-name="パス 2533" d="M1274.1,1671.3a9.062,9.062,0,0,0-1.7-.6c-.084.1-1.557.143-2.241,3.59s-3.166,13.417-3.166,13.417l4.341,15.724,3.3-2.126-2.288-14.184,2.241-9.886.047-4.136Z" fill="#155588" fill-rule="evenodd"/>
      <path id="パス_2534" data-name="パス 2534" d="M1285.061,1650.908c2.162,3.9.918,9.345.918,9.345l-1.031,2.882-1.446,2.6-2.005.1-3.449-2.229-.5-1.62s-2.281-.436-2.347-.912l-1.1-7.97Z" fill="#fab585" fill-rule="evenodd"/>
      <path id="パス_2535" data-name="パス 2535" d="M1277.554,1660.2a3.236,3.236,0,0,0-.488-1.631l-.825-.267a1.707,1.707,0,0,0-.615.3l-.1,1.054s.905,2.028,1.3,2.188c.645.6.761,2.235.394,3.382-2.409-.305-4.995-5.211-5.005-9.04-.013-4.98,3.288-9.356,9.69-7.788a4.7,4.7,0,0,1,3.942,3.351C1287.025,1656.341,1279.25,1656.717,1277.554,1660.2Z" fill="#002b6a" fill-rule="evenodd"/>
      <path id="パス_2536" data-name="パス 2536" d="M1274.624,1649.864l1.867-3.611.9-.723h2.822l2.709,2.167s1.988,3.328,1.988,3.906a36.687,36.687,0,0,1-.839,3.688l-1.413.7-4.184-2.289Z" fill="#e23d1e"/>
      <path id="パス_2537" data-name="パス 2537" d="M1282.66,1652.254l-6.169-6,.9-.723,4.438,4.483.829-1.121-1.067-2.26,1.8,2.46Z" fill="#c0301e"/>
      <path id="パス_2538" data-name="パス 2538" d="M1282.992,1682.585c0,.358-.18.648-.4.648s-.4-.29-.4-.648.18-.649.4-.649S1282.992,1682.227,1282.992,1682.585Z" fill="#f0ae00"/>
      <path id="パス_2539" data-name="パス 2539" d="M1283.242,1686.063c0,.358-.179.648-.4.648s-.4-.29-.4-.648.18-.648.4-.648S1283.242,1685.7,1283.242,1686.063Z" fill="#f0ae00"/>
      <path id="パス_2540" data-name="パス 2540" d="M1283.217,1689.564c-.021.357-.216.637-.437.624s-.384-.312-.364-.67.215-.637.437-.624S1283.237,1689.206,1283.217,1689.564Z" fill="#f0ae00"/>
      <path id="パス_2541" data-name="パス 2541" d="M1282.833,1692.912c-.073.351-.307.6-.524.553s-.334-.365-.262-.716.308-.6.525-.553S1282.905,1692.561,1282.833,1692.912Z" fill="#f0ae00"/>
      <path id="パス_2542" data-name="パス 2542" d="M1283.141,1653.424l-.423-.409-1.35.911,1.838-.1.9-1.574-.511.258Z" fill="#f2af00"/>
    </g>
  </g>
</svg>
