<svg xmlns="http://www.w3.org/2000/svg" width="216.491" height="118.696" viewBox="0 0 216.491 118.696">
  <g id="グループ_4081" data-name="グループ 4081" transform="translate(-1683.616 -1459.854)">
    <path id="パス_6861" data-name="パス 6861" d="M1692.328,1481.886a9.284,9.284,0,0,0,4.572-.792q1.258-.792,1.26-3.672V1470.8a3.581,3.581,0,0,0-.972-2.592,3.481,3.481,0,0,0-2.628-1.008,3.1,3.1,0,0,0-2.772,1.224,4.244,4.244,0,0,0-.828,2.376v4.176h-7.344v-4.248a10.689,10.689,0,0,1,.863-4.248,10.372,10.372,0,0,1,2.377-3.457,11.842,11.842,0,0,1,3.528-2.3,10.845,10.845,0,0,1,4.32-.864,9.6,9.6,0,0,1,5,1.188,11.558,11.558,0,0,1,2.988,2.412,15.784,15.784,0,0,1,1.26,1.728,8.446,8.446,0,0,1,.9,2.088,28.709,28.709,0,0,1,.648,7.056q0,2.665-.108,4.32a9.028,9.028,0,0,1-.54,2.736,5.472,5.472,0,0,1-1.4,1.944,16.631,16.631,0,0,1-2.484,1.728,13.983,13.983,0,0,1,2.628,2.015,5.958,5.958,0,0,1,1.332,2.16,11.172,11.172,0,0,1,.5,3.061q.07,1.766.072,4.5,0,2.521-.108,4.176a21.533,21.533,0,0,1-.324,2.736,8.587,8.587,0,0,1-.576,1.944,12,12,0,0,1-.936,1.656,11.643,11.643,0,0,1-3.492,3.347,10.375,10.375,0,0,1-5.58,1.332,12.979,12.979,0,0,1-3.672-.575,10.021,10.021,0,0,1-3.528-1.872,10.123,10.123,0,0,1-2.628-3.385,11.341,11.341,0,0,1-1.044-5.111v-4.177h7.344v3.817a4.169,4.169,0,0,0,.972,2.843,3.65,3.65,0,0,0,5.256,0,4.385,4.385,0,0,0,.972-2.987v-7.345q0-3.023-1.152-3.96a3.213,3.213,0,0,0-1.764-.719,23.711,23.711,0,0,0-2.916-.144Z" fill="#d40e64"/>
    <path id="パス_6862" data-name="パス 6862" d="M1723.069,1484.122c6.16-2.08,11.159-3.319,14.4-3.319,7.159,0,11.758,4.319,11.758,10.6,0,5.24-2.28,8.559-7.038,11.119-3.361,1.879-6.48,2.519-10.16,3.319-.8.16-1.119.12-1.4-.64a7.427,7.427,0,0,0-2.8-3.159c5.279-.88,8.119-1.64,10.839-2.96,3.4-1.72,5.519-4.279,5.519-7.958,0-3.76-2.44-6.079-6.879-6.079-3.6,0-8.359,1.439-14.438,4.119a25.66,25.66,0,0,0-2.76,1.44c-.559.48-.88.6-1.079.6-.4,0-.719-.24-1.16-.84a23.19,23.19,0,0,1-2.559-4.159C1717.07,1486,1718.55,1485.642,1723.069,1484.122Z" fill="#d40e64"/>
    <path id="パス_6863" data-name="パス 6863" d="M1778.988,1482.6c-.92,6.8-2.6,13.037-5,17.237-1.719,3-3.8,4.6-6.8,4.6-3.518,0-7.078-3.758-7.078-10.278a14.738,14.738,0,0,1,4.519-10.4,17.5,17.5,0,0,1,13-5.119c9.6,0,15.237,5.919,15.237,13.878,0,7.438-4.2,12.118-12.317,14.557-.84.24-1.2.08-1.72-.72a8.495,8.495,0,0,0-2.8-2.519c6.759-1.6,12.078-4.4,12.078-11.958a9.083,9.083,0,0,0-8.959-9.278Zm-11.478,3.878a11.519,11.519,0,0,0-3.119,7.4c0,3.679,1.479,5.719,2.718,5.719,1.04,0,1.92-.521,3-2.44a45.7,45.7,0,0,0,4.24-14.318A12.043,12.043,0,0,0,1767.51,1486.481Z" fill="#d40e64"/>
    <path id="パス_6864" data-name="パス 6864" d="M1823.707,1478.8c-3.559,0-4.759.08-5,.08-.4,0-.439-.04-.439-.44v-2.92c0-.4.04-.439.439-.439.24,0,1.44.079,5,.079h9.159c3.6,0,4.8-.079,5-.079.4,0,.44.039.44.439v2.92c0,.4-.04.44-.44.44-.2,0-1.4-.08-5-.08h-3a30.725,30.725,0,0,1-1.279,3h2.759c3.2,0,4.319-.08,4.6-.08.4,0,.441.04.441.439,0,.2-.08,1.6-.08,4.64v10.637c0,3.04.08,4.4.08,4.64,0,.4-.04.44-.441.44-.28,0-1.4-.081-4.6-.081h-6.239c-3.239,0-4.359.081-4.6.081-.44,0-.48-.04-.48-.44,0-.24.08-1.6.08-4.64v-10.477c0-1.72-.04-2.92-.04-3.68a11.563,11.563,0,0,0-1.6,2.68c-.281.559-.441.84-.681.84-.2,0-.439-.16-.88-.521s-.88-.76-1.279-1.159v2.839c0,.4-.04.44-.441.44-.239,0-.839-.08-2.918-.08h-3.041c-2.079,0-2.679.08-2.918.08-.361,0-.4-.04-.4-.44v-2.639c-.639.6-1.279,1.2-1.959,1.72-.4.319-.64.479-.84.479-.28,0-.44-.28-.72-.919a7.959,7.959,0,0,0-1.44-2.32,23.075,23.075,0,0,0,7-7.759,10.037,10.037,0,0,0,1.08-2.719c1.36.2,2.48.36,3.639.559.44.08.641.321.641.561,0,.2-.121.4-.441.6l-.24.161a21.059,21.059,0,0,0,7.439,7.558c-.04-.639-.04-.96-.04-1.08,0-.4.04-.439.48-.439.2,0,1.28.08,4.119.08a19.231,19.231,0,0,0,1.12-3Zm-13.157,15.677v9.958c0,3.16.08,4.68.08,4.919,0,.4-.04.441-.441.441h-3.159c-.4,0-.44-.04-.44-.441,0-.279.08-1.759.08-4.919v-9.958c-2.719,0-3.679.081-3.879.081-.44,0-.48-.04-.48-.441v-2.8c0-.44.04-.48.48-.48.24,0,1.239.08,4.359.08h5.919c3.16,0,4.24-.08,4.48-.08.4,0,.439.04.439.48,0,.24-.08.959-.08,2.639v3.84c0,1.4.08,2.959.08,4a3.717,3.717,0,0,1-.92,2.8c-.6.6-1.4.88-3.479.96-1.279.04-1.279.04-1.52-1.241a10.3,10.3,0,0,0-.88-2.719,13.053,13.053,0,0,0,2.121.12c.639,0,.839-.24.839-1.119v-6.12Zm4.759-9.678a26.605,26.605,0,0,1-4.48-5.879,30.63,30.63,0,0,1-4.438,5.879,26.618,26.618,0,0,0,2.838.08h3.041c2.079,0,2.679-.08,2.918-.08Zm10.918,19.4c.36.24.44.441.44.641,0,.239-.2.359-.48.479-.28.161-.6.4-1.04.72a25.074,25.074,0,0,1-6.439,4,2.756,2.756,0,0,1-.92.319c-.279,0-.479-.24-.92-.919a10.957,10.957,0,0,0-1.68-2,22.684,22.684,0,0,0,6.959-3.559,7.147,7.147,0,0,0,1.321-1.36A19.477,19.477,0,0,1,1826.227,1504.2Zm-2.28-19.076v2.52h8.479v-2.52Zm8.479,8.158v-2.639h-8.479v2.639Zm0,3h-8.479v2.839h8.479Zm-1.2,6.479c.2-.2.319-.28.439-.28s.24.08.4.24A24.105,24.105,0,0,0,1839.1,1507a9.325,9.325,0,0,0-1.639,2.24c-.36.68-.52.959-.8.959a2.783,2.783,0,0,1-1-.4,26.587,26.587,0,0,1-6.318-4.72c-.321-.319-.2-.4.2-.76Z" fill="#d40e64"/>
    <path id="パス_6865" data-name="パス 6865" d="M1854.029,1498.2a32.514,32.514,0,0,0,3.48-1.519,22.825,22.825,0,0,0-.12,2.479c0,1.32,0,1.32-1.16,1.84a10.2,10.2,0,0,1-.959.44,21.947,21.947,0,0,0,4.119-.48,68.386,68.386,0,0,0,10.118-2.76c-.12.8-.239,1.6-.279,2.4,0,1.319,0,1.359-1.2,1.719a93,93,0,0,1-9.118,2.56c-.72.239-1.2.359-1.44.479a1.993,1.993,0,0,1-.84.321c-.239,0-.44-.16-.6-.6a28.54,28.54,0,0,1-.84-3.6c-1.96.84-4.159,1.6-6.239,2.32a4.2,4.2,0,0,0-1.2.559,1.13,1.13,0,0,1-.68.281c-.2,0-.4-.12-.52-.52a30.177,30.177,0,0,1-.84-3.6,20.844,20.844,0,0,0,3.479-.72l.88-.24v-11.678h-.08c-2.479,0-3.239.079-3.479.079-.36,0-.4-.039-.4-.44v-3c0-.439.04-.479.4-.479.28,0,1.04.08,3.559.08v-3.68a43.952,43.952,0,0,0-.28-6.079c1.481.04,2.72.12,4.12.281.36.04.6.24.6.44a3.12,3.12,0,0,1-.16.84c-.2.479-.321,1.479-.321,4.438v3.76c2.04,0,2.72-.08,2.96-.08.4,0,.44.04.44.479v3c0,.4-.04.44-.44.44-.24,0-.92-.039-2.96-.079Zm19.837-14.517a83.235,83.235,0,0,0,1.08,11.278,24.533,24.533,0,0,0,1.64-4.359,22.94,22.94,0,0,0,.76-4.08,31.416,31.416,0,0,1,3.439,1.161c.48.24.68.359.68.719a1.185,1.185,0,0,1-.4.76c-.32.32-.44.84-.879,2.16a36.54,36.54,0,0,1-3.96,8.8c1.12,3.68,2.12,5,2.48,5,.64,0,.959-1.72,1.119-5.119a8.832,8.832,0,0,0,2.04,1.48c1.04.52,1.04.52.92,1.64-.56,5.359-1.72,6.8-4.079,6.8-1.641,0-3.56-1.72-5.239-6.159a32.515,32.515,0,0,1-7.56,6.079,3.045,3.045,0,0,1-1.039.479c-.24,0-.44-.239-.84-.759a7.675,7.675,0,0,0-2.28-2.039,29.1,29.1,0,0,0,10.358-8,81.164,81.164,0,0,1-2.079-15.838h-7.119c-3.879,0-5.2.08-5.439.08-.4,0-.44-.04-.44-.48v-2.92c0-.4.04-.439.44-.439.24,0,1.56.08,5.439.08h7v-.481a44.784,44.784,0,0,0-.32-5.718,35,35,0,0,1,4.039.32c.44.04.641.239.641.439a1.946,1.946,0,0,1-.2.8c-.2.4-.28.84-.28,2.76V1480h2.28c3.919,0,5.279-.08,5.519-.08.4,0,.44.04.44.439v2.92c0,.44-.04.48-.44.48-.24,0-1.6-.08-5.519-.08Zm-8.8,2.96c2.161,0,2.8-.08,3.04-.08.44,0,.48.04.48.44,0,.239-.08,1.039-.08,3.079v3.6c0,2.079.08,2.879.08,3.119,0,.4-.04.44-.48.44-.24,0-.879-.08-3.04-.08h-3.119c-2.159,0-2.8.08-3.079.08-.4,0-.44-.04-.44-.44,0-.28.08-1.04.08-3.119v-3.6c0-2.04-.08-2.84-.08-3.079,0-.4.04-.44.44-.44.279,0,.92.08,3.079.08Zm.281,3.119h-3.64v4.279h3.64Zm12.358-15.438c.48-.159.48-.119.76.2a18.64,18.64,0,0,1,2.279,3.28c.2.36.12.48-.439.68l-1.72.8c-.561.28-.6.239-.8-.2a16.762,16.762,0,0,0-2.2-3.359c-.28-.321-.2-.441.32-.64Z" fill="#d40e64"/>
    <path id="パス_6866" data-name="パス 6866" d="M1900.107,1491.921a4,4,0,1,1-4-4A4.011,4.011,0,0,1,1900.107,1491.921Z" fill="#d40e64"/>
    <path id="パス_6867" data-name="パス 6867" d="M1685.271,1578.55l12.889-44.352H1690.1v5.9h-6.48v-12.816H1705.5v7.344l-12.456,43.92Z" fill="#d40e64"/>
    <path id="パス_6868" data-name="パス 6868" d="M1737.229,1549.6c-.92,6.8-2.6,13.037-5,17.237-1.72,3-3.8,4.6-6.8,4.6-3.519,0-7.078-3.758-7.078-10.278a14.737,14.737,0,0,1,4.518-10.4,17.5,17.5,0,0,1,13-5.119c9.6,0,15.237,5.919,15.237,13.878,0,7.438-4.2,12.118-12.317,14.557-.84.24-1.2.08-1.72-.72a8.5,8.5,0,0,0-2.8-2.519c6.758-1.6,12.078-4.4,12.078-11.958a9.084,9.084,0,0,0-8.959-9.278Zm-11.479,3.878a11.519,11.519,0,0,0-3.119,7.4c0,3.679,1.479,5.719,2.719,5.719,1.04,0,1.92-.521,3-2.44a45.722,45.722,0,0,0,4.239-14.318A12.043,12.043,0,0,0,1725.75,1553.481Z" fill="#d40e64"/>
    <path id="パス_6869" data-name="パス 6869" d="M1763.63,1566.68c-3.56,0-4.759.08-5,.08-.4,0-.441-.04-.441-.441v-3.079c0-.4.04-.44.441-.44.24,0,1.439.08,5,.08h10.518a28.927,28.927,0,0,0-.24-3.4l2.32.241a25.015,25.015,0,0,0,3.639-2.88h-8.638c-3.68,0-4.959.08-5.16.08-.4,0-.439-.04-.439-.4v-2.8c0-.4.04-.441.439-.441.2,0,1.48.08,5.16.08h10.837a2.508,2.508,0,0,0,.96-.08,1.328,1.328,0,0,1,.521-.159c.319,0,.72.319,1.72,1.279.8.84,1.119,1.361,1.119,1.72a.636.636,0,0,1-.48.64,9.576,9.576,0,0,0-1.92,1.32,47.349,47.349,0,0,1-5.6,4.159v.64h10c3.559,0,4.759-.08,5-.08.4,0,.44.04.44.44v3.079c0,.4-.04.441-.44.441-.24,0-1.44-.08-5-.08h-10v2.6c0,.96.08,2.44.08,3.48,0,1.72-.321,2.6-1.28,3.279-1.041.64-2.28.88-6.12.88-1.239,0-1.239.04-1.559-1.16a12.127,12.127,0,0,0-1.2-2.92,38.86,38.86,0,0,0,4.279.24c1.119,0,1.559-.279,1.559-1.4v-5Zm2.479-25.6c.521-.2.64-.12.88.2a30.069,30.069,0,0,1,2.68,4.16c.2.4.2.44-.36.64l-2.64.96h8.319a30.812,30.812,0,0,0-2.28-5c-.239-.4-.119-.44.36-.6l2.64-.8c.48-.161.6-.081.8.24a31.126,31.126,0,0,1,2.2,4.639c.12.36.12.4-.439.6l-2.6.92h6.159a31.618,31.618,0,0,0,1.959-4.04,13.216,13.216,0,0,0,.6-2.119,20.1,20.1,0,0,1,3.959,1.2c.36.159.559.359.559.6a.75.75,0,0,1-.4.6,3.013,3.013,0,0,0-.76.92c-.56,1.04-1.04,1.88-1.64,2.84h1.04c3.719,0,5.04-.08,5.279-.08.44,0,.48.04.48.439,0,.241-.08,1-.08,2.161v1.839c0,3.6.08,4.24.08,4.479,0,.44-.04.48-.48.48h-3.159c-.4,0-.44-.04-.44-.48V1550.6h-25.6v5.278c0,.4-.04.44-.44.44h-3.159c-.441,0-.481-.04-.481-.44,0-.279.08-.92.08-4.519v-1.48c0-1.48-.08-2.2-.08-2.48,0-.4.04-.439.481-.439.239,0,1.559.08,5.279.08h1.079a23.245,23.245,0,0,0-2.559-4.48c-.24-.36-.2-.44.28-.6Z" fill="#d40e64"/>
    <path id="パス_6870" data-name="パス 6870" d="M1808.87,1547.123c-1.08.239-2.16.44-3.28.64-1.239.2-1.279.2-1.8-1a7.928,7.928,0,0,0-1.36-2.159,42.705,42.705,0,0,0,11-2.64,9.352,9.352,0,0,0,1.639-.96,21.253,21.253,0,0,1,2.52,2.479,1.039,1.039,0,0,1,.36.72c0,.28-.32.481-.719.481a3.833,3.833,0,0,0-1.361.359,30.729,30.729,0,0,1-3.079,1.08v5.519h.36c3.12,0,4.16-.08,4.4-.08.4,0,.44.04.44.44v2.84c0,.4-.04.439-.44.439-.239,0-1.279-.08-4.319-.08a23.1,23.1,0,0,0,5.119,6.159,14.8,14.8,0,0,0-1.48,3.079c-.12.441-.279.641-.439.641-.2,0-.4-.2-.68-.6a27.452,27.452,0,0,1-3.08-5c0,9.8.24,16.518.24,17.4,0,.359-.04.4-.44.4h-3.28c-.4,0-.439-.04-.439-.4,0-.84.239-7.6.319-16.558a30.561,30.561,0,0,1-4.678,9.039c-.281.4-.521.64-.72.64-.16,0-.32-.2-.481-.68a10.338,10.338,0,0,0-1.639-3.04,28.71,28.71,0,0,0,6.638-11.078h-1c-3.12,0-4.16.08-4.4.08-.4,0-.44-.04-.44-.439V1552c0-.4.04-.44.44-.44.239,0,1.279.08,4.4.08h1.68Zm20.756,15.917v-16.077a42.322,42.322,0,0,0-.319-6.039c1.479.04,2.839.12,4.2.28.439.04.64.2.64.4a2.147,2.147,0,0,1-.2.839,18.387,18.387,0,0,0-.24,4.44V1562.2c2.441-.519,3.44-.8,3.8-.88s.36,0,.44.4l.52,3.119c.08.359,0,.4-.4.479-.359.08-1.479.241-4.359.8v3.72c0,4.479.08,6.719.08,6.959,0,.4-.04.439-.439.439h-3.4c-.36,0-.4-.04-.4-.439,0-.24.08-2.44.08-6.919v-2.92l-6.438,1.24-5.12,1.04c-.36.08-.4,0-.48-.4l-.56-3.039c-.08-.4-.04-.441.361-.521s1.639-.239,5.119-.84Zm-8.838-10.238c.359-.361.44-.321.76-.08a38.06,38.06,0,0,1,5.639,5.239c.28.32.24.479-.121.84l-1.959,2.04a.817.817,0,0,1-.44.279c-.12,0-.2-.04-.359-.2a33.085,33.085,0,0,0-5.52-5.559c-.32-.28-.32-.36.08-.759Zm1.159-9.118c.321-.321.4-.361.72-.121a35.124,35.124,0,0,1,5.56,5c.12.16.2.24.2.36s-.08.239-.281.4l-1.959,2c-.4.44-.44.48-.72.12a30.519,30.519,0,0,0-5.519-5.239c-.36-.28-.32-.36.08-.76Z" fill="#d40e64"/>
  </g>
</svg>
