<svg xmlns="http://www.w3.org/2000/svg" width="98" height="96" viewBox="0 0 98 96">
  <g id="グループ_1979" data-name="グループ 1979" transform="translate(-608 -1652.263)">
    <path id="パス_2543" data-name="パス 2543" d="M696.7,1741.331c-6.544,2.938-3.864,7.85-12.6,7.923-6.235.051-8.57-5.132-7.781-8.089.2-.745-20.75,7.59-20.75,7.59l-6.759-2.962,47.97-24.036,3.866,2.168-12.989,8.453s-4.858,3.58-.719,3.58C694.3,1735.958,705.948,1737.18,696.7,1741.331Z" transform="translate(-0.878 -0.992)" opacity="0.1"/>
    <g id="グループ_1978" data-name="グループ 1978" transform="translate(608 1652.263)">
      <g id="グループ_1974" data-name="グループ 1974" transform="translate(0 16.623)">
        <path id="パス_2544" data-name="パス 2544" d="M696.522,1695.589a2.407,2.407,0,0,0-1.252-1.908l-38.992-19.867c-.689-.351-1.251-.064-1.251.634l0,22.581a2.408,2.408,0,0,0,1.253,1.909l39.848,19.948a.323.323,0,0,0,.049-.021l.049-.028-.014-.01a.754.754,0,0,0,.312-.657Z" transform="translate(-608.878 -1669.878)" fill="#d8fffa"/>
        <path id="パス_2545" data-name="パス 2545" d="M691.653,1698.048a2.412,2.412,0,0,0-1.252-1.911l-38.994-19.865c-.686-.353-1.252-.067-1.252.631v22.58a2.411,2.411,0,0,0,1.251,1.911L690.4,1721.26l1.255-.632Z" transform="translate(-608.878 -1669.878)" fill="#9eecea"/>
        <path id="パス_2546" data-name="パス 2546" d="M609.187,1697.585l2.8,1.415,42.061-21.292-.468-3.11-45.212,22.9A1,1,0,0,1,609.187,1697.585Z" transform="translate(-608 -1669.878)" fill="#d8fffa"/>
        <path id="パス_2547" data-name="パス 2547" d="M655.3,1724.676l0,7.577,32.725-16.639v-5.271a3.436,3.436,0,0,0-1.4-3.141Z" transform="translate(-608.878 -1669.878)" fill="#e43c3c"/>
        <path id="パス_2548" data-name="パス 2548" d="M654.044,1714.239a2.4,2.4,0,0,1,1.252,1.893v8.544l32.228-16.509a3.029,3.029,0,0,0-1.15-1.088L664.916,1696.2a3.266,3.266,0,0,0-2.913,0l-21.786,11.065Z" transform="translate(-608.878 -1669.878)" fill="#ff5252"/>
        <g id="グループ_1973" data-name="グループ 1973" transform="translate(10.136)">
          <path id="パス_2549" data-name="パス 2549" d="M664.006,1673.191l-6.438-3.218a.953.953,0,0,0-.913.046l-37.265,18.752a2.385,2.385,0,0,0-1.254,1.893v5.342l21.7,10.969,16.82-8.463a2.387,2.387,0,0,0,1.255-1.892Z" transform="translate(-618.136 -1669.878)" fill="#ff5252"/>
          <path id="パス_2550" data-name="パス 2550" d="M664.232,1673.8c0-.7-.564-.978-1.254-.633l-37.269,18.753a2.394,2.394,0,0,0-1.251,1.892v5.422l15.961,8.032,22.33-11.408a2.383,2.383,0,0,0,1.257-1.891Z" transform="translate(-618.136 -1669.878)" fill="#e43c3c"/>
          <path id="パス_2551" data-name="パス 2551" d="M618.136,1696.006l6.323,3.223v-5.422l-6.323-3.143Z" transform="translate(-618.136 -1669.878)" fill="#b23939"/>
        </g>
        <path id="パス_2552" data-name="パス 2552" d="M691.6,1717.294l-3.583-1.68-32.725,16.638v3.568Z" transform="translate(-608.878 -1669.878)" fill="#bef6f2"/>
        <path id="パス_2553" data-name="パス 2553" d="M655.3,1716.132a2.4,2.4,0,0,0-1.252-1.893l-38.994-19.712c-.687-.347-4.027,3.037-4.027,3.731l2.775,19.3a2.382,2.382,0,0,0,1.251,1.894l34.128,22.78,5.722-2.985a.373.373,0,0,0,.044-.023l.053-.025-.015-.01a.738.738,0,0,0,.313-.65Z" transform="translate(-608 -1669.878)" fill="#d8fffa"/>
        <path id="パス_2554" data-name="パス 2554" d="M649.5,1719.2a2.391,2.391,0,0,0-1.253-1.894l-38.992-19.711c-.686-.348-1.25-.066-1.25.626l0,25.838a2.394,2.394,0,0,0,1.253,1.9l38.992,19.712c.688.35,1.251.066,1.251-.627Z" transform="translate(-608 -1669.878)" fill="#9eecea"/>
        <path id="パス_2555" data-name="パス 2555" d="M696.21,1722.261a.767.767,0,0,0,.312-.657v-26.015l-4.869,2.459-.022,19.234-36.3,18.325-.038-19.475-5.8,3.068-.322,26.467Z" transform="translate(-608.878 -1669.878)" fill="#85e1dd"/>
      </g>
      <g id="グループ_1977" data-name="グループ 1977" transform="translate(32.279)">
        <path id="パス_2556" data-name="パス 2556" d="M661.291,1667.22l.012,0,.01.005Z" transform="translate(-640.556 -1652.263)" fill="#98b104"/>
        <path id="パス_2557" data-name="パス 2557" d="M653.868,1652.788s2.86,2.305,5.778,4.254c2.393,1.6-.2,3.206-.517,5.181-.178,1.126.077,2.026-.714,2.748a4.007,4.007,0,0,0-1.6,2.872s1.806-.11,3.979-2.437c1.577-1.689,1.927-4.6,1.851-6.856-.06-1.805.2-2.411-.624-3.714C660.487,1652.387,657.384,1651.644,653.868,1652.788Z" transform="translate(-640.485 -1652.263)" fill="#f1e7b2"/>
        <path id="パス_2558" data-name="パス 2558" d="M672.037,1691.419c-1.809-5.454-7.7-15.644-7.7-15.644s-3.713-3.726-5.452-3.455c-1.93.306,2.74,7.663,2.74,7.663l6.56,11.282S672.327,1692.3,672.037,1691.419Z" transform="translate(-640.58 -1652.526)" fill="#f8a773"/>
        <path id="パス_2559" data-name="パス 2559" d="M647.069,1674.158c2.086-1.2,4.44-2.425,7.106-2.325,1.33.053,2.682.183,3.436.212a8.2,8.2,0,0,1,1.725,4.429,3.383,3.383,0,0,1-2.757,4.074C650.753,1680.741,649.625,1674.694,647.069,1674.158Z" transform="translate(-640.279 -1652.488)" fill="#f8a773"/>
        <path id="パス_2560" data-name="パス 2560" d="M650.7,1673.015s2.9-6.3,2.87-8.233c-.021-1.516,5.477,1.272,4.959,2.245a23.593,23.593,0,0,0-2,7.119Z" transform="translate(-640.435 -1652.263)" fill="#f8a773"/>
        <path id="パス_2561" data-name="パス 2561" d="M655.139,1654.971a5.015,5.015,0,0,1,6.886,2.338c.688,1.317.657,4.7.657,4.7l-.911,6.353-2.034.332s-3.312-.807-4.537-1.126a4.83,4.83,0,0,1-3.344-3.385l.544-3.91S653.295,1655.823,655.139,1654.971Z" transform="translate(-640.461 -1652.263)" fill="#fab585"/>
        <path id="パス_2562" data-name="パス 2562" d="M665.233,1697.516c-2.715,1.441-4.043,2.332-4.641,6.384,0,0-1.985,1.592,1.086,2.728,3.361,1.245,7.53,5.695,8.122,8.676.393,1.991,1.859,7.633,1.859,7.633l6.294,14.386.69,2.707a1.97,1.97,0,0,0,.406,1.019c.482.74,1,1.642,4.972,4.29,2,1.326,1.941-2.14,1.941-2.14l-1.307-1.693-2.207-2.357-.46-1.477s-3.119-16.922-4.406-24.58C676.611,1707.331,666.987,1696.581,665.233,1697.516Z" transform="translate(-640.705 -1653.254)" fill="#f8a773"/>
        <path id="パス_2563" data-name="パス 2563" d="M681.374,1742.794c1.859,1.971,6.235,3.477,3.86-.647l2.266,3.044a3.192,3.192,0,0,1,.051,1.387c-.342.825-1.315.64-2.424.366a9.149,9.149,0,0,1-3.391-2.263l-1.117-1.334h-.867l-1.185-1s-.566-1.962-.122-2.817C678.524,1739.372,679.593,1740.905,681.374,1742.794Z" transform="translate(-640.862 -1653.254)" fill="#002b6a"/>
        <g id="グループ_1975" data-name="グループ 1975" transform="translate(11.769 48.992)">
          <path id="パス_2564" data-name="パス 2564" d="M699.666,1731.208c1.647,2.071,4.609,1.6,4.863.216.271-1.485-3.806-2.084-2.6-1.915a15.435,15.435,0,0,1,3.821.984,1.977,1.977,0,0,1,1.133,1.715c0,.88-1.133,1.6-2.7,1.749a14.5,14.5,0,0,1-4.546-.556l-2.908-1.131s-1.971-.93-2.272-2.207c-.016-.068-.5-3.928,3.955,1.4C698.6,1731.7,699.451,1730.938,699.666,1731.208Z" transform="translate(-652.926 -1702.246)" fill="#002b6a"/>
          <path id="パス_2565" data-name="パス 2565" d="M676.49,1703.626c-2.565.221-12.234-1.442-15.212-1.378l-8.352,5.129c.941,5.036,10,4.375,14.478,4.089,1.938-.124,5.744-.868,7.785-.715.61.049,2.746,4.4,2.746,4.4l7.918,7.049,8.595,6.591s.423,2.057,1.217,2.451c2.394,1.2,8.564,2.806,9.176.412.171-.665-.622-1.536-2.989-2.141a31.539,31.539,0,0,1-3.762-1.376,10.352,10.352,0,0,1-3.441-3.237L683.4,1708.29S681.133,1703.236,676.49,1703.626Z" transform="translate(-652.926 -1702.246)" fill="#ffb584"/>
        </g>
        <path id="パス_2566" data-name="パス 2566" d="M649.877,1695.554l-.1-2.957-2.905-8.114s-1.041-8.434-1.466-9.5c1.36-.68,2.555-1.405,3.84-1.988a26.039,26.039,0,0,1,2.259,3.122l3.474,1.329,2.513-1.923s-.514-3.576-.436-3.57a21,21,0,0,1,2.185.257c.833.485,4.05,7.163,4.05,7.163l.266,3.944-1.2,6.616.48,3.319,7.132,5.876,8.775,4.7-3.629,1.835-2.882,3.408-1.591,4.131s-3.166,5.732-4.766,7.174c-1.371,1.235-6.539,3.423-6.539,3.423s-1.5-8.52-4.009-11.375C648.806,1705,648.711,1702.208,649.877,1695.554Z" transform="translate(-640.279 -1652.716)" fill="#002b6a"/>
        <path id="パス_2567" data-name="パス 2567" d="M646.557,1675.527l-2.364,1.573-1.129,3.742-2.785,16.338,1,2.1,9.714,3.4s1.595.355,1.9-.084a4.817,4.817,0,0,0,.719-1.629l-8.871-5.029,1.99-9.313a22.167,22.167,0,0,0,2.349-6.453A4.243,4.243,0,0,0,646.557,1675.527Z" transform="translate(-640.279 -1652.604)" fill="#f8a773"/>
        <g id="グループ_1976" data-name="グループ 1976" transform="translate(12.062 33.728)">
          <path id="パス_2568" data-name="パス 2568" d="M668.482,1706.274l-5.349,5.349-10.438-7.176,17.092-9,11.351,6.263Z" transform="translate(-652.695 -1686.479)" fill="#fff"/>
          <path id="パス_2569" data-name="パス 2569" d="M663.039,1711.759l7.921-15.27,17.483-9.655-7.306,14.874Z" transform="translate(-652.695 -1686.479)" fill="#bffffb"/>
          <path id="パス_2570" data-name="パス 2570" d="M662.727,1711.345c-.048-.033,7.806-15.13,7.806-15.13l.428.274-7.829,15.135Z" transform="translate(-652.695 -1686.479)" fill="#85e1dd"/>
          <path id="パス_2571" data-name="パス 2571" d="M688.444,1686.834l-.6-.355-17.315,9.737.428.274Z" transform="translate(-652.695 -1686.479)" fill="#fff"/>
          <path id="パス_2572" data-name="パス 2572" d="M663.132,1711.624s-.243.635-1.22.019L652.7,1705v-.548Z" transform="translate(-652.695 -1686.479)" fill="#85e1dd"/>
        </g>
        <path id="パス_2573" data-name="パス 2573" d="M670.665,1689.957s-1.568-.244-3.8,2.376a13.7,13.7,0,0,1-4.522,3.648l1.132,2.2s6.261-1.607,7.823-3.941C672.779,1692.033,671.812,1689.7,670.665,1689.957Z" transform="translate(-640.62 -1652.694)" fill="#f8a773"/>
        <path id="パス_2574" data-name="パス 2574" d="M651.562,1700.213l2.046.31s3.907.258,4.306,1.4a26.877,26.877,0,0,1,1.021,3.787l-2.064.344-2.209-1.7-2.295-.631-2.956-2.245Z" transform="translate(-640.279 -1652.797)" fill="#f8a773"/>
        <path id="パス_2575" data-name="パス 2575" d="M656.866,1657.831c0,6.993-1.147,10.552-4.091,12.966-4.849,3.994.068,8.58.068,8.58s-12.9-1.664-7.647-12.1c3.521-6.995.8-11.107,7.384-14.13,3.483-1.6,10.849.058,8.055,2.951C660.635,1656.1,656.866,1654.7,656.866,1657.831Z" transform="translate(-640.279 -1652.263)" fill="#f1e7b2"/>
        <path id="パス_2576" data-name="パス 2576" d="M665.621,1695.255l-3.276.726-1.808,3.316-.106,1.7,1.478,1.547,2.285-.924a5.978,5.978,0,0,0,1.335-1.665c.219-.735,1.521-4.024,1.521-4.024Z" transform="translate(-640.574 -1652.749)" fill="#f8a773"/>
      </g>
    </g>
  </g>
</svg>
