<svg xmlns="http://www.w3.org/2000/svg" width="39.133" height="112.646" viewBox="0 0 39.133 112.646">
  <g id="グループ_3398" data-name="グループ 3398" transform="translate(-1277.867 -1644.886)">
    <path id="パス_5316" data-name="パス 5316" d="M1299,1756.553c-2.037,1.24-8.85,2.224-14.176-3.1-3.544-3.544,2.658-8.417,2.658-8.417,8.86-7.088,14.441-7.266,19.492-2.215C1310.072,1745.921,1309.186,1750.351,1299,1756.553Z" opacity="0.13"/>
    <g id="グループ_3397" data-name="グループ 3397">
      <path id="パス_5317" data-name="パス 5317" d="M1292.281,1662.3l2.472-.619,4.479,1.727,1.85,3.8,1.185,14.631Z" fill="#1a3554"/>
      <path id="パス_5318" data-name="パス 5318" d="M1294.3,1746.508l2.543,3.215,3.659,2.513-.037,1.567a15.051,15.051,0,0,1-2.35,2.286l-4.257-.486-3.991-3.523-2.675-1.745.066-2.779Z" fill="#1a3554"/>
      <path id="パス_5319" data-name="パス 5319" d="M1293.853,1744.737l3.426.082,4.1,1.52,4.01.273,1.028-2.045-.98-2.422-3.163-.82-4.271-2.633s-5.306.132-5.313.391-.09,3.814-.09,3.814l-.04,1.68Z" fill="#1a3554"/>
      <path id="パス_5320" data-name="パス 5320" d="M1297.191,1710.338l-.269,11.366-1.732,25.774-3.939,1.984-4.61-.627c.07-.193-.207-20.216-.207-20.216l1.032-6.366-2.765-25.209,10.769,1.335Z" fill="#152a3f"/>
      <path id="パス_5321" data-name="パス 5321" d="M1280.648,1674.251c.008-.258-1.486-5.481-1.486-5.481l3.849-4.1,11.058-2.258,4.321,2.2s3.073,4.7,3.325,4.961,2.1,9.428,2.1,9.428l.371,25.238s-8.127,1.806-7.938,2.032-12.141-.785-12.141-.785l-.164-6.713Z" fill="#152a3f"/>
      <path id="パス_5322" data-name="パス 5322" d="M1283.011,1664.67c-.146.708-.457,2.9-.457,2.9s4.025,2.1,4.22,2.04a10.956,10.956,0,0,1,2.534-.457c-.07.192-.1,4.331-.1,4.331l6.947,8.929s2.831,6.883,2.843,6.387.918-8.742.918-8.742l-1.317-9.908-2.527-3.133,1.253-.39s-1.812-2.692-2-2.924a11.155,11.155,0,0,0-2.115-.8Z" fill="#1a3554"/>
      <path id="パス_5323" data-name="パス 5323" d="M1303.6,1700.711c-.071.257-1.194,17.628-1.194,17.628s-1.214,4.82-1.218,4.983-2.063,16.088-2.063,16.088l-1.721,1.641-2.973-.07s.66-38.732.85-38.563S1303.6,1700.711,1303.6,1700.711Z" fill="#152a3f"/>
      <path id="パス_5324" data-name="パス 5324" d="M1284.39,1663.008l1.258-.7-.866,1.208Z" fill="#dcffff"/>
      <g id="グループ_3393" data-name="グループ 3393">
        <path id="パス_5325" data-name="パス 5325" d="M1292.831,1661.675a15.847,15.847,0,0,1,.219,1.672l1.986,3.3-10.934-2.186,1.8-2.5c-.123-.921-.245-1.852-.273-2.009a6.652,6.652,0,0,0,1.134-.842A64.017,64.017,0,0,0,1292.831,1661.675Z" fill="#f89c69"/>
        <path id="パス_5326" data-name="パス 5326" d="M1294.362,1649.7c-.506.71-3.8-.6-4.634-.2-1.172.537-3.372,3.766-3.372,3.766l-1.026,2.3s-1.822.965-1.348,1.887c.373.728,1.026,2.358,1.812,2.4a.779.779,0,0,0,.526-.208c.227.482.751,1.626.751,1.626l5.475,1.517,2.581-1.333.085-7.523S1294.469,1649.993,1294.362,1649.7Z" fill="#fbb686"/>
        <path id="パス_5327" data-name="パス 5327" d="M1287.064,1653.442l.518,2.517-.741.7.276,2.245a7.5,7.5,0,0,1-.863-.427c-.226-.713-.429-1.546-.591-1.947-.212-.153-1.086.1-1.086.1l-.4.761s.835,2.415,1.621,2.458c.054.3.15.9.15.9l-.878-.27-.69-1.092a61.719,61.719,0,0,1-3.658-5.787l-.486-3.85Z" fill="#11487f"/>
        <path id="パス_5328" data-name="パス 5328" d="M1289.072,1651.458s-1.9,2.012-2.008,1.984c-2.422-.461-4.791-2.252-6.832-3.679a14.215,14.215,0,0,1,1.851-2.695,16.34,16.34,0,0,1,6.357-2.179h.01c.568.072,2.525.4,2.913.422-.2-.007,3.771,2.844,3.849,2.85l-.772,1.855Z" fill="#002b6a"/>
      </g>
      <path id="パス_5329" data-name="パス 5329" d="M1301,1694.266c.038.4-.178,7.5-.178,7.5l.713,5.388-4.3,1.124-.163-16.233Z" fill="#94e5ed"/>
      <path id="パス_5330" data-name="パス 5330" d="M1283.056,1664.583l1.014,1.268,5.27,1.99,5.288,6.113,3.253,7.368-.344-9.432-2.036-4.751-2.18-3.483-.057,2.414-7.849-1.74-1.022-1.321Z" fill="#fff"/>
      <path id="パス_5331" data-name="パス 5331" d="M1294.011,1667.194l-2.586-.061.315,3.083.894.5,2.249-2.146,1.8.462a16.7,16.7,0,0,0-.965-2.909l-.761-.656Z" fill="#ff1f4b"/>
      <path id="パス_5332" data-name="パス 5332" d="M1299.522,1691.126c.261-.06,2.072-.08,2.072-.08l-.494-1,.261-2.817-.506-1.83.379-.981,1.034.025s.379.391.376.5-.041,1.729-.041,1.729l.806,1.495s1.177-.542,1.246-.735.046-1.945.046-1.945l6.088-.351-.029,1.212-4.068,3.008-3.286,4.386-1.159.619-4.223-.036.646-2.7Z" fill="#fbb686"/>
      <path id="パス_5333" data-name="パス 5333" d="M1277.867,1672.774l2.682,22.047,2.323,1.8,17.453-1.144.573-5.084-14.13-1.454.111-11.471-1.627-6.416-6.09-2.279Z" fill="#1a3554"/>
      <path id="パス_5334" data-name="パス 5334" d="M1299.739,1690.86l-1.685,21.97s-7.6.588-7.79.519-5.185-2.257-5.185-2.257l.287-19,1.732-2.382,1.882-.666,5.2.834,2,.048,4.259.386Z" fill="#fff"/>
      <path id="パス_5335" data-name="パス 5335" d="M1288.089,1676.805l.282,1.355,2.859-1.012-.4-.971Z" fill="#fff"/>
      <g id="グループ_3396" data-name="グループ 3396">
        <g id="グループ_3394" data-name="グループ 3394">
          <ellipse id="楕円形_158" data-name="楕円形 158" cx="5.295" cy="10.263" rx="5.295" ry="10.263" transform="translate(1296.013 1686.668) rotate(-88.641)" fill="#94e5ed"/>
          <path id="パス_5336" data-name="パス 5336" d="M1306.266,1687.215a16.567,16.567,0,0,1-7.387-1.767c-2.023-1.1-3.117-2.555-3.08-4.082s1.2-2.922,3.27-3.93a18.126,18.126,0,0,1,14.85.352c2.023,1.1,3.116,2.555,3.08,4.081s-1.2,2.923-3.27,3.931A16.559,16.559,0,0,1,1306.266,1687.215Zm.339-10.752a15.809,15.809,0,0,0-7.122,1.341c-1.85.9-2.974,2.278-3.005,3.579s.947,2.56,2.753,3.547a17.384,17.384,0,0,0,14.171.336c1.85-.9,2.887-2.112,2.918-3.413s-.86-2.726-2.666-3.713A15.8,15.8,0,0,0,1306.6,1676.463Z" fill="#dcffff"/>
          <path id="パス_5337" data-name="パス 5337" d="M1314.5,1681.529c-.025,1.072-.842,2.121-2.441,2.9a14.029,14.029,0,0,1-11.454-.272c-1.563-.854-2.329-1.941-2.3-3.012.095-4,3.8-7.153,8.273-7.047S1314.6,1677.532,1314.5,1681.529Z" fill="#dcffff"/>
          <path id="パス_5338" data-name="パス 5338" d="M1314.044,1681.465a6.676,6.676,0,0,0-6.588-6.807c4.119,2.14,5.408,5.139,5.156,8.816A2.631,2.631,0,0,0,1314.044,1681.465Z" fill="#fff"/>
        </g>
        <g id="グループ_3395" data-name="グループ 3395">
          <path id="パス_5339" data-name="パス 5339" d="M1307.061,1673.687l-.949-.022-.018.737c0,.062.044.126.135.176a.822.822,0,0,0,.671.016c.094-.045.142-.107.143-.17h0Z" fill="#94e5ed"/>
          <path id="パス_5340" data-name="パス 5340" d="M1307.455,1673.421a.862.862,0,1,1-.841-.9A.871.871,0,0,1,1307.455,1673.421Z" fill="#dcffff"/>
          <path id="パス_5341" data-name="パス 5341" d="M1307.189,1672.975c.121.164.137.345.034.406s-.284-.023-.405-.187-.137-.345-.034-.405S1307.068,1672.812,1307.189,1672.975Z" fill="#fff"/>
        </g>
      </g>
    </g>
  </g>
</svg>
