<svg xmlns="http://www.w3.org/2000/svg" width="449.221" height="52.127" viewBox="0 0 449.221 52.127">
  <g id="グループ_4295" data-name="グループ 4295" transform="translate(-188.116 -1288.854)">
    <path id="パス_7330" data-name="パス 7330" d="M196.828,1310.886a9.284,9.284,0,0,0,4.572-.792q1.259-.792,1.26-3.672V1299.8a3.581,3.581,0,0,0-.972-2.592,3.481,3.481,0,0,0-2.628-1.008,3.1,3.1,0,0,0-2.772,1.224,4.244,4.244,0,0,0-.828,2.376v4.176h-7.344v-4.248a10.688,10.688,0,0,1,.863-4.248,10.371,10.371,0,0,1,2.377-3.457,11.841,11.841,0,0,1,3.528-2.3,10.845,10.845,0,0,1,4.32-.864,9.594,9.594,0,0,1,5,1.188,11.556,11.556,0,0,1,2.988,2.412,15.77,15.77,0,0,1,1.26,1.728,8.447,8.447,0,0,1,.9,2.088,28.711,28.711,0,0,1,.648,7.056q0,2.665-.108,4.32a9.03,9.03,0,0,1-.54,2.736,5.472,5.472,0,0,1-1.4,1.944,16.628,16.628,0,0,1-2.484,1.728,13.984,13.984,0,0,1,2.628,2.015,5.958,5.958,0,0,1,1.332,2.16,11.172,11.172,0,0,1,.5,3.061q.07,1.766.072,4.5,0,2.521-.108,4.176a21.513,21.513,0,0,1-.324,2.736,8.586,8.586,0,0,1-.576,1.944,12,12,0,0,1-.936,1.656,11.642,11.642,0,0,1-3.492,3.347,10.375,10.375,0,0,1-5.58,1.332,12.978,12.978,0,0,1-3.672-.575,10.021,10.021,0,0,1-3.528-1.872,10.123,10.123,0,0,1-2.628-3.385,11.341,11.341,0,0,1-1.044-5.111v-4.177h7.344v3.817a4.169,4.169,0,0,0,.972,2.843,3.65,3.65,0,0,0,5.256,0,4.385,4.385,0,0,0,.972-2.987v-7.345q0-3.023-1.152-3.96a3.213,3.213,0,0,0-1.764-.719,23.711,23.711,0,0,0-2.916-.144Z" fill="#d40e64"/>
    <path id="パス_7331" data-name="パス 7331" d="M230.449,1313.122c6.159-2.08,11.158-3.319,14.4-3.319,7.159,0,11.757,4.319,11.757,10.6,0,5.24-2.279,8.559-7.038,11.119-3.36,1.879-6.479,2.519-10.159,3.319-.8.16-1.119.12-1.4-.64a7.426,7.426,0,0,0-2.8-3.159c5.279-.88,8.119-1.64,10.839-2.96,3.4-1.72,5.518-4.279,5.518-7.958,0-3.76-2.439-6.079-6.878-6.079-3.6,0-8.359,1.439-14.438,4.119a25.67,25.67,0,0,0-2.76,1.44c-.559.48-.88.6-1.079.6-.4,0-.72-.24-1.16-.84a23.242,23.242,0,0,1-2.56-4.159C224.45,1315,225.93,1314.642,230.449,1313.122Z" fill="#d40e64"/>
    <path id="パス_7332" data-name="パス 7332" d="M286.368,1311.6c-.92,6.8-2.6,13.037-5,17.237-1.72,3-3.8,4.6-6.8,4.6-3.518,0-7.078-3.758-7.078-10.278a14.738,14.738,0,0,1,4.519-10.4,17.5,17.5,0,0,1,13-5.119c9.6,0,15.237,5.919,15.237,13.878,0,7.438-4.2,12.118-12.317,14.557-.84.24-1.2.08-1.72-.72a8.494,8.494,0,0,0-2.8-2.519c6.759-1.6,12.078-4.4,12.078-11.958a9.083,9.083,0,0,0-8.959-9.278Zm-11.478,3.878a11.519,11.519,0,0,0-3.119,7.4c0,3.679,1.479,5.719,2.718,5.719,1.04,0,1.92-.521,3-2.44a45.7,45.7,0,0,0,4.24-14.318A12.039,12.039,0,0,0,274.89,1315.481Z" fill="#d40e64"/>
    <path id="パス_7333" data-name="パス 7333" d="M331.087,1307.8c-3.559,0-4.759.08-5,.08-.4,0-.44-.04-.44-.44v-2.92c0-.4.04-.439.44-.439.24,0,1.44.079,5,.079h9.159c3.6,0,4.8-.079,5-.079.4,0,.44.039.44.439v2.92c0,.4-.04.44-.44.44-.2,0-1.4-.08-5-.08h-3a30.74,30.74,0,0,1-1.279,3h2.759c3.2,0,4.319-.08,4.6-.08.4,0,.441.04.441.439,0,.2-.08,1.6-.08,4.64v10.637c0,3.04.08,4.4.08,4.64,0,.4-.04.44-.441.44-.28,0-1.4-.081-4.6-.081h-6.239c-3.239,0-4.359.081-4.6.081-.44,0-.48-.04-.48-.44,0-.24.08-1.6.08-4.64v-10.477c0-1.72-.04-2.92-.04-3.68a11.559,11.559,0,0,0-1.6,2.68c-.281.559-.441.84-.681.84-.2,0-.439-.16-.88-.521s-.88-.76-1.279-1.159v2.839c0,.4-.04.44-.441.44-.239,0-.839-.08-2.919-.08h-3.04c-2.079,0-2.678.08-2.919.08-.36,0-.4-.04-.4-.44v-2.639c-.64.6-1.279,1.2-1.959,1.72-.4.319-.641.479-.84.479-.28,0-.44-.28-.72-.919a7.956,7.956,0,0,0-1.44-2.32,23.076,23.076,0,0,0,7-7.759,10.038,10.038,0,0,0,1.08-2.719c1.36.2,2.48.36,3.639.559.44.08.64.321.64.561,0,.2-.12.4-.44.6l-.24.161a21.06,21.06,0,0,0,7.439,7.558c-.04-.639-.04-.96-.04-1.08,0-.4.04-.439.48-.439.2,0,1.28.08,4.119.08a19.246,19.246,0,0,0,1.12-3ZM317.93,1323.48v9.958c0,3.16.08,4.68.08,4.919,0,.4-.04.441-.441.441H314.41c-.4,0-.44-.04-.44-.441,0-.279.08-1.759.08-4.919v-9.958c-2.719,0-3.679.081-3.879.081-.441,0-.481-.04-.481-.441v-2.8c0-.44.04-.48.481-.48.24,0,1.239.08,4.359.08h5.919c3.159,0,4.239-.08,4.48-.08.4,0,.439.04.439.48,0,.24-.08.959-.08,2.639v3.84c0,1.4.08,2.959.08,4a3.717,3.717,0,0,1-.92,2.8c-.6.6-1.4.88-3.479.96-1.28.04-1.28.04-1.52-1.241a10.3,10.3,0,0,0-.88-2.719,13.046,13.046,0,0,0,2.12.12c.64,0,.84-.24.84-1.119v-6.12Zm4.758-9.678a26.629,26.629,0,0,1-4.479-5.879,30.633,30.633,0,0,1-4.438,5.879,26.6,26.6,0,0,0,2.838.08h3.04c2.08,0,2.68-.08,2.919-.08Zm10.918,19.4c.361.24.441.441.441.641,0,.239-.2.359-.481.479-.279.161-.6.4-1.039.72a25.075,25.075,0,0,1-6.439,4,2.764,2.764,0,0,1-.92.319c-.279,0-.48-.24-.92-.919a10.954,10.954,0,0,0-1.68-2,22.7,22.7,0,0,0,6.959-3.559,7.148,7.148,0,0,0,1.321-1.36A19.4,19.4,0,0,1,333.606,1333.2Zm-2.279-19.076v2.52h8.479v-2.52Zm8.479,8.158v-2.639h-8.479v2.639Zm0,3h-8.479v2.839h8.479Zm-1.2,6.479c.2-.2.32-.28.44-.28s.24.08.4.24a24.092,24.092,0,0,0,7.038,4.279,9.324,9.324,0,0,0-1.639,2.24c-.36.68-.52.959-.8.959a2.776,2.776,0,0,1-1-.4,26.569,26.569,0,0,1-6.318-4.72c-.321-.319-.2-.4.2-.76Z" fill="#d40e64"/>
    <path id="パス_7334" data-name="パス 7334" d="M361.409,1327.2a32.59,32.59,0,0,0,3.48-1.519,22.841,22.841,0,0,0-.12,2.479c0,1.32,0,1.32-1.16,1.84a10.1,10.1,0,0,1-.96.44,21.948,21.948,0,0,0,4.12-.48,68.419,68.419,0,0,0,10.118-2.76c-.12.8-.24,1.6-.28,2.4,0,1.319,0,1.359-1.2,1.719a93.077,93.077,0,0,1-9.118,2.56c-.72.239-1.2.359-1.44.479a1.993,1.993,0,0,1-.84.321c-.239,0-.44-.16-.6-.6a28.536,28.536,0,0,1-.84-3.6c-1.96.84-4.159,1.6-6.239,2.32a4.186,4.186,0,0,0-1.2.559,1.132,1.132,0,0,1-.68.281c-.2,0-.4-.12-.52-.52a30.189,30.189,0,0,1-.84-3.6,20.846,20.846,0,0,0,3.479-.72l.88-.24v-11.678h-.08c-2.479,0-3.239.079-3.479.079-.36,0-.4-.039-.4-.44v-3c0-.439.04-.479.4-.479.28,0,1.04.08,3.559.08v-3.68a43.95,43.95,0,0,0-.28-6.079c1.48.04,2.72.12,4.12.281.359.04.6.24.6.44a3.087,3.087,0,0,1-.161.84c-.2.479-.32,1.479-.32,4.438v3.76c2.04,0,2.72-.08,2.96-.08.4,0,.44.04.44.479v3c0,.4-.04.44-.44.44-.24,0-.92-.039-2.96-.079Zm19.837-14.517a83.246,83.246,0,0,0,1.08,11.278,24.521,24.521,0,0,0,1.64-4.359,22.94,22.94,0,0,0,.76-4.08,31.421,31.421,0,0,1,3.439,1.161c.481.24.68.359.68.719a1.185,1.185,0,0,1-.4.76c-.32.32-.44.84-.88,2.16a36.466,36.466,0,0,1-3.96,8.8c1.121,3.68,2.121,5,2.48,5,.641,0,.96-1.72,1.12-5.119a8.811,8.811,0,0,0,2.04,1.48c1.04.52,1.04.52.92,1.64-.561,5.359-1.72,6.8-4.08,6.8-1.64,0-3.559-1.72-5.238-6.159a32.529,32.529,0,0,1-7.559,6.079,3.056,3.056,0,0,1-1.04.479c-.24,0-.44-.239-.84-.759a7.687,7.687,0,0,0-2.28-2.039,29.105,29.105,0,0,0,10.358-8,81.154,81.154,0,0,1-2.079-15.838h-7.119c-3.879,0-5.2.08-5.439.08-.4,0-.44-.04-.44-.48v-2.92c0-.4.04-.439.44-.439.24,0,1.56.08,5.439.08h7v-.481a44.772,44.772,0,0,0-.32-5.718,35.019,35.019,0,0,1,4.039.32c.44.04.64.239.64.439a1.96,1.96,0,0,1-.2.8c-.2.4-.28.84-.28,2.76V1309h2.28c3.919,0,5.279-.08,5.519-.08.4,0,.44.04.44.439v2.92c0,.44-.04.48-.44.48-.24,0-1.6-.08-5.519-.08Zm-8.8,2.96c2.16,0,2.8-.08,3.04-.08.44,0,.48.04.48.44,0,.239-.08,1.039-.08,3.079v3.6c0,2.079.08,2.879.08,3.119,0,.4-.04.44-.48.44-.24,0-.88-.08-3.04-.08h-3.119c-2.159,0-2.8.08-3.079.08-.4,0-.44-.04-.44-.44,0-.28.08-1.04.08-3.119v-3.6c0-2.04-.08-2.84-.08-3.079,0-.4.04-.44.44-.44.279,0,.92.08,3.079.08Zm.281,3.119h-3.64v4.279h3.64Zm12.358-15.438c.479-.159.479-.119.76.2a18.7,18.7,0,0,1,2.279,3.28c.2.36.12.48-.439.68l-1.72.8c-.561.28-.6.239-.8-.2a16.8,16.8,0,0,0-2.2-3.359c-.28-.321-.2-.441.32-.64Z" fill="#d40e64"/>
    <path id="パス_7335" data-name="パス 7335" d="M415.487,1320.921a4,4,0,1,1-4-4A4.011,4.011,0,0,1,415.487,1320.921Z" fill="#d40e64"/>
    <path id="パス_7336" data-name="パス 7336" d="M435.635,1340.55l12.888-44.352h-8.064v5.9h-6.48v-12.816h21.888v7.344l-12.456,43.92Z" fill="#d40e64"/>
    <path id="パス_7337" data-name="パス 7337" d="M477.753,1313.122c6.159-2.08,11.158-3.319,14.4-3.319,7.16,0,11.758,4.319,11.758,10.6,0,5.24-2.279,8.559-7.038,11.119-3.36,1.879-6.479,2.519-10.159,3.319-.8.16-1.119.12-1.4-.64a7.426,7.426,0,0,0-2.8-3.159c5.279-.88,8.119-1.64,10.839-2.96,3.4-1.72,5.518-4.279,5.518-7.958,0-3.76-2.439-6.079-6.879-6.079-3.6,0-8.358,1.439-14.437,4.119a25.471,25.471,0,0,0-2.76,1.44c-.56.48-.88.6-1.079.6-.4,0-.72-.24-1.16-.84a23.246,23.246,0,0,1-2.56-4.159C471.754,1315,473.233,1314.642,477.753,1313.122Z" fill="#d40e64"/>
    <path id="パス_7338" data-name="パス 7338" d="M533.672,1311.6c-.92,6.8-2.6,13.037-5,17.237-1.72,3-3.8,4.6-6.8,4.6-3.519,0-7.078-3.758-7.078-10.278a14.741,14.741,0,0,1,4.518-10.4,17.5,17.5,0,0,1,13-5.119c9.6,0,15.237,5.919,15.237,13.878,0,7.438-4.2,12.118-12.318,14.557-.839.24-1.2.08-1.719-.72a8.515,8.515,0,0,0-2.8-2.519c6.759-1.6,12.078-4.4,12.078-11.958a9.084,9.084,0,0,0-8.959-9.278Zm-11.479,3.878a11.519,11.519,0,0,0-3.119,7.4c0,3.679,1.48,5.719,2.719,5.719,1.04,0,1.92-.521,3-2.44a45.672,45.672,0,0,0,4.239-14.318A12.043,12.043,0,0,0,522.193,1315.481Z" fill="#d40e64"/>
    <path id="パス_7339" data-name="パス 7339" d="M562.474,1328.68c-3.56,0-4.759.08-5,.08-.4,0-.441-.04-.441-.441v-3.079c0-.4.04-.44.441-.44.24,0,1.439.08,5,.08h10.518a28.953,28.953,0,0,0-.24-3.4l2.319.241a24.971,24.971,0,0,0,3.64-2.88h-8.639c-3.679,0-4.959.08-5.159.08-.4,0-.439-.04-.439-.4v-2.8c0-.4.04-.441.439-.441.2,0,1.48.08,5.159.08H580.91a2.507,2.507,0,0,0,.96-.08,1.318,1.318,0,0,1,.521-.159c.319,0,.719.319,1.719,1.279.8.84,1.119,1.361,1.119,1.72a.637.637,0,0,1-.479.64,9.573,9.573,0,0,0-1.92,1.32,47.379,47.379,0,0,1-5.6,4.159v.64h10c3.56,0,4.759-.08,5-.08.4,0,.44.04.44.44v3.079c0,.4-.04.441-.44.441-.241,0-1.44-.08-5-.08h-10v2.6c0,.96.081,2.44.081,3.48,0,1.72-.321,2.6-1.281,3.279-1.04.64-2.279.88-6.119.88-1.239,0-1.239.04-1.559-1.16a12.123,12.123,0,0,0-1.2-2.92,38.893,38.893,0,0,0,4.28.24c1.119,0,1.559-.279,1.559-1.4v-5Zm2.479-25.6c.521-.2.64-.12.88.2a30.069,30.069,0,0,1,2.68,4.16c.2.4.2.44-.361.64l-2.639.96h8.319a30.969,30.969,0,0,0-2.28-5c-.239-.4-.119-.44.36-.6l2.64-.8c.479-.161.6-.081.8.24a31.315,31.315,0,0,1,2.2,4.639c.12.36.12.4-.44.6l-2.6.92h6.159a31.618,31.618,0,0,0,1.959-4.04,13.226,13.226,0,0,0,.6-2.119,20.08,20.08,0,0,1,3.959,1.2c.361.159.56.359.56.6a.75.75,0,0,1-.4.6,3,3,0,0,0-.76.92c-.561,1.04-1.04,1.88-1.64,2.84h1.039c3.72,0,5.04-.08,5.28-.08.44,0,.48.04.48.439,0,.241-.08,1-.08,2.161v1.839c0,3.6.08,4.24.08,4.479,0,.44-.04.48-.48.48h-3.16c-.4,0-.439-.04-.439-.48V1312.6h-25.6v5.278c0,.4-.04.44-.44.44h-3.159c-.441,0-.481-.04-.481-.44,0-.279.08-.92.08-4.519v-1.48c0-1.48-.08-2.2-.08-2.48,0-.4.04-.439.481-.439.239,0,1.559.08,5.279.08h1.079a23.245,23.245,0,0,0-2.56-4.48c-.239-.36-.2-.44.281-.6Z" fill="#d40e64"/>
    <path id="パス_7340" data-name="パス 7340" d="M607.714,1309.123c-1.08.239-2.16.44-3.28.64-1.24.2-1.28.2-1.8-1a7.93,7.93,0,0,0-1.361-2.159,42.684,42.684,0,0,0,11-2.64,9.325,9.325,0,0,0,1.64-.96,21.253,21.253,0,0,1,2.52,2.479,1.039,1.039,0,0,1,.36.72c0,.28-.32.481-.72.481a3.829,3.829,0,0,0-1.36.359,30.732,30.732,0,0,1-3.079,1.08v5.519h.36c3.119,0,4.159-.08,4.4-.08.4,0,.44.04.44.44v2.84c0,.4-.04.439-.44.439-.24,0-1.28-.08-4.32-.08a23.136,23.136,0,0,0,5.119,6.159,14.8,14.8,0,0,0-1.479,3.079c-.12.441-.279.641-.44.641-.2,0-.4-.2-.679-.6a27.449,27.449,0,0,1-3.08-5c0,9.8.24,16.518.24,17.4,0,.359-.04.4-.44.4h-3.28c-.4,0-.439-.04-.439-.4,0-.84.239-7.6.319-16.558a30.565,30.565,0,0,1-4.679,9.039c-.28.4-.52.64-.719.64-.161,0-.321-.2-.481-.68a10.34,10.34,0,0,0-1.639-3.04,28.724,28.724,0,0,0,6.638-11.078h-1c-3.12,0-4.16.08-4.4.08-.4,0-.441-.04-.441-.439V1314c0-.4.04-.44.441-.44.239,0,1.279.08,4.4.08h1.68Zm20.756,15.917v-16.077a42.159,42.159,0,0,0-.32-6.039c1.48.04,2.839.12,4.2.28.439.04.639.2.639.4a2.145,2.145,0,0,1-.2.839,18.383,18.383,0,0,0-.24,4.44V1324.2c2.44-.519,3.439-.8,3.8-.88s.36,0,.44.4l.52,3.119c.08.359,0,.4-.4.479-.359.08-1.479.241-4.359.8v3.72c0,4.479.08,6.719.08,6.959,0,.4-.04.439-.44.439h-3.4c-.36,0-.4-.04-.4-.439,0-.24.08-2.44.08-6.919v-2.92l-6.439,1.24-5.119,1.04c-.36.08-.4,0-.48-.4l-.56-3.039c-.08-.4-.04-.441.36-.521s1.64-.239,5.12-.84Zm-8.838-10.238c.359-.361.439-.321.76-.08a38.052,38.052,0,0,1,5.638,5.239c.281.32.241.479-.12.84l-1.959,2.04a.816.816,0,0,1-.44.279c-.12,0-.2-.04-.36-.2a33.048,33.048,0,0,0-5.519-5.559c-.32-.28-.32-.36.08-.759Zm1.159-9.118c.32-.321.4-.361.72-.121a35.071,35.071,0,0,1,5.559,5c.12.16.2.24.2.36s-.081.239-.281.4l-1.96,2c-.4.44-.439.48-.719.12a30.515,30.515,0,0,0-5.519-5.239c-.36-.28-.32-.36.08-.76Z" fill="#d40e64"/>
  </g>
</svg>
