<svg xmlns="http://www.w3.org/2000/svg" width="675" height="35" viewBox="0 0 675 35">
  <g id="グループ_1843" data-name="グループ 1843" transform="translate(-188.308 -3193.617)">
    <path id="パス_2399" data-name="パス 2399" d="M198.985,3201.3a18.379,18.379,0,0,0-1.6-4.862,38.672,38.672,0,0,1,5.2-.116c.52.038.8.194.8.583a8.257,8.257,0,0,0,.08,2.8l.6,3.267,3.281-.544c2.279-.389,4.039-.662,6.118-1.205.2,0,.36.155.44.427a26.047,26.047,0,0,1,.8,3.344c0,.273-.2.39-.6.429-1.84.31-3.64.544-5.64.894l-3.52.622,1,4.979,5.8-.972c2.84-.468,4.8-.895,6.279-1.285.52-.116.64.039.68.429a21.182,21.182,0,0,1,.68,3.111.619.619,0,0,1-.6.661c-1.2.156-3.6.545-6.438,1.011l-5.52.933.92,4.317c.56,2.606,1.24,5.095,1.76,7.039.04.2-.16.312-.52.429a27.964,27.964,0,0,1-3.639.817c-.52.039-.76-.156-.8-.468-.28-1.438-.72-4.161-1.28-6.65l-1-4.588-5.44.934c-2.72.466-4.959.933-6.479,1.322a.63.63,0,0,1-.919-.428c-.4-1.128-.8-2.6-1.12-3.851,2.439-.271,4.559-.582,7.438-1.049l5.6-.895-1-5.017-3.76.583c-2.2.35-4.879.895-5.959,1.167-.4.116-.6,0-.76-.389a32.266,32.266,0,0,1-1.12-3.889c2.16-.156,4.359-.429,7.119-.856l3.64-.544Zm15.838-5.057c.2-.156.36-.116.6.079a18.05,18.05,0,0,1,3.8,4.16.388.388,0,0,1-.12.622l-1.68,1.206a.424.424,0,0,1-.68-.116,19.468,19.468,0,0,0-4.04-4.511Zm3.56-2.527c.239-.156.359-.117.6.078a16.383,16.383,0,0,1,3.8,4.006.443.443,0,0,1-.119.7l-1.6,1.205a.416.416,0,0,1-.68-.116,18.557,18.557,0,0,0-4-4.473Z" fill="#d40e64"/>
    <path id="パス_2400" data-name="パス 2400" d="M236.347,3215.472a32.633,32.633,0,0,0-4.4,1.559,2.189,2.189,0,0,1-.719.2c-.281,0-.48-.16-.68-.559a22.338,22.338,0,0,1-1.4-3.52,47.586,47.586,0,0,0,6.079-1.32l2.4-.64-.88-3.359a15.263,15.263,0,0,0-1.64-4.039c1.64-.2,3.639-.44,4.679-.44.64,0,.92.24.84.8a6.523,6.523,0,0,0,.24,2.88l.76,3,8.679-2.2a4.389,4.389,0,0,0,2-.88.692.692,0,0,1,.48-.24,1.26,1.26,0,0,1,.68.36,21.493,21.493,0,0,1,2.359,2,.9.9,0,0,1,.321.6,1.17,1.17,0,0,1-.441.8,3.106,3.106,0,0,0-.64.84,47.426,47.426,0,0,1-4.518,7.518.758.758,0,0,1-.6.36,1.148,1.148,0,0,1-.6-.2,10.722,10.722,0,0,0-3.2-1.2,28.9,28.9,0,0,0,4.239-6.118l-7.719,2.039,1.84,7.239c.68,2.52,1.239,4.479,1.839,6.719a.778.778,0,0,1-.52,1.08,13.613,13.613,0,0,1-2.639.8c-.52.12-.84.08-1-.6-.48-2.239-1.04-4.438-1.6-6.678l-1.88-7.4Z" transform="translate(0 -0.986)" fill="#d40e64"/>
    <path id="パス_2401" data-name="パス 2401" d="M272.946,3209.592c-2,0-4,.039-6,.154-.359,0-.519-.232-.6-.736a28.361,28.361,0,0,1-.441-3.916,73.015,73.015,0,0,0,7.36.31h13.717a4.506,4.506,0,0,0,2.12-.428.873.873,0,0,1,.52-.233,1.05,1.05,0,0,1,.6.271,23.249,23.249,0,0,1,2.679,2.4,1.125,1.125,0,0,1,.4.814.926.926,0,0,1-.44.737,4.463,4.463,0,0,0-1.36,1.822c-4,8.26-8.6,13.106-16.316,17.138a1.969,1.969,0,0,1-.8.271,1.316,1.316,0,0,1-.88-.464,11.831,11.831,0,0,0-3.72-2.017c7.4-3.335,13.918-8.685,16.8-16.169Zm2.68-8.336c-1.8,0-3.8.039-5.479.154-.4,0-.52-.233-.56-.853a32.769,32.769,0,0,1-.2-3.722,56.815,56.815,0,0,0,6.559.271h7.2c2.6,0,4.719-.116,6.279-.194.36,0,.479.194.479.62a19.087,19.087,0,0,1,0,3.024c0,.659-.119.815-.719.777-1.32,0-3.2-.078-5.639-.078Z" fill="#d40e64"/>
    <path id="パス_2402" data-name="パス 2402" d="M307.068,3202.322a25.807,25.807,0,0,0-.44-5.667,30.393,30.393,0,0,1,4.959.815c.48.117.681.35.681.62a1.577,1.577,0,0,1-.161.583,8.69,8.69,0,0,0-.44,3.687v7.842c0,2.018.08,3.532.12,4.891,0,.581-.24.776-.88.776h-3.2c-.56,0-.8-.2-.76-.66,0-1.359.12-3.61.12-5.279Zm18.837,7.259c0,5.745-.88,9.588-3.24,12.654a20.628,20.628,0,0,1-8.8,6.1,2.592,2.592,0,0,1-.84.194,1.312,1.312,0,0,1-.96-.467,13,13,0,0,0-3.4-2.367c4.279-1.28,7.639-3.1,9.758-5.667,1.84-2.212,2.679-5.434,2.679-10.365v-7.336a27.745,27.745,0,0,0-.439-6.327,25.726,25.726,0,0,1,5.2.854.657.657,0,0,1,.56.66,1.2,1.2,0,0,1-.16.62c-.36.815-.36,1.825-.36,4.232Z" transform="translate(-0.114)" fill="#d40e64"/>
    <path id="パス_2403" data-name="パス 2403" d="M346.428,3215.191a31.9,31.9,0,0,0-5.879.481c-.48,0-.8-.24-.92-.84a43.662,43.662,0,0,1-.6-4.839,51.368,51.368,0,0,0,8.639.48h12.878c3.039,0,6.119-.08,9.2-.12.6-.04.72.08.72.559a29.477,29.477,0,0,1,0,3.76c0,.48-.16.64-.72.6-3-.04-5.959-.08-8.918-.08Z" transform="translate(-0.148 -0.533)" fill="#d40e64"/>
    <path id="パス_2404" data-name="パス 2404" d="M397.853,3207.649c-2.52,0-3.36.056-3.528.056-.224,0-.252-.027-.252-.252v-1.54c0-.224.028-.252.252-.252.168,0,1.008.057,3.528.057h7.364a13.886,13.886,0,0,0-.224-3.109c.84.029,1.568.084,2.3.168.252.029.392.168.392.252a1.426,1.426,0,0,1-.168.588,7.15,7.15,0,0,0-.168,2.1H415.3c2.519,0,3.36-.057,3.528-.057.224,0,.252.028.252.252v1.54c0,.225-.028.252-.252.252-.168,0-1.009-.056-3.528-.056h-7.952v2.128H411.8c2.8,0,3.78-.055,3.948-.055.252,0,.279.027.279.279,0,.168-.055.841-.055,2.633v4.283c0,1.792.055,2.492.055,2.632,0,.224-.027.253-.279.253-.168,0-1.148-.057-3.948-.057h-3.052a26.368,26.368,0,0,0,11.283,5.656,5.33,5.33,0,0,0-.924,1.4c-.2.448-.307.589-.5.589a1.378,1.378,0,0,1-.476-.113c-3.78-1.343-7.9-3.387-10.864-6.719,0,3.863.2,6.832.2,7.223,0,.252-.028.252-.252.252h-1.82c-.252,0-.281,0-.281-.252,0-.391.168-3.276.2-7.055a24.136,24.136,0,0,1-10.052,6.523,1.763,1.763,0,0,1-.5.141c-.2,0-.28-.141-.476-.561a4.481,4.481,0,0,0-.924-1.26,23.66,23.66,0,0,0,10.471-5.824H401.3c-2.773,0-3.78.057-3.92.057-.252,0-.28-.029-.28-.253,0-.168.056-.84.056-2.632v-4.283c0-1.792-.056-2.465-.056-2.633,0-.252.028-.279.28-.279.14,0,1.147.055,3.92.055h3.92v-2.128Zm7.364,6.245v-2.409h-5.964v2.409Zm0,4.171v-2.52h-5.964v2.52Zm2.128-6.58v2.409h6.524v-2.409Zm6.524,4.06h-6.524v2.52h6.524Z" transform="translate(-0.2 -0.986)" fill="#333"/>
    <path id="パス_2405" data-name="パス 2405" d="M429.885,3220.837a5.445,5.445,0,0,0,.784-1.624,17.309,17.309,0,0,1,1.9.98c.2.14.309.252.309.42,0,.2-.112.308-.309.42a2.341,2.341,0,0,0-.756.756,17.59,17.59,0,0,1-4.647,4.368c-.28.168-.42.281-.561.281-.168,0-.279-.141-.5-.449a3.736,3.736,0,0,0-1.12-1.092A17.416,17.416,0,0,0,429.885,3220.837Zm-.561-12.8c-2.632,0-3.5.057-3.668.057-.252,0-.279-.029-.279-.252v-1.624c0-.225.027-.252.279-.252.168,0,1.036.055,3.668.055h6.8v-.644a11.248,11.248,0,0,0-.2-2.716,21.48,21.48,0,0,1,2.408.141c.2.027.364.111.364.252a1.676,1.676,0,0,1-.2.559,6.646,6.646,0,0,0-.113,1.792v.616h7.252c2.6,0,3.472-.055,3.64-.055.225,0,.253.027.253.252v1.624c0,.223-.028.252-.253.252-.168,0-1.035-.057-3.64-.057Zm12.208,2.353c2.744,0,3.7-.057,3.864-.057.224,0,.252.028.252.28,0,.141-.055.672-.055,2.212v2.8c0,1.513.055,2.044.055,2.212,0,.253-.028.28-.252.28-.167,0-1.12-.056-3.864-.056H438.62v3.276c0,1.261.057,2.465.057,3.472a2.5,2.5,0,0,1-.784,2.184c-.617.5-1.344.645-3.865.645-.672,0-.7.027-.868-.7a3.809,3.809,0,0,0-.7-1.568,20.518,20.518,0,0,0,2.435.168c1.121,0,1.457-.363,1.457-1.176v-6.3h-3.165c-2.715,0-3.7.056-3.835.056-.252,0-.281-.027-.281-.28,0-.168.057-.7.057-2.212v-2.8c0-1.54-.057-2.071-.057-2.212,0-.252.029-.28.281-.28.139,0,1.12.057,3.835.057Zm1.876,1.931h-12.1v3.808h12.1Zm-.055,7.168a.689.689,0,0,1,.307-.139c.084,0,.112.055.2.167a17.155,17.155,0,0,0,6.132,5.152,4.3,4.3,0,0,0-1.092,1.316c-.223.392-.307.532-.475.532a1.135,1.135,0,0,1-.5-.251,21.749,21.749,0,0,1-5.853-5.685c-.139-.224-.084-.279.2-.447Z" transform="translate(-0.23 -0.986)" fill="#333"/>
    <path id="パス_2406" data-name="パス 2406" d="M468.665,3220.585h4.508c1.848,0,3.528-.056,5.376-.111.28-.029.42.084.42.391v1.68c0,.336-.084.42-.42.42-1.456-.027-3.556-.084-5.348-.084H461.609c-1.259,0-3.164.084-4.788.14-.364,0-.448-.083-.5-.5a13.374,13.374,0,0,1-.168-2.044c1.9.111,3.7.139,5.46.139h4.453v-10.164h-2.521c-1.819,0-3.052.056-4.284.14-.279.028-.336-.14-.392-.5a12.929,12.929,0,0,1-.168-2.016c1.456.113,2.66.113,4.732.113h7.532c1.708,0,3.192,0,4.9-.084.252-.029.308.111.308.363v1.681c0,.307-.056.42-.336.42-1.848-.084-3.22-.113-4.844-.113h-2.324Z" transform="translate(-0.259 -0.677)" fill="#333"/>
    <path id="パス_2407" data-name="パス 2407" d="M491.4,3208.405c-1.96,0-3.64.113-5.124.224a.386.386,0,0,1-.476-.336,20.067,20.067,0,0,1-.392-2.38c1.792.168,3.388.2,5.74.2h11.789a5.785,5.785,0,0,0,2.043-.168,1.407,1.407,0,0,1,.448-.139.829.829,0,0,1,.532.279,9.9,9.9,0,0,1,1.288,1.372.557.557,0,0,1-.14.924,2.882,2.882,0,0,0-.671.757,23.263,23.263,0,0,1-5.181,5.46.7.7,0,0,1-.952-.029,4.93,4.93,0,0,0-1.848-.868,19.228,19.228,0,0,0,5.432-5.292Zm1.708,11.368a14.324,14.324,0,0,0,1.372-6.8,11.3,11.3,0,0,0-.252-2.465,19.39,19.39,0,0,1,2.856.448c.5.168.477.561.28.924a2.731,2.731,0,0,0-.224,1.261,17.12,17.12,0,0,1-1.624,7.559,14.885,14.885,0,0,1-5.18,5.573c-.364.2-.728.307-1.064,0a5.2,5.2,0,0,0-1.988-1.092C490.113,3223.665,491.989,3222.014,493.109,3219.773Z" transform="translate(-0.287 -0.986)" fill="#333"/>
    <path id="パス_2408" data-name="パス 2408" d="M521.921,3211.934a39.433,39.433,0,0,1,9.016,3.863c.251.141.364.308.251.56a13.342,13.342,0,0,1-.895,1.792c-.2.281-.336.336-.589.14a30.488,30.488,0,0,0-7.811-3.668V3221c0,1.765.055,3.724.112,5.628.027.308-.084.392-.42.392-.588.029-1.345.029-1.933,0-.363,0-.447-.084-.447-.42.084-1.9.111-3.864.111-5.6v-13.02a22.4,22.4,0,0,0-.307-4.339,13.769,13.769,0,0,1,2.884.391c.532.141.448.448.223.952a10.31,10.31,0,0,0-.2,2.912Z" transform="translate(-0.315 -0.986)" fill="#333"/>
    <path id="パス_2409" data-name="パス 2409" d="M543.566,3213.39c-1.484,0-2.8.027-4.032.139-.252.029-.363-.112-.42-.448a10.786,10.786,0,0,1-.252-2.184,43.52,43.52,0,0,0,4.872.224h9.773a2.973,2.973,0,0,0,1.428-.252.6.6,0,0,1,.811.028,10.645,10.645,0,0,1,1.4,1.316c.308.364.336.644-.055.925a2.6,2.6,0,0,0-.757,1.091,24.4,24.4,0,0,1-11.647,12.516c-.42.225-.644.225-.953-.084a5.507,5.507,0,0,0-2.015-1.12c5.6-2.716,9.939-6.691,11.983-12.151Zm2.128-5.909c-1.4,0-2.715.029-3.92.113-.28.027-.336-.113-.364-.477a15.078,15.078,0,0,1-.139-2.072,38.628,38.628,0,0,0,4.564.2h4.647c1.792,0,3.109-.084,4.369-.139.252,0,.307.111.307.391a7.731,7.731,0,0,1,0,1.624c0,.364-.055.448-.42.42-1.147,0-2.38-.056-4.088-.056Z" transform="translate(-0.337 -0.986)" fill="#333"/>
    <path id="パス_2410" data-name="パス 2410" d="M567.674,3214.846c1.147-1.177,2.6-2.633,4.032-4.117.84-.9,1.288-1.148,2.016-1.148a2.819,2.819,0,0,1,2.015.924,97.088,97.088,0,0,0,12.712,9.128.418.418,0,0,1,.2.644,10.372,10.372,0,0,1-1.121,1.821c-.168.252-.336.336-.587.139a148.655,148.655,0,0,1-12.572-9.632.792.792,0,0,0-.505-.251.683.683,0,0,0-.5.251c-1.288,1.316-2.715,2.884-4.647,4.984a11.164,11.164,0,0,0-1.148,1.456.443.443,0,0,1-.756.141,19.512,19.512,0,0,1-2.044-1.876A17.108,17.108,0,0,0,567.674,3214.846Zm13.187-7.477a.3.3,0,0,1,.393.028,14.931,14.931,0,0,1,3.08,3.361.281.281,0,0,1-.057.42l-1.035.756c-.169.111-.337.139-.448-.057a13.318,13.318,0,0,0-3.221-3.611Zm2.633-1.96a.271.271,0,0,1,.392,0,14.959,14.959,0,0,1,3.108,3.277c.111.168.084.279-.084.448l-1.009.756c-.168.139-.279.084-.391-.084a14.6,14.6,0,0,0-3.22-3.529Z" transform="translate(-0.365 -0.608)" fill="#333"/>
    <path id="パス_2411" data-name="パス 2411" d="M603.233,3208.377c.392.141.42.42.281.784a5.023,5.023,0,0,0-.309,2.072,18.8,18.8,0,0,1-1.651,7.9,15.048,15.048,0,0,1-4,5.124c-.393.364-.673.393-.981.141a7.038,7.038,0,0,0-1.9-.924,13.567,13.567,0,0,0,4.564-5.376,16.685,16.685,0,0,0,1.373-7.532,9.694,9.694,0,0,0-.252-2.661A16.948,16.948,0,0,1,603.233,3208.377Zm5.993,12.32a30.1,30.1,0,0,0,4.395-2.771,25.607,25.607,0,0,0,4.928-4.7,6.278,6.278,0,0,0,.644,2.212c.168.336.2.5-.2.9a38.87,38.87,0,0,1-4.311,3.836,51.483,51.483,0,0,1-4.9,3.221,3.908,3.908,0,0,0-.868.615.659.659,0,0,1-.924,0,7.633,7.633,0,0,1-1.344-1.344.779.779,0,0,1-.084-.84,8.031,8.031,0,0,0,.14-2.492v-8.288a24.538,24.538,0,0,0-.279-4.9,22.292,22.292,0,0,1,2.827.447c.532.168.448.477.225.98a10.8,10.8,0,0,0-.252,3.445Z" transform="translate(-0.395 -0.986)" fill="#333"/>
    <path id="パス_2412" data-name="パス 2412" d="M640.669,3215.35a2.52,2.52,0,1,1-2.52-2.521A2.526,2.526,0,0,1,640.669,3215.35Z" transform="translate(-0.422 -0.612)" fill="#333"/>
    <path id="パス_2413" data-name="パス 2413" d="M662.762,3216.1c.447.308.447.5.055.869a3.524,3.524,0,0,0-.728,1.036,22.486,22.486,0,0,1-3.024,4.479c-.28.336-.476.392-.839.168a6.322,6.322,0,0,0-1.876-.868,17.4,17.4,0,0,0,3.332-4.592,6.287,6.287,0,0,0,.7-2.156A12.718,12.718,0,0,1,662.762,3216.1Zm4.311-7.671a18.554,18.554,0,0,0-.307-4.061,24.278,24.278,0,0,1,2.883.364c.449.113.5.392.252.84a7.22,7.22,0,0,0-.28,2.857v1.624h3.528c2.212,0,4.2-.084,5.741-.168.252-.029.336.111.336.391a11.36,11.36,0,0,1-.029,1.68c0,.309-.084.448-.364.448-1.764-.084-3.92-.112-5.768-.112h-3.416v5.152c0,2.016.084,3.584.084,5.544a2.766,2.766,0,0,1-1.511,2.716,8.534,8.534,0,0,1-3.416.84.554.554,0,0,1-.561-.42,4.673,4.673,0,0,0-1.456-2.016,11.147,11.147,0,0,0,3.584-.42c.532-.223.7-.56.7-1.456v-9.94h-4.4c-1.6,0-3.416.084-4.817.2-.252,0-.364-.168-.364-.475-.027-.393-.111-1.456-.111-2.157,2.044.168,3.723.2,5.235.2h4.452Zm7.84,6.916c.252-.2.42-.113.645.084a21.132,21.132,0,0,1,3.947,5.095c.2.365.141.5-.111.728a10.282,10.282,0,0,1-1.456,1.064c-.252.168-.393.2-.533-.112a23.77,23.77,0,0,0-4.116-5.712C673.85,3216.077,674.409,3215.713,674.913,3215.35Z" transform="translate(-0.453 -0.986)" fill="#333"/>
    <path id="パス_2414" data-name="パス 2414" d="M699.133,3214.117a16.331,16.331,0,0,1-1.708,7.28,13.319,13.319,0,0,1-4.956,5.292c-.448.281-.784.42-1.12.084a4.7,4.7,0,0,0-1.989-1.175c2.773-1.485,4.369-2.912,5.516-5.069a13.311,13.311,0,0,0,1.429-6.412h-5.489c-1.4,0-2.828.084-4.116.168-.279.028-.336-.139-.363-.475a13.03,13.03,0,0,1-.2-2.1c1.6.112,3.08.141,4.675.141h12.292c2.044,0,3.556-.029,5.264-.141.252,0,.309.112.309.477v1.624c0,.307-.141.419-.393.419-1.567-.056-3.3-.112-5.151-.112Zm-5.013-6.328c-1.26,0-2.548.028-3.975.112-.336.029-.392-.112-.42-.42a20.34,20.34,0,0,1-.168-2.1c1.792.112,3.3.14,4.563.14h5.8c1.513,0,3.276,0,4.732-.083.252-.029.308.112.308.419a6.954,6.954,0,0,1,0,1.54c0,.365-.056.449-.336.449-1.512-.057-3.22-.057-4.7-.057Z" transform="translate(-0.482 -0.986)" fill="#333"/>
    <path id="パス_2415" data-name="パス 2415" d="M723.689,3208.377c.392.141.42.42.281.784a5.023,5.023,0,0,0-.309,2.072,18.8,18.8,0,0,1-1.651,7.9,15.048,15.048,0,0,1-4,5.124c-.393.364-.673.393-.981.141a7.039,7.039,0,0,0-1.9-.924,13.578,13.578,0,0,0,4.565-5.376,16.7,16.7,0,0,0,1.372-7.532,9.7,9.7,0,0,0-.252-2.661A16.931,16.931,0,0,1,723.689,3208.377Zm5.993,12.32a30.1,30.1,0,0,0,4.4-2.771,25.609,25.609,0,0,0,4.928-4.7,6.278,6.278,0,0,0,.644,2.212c.168.336.2.5-.2.9a38.875,38.875,0,0,1-4.311,3.836,51.623,51.623,0,0,1-4.9,3.221,3.907,3.907,0,0,0-.868.615.659.659,0,0,1-.924,0,7.633,7.633,0,0,1-1.344-1.344.779.779,0,0,1-.084-.84,8.031,8.031,0,0,0,.14-2.492v-8.288a24.538,24.538,0,0,0-.279-4.9,22.292,22.292,0,0,1,2.827.447c.532.168.448.477.225.98a10.8,10.8,0,0,0-.252,3.445Z" transform="translate(-0.511 -0.986)" fill="#333"/>
    <path id="パス_2416" data-name="パス 2416" d="M762.44,3219.913a12.107,12.107,0,0,0-.139-1.54c.783.028,1.624.084,2.3.168.252.028.363.141.363.309a1.057,1.057,0,0,1-.14.42,2.136,2.136,0,0,0-.139.643h2.548c2.576,0,3.416-.056,3.584-.056.251,0,.251.029.251.252v1.428c0,.252,0,.28-.251.28-.168,0-1.008-.055-3.584-.055h-2.548v.5c0,1.175.027,2.155.027,3.135a1.918,1.918,0,0,1-.924,1.96c-.5.308-1.315.476-3.611.449-.645,0-.673,0-.813-.533a5.221,5.221,0,0,0-.616-1.6c.952.084,1.9.111,2.464.111.841,0,1.261-.252,1.261-1.008v-3.023H750.093c-2.548,0-3.416.055-3.557.055-.223,0-.252-.028-.252-.28v-1.428c0-.223.029-.252.252-.252.141,0,1.009.056,3.557.056Zm-8.484-1.987c-2.771,0-3.779.055-3.92.055-.252,0-.279-.028-.279-.28,0-.139.056-.811.056-2.519v-3.557c0-1.735-.056-2.38-.056-2.548,0-.252.027-.28.279-.28.141,0,1.149.057,3.92.057h3.389v-1.737h-6.721c-2.6,0-3.5.057-3.668.057-.224,0-.252-.028-.252-.253v-1.4c0-.28.028-.308.252-.308.168,0,1.065.057,3.668.057h6.721a20.1,20.1,0,0,0-.168-2.661c.783.029,1.483.084,2.239.168.225.029.336.113.336.252a1.166,1.166,0,0,1-.14.533,5.1,5.1,0,0,0-.139,1.708h7.279c2.6,0,3.528-.057,3.668-.057.225,0,.253.028.253.308v1.4c0,.225-.028.253-.253.253-.14,0-1.064-.057-3.668-.057h-7.279v1.737h3.863c2.772,0,3.753-.057,3.921-.057.252,0,.279.028.279.28,0,.141-.056.813-.056,2.521v3.584c0,1.708.056,2.38.056,2.519,0,.252-.027.28-.279.28-.168,0-1.149-.055-3.921-.055Zm3.389-5.405v-2.043h-5.433v2.043Zm0,3.808v-2.24h-5.433v2.24Zm-3.949,6.048a.936.936,0,0,1,.336-.14.387.387,0,0,1,.252.14,18.646,18.646,0,0,1,2.632,3c.168.225.113.309-.2.5l-1.261.672a.776.776,0,0,1-.363.168c-.084,0-.141-.056-.2-.168a14.129,14.129,0,0,0-2.548-3.136c-.084-.084-.113-.14-.113-.2,0-.084.084-.14.281-.252Zm6.077-11.9v2.043h5.88v-2.043Zm5.88,3.611h-5.88v2.24h5.88Z" transform="translate(-0.632 -0.986)" fill="#333"/>
    <path id="パス_2417" data-name="パス 2417" d="M785.12,3203.842c1.82,0,2.548-.057,2.716-.057.225,0,.252.028.252.28,0,.14-.056.953-.056,2.772v3.78c0,1.792.056,2.6.056,2.744,0,.252-.027.281-.252.281-.168,0-.9-.057-2.716-.057h-4.536v8.232c0,3.836.057,5.516.057,5.712,0,.224-.029.252-.252.252h-1.821c-.223,0-.252-.028-.252-.252,0-.2.056-1.876.056-5.712v-12.011c0-3.809-.056-5.573-.056-5.741,0-.252.029-.28.252-.28.2,0,1.12.057,3.136.057Zm-4.536,1.763v2.268h5.349V3205.6Zm5.349,3.865h-5.349v2.435h5.349Zm14.559,10.163c0,1.736.084,3.612.084,4.816,0,1.288-.139,1.848-.756,2.324-.588.476-1.232.644-3.892.644-.7,0-.7,0-.84-.7a6.77,6.77,0,0,0-.615-1.623,20.248,20.248,0,0,0,2.464.139c1.091,0,1.343-.252,1.343-1.259v-10.389h-4.62c-2.128,0-2.828.057-2.968.057-.252,0-.28-.029-.28-.281,0-.139.056-.812.056-2.576v-4.143c0-1.765-.056-2.409-.056-2.577,0-.252.028-.28.28-.28.14,0,.84.057,2.968.057h3.612c2.156,0,2.856-.057,3.024-.057.225,0,.252.028.252.28,0,.14-.056,1.26-.056,3.752Zm-7.924-14.028v2.268h5.712V3205.6Zm5.712,6.3v-2.435h-5.712v2.435Z" transform="translate(-0.632 -0.986)" fill="#333"/>
    <path id="パス_2418" data-name="パス 2418" d="M811.692,3220.361c-2.576,0-3.416.056-3.584.056-.224,0-.252-.027-.252-.252v-1.624c0-.224.028-.252.252-.252.168,0,1.008.057,3.584.057h7.532a16.223,16.223,0,0,0-.2-2.6c.532.056,1.064.113,1.54.2a20.006,20.006,0,0,0,3.164-2.325h-6.916c-2.6,0-3.472.056-3.612.056-.252,0-.28-.027-.28-.224v-1.511c0-.225.028-.252.28-.252.14,0,1.008.055,3.612.055h7.728a2.067,2.067,0,0,0,.728-.055.8.8,0,0,1,.308-.084c.2,0,.42.2.98.727.448.477.644.784.644,1.008a.391.391,0,0,1-.308.393,3.448,3.448,0,0,0-1.26.811,32.576,32.576,0,0,1-4.115,2.857,6.372,6.372,0,0,0-.029.839v.113h7.252c2.576,0,3.416-.057,3.584-.057.224,0,.252.028.252.252v1.624c0,.225-.028.252-.252.252-.168,0-1.008-.056-3.584-.056h-7.252v2.464c0,.616.029,1.708.029,2.408,0,1.092-.2,1.6-.813,2.016-.644.42-1.428.532-4.06.532-.644,0-.644,0-.84-.643a6.829,6.829,0,0,0-.7-1.653,24.647,24.647,0,0,0,2.94.168c.812,0,1.176-.2,1.176-1.036v-4.256Zm-.812-7c0,.252-.027.281-.252.281h-1.68c-.252,0-.28-.029-.28-.281,0-.168.056-.559.056-3.051V3209.3c0-.981-.056-1.456-.056-1.624,0-.225.028-.252.28-.252.168,0,1.12.055,3.781.055h11.759a19.81,19.81,0,0,0,1.624-3.164,5.593,5.593,0,0,0,.364-1.372,9.926,9.926,0,0,1,2.128.7c.252.112.364.223.364.364a.446.446,0,0,1-.252.363,2.113,2.113,0,0,0-.532.645c-.476.9-.868,1.595-1.428,2.463h.98c2.66,0,3.64-.055,3.78-.055.252,0,.28.027.28.252,0,.139-.056.643-.056,1.427v1.205c0,2.519.056,2.912.056,3.051,0,.252-.028.281-.28.281h-1.652c-.252,0-.28-.029-.28-.281v-3.948h-18.7Zm2.072-10.219c.336-.168.42-.113.56.084a23.538,23.538,0,0,1,2.016,3.023c.112.252.112.252-.252.42l-1.232.477a.9.9,0,0,1-.336.112c-.084,0-.14-.057-.2-.225a16.018,16.018,0,0,0-1.9-3.052c-.14-.2-.112-.28.224-.391Zm7.308,3.807c-.42.168-.447.14-.56-.139a15.428,15.428,0,0,0-1.568-3.277c-.14-.252-.084-.28.252-.391l1.232-.393c.28-.111.364-.084.5.112a21.057,21.057,0,0,1,1.652,3.277c.084.223,0,.279-.308.391Z" transform="translate(-0.632 -0.986)" fill="#333"/>
    <path id="パス_2419" data-name="パス 2419" d="M842.633,3208.686v-2.464a17.118,17.118,0,0,0-.224-3.529c.867.029,1.54.084,2.212.168.224.029.392.14.392.252a1.309,1.309,0,0,1-.168.561,7.524,7.524,0,0,0-.168,2.491v2.521h.112c1.96,0,2.52-.057,2.688-.057.224,0,.252.028.252.28v1.456c0,.252-.028.281-.252.281-.168,0-.728-.057-2.632-.057h-.084a15.926,15.926,0,0,0,3.052,5.713,7.33,7.33,0,0,0-.812,1.4c-.112.28-.2.393-.28.393s-.2-.113-.308-.365a24.667,24.667,0,0,1-1.849-4.536c.029,7.924.225,14.168.225,14.588,0,.252-.028.281-.28.281H842.8c-.252,0-.28-.029-.28-.281,0-.42.2-6.524.251-14a31.283,31.283,0,0,1-3.219,7.84c-.14.252-.252.393-.365.393s-.2-.113-.279-.365a5.38,5.38,0,0,0-.812-1.511,30.378,30.378,0,0,0,4.368-9.549h-.7c-1.932,0-2.52.057-2.688.057-.224,0-.252-.029-.252-.281v-1.456c0-.252.028-.28.252-.28.168,0,.756.057,2.688.057Zm9.772,6.439c.28-.14.364-.084.448.168a18.362,18.362,0,0,0,2.352,4.564,16.472,16.472,0,0,0,1.372-2.6,11.071,11.071,0,0,0,.7-2.436,14.2,14.2,0,0,1,1.905.84c.224.113.364.252.364.364,0,.2-.168.336-.336.533a4.717,4.717,0,0,0-.588,1.2,17.641,17.641,0,0,1-2.044,3.724,18.81,18.81,0,0,0,7.363,4.2,5.77,5.77,0,0,0-1.063,1.427c-.2.365-.28.533-.477.533a1.478,1.478,0,0,1-.5-.168,21.032,21.032,0,0,1-6.664-4.369,20.272,20.272,0,0,1-7.139,4.592,1.365,1.365,0,0,1-.532.168c-.168,0-.252-.139-.42-.42a4.225,4.225,0,0,0-1.092-1.372,18.115,18.115,0,0,0,7.811-4.563,23.474,23.474,0,0,1-2.855-5.349c-.112-.223-.056-.252.308-.448Zm.812-4.676c.223.14.336.252.336.393a.531.531,0,0,1-.252.42,3.3,3.3,0,0,0-.588.783,17.265,17.265,0,0,1-3.3,4.06c-.224.224-.364.308-.476.308-.14,0-.252-.111-.449-.392a4.013,4.013,0,0,0-1.063-1.007,13.55,13.55,0,0,0,3.5-3.977,4.725,4.725,0,0,0,.559-1.315A18.117,18.117,0,0,1,853.217,3210.449Zm-1.176-1.736c-2.66,0-3.584.057-3.725.057-.223,0-.252-.029-.252-.252v-1.569c0-.223.029-.252.252-.252.141,0,1.065.056,3.725.056h2.016V3205.6a14.793,14.793,0,0,0-.2-2.967c.813.027,1.681.084,2.353.168.252.027.42.168.42.252a1.3,1.3,0,0,1-.168.559,5.274,5.274,0,0,0-.2,1.988v1.148h2.883c2.661,0,3.557-.056,3.7-.056.28,0,.308.029.308.252v1.569c0,.223-.028.252-.308.252-.14,0-1.036-.057-3.7-.057Zm6.244,1.2a.867.867,0,0,1,.308-.14c.084,0,.139.056.223.168a15.462,15.462,0,0,0,4.621,4.62,5.942,5.942,0,0,0-1.008,1.232c-.2.336-.281.5-.42.5-.113,0-.252-.084-.476-.281a19.142,19.142,0,0,1-4.452-5.04c-.141-.223-.112-.28.224-.476Z" transform="translate(-0.632 -0.986)" fill="#333"/>
  </g>
</svg>
