<svg xmlns="http://www.w3.org/2000/svg" width="118.47" height="42.026" viewBox="0 0 118.47 42.026">
  <g id="グループ_1823" data-name="グループ 1823" transform="translate(-188.223 -876.829)">
    <path id="パス_2344" data-name="パス 2344" d="M188.223,918.507V877.178h5.687l8.94,24.9h.116v-24.9h5.921v41.329h-5.573l-9.055-24.844h-.116v24.844Z" fill="#d40e64"/>
    <path id="パス_2345" data-name="パス 2345" d="M220.031,918.507V877.178h17.647v5.572H225.951v12.132h10.217v5.572H225.951v12.132h11.727v5.921Z" fill="#d40e64"/>
    <path id="パス_2346" data-name="パス 2346" d="M278.02,877.178l-6.154,41.329h-5.572l-4.528-26.818h-.116l-4.469,26.818h-5.574l-6.152-41.329h6.27l2.96,26.237h.116l4.643-26.237h4.529l4.817,26.875h.116l2.844-26.875Z" fill="#d40e64"/>
    <path id="パス_2347" data-name="パス 2347" d="M306.693,889.077h-5.92v-1.335a6.32,6.32,0,0,0-.959-3.512,3.538,3.538,0,0,0-3.22-1.48,3.721,3.721,0,0,0-1.974.465,3.9,3.9,0,0,0-1.22,1.16,4.946,4.946,0,0,0-.638,1.713,11.193,11.193,0,0,0-.174,2,19.33,19.33,0,0,0,.088,2.031,3.841,3.841,0,0,0,.435,1.451,3.219,3.219,0,0,0,1.016,1.1,9.133,9.133,0,0,0,1.828.928l4.527,1.8a11.253,11.253,0,0,1,3.194,1.771,7.674,7.674,0,0,1,1.915,2.35,10.992,10.992,0,0,1,.87,3.164,31.464,31.464,0,0,1,.232,4.035,21.28,21.28,0,0,1-.521,4.846,10.231,10.231,0,0,1-1.684,3.8,8.355,8.355,0,0,1-3.193,2.555,11.28,11.28,0,0,1-4.817.928,10.549,10.549,0,0,1-4.005-.754,9.526,9.526,0,0,1-3.194-2.09,10.172,10.172,0,0,1-2.118-3.106,9.433,9.433,0,0,1-.784-3.86v-2.2H292.3V908.7a4.83,4.83,0,0,0,.958,2.931,3.732,3.732,0,0,0,3.222,1.307,5.194,5.194,0,0,0,2.35-.436,3.134,3.134,0,0,0,1.307-1.248,4.6,4.6,0,0,0,.551-1.944q.087-1.133.087-2.526a24.836,24.836,0,0,0-.117-2.67,4.6,4.6,0,0,0-.464-1.683,3.27,3.27,0,0,0-1.073-1.045,13.773,13.773,0,0,0-1.771-.87l-4.237-1.742q-3.831-1.566-5.137-4.15a14.289,14.289,0,0,1-1.306-6.473,14.976,14.976,0,0,1,.639-4.411,10.006,10.006,0,0,1,1.915-3.6,8.764,8.764,0,0,1,3.105-2.409,10.375,10.375,0,0,1,4.5-.9,9.828,9.828,0,0,1,4.033.813,10.4,10.4,0,0,1,3.164,2.148,8.966,8.966,0,0,1,2.67,6.385Z" fill="#d40e64"/>
  </g>
</svg>
