<svg xmlns="http://www.w3.org/2000/svg" width="504" height="52" viewBox="0 0 504 52">
  <g id="グループ_1841" data-name="グループ 1841" transform="translate(-190.596 -4443.854)">
    <path id="パス_2367" data-name="パス 2367" d="M190.848,4490.93c-.224,0-.252-.029-.252-.252,0-.2.056-1.68.056-9.773v-5.4c0-5.433-.056-7-.056-7.168,0-.225.028-.252.252-.252.2,0,1.148.056,3.892.056h8.848c2.744,0,3.724-.056,3.891-.056.225,0,.253.027.253.252,0,.168-.056,1.735-.056,6.412v6.159c0,8.009.056,9.521.056,9.66,0,.252-.028.281-.253.281H205.66c-.252,0-.28-.029-.28-.281v-1.54H192.948v1.653c0,.223-.028.252-.252.252Zm2.1-13.636H205.38v-7.084H192.948Zm12.432,9.632v-7.561H192.948v7.561Z" transform="translate(0 -0.127)" fill="#333"/>
    <path id="パス_2368" data-name="パス 2368" d="M226.6,4476.286a32.849,32.849,0,0,1-6.8,7.308c-.28.223-.42.307-.672.139a5.429,5.429,0,0,0-1.849-.811,32.774,32.774,0,0,0,9.128-10.7,11.555,11.555,0,0,0,1.513-3.865,11.657,11.657,0,0,1,2.464,1.009.483.483,0,0,1,0,.783,3.9,3.9,0,0,0-.813.981,31.865,31.865,0,0,1-1.792,3.107l5.712-.139a2.657,2.657,0,0,0,1.345-.224.638.638,0,0,1,.756.056,8.478,8.478,0,0,1,1.344,1.091c.307.336.28.645.084.84a3.684,3.684,0,0,0-.812,1.149,29.671,29.671,0,0,1-5.265,7.336,28.152,28.152,0,0,1,2.773,2.967c.223.281.223.365-.028.645a7.811,7.811,0,0,1-1.289,1.092c-.252.168-.336.2-.532-.056a26.984,26.984,0,0,0-7.7-7c.476-.448.9-.9,1.315-1.288.225-.225.309-.2.617-.028a30.288,30.288,0,0,1,3.276,2.351,23.859,23.859,0,0,0,4.7-6.916Z" transform="translate(0 -0.127)" fill="#333"/>
    <path id="パス_2369" data-name="パス 2369" d="M249.285,4490.062c-2.632,0-3.5.055-3.64.055-.224,0-.252-.027-.252-.252v-1.735c0-.252.028-.28.252-.28.14,0,1.008.055,3.64.055h7.14v-5.8h-3.277c-2.8,0-3.723.057-3.891.057-.252,0-.28-.028-.28-.28v-1.653c0-.223.028-.252.28-.252.168,0,1.092.057,3.891.057h3.277v-5.349h-6.3a22.133,22.133,0,0,1-2.688,4.256c-.2.225-.28.365-.42.365-.112,0-.252-.113-.5-.365a4.139,4.139,0,0,0-1.316-.867,23.039,23.039,0,0,0,4.592-8.4,6.94,6.94,0,0,0,.364-1.708c.756.168,1.6.391,2.128.559.28.084.392.2.392.365a.727.727,0,0,1-.224.448,2.608,2.608,0,0,0-.5.952c-.28.784-.56,1.54-.868,2.3h5.348v-1.96a22.056,22.056,0,0,0-.224-4c.9.027,1.792.084,2.491.14.225.028.365.168.365.28a1.371,1.371,0,0,1-.14.532,12.43,12.43,0,0,0-.168,3v2.017h5.012c2.8,0,3.723-.057,3.891-.057.253,0,.281.029.281.253v1.708c0,.224-.028.252-.281.252-.168,0-1.091-.057-3.891-.057h-5.012v5.349h3.724c2.8,0,3.752-.057,3.892-.057.224,0,.252.029.252.252v1.653c0,.252-.028.28-.252.28-.14,0-1.093-.057-3.892-.057h-3.724v5.8h7.027c2.605,0,3.473-.055,3.641-.055.224,0,.252.028.252.28v1.735c0,.225-.028.252-.252.252-.168,0-1.036-.055-3.641-.055Z" transform="translate(0 -0.127)" fill="#333"/>
    <path id="パス_2370" data-name="パス 2370" d="M285.461,4479.786a55.728,55.728,0,0,1-6.132-.112c-.28,0-.364-.084-.391-.393a17.75,17.75,0,0,1-.113-1.792,39.467,39.467,0,0,0,6.58.2c-.028-1.232-.056-2.52-.056-3.752a52.318,52.318,0,0,1-7.084-.14c-.252-.028-.336-.112-.364-.336-.056-.532-.112-1.064-.14-1.9a48.584,48.584,0,0,0,7.588.252c0-1.092-.028-1.876-.028-2.857a7.729,7.729,0,0,0-.308-1.876,13.906,13.906,0,0,1,2.8.421.486.486,0,0,1,.28.728,3.031,3.031,0,0,0-.364,1.316c-.056.756-.056,1.288-.083,2.184a54.665,54.665,0,0,0,6.523-.9c.252-.056.336,0,.364.252a11.774,11.774,0,0,1,.112,1.6c0,.28-.084.336-.252.336a59.574,59.574,0,0,1-6.776.84c0,1.259.029,2.547.056,3.723a37.533,37.533,0,0,0,5.852-.84c.252-.055.336,0,.364.2.028.42.056,1.091.056,1.708,0,.223-.084.307-.336.336a49.486,49.486,0,0,1-5.852.7c.028,1.567.084,3,.2,4.536a23.892,23.892,0,0,1,7.42,3.5c.2.168.224.279.14.56a5.039,5.039,0,0,1-.924,1.568c-.168.224-.308.252-.532.084a20.162,20.162,0,0,0-5.992-3.389c0,3.08-1.736,4.313-5.348,4.313-3.444,0-5.292-1.372-5.292-3.584,0-2.157,2.044-3.668,5.376-3.668a20.082,20.082,0,0,1,2.828.168C285.545,4482.306,285.489,4481.13,285.461,4479.786Zm-2.6,5.768c-2.184,0-3.3.7-3.3,1.624,0,.979,1.009,1.568,2.968,1.568a3.624,3.624,0,0,0,2.716-.868,2.711,2.711,0,0,0,.42-1.96A11.946,11.946,0,0,0,282.857,4485.554Z" transform="translate(-0.128 -0.127)" fill="#333"/>
    <path id="パス_2371" data-name="パス 2371" d="M311.192,4467.578c.393.111.533.279.533.5a1.108,1.108,0,0,1-.168.447,2.631,2.631,0,0,0-.252,1.2c-.084,1.121-.113,1.96-.168,3.332a5.794,5.794,0,0,1,1.008.617c.223.168.251.364.055.616-.447.756-.867,1.512-1.287,2.38a5.4,5.4,0,0,0-.028.672c1.036-1.148,1.847-2.016,2.912-3.024,1.932-1.82,3.5-2.744,5.012-2.744,2.072,0,3.192,1.315,3.192,3.584,0,1.063-.057,2.855-.225,5.151-.139,2.353-.279,3.781-.279,4.676,0,1.6.42,1.933,1.176,1.933a3.418,3.418,0,0,0,2.239-1.036,8.308,8.308,0,0,0,1.681-2.548,4.843,4.843,0,0,0,.811,1.708.735.735,0,0,1,.057,1.008c-1.261,1.9-2.912,3.192-5.068,3.192-2.212,0-3.332-1.177-3.332-3.92,0-1.036.084-2.633.223-4.761.141-2.212.225-3.5.2-4.7,0-1.427-.335-2.183-1.036-2.183-.923,0-2.015.644-3.471,1.96a57.771,57.771,0,0,0-4.117,4.284c.029,3.164.113,7.055.113,10.584,0,.223-.084.336-.336.336a14.931,14.931,0,0,1-1.737.084c-.2,0-.307-.113-.307-.392,0-3.444,0-6.385.084-8.82-1.26,1.82-2.437,3.723-3.7,5.656-.2.308-.281.308-.56.14a6.611,6.611,0,0,1-1.316-1.2c-.224-.2-.113-.42.055-.644,2.3-2.94,3.809-5.124,5.489-7.616.028-.868.028-1.54.055-2.212a28.549,28.549,0,0,0-3.584,1.26c-.279.112-.531.364-.756.364a.582.582,0,0,1-.475-.336,10.179,10.179,0,0,1-.924-2.044,11.3,11.3,0,0,0,1.987-.252q1.471-.378,3.865-1.177c.028-1.259.028-2.491.055-3.752a12.664,12.664,0,0,0-.223-2.743A13.344,13.344,0,0,1,311.192,4467.578Z" transform="translate(-0.168 -0.127)" fill="#333"/>
    <path id="パス_2372" data-name="パス 2372" d="M340.845,4478.525a9.577,9.577,0,0,1,5.348-1.708c4.06,0,6.72,2.577,6.72,6.412,0,4.369-3.5,7.393-9.464,7.393-3.528,0-5.263-1.513-5.263-3.641a3.349,3.349,0,0,1,3.611-3.135,4.957,4.957,0,0,1,4.984,4.116c2.212-.84,3.556-2.269,3.556-4.788a4.332,4.332,0,0,0-4.648-4.4,12.358,12.358,0,0,0-7.476,3.053,31.369,31.369,0,0,0-2.464,2.323c-.28.281-.42.336-.7.057a8.922,8.922,0,0,1-1.288-1.429c-.14-.168-.084-.307.112-.5a78.982,78.982,0,0,0,6.524-6.215c1.708-1.764,3.22-3.472,5.041-5.6-2.044.336-4.257.784-6.441,1.2a5.042,5.042,0,0,0-1.063.279,1.512,1.512,0,0,1-.533.141c-.252,0-.392-.112-.532-.393a10.2,10.2,0,0,1-.784-2.351,10.854,10.854,0,0,0,2.52.028c1.988-.2,4.368-.532,6.692-.98a3.571,3.571,0,0,0,1.148-.336,1.153,1.153,0,0,1,.476-.2.908.908,0,0,1,.56.225,9.116,9.116,0,0,1,1.484,1.428.9.9,0,0,1,.252.559.648.648,0,0,1-.447.588,3.53,3.53,0,0,0-1.289.952c-2.295,2.353-4.2,4.313-6.72,6.832Zm1.036,7.2c-.924,0-1.624.475-1.624,1.259,0,.924.9,1.6,2.744,1.624a8,8,0,0,0,1.624-.139C344.261,4486.842,343.281,4485.722,341.881,4485.722Z" transform="translate(-0.211 -0.127)" fill="#333"/>
    <path id="パス_2373" data-name="パス 2373" d="M373.465,4477.686a16.338,16.338,0,0,1-1.708,7.28,13.329,13.329,0,0,1-4.956,5.292c-.448.28-.784.42-1.12.084a4.7,4.7,0,0,0-1.989-1.176c2.773-1.484,4.369-2.912,5.516-5.068a13.315,13.315,0,0,0,1.429-6.412h-5.489c-1.4,0-2.828.084-4.116.168-.279.028-.336-.14-.363-.476a13.014,13.014,0,0,1-.2-2.1c1.6.113,3.08.141,4.675.141H377.44c2.044,0,3.556-.028,5.264-.141.252,0,.309.113.309.477v1.624c0,.308-.141.42-.393.42-1.567-.057-3.3-.112-5.151-.112Zm-5.013-6.329c-1.26,0-2.548.029-3.975.113-.336.028-.392-.113-.42-.42a20.312,20.312,0,0,1-.168-2.1c1.792.113,3.3.141,4.563.141h5.8c1.513,0,3.276,0,4.732-.084.252-.028.308.112.308.42a6.954,6.954,0,0,1,0,1.54c0,.364-.056.448-.336.448-1.512-.057-3.22-.057-4.7-.057Z" transform="translate(-0.252 -0.127)" fill="#333"/>
    <path id="パス_2374" data-name="パス 2374" d="M404.6,4471.75a2.267,2.267,0,0,0,1.4-.309c.225-.168.477-.111.756.084a10.06,10.06,0,0,1,1.484,1.177.617.617,0,0,1,.056,1.008,2.9,2.9,0,0,0-.812,1.063,38.747,38.747,0,0,1-5.46,8.708,35.075,35.075,0,0,1-8.652,7.141.609.609,0,0,1-.811-.112,5.464,5.464,0,0,0-2.1-1.036,31.036,31.036,0,0,0,9.268-7.281,30,30,0,0,0,5.236-8.315l-7.447.224a41.353,41.353,0,0,1-5.433,5.879.638.638,0,0,1-.924.084,5.586,5.586,0,0,0-1.988-.839,30.89,30.89,0,0,0,7.392-8.232,9.253,9.253,0,0,0,1.512-3.612,9.733,9.733,0,0,1,2.632,1.2.445.445,0,0,1-.027.811,3.322,3.322,0,0,0-.757.869c-.392.588-.672,1.064-1.035,1.595Z" transform="translate(-0.293 -0.127)" fill="#333"/>
    <path id="パス_2375" data-name="パス 2375" d="M431.174,4470.1a.5.5,0,0,1,.112.812,6.607,6.607,0,0,0-1.232,1.987,45.766,45.766,0,0,1-5.012,8.541,33.851,33.851,0,0,1-8.372,7.923.651.651,0,0,1-.9-.027,6.062,6.062,0,0,0-2.072-1.093,33.268,33.268,0,0,0,9.044-8.147,36.117,36.117,0,0,0,4.536-7.9,12.886,12.886,0,0,0,.952-3.5A15.1,15.1,0,0,1,431.174,4470.1Z" transform="translate(-0.328 -0.127)" fill="#333"/>
    <path id="パス_2376" data-name="パス 2376" d="M454.3,4470.489a3.277,3.277,0,0,0,1.736-.252.576.576,0,0,1,.644.113,8.078,8.078,0,0,1,1.456,1.484c.2.279.14.476-.168.756a4.894,4.894,0,0,0-.924,1.12,45.223,45.223,0,0,1-3.892,5.684,60.476,60.476,0,0,1,7.9,6.916c.252.252.28.364.028.7a15.979,15.979,0,0,1-1.372,1.372c-.224.223-.392.2-.616-.057a48.894,48.894,0,0,0-7.5-7.027,42.091,42.091,0,0,1-9.772,7.643c-.364.2-.616.281-.868-.027a5.9,5.9,0,0,0-1.876-1.372,34.919,34.919,0,0,0,10.108-7.42,33.952,33.952,0,0,0,5.292-7.28H446.6c-1.54,0-2.857.084-4.2.168-.252,0-.308-.113-.364-.392a12.333,12.333,0,0,1-.2-2.24c1.429.111,2.744.111,4.508.111Z" transform="translate(-0.369 -0.127)" fill="#333"/>
    <path id="パス_2377" data-name="パス 2377" d="M478.3,4484.266c-1.2,2.072-2.548,3.024-4.4,3.024-2.239,0-4.451-2.436-4.451-6.721a10.262,10.262,0,0,1,3.22-7.279,12.006,12.006,0,0,1,8.68-3.276c6.5,0,10.276,3.836,10.276,9.3,0,4.843-2.856,8.343-8.765,9.967a.736.736,0,0,1-.951-.391,4.036,4.036,0,0,0-1.456-1.344c5.208-1.12,8.624-3.668,8.624-8.6a6.8,6.8,0,0,0-7.168-6.8C481.351,4476.874,480.035,4481.382,478.3,4484.266Zm-4.061-9.436a8.4,8.4,0,0,0-2.464,5.655c0,2.857,1.121,4.2,2.073,4.2.868,0,1.624-.5,2.408-1.905a30.36,30.36,0,0,0,3.164-10.527A9.043,9.043,0,0,0,474.238,4474.83Z" transform="translate(-0.414 -0.127)" fill="#333"/>
    <path id="パス_2378" data-name="パス 2378" d="M512.506,4495.423v-44.242h-8.5v-6.9h24.336v6.9h-8.5v44.242Z" transform="translate(-0.467 0)" fill="#d40e64"/>
    <path id="パス_2379" data-name="パス 2379" d="M538.354,4456.351a13.037,13.037,0,0,1,1.079-5.458,11.517,11.517,0,0,1,2.88-3.95,12.161,12.161,0,0,1,3.924-2.3,13.091,13.091,0,0,1,12.852,2.3,12.019,12.019,0,0,1,2.808,3.95,13.036,13.036,0,0,1,1.081,5.458v27.006a12.922,12.922,0,0,1-1.081,5.531,11.4,11.4,0,0,1-2.808,3.806,12.307,12.307,0,0,1-4,2.37,12.8,12.8,0,0,1-8.856,0,11.508,11.508,0,0,1-3.924-2.37,10.942,10.942,0,0,1-2.88-3.806,12.923,12.923,0,0,1-1.079-5.531Zm7.343,27.006a4.86,4.86,0,0,0,1.476,3.915,5.478,5.478,0,0,0,6.984,0,4.863,4.863,0,0,0,1.476-3.915v-27.006a4.863,4.863,0,0,0-1.476-3.914,5.48,5.48,0,0,0-6.984,0,4.859,4.859,0,0,0-1.476,3.914Z" transform="translate(-0.519)" fill="#d40e64"/>
    <path id="パス_2380" data-name="パス 2380" d="M576.657,4495.423v-51.137h11.016a16.4,16.4,0,0,1,5.328.79,10.228,10.228,0,0,1,4.176,2.8,10.957,10.957,0,0,1,2.593,4.7,29.455,29.455,0,0,1,.719,7.29,36.192,36.192,0,0,1-.4,5.818,12.127,12.127,0,0,1-1.692,4.453,10.7,10.7,0,0,1-4.032,3.914,13.612,13.612,0,0,1-6.624,1.4H584v19.966ZM584,4451.182v17.38h3.528a7.527,7.527,0,0,0,3.456-.646,4.076,4.076,0,0,0,1.8-1.8,6.551,6.551,0,0,0,.684-2.658q.108-1.58.108-3.52,0-1.794-.072-3.411a7.364,7.364,0,0,0-.648-2.837,4.081,4.081,0,0,0-1.728-1.867,6.875,6.875,0,0,0-3.312-.646Z" transform="translate(-0.575 0)" fill="#d40e64"/>
    <path id="パス_2381" data-name="パス 2381" d="M613.376,4495.423v-51.137h7.344v51.137Z" transform="translate(-0.716 0)" fill="#d40e64"/>
    <path id="パス_2382" data-name="パス 2382" d="M658.376,4480.844V4484a11.379,11.379,0,0,1-.9,4.489,12.442,12.442,0,0,1-2.484,3.771,12.009,12.009,0,0,1-3.708,2.622,10.875,10.875,0,0,1-4.572.969,16.5,16.5,0,0,1-4.248-.574,10.037,10.037,0,0,1-3.888-2.011,11.14,11.14,0,0,1-2.845-3.7,13.068,13.068,0,0,1-1.115-5.782v-28.155a12.438,12.438,0,0,1,.863-4.67,11,11,0,0,1,2.449-3.734,11.382,11.382,0,0,1,3.78-2.478,12.721,12.721,0,0,1,4.859-.9,11.153,11.153,0,0,1,8.425,3.375,12.023,12.023,0,0,1,2.484,3.915,13.208,13.208,0,0,1,.9,4.92v2.873h-7.344v-2.443a5.925,5.925,0,0,0-1.224-3.734,3.973,3.973,0,0,0-3.312-1.58q-2.737,0-3.637,1.688a9.028,9.028,0,0,0-.9,4.273v26.144a6.758,6.758,0,0,0,.972,3.735,3.832,3.832,0,0,0,3.492,1.509,5.326,5.326,0,0,0,1.548-.251,4.653,4.653,0,0,0,1.548-.826,4.383,4.383,0,0,0,1.08-1.58,6.392,6.392,0,0,0,.432-2.514v-2.514Z" transform="translate(-0.716)" fill="#d40e64"/>
    <path id="パス_2383" data-name="パス 2383" d="M695.312,4459.009h-7.344v-1.652a7.807,7.807,0,0,0-1.189-4.345,4.4,4.4,0,0,0-3.995-1.832,4.645,4.645,0,0,0-2.448.573,4.842,4.842,0,0,0-1.513,1.438,6.069,6.069,0,0,0-.792,2.119,13.892,13.892,0,0,0-.216,2.478,24.186,24.186,0,0,0,.109,2.514,4.763,4.763,0,0,0,.54,1.8,3.979,3.979,0,0,0,1.26,1.364,11.475,11.475,0,0,0,2.268,1.149l5.615,2.227a13.971,13.971,0,0,1,3.96,2.19,9.461,9.461,0,0,1,2.376,2.909,13.539,13.539,0,0,1,1.08,3.915,38.634,38.634,0,0,1,.289,4.992,26.249,26.249,0,0,1-.648,6,12.653,12.653,0,0,1-2.088,4.705,10.364,10.364,0,0,1-3.961,3.16,14.012,14.012,0,0,1-5.975,1.148,13.11,13.11,0,0,1-4.968-.933,11.774,11.774,0,0,1-3.96-2.585,12.546,12.546,0,0,1-2.628-3.843,11.646,11.646,0,0,1-.973-4.777v-2.729h7.345v2.3a5.974,5.974,0,0,0,1.188,3.627,4.634,4.634,0,0,0,4,1.616,6.457,6.457,0,0,0,2.916-.539,3.877,3.877,0,0,0,1.62-1.544,5.646,5.646,0,0,0,.683-2.406q.109-1.4.109-3.125a30.887,30.887,0,0,0-.145-3.305,5.689,5.689,0,0,0-.575-2.083,4.066,4.066,0,0,0-1.332-1.292,17.535,17.535,0,0,0-2.2-1.079L678.464,4471q-4.752-1.939-6.372-5.134a17.628,17.628,0,0,1-1.62-8.008,18.509,18.509,0,0,1,.792-5.459,12.373,12.373,0,0,1,2.376-4.453,10.886,10.886,0,0,1,3.852-2.981,12.893,12.893,0,0,1,5.579-1.113,12.229,12.229,0,0,1,5.005,1,12.944,12.944,0,0,1,3.924,2.658,11.092,11.092,0,0,1,3.312,7.9Z" transform="translate(-0.716)" fill="#d40e64"/>
  </g>
</svg>
