<?xml version="1.0" encoding="utf-8"?>
<!-- Generator: Adobe Illustrator 21.1.0, SVG Export Plug-In . SVG Version: 6.00 Build 0)  -->
<svg version="1.1" id="レイヤー_1" xmlns="http://www.w3.org/2000/svg" xmlns:xlink="http://www.w3.org/1999/xlink" x="0px"
	 y="0px" width="70.5px" height="63.5px" viewBox="0 0 70.5 63.5" style="enable-background:new 0 0 70.5 63.5;"
	 xml:space="preserve">
<style type="text/css">
	.st0{fill:#0097DA;}
	.st1{fill:#AF96BE;}
	.st2{fill:#CC4A8E;}
	.st3{fill:#BF76A6;}
	.st4{fill:#009AD5;}
	.st5{fill:#DE7EA8;}
	.st6{fill:#5F9ECF;}
	.st7{fill:#D94C8E;}
	.st8{fill:#99A0C8;}
	.st9{fill:#D50078;}
	.st10{fill:#595757;}
</style>
<title>logo</title>
<g id="レイヤー_2">
	<g id="ヘッダー">
		<rect y="4.9" class="st0" width="1.2" height="26.7"/>
		<polygon class="st1" points="30.2,1 29,1 27.9,1 26.7,1 25.5,1 25.5,35.6 26.7,35.6 27.9,35.6 29,35.6 30.2,35.6 31.3,35.6 
			31.3,1 		"/>
		<polygon class="st2" points="52.9,1 51.7,1 50.6,1 49.4,1 48.2,1 48.2,35.6 49.4,35.6 50.6,35.6 51.7,35.6 52.9,35.6 54,35.6 
			54,1 		"/>
		<polygon class="st3" points="37.3,0 37.3,36.6 38.5,36.6 39.6,36.6 40.8,36.6 42,36.6 43.1,36.6 44.3,36.6 44.3,0 		"/>
		<polygon class="st4" points="4.3,4 3.2,4 3.2,32.6 4.3,32.6 5.5,32.6 5.5,4 		"/>
		<polygon class="st5" points="69.3,4 68.1,4 68.1,32.6 69.3,32.6 70.5,32.6 70.5,4 		"/>
		<polygon class="st6" points="10.8,3 9.6,3 8.4,3 8.4,33.6 9.6,33.6 10.8,33.6 11.9,33.6 11.9,3 		"/>
		<polygon class="st7" points="66,3 64.8,3 63.7,3 63.7,33.6 64.8,33.6 66,33.6 67.2,33.6 67.2,3 		"/>
		<polygon class="st8" points="19.4,2 18.2,2 17.1,2 15.9,2 15.9,34.6 17.1,34.6 18.2,34.6 19.4,34.6 20.5,34.6 20.5,2 		"/>
		<polygon class="st9" points="60.5,2 59.3,2 58.2,2 57,2 57,34.6 58.2,34.6 59.3,34.6 60.5,34.6 61.7,34.6 61.7,2 		"/>
		<polygon class="st10" points="9.9,42.2 9.9,42.9 7.1,42.9 7.1,50.1 6.4,50.1 6.4,42.9 3.6,42.9 3.6,42.2 		"/>
		<polygon class="st10" points="18,42.2 18,42.9 13.3,42.9 13.3,45.7 17.7,45.7 17.7,46.4 13.3,46.4 13.3,49.5 18,49.5 18,50.1 
			12.5,50.1 12.5,42.2 		"/>
		<path class="st10" d="M26.4,43.8c-0.1-0.2-0.3-0.4-0.5-0.6c-0.2-0.2-0.5-0.3-0.7-0.4c-0.3-0.1-0.5-0.1-0.8-0.1
			c-0.5,0-0.9,0.1-1.3,0.3c-0.4,0.2-0.7,0.5-0.9,0.8c-0.2,0.3-0.4,0.7-0.5,1.1c-0.2,0.8-0.2,1.7,0,2.5c0.1,0.4,0.3,0.8,0.5,1.1
			c0.2,0.3,0.6,0.6,0.9,0.8c0.4,0.2,0.9,0.3,1.4,0.3c0.3,0,0.7-0.1,1-0.2c0.3-0.1,0.5-0.3,0.8-0.5c0.2-0.2,0.4-0.5,0.5-0.8
			c0.1-0.3,0.2-0.7,0.3-1h0.8c0,0.5-0.2,0.9-0.3,1.3c-0.2,0.4-0.4,0.7-0.7,1c-0.3,0.3-0.6,0.5-1,0.6c-0.4,0.2-0.8,0.2-1.3,0.2
			c-0.6,0-1.1-0.1-1.6-0.3c-0.5-0.2-0.9-0.5-1.2-0.9c-0.3-0.4-0.6-0.8-0.7-1.3c-0.3-1-0.3-2.1,0-3.1c0.1-0.5,0.4-0.9,0.7-1.3
			c0.3-0.4,0.7-0.7,1.2-0.9c0.5-0.2,1.1-0.4,1.6-0.3c0.4,0,0.7,0.1,1.1,0.2c0.4,0.1,0.7,0.3,1,0.5c0.3,0.2,0.5,0.5,0.7,0.8
			c0.2,0.3,0.3,0.7,0.4,1.1h-0.8C26.7,44.3,26.6,44,26.4,43.8"/>
		<polygon class="st10" points="31.4,42.2 31.4,45.7 36.1,45.7 36.1,42.2 36.9,42.2 36.9,50.1 36.1,50.1 36.1,46.3 31.4,46.3 
			31.4,50.1 30.7,50.1 30.7,42.2 		"/>
		<polygon class="st10" points="41.2,42.2 45.8,48.9 45.8,48.9 45.8,42.2 46.6,42.2 46.6,50.1 45.7,50.1 41.1,43.5 41.1,43.5 
			41.1,50.1 40.3,50.1 40.3,42.2 		"/>
		<path class="st10" d="M49.9,44.6c0.1-0.5,0.4-0.9,0.7-1.3c0.3-0.4,0.7-0.7,1.2-0.9c0.5-0.2,1.1-0.4,1.6-0.3c0.6,0,1.1,0.1,1.6,0.3
			c0.4,0.2,0.8,0.5,1.2,0.9c0.3,0.4,0.6,0.8,0.7,1.3c0.3,1,0.3,2.1,0,3.1c-0.1,0.5-0.4,0.9-0.7,1.3c-0.3,0.4-0.7,0.7-1.2,0.9
			c-0.5,0.2-1.1,0.4-1.6,0.3c-0.6,0-1.1-0.1-1.6-0.3c-0.5-0.2-0.9-0.5-1.2-0.9c-0.3-0.4-0.6-0.8-0.7-1.3
			C49.6,46.7,49.6,45.6,49.9,44.6 M50.6,47.4c0.1,0.4,0.3,0.8,0.5,1.1c0.2,0.3,0.6,0.6,0.9,0.8c0.9,0.4,1.8,0.4,2.7,0
			c0.4-0.2,0.7-0.5,0.9-0.8c0.2-0.3,0.4-0.7,0.5-1.1c0.2-0.8,0.2-1.7,0-2.5c-0.1-0.4-0.3-0.8-0.5-1.1c-0.2-0.3-0.6-0.6-0.9-0.8
			c-0.9-0.4-1.9-0.4-2.7,0c-0.4,0.2-0.7,0.5-0.9,0.8c-0.2,0.3-0.4,0.7-0.5,1.1C50.3,45.7,50.3,46.6,50.6,47.4"/>
		<path class="st10" d="M60.7,48.5c0.1,0.3,0.3,0.5,0.5,0.7c0.2,0.2,0.5,0.3,0.8,0.3c0.3,0.1,0.7,0.1,1,0.1c0.2,0,0.5,0,0.7-0.1
			c0.2-0.1,0.5-0.2,0.7-0.3c0.2-0.1,0.4-0.3,0.5-0.5c0.1-0.2,0.2-0.5,0.2-0.7c0-0.2,0-0.4-0.2-0.6c-0.1-0.2-0.2-0.3-0.4-0.4
			c-0.2-0.1-0.3-0.2-0.5-0.3c-0.2-0.1-0.4-0.1-0.6-0.2l-1.8-0.4c-0.2-0.1-0.5-0.1-0.7-0.2c-0.2-0.1-0.4-0.2-0.6-0.3
			c-0.2-0.2-0.3-0.3-0.4-0.5C60,44.8,60,44.6,60,44.3c0-0.2,0-0.5,0.1-0.7c0.1-0.3,0.2-0.5,0.4-0.7c0.2-0.2,0.5-0.4,0.8-0.6
			c0.4-0.2,0.9-0.3,1.4-0.2c0.4,0,0.8,0.1,1.1,0.2c0.3,0.1,0.7,0.2,0.9,0.5c0.3,0.2,0.5,0.5,0.6,0.8c0.2,0.3,0.2,0.7,0.2,1.1h-0.8
			c0-0.3-0.1-0.5-0.2-0.8c-0.1-0.2-0.3-0.4-0.5-0.6c-0.2-0.2-0.4-0.3-0.7-0.3c-0.3-0.1-0.5-0.1-0.8-0.1c-0.3,0-0.5,0-0.8,0.1
			c-0.2,0.1-0.4,0.1-0.6,0.3c-0.2,0.1-0.3,0.3-0.4,0.5c-0.1,0.2-0.2,0.5-0.2,0.7c0,0.2,0,0.3,0.1,0.5c0.1,0.1,0.1,0.3,0.3,0.3
			c0.1,0.1,0.2,0.2,0.4,0.2c0.1,0.1,0.3,0.1,0.5,0.1l1.9,0.5c0.3,0.1,0.5,0.2,0.8,0.3c0.2,0.1,0.5,0.2,0.7,0.4
			c0.2,0.2,0.3,0.4,0.4,0.6c0.1,0.3,0.2,0.5,0.2,0.8c0,0.1,0,0.2,0,0.3c0,0.2-0.1,0.3-0.1,0.5c-0.1,0.2-0.2,0.3-0.3,0.5
			c-0.1,0.2-0.3,0.3-0.5,0.5c-0.3,0.2-0.5,0.3-0.8,0.3c-0.4,0.1-0.8,0.1-1.2,0.1c-0.4,0-0.9-0.1-1.3-0.2c-0.4-0.1-0.7-0.3-1-0.5
			c-0.3-0.2-0.5-0.5-0.7-0.8c-0.2-0.4-0.2-0.8-0.2-1.3h0.8C60.5,47.9,60.6,48.2,60.7,48.5"/>
		<path class="st10" d="M9.9,57.1c-0.1-0.2-0.3-0.4-0.6-0.6c-0.2-0.2-0.5-0.3-0.7-0.4C8.4,56,8.1,56,7.8,56c-0.5,0-0.9,0.1-1.3,0.3
			c-0.4,0.2-0.7,0.5-0.9,0.8c-0.2,0.3-0.4,0.7-0.6,1.1c-0.2,0.8-0.2,1.7,0,2.5c0.1,0.4,0.3,0.8,0.5,1.1c0.2,0.3,0.6,0.6,0.9,0.8
			c0.4,0.2,0.9,0.3,1.3,0.3c0.3,0,0.7-0.1,1-0.2c0.3-0.1,0.5-0.3,0.8-0.5c0.2-0.2,0.4-0.5,0.5-0.8c0.1-0.3,0.2-0.7,0.3-1h0.8
			c0,0.5-0.2,0.9-0.3,1.3c-0.2,0.4-0.4,0.7-0.7,1c-0.3,0.3-0.6,0.5-1,0.6c-0.4,0.2-0.8,0.2-1.3,0.2c-0.6,0-1.1-0.1-1.6-0.3
			C5.7,63,5.3,62.7,5,62.3c-0.3-0.4-0.6-0.8-0.7-1.3c-0.3-1-0.3-2.1,0-3.1C4.4,57.4,4.7,57,5,56.6c0.3-0.4,0.7-0.7,1.2-0.9
			c0.5-0.2,1.1-0.4,1.6-0.3c0.4,0,0.7,0.1,1.1,0.2c0.4,0.1,0.7,0.3,1,0.5c0.3,0.2,0.5,0.5,0.7,0.8c0.2,0.3,0.3,0.7,0.4,1.1h-0.8
			C10.2,57.6,10.1,57.3,9.9,57.1"/>
		<path class="st10" d="M14.3,57.9c0.1-0.5,0.4-0.9,0.7-1.3c0.3-0.4,0.7-0.7,1.2-0.9c0.5-0.2,1.1-0.4,1.6-0.3c0.6,0,1.1,0.1,1.6,0.3
			c0.4,0.2,0.8,0.5,1.2,0.9c0.3,0.4,0.6,0.8,0.7,1.3c0.3,1,0.3,2.1,0,3.1c-0.1,0.5-0.4,0.9-0.7,1.3c-0.3,0.4-0.7,0.7-1.2,0.9
			c-0.5,0.2-1.1,0.4-1.6,0.3c-0.6,0-1.1-0.1-1.6-0.3c-0.5-0.2-0.9-0.5-1.2-0.9c-0.3-0.4-0.6-0.8-0.7-1.3C14,60,14,58.9,14.3,57.9
			 M15,60.7c0.1,0.4,0.3,0.8,0.5,1.1c0.2,0.3,0.6,0.6,0.9,0.8c0.4,0.2,0.9,0.3,1.4,0.3c0.5,0,0.9-0.1,1.3-0.3
			c0.4-0.2,0.7-0.5,0.9-0.8c0.2-0.3,0.4-0.7,0.5-1.1c0.2-0.8,0.2-1.7,0-2.5c-0.1-0.4-0.3-0.8-0.5-1.1c-0.2-0.3-0.6-0.6-0.9-0.8
			c-0.4-0.2-0.9-0.3-1.3-0.3c-0.5,0-0.9,0.1-1.4,0.3c-0.4,0.2-0.7,0.5-0.9,0.8c-0.2,0.3-0.4,0.7-0.5,1.1C14.8,59,14.8,59.9,15,60.7"
			/>
		<polygon class="st10" points="24.9,55.5 24.9,63.4 30.1,63.4 30.1,62.7 25.7,62.7 25.7,55.5 		"/>
		<polygon class="st10" points="33.1,55.5 33.1,63.4 38.3,63.4 38.3,62.7 33.9,62.7 33.9,55.5 		"/>
		<polygon class="st10" points="41.3,55.5 41.3,63.4 46.8,63.4 46.8,62.7 42.1,62.7 42.1,59.6 46.5,59.6 46.5,59 42.1,59 42.1,56.1 
			46.8,56.1 46.8,55.5 		"/>
		<path class="st10" d="M56.3,63.4l-0.1-1.4l0,0c-0.1,0.3-0.3,0.5-0.5,0.7c-0.2,0.2-0.4,0.4-0.7,0.5c-0.2,0.1-0.5,0.2-0.8,0.3
			c-0.3,0.1-0.6,0.1-0.8,0.1c-0.6,0-1.1-0.1-1.6-0.3c-0.4-0.2-0.8-0.5-1.2-0.9c-0.3-0.4-0.5-0.8-0.7-1.3c-0.3-1-0.3-2.1,0-3.1
			c0.1-0.5,0.4-0.9,0.7-1.3c0.3-0.4,0.7-0.7,1.2-0.9c0.5-0.2,1.1-0.4,1.6-0.3c0.4,0,0.8,0.1,1.2,0.2c0.4,0.1,0.7,0.3,1,0.5
			c0.3,0.2,0.5,0.5,0.7,0.8c0.2,0.4,0.3,0.7,0.4,1.1H56c0-0.2-0.1-0.5-0.2-0.7c-0.1-0.2-0.3-0.5-0.5-0.6c-0.2-0.2-0.5-0.4-0.8-0.5
			c-0.3-0.1-0.7-0.2-1-0.2c-0.5,0-0.9,0.1-1.3,0.3c-0.4,0.2-0.7,0.5-0.9,0.8c-0.2,0.3-0.4,0.7-0.5,1.1c-0.2,0.8-0.2,1.7,0,2.5
			c0.1,0.4,0.3,0.8,0.5,1.1c0.2,0.3,0.6,0.6,0.9,0.8c0.4,0.2,0.9,0.3,1.3,0.3c0.4,0,0.8-0.1,1.2-0.2c0.3-0.1,0.6-0.3,0.9-0.6
			c0.2-0.3,0.4-0.6,0.5-0.9c0.1-0.4,0.2-0.8,0.2-1.2h-2.7v-0.6h3.3v4L56.3,63.4z"/>
		<polygon class="st10" points="60.5,55.5 60.5,63.4 66.1,63.4 66.1,62.7 61.3,62.7 61.3,59.6 65.7,59.6 65.7,59 61.3,59 61.3,56.1 
			66,56.1 66,55.5 		"/>
	</g>
</g>
</svg>
