<svg xmlns="http://www.w3.org/2000/svg" width="84.975" height="50" viewBox="0 0 84.975 50">
  <g id="icon-pc" transform="translate(-3102.66 -1951.891)">
    <path id="パス_4277" data-name="パス 4277" d="M3157.779,1951.891h-51.2a3.923,3.923,0,0,0-3.923,3.922v32.746a3.923,3.923,0,0,0,3.923,3.923h21.446v.874a3.922,3.922,0,0,1-3.922,3.922h-5.764v4.613h27.676v-4.613h-5.764a3.923,3.923,0,0,1-3.923-3.922v-.874h21.447a3.923,3.923,0,0,0,3.923-3.923v-32.746A3.923,3.923,0,0,0,3157.779,1951.891Zm-1.613,31.9a1.308,1.308,0,0,1-1.307,1.308H3109.5a1.308,1.308,0,0,1-1.307-1.308v-25.06a1.308,1.308,0,0,1,1.307-1.308h45.357a1.308,1.308,0,0,1,1.307,1.308Zm1.613-31.9h-51.2a3.923,3.923,0,0,0-3.923,3.922v32.746a3.923,3.923,0,0,0,3.923,3.923h21.446v.874a3.922,3.922,0,0,1-3.922,3.922h-5.764v4.613h27.676v-4.613h-5.764a3.923,3.923,0,0,1-3.923-3.922v-.874h21.447a3.923,3.923,0,0,0,3.923-3.923v-32.746A3.923,3.923,0,0,0,3157.779,1951.891Zm-1.613,31.9a1.308,1.308,0,0,1-1.307,1.308H3109.5a1.308,1.308,0,0,1-1.307-1.308v-25.06a1.308,1.308,0,0,1,1.307-1.308h45.357a1.308,1.308,0,0,1,1.307,1.308Z" fill="#fff"/>
    <path id="パス_4278" data-name="パス 4278" d="M3184.092,1967.745h-11.418a3.546,3.546,0,0,0-3.542,3.543v27.06a3.546,3.546,0,0,0,3.542,3.543h11.418a3.547,3.547,0,0,0,3.543-3.543v-27.06A3.547,3.547,0,0,0,3184.092,1967.745Zm-5.709,32.513a1.9,1.9,0,1,1,1.9-1.9A1.9,1.9,0,0,1,3178.383,2000.258Zm7.154-28.026v22.685h-14.308v-22.685Z" fill="#fff"/>
  </g>
</svg>
