<svg xmlns="http://www.w3.org/2000/svg" width="20" height="20" viewBox="0 0 20 20">
  <g id="icon_info" transform="translate(-542.056 -67.958)">
    <g id="グループ_1060" data-name="グループ 1060">
      <path id="パス_6551" data-name="パス 6551" d="M551.828,79.309c-.274-1.042-.627-2.217-1.019-3.8-.373-1.538-.491-2.034-.608-2.729a.849.849,0,0,1-.02-.215,2.04,2.04,0,0,1,4,0,.847.847,0,0,1-.02.215c-.117.695-.235,1.191-.607,2.729-.393,1.587-.746,2.762-1,3.8-.079.3-.157.446-.373.446S551.906,79.606,551.828,79.309Zm.353,4.846a1.511,1.511,0,1,1,1.519-1.518A1.565,1.565,0,0,1,552.181,84.155Z" fill="red"/>
    </g>
    <path id="パス_6552" data-name="パス 6552" d="M552.056,68.958a9,9,0,1,1-9,9,9.01,9.01,0,0,1,9-9m0-1a10,10,0,1,0,10,10,10,10,0,0,0-10-10Z" fill="red"/>
  </g>
</svg>
