<svg xmlns="http://www.w3.org/2000/svg" xmlns:xlink="http://www.w3.org/1999/xlink" width="70" height="70" viewBox="0 0 70 70">
  <defs>
    <linearGradient id="linear-gradient" x1="0.5" y1="1" x2="0.5" gradientUnits="objectBoundingBox">
      <stop offset="0" stop-color="#faca66"/>
      <stop offset="0.35" stop-color="#e95550"/>
      <stop offset="0.65" stop-color="#b12f8b"/>
      <stop offset="1" stop-color="#504f9f"/>
    </linearGradient>
  </defs>
  <g id="insta-icon" transform="translate(-545.487 -8348.561)">
    <path id="パス_5257" data-name="パス 5257" d="M615.487,8383.561a35,35,0,1,1-35-35A35,35,0,0,1,615.487,8383.561Z" fill="#fff"/>
    <g id="グループ_962" data-name="グループ 962">
      <path id="パス_5258" data-name="パス 5258" d="M588.942,8403.925h-16.91a11.92,11.92,0,0,1-11.907-11.909v-16.906a11.92,11.92,0,0,1,11.907-11.909h16.91a11.923,11.923,0,0,1,11.908,11.909v16.906A11.923,11.923,0,0,1,588.942,8403.925ZM572.032,8367a8.12,8.12,0,0,0-8.113,8.11v16.906a8.126,8.126,0,0,0,8.113,8.117h16.91a8.124,8.124,0,0,0,8.11-8.117v-16.906a8.118,8.118,0,0,0-8.11-8.11Zm19.337,3.165a2.538,2.538,0,1,0,2.535,2.538A2.54,2.54,0,0,0,591.369,8370.164Zm-10.884,23.926a10.527,10.527,0,1,1,10.527-10.529A10.54,10.54,0,0,1,580.485,8394.09Zm0-17.255a6.73,6.73,0,1,0,6.732,6.726A6.734,6.734,0,0,0,580.485,8376.835Z" fill="url(#linear-gradient)"/>
    </g>
  </g>
</svg>
