<svg xmlns="http://www.w3.org/2000/svg" width="30.414" height="40.8" viewBox="0 0 30.414 40.8">
  <g id="menu-01" transform="translate(-314.022 -1327.122)">
    <g id="グループ_889" data-name="グループ 889">
      <path id="パス_4839" data-name="パス 4839" d="M335.361,1367.922h-3.706a1.273,1.273,0,0,1,0-2.547h3.706a1.273,1.273,0,0,1,0,2.547Zm2.22-4.465h-8.146a1.273,1.273,0,1,1,0-2.546h8.146a1.273,1.273,0,1,1,0,2.546Zm0-4.46a1.273,1.273,0,0,1-1.273-1.273,5.971,5.971,0,0,1,2.3-4.692,8.381,8.381,0,1,0-10.205,0,5.976,5.976,0,0,1,2.305,4.695,1.274,1.274,0,0,1-2.547,0,3.409,3.409,0,0,0-1.314-2.679,10.928,10.928,0,1,1,13.317,0,3.408,3.408,0,0,0-1.311,2.677A1.273,1.273,0,0,1,337.581,1359Z" fill="#00ad93"/>
    </g>
    <g id="グループ_890" data-name="グループ 890">
      <path id="パス_4840" data-name="パス 4840" d="M318.555,1333.221a.919.919,0,0,1,1.287-1.312l2.774,2.666.013.013a.919.919,0,0,1-1.287,1.312l-2.774-2.666Z" fill="#00ad93"/>
      <path id="パス_4841" data-name="パス 4841" d="M326.261,1332.386a.907.907,0,0,1-.232-.393l-1.07-3.7a.919.919,0,1,1,1.765-.511l1.07,3.7a.919.919,0,0,1-1.533.9Z" fill="#00ad93"/>
      <path id="パス_4842" data-name="パス 4842" d="M314.292,1340.034a.919.919,0,0,1,.87-1.543l3.736.922a.919.919,0,0,1-.44,1.785l-3.737-.922A.919.919,0,0,1,314.292,1340.034Z" fill="#00ad93"/>
    </g>
  </g>
</svg>
