<svg xmlns="http://www.w3.org/2000/svg" width="24.41" height="30" viewBox="0 0 24.41 30">
  <g id="menu-04" transform="translate(-1094.307 -1334.4)">
    <path id="パス_4811" data-name="パス 4811" d="M1113.684,1334.4H1099.34a5.038,5.038,0,0,0-5.033,5.033v19.934a5.038,5.038,0,0,0,5.033,5.033h10.739l.546-.546,7.546-7.546.546-.546v-16.329A5.038,5.038,0,0,0,1113.684,1334.4Zm3.169,20.59h-4.9a2.641,2.641,0,0,0-2.641,2.641v4.906h-9.968a3.17,3.17,0,0,1-3.17-3.17v-19.934a3.17,3.17,0,0,1,3.17-3.17h14.344a3.169,3.169,0,0,1,3.169,3.17v15.557Z"/>
    <rect id="長方形_232" data-name="長方形 232" width="1.798" height="1.716" transform="translate(1099.344 1341.836)"/>
    <rect id="長方形_233" data-name="長方形 233" width="1.798" height="1.715" transform="translate(1099.344 1346.013)"/>
    <rect id="長方形_234" data-name="長方形 234" width="1.798" height="1.715" transform="translate(1099.344 1350.19)"/>
    <rect id="長方形_235" data-name="長方形 235" width="1.798" height="1.715" transform="translate(1099.344 1354.366)"/>
    <rect id="長方形_236" data-name="長方形 236" width="10.598" height="1.716" transform="translate(1103.082 1341.836)"/>
    <rect id="長方形_237" data-name="長方形 237" width="10.598" height="1.715" transform="translate(1103.082 1346.013)"/>
    <rect id="長方形_238" data-name="長方形 238" width="10.598" height="1.715" transform="translate(1103.082 1350.19)"/>
    <rect id="長方形_239" data-name="長方形 239" width="4.356" height="1.715" transform="translate(1103.082 1354.366)"/>
  </g>
</svg>
