<svg xmlns="http://www.w3.org/2000/svg" width="29.51" height="30" viewBox="0 0 29.51 30">
  <g id="menu-03" transform="translate(-855.003 -1333.2)">
    <path id="パス_4819" data-name="パス 4819" d="M864.42,1338.461a1.472,1.472,0,0,0,1.472-1.473v-2.316a1.473,1.473,0,0,0-2.945,0v2.316A1.473,1.473,0,0,0,864.42,1338.461Z" fill="#01ace5"/>
    <path id="パス_4820" data-name="パス 4820" d="M875.277,1338.461a1.473,1.473,0,0,0,1.472-1.473v-2.316a1.473,1.473,0,0,0-2.945,0v2.316A1.473,1.473,0,0,0,875.277,1338.461Z" fill="#01ace5"/>
    <path id="パス_4821" data-name="パス 4821" d="M880.378,1335.3h-2.336v1.69a2.766,2.766,0,1,1-5.532,0v-1.69h-5.325v1.69a2.766,2.766,0,1,1-5.531,0v-1.69h-2.516a4.135,4.135,0,0,0-4.135,4.135v19.632a4.135,4.135,0,0,0,4.135,4.135h21.24a4.135,4.135,0,0,0,4.135-4.135v-19.632A4.135,4.135,0,0,0,880.378,1335.3Zm2.123,23.767a2.126,2.126,0,0,1-2.123,2.123h-21.24a2.126,2.126,0,0,1-2.123-2.123v-17.018H882.5Z" fill="#01ace5"/>
    <rect id="長方形_240" data-name="長方形 240" width="3.726" height="3.726" transform="translate(865.008 1355.613)" fill="#01ace5"/>
    <rect id="長方形_241" data-name="長方形 241" width="3.726" height="3.726" transform="translate(865.008 1349.838)" fill="#01ace5"/>
    <rect id="長方形_242" data-name="長方形 242" width="3.726" height="3.726" transform="translate(859.234 1355.613)" fill="#01ace5"/>
    <rect id="長方形_243" data-name="長方形 243" width="3.726" height="3.726" transform="translate(859.234 1349.838)" fill="#01ace5"/>
    <rect id="長方形_244" data-name="長方形 244" width="3.726" height="3.726" transform="translate(876.557 1344.064)" fill="#01ace5"/>
    <rect id="長方形_245" data-name="長方形 245" width="3.726" height="3.726" transform="translate(870.782 1344.064)" fill="#01ace5"/>
    <path id="パス_4822" data-name="パス 4822" d="M875.268,1350.381l-1.108-.862-2.018,2.6-1.2-.958-.877,1.1,2.309,1.847Z" fill="#01ace5"/>
    <rect id="長方形_246" data-name="長方形 246" width="3.726" height="3.726" transform="translate(876.557 1349.838)" fill="#01ace5"/>
    <rect id="長方形_247" data-name="長方形 247" width="3.726" height="3.726" transform="translate(870.782 1355.613)" fill="#01ace5"/>
    <rect id="長方形_248" data-name="長方形 248" width="3.726" height="3.726" transform="translate(865.008 1344.064)" fill="#01ace5"/>
  </g>
</svg>
