<svg xmlns="http://www.w3.org/2000/svg" width="41.805" height="30" viewBox="0 0 41.805 30">
  <g id="menu-02" transform="translate(-584.806 -1333.2)">
    <path id="パス_4830" data-name="パス 4830" d="M624.232,1340.485l-3.33-3.806-12.481,3.839-.411-7.318h-4.6l-.32,7.345-12.572-3.866-3.33,3.806-2.378,21.823,3.032.892,15.4-2.94h4.942l15.4,2.94,3.033-.892Zm-30.787,13.28-2.99.291.413-4.094,2.891.032Zm.463-5.554-2.86-.031.373-3.7,2.765.388Zm.427-5.118-2.735-.384.385-3.814,2.634.789Zm3.473,10.247-2.559.249.3-3.575,2.469.027Zm.322-5.082-2.434-.027.26-3.109,2.352.33Zm.291-4.592-2.317-.325.262-3.133,2.232.669Zm3.131,9.309-1.946.189.2-3.1,1.9.021Zm.236-4.677-1.872-.02.164-2.577,1.826.256Zm.209-4.13-1.8-.253.16-2.513,1.757.527Zm3.591,13.326h-2.137l.755-19.524h1.382Zm.564,0V1337.97h1.071l1.066,19.524Zm3.155-15.565,1.757-.527.159,2.513-1.8.253Zm.2,4.028,1.826-.256.164,2.577-1.872.02Zm.355,7.018-.147-2.894,1.895-.021.2,3.1Zm2.953-12.1,2.232-.669.262,3.133-2.317.325Zm.29,4.575,2.352-.33.26,3.109-2.434.027Zm.5,7.888-.209-3.3,2.47-.027.3,3.575Zm3.189-13.656,2.634-.789.385,3.814-2.735.384Zm.433,5.189,2.765-.388.373,3.7-2.86.031Zm.742,8.892-.315-3.771,2.891-.032.413,4.094Z" fill="#e65290"/>
  </g>
</svg>
