<svg xmlns="http://www.w3.org/2000/svg" width="396.806" height="32.578" viewBox="0 0 396.806 32.578">
  <g id="pickup_menu-ttl" transform="translate(-544.844 -5139.578)">
    <path id="パス_5274" data-name="パス 5274" d="M557.263,5159.827H551.1v12.06h-6.255v-32.039h12.419c6.615,0,10.575,4.545,10.575,9.99S563.878,5159.827,557.263,5159.827Zm-.314-14.4H551.1v8.774h5.85c2.834,0,4.634-1.755,4.634-4.364A4.267,4.267,0,0,0,556.949,5145.428Z" fill="#01ace5"/>
    <path id="パス_5275" data-name="パス 5275" d="M582.1,5171.887v-32.039h6.255v32.039Z" fill="#e65290"/>
    <path id="パス_5276" data-name="パス 5276" d="M615.538,5172.156a11.743,11.743,0,0,1-8.64-3.51,9.263,9.263,0,0,1-2.61-4.814,59.009,59.009,0,0,1,0-15.93,9.1,9.1,0,0,1,2.61-4.814,11.743,11.743,0,0,1,8.64-3.51c6.165,0,10.709,3.6,11.789,10.125h-6.344c-.675-2.745-2.385-4.545-5.4-4.545a4.945,4.945,0,0,0-4.005,1.664c-1.3,1.4-1.575,2.836-1.575,9.045s.27,7.651,1.575,9.045a4.946,4.946,0,0,0,4.005,1.665c3.015,0,4.725-1.8,5.4-4.545h6.344C626.247,5168.557,621.657,5172.156,615.538,5172.156Z" fill="#00ad93"/>
    <path id="パス_5277" data-name="パス 5277" d="M660.357,5171.887l-8.235-14.579-4.139,4.949v9.63h-6.255v-32.039h6.255V5153.8l11.294-13.949h7.605l-10.62,12.734,11.385,19.305Z" fill="#ee8a00"/>
    <path id="パス_5278" data-name="パス 5278" d="M711.387,5172.156c-6.57,0-11.79-4.454-11.79-11.249v-21.059h6.256v20.834c0,3.69,2.159,5.9,5.534,5.9s5.58-2.205,5.58-5.9v-20.834h6.21v21.059C723.177,5167.7,717.957,5172.156,711.387,5172.156Z" fill="#3070b5"/>
    <path id="パス_5279" data-name="パス 5279" d="M751.572,5159.827h-6.165v12.06h-6.255v-32.039h12.42c6.614,0,10.574,4.545,10.574,9.99S758.186,5159.827,751.572,5159.827Zm-.315-14.4h-5.85v8.774h5.85c2.835,0,4.635-1.755,4.635-4.364A4.267,4.267,0,0,0,751.257,5145.428Z" fill="#7fbc25"/>
    <path id="パス_5280" data-name="パス 5280" d="M818.621,5171.887v-18.674l-6.12,12.149h-4.23l-6.165-12.149v18.674h-6.254v-32.039h6.165l8.369,17.324,8.325-17.324h6.165v32.039Z" fill="#ee8a00"/>
    <path id="パス_5281" data-name="パス 5281" d="M841.347,5171.887v-32.039h21.1v5.58H847.6v7.514h12.644v5.58H847.6v7.785H862.45v5.58Z" fill="#01ace5"/>
    <path id="パス_5282" data-name="パス 5282" d="M896.516,5171.887l-12.69-19.664v19.664h-6.255v-32.039h5.579l12.69,19.619v-19.619h6.255v32.039Z" fill="#e65290"/>
    <path id="パス_5283" data-name="パス 5283" d="M929.86,5172.156c-6.569,0-11.789-4.454-11.789-11.249v-21.059h6.255v20.834c0,3.69,2.159,5.9,5.534,5.9s5.58-2.205,5.58-5.9v-20.834h6.21v21.059C941.65,5167.7,936.431,5172.156,929.86,5172.156Z" fill="#00ad93"/>
  </g>
</svg>
