<svg xmlns="http://www.w3.org/2000/svg" width="355.407" height="32.579" viewBox="0 0 355.407 32.579">
  <g id="pickup_event-ttl" transform="translate(-803.488 -660.752)">
    <path id="パス_4434" data-name="パス 4434" d="M815.908,681h-6.165v12.059h-6.255V661.023h12.42c6.615,0,10.574,4.544,10.574,9.989S822.523,681,815.908,681Zm-.315-14.4h-5.85v8.775h5.85c2.835,0,4.635-1.755,4.635-4.365A4.267,4.267,0,0,0,815.593,666.6Z" fill="#00ad93"/>
    <path id="パス_4435" data-name="パス 4435" d="M835.348,693.061V661.023H841.6v32.038Z" fill="#e65290"/>
    <path id="パス_4436" data-name="パス 4436" d="M863.382,693.331a11.742,11.742,0,0,1-8.64-3.51,9.269,9.269,0,0,1-2.61-4.815,59,59,0,0,1,0-15.929,9.1,9.1,0,0,1,2.61-4.815,11.742,11.742,0,0,1,8.64-3.51c6.165,0,10.709,3.6,11.789,10.125h-6.344c-.675-2.745-2.385-4.545-5.4-4.545A4.946,4.946,0,0,0,859.422,668c-1.3,1.4-1.575,2.835-1.575,9.045s.27,7.649,1.575,9.044a4.946,4.946,0,0,0,4.005,1.665c3.015,0,4.725-1.8,5.4-4.544h6.344C874.091,689.731,869.5,693.331,863.382,693.331Z" fill="#01ace5"/>
    <path id="パス_4437" data-name="パス 4437" d="M902.8,693.061l-8.235-14.58-4.14,4.951v9.629h-6.255V661.023h6.255v13.949l11.295-13.949h7.6l-10.619,12.734,11.384,19.3Z" fill="#ee8a00"/>
    <path id="パス_4438" data-name="パス 4438" d="M943.031,693.331c-6.57,0-11.789-4.455-11.789-11.249V661.023H937.5v20.833c0,3.69,2.159,5.895,5.534,5.895s5.58-2.2,5.58-5.895V661.023h6.21v21.059C954.821,688.876,949.6,693.331,943.031,693.331Z" fill="#7fbc25"/>
    <path id="パス_4439" data-name="パス 4439" d="M977.816,681h-6.164v12.059H965.4V661.023h12.419c6.615,0,10.575,4.544,10.575,9.989S984.431,681,977.816,681Zm-.314-14.4h-5.85v8.775h5.85c2.834,0,4.634-1.755,4.634-4.365A4.267,4.267,0,0,0,977.5,666.6Z" fill="#3070b5"/>
    <path id="パス_4440" data-name="パス 4440" d="M1011.3,693.061V661.023h21.1V666.6h-14.849v7.515h12.644V679.7h-12.644v7.785H1032.4v5.58Z" fill="#ee8a00"/>
    <path id="パス_4441" data-name="パス 4441" d="M1053.775,693.061H1049.1l-10.575-32.038H1045l6.434,20.878,6.436-20.878h6.524Z" fill="#00ad93"/>
    <path id="パス_4442" data-name="パス 4442" d="M1071.866,693.061V661.023h21.1V666.6h-14.849v7.515h12.644V679.7h-12.644v7.785h14.849v5.58Z" fill="#e65290"/>
    <path id="パス_4443" data-name="パス 4443" d="M1121.635,693.061l-12.69-19.664v19.664h-6.255V661.023h5.58l12.69,19.619V661.023h6.254v32.038Z" fill="#01ace5"/>
    <path id="パス_4444" data-name="パス 4444" d="M1150.524,666.6v26.459h-6.254V666.6h-8.37v-5.579H1158.9V666.6Z" fill="#7fbc25"/>
  </g>
</svg>
