<svg xmlns="http://www.w3.org/2000/svg" width="207.842" height="173.764" viewBox="0 0 207.842 173.764">
  <g id="sec01_point-01" transform="translate(-262.881 -1672.035)">
    <g id="グループ_975" data-name="グループ 975">
      <path id="パス_5414" data-name="パス 5414" d="M314.962,1845.8c-27.84,0-52.081-18.24-52.081-50.881v-72c0-32.641,24.241-50.881,52.081-50.881s51.841,18.24,51.841,50.881v72C366.8,1827.559,342.8,1845.8,314.962,1845.8Zm20.64-122.4c0-14.4-8.4-23.28-20.64-23.28s-20.88,8.88-20.88,23.28v71.282c0,14.4,8.64,23.04,20.88,23.04s20.64-8.64,20.64-23.04Z" fill="#fff"/>
      <path id="パス_5415" data-name="パス 5415" d="M439.522,1844.359V1707.076l-34.8,30.24v-33.6l34.8-30.241h31.2v170.884Z" fill="#fff"/>
    </g>
    <g id="グループ_977" data-name="グループ 977">
      <g id="グループ_976" data-name="グループ 976">
        <path id="パス_5416" data-name="パス 5416" d="M311.846,1759.928H307.8v7h-2.7v-17.8h6.748c3.474,0,5.7,2.3,5.7,5.4S315.32,1759.928,311.846,1759.928Zm-.15-8.373h-3.9v5.924h3.9a2.968,2.968,0,1,0,0-5.924Z"/>
        <path id="パス_5417" data-name="パス 5417" d="M340.021,1765.177a6.732,6.732,0,0,1-9.373,0c-1.75-1.75-1.725-3.724-1.725-7.149s-.025-5.4,1.725-7.148a6.732,6.732,0,0,1,9.373,0c1.749,1.75,1.7,3.725,1.7,7.148S341.77,1763.427,340.021,1765.177Zm-2.05-12.672a3.741,3.741,0,0,0-5.3,0c-.875.95-1.049,1.949-1.049,5.523s.174,4.575,1.049,5.524a3.741,3.741,0,0,0,5.3,0c.875-.949,1.05-1.949,1.05-5.524S338.846,1753.455,337.971,1752.505Z"/>
        <path id="パス_5418" data-name="パス 5418" d="M354.473,1766.926v-17.8h2.7v17.8Z"/>
        <path id="パス_5419" data-name="パス 5419" d="M381.495,1766.926l-8.223-12.522v12.522h-2.7v-17.8h2.475l8.223,12.5v-12.5h2.7v17.8Z"/>
        <path id="パス_5420" data-name="パス 5420" d="M403.4,1751.555v15.371h-2.7v-15.371h-4.9v-2.424h12.5v2.424Z"/>
      </g>
    </g>
  </g>
</svg>
