<svg xmlns="http://www.w3.org/2000/svg" width="235.202" height="173.764" viewBox="0 0 235.202 173.764">
  <g id="sec01_point-02" transform="translate(-262.784 -3101.087)">
    <g id="グループ_918" data-name="グループ 918">
      <path id="パス_4932" data-name="パス 4932" d="M314.865,3274.851c-27.84,0-52.081-18.24-52.081-50.881v-72c0-32.64,24.241-50.881,52.081-50.881s51.841,18.241,51.841,50.881v72C366.706,3256.611,342.706,3274.851,314.865,3274.851Zm20.641-122.4c0-14.4-8.4-23.28-20.641-23.28s-20.88,8.88-20.88,23.28v71.282c0,14.4,8.64,23.041,20.88,23.041s20.641-8.641,20.641-23.041Z" fill="#fff"/>
      <path id="パス_4933" data-name="パス 4933" d="M394.064,3273.411v-28.08l63.842-74.162c6.24-7.44,8.88-12.72,8.88-20.641,0-12.72-7.44-21.36-20.64-21.36-10.321,0-20.881,5.28-20.881,21.84h-31.2c0-31.2,22.8-49.921,52.082-49.921,30.24,0,51.84,18.961,51.84,49.682,0,16.56-6.48,25.44-18.24,39.12l-47.761,55.442h66v28.08Z" fill="#fff"/>
    </g>
    <g id="グループ_920" data-name="グループ 920">
      <g id="グループ_919" data-name="グループ 919">
        <path id="パス_4934" data-name="パス 4934" d="M311.749,3188.98H307.7v7H305v-17.8h6.748c3.475,0,5.7,2.3,5.7,5.4S315.224,3188.98,311.749,3188.98Zm-.149-8.373h-3.9v5.923h3.9a2.967,2.967,0,1,0,0-5.923Z"/>
        <path id="パス_4935" data-name="パス 4935" d="M339.924,3194.229a6.733,6.733,0,0,1-9.373,0c-1.75-1.75-1.724-3.724-1.724-7.148s-.026-5.4,1.724-7.149a6.733,6.733,0,0,1,9.373,0c1.749,1.75,1.7,3.724,1.7,7.149S341.673,3192.479,339.924,3194.229Zm-2.05-12.672a3.74,3.74,0,0,0-5.3,0c-.875.95-1.05,1.949-1.05,5.524s.175,4.573,1.05,5.523a3.739,3.739,0,0,0,5.3,0c.875-.95,1.05-1.95,1.05-5.523S338.749,3182.507,337.874,3181.557Z"/>
        <path id="パス_4936" data-name="パス 4936" d="M354.376,3195.979v-17.8h2.7v17.8Z"/>
        <path id="パス_4937" data-name="パス 4937" d="M381.4,3195.979l-8.223-12.523v12.523h-2.7v-17.8h2.474l8.223,12.5v-12.5h2.7v17.8Z"/>
        <path id="パス_4938" data-name="パス 4938" d="M403.3,3180.607v15.372h-2.7v-15.372h-4.9v-2.424h12.5v2.424Z"/>
      </g>
    </g>
  </g>
</svg>
