<svg xmlns="http://www.w3.org/2000/svg" width="281.713" height="135.85" viewBox="0 0 281.713 135.85">
  <g id="sec01_point-02_ph02" transform="translate(-262.667 -4954)">
    <path id="パス_4843" data-name="パス 4843" d="M543.953,4957.938c-.609-1.138-1.8-3.938-3.09-3.938H512.685c-1.577,0-2.96,3.14-3.378,4.662a111.666,111.666,0,0,1-7.511,19.7l-2.637,5.587c-1.086-6.852-2.691-10.78-5.449-14.835-6.506-9.529-19.185-14.647-35.7-14.647-42.279,0-74.16,34.932-74.16,81.166,0,33.42,19.311,54.215,50.4,54.215,11.422,0,22.393-2.939,30.839-8.271a46.985,46.985,0,0,0,12.45-10.911,24.393,24.393,0,0,0,4.677,9.935c4.465,5.458,11.393,8.228,20.587,8.228,12.837,0,23.455-4.745,33.418-14.934a3.506,3.506,0,0,0,.527-4.2l-10.094-17.454a3.5,3.5,0,0,0-5.826-.363c-3.846,5.073-6.469,7.866-10.45,7.866-2,0-2.377,0-2.377-19.836v-4.386l25.258-50.782c2.871-5.552,3.1-7.338,4.239-9.23l-.165-.427c1.345-2.186,2.217-4.109,3.035-5.563l.523-1.113a33.587,33.587,0,0,1,2.109-3.539l.807-2.285A5.665,5.665,0,0,0,543.953,4957.938Zm-87.835,25.121c6.187,0,10.63,1.942,13.581,5.933,2.47,3.351,3.523,8.7,3.523,17.9,0,7.9-.4,18.164-.989,25.78-.869,1.513-3.907,6.232-6.319,9.573a96.18,96.18,0,0,1-8.153,9.992,26.6,26.6,0,0,1-19.937,8.559c-17.443,0-20.047-16.512-20.047-26.355,0-12.872,4.044-25.758,11.129-35.4C436.424,4988.435,445.579,4983.059,456.118,4983.059Z" fill="#fff"/>
    <g id="グループ_893" data-name="グループ 893">
      <path id="パス_4844" data-name="パス 4844" d="M328.8,5036.493v37.39H300.287v-37.39h-37.62v-28.507h37.62V4970.6H328.8v37.388h37.388v28.507Z" fill="#fff"/>
    </g>
  </g>
</svg>
