<svg xmlns="http://www.w3.org/2000/svg" width="138.146" height="65" viewBox="0 0 138.146 65">
  <g id="mv_logo" transform="translate(-2239.927 -91.8)" opacity="0.7">
    <path id="パス_13004" data-name="パス 13004" d="M2336.269,102.523l-4.9-5.6-18.374,5.651-.6-10.772h-6.778l-.471,10.813-18.507-5.692-4.9,5.6-3.5,32.127,4.465,1.313,22.669-4.328h7.274l22.669,4.328,4.465-1.313Zm-45.322,19.55-4.4.429.608-6.026,4.256.046Zm.682-8.175-4.21-.046.549-5.44,4.071.572Zm.628-7.535-4.026-.565.567-5.615,3.878,1.162Zm5.113,15.084-3.766.367.439-5.263,3.635.04Zm.474-7.48-3.582-.04.382-4.577,3.462.486Zm.429-6.76-3.411-.479.385-4.612,3.287.985Zm4.608,13.7-2.863.279.289-4.569,2.789.031Zm.348-6.884-2.755-.031.241-3.793,2.688.377Zm.307-6.08-2.655-.372.235-3.7,2.587.776Zm5.287,19.618h-3.146l1.111-28.742h2.035Zm.831,0V98.822h1.575l1.571,28.742Zm4.643-22.914,2.587-.776.235,3.7-2.655.372Zm.3,5.929,2.689-.377.24,3.793-2.755.031Zm.522,10.331-.215-4.259,2.789-.031.29,4.569Zm4.347-17.809,3.287-.985.385,4.612-3.411.479Zm.428,6.735,3.462-.486.382,4.577-3.582.04Zm.736,11.611-.308-4.856,3.635-.04.439,5.263Zm4.694-20.1,3.878-1.162.567,5.615-4.026.565Zm.637,7.639,4.071-.572.549,5.44-4.21.046Zm1.092,13.089-.463-5.551,4.256-.046.608,6.026Z" fill="#fff"/>
    <path id="パス_13005" data-name="パス 13005" d="M2244.1,148.276v8.441h-1.483v-8.441h-2.69v-1.332h6.863v1.332Zm5.477,8.441v-9.773h6.246v1.332h-4.764v2.855h4.063v1.317h-4.063v2.938h4.764v1.331Zm12.532.083a3.543,3.543,0,0,1-2.567-1.044c-.961-.96-.947-2.045-.947-3.925s-.014-2.965.947-3.926a3.542,3.542,0,0,1,2.567-1.043,3.365,3.365,0,0,1,3.487,3.006h-1.51a2.021,2.021,0,0,0-3.418-1.085c-.48.522-.59,1.085-.59,3.048s.11,2.525.59,3.047a2.031,2.031,0,0,0,3.431-1.084h1.5A3.374,3.374,0,0,1,2262.109,156.8Zm12.011-.083v-4.269h-3.967v4.269h-1.482v-9.773h1.482v4.173h3.967v-4.173h1.483v9.773Zm11.133,0-4.516-6.877v6.877h-1.483v-9.773h1.359l4.516,6.863v-6.863h1.483v9.773Zm10.748-.961a3.7,3.7,0,0,1-5.148,0c-.961-.96-.947-2.045-.947-3.925s-.014-2.965.947-3.926a3.7,3.7,0,0,1,5.148,0c.961.961.933,2.045.933,3.926S2296.962,154.8,2296,155.756Zm-1.126-6.959a2.054,2.054,0,0,0-2.91,0c-.48.522-.576,1.071-.576,3.034s.1,2.511.576,3.033a2.054,2.054,0,0,0,2.91,0c.48-.522.577-1.07.577-3.033S2295.355,149.319,2294.875,148.8Zm7.948,8a4.422,4.422,0,0,1-3.459-1.291l.988-.974a3.227,3.227,0,0,0,2.5.933c1.277,0,2.018-.549,2.018-1.5a1.32,1.32,0,0,0-.384-1.016,1.7,1.7,0,0,0-1.071-.412l-1.153-.164a3.34,3.34,0,0,1-1.853-.783,2.428,2.428,0,0,1-.714-1.867c0-1.7,1.235-2.868,3.267-2.868a4.07,4.07,0,0,1,3.034,1.112l-.948.933a2.87,2.87,0,0,0-2.127-.755c-1.153,0-1.785.659-1.785,1.524a1.164,1.164,0,0,0,.371.906,2.191,2.191,0,0,0,1.1.453l1.112.164a3.231,3.231,0,0,1,1.826.728,2.556,2.556,0,0,1,.8,2C2306.337,155.729,2304.868,156.8,2302.823,156.8Zm15.141,0a3.54,3.54,0,0,1-2.567-1.044c-.961-.96-.947-2.045-.947-3.925s-.014-2.965.947-3.926a3.539,3.539,0,0,1,2.567-1.043,3.364,3.364,0,0,1,3.486,3.006h-1.51a2.02,2.02,0,0,0-3.417-1.085c-.481.522-.591,1.085-.591,3.048s.11,2.525.591,3.047a1.954,1.954,0,0,0,1.441.59,1.973,1.973,0,0,0,1.99-1.674h1.5A3.373,3.373,0,0,1,2317.964,156.8Zm12.3-1.044a3.694,3.694,0,0,1-5.147,0c-.961-.96-.947-2.045-.947-3.925s-.014-2.965.947-3.926a3.7,3.7,0,0,1,5.147,0c.962.961.934,2.045.934,3.926S2331.224,154.8,2330.262,155.756Zm-1.125-6.959a2.054,2.054,0,0,0-2.91,0c-.48.522-.576,1.071-.576,3.034s.1,2.511.576,3.033a2.054,2.054,0,0,0,2.91,0c.48-.522.577-1.07.577-3.033S2329.617,149.319,2329.137,148.8Zm5.354,7.92v-9.773h1.482v8.442h4.708v1.331Zm8.977,0v-9.773h1.482v8.442h4.708v1.331Zm8.977,0v-9.773h6.246v1.332h-4.763v2.855h4.063v1.317h-4.063v2.938h4.763v1.331Zm15.223-1.029a3.744,3.744,0,0,1-5.257.068c-.961-.96-.947-2.045-.947-3.925s-.014-2.965.947-3.926a3.5,3.5,0,0,1,2.567-1.043,3.435,3.435,0,0,1,3.555,3.033h-1.5a2,2,0,0,0-2.059-1.7,1.963,1.963,0,0,0-1.441.6c-.481.522-.59,1.071-.59,3.034s.109,2.525.59,3.047a1.953,1.953,0,0,0,1.441.59,2.071,2.071,0,0,0,1.592-.686,2.209,2.209,0,0,0,.494-1.538V152.7h-2.086v-1.262h3.569v1.5A3.657,3.657,0,0,1,2367.668,155.688Zm4.159,1.029v-9.773h6.246v1.332h-4.763v2.855h4.063v1.317h-4.063v2.938h4.763v1.331Z" fill="#fff"/>
  </g>
</svg>
