<svg xmlns="http://www.w3.org/2000/svg" width="93.689" height="113.787" viewBox="0 0 93.689 113.787">
  <g id="グループ_945" data-name="グループ 945" transform="translate(-859.797 -2491.978)">
    <path id="パス_1973" data-name="パス 1973" d="M860.3,2516.313a24.191,24.191,0,0,1,1.947-9.97,23.333,23.333,0,0,1,5.219-7.479,22.452,22.452,0,0,1,7.556-4.751,25.355,25.355,0,0,1,17.915,0,22.483,22.483,0,0,1,7.554,4.751,23.38,23.38,0,0,1,5.219,7.479,24.224,24.224,0,0,1,1.948,9.97v65.117a24.22,24.22,0,0,1-1.948,9.97,23.317,23.317,0,0,1-5.219,7.478,22.444,22.444,0,0,1-7.554,4.751,25.341,25.341,0,0,1-17.915,0,22.414,22.414,0,0,1-7.556-4.751,23.27,23.27,0,0,1-5.219-7.478,24.188,24.188,0,0,1-1.947-9.97Zm15.89,65.117a7.848,7.848,0,0,0,2.18,5.686,8.092,8.092,0,0,0,11.217,0,7.857,7.857,0,0,0,2.181-5.686v-65.117a7.866,7.866,0,0,0-2.181-5.687,8.092,8.092,0,0,0-11.217,0,7.857,7.857,0,0,0-2.18,5.687Z" fill="none" stroke="#1482ca" stroke-miterlimit="10" stroke-width="1"/>
    <path id="パス_1974" data-name="パス 1974" d="M937.1,2604.33v-94.093l-15.89,11.684V2505.1l15.89-11.684h15.889V2604.33Z" fill="none" stroke="#1482ca" stroke-miterlimit="10" stroke-width="1"/>
  </g>
</svg>
