<svg xmlns="http://www.w3.org/2000/svg" width="499.943" height="65.412" viewBox="0 0 499.943 65.412">
  <g id="グループ_2192" data-name="グループ 2192" transform="translate(-187.867 -2419.297)">
    <g id="グループ_761" data-name="グループ 761">
      <path id="パス_1643" data-name="パス 1643" d="M193.307,2474.111c-3.56,0-4.759.08-5,.08-.4,0-.441-.04-.441-.44v-3.079c0-.4.04-.441.441-.441.24,0,1.439.081,5,.081h10.518a28.916,28.916,0,0,0-.24-3.4l2.319.24a24.916,24.916,0,0,0,3.64-2.88H200.9c-3.679,0-4.959.081-5.159.081-.4,0-.439-.04-.439-.4v-2.8c0-.4.04-.44.439-.44.2,0,1.48.08,5.159.08h10.838a2.5,2.5,0,0,0,.96-.08,1.319,1.319,0,0,1,.521-.159c.319,0,.719.319,1.719,1.279.8.84,1.119,1.36,1.119,1.72a.635.635,0,0,1-.479.639,9.645,9.645,0,0,0-1.92,1.321,47.363,47.363,0,0,1-5.6,4.159v.64h10c3.56,0,4.759-.081,5-.081.4,0,.44.04.44.441v3.079c0,.4-.04.44-.44.44-.241,0-1.44-.08-5-.08h-10v2.6c0,.96.081,2.439.081,3.479,0,1.72-.321,2.6-1.281,3.28-1.04.639-2.279.88-6.119.88-1.239,0-1.239.04-1.559-1.161a12.1,12.1,0,0,0-1.2-2.919,38.924,38.924,0,0,0,4.28.24c1.119,0,1.559-.28,1.559-1.4v-5Zm2.479-25.595c.521-.2.64-.12.88.2a30.077,30.077,0,0,1,2.68,4.16c.2.4.2.439-.361.64l-2.639.96h8.319a30.97,30.97,0,0,0-2.28-5c-.239-.4-.119-.441.36-.6l2.64-.8c.479-.16.6-.08.8.24a31.372,31.372,0,0,1,2.2,4.64c.12.359.12.4-.44.6l-2.6.92H211.5a31.674,31.674,0,0,0,1.959-4.04,13.251,13.251,0,0,0,.6-2.12,20.069,20.069,0,0,1,3.959,1.2c.361.159.56.359.56.6a.752.752,0,0,1-.4.6,2.982,2.982,0,0,0-.76.92c-.561,1.04-1.04,1.88-1.64,2.84h1.039c3.72,0,5.04-.08,5.28-.08.44,0,.48.04.48.439,0,.24-.08,1-.08,2.16v1.84c0,3.6.08,4.239.08,4.479,0,.44-.04.48-.48.48h-3.16c-.4,0-.439-.04-.439-.48v-5.279h-25.6v5.279c0,.4-.04.44-.44.44h-3.159c-.441,0-.481-.04-.481-.44,0-.28.08-.92.08-4.519v-1.481c0-1.479-.08-2.2-.08-2.479,0-.4.04-.439.481-.439.239,0,1.559.08,5.279.08h1.079a23.2,23.2,0,0,0-2.56-4.48c-.239-.36-.2-.44.281-.6Z" fill="#1482ca"/>
      <path id="パス_1644" data-name="パス 1644" d="M237.507,2484.709c-.4,0-.441-.04-.441-.48,0-.679.241-8.159.281-17.357a33.517,33.517,0,0,1-3.919,8.639c-.241.4-.441.6-.641.6-.159,0-.279-.2-.439-.679a13.135,13.135,0,0,0-1.361-3,36.072,36.072,0,0,0,6-12.639h-.679c-2.76,0-3.64.08-3.879.08-.4,0-.441-.04-.441-.479v-2.84c0-.36.04-.4.441-.4.239,0,1.119.08,3.879.08h.92v-2.679a30.506,30.506,0,0,0-.32-5.48,38.427,38.427,0,0,1,4,.28c.4.041.68.2.68.4a2.05,2.05,0,0,1-.24.88c-.24.48-.28,1.12-.28,3.84v2.759c2.48,0,3.28-.08,3.52-.08.4,0,.439.04.439.4v2.84c0,.439-.04.479-.439.479-.24,0-1.04-.08-3.4-.08a25.547,25.547,0,0,0,4.4,7.56,10.687,10.687,0,0,0-1.439,2.6c-.2.48-.321.72-.48.72s-.32-.2-.561-.641a26.152,26.152,0,0,1-2.159-5c.04,10.4.28,18.518.28,19.2,0,.44-.039.48-.48.48Zm14.638-18.956c.479-.24.559-.16.719.279a24.928,24.928,0,0,0,2.919,5.839,19.12,19.12,0,0,0,1.64-3.119,13.484,13.484,0,0,0,1-3.439,22.406,22.406,0,0,1,3.519,1.679c.4.24.561.4.561.6a1.091,1.091,0,0,1-.441.8,5.058,5.058,0,0,0-.919,1.679,27.987,27.987,0,0,1-2.68,4.96,26.1,26.1,0,0,0,9.879,5.439,12.735,12.735,0,0,0-1.84,2.84c-.32.679-.481.96-.8.96a2.761,2.761,0,0,1-.92-.321,29.986,29.986,0,0,1-8.919-5.839,29.518,29.518,0,0,1-9.637,6.119,2.623,2.623,0,0,1-.96.32c-.281,0-.441-.279-.8-.959a8.106,8.106,0,0,0-1.92-2.4,26,26,0,0,0,10.678-6.118,30.742,30.742,0,0,1-3.839-7.319c-.16-.4-.08-.439.439-.72Zm1.159-6.319c.4.24.6.4.6.639a.889.889,0,0,1-.4.68,5.841,5.841,0,0,0-.96,1.24,25.715,25.715,0,0,1-4.48,5.48c-.439.4-.679.639-.879.639s-.4-.28-.76-.84a8.943,8.943,0,0,0-1.919-1.959,21.023,21.023,0,0,0,4.8-5.32,9.389,9.389,0,0,0,.88-1.919A25.768,25.768,0,0,1,253.3,2459.434Zm-2.2-2.24c-3.759,0-5.079.079-5.319.079-.4,0-.439-.039-.439-.439v-3.039c0-.4.04-.441.439-.441.24,0,1.56.081,5.319.081h2.56v-1.161a23.084,23.084,0,0,0-.28-4.239c1.479.04,3.04.12,4.359.28.4.04.68.241.68.4a1.887,1.887,0,0,1-.239.84,6.233,6.233,0,0,0-.321,2.719v1.161h3.68c3.759,0,5.039-.081,5.278-.081.441,0,.481.041.481.441v3.039c0,.4-.04.439-.481.439-.239,0-1.519-.079-5.278-.079Zm9.359,1.079c.479-.279.559-.279.84.121a21.336,21.336,0,0,0,6.558,6.239,12.064,12.064,0,0,0-1.8,2.479c-.32.64-.48.88-.72.88-.2,0-.44-.16-.84-.48a25.324,25.324,0,0,1-6.439-7.239c-.24-.36-.16-.44.32-.719Z" fill="#1482ca"/>
      <path id="パス_1645" data-name="パス 1645" d="M296.1,2475.791c0,.439-.24.64-.76.72a21.623,21.623,0,0,1-2.839.2c-.36,0-.521-.24-.521-.641,0-1.439,0-3.439.04-4.879-3.559,1.84-4.838,3.4-4.838,5.32,0,1.679,1.359,2.76,5.558,2.76a68.49,68.49,0,0,0,9.959-.8c.359-.04.52.08.56.439a17.892,17.892,0,0,1,.36,3.279c.04.481-.12.76-.44.76a70.979,70.979,0,0,1-9.918.521c-6.559,0-10.038-1.96-10.038-6.6,0-3.839,2.4-6.639,8.438-9.758-.12-2.04-.6-2.84-2.4-2.759-1.88.08-3.68,1.28-5.52,2.879a53.557,53.557,0,0,0-4,4.36c-.2.239-.32.359-.48.359a.8.8,0,0,1-.44-.279,19.083,19.083,0,0,1-2.28-2.64.654.654,0,0,1-.159-.36c0-.16.08-.28.279-.44a40.822,40.822,0,0,0,8.358-9.919c-1.879.081-4.039.121-6.4.121-.36,0-.48-.2-.56-.64-.12-.64-.28-2.12-.4-3.319a88.238,88.238,0,0,0,9.2-.04,30.7,30.7,0,0,0,1.2-3.44,9.683,9.683,0,0,0,.281-2.439,25.167,25.167,0,0,1,4.558,1.119.717.717,0,0,1,.481.68.771.771,0,0,1-.281.6,3.112,3.112,0,0,0-.679.96c-.24.56-.441,1.079-.92,2.159a64.085,64.085,0,0,0,7.278-1.239c.441-.08.561.04.641.4a13.562,13.562,0,0,1,.4,2.88c.04.4-.12.56-.679.64-3,.44-6.44.88-9.359,1.2a41.272,41.272,0,0,1-3,4.439l.04.08a7.96,7.96,0,0,1,4-1.24c2.64,0,4.479,1.2,4.879,4.32,1.56-.72,3.839-1.76,5.879-2.8a12.018,12.018,0,0,0,3.04-2.159,24.7,24.7,0,0,1,2.8,3.518,1.586,1.586,0,0,1,.32.88c0,.321-.2.481-.6.561a12.806,12.806,0,0,0-2.441.6c-2.6.92-5.2,1.8-8.6,3.2Z" fill="#1482ca"/>
      <path id="パス_1646" data-name="パス 1646" d="M327.626,2467.512a2.026,2.026,0,0,1-.08.52,22.005,22.005,0,0,0,7.4,8.679,10.854,10.854,0,0,0-1.88,2.919c-.24.56-.4.8-.6.8s-.441-.2-.84-.6a26.438,26.438,0,0,1-5.239-7.039,24.817,24.817,0,0,1-6.919,10.2c-.361.321-.6.481-.8.481-.28,0-.521-.281-.84-.76a7.385,7.385,0,0,0-2.16-2.28,18.634,18.634,0,0,0,7.639-11.4c.12-.48.2-1,.28-1.52h-2.119c-3.4,0-4.56.08-4.8.08-.439,0-.48-.04-.48-.48v-2.92c0-.359.041-.4.48-.4.24,0,1.4.08,4.8.08h2.559c.16-1.88.2-3.96.24-6.119h-2.36c-.6,1.08-1.24,2.159-1.92,3.159-.319.521-.519.76-.759.76s-.48-.2-.92-.6a7.831,7.831,0,0,0-2.28-1.439,23.745,23.745,0,0,0,4.719-8.879,10.713,10.713,0,0,0,.44-2.56,26.885,26.885,0,0,1,3.72.84c.44.12.68.28.68.56,0,.24-.12.4-.36.68a3.263,3.263,0,0,0-.84,1.48c-.241.76-.52,1.559-.84,2.359h4.72c3.479,0,4.638-.08,4.879-.08.439,0,.479.04.479.441v2.919c0,.4-.04.44-.479.44-.241,0-1.4-.08-4.879-.08-.04,2.079-.08,4.119-.241,6.119h.96c3.44,0,4.6-.08,4.839-.08.4,0,.441.04.441.4v2.92c0,.44-.04.48-.441.48-.24,0-1.4-.08-4.839-.08Zm8.359,15.758c-.4,0-.44-.041-.44-.44,0-.28.08-2.44.08-12.038v-9.318c0-6.68-.08-8.919-.08-9.2,0-.359.04-.4.44-.4.28,0,1.32.08,4.359.08h5.6c3.079,0,4.119-.08,4.36-.08.439,0,.479.04.479.4,0,.241-.08,2.48-.08,8v10.319c0,9.4.08,11.557.08,11.8,0,.4-.04.44-.479.44h-3.28c-.4,0-.44-.04-.44-.44v-2.4H339.7v2.84c0,.4-.04.44-.439.44Zm3.719-7.16h6.879v-20.316H339.7Z" fill="#1482ca"/>
      <path id="パス_1647" data-name="パス 1647" d="M372.985,2464.793a12.04,12.04,0,0,1,6.36-1.8c5.839,0,9.918,3.839,9.918,9.6,0,6.679-5.4,10.958-13.957,10.958-5.039,0-8.079-2.16-8.079-5.879,0-2.68,2.519-4.88,5.639-4.88a7.279,7.279,0,0,1,7.519,5.839c2.8-1.279,4.079-3.039,4.079-6.078,0-3.64-2.56-6.039-6.279-6.039a16.282,16.282,0,0,0-10.239,4.239c-1.159,1.039-2.279,2.2-3.479,3.4-.28.28-.48.44-.68.44a.986.986,0,0,1-.6-.36,18.056,18.056,0,0,1-2.359-2.6c-.24-.32-.12-.6.2-.92a96.149,96.149,0,0,0,9.479-8.839c2.479-2.56,4.359-4.56,6.2-6.839-2.4.441-5.239,1-7.719,1.52a12.321,12.321,0,0,0-1.679.48,2.94,2.94,0,0,1-.8.2.91.91,0,0,1-.88-.68,19.092,19.092,0,0,1-1.4-4.32,19.085,19.085,0,0,0,3.718.08c2.441-.239,5.959-.759,9.079-1.359a10.628,10.628,0,0,0,2.2-.6,2.065,2.065,0,0,1,.759-.32,1.422,1.422,0,0,1,.92.32,15.1,15.1,0,0,1,2.68,2.56,1.386,1.386,0,0,1,.44.959,1.057,1.057,0,0,1-.68.96,6.494,6.494,0,0,0-1.76,1.28c-2.919,2.839-5.6,5.639-8.638,8.559Zm.04,11.4c-1.159,0-1.919.68-1.919,1.521,0,1.239,1.08,2.079,3.48,2.079a8.739,8.739,0,0,0,1.839-.16C375.9,2477.431,374.7,2476.19,373.025,2476.19Z" fill="#1482ca"/>
      <path id="パス_1648" data-name="パス 1648" d="M424.3,2460.921a3.275,3.275,0,0,0,1.736-.252.575.575,0,0,1,.644.112,8.116,8.116,0,0,1,1.456,1.485c.2.279.14.475-.168.755a4.928,4.928,0,0,0-.924,1.121,45.212,45.212,0,0,1-3.892,5.683,60.462,60.462,0,0,1,7.9,6.916c.252.252.28.364.028.7a15.7,15.7,0,0,1-1.372,1.372c-.224.224-.392.2-.616-.056a48.96,48.96,0,0,0-7.5-7.028,42.11,42.11,0,0,1-9.772,7.644c-.364.2-.616.28-.868-.027a5.885,5.885,0,0,0-1.876-1.372,34.95,34.95,0,0,0,10.108-7.42,33.95,33.95,0,0,0,5.292-7.281H416.6c-1.54,0-2.857.084-4.2.168-.252,0-.308-.112-.364-.391a12.328,12.328,0,0,1-.2-2.24c1.429.111,2.744.111,4.508.111Z" fill="#333"/>
      <path id="パス_1649" data-name="パス 1649" d="M440.959,2468.817c1.148-1.175,2.6-2.631,4.032-4.116.84-.9,1.288-1.147,2.016-1.147a2.813,2.813,0,0,1,2.016.924,97.017,97.017,0,0,0,12.712,9.127.418.418,0,0,1,.2.644,10.364,10.364,0,0,1-1.119,1.82c-.168.252-.336.336-.588.14a148.881,148.881,0,0,1-12.573-9.632.8.8,0,0,0-.5-.252.68.68,0,0,0-.5.252c-1.289,1.317-2.717,2.884-4.649,4.985a10.819,10.819,0,0,0-1.147,1.456.444.444,0,0,1-.757.139,19.275,19.275,0,0,1-2.044-1.876A16.926,16.926,0,0,0,440.959,2468.817Zm19.124-6.076a3.038,3.038,0,1,1-3.023-3.023A3,3,0,0,1,460.083,2462.741Zm-4.731,0a1.662,1.662,0,0,0,1.708,1.708,1.64,1.64,0,0,0,1.679-1.708,1.617,1.617,0,0,0-1.679-1.679A1.64,1.64,0,0,0,455.352,2462.741Z" fill="#333"/>
      <path id="パス_1650" data-name="パス 1650" d="M469.66,2465.682a.432.432,0,0,1,.5-.225,20.087,20.087,0,0,1,5.124,2.632c.309.2.309.364.168.644a11.82,11.82,0,0,1-.979,1.624c-.2.252-.336.281-.588.084a21.887,21.887,0,0,0-5.376-2.94C469.017,2466.718,469.408,2466.045,469.66,2465.682Zm4.4,10.611a47.814,47.814,0,0,0,7.7-4.844,50.857,50.857,0,0,0,8.009-7.756,7.51,7.51,0,0,0,.672,2.352.77.77,0,0,1-.141.952,49.18,49.18,0,0,1-7.308,6.72,62.52,62.52,0,0,1-8.259,5.236,7.686,7.686,0,0,0-1.457.952.513.513,0,0,1-.868-.084,13.169,13.169,0,0,1-1.652-2.324A12.314,12.314,0,0,0,474.057,2476.293Zm-1.036-17.023c.2-.252.279-.309.587-.168a20.764,20.764,0,0,1,5.04,2.939c.281.2.252.364.113.616a12.7,12.7,0,0,1-1.12,1.68c-.2.2-.365.141-.588-.056a21.548,21.548,0,0,0-5.208-3.248C472.181,2460.5,472.628,2459.8,473.021,2459.27Z" fill="#333"/>
      <path id="パス_1651" data-name="パス 1651" d="M501.664,2471.226a29.824,29.824,0,0,0-3.052,1.007c-.42.168-.588.2-.784-.2a12.578,12.578,0,0,1-.783-2.016,30.839,30.839,0,0,0,3.976-.784l2.072-.532-.645-2.435a9.6,9.6,0,0,0-1.092-2.716c.9-.113,2.212-.2,2.8-.2.393,0,.532.2.477.5a4.289,4.289,0,0,0,.139,1.876l.588,2.38,6.328-1.679a3.263,3.263,0,0,0,1.4-.617c.224-.223.447-.139.727.056a8.663,8.663,0,0,1,1.372,1.093c.252.252.224.531-.055.811a2.067,2.067,0,0,0-.505.616,25.983,25.983,0,0,1-3.191,5.208c-.252.281-.393.336-.756.14a5.2,5.2,0,0,0-1.765-.616,17.768,17.768,0,0,0,3.305-4.76l-6.328,1.736,1.4,5.405c.421,1.651.841,3.052,1.288,4.647.084.336,0,.476-.279.588a9.145,9.145,0,0,1-1.569.42c-.307.057-.475.057-.559-.364-.364-1.6-.729-3.052-1.12-4.592l-1.4-5.516Z" fill="#333"/>
      <path id="パス_1652" data-name="パス 1652" d="M530.729,2462.377c.392.141.42.42.281.784a5.022,5.022,0,0,0-.309,2.072,18.8,18.8,0,0,1-1.651,7.9,15.047,15.047,0,0,1-4,5.124c-.393.364-.673.393-.981.141a7.039,7.039,0,0,0-1.9-.924,13.579,13.579,0,0,0,4.565-5.376,16.7,16.7,0,0,0,1.372-7.532,9.7,9.7,0,0,0-.252-2.661A16.948,16.948,0,0,1,530.729,2462.377Zm5.993,12.32a30.1,30.1,0,0,0,4.4-2.771,25.579,25.579,0,0,0,4.928-4.7,6.28,6.28,0,0,0,.644,2.212c.168.336.2.5-.2.9a38.875,38.875,0,0,1-4.311,3.836,51.483,51.483,0,0,1-4.9,3.221,3.9,3.9,0,0,0-.868.615.659.659,0,0,1-.924,0,7.592,7.592,0,0,1-1.343-1.344.775.775,0,0,1-.084-.84,8.09,8.09,0,0,0,.139-2.492v-8.288a24.457,24.457,0,0,0-.279-4.9,22.293,22.293,0,0,1,2.827.447c.532.168.448.477.225.98a10.8,10.8,0,0,0-.252,3.445Z" fill="#333"/>
      <path id="パス_1653" data-name="パス 1653" d="M569.845,2464.5h-10a40.679,40.679,0,0,0-4.117.168c-.28,0-.391-.111-.391-.42a20.2,20.2,0,0,1-.112-2.323,40.246,40.246,0,0,0,4.591.2h7.617c1.484,0,3.051-.056,4.563-.111.421,0,.532.111.505.447,0,1.4-.057,2.828-.057,4.257v6.355c0,1.821.084,3.865.113,4.872,0,.281-.084.336-.42.365-.561.027-1.288.027-1.821,0-.391-.029-.475-.057-.475-.42v-1.177H559.9c-1.651,0-3.107.057-4.452.112-.223,0-.307-.084-.336-.391a16.765,16.765,0,0,1-.111-2.241c1.372.113,2.968.14,4.928.14h9.912Z" fill="#333"/>
      <path id="パス_1654" data-name="パス 1654" d="M583.705,2460.726a.419.419,0,0,1,.616-.057,26.839,26.839,0,0,1,5.208,3.836c.224.224.252.337.084.616a13.508,13.508,0,0,1-1.343,1.6c-.252.223-.309.279-.561.027a29.207,29.207,0,0,0-5.488-4.311C582.7,2461.817,583.285,2461.174,583.705,2460.726Zm2.464,14.784a48.914,48.914,0,0,0,8.064-5.153,41.372,41.372,0,0,0,7.616-7.56,8.6,8.6,0,0,0,.616,2.436c.2.449.168.672-.252,1.148a49.582,49.582,0,0,1-6.636,6.244,62.84,62.84,0,0,1-8.428,5.46,9.014,9.014,0,0,0-1.68,1.177.523.523,0,0,1-.867-.029,13.985,13.985,0,0,1-1.737-2.436A15.506,15.506,0,0,0,586.169,2475.51Z" fill="#333"/>
      <path id="パス_1655" data-name="パス 1655" d="M622.373,2468.117a16.331,16.331,0,0,1-1.708,7.28,13.312,13.312,0,0,1-4.956,5.292c-.448.281-.784.42-1.12.084a4.707,4.707,0,0,0-1.988-1.175c2.772-1.485,4.368-2.912,5.515-5.069a13.312,13.312,0,0,0,1.429-6.412h-5.488c-1.4,0-2.828.084-4.117.168-.279.028-.336-.139-.363-.475a13.03,13.03,0,0,1-.2-2.1c1.6.112,3.08.141,4.676.141h12.292c2.044,0,3.555-.029,5.263-.141.252,0,.309.112.309.477v1.624c0,.307-.141.419-.393.419-1.567-.056-3.3-.112-5.151-.112Zm-5.013-6.328c-1.259,0-2.547.028-3.975.112-.336.029-.392-.112-.42-.42a20.321,20.321,0,0,1-.168-2.1c1.792.112,3.3.14,4.563.14h5.8c1.513,0,3.277,0,4.733-.083.252-.029.307.112.307.419a6.954,6.954,0,0,1,0,1.54c0,.365-.055.449-.336.449-1.511-.057-3.219-.057-4.7-.057Z" fill="#333"/>
      <path id="パス_1656" data-name="パス 1656" d="M640.405,2460.726a.419.419,0,0,1,.616-.057,26.841,26.841,0,0,1,5.208,3.836c.224.224.252.337.084.616a13.508,13.508,0,0,1-1.343,1.6c-.252.223-.309.279-.561.027a29.207,29.207,0,0,0-5.488-4.311C639.4,2461.817,639.985,2461.174,640.405,2460.726Zm2.464,14.784a48.926,48.926,0,0,0,8.065-5.153,41.4,41.4,0,0,0,7.615-7.56,8.6,8.6,0,0,0,.616,2.436c.2.449.168.672-.252,1.148a49.516,49.516,0,0,1-6.636,6.244,62.886,62.886,0,0,1-8.427,5.46,9,9,0,0,0-1.681,1.177.523.523,0,0,1-.867-.029,14.1,14.1,0,0,1-1.737-2.436A15.508,15.508,0,0,0,642.869,2475.51Z" fill="#333"/>
      <path id="パス_1657" data-name="パス 1657" d="M668.349,2461.453a.449.449,0,0,1,.616.141,21.24,21.24,0,0,1,3.024,5.124.446.446,0,0,1-.2.643,8.528,8.528,0,0,1-1.68.812c-.364.112-.5.028-.644-.336a21.309,21.309,0,0,0-3.108-5.4A13.952,13.952,0,0,1,668.349,2461.453Zm19.236.168a.523.523,0,0,1,.028.84,6.305,6.305,0,0,0-1.12,1.988,41.967,41.967,0,0,1-5.124,9.044,30.7,30.7,0,0,1-7.5,7c-.364.224-.588.308-.868.056a5.111,5.111,0,0,0-2.156-1.008,31.72,31.72,0,0,0,8.316-7.392,33.148,33.148,0,0,0,4.648-8.343,12.738,12.738,0,0,0,.84-3.529A13.9,13.9,0,0,1,687.585,2461.621Zm-12.124-1.848a.435.435,0,0,1,.588.14,21.333,21.333,0,0,1,2.688,5.068.477.477,0,0,1-.2.672,12.722,12.722,0,0,1-1.68.728c-.364.112-.505.112-.644-.252a21.375,21.375,0,0,0-2.772-5.46C674.061,2460.361,674.817,2460.025,675.461,2459.773Z" fill="#333"/>
    </g>
    <g id="グループ_763" data-name="グループ 763">
      <path id="パス_1672" data-name="パス 1672" d="M212.8,2429.267h-4.964V2427.6H212.8Z" fill="#1482ca"/>
      <path id="パス_1673" data-name="パス 1673" d="M229.175,2426.6a9.718,9.718,0,0,1-1,4.334,8.562,8.562,0,0,1-2.992,3.213,1.037,1.037,0,0,1-.51.2.5.5,0,0,1-.357-.17,4.474,4.474,0,0,0-1.513-.9,7.544,7.544,0,0,0,3.383-3.025,7.23,7.23,0,0,0,.867-3.654h-3.23c-.85,0-1.682.05-2.549.1-.154.018-.205-.1-.221-.322a10.237,10.237,0,0,1-.137-1.632c.952.085,1.9.085,2.89.085h7.633c1.325,0,2.311-.034,3.314-.1.17,0,.187.1.187.339.017.222.017,1.088,0,1.31,0,.221-.1.288-.255.288-.884-.033-2.057-.067-3.23-.067Zm-3.366-3.944c-.782,0-1.462.034-2.413.068-.222,0-.273-.085-.29-.289-.05-.408-.068-1.02-.119-1.632,1.19.068,2.057.085,2.822.085h3.807c.952,0,2.024-.017,2.873-.068.17,0,.2.1.2.323a7.346,7.346,0,0,1,0,1.241c0,.238-.034.323-.22.323-.918-.034-1.921-.051-2.857-.051Z" fill="#1482ca"/>
      <path id="パス_1674" data-name="パス 1674" d="M247.977,2422.62a1.572,1.572,0,0,0,.849-.2.346.346,0,0,1,.222-.068.489.489,0,0,1,.271.1,7.849,7.849,0,0,1,1.157.918.553.553,0,0,1,.22.391.49.49,0,0,1-.2.357,2.046,2.046,0,0,0-.56.731,23.419,23.419,0,0,1-3.367,5.253,21.614,21.614,0,0,1-5.167,4.232.467.467,0,0,1-.272.085.6.6,0,0,1-.391-.188,4.48,4.48,0,0,0-1.615-.781,19.583,19.583,0,0,0,5.661-4.335,17.338,17.338,0,0,0,3.145-4.827l-4.114.118a23.74,23.74,0,0,1-3.212,3.486.53.53,0,0,1-.358.186.413.413,0,0,1-.255-.1,4.588,4.588,0,0,0-1.632-.732,20.178,20.178,0,0,0,4.573-5.048,7.261,7.261,0,0,0,1-2.3,8.367,8.367,0,0,1,1.989.9.355.355,0,0,1,.17.289.338.338,0,0,1-.187.289,1.828,1.828,0,0,0-.425.459c-.187.289-.357.544-.561.85Z" fill="#1482ca"/>
      <path id="パス_1675" data-name="パス 1675" d="M264.484,2421.617a.362.362,0,0,1,.2.289.521.521,0,0,1-.119.289,3.553,3.553,0,0,0-.73,1.156,27.582,27.582,0,0,1-3.146,5.388,20.685,20.685,0,0,1-5,4.777.624.624,0,0,1-.357.135.553.553,0,0,1-.357-.152,6.215,6.215,0,0,0-1.615-.867,20.062,20.062,0,0,0,5.491-4.93,21.508,21.508,0,0,0,2.8-4.9,7.56,7.56,0,0,0,.611-2.227A13.331,13.331,0,0,1,264.484,2421.617Z" fill="#1482ca"/>
      <path id="パス_1676" data-name="パス 1676" d="M278.1,2421.736a2.489,2.489,0,0,0,1.172-.153.288.288,0,0,1,.188-.068.57.57,0,0,1,.289.136,6.166,6.166,0,0,1,1.1,1.19.452.452,0,0,1,.085.221.467.467,0,0,1-.22.339,3.136,3.136,0,0,0-.629.748,26.758,26.758,0,0,1-2.176,3.179,39.9,39.9,0,0,1,4.708,4.114.39.39,0,0,1,.137.238.421.421,0,0,1-.119.255,9.2,9.2,0,0,1-1.139,1.156.294.294,0,0,1-.2.1.347.347,0,0,1-.238-.135,30.958,30.958,0,0,0-4.42-4.216,24.482,24.482,0,0,1-5.711,4.488,1.111,1.111,0,0,1-.391.136.38.38,0,0,1-.289-.153,4.649,4.649,0,0,0-1.429-1.1,21.216,21.216,0,0,0,9.18-8.6l-4.386.018c-.884,0-1.767.034-2.685.1-.136.017-.188-.1-.221-.289a9.9,9.9,0,0,1-.153-1.768c.918.068,1.767.068,2.873.068Z" fill="#1482ca"/>
      <path id="パス_1677" data-name="パス 1677" d="M291.956,2423.657c.067-.833.1-1.377.119-2.295a6.52,6.52,0,0,0-.119-1.342,13.231,13.231,0,0,1,2.21.356.35.35,0,0,1,.288.357.747.747,0,0,1-.085.323,1.6,1.6,0,0,0-.221.8c-.05.543-.067.952-.152,1.785h2.583c.782,0,1.581-.035,2.363-.035.272,0,.357.052.357.239,0,.22-.034.9-.068,1.8a29.057,29.057,0,0,1-.628,5.592,2.709,2.709,0,0,1-2.006,2.295,7.189,7.189,0,0,1-1.717.187.413.413,0,0,1-.408-.34,3.55,3.55,0,0,0-.987-1.547,6.948,6.948,0,0,0,2.313-.153c.459-.153.68-.425.884-1.19a23.822,23.822,0,0,0,.509-5.1h-3.433a12.655,12.655,0,0,1-1.513,4.709,10.983,10.983,0,0,1-3.6,3.5.779.779,0,0,1-.392.135.433.433,0,0,1-.323-.17,4.332,4.332,0,0,0-1.428-.985,9.465,9.465,0,0,0,3.995-3.468,9.9,9.9,0,0,0,1.224-3.672h-1.53c-.833,0-1.649.035-2.448.085-.17.018-.238-.085-.255-.289-.068-.407-.1-1.019-.135-1.648,1.07.068,1.836.068,2.821.068Z" fill="#1482ca"/>
      <path id="パス_1678" data-name="パス 1678" d="M307.682,2430.575a27.986,27.986,0,0,0,4.334-2.141,21.074,21.074,0,0,0,4.505-3.468,7.653,7.653,0,0,0,.271,1.972.533.533,0,0,1-.17.679,27.421,27.421,0,0,1-4.249,2.924,37.865,37.865,0,0,1-4.165,2.107,3.985,3.985,0,0,0-.951.544.5.5,0,0,1-.307.137.459.459,0,0,1-.289-.137,5.231,5.231,0,0,1-1.036-1.155.419.419,0,0,1-.1-.272.7.7,0,0,1,.085-.289,3.307,3.307,0,0,0,.069-.969l.034-6.391a16.058,16.058,0,0,0-.188-2.958,17.273,17.273,0,0,1,2.21.374.326.326,0,0,1,.272.323,1.261,1.261,0,0,1-.085.357,7.027,7.027,0,0,0-.187,2.107Z" fill="#1482ca"/>
      <path id="パス_1679" data-name="パス 1679" d="M322.046,2424.863a.305.305,0,0,1,.442.119,9.117,9.117,0,0,1,1.462,2.516,1.179,1.179,0,0,1,.069.255c0,.1-.069.153-.205.238a7.2,7.2,0,0,1-1.087.528c-.239.085-.34,0-.425-.239a10.045,10.045,0,0,0-1.6-2.736C321.281,2425.221,321.689,2425.033,322.046,2424.863Zm9.332.222c.137.1.222.186.222.289s-.051.187-.188.306a2.326,2.326,0,0,0-.51.867,20.71,20.71,0,0,1-2.566,4.521,13.634,13.634,0,0,1-3.5,3.281.739.739,0,0,1-.408.187.389.389,0,0,1-.272-.119,3.836,3.836,0,0,0-1.445-.714,14.779,14.779,0,0,0,4.08-3.536,17.584,17.584,0,0,0,2.3-4.1,6.16,6.16,0,0,0,.391-1.8A8.048,8.048,0,0,1,331.378,2425.085Zm-5.9-1.037a.3.3,0,0,1,.443.136,9.777,9.777,0,0,1,1.308,2.481c.085.256.052.341-.169.459a6.935,6.935,0,0,1-1.173.527c-.187.069-.255-.016-.34-.255a11.558,11.558,0,0,0-1.428-2.719C324.8,2424.354,325.191,2424.167,325.479,2424.048Z" fill="#1482ca"/>
      <path id="パス_1680" data-name="パス 1680" d="M336.939,2424.881c.085-.119.17-.2.323-.17a11.779,11.779,0,0,1,3.263,1.666c.12.085.188.152.188.255a.5.5,0,0,1-.068.186,6.843,6.843,0,0,1-.749,1.292c-.084.1-.152.17-.22.17a.332.332,0,0,1-.2-.1,14.913,14.913,0,0,0-3.434-1.854C336.463,2425.646,336.735,2425.152,336.939,2424.881Zm2.754,6.307a28.6,28.6,0,0,0,4.658-2.942,31.019,31.019,0,0,0,4.895-4.742,8.467,8.467,0,0,0,.493,1.9.835.835,0,0,1,.085.323.532.532,0,0,1-.187.391,31.675,31.675,0,0,1-4.318,3.927,39.4,39.4,0,0,1-5.082,3.2,5.526,5.526,0,0,0-.986.578.377.377,0,0,1-.272.136.438.438,0,0,1-.34-.2,10.781,10.781,0,0,1-1.258-1.734A7.881,7.881,0,0,0,339.693,2431.188Zm-.7-10.217c.119-.2.221-.238.425-.136a11.543,11.543,0,0,1,3.2,1.887.269.269,0,0,1,.137.221.421.421,0,0,1-.068.221,7.281,7.281,0,0,1-.868,1.274.19.19,0,0,1-.17.1.442.442,0,0,1-.254-.119,16.386,16.386,0,0,0-3.3-2.091C338.384,2421.889,338.707,2421.413,339,2420.971Zm7.785-.527c.085-.068.154-.05.255.035a7.794,7.794,0,0,1,1.615,1.818.172.172,0,0,1-.051.272l-.714.527a.178.178,0,0,1-.289-.051,8.434,8.434,0,0,0-1.717-1.972Zm1.513-1.1c.1-.068.153-.051.255.034a7.118,7.118,0,0,1,1.615,1.751.2.2,0,0,1-.051.306l-.68.527a.174.174,0,0,1-.289-.051,8.046,8.046,0,0,0-1.7-1.955Z" fill="#1482ca"/>
      <path id="パス_1681" data-name="パス 1681" d="M362.949,2429.267h-4.964V2427.6h4.964Z" fill="#1482ca"/>
    </g>
  </g>
</svg>
