<svg xmlns="http://www.w3.org/2000/svg" width="73.574" height="74.397" viewBox="0 0 73.574 74.397">
  <g id="グループ_926" data-name="グループ 926" transform="translate(-1157.214 -4359.16)">
    <path id="パス_1923" data-name="パス 1923" d="M1157.214,4374.882a15.968,15.968,0,0,1,1.284-6.576,15.418,15.418,0,0,1,3.442-4.933,14.834,14.834,0,0,1,4.984-3.134,16.722,16.722,0,0,1,11.817,0,14.843,14.843,0,0,1,4.984,3.134,15.418,15.418,0,0,1,3.442,4.933,15.986,15.986,0,0,1,1.285,6.576v42.953a15.981,15.981,0,0,1-1.285,6.576,15.375,15.375,0,0,1-3.442,4.933,14.8,14.8,0,0,1-4.984,3.134,16.715,16.715,0,0,1-11.817,0,14.8,14.8,0,0,1-4.984-3.134,15.375,15.375,0,0,1-3.442-4.933,15.964,15.964,0,0,1-1.284-6.576Zm10.48,42.953a5.172,5.172,0,0,0,1.44,3.751,5.338,5.338,0,0,0,7.4,0,5.184,5.184,0,0,0,1.439-3.751v-42.953a5.187,5.187,0,0,0-1.439-3.75,5.337,5.337,0,0,0-7.4,0,5.176,5.176,0,0,0-1.44,3.75Z" fill="#1482ca"/>
    <path id="パス_1924" data-name="パス 1924" d="M1211.983,4390.6q4.725,0,6.525-1.13t1.8-5.241v-9.454a5.111,5.111,0,0,0-1.388-3.7,4.97,4.97,0,0,0-3.75-1.438,4.423,4.423,0,0,0-3.956,1.747,6.063,6.063,0,0,0-1.183,3.39v5.96h-10.48v-6.062a15.259,15.259,0,0,1,1.232-6.063,14.756,14.756,0,0,1,3.392-4.932,16.847,16.847,0,0,1,5.035-3.288,15.456,15.456,0,0,1,6.165-1.234,13.711,13.711,0,0,1,7.142,1.695,16.5,16.5,0,0,1,4.264,3.443,22.541,22.541,0,0,1,1.8,2.467,11.971,11.971,0,0,1,1.285,2.979,41,41,0,0,1,.925,10.07q0,3.8-.154,6.166a12.9,12.9,0,0,1-.771,3.9,7.818,7.818,0,0,1-2,2.774,23.729,23.729,0,0,1-3.545,2.467,19.909,19.909,0,0,1,3.75,2.877,8.461,8.461,0,0,1,1.9,3.083,15.934,15.934,0,0,1,.719,4.367q.1,2.518.1,6.422,0,3.6-.154,5.96a30.618,30.618,0,0,1-.463,3.905,12.22,12.22,0,0,1-.821,2.775,17.131,17.131,0,0,1-1.336,2.363,16.6,16.6,0,0,1-4.985,4.778,14.8,14.8,0,0,1-7.964,1.9,18.5,18.5,0,0,1-5.24-.822,14.267,14.267,0,0,1-5.035-2.672,14.453,14.453,0,0,1-3.751-4.83,16.2,16.2,0,0,1-1.489-7.295v-5.96h10.48v5.446a5.955,5.955,0,0,0,1.388,4.059,5.213,5.213,0,0,0,7.5,0,6.259,6.259,0,0,0,1.388-4.264v-10.482q0-4.315-1.645-5.651a4.577,4.577,0,0,0-2.517-1.028,34.037,34.037,0,0,0-4.162-.205Z" fill="#1482ca"/>
  </g>
</svg>
