<svg xmlns="http://www.w3.org/2000/svg" width="73.574" height="74.397" viewBox="0 0 73.574 74.397">
  <g id="グループ_925" data-name="グループ 925" transform="translate(-744.214 -4359.16)">
    <path id="パス_1921" data-name="パス 1921" d="M744.214,4374.882a15.969,15.969,0,0,1,1.284-6.576,15.419,15.419,0,0,1,3.442-4.933,14.834,14.834,0,0,1,4.984-3.134,16.722,16.722,0,0,1,11.817,0,14.843,14.843,0,0,1,4.984,3.134,15.418,15.418,0,0,1,3.442,4.933,15.985,15.985,0,0,1,1.285,6.576v42.953a15.98,15.98,0,0,1-1.285,6.576,15.375,15.375,0,0,1-3.442,4.933,14.8,14.8,0,0,1-4.984,3.134,16.715,16.715,0,0,1-11.817,0,14.8,14.8,0,0,1-4.984-3.134,15.376,15.376,0,0,1-3.442-4.933,15.965,15.965,0,0,1-1.284-6.576Zm10.48,42.953a5.173,5.173,0,0,0,1.44,3.751,5.338,5.338,0,0,0,7.4,0,5.184,5.184,0,0,0,1.439-3.751v-42.953a5.187,5.187,0,0,0-1.439-3.75,5.337,5.337,0,0,0-7.4,0,5.176,5.176,0,0,0-1.44,3.75Z" fill="#1482ca"/>
    <path id="パス_1922" data-name="パス 1922" d="M786.55,4432.94v-9.865l18.907-35.656a13.057,13.057,0,0,0,1.644-4.676q.2-2,.206-4.983,0-1.334-.052-2.826a6.893,6.893,0,0,0-.565-2.621,4.418,4.418,0,0,0-4.521-2.671,4.734,4.734,0,0,0-5.139,5.24v5.96H786.55v-5.754a15.509,15.509,0,0,1,1.232-6.166,15.919,15.919,0,0,1,3.392-5.035,15.4,15.4,0,0,1,4.931-3.443,14.971,14.971,0,0,1,6.166-1.284,15.4,15.4,0,0,1,7.04,1.49,14.084,14.084,0,0,1,4.88,4.059,17.713,17.713,0,0,1,2.723,5.857,27.192,27.192,0,0,1,.874,6.988q0,2.673-.1,4.47a27.192,27.192,0,0,1-.411,3.443,15.218,15.218,0,0,1-1.028,3.288q-.718,1.646-1.952,4.007l-15.414,29.7h18.908v10.481Z" fill="#1482ca"/>
  </g>
</svg>
