<svg xmlns="http://www.w3.org/2000/svg" width="604.172" height="36.355" viewBox="0 0 604.172 36.355">
  <g id="グループ_923" data-name="グループ 923" transform="translate(-187.348 -4227.995)">
    <path id="パス_1900" data-name="パス 1900" d="M193.7,4246.913a11.2,11.2,0,0,0,1.036-3.556,11.491,11.491,0,0,1,2.8,1.121c.447.251.363.587.056.9a5.145,5.145,0,0,0-.981,1.624,29.513,29.513,0,0,1-6.216,9.324.725.725,0,0,1-1.091.14,4.974,4.974,0,0,0-1.96-.98A23.826,23.826,0,0,0,193.7,4246.913Zm9.744-3.275c.281-.168.42-.2.672.055a36.612,36.612,0,0,1,7.028,10.164c.14.308.14.5-.139.7a12.106,12.106,0,0,1-1.792,1.12c-.309.139-.448.084-.561-.2a35.21,35.21,0,0,0-6.916-10.7C202.439,4244.281,203.084,4243.89,203.447,4243.638Zm3.052-3.473c.141-.111.225-.084.393,0a14.955,14.955,0,0,1,3.08,3.36.281.281,0,0,1-.057.42l-1.035.813a.263.263,0,0,1-.42-.112,13.771,13.771,0,0,0-3.221-3.613Zm2.605-1.987a.3.3,0,0,1,.391,0,14.907,14.907,0,0,1,3.109,3.275.326.326,0,0,1-.084.448l-1.008.756c-.168.084-.281.084-.393-.084a14.445,14.445,0,0,0-3.191-3.528Z" fill="#333"/>
    <path id="パス_1901" data-name="パス 1901" d="M221.676,4242.77a21.708,21.708,0,0,0-.308-4.088,18.013,18.013,0,0,1,2.856.5c.42.139.42.448.28.755a7.942,7.942,0,0,0-.28,2.829v5.124c0,1.456.028,2.519.084,3.639,0,.364-.14.477-.5.477H222.04c-.336,0-.448-.113-.42-.448,0-1.092.056-2.521.056-3.809Zm12.4,5.124c0,4.255-.84,6.887-2.38,8.876a14.238,14.238,0,0,1-6.16,4.255.746.746,0,0,1-.98-.168,7.308,7.308,0,0,0-1.848-1.343,13.775,13.775,0,0,0,6.664-3.92c1.315-1.653,2.072-3.977,2.072-7.589v-5.012a20.766,20.766,0,0,0-.308-4.76,13.958,13.958,0,0,1,2.967.5c.393.14.393.476.252.813-.223.475-.279,1.26-.279,3.415Z" fill="#333"/>
    <path id="パス_1902" data-name="パス 1902" d="M256.536,4254.585h4.508c1.849,0,3.528-.056,5.376-.111.28-.029.42.084.42.391v1.68c0,.336-.084.42-.42.42-1.456-.027-3.556-.084-5.348-.084H249.48c-1.259,0-3.164.084-4.788.14-.364,0-.448-.083-.5-.5a13.383,13.383,0,0,1-.167-2.044c1.9.111,3.7.139,5.459.139h4.453v-10.164h-2.521c-1.819,0-3.052.056-4.284.14-.279.028-.336-.14-.392-.5a12.925,12.925,0,0,1-.168-2.016c1.456.113,2.661.113,4.732.113h7.532c1.708,0,3.192,0,4.9-.084.252-.029.308.111.308.363v1.681c0,.307-.056.42-.336.42-1.848-.084-3.22-.113-4.844-.113h-2.324Z" fill="#333"/>
    <path id="パス_1903" data-name="パス 1903" d="M278.655,4250.917a21.989,21.989,0,0,0-3.92.309c-.307,0-.475-.141-.559-.477a25.554,25.554,0,0,1-.336-2.66,43.209,43.209,0,0,0,6.132.28h8.763c2.017,0,4.117-.027,6.273-.084.364-.028.448.057.448.364a11.453,11.453,0,0,1,0,1.96c0,.308-.084.392-.448.365-2.1-.029-4.172-.057-6.132-.057Z" fill="#333"/>
    <path id="パス_1904" data-name="パス 1904" d="M303.939,4245.682a.432.432,0,0,1,.5-.225,20.093,20.093,0,0,1,5.124,2.632c.309.2.309.364.168.644a11.834,11.834,0,0,1-.979,1.624c-.2.252-.336.281-.588.084a21.85,21.85,0,0,0-5.376-2.94C303.3,4246.718,303.687,4246.045,303.939,4245.682Zm4.4,10.611a47.783,47.783,0,0,0,7.7-4.844,50.807,50.807,0,0,0,8.009-7.756,7.534,7.534,0,0,0,.672,2.352.769.769,0,0,1-.141.952,49.174,49.174,0,0,1-7.307,6.72,62.534,62.534,0,0,1-8.26,5.236,7.641,7.641,0,0,0-1.456.952.513.513,0,0,1-.868-.084,13.156,13.156,0,0,1-1.653-2.324A12.3,12.3,0,0,0,308.336,4256.293ZM307.3,4239.27c.2-.252.279-.309.588-.168a20.8,20.8,0,0,1,5.04,2.939c.28.2.252.364.112.616a12.719,12.719,0,0,1-1.12,1.68c-.2.2-.364.141-.588-.056a21.539,21.539,0,0,0-5.208-3.248C306.46,4240.5,306.907,4239.8,307.3,4239.27Z" fill="#333"/>
    <path id="パス_1905" data-name="パス 1905" d="M344.289,4248.062h-6.3c-1.26,0-2.885.111-4.089.167-.252.028-.391-.112-.42-.5a16.733,16.733,0,0,1-.111-1.876c1.568.139,2.856.139,4.592.139h4.676c1.2,0,2.548,0,3.668-.055.336,0,.391.111.364.391,0,1.233-.057,2.408-.057,3.556v6.16c0,1.148.057,2.548.113,3.977,0,.363-.113.447-.476.475s-1.12.028-1.54.028c-.364,0-.42-.056-.42-.364v-.924h-6.524c-1.232,0-2.6.056-3.976.168-.28.029-.364-.084-.393-.476a16.148,16.148,0,0,1-.111-1.848c1.54.084,3.08.112,4.564.112h6.44v-3.751h-5.824c-1.149,0-2.689.027-3.92.139-.308.028-.393-.112-.448-.5a14.842,14.842,0,0,1-.113-1.792c1.569.084,2.912.113,4.453.113h5.852Z" fill="#333"/>
    <path id="パス_1906" data-name="パス 1906" d="M357.869,4240.726a.419.419,0,0,1,.616-.057,26.83,26.83,0,0,1,5.208,3.836c.224.224.252.337.084.616a13.508,13.508,0,0,1-1.343,1.6c-.252.223-.309.279-.561.027a29.207,29.207,0,0,0-5.488-4.311C356.861,4241.817,357.449,4241.174,357.869,4240.726Zm2.464,14.784a48.93,48.93,0,0,0,8.064-5.153,41.367,41.367,0,0,0,7.616-7.56,8.6,8.6,0,0,0,.616,2.436c.2.449.168.672-.252,1.148a49.548,49.548,0,0,1-6.636,6.244,62.818,62.818,0,0,1-8.428,5.46,8.974,8.974,0,0,0-1.68,1.177.523.523,0,0,1-.867-.029,14.035,14.035,0,0,1-1.737-2.436A15.494,15.494,0,0,0,360.333,4255.51Z" fill="#333"/>
    <path id="パス_1907" data-name="パス 1907" d="M387.017,4261.138c-2.548,0-3.416.055-3.556.055-.224,0-.252-.028-.252-.252v-1.484c0-.252.028-.279.252-.279.14,0,1.008.055,3.556.055h3.92c-.252-.56-.532-1.064-.812-1.568-.14-.224-.084-.279.28-.392l1.26-.335c.308-.084.364-.029.476.167a16.742,16.742,0,0,1,1.064,2.128h4.872c.2-.336.336-.671.5-1.036a6.837,6.837,0,0,0,.448-1.343,19.02,19.02,0,0,1,2.016.5c.2.056.308.14.308.281,0,.111-.084.195-.224.307a2.215,2.215,0,0,0-.5.672,7.075,7.075,0,0,1-.364.616h4.06c2.548,0,3.388-.055,3.556-.055.2,0,.224.027.224.279v1.484c0,.224-.028.252-.224.252-.168,0-1.008-.055-3.556-.055Zm.5-10.949c-2.632,0-3.5.056-3.64.056-.252,0-.28-.027-.28-.224v-1.4c0-.252.028-.279.28-.279.14,0,1.008.055,3.64.055h16.324c2.632,0,3.471-.055,3.639-.055.225,0,.253.027.253.279v1.4c0,.2-.028.224-.253.224-.168,0-1.007-.056-3.639-.056Zm9.884-11.507a14.452,14.452,0,0,0-.112-2.128c.784.027,1.428.084,1.988.139.224.029.308.084.308.224a.79.79,0,0,1-.112.42,4.06,4.06,0,0,0-.14,1.345v.084h1.736c2.827,0,3.808-.057,3.976-.057.223,0,.252.028.252.252,0,.168-.056.757-.056,2.324v3.193c0,1.567.056,2.156.056,2.295,0,.281-.029.308-.252.308-.168,0-1.149-.056-3.976-.056H390.265c-2.8,0-3.808.056-3.976.056-.224,0-.252-.027-.252-.308,0-.139.056-.728.056-2.295v-3.193c0-1.567-.056-2.128-.056-2.324,0-.224.028-.252.252-.252.168,0,1.176.057,3.976.057h1.54a10.6,10.6,0,0,0-.168-2.212c.784.027,1.456.084,2.044.139.224.029.336.084.336.224a1.171,1.171,0,0,1-.112.448,3.334,3.334,0,0,0-.168,1.344v.057H397.4Zm2.212,12.88c2.688,0,3.64-.057,3.808-.057.223,0,.252.028.252.252,0,.169-.056.505-.056,1.624v1.513c0,1.063.056,1.427.056,1.595,0,.224-.029.252-.252.252-.168,0-1.12-.055-3.808-.055h-8.008c-2.66,0-3.612.055-3.78.055-.252,0-.28-.028-.28-.252,0-.168.055-.532.055-1.595v-1.513c0-1.119-.055-1.428-.055-1.624,0-.224.028-.252.28-.252.168,0,1.12.057,3.78.057Zm-7.812-9.409v-1.82h-3.7v1.82Zm0,3.332v-1.931h-3.7v1.931Zm9.6,7.644h-11.62v2.017h11.62Zm-7.672-10.976H397.4v-1.82h-3.668Zm3.668,3.332v-1.931h-3.668v1.931Zm1.932-5.152v1.82H403.2v-1.82Zm3.864,3.221h-3.864v1.931H403.2Z" fill="#333"/>
    <path id="パス_1908" data-name="パス 1908" d="M416.977,4244.365c0,.224-.028.252-.281.252h-1.708c-.223,0-.252-.028-.252-.252,0-.168.057-.559.057-2.912v-.868c0-.867-.057-1.288-.057-1.456,0-.252.029-.279.252-.279.2,0,1.149.055,3.781.055h6.3a9.6,9.6,0,0,0-.2-2.324,20.71,20.71,0,0,1,2.323.141c.225.027.393.111.393.252a1.442,1.442,0,0,1-.168.531,4.48,4.48,0,0,0-.141,1.4H434c2.66,0,3.611-.055,3.779-.055.225,0,.252.027.252.279,0,.168-.055.589-.055,1.288v1.036c0,2.353.055,2.744.055,2.912,0,.224-.027.252-.252.252h-1.708c-.252,0-.279-.028-.279-.252V4240.7H416.977Zm-.533,17.948c-.252,0-.279-.028-.279-.251,0-.168.056-.84.056-4.705v-2.128c0-2.127-.056-2.883-.056-3.051,0-.225.027-.252.279-.252.141,0,1.12.055,3.92.055h12.069c2.8,0,3.78-.055,3.92-.055.251,0,.28.027.28.252,0,.168-.056.9-.056,2.632v2.491c0,3.864.056,4.536.056,4.677,0,.195-.029.223-.28.223h-1.624c-.224,0-.252-.028-.252-.223V4261H418.349v1.065c0,.223-.029.251-.252.251Zm1.9-6.664h6.887v-2.016h-6.887Zm6.887,3.7v-2.1h-6.887v2.1Zm-2.771-15.372c-2.66,0-3.556.055-3.7.055-.281,0-.308-.028-.308-.252v-1.259c0-.225.027-.252.308-.252.14,0,1.036.055,3.7.055h7.84c2.66,0,3.555-.055,3.7-.055.279,0,.308.027.308.252v1.259c0,.224-.029.252-.308.252-.141,0-1.036-.055-3.7-.055Zm7.28,1.567c2.6,0,3.5-.056,3.668-.056.252,0,.279.029.279.252,0,.2-.055.533-.055,1.624v1.233c0,1.119.055,1.483.055,1.624,0,.252-.027.279-.279.279-.168,0-1.064-.056-3.668-.056h-6.8c-2.631,0-3.527.056-3.668.056-.251,0-.279-.027-.279-.279,0-.169.056-.5.056-1.624v-1.233c0-1.091-.056-1.427-.056-1.624,0-.223.028-.252.279-.252.141,0,1.037.056,3.668.056Zm1.764,1.54H421.177v1.82h10.332Zm-4.229,6.552v2.016h7.2v-2.016Zm7.2,5.713v-2.1h-7.2v2.1Z" fill="#333"/>
    <path id="パス_1909" data-name="パス 1909" d="M457.353,4241.846c.252-.084.336-.057.392.195a15,15,0,0,1,.168,1.652c.028.252-.056.308-.28.336-1.512.308-2.968.533-4.648.784a71.686,71.686,0,0,1-5.572,11.9c-.14.28-.28.252-.532.112a14.2,14.2,0,0,1-1.512-1.092c-.2-.168-.223-.308-.028-.56a51.137,51.137,0,0,0,5.068-10.136c-1.12.084-2.1.141-3.164.141a14.157,14.157,0,0,1-1.484-.057c-.28,0-.308-.056-.364-.363a9.738,9.738,0,0,1-.224-1.82c1.008.083,1.708.112,2.38.112a31.232,31.232,0,0,0,3.5-.2c.336-1.121.56-2.1.784-3.22a10.056,10.056,0,0,0,.225-2.213,19.043,19.043,0,0,1,2.687.56.384.384,0,0,1,.336.365.627.627,0,0,1-.224.475,2.175,2.175,0,0,0-.42.924c-.28.868-.56,1.933-.84,2.828A32.81,32.81,0,0,0,457.353,4241.846Zm1.26,7.084a11.865,11.865,0,0,0-.2-1.876,13,13,0,0,1,2.464.42.413.413,0,0,1,.364.391,1.988,1.988,0,0,1-.168.532,3.393,3.393,0,0,0-.112,1.26,45.293,45.293,0,0,0,.308,4.985,22.487,22.487,0,0,1,5.152,2.715c.252.168.252.252.14.5a10.743,10.743,0,0,1-.924,1.68c-.168.225-.308.2-.476.028a17.214,17.214,0,0,0-3.892-2.548c.028,2.829-1.652,4.256-5.124,4.256-2.52,0-4.7-1.316-4.7-3.639,0-2.269,2.044-3.809,4.956-3.809a12.166,12.166,0,0,1,2.52.28C458.753,4252.346,458.641,4250.357,458.613,4248.93Zm-2.156,6.859c-1.9,0-2.94.756-2.94,1.765,0,1.147.924,1.679,2.66,1.679,1.988,0,2.856-1.036,2.856-2.379a3.6,3.6,0,0,0-.028-.617A8.386,8.386,0,0,0,456.457,4255.789Zm4.956-12.992c.168-.252.28-.279.532-.168a20.2,20.2,0,0,1,5.488,2.633c.252.168.252.279.084.559a8.486,8.486,0,0,1-.9,1.54c-.14.224-.224.224-.42.084a20.394,20.394,0,0,0-5.768-2.94C460.8,4243.861,461.133,4243.218,461.413,4242.8Z" fill="#333"/>
    <path id="パス_1910" data-name="パス 1910" d="M487.117,4248.117a16.331,16.331,0,0,1-1.708,7.28,13.309,13.309,0,0,1-4.956,5.292c-.448.281-.784.42-1.12.084a4.7,4.7,0,0,0-1.988-1.175c2.772-1.485,4.368-2.912,5.515-5.069a13.311,13.311,0,0,0,1.429-6.412H478.8c-1.4,0-2.828.084-4.116.168-.28.028-.336-.139-.364-.475a13.025,13.025,0,0,1-.2-2.1c1.6.112,3.08.141,4.676.141h12.292c2.044,0,3.555-.029,5.263-.141.252,0,.309.112.309.477v1.624c0,.307-.141.419-.393.419-1.567-.056-3.3-.112-5.151-.112Zm-5.013-6.328c-1.259,0-2.547.028-3.975.112-.336.029-.392-.112-.42-.42a20.332,20.332,0,0,1-.168-2.1c1.792.112,3.3.14,4.563.14h5.8c1.513,0,3.277,0,4.733-.083.252-.029.307.112.307.419a6.954,6.954,0,0,1,0,1.54c0,.365-.055.449-.336.449-1.511-.057-3.219-.057-4.7-.057Z" fill="#333"/>
    <path id="パス_1911" data-name="パス 1911" d="M518.254,4242.182a2.275,2.275,0,0,0,1.4-.309c.225-.168.477-.111.756.084a10.1,10.1,0,0,1,1.485,1.177.617.617,0,0,1,.055,1.008,2.877,2.877,0,0,0-.811,1.063,38.757,38.757,0,0,1-5.46,8.708,35.083,35.083,0,0,1-8.653,7.141.608.608,0,0,1-.811-.113,5.477,5.477,0,0,0-2.1-1.036,31.038,31.038,0,0,0,9.269-7.28,30.037,30.037,0,0,0,5.235-8.315l-7.447.223a41.276,41.276,0,0,1-5.433,5.88.639.639,0,0,1-.924.084,5.587,5.587,0,0,0-1.988-.84,30.909,30.909,0,0,0,7.393-8.231,9.243,9.243,0,0,0,1.511-3.613,9.759,9.759,0,0,1,2.632,1.205.445.445,0,0,1-.027.811,3.327,3.327,0,0,0-.757.868c-.391.588-.672,1.065-1.035,1.6Z" fill="#333"/>
    <path id="パス_1912" data-name="パス 1912" d="M544.826,4240.529a.5.5,0,0,1,.112.813,6.618,6.618,0,0,0-1.232,1.987,45.774,45.774,0,0,1-5.012,8.54,33.854,33.854,0,0,1-8.372,7.924.65.65,0,0,1-.9-.027,6.06,6.06,0,0,0-2.073-1.093,33.264,33.264,0,0,0,9.044-8.148,36.086,36.086,0,0,0,4.537-7.9,12.969,12.969,0,0,0,.952-3.5A15.036,15.036,0,0,1,544.826,4240.529Z" fill="#333"/>
    <path id="パス_1913" data-name="パス 1913" d="M567.954,4240.921a3.275,3.275,0,0,0,1.736-.252.575.575,0,0,1,.644.112,8.118,8.118,0,0,1,1.456,1.485c.2.279.141.475-.168.755a4.929,4.929,0,0,0-.924,1.121,45.316,45.316,0,0,1-3.891,5.683,60.5,60.5,0,0,1,7.9,6.916c.252.252.28.364.028.7a15.565,15.565,0,0,1-1.372,1.372c-.223.224-.391.2-.616-.056a48.968,48.968,0,0,0-7.5-7.028,42.112,42.112,0,0,1-9.771,7.644c-.364.2-.616.28-.868-.027a5.907,5.907,0,0,0-1.876-1.372,34.958,34.958,0,0,0,10.107-7.42,33.925,33.925,0,0,0,5.292-7.281h-7.867c-1.54,0-2.857.084-4.2.168-.252,0-.309-.112-.365-.391a12.323,12.323,0,0,1-.2-2.24c1.429.111,2.744.111,4.508.111Z" fill="#333"/>
    <path id="パス_1914" data-name="パス 1914" d="M591.95,4254.7c-1.2,2.073-2.548,3.025-4.4,3.025-2.24,0-4.451-2.437-4.451-6.721a10.259,10.259,0,0,1,3.219-7.279,12.009,12.009,0,0,1,8.68-3.277c6.5,0,10.276,3.836,10.276,9.3,0,4.844-2.856,8.344-8.764,9.968a.738.738,0,0,1-.951-.392,4.052,4.052,0,0,0-1.457-1.343c5.208-1.12,8.624-3.668,8.624-8.6a6.8,6.8,0,0,0-7.167-6.8C595,4247.306,593.687,4251.813,591.95,4254.7Zm-4.06-9.435a8.394,8.394,0,0,0-2.464,5.655c0,2.856,1.12,4.2,2.072,4.2.868,0,1.624-.5,2.408-1.9a30.363,30.363,0,0,0,3.164-10.527A9.038,9.038,0,0,0,587.89,4245.262Z" fill="#333"/>
    <path id="パス_1915" data-name="パス 1915" d="M639.763,4230.355c2.879,0,3.758-.08,4-.08.36,0,.52.08.52.48a22.406,22.406,0,0,0,.239,4.439c1.241,10.8,6.16,19.037,15.558,24.716a11.768,11.768,0,0,0-2.359,3.039c-.321.641-.481.92-.72.92-.2,0-.48-.2-.92-.519-7.279-5.36-11.719-11.878-13.718-19.837a33.656,33.656,0,0,1-14.717,19.917c-.48.279-.72.479-.92.479-.281,0-.44-.319-.84-.96a9.583,9.583,0,0,0-2.36-2.639c9.918-4.879,15.558-14.438,16.078-25.875h-4.959c-2.88,0-3.76.08-4,.08-.44,0-.48-.04-.48-.441v-3.359c0-.4.04-.44.48-.44.24,0,1.12.08,4,.08Z" fill="#1482ca"/>
    <path id="パス_1916" data-name="パス 1916" d="M673.324,4254.111c-3.559,0-4.759.08-5,.08-.4,0-.44-.04-.44-.44v-3.079c0-.4.04-.441.44-.441.24,0,1.44.081,5,.081h10.519a28.937,28.937,0,0,0-.24-3.4l2.319.24a25,25,0,0,0,3.64-2.88h-8.639c-3.68,0-4.959.081-5.159.081-.4,0-.44-.04-.44-.4v-2.8c0-.4.04-.44.44-.44.2,0,1.479.08,5.159.08h10.838a2.5,2.5,0,0,0,.96-.08,1.315,1.315,0,0,1,.52-.159c.32,0,.72.319,1.72,1.279.8.84,1.119,1.36,1.119,1.72a.635.635,0,0,1-.479.639,9.608,9.608,0,0,0-1.92,1.321,47.442,47.442,0,0,1-5.6,4.159v.64h10c3.56,0,4.759-.081,5-.081.4,0,.441.04.441.441v3.079c0,.4-.041.44-.441.44-.24,0-1.439-.08-5-.08h-10v2.6c0,.96.08,2.439.08,3.479,0,1.72-.32,2.6-1.28,3.28-1.04.639-2.279.88-6.119.88-1.24,0-1.24.04-1.56-1.161a12.1,12.1,0,0,0-1.2-2.919,38.858,38.858,0,0,0,4.279.24c1.119,0,1.56-.28,1.56-1.4v-5Zm2.48-25.595c.52-.2.639-.12.88.2a29.974,29.974,0,0,1,2.679,4.16c.2.4.2.439-.36.64l-2.64.96h8.32a30.864,30.864,0,0,0-2.281-5c-.239-.4-.119-.441.361-.6l2.639-.8c.48-.16.6-.08.8.24a31.182,31.182,0,0,1,2.2,4.64c.12.359.12.4-.439.6l-2.6.92h6.159a31.553,31.553,0,0,0,1.959-4.04,13.126,13.126,0,0,0,.6-2.12,20.1,20.1,0,0,1,3.959,1.2c.36.159.56.359.56.6a.752.752,0,0,1-.4.6,3.016,3.016,0,0,0-.76.92c-.56,1.04-1.04,1.88-1.639,2.84h1.039c3.72,0,5.04-.08,5.279-.08.441,0,.481.04.481.439,0,.24-.08,1-.08,2.16v1.84c0,3.6.08,4.239.08,4.479,0,.44-.04.48-.481.48H698.96c-.4,0-.439-.04-.439-.48v-5.279h-25.6v5.279c0,.4-.04.44-.441.44h-3.159c-.44,0-.48-.04-.48-.44,0-.28.08-.92.08-4.519v-1.481c0-1.479-.08-2.2-.08-2.479,0-.4.04-.439.48-.439.239,0,1.56.08,5.279.08h1.08a23.212,23.212,0,0,0-2.56-4.48c-.239-.36-.2-.44.28-.6Z" fill="#1482ca"/>
    <path id="パス_1917" data-name="パス 1917" d="M717.484,4238.794c-3.559,0-4.759.08-5.039.08-.4,0-.44-.04-.44-.48v-3.24c0-.44.04-.48.44-.48.28,0,1.48.08,5.039.08h9.8v-2.6a20.024,20.024,0,0,0-.279-3.919c1.439,0,3,.08,4.359.2.4.04.64.2.64.439a2.441,2.441,0,0,1-.24.84,5.7,5.7,0,0,0-.241,2.32v2.719H742.04c3.6,0,4.8-.08,5.039-.08.36,0,.4.04.4.48v3.24c0,.44-.04.48-.4.48-.24,0-1.439-.08-5.039-.08H728.2c-.04,1.76-.16,3.4-.319,4.919h9.8c3.359,0,4.479-.08,4.719-.08.4,0,.48.12.48.559-.08,1.04-.12,2.121-.16,3.121a73.455,73.455,0,0,1-1.32,11.877c-.879,3.8-2.439,4.959-6.439,4.959-.72,0-1.839,0-3.159-.08-1.12-.08-1.12-.16-1.28-1.439a8.884,8.884,0,0,0-.879-3.08,38.824,38.824,0,0,0,4.919.36,2.231,2.231,0,0,0,2.359-2,48.621,48.621,0,0,0,1.24-10.158H727.282c-1.519,7.4-4.919,12.078-11.718,16.117-.519.28-.759.441-.96.441-.279,0-.439-.281-.8-.88a8.716,8.716,0,0,0-2.4-2.44c9.2-4.519,12.2-10.039,12.279-22.2Z" fill="#1482ca"/>
    <path id="パス_1918" data-name="パス 1918" d="M757.285,4239.033c.279-.359.44-.4.8-.2a34.874,34.874,0,0,1,5.8,4.119.423.423,0,0,1,.2.36.682.682,0,0,1-.2.44l-1.8,2.439c-.2.281-.319.4-.439.4s-.2-.08-.361-.2a29.955,29.955,0,0,0-5.759-4.44c-.16-.12-.24-.2-.24-.32s.08-.239.24-.44Zm.04,19.917a63.7,63.7,0,0,0,3.679-9.638,21.007,21.007,0,0,0,2.32,2c.64.439.84.639.84,1a4.272,4.272,0,0,1-.2.919,87.048,87.048,0,0,1-3.4,9.039,10.557,10.557,0,0,0-.6,1.559c-.08.32-.24.521-.481.521a1.5,1.5,0,0,1-.719-.2,23.453,23.453,0,0,1-3.28-2.2A13.76,13.76,0,0,0,757.325,4258.95Zm1.76-29.955c.319-.4.439-.4.76-.2a34.921,34.921,0,0,1,5.759,4.239c.28.24.32.361-.041.84l-1.8,2.44c-.28.4-.36.44-.72.16a29.023,29.023,0,0,0-5.759-4.639c-.36-.2-.36-.28,0-.72Zm11.758,19.957c-3.92,0-5.32.08-5.56.08-.4,0-.439-.04-.439-.48v-3.119c0-.4.04-.441.439-.441.24,0,1.64.08,5.56.08h4.6v-5.839h-2.759c-3.84,0-5.16.08-5.36.08-.4,0-.439-.04-.439-.439v-3.08c0-.4.039-.44.439-.44.2,0,1.52.081,5.36.081h2.759v-1.76a38.681,38.681,0,0,0-.28-5.32c1.52.041,2.919.121,4.239.241.4.04.64.239.64.479a2.135,2.135,0,0,1-.2.8,11.875,11.875,0,0,0-.279,3.68v1.88h4.359c3.839,0,5.159-.081,5.4-.081.4,0,.441.041.441.44v3.08c0,.4-.04.439-.441.439-.239,0-1.559-.08-5.4-.08h-4.359v5.839h6c3.918,0,5.318-.08,5.558-.08.36,0,.4.04.4.441v3.119c0,.44-.041.48-.4.48-.24,0-1.64-.08-5.558-.08h-8.04a96.928,96.928,0,0,1-3.519,9.4c3.519-.321,6.679-.68,9.919-1.161-.92-1.359-1.92-2.679-2.92-3.919-.28-.36-.24-.48.24-.759l2.159-1.281c.4-.24.521-.2.8.081a51.77,51.77,0,0,1,7.079,10.318c.2.4.2.439-.28.76l-2.479,1.479a1.116,1.116,0,0,1-.52.24c-.12,0-.2-.12-.28-.32-.56-1.079-1.12-2.159-1.72-3.239-5.919,1-11.158,1.679-17.637,2.319a3.955,3.955,0,0,0-1.479.36,1.242,1.242,0,0,1-.721.281c-.319,0-.519-.24-.64-.641a36.31,36.31,0,0,1-.879-3.959c1.719,0,2.96-.04,4.2-.16a3.421,3.421,0,0,0,.639-.04,62.808,62.808,0,0,0,3.6-9.758Z" fill="#1482ca"/>
  </g>
</svg>
