<svg xmlns="http://www.w3.org/2000/svg" width="65.251" height="74.397" viewBox="0 0 65.251 74.397">
  <g id="グループ_924" data-name="グループ 924" transform="translate(-327.214 -4359.16)">
    <path id="パス_1919" data-name="パス 1919" d="M327.214,4374.882a15.969,15.969,0,0,1,1.284-6.576,15.419,15.419,0,0,1,3.442-4.933,14.834,14.834,0,0,1,4.984-3.134,16.722,16.722,0,0,1,11.817,0,14.843,14.843,0,0,1,4.984,3.134,15.418,15.418,0,0,1,3.442,4.933,15.985,15.985,0,0,1,1.285,6.576v42.953a15.98,15.98,0,0,1-1.285,6.576,15.375,15.375,0,0,1-3.442,4.933,14.8,14.8,0,0,1-4.984,3.134,16.715,16.715,0,0,1-11.817,0,14.794,14.794,0,0,1-4.984-3.134,15.376,15.376,0,0,1-3.442-4.933,15.965,15.965,0,0,1-1.284-6.576Zm10.48,42.953a5.173,5.173,0,0,0,1.44,3.751,5.338,5.338,0,0,0,7.4,0,5.184,5.184,0,0,0,1.439-3.751v-42.953a5.188,5.188,0,0,0-1.439-3.75,5.337,5.337,0,0,0-7.4,0,5.176,5.176,0,0,0-1.44,3.75Z" fill="#1482ca"/>
    <path id="パス_1920" data-name="パス 1920" d="M381.983,4432.94v-62.065l-10.481,7.707v-11.1l10.481-7.706h10.482v73.163Z" fill="#1482ca"/>
  </g>
</svg>
