<svg xmlns="http://www.w3.org/2000/svg" width="71.332" height="96.107" viewBox="0 0 71.332 96.107">
  <g id="グループ_908" data-name="グループ 908" transform="translate(-1238.028 -2120.067)">
    <path id="パス_1845" data-name="パス 1845" d="M1266.815,2210.749c-4.546.293-4.869,6.568-10.484,5.241-6.169-1.458-7.837-3.83-7.488-6.739,1.124-9.36,21.9-6.934,24.711-4.493C1276.12,2206.985,1278.421,2210,1266.815,2210.749Z" opacity="0.16"/>
    <path id="パス_1846" data-name="パス 1846" d="M1306.733,2213.154c-2.495,1.937-7.674,2.477-13.259.088s-8.089-5.9-5.594-7.833,9.045-1.572,14.629.817S1309.228,2211.216,1306.733,2213.154Z" opacity="0.16"/>
    <g id="グループ_907" data-name="グループ 907">
      <g id="グループ_906" data-name="グループ 906">
        <g id="グループ_903" data-name="グループ 903">
          <g id="グループ_901" data-name="グループ 901">
            <path id="パス_1847" data-name="パス 1847" d="M1301.581,2168.542a48.35,48.35,0,0,0-2.615-11.562l-3.084.258h-.771l.128,7.066c-.209,4.093-.953,12.14-1.077,16.2-.08,2.609.582,3.905.5,5.848-.221,5.233.4,10.373.544,15.744a10.258,10.258,0,0,1-.483,2.878c-.494,1.26-2.314,2.309-3.293,3.129l-.368.343,1.316.781a4.887,4.887,0,0,0,1.558.112c.844-.565,1.691-1.315,2.256-1.685,2.192-1.441,2.9-1.464,2.412-2.848a11.54,11.54,0,0,1,.117-5.135l-.02.01c1.011-5.206,2.024-8.784,1.872-12.493-.337-8.211,0-8.087.886-13.213C1302.819,2166.074,1301.848,2171.684,1301.581,2168.542Z" fill="#f79b69" fill-rule="evenodd"/>
            <path id="パス_1848" data-name="パス 1848" d="M1307.009,2171.433a48.345,48.345,0,0,0-2.615-11.562l-3.084.257h-.771l.129,7.067c-.209,4.093-.953,12.139-1.078,16.2-.08,2.61.582,3.906.5,5.849-.219,5.174.384,10.26.537,15.566a8.466,8.466,0,0,1-.4,2.832,18.348,18.348,0,0,1-2.731,2.743l-.707.885.4.381,2.108-.329c.844-.565,2-.968,2.5-1.423,1.116-1.014,2.006-1.629,2.216-2.494.125-.51-.363-2.458.091-4.719,1.019-5.264,2.046-8.872,1.893-12.607l-.125-5.355s.383-4.211,1.012-7.857C1308.247,2168.964,1307.277,2174.575,1307.009,2171.433Z" fill="#fab585" fill-rule="evenodd"/>
            <path id="パス_1849" data-name="パス 1849" d="M1291.992,2207.717c-.793,1.188,2,.783,3.824-.186a7.668,7.668,0,0,0,2.728-3.041,3.619,3.619,0,0,1,.562,2.762l-.177,1.316-1.478.562-1.011-.257.08-.658c-1.405,1.087-1.5,1.591-2.106,1.91-.82.431-3.911.725-4.581.115v-1.223A10.246,10.246,0,0,1,1291.992,2207.717Z" fill="#002b6a" fill-rule="evenodd"/>
            <path id="パス_1850" data-name="パス 1850" d="M1297.5,2210.384c-.792,1.187,2,.782,3.825-.187a7.651,7.651,0,0,0,2.727-3.041,3.611,3.611,0,0,1,.562,2.762l-.176,1.317-1.478.562-1.012-.257.08-.658c-1.4,1.086-1.5,1.59-2.1,1.909-.822.431-4.157.831-4.828.22l-.035-1.031A7.986,7.986,0,0,1,1297.5,2210.384Z" fill="#002b6a" fill-rule="evenodd"/>
            <path id="パス_1851" data-name="パス 1851" d="M1305.8,2155.033a4.939,4.939,0,0,0,.761,2.307,22.568,22.568,0,0,1,1.742,5.734c.6,5.955-.964,10.016-2.015,20.267-6.726.576-11.319-1.425-12.4-2.586-1.357-17.7-.817-19.095.279-22.536.6-1.875,1.685-3.552,1.609-4.448C1298.175,2156.345,1302.353,2156.654,1305.8,2155.033Z" fill="#002b6a" fill-rule="evenodd"/>
          </g>
          <path id="パス_1852" data-name="パス 1852" d="M1296.644,2136.732c-2.006.339-2.317,14.929-2.317,14.929l-.929,15.37h3.67L1295.8,2152.9l-.288-1.243a26.694,26.694,0,0,1,.7-4.447l2.587-7.38Z" fill="#083d7c" fill-rule="evenodd"/>
          <path id="パス_1853" data-name="パス 1853" d="M1300.767,2120.648c-2.138-.063-3.575-.024-4.257.968-3.1,4.516.417,10.473-1.229,13.784l3.685-.135,4.765-8.268Z" fill="#002b6a" fill-rule="evenodd"/>
          <path id="パス_1854" data-name="パス 1854" d="M1303.994,2130.55c-.157,1.023-1.08,3.359.011,5.946l-3.655,2.785-1.741-1.636a11.4,11.4,0,0,0,.139-5.5Z" fill="#f79b69" fill-rule="evenodd"/>
          <path id="パス_1855" data-name="パス 1855" d="M1297.119,2122.125a21.14,21.14,0,0,0-1.021,6.6l.825,5.027,1.686.53s5.758-1.765,6.083-3.429l1.258-6.441Z" fill="#fab585" fill-rule="evenodd"/>
          <path id="パス_1856" data-name="パス 1856" d="M1303.905,2136.093a7.784,7.784,0,0,0,3.279,3.882c2.962,1.757,1.1,6.746-.339,10.341-.745,1.865-1.553,5.224-.568,7.155,5.847,11.461-7.707,20.307-10.993,12.077a15.541,15.541,0,0,1-.722-11.518c.6-1.876,1.122-3.039,1.045-3.935a13.792,13.792,0,0,0-.878-3.9,6.774,6.774,0,0,1-1.328-4.186c.058-1.73.946-3.7,1.749-5.882a8.441,8.441,0,0,1,1.26-2.661,6.56,6.56,0,0,1,2.425-1.479,2.908,2.908,0,0,0,.769,2.377C1301.787,2137.613,1302.393,2137.692,1303.905,2136.093Z" fill="#fff" fill-rule="evenodd"/>
          <path id="パス_1857" data-name="パス 1857" d="M1300.074,2159.687l-5.509-.409v6.871l1.918,9.856,7.932.438Z" fill="#002b6a" fill-rule="evenodd"/>
          <path id="パス_1858" data-name="パス 1858" d="M1305.9,2155.149l.943-4.849s3.518-9.022.555-10.779a7.7,7.7,0,0,1-3.078-3.077c-2.768,3.937-5.582,6.063-6.325,16.04-.442,5.932,1.314,12.142,1.495,19.521a40.4,40.4,0,0,0,8.96.1c.2-3.591-.059-10.71-.059-10.71l-1.731-3.937a6.9,6.9,0,0,1-.76-2.306Zm-13.219,14.26c-.255-5.744.451-8.411,1.237-10.881.6-1.875,1.495-4.641,1.495-4.641l-1.006-3.709a6.767,6.767,0,0,1-1.329-4.186c.058-1.73,1.074-3.824,1.877-6.01a10.493,10.493,0,0,1,1.307-2.955,1.4,1.4,0,0,1,.617-.392c-.889,5.436-.54,10.534.32,17.279.506,3.974-1.669,6.622-1.353,17.1A14.187,14.187,0,0,1,1292.683,2169.409Z" fill="#083d7c" fill-rule="evenodd"/>
          <path id="パス_1859" data-name="パス 1859" d="M1303.733,2135.4c-.841,1.788-3.431,2.472-4.454,2.653l.786,2.2c2.448-1.083,3.938-2.41,4.386-3.4Z" fill="#e2f5ff" fill-rule="evenodd"/>
          <path id="パス_1860" data-name="パス 1860" d="M1298.917,2135.889a2.624,2.624,0,0,0,.383,2.157q-.56.953-1.121,1.905c-.8-1.45-.5-2.252-.289-3.684Z" fill="#e2f5ff" fill-rule="evenodd"/>
          <path id="パス_1861" data-name="パス 1861" d="M1304.259,2136.439c-6.271,6.384-6.339,9.4-6.38,17.934,1.154-3.126,3.816-9.038,3.816-9.038l-1.279-2.14,2.091-.281,3.213-4.933Z" fill="#134d86" fill-rule="evenodd"/>
          <path id="パス_1862" data-name="パス 1862" d="M1297.949,2136.235l-1.564.551-1.308,4.279.62.939-1.436,1.689,3.04,11.516C1297.054,2148.7,1295.636,2142.234,1297.949,2136.235Z" fill="#134d86" fill-rule="evenodd"/>
          <path id="パス_1863" data-name="パス 1863" d="M1302.812,2130.036c.057-1.423.816-1.566,1.155-1.486,1.377.325.038,2.842-.587,3.451-.09.084-.3.108-.376.2-.871,1.119-.7,2.966-1.341,4.1,4.981-.909,5.865-1.886,5.81-9.314-.031-4.061-2.379-7.753-7.663-6.766a3.837,3.837,0,0,0-3.363,2.551C1295.274,2126.461,1301.588,2127.119,1302.812,2130.036Z" fill="#002b6a" fill-rule="evenodd"/>
          <g id="グループ_902" data-name="グループ 902">
            <path id="パス_1864" data-name="パス 1864" d="M1299.393,2157.773a7.019,7.019,0,0,0-3.655-.31,35.857,35.857,0,0,0-3.505,1.788l2.871,1.081,2.216-.081,2.134-.12Z" fill="#f79b69" fill-rule="evenodd"/>
            <path id="パス_1865" data-name="パス 1865" d="M1298.966,2156.98l-9.55,5.034-8.48-4.208v-.348l15.558-2.1Z" fill="#0b89ac" fill-rule="evenodd"/>
            <path id="パス_1866" data-name="パス 1866" d="M1300.435,2156.137l-11.02,5.511-8.48-4.191,11.02-5.511Z" fill="#33b2c3" fill-rule="evenodd"/>
            <path id="パス_1867" data-name="パス 1867" d="M1299.453,2155.965l-9.837,4.914-7.135-3.526,9.837-4.914Z" fill="#fff" fill-rule="evenodd"/>
            <path id="パス_1868" data-name="パス 1868" d="M1296.713,2158.353l-.4-.66-1.442-.706.049-.618,1.917.428,1.27.107a4.434,4.434,0,0,1,1.267.882l-.416.937-1.483-.068Z" fill="#f79b69" fill-rule="evenodd"/>
            <path id="パス_1869" data-name="パス 1869" d="M1309.36,2142.33s-1.129-2.751-2.242-2.769a2.725,2.725,0,0,0-2.228,1.245,17.4,17.4,0,0,0-.777,4.381l.721,8.722-5.344,2.7v3.851l7.928-2.3,1.341-1.622Z" fill="#083d7c" fill-rule="evenodd"/>
          </g>
        </g>
        <path id="パス_1870" data-name="パス 1870" d="M1266.491,2174.386l.249-3.479-.828-.3-.016-.034.324-1.269,0-1.192a9.513,9.513,0,0,1,1.064-1.022h.02c.819-.122,2.842-.169,2.842-.169l-.108,5.679.021.024-.187.221-2.861,2Z" fill="#f79b69"/>
        <path id="パス_1871" data-name="パス 1871" d="M1270.512,2169.681l-5.094,1.251-.459-1.114,4.781-.61.894-.617Z" fill="#b8e4fa"/>
        <path id="パス_1872" data-name="パス 1872" d="M1265.9,2170.438l.861-13.683-.047-3.268,2.5-15.467,1.046,2.234.555,12.856.426,15.715Z" fill="#002756"/>
        <path id="パス_1873" data-name="パス 1873" d="M1272.269,2205.964l-2.674-2.16-1.551-1.876-.015.012s-4.8-.294-6.159,1.051c.064.6.2,2.288.24,2.631.145.1,4.192,1.913,4.494,2.087.24.153,3.333,1.65,3.333,1.65l2.5-2.111Z" fill="#002b6a"/>
        <path id="パス_1874" data-name="パス 1874" d="M1260.01,2211.364l-2.37-2.04s-.89-1.591-1.031-1.871c-.009-.008-1.152-1.941-1.16-1.95-.253-.465-4.84.825-5.9,2.048-.007.026-.156,1.342-.169,1.705.281.266.765.673,1.366,1.152.132-.289.53-.2.758-.035a1.527,1.527,0,0,1,.529,1.034c1.8,1.353,4.92,3.143,4.92,3.143v-.009c.585-.012,3.015-1.778,3.015-1.778Z" fill="#002b6a"/>
        <path id="パス_1875" data-name="パス 1875" d="M1267.83,2164.594c-.005-.07-16.746,4.951-16.89,4.864-.074.548-.147,1.1-.2,1.629-.02.75.047,4.261.047,4.261l-.356,13.331a32.339,32.339,0,0,0-1.043,4.891l.072,14.01,1.674.02,4.918-.948,1.518-16.445,2.7-11.473.613,9.945s.872,13.58.989,14.312c.053.072,2.228,1.46,2.228,1.46l4.135-1.439.016-.008V2203C1268.478,2199.244,1267.83,2165.294,1267.83,2164.594Z" fill="#002b6a"/>
        <path id="パス_1876" data-name="パス 1876" d="M1248.62,2176.036c1.234,1.725,1.59-2.762,1.533-2.384a21.12,21.12,0,0,1-4.18-.58,14.917,14.917,0,0,0-.047,2.891l1.111,2.222,2.09-1.3A3.468,3.468,0,0,0,1248.62,2176.036Z" fill="#f8a773"/>
        <path id="パス_1877" data-name="パス 1877" d="M1250.3,2173.9l-3.423-.1-1.061-.746.156-1.1,4.412.505A4.416,4.416,0,0,1,1250.3,2173.9Z" fill="#b8e4fa"/>
        <path id="パス_1878" data-name="パス 1878" d="M1268.151,2158.966s.111-3.617.329-5.771c.235-2.481,1.984-13.155,1.984-13.155l-2.765-5.244-4.511-1.717-7.9,2.981-6.306,5.062-1.3,3.713s-1.468,18.471-1.58,20.827c-.062,1.343-.212,5.446-.254,6.16.006.01.873.918.873.918s4,.13,4.062.063a2.237,2.237,0,0,0,.006-.242c.03-.516.494-1.538.568-2.086.144.086,3.9,2.225,3.9,2.225l13.141-5.1Z" fill="#002b6a"/>
        <path id="パス_1879" data-name="パス 1879" d="M1264.544,2148.553c.184-1.431,1.058-2.81.986-4.257,0-.13-.009-.269-.018-.4a23.345,23.345,0,0,0-.792-4.966,6.285,6.285,0,0,0-.623-1.491c-.06-.108-.121-.2-.181-.3a2.817,2.817,0,0,0-1.5-1.3,5.087,5.087,0,0,0,1.32-.659,23.879,23.879,0,0,1,1.912,1.79l-.427,1.363,1.635.718.3,2.49s-2.4,10.13-2.683,10.811c.225-.6-.3-1.708-.1-2.352A7.983,7.983,0,0,0,1264.544,2148.553Z" fill="#11487f"/>
        <path id="パス_1880" data-name="パス 1880" d="M1256.93,2138.709a7.251,7.251,0,0,0,1.115,1.281c.236.2.464.4.693.589a15.212,15.212,0,0,1,2.692,2.582,15.484,15.484,0,0,1,2.454,4.822c.021.062.041.132.062.2a9.281,9.281,0,0,1,.189,2.413,13.99,13.99,0,0,0,.128,1.607l-.352-1.457a15.716,15.716,0,0,0-2.805-4.594l-3.482-2,.15-1.806-1.438.15-.7-1.851s-1.093-2.92-.767-3.97c.061-.057,1.134-1.725,1.68-2.295.009.26.027.521.045.79.036.511.064,1.023.1,1.535a1.593,1.593,0,0,1-.1-.2l-.017.007A2.222,2.222,0,0,0,1256.93,2138.709Z" fill="#11487f"/>
        <g id="グループ_904" data-name="グループ 904">
          <path id="パス_1881" data-name="パス 1881" d="M1265.53,2144.3c0-.13-.009-.268-.018-.4a49.465,49.465,0,0,0-.792-4.966,10.6,10.6,0,0,0-.623-1.491c-.528-.293-6.7,1.653-7.167,1.269a11.23,11.23,0,0,0,1.115,1.281l.693.588,2.692,2.583a29.817,29.817,0,0,1,2.453,4.822c.022.062.843,1.193.863,1.264C1264.763,2147.987,1265.292,2146.377,1265.53,2144.3Z" fill="#93e4ec"/>
          <path id="パス_1882" data-name="パス 1882" d="M1265.376,2143.449l-1.41-3.65-.066-.134-.184-1.507s-.371-.308-.562-.433a3.088,3.088,0,0,0-.976-.269c-.154.378-.321.817-.463,1.266-.011.042-.03.093-.042.144a5.633,5.633,0,0,0,1.449,1.242,31.79,31.79,0,0,1,.488,4.258l-.11,2.624.362,1.045.494,5.13c.021-.223,1.19-8.018,1.19-8.018Z" fill="#ff5252"/>
          <path id="パス_1883" data-name="パス 1883" d="M1256.692,2136.707c1.119,1.929,5.352,1.474,5.487.05l-.156-1.547c.153.337,1.475,1.3,1.893,1.933.06.1.121.189.181.3a3.929,3.929,0,0,1-.151.88l-.23-.162-.562-.433-1.006-.171c-.154.378-.7,2.343-.7,2.343h-.017l-2.84-.338a8.431,8.431,0,0,1-1.661-.849,2.222,2.222,0,0,1-.351-2.191l.017-.007A1.593,1.593,0,0,0,1256.692,2136.707Z" fill="#dbffff"/>
        </g>
        <g id="グループ_905" data-name="グループ 905">
          <path id="パス_1884" data-name="パス 1884" d="M1262.2,2135.566c.05,0-.026,1.8-.023,1.89-.036.6-4.3,1.728-5.574-.641-.037-.513-.1-3.075-.12-3.326.131.017.172-1.317.327-1.428A53.773,53.773,0,0,0,1262.2,2135.566Z" fill="#f79b69"/>
          <path id="パス_1885" data-name="パス 1885" d="M1264.418,2125.524c-.469.56-1.9.812-2.607,1.08-1,.356-3.629,1.479-3.629,1.479a10.693,10.693,0,0,1-.221,1.728,5.779,5.779,0,0,0-.181,2.92c-.337-.218-.666-.436-.969-.67-.126-.624-.233-1.266-.332-1.621a.634.634,0,0,0-.969.76c.244.65.483,2.122,1.118,2.226a.619.619,0,0,0,.445-.133c.145.429,1.079,1.15,1.079,1.15a43.964,43.964,0,0,0,4.151,1.517c.051,0,1.824-.777,1.824-.777l.638-5.988S1264.481,2125.781,1264.418,2125.524Z" fill="#fab585"/>
          <path id="パス_1886" data-name="パス 1886" d="M1258.182,2128.083a10.474,10.474,0,0,1-.222,1.728,5.787,5.787,0,0,0-.179,2.92c-.338-.218-.667-.436-.97-.67-.126-.624-.233-1.266-.332-1.621a.634.634,0,0,0-.969.76c.245.65.483,2.122,1.118,2.226.019.26.049.78.049.78l-.692-.3-.472-.987a53.556,53.556,0,0,1-2.5-5.226l-.083-3.313S1256.25,2127.485,1258.182,2128.083Z" fill="#11487f"/>
          <path id="パス_1887" data-name="パス 1887" d="M1258.934,2128.22s-.669-.1-.752-.137c-1.932-.6-3.712-2.32-5.256-3.706a12.047,12.047,0,0,1,1.724-2.132,12.876,12.876,0,0,1,5.344-1.311H1260c.455.11,2.02.55,2.333.6-.164-.022,2.71.381,2.773.392,0,0,.505,1.9-.011,2.824-.153.267-.873,1.311-.873,1.311S1260.086,2128.267,1258.934,2128.22Z" fill="#002b6a"/>
        </g>
        <path id="パス_1888" data-name="パス 1888" d="M1255.392,2182.075l-.1,1.756-.768,11.821-3.13,1.64.354-6.041.408-6.963,0-.069.052-.877v-.026l.313-.118.017-.007,2.6-1.008.009-.009Z" fill="#0e6d8d"/>
        <path id="パス_1889" data-name="パス 1889" d="M1251.746,2191.25l-13.4-8.288.454-7.746.017-.007,13.37,8.121.024.01Z" fill="#2b94b1"/>
        <path id="パス_1890" data-name="パス 1890" d="M1251.746,2191.25l-.354,6.041-13.364-8.916.317-5.414,13.353,8.267Z" fill="#10809a"/>
        <path id="パス_1891" data-name="パス 1891" d="M1248.19,2188.327l1.372.84-.111,1.9-1.368-.917Z" fill="#dbffff"/>
        <path id="パス_1892" data-name="パス 1892" d="M1252.186,2183.33l-13.37-8.121,3.095-1.184c.319.2,13.4,7.881,13.488,7.93l-.007.12Z" fill="#33b2c3"/>
        <path id="パス_1893" data-name="パス 1893" d="M1250.156,2176.388l-.235,3.4-.507.155-.363-.245c.014-.136.142-2.419.162-2.768a3.2,3.2,0,0,1-.472-.3.159.159,0,0,0-.034-.034c-.219-.239-.034-.746-.034-.746a2.471,2.471,0,0,1,.351-.15C1249.211,2175.765,1250.156,2176.388,1250.156,2176.388Z" fill="#168ba7"/>
        <path id="パス_1894" data-name="パス 1894" d="M1245.383,2177.378l-.347.05-.4-.213.072-1.223.218-1.6.73-.087h.222l.012.284.008,1.063a1.227,1.227,0,0,0-.245-.078l-.168.079Z" fill="#168ba7"/>
      </g>
    </g>
  </g>
</svg>
