<svg xmlns="http://www.w3.org/2000/svg" width="436.044" height="52.127" viewBox="0 0 436.044 52.127">
  <g id="グループ_731" data-name="グループ 731" transform="translate(-186.316 -1288.854)">
    <path id="パス_1592" data-name="パス 1592" d="M200.932,1340.55v-7.632H186.316v-6.912l10.584-36.72h7.776l-11.016,36.72h7.272V1311.39h7.344v14.616H211.8v6.912h-3.528v7.632Z" fill="#1482ca"/>
    <path id="パス_1593" data-name="パス 1593" d="M231.89,1313.122c6.159-2.08,11.158-3.319,14.4-3.319,7.159,0,11.758,4.319,11.758,10.6,0,5.24-2.279,8.559-7.038,11.119-3.361,1.879-6.48,2.519-10.159,3.319-.8.16-1.119.12-1.4-.64a7.413,7.413,0,0,0-2.8-3.159c5.28-.88,8.12-1.64,10.839-2.96,3.4-1.72,5.519-4.279,5.519-7.958,0-3.76-2.44-6.079-6.879-6.079-3.6,0-8.358,1.439-14.438,4.119a25.53,25.53,0,0,0-2.759,1.44c-.56.48-.88.6-1.079.6-.4,0-.72-.24-1.161-.84a23.3,23.3,0,0,1-2.559-4.159C225.891,1315,227.37,1314.642,231.89,1313.122Z" fill="#1482ca"/>
    <path id="パス_1594" data-name="パス 1594" d="M287.809,1311.6c-.92,6.8-2.6,13.037-5,17.237-1.72,3-3.8,4.6-6.8,4.6-3.519,0-7.078-3.758-7.078-10.278a14.737,14.737,0,0,1,4.518-10.4,17.5,17.5,0,0,1,13-5.119c9.6,0,15.238,5.919,15.238,13.878,0,7.438-4.2,12.118-12.318,14.557-.84.24-1.2.08-1.72-.72a8.5,8.5,0,0,0-2.8-2.519c6.758-1.6,12.078-4.4,12.078-11.958a9.084,9.084,0,0,0-8.959-9.278Zm-11.479,3.878a11.519,11.519,0,0,0-3.119,7.4c0,3.679,1.479,5.719,2.719,5.719,1.04,0,1.92-.521,3-2.44a45.724,45.724,0,0,0,4.239-14.318A12.043,12.043,0,0,0,276.33,1315.481Z" fill="#1482ca"/>
    <path id="パス_1595" data-name="パス 1595" d="M332.527,1307.8c-3.558,0-4.758.08-5,.08-.4,0-.439-.04-.439-.44v-2.92c0-.4.04-.439.439-.439.241,0,1.441.079,5,.079h9.16c3.6,0,4.8-.079,5-.079.4,0,.439.039.439.439v2.92c0,.4-.04.44-.439.44-.2,0-1.4-.08-5-.08h-3a30.742,30.742,0,0,1-1.28,3h2.759c3.2,0,4.319-.08,4.6-.08.4,0,.44.04.44.439,0,.2-.08,1.6-.08,4.64v10.637c0,3.04.08,4.4.08,4.64,0,.4-.04.44-.44.44-.281,0-1.4-.081-4.6-.081h-6.238c-3.24,0-4.36.081-4.6.081-.439,0-.479-.04-.479-.44,0-.24.08-1.6.08-4.64v-10.477c0-1.72-.04-2.92-.04-3.68a11.526,11.526,0,0,0-1.6,2.68c-.28.559-.44.84-.681.84-.2,0-.439-.16-.879-.521s-.88-.76-1.28-1.159v2.839c0,.4-.04.44-.44.44-.239,0-.84-.08-2.919-.08h-3.04c-2.079,0-2.68.08-2.919.08-.36,0-.4-.04-.4-.44v-2.639c-.639.6-1.279,1.2-1.959,1.72-.4.319-.64.479-.839.479-.281,0-.441-.28-.721-.919a7.935,7.935,0,0,0-1.44-2.32,23.079,23.079,0,0,0,7-7.759,10.1,10.1,0,0,0,1.08-2.719c1.359.2,2.479.36,3.638.559.441.08.641.321.641.561,0,.2-.12.4-.441.6l-.24.161a21.062,21.062,0,0,0,7.44,7.558c-.04-.639-.04-.96-.04-1.08,0-.4.04-.439.479-.439.2,0,1.28.08,4.119.08a19.142,19.142,0,0,0,1.12-3ZM319.37,1323.48v9.958c0,3.16.08,4.68.08,4.919,0,.4-.04.441-.44.441h-3.159c-.4,0-.441-.04-.441-.441,0-.279.08-1.759.08-4.919v-9.958c-2.719,0-3.678.081-3.879.081-.44,0-.48-.04-.48-.441v-2.8c0-.44.04-.48.48-.48.241,0,1.24.08,4.36.08h5.919c3.159,0,4.239-.08,4.479-.08.4,0,.44.04.44.48,0,.24-.08.959-.08,2.639v3.84c0,1.4.08,2.959.08,4a3.721,3.721,0,0,1-.92,2.8c-.6.6-1.4.88-3.48.96-1.279.04-1.279.04-1.519-1.241a10.376,10.376,0,0,0-.88-2.719,13.04,13.04,0,0,0,2.12.12c.64,0,.84-.24.84-1.119v-6.12Zm4.759-9.678a26.634,26.634,0,0,1-4.48-5.879,30.592,30.592,0,0,1-4.438,5.879,26.63,26.63,0,0,0,2.839.08h3.04c2.079,0,2.68-.08,2.919-.08Zm10.918,19.4c.36.24.44.441.44.641,0,.239-.2.359-.48.479-.279.161-.6.4-1.039.72a25.082,25.082,0,0,1-6.44,4,2.75,2.75,0,0,1-.92.319c-.279,0-.479-.24-.92-.919a10.993,10.993,0,0,0-1.679-2,22.7,22.7,0,0,0,6.959-3.559,7.145,7.145,0,0,0,1.32-1.36A19.473,19.473,0,0,1,335.047,1333.2Zm-2.279-19.076v2.52h8.478v-2.52Zm8.478,8.158v-2.639h-8.478v2.639Zm0,3h-8.478v2.839h8.478Zm-1.2,6.479c.2-.2.319-.28.439-.28s.241.08.4.24a24.08,24.08,0,0,0,7.038,4.279,9.326,9.326,0,0,0-1.64,2.24c-.359.68-.519.959-.8.959a2.783,2.783,0,0,1-1-.4,26.609,26.609,0,0,1-6.318-4.72c-.32-.319-.2-.4.2-.76Z" fill="#1482ca"/>
    <path id="パス_1596" data-name="パス 1596" d="M362.85,1327.2a32.487,32.487,0,0,0,3.479-1.519,22.841,22.841,0,0,0-.12,2.479c0,1.32,0,1.32-1.159,1.84a10.333,10.333,0,0,1-.96.44,21.937,21.937,0,0,0,4.119-.48,68.386,68.386,0,0,0,10.118-2.76c-.12.8-.239,1.6-.279,2.4,0,1.319,0,1.359-1.2,1.719a93.015,93.015,0,0,1-9.119,2.56c-.719.239-1.2.359-1.44.479a1.989,1.989,0,0,1-.84.321c-.239,0-.439-.16-.6-.6a28.189,28.189,0,0,1-.84-3.6c-1.96.84-4.159,1.6-6.239,2.32a4.2,4.2,0,0,0-1.2.559,1.13,1.13,0,0,1-.679.281c-.2,0-.4-.12-.521-.52a30.386,30.386,0,0,1-.84-3.6,20.856,20.856,0,0,0,3.48-.72l.88-.24v-11.678h-.08c-2.48,0-3.24.079-3.48.079-.359,0-.4-.039-.4-.44v-3c0-.439.04-.479.4-.479.28,0,1.04.08,3.56.08v-3.68a43.767,43.767,0,0,0-.281-6.079c1.481.04,2.72.12,4.12.281.36.04.6.24.6.44a3.123,3.123,0,0,1-.16.84c-.2.479-.32,1.479-.32,4.438v3.76c2.04,0,2.719-.08,2.96-.08.4,0,.439.04.439.479v3c0,.4-.04.44-.439.44-.241,0-.92-.039-2.96-.079Zm19.837-14.517a83.079,83.079,0,0,0,1.08,11.278,24.6,24.6,0,0,0,1.639-4.359,22.85,22.85,0,0,0,.76-4.08,31.419,31.419,0,0,1,3.439,1.161c.48.24.68.359.68.719a1.188,1.188,0,0,1-.4.76c-.321.32-.441.84-.88,2.16a36.5,36.5,0,0,1-3.96,8.8c1.12,3.68,2.12,5,2.48,5,.64,0,.959-1.72,1.12-5.119a8.789,8.789,0,0,0,2.04,1.48c1.04.52,1.04.52.919,1.64-.56,5.359-1.719,6.8-4.079,6.8-1.64,0-3.559-1.72-5.239-6.159a32.508,32.508,0,0,1-7.559,6.079,3.047,3.047,0,0,1-1.04.479c-.24,0-.44-.239-.839-.759a7.69,7.69,0,0,0-2.281-2.039,29.109,29.109,0,0,0,10.359-8,81.079,81.079,0,0,1-2.079-15.838h-7.119c-3.879,0-5.2.08-5.44.08-.4,0-.439-.04-.439-.48v-2.92c0-.4.04-.439.439-.439.24,0,1.561.08,5.44.08h7v-.481a44.935,44.935,0,0,0-.321-5.718,34.984,34.984,0,0,1,4.039.32c.441.04.641.239.641.439a1.96,1.96,0,0,1-.2.8c-.2.4-.281.84-.281,2.76V1309h2.281c3.919,0,5.278-.08,5.518-.08.4,0,.441.04.441.439v2.92c0,.44-.04.48-.441.48-.24,0-1.6-.08-5.518-.08Zm-8.8,2.96c2.16,0,2.8-.08,3.04-.08.439,0,.479.04.479.44,0,.239-.08,1.039-.08,3.079v3.6c0,2.079.08,2.879.08,3.119,0,.4-.04.44-.479.44-.241,0-.88-.08-3.04-.08h-3.119c-2.16,0-2.8.08-3.08.08-.4,0-.44-.04-.44-.44,0-.28.08-1.04.08-3.119v-3.6c0-2.04-.08-2.84-.08-3.079,0-.4.04-.44.44-.44.28,0,.92.08,3.08.08Zm.28,3.119h-3.64v4.279h3.64Zm12.358-15.438c.48-.159.48-.119.76.2a18.643,18.643,0,0,1,2.279,3.28c.2.36.121.48-.439.68l-1.72.8c-.56.28-.6.239-.8-.2a16.757,16.757,0,0,0-2.2-3.359c-.28-.321-.2-.441.321-.64Z" fill="#1482ca"/>
    <path id="パス_1597" data-name="パス 1597" d="M416.928,1320.921a4,4,0,1,1-4-4A4.011,4.011,0,0,1,416.928,1320.921Z" fill="#1482ca"/>
    <path id="パス_1598" data-name="パス 1598" d="M435.42,1340.55v-6.912l13.248-24.985a9.133,9.133,0,0,0,1.151-3.275q.144-1.406.145-3.492,0-.935-.036-1.98a4.842,4.842,0,0,0-.4-1.837,3.095,3.095,0,0,0-3.168-1.871,3.315,3.315,0,0,0-3.6,3.672v4.176H435.42v-4.032a10.879,10.879,0,0,1,.863-4.321,11.15,11.15,0,0,1,2.377-3.527,10.765,10.765,0,0,1,3.455-2.412,10.478,10.478,0,0,1,4.321-.9,10.786,10.786,0,0,1,4.932,1.043,9.882,9.882,0,0,1,3.42,2.845,12.428,12.428,0,0,1,1.907,4.1,19.01,19.01,0,0,1,.613,4.9q0,1.872-.073,3.132a18.571,18.571,0,0,1-.288,2.412,10.626,10.626,0,0,1-.719,2.3q-.5,1.152-1.369,2.807l-10.8,20.809h13.248v7.344Z" fill="#1482ca"/>
    <path id="パス_1599" data-name="パス 1599" d="M462.2,1299.87a11.181,11.181,0,0,1,.9-4.608,10.787,10.787,0,0,1,2.412-3.456,10.384,10.384,0,0,1,3.492-2.2,11.728,11.728,0,0,1,8.28,0,10.4,10.4,0,0,1,3.492,2.2,10.8,10.8,0,0,1,2.411,3.456,11.2,11.2,0,0,1,.9,4.608v30.1a11.2,11.2,0,0,1-.9,4.608,10.781,10.781,0,0,1-2.411,3.456,10.386,10.386,0,0,1-3.492,2.2,11.728,11.728,0,0,1-8.28,0,10.366,10.366,0,0,1-3.492-2.2,10.767,10.767,0,0,1-2.412-3.456,11.184,11.184,0,0,1-.9-4.608Zm7.344,30.1a3.627,3.627,0,0,0,1.008,2.628,3.74,3.74,0,0,0,5.184,0,3.636,3.636,0,0,0,1.008-2.628v-30.1a3.636,3.636,0,0,0-1.008-2.628,3.74,3.74,0,0,0-5.184,0,3.627,3.627,0,0,0-1.008,2.628Z" fill="#1482ca"/>
    <path id="パス_1600" data-name="パス 1600" d="M518.7,1311.6c-.92,6.8-2.6,13.037-5,17.237-1.719,3-3.8,4.6-6.8,4.6-3.518,0-7.078-3.758-7.078-10.278a14.738,14.738,0,0,1,4.519-10.4,17.5,17.5,0,0,1,13-5.119c9.6,0,15.237,5.919,15.237,13.878,0,7.438-4.2,12.118-12.317,14.557-.84.24-1.2.08-1.72-.72a8.494,8.494,0,0,0-2.8-2.519c6.759-1.6,12.078-4.4,12.078-11.958a9.083,9.083,0,0,0-8.959-9.278Zm-11.478,3.878a11.519,11.519,0,0,0-3.119,7.4c0,3.679,1.479,5.719,2.718,5.719,1.04,0,1.92-.521,3-2.44a45.7,45.7,0,0,0,4.24-14.318A12.043,12.043,0,0,0,507.217,1315.481Z" fill="#1482ca"/>
    <path id="パス_1601" data-name="パス 1601" d="M547.5,1328.68c-3.559,0-4.759.08-5,.08-.4,0-.44-.04-.44-.441v-3.079c0-.4.04-.44.44-.44.24,0,1.44.08,5,.08h10.519a28.734,28.734,0,0,0-.241-3.4l2.32.241a25.016,25.016,0,0,0,3.639-2.88H555.1c-3.68,0-4.959.08-5.159.08-.4,0-.44-.04-.44-.4v-2.8c0-.4.04-.441.44-.441.2,0,1.479.08,5.159.08h10.838a2.513,2.513,0,0,0,.96-.08,1.318,1.318,0,0,1,.52-.159c.319,0,.72.319,1.72,1.279.8.84,1.119,1.361,1.119,1.72a.636.636,0,0,1-.48.64,9.548,9.548,0,0,0-1.919,1.32,47.46,47.46,0,0,1-5.6,4.159v.64h10c3.56,0,4.759-.08,5-.08.4,0,.44.04.44.44v3.079c0,.4-.04.441-.44.441-.24,0-1.439-.08-5-.08h-10v2.6c0,.96.08,2.44.08,3.48,0,1.72-.32,2.6-1.28,3.279-1.04.64-2.28.88-6.119.88-1.24,0-1.24.04-1.56-1.16a12.119,12.119,0,0,0-1.2-2.92,38.875,38.875,0,0,0,4.279.24c1.119,0,1.56-.279,1.56-1.4v-5Zm2.48-25.6c.52-.2.639-.12.879.2a29.979,29.979,0,0,1,2.68,4.16c.2.4.2.44-.36.64l-2.64.96h8.319a30.8,30.8,0,0,0-2.28-5c-.239-.4-.119-.44.361-.6l2.639-.8c.48-.161.6-.081.8.24a31.114,31.114,0,0,1,2.2,4.639c.12.36.12.4-.439.6l-2.6.92h6.159a31.489,31.489,0,0,0,1.959-4.04,13.113,13.113,0,0,0,.6-2.119,20.1,20.1,0,0,1,3.959,1.2c.36.159.559.359.559.6a.75.75,0,0,1-.4.6,3.012,3.012,0,0,0-.76.92c-.56,1.04-1.04,1.88-1.639,2.84h1.039c3.719,0,5.04-.08,5.279-.08.44,0,.48.04.48.439,0,.241-.08,1-.08,2.161v1.839c0,3.6.08,4.24.08,4.479,0,.44-.04.48-.48.48h-3.159c-.4,0-.44-.04-.44-.48V1312.6H547.1v5.278c0,.4-.04.44-.441.44H543.5c-.44,0-.48-.04-.48-.44,0-.279.08-.92.08-4.519v-1.48c0-1.48-.08-2.2-.08-2.48,0-.4.04-.439.48-.439.239,0,1.56.08,5.279.08h1.079a23.194,23.194,0,0,0-2.559-4.48c-.239-.36-.2-.44.28-.6Z" fill="#1482ca"/>
    <path id="パス_1602" data-name="パス 1602" d="M592.737,1309.123c-1.08.239-2.16.44-3.28.64-1.239.2-1.279.2-1.8-1a7.928,7.928,0,0,0-1.36-2.159,42.706,42.706,0,0,0,11-2.64,9.365,9.365,0,0,0,1.64-.96,21.241,21.241,0,0,1,2.519,2.479,1.039,1.039,0,0,1,.36.72c0,.28-.32.481-.719.481a3.834,3.834,0,0,0-1.361.359,30.732,30.732,0,0,1-3.079,1.08v5.519h.361c3.119,0,4.159-.08,4.4-.08.4,0,.44.04.44.44v2.84c0,.4-.04.439-.44.439-.239,0-1.279-.08-4.319-.08a23.1,23.1,0,0,0,5.119,6.159,14.8,14.8,0,0,0-1.48,3.079c-.12.441-.279.641-.439.641-.2,0-.4-.2-.68-.6a27.445,27.445,0,0,1-3.08-5c0,9.8.24,16.518.24,17.4,0,.359-.04.4-.44.4h-3.279c-.4,0-.44-.04-.44-.4,0-.84.239-7.6.32-16.558a30.589,30.589,0,0,1-4.679,9.039c-.28.4-.521.64-.72.64-.16,0-.32-.2-.48-.68a10.34,10.34,0,0,0-1.64-3.04,28.725,28.725,0,0,0,6.639-11.078h-1c-3.12,0-4.161.08-4.4.08-.4,0-.44-.04-.44-.439V1314c0-.4.04-.44.44-.44.239,0,1.28.08,4.4.08h1.679Zm20.756,15.917v-16.077a42.322,42.322,0,0,0-.319-6.039c1.479.04,2.839.12,4.2.28.44.04.64.2.64.4a2.145,2.145,0,0,1-.2.839,18.287,18.287,0,0,0-.241,4.44V1324.2c2.441-.519,3.44-.8,3.8-.88s.36,0,.441.4l.519,3.119c.08.359,0,.4-.4.479-.36.08-1.48.241-4.36.8v3.72c0,4.479.08,6.719.08,6.959,0,.4-.04.439-.439.439h-3.4c-.36,0-.4-.04-.4-.439,0-.24.08-2.44.08-6.919v-2.92l-6.438,1.24-5.119,1.04c-.361.08-.4,0-.481-.4l-.559-3.039c-.081-.4-.041-.441.36-.521s1.64-.239,5.119-.84Zm-8.838-10.238c.36-.361.44-.321.76-.08a38.054,38.054,0,0,1,5.639,5.239c.28.32.24.479-.12.84l-1.959,2.04a.821.821,0,0,1-.441.279c-.12,0-.2-.04-.359-.2a33.089,33.089,0,0,0-5.52-5.559c-.32-.28-.32-.36.08-.759Zm1.159-9.118c.321-.321.4-.361.72-.121a35.121,35.121,0,0,1,5.56,5c.12.16.2.24.2.36s-.08.239-.28.4l-1.96,2c-.4.44-.44.48-.72.12a30.515,30.515,0,0,0-5.519-5.239c-.36-.28-.32-.36.081-.76Z" fill="#1482ca"/>
  </g>
</svg>
