<svg xmlns="http://www.w3.org/2000/svg" width="68.256" height="99.955" viewBox="0 0 68.256 99.955">
  <g id="グループ_894" data-name="グループ 894" transform="translate(-1230.42 -1646.017)">
    <g id="グループ_893" data-name="グループ 893">
      <path id="パス_1793" data-name="パス 1793" d="M1275.35,1739.3c-3.518,1.5-3.842,7.658-8.558,6.543-5.182-1.224-7.46-4.689-7.155-7.131.749-5.991,14.7-7.383,17.063-5.333C1278.856,1735.244,1278.545,1737.929,1275.35,1739.3Z" fill="rgba(0,0,0,0.3)" opacity="0.37"/>
      <g id="グループ_892" data-name="グループ 892">
        <path id="パス_1794" data-name="パス 1794" d="M1283.328,1714.819l-1.566.364-.847.607s-1.911,4.368-1.688,4.592a15.422,15.422,0,0,1,.974,1.624l3.574-2.924Z" fill="#f79b69"/>
        <path id="パス_1795" data-name="パス 1795" d="M1281.826,1722.168l-.3-1.419-.971,0-.143-3.777.506-1.185-4.083-1.621-2.184,8.011-.577,3.2.332,3.083,2.389,0,1.666-3.852,1.066-1.4Z" fill="#fff"/>
        <path id="パス_1796" data-name="パス 1796" d="M1284.991,1692.432l-10.535-1.568,4.617,10.8,11.253,5.192-3.8,1.061-5.36,6.768,2.19,5.805,15.324-12.714v-4.455Z" fill="#00489d"/>
        <path id="パス_1797" data-name="パス 1797" d="M1263.424,1732.99l-1.128,2.105,1.318,7.8,4.228,1.968,2.332-1.633v-1.515l-1.238-.883-.48-2.583.564-2.286-.672-.228-.166-3.876Z" fill="#fff"/>
        <path id="パス_1798" data-name="パス 1798" d="M1266.924,1728.462l-1.787,4.02-.914,1.1v1.711l1.1,2.476a9.194,9.194,0,0,1,1.044-2.147,8.332,8.332,0,0,1,1.615.072h0l.342-.595,3.719-3.709Z" fill="#f79b69"/>
        <path id="パス_1799" data-name="パス 1799" d="M1268.512,1695.654l-.939,5.729,3.773,17.029-2.148,2.9-3.574,8v3.048l3.589,2.735,2.424-1.961,8.066-11.955-.63-19.516,2.191-2.52,1.3-3.66,2.427-3.051-1.686-2.925C1277.03,1692.023,1268.512,1695.654,1268.512,1695.654Z" fill="#0056bb"/>
        <path id="パス_1800" data-name="パス 1800" d="M1260.955,1668l-3.472,1.218-3.436,1.565h-3.55l-12.272,3.075.231,3.188,13.044-.551,2.315-1.186,5.094-.618Z" fill="#fab585"/>
        <path id="パス_1801" data-name="パス 1801" d="M1270.5,1659.821l-.689,1.991a53.517,53.517,0,0,0-.012,5.6h9.273v-4.874l-6.66-5.5Z" fill="#f79b69"/>
        <path id="パス_1802" data-name="パス 1802" d="M1286.522,1657.044a9.9,9.9,0,0,0,.176-2.848l1-2.468s2.888-3.862,5.787-.7l-4.88,11.325Z" fill="#f79b69"/>
        <path id="パス_1803" data-name="パス 1803" d="M1267.573,1679.131l.25,4.036,1.984,5.911-1.294,6.576,1.863,1.381,3.7-1.3,10.421-4.422-1.99-10.114Z" fill="#f79b69"/>
        <path id="パス_1804" data-name="パス 1804" d="M1283.775,1692.251l.716-.938-.358-1.806-8.74,4.705-4.653.507-1.888-.792-.34,1.726,1.863,1.381,5.018-.487Z" fill="#00489d"/>
        <path id="パス_1805" data-name="パス 1805" d="M1277.948,1691.267l.65,3.757,3.228-1.583-.334-2.938Z" fill="#3576ab"/>
        <path id="パス_1806" data-name="パス 1806" d="M1286.777,1653.554l-3.021,5.132-2.872,1.143-2.285,3.409,3.9,8.634,1.229,2.554,1.415-3.5,3.54-7.429,1.64-3.221Z" fill="#fff"/>
        <path id="パス_1807" data-name="パス 1807" d="M1278.273,1661.881l-.325,3.847-2.172,1.5-3.989-.256-1.7-2.512.417-4.642-1.516,3.022-.7.839,3.639,6.841,6.807,7.128,3.191-1.423.579-8.315-2.84-6.779Z" fill="#fff"/>
        <path id="パス_1808" data-name="パス 1808" d="M1285.491,1688.71l-1.716-5.543,1.371-12.243-1.264-6.081-3.3-4.347-3.524-.442,2.774,6.125.467,3.582-.51,5.71-3.831-4.586-4.17-3.911-2.8-4.131c-2.6,2.56-2.771,2.88-5.3,5.135.168,1.046,2.5,15.189,2.5,15.189l-1.462,7.749L1271.7,1694l6.187.352Z" fill="#fff"/>
        <path id="パス_1809" data-name="パス 1809" d="M1233.594,1673.988l4.792-.133,2.154,1.617v1.416l-2.755.494-2.005.791-.52.891-1.721.066-1.37-1.121-.469-1.083-.884.656-.4-.286.686-1.967Z" fill="#fab585"/>
        <path id="パス_1810" data-name="パス 1810" d="M1257.3,1668.7l7.282-3.519h2.073l1.628,2.173v5.143l-1.171,1.426-3.48.505-5.419,1.085Z" fill="#fff"/>
        <path id="パス_1811" data-name="パス 1811" d="M1271.862,1651.18l5.289,1.806,1.737,2.334.185,2.206-.392,2.449-.611.316-.47,1.8-2.207,2.7-2.622.388-3.553-4.811s-.477-1.733-.661-2.221a18.242,18.242,0,0,1,.257-3.464Z" fill="#fab585"/>
        <path id="パス_1812" data-name="パス 1812" d="M1272.506,1648.988c-5.631.453-5.327,7.129-5.327,7.129l.862,2.594.045,1.062.947-.6a2.215,2.215,0,0,1-.232-.709c-.963-3.826,2.508-4.268,2.508-4.268s2.241,1.665,3.533.731c.684-.495,2.355,2.518,2.355,2.518s.934-2.152,1.876.081c1.681-2.27.352-6.492.352-6.492S1276.081,1646.428,1272.506,1648.988Z" fill="#663f30"/>
        <path id="パス_1813" data-name="パス 1813" d="M1241.119,1672.915l-2.894.941.892,3.289,3.16-.262Z" fill="#e23d1e"/>
        <path id="パス_1814" data-name="パス 1814" d="M1272.4,1652.147l3.757.577,1.69-2.007,1.479-.528,2.377-1.479-2.377-2.43-4.121.423-2.806,2.8Z" fill="#f79b69"/>
        <path id="パス_1815" data-name="パス 1815" d="M1278.273,1647.546l1.057-1.268,8.769.423,4.86,1.9.528,2.43-1.77,1.114h-4.675l-5.336-3.438Z" fill="#f79b69"/>
        <path id="パス_1816" data-name="パス 1816" d="M1280.49,1646.334l2.011.756v1.123l-.465.708,1.341.864.671-.929.152-1.949-1.7-.792-1.629-.1Z" fill="#e23d1e"/>
      </g>
    </g>
  </g>
</svg>
