<svg xmlns="http://www.w3.org/2000/svg" width="37.778" height="100.769" viewBox="0 0 37.778 100.769">
  <g id="グループ_890" data-name="グループ 890" transform="translate(-638.271 -1646.886)">
    <path id="パス_1747" data-name="パス 1747" d="M660.883,1740.154c-5.662.485-3.744,7.113-11.232,7.488-5.394.269-9.728-3.82-8.986-6.365,2.621-8.986,19.88-10.129,23.213-9.36C668.745,1733.04,673.987,1739.031,660.883,1740.154Z" fill="rgba(0,0,0,0.3)" opacity="0.37"/>
    <g id="グループ_889" data-name="グループ 889">
      <path id="パス_1748" data-name="パス 1748" d="M648.492,1737.813l2.243,2.836,3.227,2.215-.033,1.382a13.286,13.286,0,0,1-2.072,2.016l-3.755-.428-3.519-3.107-2.359-1.539.058-2.451Z" fill="#1a3554"/>
      <path id="パス_1749" data-name="パス 1749" d="M656.89,1735.668l3.021.072,3.619,1.34,3.536.241.907-1.8-.865-2.136-2.789-.723-3.766-2.323s-4.68.117-4.686.345-.079,3.364-.079,3.364l-.036,1.482Z" fill="#1a3554"/>
      <path id="パス_1750" data-name="パス 1750" d="M650.983,1662.244l2.18-.546,3.95,1.523,1.632,3.347,1.045,12.9Z" fill="#1a3554"/>
      <path id="パス_1751" data-name="パス 1751" d="M645.571,1692.628l-2.009.656-.715,7.359-.367,14.375,15.832-3.311,1.111-20.213Z" fill="#06141e"/>
      <path id="パス_1752" data-name="パス 1752" d="M660.621,1693.8l1.242,17.294v2.527l-.673,16.711-1.517,1.522-5.329-.126-.311-16.626-3.636-18.468Z" fill="#0d2030"/>
      <path id="パス_1753" data-name="パス 1753" d="M654.624,1699.824l-2.264,16.311-3.82,22.507-2.913.745-4.065-.553c.061-.169,1.606-18.356,1.606-18.356l.911-5.614.538-19.248,9.178-1.555Z" fill="#152a3f"/>
      <path id="パス_1754" data-name="パス 1754" d="M640.723,1672.782c.007-.228-1.31-4.834-1.31-4.834l3.394-3.615,9.753-1.992,3.81,1.944s2.71,4.142,2.933,4.375,1.856,8.314,1.856,8.314l.22,14.977-.758.556.194,3.992-6.584,6.161-8.835-6.939-.872-1.464-.962-.711,1.016-10.159Z" fill="#152a3f"/>
      <path id="パス_1755" data-name="パス 1755" d="M642.807,1664.333l-.178,1.131,4.924,4.2s2.166,3.711,2.252,3.684l1.724.752-.089,3.819,2.843,2.878,2.621,4.812.811-7.71v-5.5l-1.561-1.324.849-1.526-1.348-3.064s-1.887-2.884-1.99-3.011a9.885,9.885,0,0,0-1.866-.7Z" fill="#1a3554"/>
      <path id="パス_1756" data-name="パス 1756" d="M644.523,1694.257l.961.885,2.476.261,6.9-1.205,1.878-1.778.4-2.014.572,2.1,1.077.579,1.83-.579v.818l-7.743,2.635-4.513.727-2.779-.18-.97-.892Z" fill="#fff"/>
      <g id="グループ_887" data-name="グループ 887">
        <path id="パス_1757" data-name="パス 1757" d="M651.468,1661.691a14.054,14.054,0,0,1,.193,1.475l1.752,2.911-9.643-1.928,1.583-2.208c-.108-.812-.216-1.634-.24-1.772a5.833,5.833,0,0,0,1-.742A56.156,56.156,0,0,0,651.468,1661.691Z" fill="#f79b69"/>
        <path id="パス_1758" data-name="パス 1758" d="M652.818,1651.132c-.446.626-3.353-.526-4.087-.175-1.033.473-2.974,3.321-2.974,3.321l-.9,2.03s-1.607.85-1.19,1.664c.33.642.906,2.079,1.6,2.117a.687.687,0,0,0,.464-.184c.2.426.662,1.434.662,1.434l4.828,1.338,2.277-1.175.074-6.635S652.912,1651.389,652.818,1651.132Z" fill="#fab585"/>
        <path id="パス_1759" data-name="パス 1759" d="M646.962,1653.64l-1.391,2.048.614,1.583.243,1.98a6.856,6.856,0,0,1-.761-.376c-.2-.629-.378-1.364-.52-1.718-.188-.134-.959.093-.959.093l-.356.672s.737,2.129,1.43,2.167c.047.266.132.8.132.8l-.775-.237-.608-.964a54.648,54.648,0,0,1-3.226-5.1l-.429-3.4Z" fill="#002b6a"/>
        <path id="パス_1760" data-name="パス 1760" d="M649.875,1653.9s-2.821-.237-2.913-.262a18.233,18.233,0,0,1-6.606-2.454,12.566,12.566,0,0,1,1.633-2.377,14.428,14.428,0,0,1,5.606-1.921h.009c.5.063,2.227.348,2.569.372-.178-.006,3.326,2.509,3.394,2.513l-.453,2.742Z" fill="#002b6a"/>
      </g>
      <path id="パス_1761" data-name="パス 1761" d="M642.847,1664.256l.894,1.118,4.647,1.755,4.663,5.391,3.853,13.093-1.288-14.913-1.8-4.19-1.925-2.984-.048,2.041-6.922-1.534-.9-1.165Z" fill="#fff"/>
      <path id="パス_1762" data-name="パス 1762" d="M652.508,1666.559l-2.28-.054.278,2.719.788.444,1.984-1.892,1.587.408a14.629,14.629,0,0,0-.852-2.566l-.67-.579Z" fill="#ff1f4b"/>
      <path id="パス_1763" data-name="パス 1763" d="M638.271,1671.48l2.365,19.443,2.048,1.584,15.272-4.117-.242-4.465-11.207.275-.288-8.583-1.435-5.658-5.371-2.01Z" fill="#1a3554"/>
      <path id="パス_1764" data-name="パス 1764" d="M644.023,1662.867l1.109-.619-.764,1.065Z" fill="#dbffff"/>
      <g id="グループ_888" data-name="グループ 888">
        <path id="パス_1765" data-name="パス 1765" d="M653.287,1661.215l1.523-1.065,4.794,2.693a8.513,8.513,0,0,1,1.511,3.437c.389,2.049,3.627,19.547,3.627,19.547l.949,1.277,3.072,5.609s-3.154,1.41-4.163,1.086c-1.279-.411-2.4-2.433-2.4-2.433l-1.145-3.851-2.768-21.006-.6-1.355Z" fill="#ffd422"/>
        <path id="パス_1766" data-name="パス 1766" d="M664.146,1691.409l.454,2.39a6.227,6.227,0,0,0,5.532-.795,7.25,7.25,0,0,0,2.055-4.545c.1-1.031.28-3.725.28-3.725a4.252,4.252,0,0,1,1.173-2.325c1.19-1.5-8.557-4.684-8.557-4.684l-.307.6.512,2.032,1.046,3.323.094,1.939-.8,1.5Z" fill="#ffd422"/>
        <path id="パス_1767" data-name="パス 1767" d="M664.68,1674.95c-1.1,1.147-2.381,5.006,4.111,8.043,5.873,2.748,9.306-2.9,5.92-6.633C674.217,1675.814,668.741,1670.7,664.68,1674.95Z" fill="#fff6d6"/>
        <path id="パス_1768" data-name="パス 1768" d="M664.61,1674.58c-1.1,1.147-2.381,5.006,4.11,8.043,5.874,2.748,9.307-2.9,5.921-6.633C674.146,1675.444,668.671,1670.33,664.61,1674.58Z" fill="#ffe166"/>
        <path id="パス_1769" data-name="パス 1769" d="M665.275,1674.967c-.957,1-2.079,4.37,3.588,7.022,5.128,2.4,8.125-2.529,5.169-5.791C673.6,1675.721,668.82,1671.257,665.275,1674.967Z" fill="#ffd422"/>
        <path id="パス_1770" data-name="パス 1770" d="M665.864,1675.558c-.8.834-1.73,3.638,2.987,5.845,4.268,2,6.763-2.1,4.3-4.82C672.794,1676.186,668.815,1672.47,665.864,1675.558Z" fill="#ffa210" opacity="0.49"/>
        <path id="パス_1771" data-name="パス 1771" d="M666.767,1676.746c-.608.636-1.32,2.775,2.278,4.459,3.256,1.523,5.16-1.6,3.283-3.677C672.053,1677.225,669.018,1674.39,666.767,1676.746Z" fill="#ffa210"/>
        <path id="パス_1772" data-name="パス 1772" d="M666.53,1679.123a5.074,5.074,0,0,0,2.515,2.082,2.861,2.861,0,0,0,3.378-.277,3.013,3.013,0,0,0-.535-.827C671.621,1679.808,668.757,1677.132,666.53,1679.123Z" fill="#e17a0a"/>
        <path id="パス_1773" data-name="パス 1773" d="M653.287,1661.215l1.523-1.065-1.8-.983-1.26.574Z" fill="#543213"/>
        <path id="パス_1774" data-name="パス 1774" d="M663.307,1679.308a.827.827,0,1,1-.981-.809A.907.907,0,0,1,663.307,1679.308Z" fill="#ffec45"/>
        <path id="パス_1775" data-name="パス 1775" d="M662.6,1675.59a.827.827,0,1,1-.981-.809A.907.907,0,0,1,662.6,1675.59Z" fill="#ffec45"/>
        <path id="パス_1776" data-name="パス 1776" d="M661.835,1671.566a.826.826,0,1,1-.981-.809A.905.905,0,0,1,661.835,1671.566Z" fill="#ffec45"/>
        <path id="パス_1777" data-name="パス 1777" d="M662.485,1682.673l-1.384-.179.146.768,2.16.054.776-.51-.128-.675-.679.461Z" fill="#ff9a17"/>
        <path id="パス_1778" data-name="パス 1778" d="M663.33,1686.581l-1.205.76-.106-.555,1.969-.95.893.1.381.549-1.07-.139Z" fill="#ffec45"/>
        <path id="パス_1779" data-name="パス 1779" d="M661.862,1679.395l-1.384-.179.146.768,2.16.054.776-.51-.128-.675-.679.461Z" fill="#ffec45"/>
        <path id="パス_1780" data-name="パス 1780" d="M661.139,1675.6l-1.384-.179.146.768,2.16.054.776-.51-.128-.675-.679.461Z" fill="#ffec45"/>
        <path id="パス_1781" data-name="パス 1781" d="M660.39,1671.653l-1.384-.179.146.768,2.16.054.776-.51-.128-.675-.679.461Z" fill="#ffec45"/>
        <path id="パス_1782" data-name="パス 1782" d="M667.8,1683.407c.121.638-.13,1.222-.562,1.3s-.879-.369-1-1.007.13-1.222.561-1.3S667.681,1682.769,667.8,1683.407Z" fill="#ffa11a"/>
        <path id="パス_1783" data-name="パス 1783" d="M667.793,1686.418c-.135.636-.592,1.077-1.022.986s-.668-.681-.533-1.316.593-1.077,1.022-.986S667.928,1685.783,667.793,1686.418Z" fill="#ffa11a"/>
        <path id="パス_1784" data-name="パス 1784" d="M666.09,1689.228c-.412.5-1.021.685-1.361.407s-.281-.911.13-1.414,1.02-.685,1.36-.407S666.5,1688.725,666.09,1689.228Z" fill="#ffa11a"/>
        <path id="パス_1785" data-name="パス 1785" d="M667.591,1683.356c.121.639-.13,1.223-.561,1.305s-.88-.369-1-1.008.13-1.222.561-1.3S667.469,1682.718,667.591,1683.356Z" fill="#ffec45"/>
        <path id="パス_1786" data-name="パス 1786" d="M667.607,1686.379c-.135.635-.593,1.077-1.022.985s-.668-.68-.533-1.316.593-1.077,1.022-.985S667.742,1685.743,667.607,1686.379Z" fill="#ffec45"/>
        <path id="パス_1787" data-name="パス 1787" d="M665.913,1689.083c-.411.5-1.02.685-1.36.407s-.282-.911.129-1.413,1.021-.686,1.361-.408S666.324,1688.58,665.913,1689.083Z" fill="#ffec45"/>
        <path id="パス_1788" data-name="パス 1788" d="M664.733,1686.025a.849.849,0,1,1-1.166-.707A.984.984,0,0,1,664.733,1686.025Z" fill="#ffec45"/>
        <path id="パス_1789" data-name="パス 1789" d="M663.98,1682.845a.827.827,0,1,1-.981-.808A.908.908,0,0,1,663.98,1682.845Z" fill="#ff9a17"/>
      </g>
      <path id="パス_1790" data-name="パス 1790" d="M658.53,1682.132a18.443,18.443,0,0,0,1.225-1.765l.59.248.069,1.886,1.674-.507,1.625-1.956.47.567-.037,3.662-2.707,2.1-3.475,1.339-.185-3.244Z" fill="#fab585"/>
      <path id="パス_1791" data-name="パス 1791" d="M661.918,1670.585l-.946,2.735.494,2.239,1.134.03.831-1.349-.425-3.655-1.259-.917Z" fill="#f79b69"/>
    </g>
  </g>
</svg>
