<svg xmlns="http://www.w3.org/2000/svg" width="35.971" height="99.832" viewBox="0 0 35.971 99.832">
  <g id="グループ_899" data-name="グループ 899" transform="translate(-633.289 -2116.803)">
    <g id="グループ_898" data-name="グループ 898">
      <path id="パス_1818" data-name="パス 1818" d="M651.833,2208.006c-5.677.252-2.995,8.236-10.483,8.611-5.394.27-7.862-2.621-7.862-5.616,0-11.625,19.078-12.854,22.089-11.232C660.445,2202.39,663.8,2207.473,651.833,2208.006Z" opacity="0.1"/>
      <g id="グループ_897" data-name="グループ 897">
        <path id="パス_1819" data-name="パス 1819" d="M664.259,2141.929l-6.272-6.842-5.639-5.155v4.346l3.313,7.57,4.512,2.975,2.307,6.625s1.663,1.257,3.1,2.478c1.049.894,1.767-2.23,2.158-2.648Z" fill="#002b6a"/>
        <path id="パス_1820" data-name="パス 1820" d="M652.294,2197.031l-5.872,3.115.751,2.869,2.931,1.1,4.415,2.186,3.586-1.189.037-2.449-3.959-2.651Z" fill="#002b6a"/>
        <path id="パス_1821" data-name="パス 1821" d="M656.352,2163.943l-10.613-2.1,1.326,20.265-.687,2.943-.8,15.641,4.218.854,3.893-2.8.644-16.881Z" fill="#002b6a"/>
        <path id="パス_1822" data-name="パス 1822" d="M636.5,2204.627l-.912,3.449,1.667,4.19,3.193,3.18,4.609-1.543.07-2.014-2.306-3.535-.732-3.057Z" fill="#002b6a"/>
        <path id="パス_1823" data-name="パス 1823" d="M638.15,2167.119l-1.442,17.459-1.363,6.235-.733,14.717,5.736,1.784,2.492-2.016,2.23-19.877,4.54-18.339s5.306-.2,6.742-4.142c-.053-.437-.453-2.937-.453-2.937Z" fill="#002b6a"/>
        <path id="パス_1824" data-name="パス 1824" d="M641.672,2129.923l-.708,2.048c-.2.231,4.965,4.49,4.965,4.49h2.014l2.542-3.74-6.847-5.653Z" fill="#f79b69"/>
        <path id="パス_1825" data-name="パス 1825" d="M649.243,2133.981l-1.049,1.406-4.115-.979-3.121-2.885-.844,1.507-.72.862,3.741,7.033,7,7.329,3.281-1.463.6-8.549-2.92-6.969Z" fill="#fff"/>
        <path id="パス_1826" data-name="パス 1826" d="M649.615,2137.319l.209-1.01-1.63-.922-1.142,1.879,1.38.495.641,3.106s.127,5.3.408,8.373l4.267-1.32-2.763-7.52Z" fill="#33b2c3"/>
        <path id="パス_1827" data-name="パス 1827" d="M657.082,2167.144l-.6-10.994.251-14.811-1.3-6.252-3.394-4.47-3.394-.425,2.623,6.269.48,3.682-.524,5.871-3.939-4.715-4.287-4.021-2.88-4.247c-2.668,2.632-2.848,2.961-5.446,5.279.173,1.075,3.843,18.993,3.843,18.993l-1.468,12.162,2.971,3.458,10.824-1.135s.945-4.277,1.576-8.142a61.253,61.253,0,0,1,1.115,6.415Z" fill="#083a75"/>
        <path id="パス_1828" data-name="パス 1828" d="M644.648,2149.047s-.746,1.634,1.074,3.6a1.977,1.977,0,0,0,2.6.563s1.118-.817-.558-2.97S644.648,2149.047,644.648,2149.047Z" fill="#001549"/>
        <path id="パス_1829" data-name="パス 1829" d="M653.821,2146.835l-5.626-.156-2.529,1.9v1.663l2.655,1.379.58-.8,2.354.929.611,1.045,2.021.078,1.608-1.316.551-1.272,1.037.77.465-.336-.806-2.309Z" fill="#fab585"/>
        <path id="パス_1830" data-name="パス 1830" d="M646.3,2148.1c-.238.079-2.218,1.789-2.218,1.789v3.678l2.741.216,1.5-2.166-1.7-1.319-.539-1.466S646.2,2148.373,646.3,2148.1Z" fill="#fff"/>
        <path id="パス_1831" data-name="パス 1831" d="M644.648,2149.047c-.261.251-2.945,1.814-2.945,1.814l-1.74-10.038-2.45-2.793-2.845.28-.8,1.1-.584,4.068.985,3.844,2.673,10.621,2.149,1.612,2.921-.8,6.307-5.547-2.148-.571-1.462-2.248A8.2,8.2,0,0,1,644.648,2149.047Z" fill="#002b6a"/>
        <path id="パス_1832" data-name="パス 1832" d="M649.97,2120.668l-5.438,1.858-2.827,3.234.45,3.742.839.69.594-.157.482,1.847,4.828,3.173,1.951-.625,1.84-4.316v-1.665a1.04,1.04,0,0,0,.679-.619,18.764,18.764,0,0,0-.265-3.562Z" fill="#fab585"/>
        <path id="パス_1833" data-name="パス 1833" d="M646.055,2119.3c-5.79.466-5.477,7.329-5.477,7.329l.886,2.668.047,1.091.973-.616a2.288,2.288,0,0,1-.239-.73c-.989-3.933,1.834-.918,1.834-.918s1.12,1.241,1.674,1.241.736-1.86.736-1.86a1.287,1.287,0,0,0,1.429-.309,1.569,1.569,0,0,0,.276-1.445s2.683.619,3.67.309a3.663,3.663,0,0,0,1.3-4.657S649.731,2116.669,646.055,2119.3Z" fill="#663f30"/>
        <g id="グループ_895" data-name="グループ 895">
          <path id="パス_1834" data-name="パス 1834" d="M655.883,2151.984l-4.9,13.287.49.463,4.9-13.287,12.887-7.508-.491-.466Z" fill="#33b2c3"/>
          <path id="パス_1835" data-name="パス 1835" d="M651.476,2165.734l12.886-7.508,4.9-13.287-12.887,7.508Z" fill="#0e6d8d"/>
        </g>
        <path id="パス_1836" data-name="パス 1836" d="M666.252,2152.42a2.006,2.006,0,0,0-1.135.823c-.49.7-1.392,2.881-1.165,2.967s.679.557,1.132.273c.252-.282,1.914-1.676,2.191-2.63a5.16,5.16,0,0,0-.385-2.575Z" fill="#f79b69"/>
        <g id="グループ_896" data-name="グループ 896">
          <path id="パス_1837" data-name="パス 1837" d="M639.913,2125.306l.8,2.1,1.23-.562-.844-1.976Z" fill="#002b6a"/>
          <path id="パス_1838" data-name="パス 1838" d="M654.062,2125.515l-13.141-3.485a3.422,3.422,0,0,0-1.1,1.225,4.11,4.11,0,0,0-.26.454l-.089-.012-.074.573a2.622,2.622,0,0,0,1.2,2.236,9.982,9.982,0,0,0,3.582,1.851s2.407,2.753,5.483,3.066c.294.03,4.762.355,6.111-2.465a1.837,1.837,0,0,0,.1-.333h0l.005-.692A4.463,4.463,0,0,0,654.062,2125.515Z" fill="#d53a3a"/>
          <path id="パス_1839" data-name="パス 1839" d="M654.135,2124.986l-13.142-3.483a3.383,3.383,0,0,0-1.095,1.224c-.283.452-1.15,1.642.775,3.25a9.981,9.981,0,0,0,3.582,1.85s2.447,2.789,5.2,3.277c.277.1,4.973.677,6.322-2.142C656.513,2127.128,654.135,2124.986,654.135,2124.986Z" fill="#ff6835"/>
          <path id="パス_1840" data-name="パス 1840" d="M648.147,2117.04c-6.593-1.624-7.966,5.768-8.008,5.962-1.023,4.078,8.262,5.286,8.262,5.286s4.414.888,5.823-1.9C654.495,2125.259,654.7,2118.655,648.147,2117.04Z" fill="#e23d1e"/>
          <path id="パス_1841" data-name="パス 1841" d="M648.146,2117.04c-6.568-1.641-7.951,5.758-8.008,5.962-1.123,4.051,8.263,5.286,8.263,5.286s4.414.888,5.823-1.9C654.495,2125.259,654.694,2118.676,648.146,2117.04Z" fill="#e23d1e"/>
          <path id="パス_1842" data-name="パス 1842" d="M645.436,2117.06a7.8,7.8,0,0,0-1,.069,4.461,4.461,0,0,0-1.436.819c.9.047,2.025.141,2.423.193,7.558.993,5.811,9.647,5.822,10.184.014.663,2.387-.441,2.171-.915C653.676,2126.36,654.747,2117.06,645.436,2117.06Z" fill="#ff6835" opacity="0.66"/>
          <path id="パス_1843" data-name="パス 1843" d="M642.994,2117.939c.051-.019-.048.053-.1.082,10.646-.288,7.908,10.361,7.908,10.361l.441-.057S654.084,2117.48,642.994,2117.939Z" fill="#c0301e"/>
        </g>
      </g>
    </g>
  </g>
</svg>
