<svg xmlns="http://www.w3.org/2000/svg" width="477.617" height="35.986" viewBox="0 0 477.617 35.986">
  <g id="グループ_762" data-name="グループ 762" transform="translate(-188.308 -3656.617)">
    <path id="パス_1658" data-name="パス 1658" d="M198.985,3664.515a19.275,19.275,0,0,0-1.6-5,37.614,37.614,0,0,1,5.2-.119c.52.039.8.2.8.6a8.727,8.727,0,0,0,.08,2.879l.6,3.36,3.281-.56c2.279-.4,4.039-.68,6.118-1.239.2,0,.36.159.44.439a27.419,27.419,0,0,1,.8,3.439c0,.281-.2.4-.6.441-1.84.319-3.64.559-5.64.919l-3.52.64,1,5.12,5.8-1c2.84-.481,4.8-.92,6.279-1.321.52-.119.64.04.68.441a22.317,22.317,0,0,1,.68,3.2.631.631,0,0,1-.6.68c-1.2.16-3.6.56-6.438,1.04l-5.52.96.92,4.439c.56,2.68,1.24,5.239,1.76,7.238.04.2-.16.321-.52.441a27.286,27.286,0,0,1-3.639.84c-.52.04-.76-.161-.8-.481-.28-1.479-.72-4.279-1.28-6.839l-1-4.718-5.44.96c-2.72.479-4.959.959-6.479,1.359a.626.626,0,0,1-.919-.44c-.4-1.16-.8-2.679-1.12-3.96,2.439-.279,4.559-.6,7.438-1.079l5.6-.92-1-5.159-3.76.6c-2.2.36-4.879.92-5.959,1.2-.4.12-.6,0-.76-.4a33.912,33.912,0,0,1-1.12-4c2.16-.16,4.359-.441,7.119-.88l3.64-.56Zm15.838-5.2c.2-.16.36-.12.6.081a18.378,18.378,0,0,1,3.8,4.278.4.4,0,0,1-.12.64l-1.68,1.24a.418.418,0,0,1-.68-.12,19.842,19.842,0,0,0-4.04-4.639Zm3.56-2.6c.239-.16.359-.12.6.08a16.66,16.66,0,0,1,3.8,4.119.463.463,0,0,1-.119.72l-1.6,1.239a.411.411,0,0,1-.68-.119,18.916,18.916,0,0,0-4-4.6Z" fill="#1482ca"/>
    <path id="パス_1659" data-name="パス 1659" d="M236.347,3678.472a32.633,32.633,0,0,0-4.4,1.559,2.189,2.189,0,0,1-.719.2c-.281,0-.48-.16-.68-.559a22.338,22.338,0,0,1-1.4-3.52,47.586,47.586,0,0,0,6.079-1.32l2.4-.64-.88-3.359a15.263,15.263,0,0,0-1.64-4.039c1.64-.2,3.639-.44,4.679-.44.64,0,.92.24.84.8a6.523,6.523,0,0,0,.24,2.88l.76,3,8.679-2.2a4.389,4.389,0,0,0,2-.88.692.692,0,0,1,.48-.24,1.26,1.26,0,0,1,.68.36,21.493,21.493,0,0,1,2.359,2,.9.9,0,0,1,.321.6,1.17,1.17,0,0,1-.441.8,3.106,3.106,0,0,0-.64.84,47.426,47.426,0,0,1-4.518,7.518.758.758,0,0,1-.6.36,1.148,1.148,0,0,1-.6-.2,10.722,10.722,0,0,0-3.2-1.2,28.9,28.9,0,0,0,4.239-6.118l-7.719,2.039,1.84,7.239c.68,2.52,1.239,4.479,1.839,6.719a.778.778,0,0,1-.52,1.08,13.613,13.613,0,0,1-2.639.8c-.52.12-.84.08-1-.6-.48-2.239-1.04-4.438-1.6-6.678l-1.88-7.4Z" fill="#1482ca"/>
    <path id="パス_1660" data-name="パス 1660" d="M272.946,3672.993c-2,0-4,.04-6,.159-.359,0-.519-.239-.6-.759a30.138,30.138,0,0,1-.441-4.039,70.79,70.79,0,0,0,7.36.32h13.717a4.389,4.389,0,0,0,2.12-.441.861.861,0,0,1,.52-.24,1.035,1.035,0,0,1,.6.28,23.513,23.513,0,0,1,2.679,2.48,1.175,1.175,0,0,1,.4.84.962.962,0,0,1-.44.76,4.593,4.593,0,0,0-1.36,1.879c-4,8.519-8.6,13.518-16.316,17.677a1.928,1.928,0,0,1-.8.28,1.3,1.3,0,0,1-.88-.479,11.719,11.719,0,0,0-3.72-2.08c7.4-3.44,13.918-8.958,16.8-16.677Zm2.68-8.6c-1.8,0-3.8.04-5.479.159-.4,0-.52-.24-.56-.88a34.848,34.848,0,0,1-.2-3.839,55.093,55.093,0,0,0,6.559.28h7.2c2.6,0,4.719-.12,6.279-.2.36,0,.479.2.479.64a20.3,20.3,0,0,1,0,3.119c0,.68-.119.841-.719.8-1.32,0-3.2-.08-5.639-.08Z" fill="#1482ca"/>
    <path id="パス_1661" data-name="パス 1661" d="M307.068,3665.514a27.373,27.373,0,0,0-.44-5.839,29.578,29.578,0,0,1,4.959.84c.48.12.681.36.681.639a1.682,1.682,0,0,1-.161.6,9.2,9.2,0,0,0-.44,3.8v8.079c0,2.079.08,3.639.12,5.039,0,.6-.24.8-.88.8h-3.2c-.56,0-.8-.2-.76-.68,0-1.4.12-3.72.12-5.439Zm18.837,7.479c0,5.919-.88,9.878-3.24,13.037a20.634,20.634,0,0,1-8.8,6.28,2.531,2.531,0,0,1-.84.2,1.3,1.3,0,0,1-.96-.481,13,13,0,0,0-3.4-2.439c4.279-1.319,7.639-3.2,9.758-5.839,1.84-2.279,2.679-5.6,2.679-10.679v-7.558a29.431,29.431,0,0,0-.439-6.519,25.031,25.031,0,0,1,5.2.88.672.672,0,0,1,.56.68,1.261,1.261,0,0,1-.16.639c-.36.84-.36,1.88-.36,4.36Z" fill="#1482ca"/>
    <path id="パス_1662" data-name="パス 1662" d="M346.428,3678.191a31.9,31.9,0,0,0-5.879.481c-.48,0-.8-.24-.92-.84a43.662,43.662,0,0,1-.6-4.839,51.368,51.368,0,0,0,8.639.48h12.878c3.039,0,6.119-.08,9.2-.12.6-.04.72.08.72.559a29.477,29.477,0,0,1,0,3.76c0,.48-.16.64-.72.6-3-.04-5.959-.08-8.918-.08Z" fill="#1482ca"/>
    <path id="パス_1663" data-name="パス 1663" d="M397.853,3670.649c-2.52,0-3.36.056-3.528.056-.224,0-.252-.027-.252-.252v-1.54c0-.224.028-.252.252-.252.168,0,1.008.057,3.528.057h7.364a13.886,13.886,0,0,0-.224-3.109c.84.029,1.568.084,2.3.168.252.029.392.168.392.252a1.426,1.426,0,0,1-.168.588,7.15,7.15,0,0,0-.168,2.1H415.3c2.519,0,3.36-.057,3.528-.057.224,0,.252.028.252.252v1.54c0,.225-.028.252-.252.252-.168,0-1.009-.056-3.528-.056h-7.952v2.128H411.8c2.8,0,3.78-.055,3.948-.055.252,0,.279.027.279.279,0,.168-.055.841-.055,2.633v4.283c0,1.792.055,2.492.055,2.632,0,.224-.027.253-.279.253-.168,0-1.148-.057-3.948-.057h-3.052a26.368,26.368,0,0,0,11.283,5.656,5.33,5.33,0,0,0-.924,1.4c-.2.448-.307.589-.5.589a1.378,1.378,0,0,1-.476-.113c-3.78-1.343-7.9-3.387-10.864-6.719,0,3.863.2,6.832.2,7.223,0,.252-.028.252-.252.252h-1.82c-.252,0-.281,0-.281-.252,0-.391.168-3.276.2-7.055a24.136,24.136,0,0,1-10.052,6.523,1.763,1.763,0,0,1-.5.141c-.2,0-.28-.141-.476-.561a4.481,4.481,0,0,0-.924-1.26,23.66,23.66,0,0,0,10.471-5.824H401.3c-2.773,0-3.78.057-3.92.057-.252,0-.28-.029-.28-.253,0-.168.056-.84.056-2.632v-4.283c0-1.792-.056-2.465-.056-2.633,0-.252.028-.279.28-.279.14,0,1.147.055,3.92.055h3.92v-2.128Zm7.364,6.245v-2.409h-5.964v2.409Zm0,4.171v-2.52h-5.964v2.52Zm2.128-6.58v2.409h6.524v-2.409Zm6.524,4.06h-6.524v2.52h6.524Z" fill="#333"/>
    <path id="パス_1664" data-name="パス 1664" d="M429.885,3683.837a5.445,5.445,0,0,0,.784-1.624,17.4,17.4,0,0,1,1.9.98c.2.14.309.252.309.42,0,.2-.112.308-.309.42a2.341,2.341,0,0,0-.756.756,17.59,17.59,0,0,1-4.647,4.368c-.28.168-.42.281-.561.281-.168,0-.279-.141-.5-.449a3.736,3.736,0,0,0-1.12-1.092A17.416,17.416,0,0,0,429.885,3683.837Zm-.561-12.8c-2.632,0-3.5.057-3.668.057-.252,0-.279-.029-.279-.252v-1.624c0-.225.027-.252.279-.252.168,0,1.036.055,3.668.055h6.8v-.644a11.248,11.248,0,0,0-.2-2.716,21.48,21.48,0,0,1,2.408.141c.2.027.364.111.364.252a1.676,1.676,0,0,1-.2.559,6.646,6.646,0,0,0-.113,1.792v.616h7.252c2.6,0,3.472-.055,3.64-.055.225,0,.253.027.253.252v1.624c0,.223-.028.252-.253.252-.168,0-1.035-.057-3.64-.057Zm12.208,2.353c2.744,0,3.7-.057,3.864-.057.224,0,.252.028.252.28,0,.141-.055.672-.055,2.212v2.8c0,1.513.055,2.044.055,2.212,0,.253-.028.28-.252.28-.167,0-1.12-.056-3.864-.056H438.62v3.276c0,1.261.057,2.465.057,3.472a2.5,2.5,0,0,1-.784,2.184c-.617.5-1.344.645-3.865.645-.672,0-.7.027-.868-.7a3.809,3.809,0,0,0-.7-1.568,20.518,20.518,0,0,0,2.435.168c1.121,0,1.457-.363,1.457-1.176v-6.3h-3.165c-2.715,0-3.7.056-3.835.056-.252,0-.281-.027-.281-.28,0-.168.057-.7.057-2.212v-2.8c0-1.54-.057-2.071-.057-2.212,0-.252.029-.28.281-.28.139,0,1.12.057,3.835.057Zm1.876,1.931h-12.1v3.808h12.1Zm-.055,7.168a.689.689,0,0,1,.307-.139c.084,0,.112.055.2.167a17.155,17.155,0,0,0,6.132,5.152,4.3,4.3,0,0,0-1.092,1.316c-.223.392-.307.532-.475.532a1.135,1.135,0,0,1-.5-.251,21.749,21.749,0,0,1-5.853-5.685c-.139-.224-.084-.279.2-.447Z" fill="#333"/>
    <path id="パス_1665" data-name="パス 1665" d="M459.929,3688.289c-2.6,0-3.473.057-3.641.057-.224,0-.252-.029-.252-.252v-1.821c0-.224.028-.252.252-.252.168,0,1.036.056,3.641.056h6.859v-15.036h-5.012c-2.771,0-3.7.057-3.836.057-.252,0-.28-.029-.28-.252v-1.792c0-.225.028-.252.28-.252.14,0,1.065.055,3.836.055h12.909c2.771,0,3.668-.055,3.836-.055.223,0,.251.027.251.252v1.792c0,.223-.028.252-.251.252-.168,0-1.065-.057-3.836-.057H469.2v15.036h7.336c2.576,0,3.472-.056,3.613-.056.223,0,.251.028.251.252v1.821c0,.223-.028.252-.251.252-.141,0-1.037-.057-3.613-.057Z" fill="#333"/>
    <path id="パス_1666" data-name="パス 1666" d="M490.478,3683.361c-2.577,0-3.416.056-3.584.056-.225,0-.252-.027-.252-.252v-1.624c0-.224.027-.252.252-.252.168,0,1.007.057,3.584.057h7.531a16.223,16.223,0,0,0-.2-2.6c.532.056,1.064.113,1.541.2a20.1,20.1,0,0,0,3.164-2.325H495.6c-2.6,0-3.473.056-3.613.056-.252,0-.28-.027-.28-.224v-1.511c0-.225.028-.252.28-.252.14,0,1.008.055,3.613.055h7.727a2.078,2.078,0,0,0,.729-.055.8.8,0,0,1,.307-.084c.2,0,.42.2.98.727.448.477.644.784.644,1.008a.391.391,0,0,1-.307.393,3.44,3.44,0,0,0-1.261.811,32.576,32.576,0,0,1-4.115,2.857,6.372,6.372,0,0,0-.029.839v.113h7.252c2.576,0,3.416-.057,3.584-.057.224,0,.252.028.252.252v1.624c0,.225-.028.252-.252.252-.168,0-1.008-.056-3.584-.056h-7.252v2.464c0,.616.029,1.708.029,2.408,0,1.092-.2,1.6-.813,2.016-.643.42-1.428.532-4.059.532-.645,0-.645,0-.841-.643a6.871,6.871,0,0,0-.7-1.653,24.617,24.617,0,0,0,2.939.168c.813,0,1.176-.2,1.176-1.036v-4.256Zm-.813-7c0,.252-.027.281-.252.281h-1.68c-.252,0-.28-.029-.28-.281,0-.168.056-.559.056-3.051V3672.3c0-.981-.056-1.456-.056-1.624,0-.225.028-.252.28-.252.168,0,1.121.055,3.781.055h11.759a19.81,19.81,0,0,0,1.624-3.164,5.6,5.6,0,0,0,.364-1.372,9.954,9.954,0,0,1,2.129.7c.252.112.363.223.363.364a.446.446,0,0,1-.252.363,2.114,2.114,0,0,0-.532.645c-.476.9-.867,1.595-1.428,2.463h.98c2.66,0,3.64-.055,3.78-.055.252,0,.28.027.28.252,0,.139-.056.643-.056,1.427v1.205c0,2.519.056,2.912.056,3.051,0,.252-.028.281-.28.281h-1.652c-.252,0-.28-.029-.28-.281v-3.948h-18.7Zm2.072-10.219c.336-.168.42-.113.56.084a23.529,23.529,0,0,1,2.016,3.023c.112.252.112.252-.251.42l-1.233.477a.9.9,0,0,1-.336.112c-.084,0-.139-.057-.2-.225a16.017,16.017,0,0,0-1.9-3.052c-.141-.2-.113-.28.223-.391Zm7.308,3.807c-.42.168-.447.14-.56-.139a15.423,15.423,0,0,0-1.568-3.277c-.14-.252-.084-.28.252-.391l1.232-.393c.281-.111.365-.084.5.112a21.152,21.152,0,0,1,1.653,3.277c.084.223,0,.279-.309.391Z" fill="#333"/>
    <path id="パス_1667" data-name="パス 1667" d="M524.217,3666.758a1.438,1.438,0,0,0,.616-.084.645.645,0,0,1,.336-.057c.168,0,.364.084.868.645.476.5.56.727.56.867a.534.534,0,0,1-.224.421,2.062,2.062,0,0,0-.532,1.008,44.188,44.188,0,0,1-2.436,5.8c2.3,2.855,2.688,4.479,2.688,6.383,0,2.128-.952,3.613-3.668,3.808-.7,0-.7,0-.784-.672a2.55,2.55,0,0,0-.5-1.288c2.044.112,2.884-.56,2.884-2.155,0-1.485-.56-3.053-2.8-5.937a40.048,40.048,0,0,0,2.688-6.775h-3.388v16.239c0,3.864.056,5.712.056,5.88,0,.2-.028.225-.252.225h-1.736c-.224,0-.252-.029-.252-.225,0-.168.056-1.932.056-5.852v-12.1c0-3.977-.056-5.769-.056-5.937,0-.224.028-.252.252-.252.2,0,.784.057,2.128.057Zm8.232,13.3c-.14,5.851-2.044,8.987-6.692,10.891a1.514,1.514,0,0,1-.532.168c-.14,0-.224-.112-.476-.448a6.252,6.252,0,0,0-1.232-1.2c4.592-1.316,6.692-3.7,6.776-9.407-2.408,0-3.276.055-3.416.055-.224,0-.252-.028-.252-.252v-1.511c0-.225.028-.252.252-.252.168,0,1.064.055,3.752.055h7.28c2.66,0,3.584-.055,3.724-.055.224,0,.252.027.252.252v1.511c0,.224-.028.252-.252.252-.14,0-1.064-.055-3.724-.055h-1.064v7.279c0,.728.028.925.28,1.12a2.429,2.429,0,0,0,1.372.225c1.092,0,1.456-.141,1.68-.42.336-.421.392-1.036.448-3a4.2,4.2,0,0,0,1.372.588c.616.139.616.2.588.784-.14,2.071-.448,2.855-1.148,3.387a5.415,5.415,0,0,1-3.276.644,5.076,5.076,0,0,1-2.66-.392c-.5-.364-.784-.839-.784-2.24v-7.979Zm-3.64-6.441c0,.252-.028.28-.252.28h-1.6c-.252,0-.28-.028-.28-.28,0-.139.028-.448.028-2.435v-.7c0-.728-.028-1.091-.028-1.259,0-.2.028-.225.28-.225.14,0,1.092.057,3.78.057h2.1v-.42a12.481,12.481,0,0,0-.2-2.8c.84.028,1.6.084,2.324.168.224.028.364.141.364.252a.813.813,0,0,1-.14.505c-.168.279-.168.7-.168,1.847v.449h2.632c2.688,0,3.64-.057,3.78-.057.251,0,.28.028.28.225,0,.168-.056.531-.056,1.091v.869c0,1.987.056,2.3.056,2.435,0,.252-.029.28-.28.28h-1.624c-.224,0-.252-.028-.252-.28v-2.744H528.809Zm7.084-.139c2.128,0,2.828-.057,3-.057.224,0,.252.028.252.252v1.484c0,.224-.028.252-.252.252-.168,0-.868-.055-3-.055h-3.5c-2.072,0-2.772.055-2.912.055-.224,0-.252-.028-.252-.252v-1.484c0-.224.028-.252.252-.252.14,0,.84.057,2.912.057Z" fill="#333"/>
    <path id="パス_1668" data-name="パス 1668" d="M564.425,3682.913a12.265,12.265,0,0,0-.14-1.54c.783.028,1.624.084,2.3.168.252.028.363.141.363.309a1.053,1.053,0,0,1-.139.42,2.137,2.137,0,0,0-.14.643h2.548c2.576,0,3.416-.056,3.584-.056.252,0,.252.029.252.252v1.428c0,.252,0,.28-.252.28-.168,0-1.008-.055-3.584-.055h-2.548v.5c0,1.175.027,2.155.027,3.135a1.919,1.919,0,0,1-.923,1.96c-.5.308-1.316.476-3.612.449-.644,0-.673,0-.812-.533a5.246,5.246,0,0,0-.616-1.6c.952.084,1.9.111,2.463.111.841,0,1.261-.252,1.261-1.008v-3.023H552.077c-2.548,0-3.416.055-3.556.055-.224,0-.252-.028-.252-.28v-1.428c0-.223.028-.252.252-.252.14,0,1.008.056,3.556.056Zm-8.485-1.987c-2.771,0-3.779.055-3.919.055-.252,0-.28-.028-.28-.28,0-.139.056-.811.056-2.519v-3.557c0-1.735-.056-2.38-.056-2.548,0-.252.028-.28.28-.28.14,0,1.148.057,3.919.057h3.389v-1.737h-6.721c-2.6,0-3.5.057-3.668.057-.223,0-.252-.028-.252-.253v-1.4c0-.28.029-.308.252-.308.168,0,1.065.057,3.668.057h6.721a19.934,19.934,0,0,0-.168-2.661c.783.029,1.484.084,2.239.168.225.029.336.113.336.252a1.164,1.164,0,0,1-.139.533,5.055,5.055,0,0,0-.14,1.708h7.279c2.6,0,3.529-.057,3.668-.057.225,0,.253.028.253.308v1.4c0,.225-.028.253-.253.253-.139,0-1.063-.057-3.668-.057h-7.279v1.737h3.863c2.773,0,3.753-.057,3.921-.057.252,0,.28.028.28.28,0,.141-.056.813-.056,2.521v3.584c0,1.708.056,2.38.056,2.519,0,.252-.028.28-.28.28-.168,0-1.148-.055-3.921-.055Zm3.389-5.405v-2.043H553.9v2.043Zm0,3.808v-2.24H553.9v2.24Zm-3.948,6.048a.936.936,0,0,1,.336-.14.387.387,0,0,1,.252.14,18.694,18.694,0,0,1,2.632,3c.168.225.112.309-.2.5l-1.26.672a.779.779,0,0,1-.364.168c-.084,0-.14-.056-.2-.168a14.1,14.1,0,0,0-2.548-3.136c-.084-.084-.112-.14-.112-.2,0-.084.084-.14.28-.252Zm6.076-11.9v2.043h5.88v-2.043Zm5.88,3.611h-5.88v2.24h5.88Z" fill="#333"/>
    <path id="パス_1669" data-name="パス 1669" d="M587.1,3666.842c1.821,0,2.548-.057,2.716-.057.225,0,.252.028.252.28,0,.14-.055.953-.055,2.772v3.78c0,1.792.055,2.6.055,2.744,0,.252-.027.281-.252.281-.168,0-.9-.057-2.716-.057h-4.536v8.232c0,3.836.057,5.516.057,5.712,0,.224-.028.252-.252.252h-1.82c-.224,0-.252-.028-.252-.252,0-.2.055-1.876.055-5.712v-12.011c0-3.809-.055-5.573-.055-5.741,0-.252.028-.28.252-.28.2,0,1.12.057,3.135.057Zm-4.536,1.763v2.268h5.349V3668.6Zm5.349,3.865h-5.349v2.435h5.349Zm14.56,10.163c0,1.736.084,3.612.084,4.816,0,1.288-.14,1.848-.756,2.324-.588.476-1.233.644-3.893.644-.7,0-.7,0-.84-.7a6.767,6.767,0,0,0-.615-1.623,20.26,20.26,0,0,0,2.464.139c1.092,0,1.344-.252,1.344-1.259v-10.389h-4.62c-2.128,0-2.829.057-2.968.057-.252,0-.281-.029-.281-.281,0-.139.056-.812.056-2.576v-4.143c0-1.765-.056-2.409-.056-2.577,0-.252.029-.28.281-.28.139,0,.84.057,2.968.057h3.612c2.155,0,2.855-.057,3.023-.057.225,0,.252.028.252.28,0,.14-.055,1.26-.055,3.752Zm-7.924-14.028v2.268h5.712V3668.6Zm5.712,6.3v-2.435h-5.712v2.435Z" fill="#333"/>
    <path id="パス_1670" data-name="パス 1670" d="M613.677,3683.361c-2.576,0-3.416.056-3.584.056-.225,0-.252-.027-.252-.252v-1.624c0-.224.027-.252.252-.252.168,0,1.008.057,3.584.057h7.531a16.238,16.238,0,0,0-.2-2.6c.531.056,1.063.113,1.54.2a20.051,20.051,0,0,0,3.164-2.325H618.8c-2.605,0-3.473.056-3.613.056-.251,0-.28-.027-.28-.224v-1.511c0-.225.029-.252.28-.252.14,0,1.008.055,3.613.055h7.727a2.074,2.074,0,0,0,.729-.055.8.8,0,0,1,.307-.084c.2,0,.42.2.98.727.448.477.644.784.644,1.008a.391.391,0,0,1-.307.393,3.457,3.457,0,0,0-1.261.811,32.576,32.576,0,0,1-4.115,2.857,6.592,6.592,0,0,0-.028.839v.113h7.252c2.576,0,3.416-.057,3.584-.057.223,0,.251.028.251.252v1.624c0,.225-.028.252-.251.252-.168,0-1.008-.056-3.584-.056h-7.252v2.464c0,.616.028,1.708.028,2.408,0,1.092-.2,1.6-.813,2.016-.643.42-1.427.532-4.059.532-.645,0-.645,0-.841-.643a6.869,6.869,0,0,0-.7-1.653,24.617,24.617,0,0,0,2.939.168c.813,0,1.176-.2,1.176-1.036v-4.256Zm-.813-7c0,.252-.027.281-.252.281h-1.679c-.252,0-.281-.029-.281-.281,0-.168.056-.559.056-3.051V3672.3c0-.981-.056-1.456-.056-1.624,0-.225.029-.252.281-.252.168,0,1.12.055,3.78.055h11.76a19.89,19.89,0,0,0,1.624-3.164,5.646,5.646,0,0,0,.363-1.372,9.954,9.954,0,0,1,2.129.7c.252.112.363.223.363.364a.446.446,0,0,1-.252.363,2.128,2.128,0,0,0-.532.645c-.476.9-.867,1.595-1.428,2.463h.981c2.659,0,3.639-.055,3.779-.055.252,0,.28.027.28.252,0,.139-.055.643-.055,1.427v1.205c0,2.519.055,2.912.055,3.051,0,.252-.028.281-.28.281h-1.651c-.252,0-.281-.029-.281-.281v-3.948h-18.7Zm2.073-10.219c.335-.168.419-.113.559.084a23.645,23.645,0,0,1,2.017,3.023c.111.252.111.252-.252.42l-1.233.477a.9.9,0,0,1-.336.112c-.084,0-.139-.057-.2-.225a16.013,16.013,0,0,0-1.9-3.052c-.141-.2-.113-.28.223-.391Zm7.307,3.807c-.42.168-.447.14-.559-.139a15.477,15.477,0,0,0-1.569-3.277c-.139-.252-.084-.28.252-.391l1.233-.393c.28-.111.364-.084.5.112a21.152,21.152,0,0,1,1.653,3.277c.084.223,0,.279-.309.391Z" fill="#333"/>
    <path id="パス_1671" data-name="パス 1671" d="M644.617,3671.686v-2.464a17.131,17.131,0,0,0-.223-3.529c.867.029,1.54.084,2.211.168.224.029.392.14.392.252a1.309,1.309,0,0,1-.168.561,7.524,7.524,0,0,0-.168,2.491v2.521h.112c1.96,0,2.52-.057,2.688-.057.225,0,.252.028.252.28v1.456c0,.252-.027.281-.252.281-.168,0-.728-.057-2.632-.057h-.084a15.926,15.926,0,0,0,3.052,5.713,7.382,7.382,0,0,0-.812,1.4c-.112.28-.2.393-.28.393s-.2-.113-.308-.365a24.746,24.746,0,0,1-1.848-4.536c.028,7.924.224,14.168.224,14.588,0,.252-.028.281-.28.281h-1.708c-.252,0-.28-.029-.28-.281,0-.42.2-6.524.252-14a31.287,31.287,0,0,1-3.22,7.84c-.14.252-.252.393-.364.393s-.195-.113-.279-.365a5.4,5.4,0,0,0-.813-1.511,30.355,30.355,0,0,0,4.368-9.549h-.7c-1.932,0-2.52.057-2.687.057-.225,0-.252-.029-.252-.281v-1.456c0-.252.027-.28.252-.28.167,0,.755.057,2.687.057Zm9.773,6.439c.279-.14.363-.084.447.168a18.4,18.4,0,0,0,2.352,4.564,16.477,16.477,0,0,0,1.373-2.6,11.182,11.182,0,0,0,.7-2.436,14.177,14.177,0,0,1,1.9.84c.225.113.364.252.364.364,0,.2-.168.336-.336.533a4.717,4.717,0,0,0-.588,1.2,17.682,17.682,0,0,1-2.043,3.724,18.81,18.81,0,0,0,7.363,4.2,5.8,5.8,0,0,0-1.064,1.427c-.2.365-.28.533-.476.533a1.471,1.471,0,0,1-.5-.168,21.009,21.009,0,0,1-6.664-4.369,20.286,20.286,0,0,1-7.14,4.592,1.361,1.361,0,0,1-.532.168c-.168,0-.252-.139-.42-.42a4.225,4.225,0,0,0-1.092-1.372,18.119,18.119,0,0,0,7.812-4.563,23.475,23.475,0,0,1-2.856-5.349c-.112-.223-.055-.252.308-.448Zm.811-4.676c.224.14.336.252.336.393a.531.531,0,0,1-.252.42,3.333,3.333,0,0,0-.588.783,17.284,17.284,0,0,1-3.3,4.06c-.225.224-.365.308-.477.308-.14,0-.252-.111-.448-.392a4.031,4.031,0,0,0-1.064-1.007,13.521,13.521,0,0,0,3.5-3.977,4.7,4.7,0,0,0,.56-1.315A18.2,18.2,0,0,1,655.2,3673.449Zm-1.176-1.736c-2.66,0-3.584.057-3.724.057-.224,0-.252-.029-.252-.252v-1.569c0-.223.028-.252.252-.252.14,0,1.064.056,3.724.056h2.016V3668.6a14.8,14.8,0,0,0-.2-2.967c.812.027,1.68.084,2.352.168.252.027.42.168.42.252a1.3,1.3,0,0,1-.168.559,5.3,5.3,0,0,0-.2,1.988v1.148h2.884c2.66,0,3.556-.056,3.7-.056.28,0,.309.029.309.252v1.569c0,.223-.029.252-.309.252-.14,0-1.036-.057-3.7-.057Zm6.245,1.2a.857.857,0,0,1,.307-.14c.084,0,.14.056.224.168a15.445,15.445,0,0,0,4.62,4.62,5.971,5.971,0,0,0-1.008,1.232c-.2.336-.28.5-.42.5-.112,0-.252-.084-.475-.281a19.145,19.145,0,0,1-4.453-5.04c-.14-.223-.112-.28.224-.476Z" fill="#333"/>
  </g>
</svg>
