<svg xmlns="http://www.w3.org/2000/svg" width="194.704" height="66.853" viewBox="0 0 194.704 66.853">
  <g id="グループ_2584" data-name="グループ 2584" transform="translate(-1570.708 -4873.617)">
    <path id="パス_3374" data-name="パス 3374" d="M1581.485,4881.515a19.272,19.272,0,0,0-1.6-5,37.575,37.575,0,0,1,5.2-.119c.52.039.8.2.8.6a8.727,8.727,0,0,0,.08,2.879l.6,3.36,3.281-.56c2.279-.4,4.039-.68,6.118-1.239.2,0,.36.159.44.439a27.407,27.407,0,0,1,.8,3.439c0,.281-.2.4-.6.441-1.84.319-3.64.559-5.64.919l-3.52.64,1,5.12,5.8-1c2.84-.481,4.8-.92,6.279-1.321.52-.119.64.04.68.441a22.308,22.308,0,0,1,.68,3.2.631.631,0,0,1-.6.68c-1.2.16-3.6.56-6.438,1.04l-5.52.96.92,4.439c.56,2.68,1.24,5.239,1.76,7.238.04.2-.16.321-.52.441a27.282,27.282,0,0,1-3.639.84c-.52.04-.76-.161-.8-.481-.28-1.479-.72-4.279-1.28-6.839l-1-4.718-5.44.96c-2.72.479-4.959.959-6.479,1.359a.626.626,0,0,1-.919-.44c-.4-1.16-.8-2.679-1.12-3.96,2.439-.279,4.559-.6,7.438-1.079l5.6-.92-1-5.159-3.76.6c-2.2.36-4.879.92-5.959,1.2-.4.12-.6,0-.76-.4a33.989,33.989,0,0,1-1.12-4c2.16-.16,4.359-.441,7.119-.88l3.64-.56Zm15.838-5.2c.2-.16.36-.12.6.081a18.381,18.381,0,0,1,3.8,4.278.4.4,0,0,1-.12.64l-1.68,1.24a.418.418,0,0,1-.68-.12,19.855,19.855,0,0,0-4.04-4.639Zm3.56-2.6c.239-.16.359-.12.6.08a16.665,16.665,0,0,1,3.8,4.119.463.463,0,0,1-.119.72l-1.6,1.239a.411.411,0,0,1-.68-.119,18.931,18.931,0,0,0-4-4.6Z" fill="#1482ca"/>
    <path id="パス_3375" data-name="パス 3375" d="M1618.847,4895.472a32.661,32.661,0,0,0-4.4,1.559,2.184,2.184,0,0,1-.719.2c-.281,0-.48-.16-.68-.559a22.314,22.314,0,0,1-1.4-3.52,47.54,47.54,0,0,0,6.079-1.32l2.4-.64-.88-3.359a15.258,15.258,0,0,0-1.64-4.039c1.64-.2,3.639-.44,4.679-.44.64,0,.92.24.84.8a6.525,6.525,0,0,0,.24,2.88l.76,3,8.679-2.2a4.393,4.393,0,0,0,2-.88.691.691,0,0,1,.48-.24,1.259,1.259,0,0,1,.68.36,21.465,21.465,0,0,1,2.359,2,.9.9,0,0,1,.321.6,1.17,1.17,0,0,1-.441.8,3.105,3.105,0,0,0-.64.84,47.408,47.408,0,0,1-4.518,7.518.758.758,0,0,1-.6.36,1.149,1.149,0,0,1-.6-.2,10.706,10.706,0,0,0-3.2-1.2,28.885,28.885,0,0,0,4.239-6.118l-7.719,2.039,1.84,7.239c.68,2.52,1.239,4.479,1.839,6.719a.778.778,0,0,1-.52,1.08,13.594,13.594,0,0,1-2.639.8c-.52.12-.84.08-1-.6-.48-2.239-1.04-4.438-1.6-6.678l-1.88-7.4Z" fill="#1482ca"/>
    <path id="パス_3376" data-name="パス 3376" d="M1655.446,4889.993c-2,0-4,.04-6,.159-.359,0-.519-.239-.6-.759a30.141,30.141,0,0,1-.441-4.039,70.738,70.738,0,0,0,7.36.32h13.717a4.386,4.386,0,0,0,2.12-.441.861.861,0,0,1,.52-.24,1.034,1.034,0,0,1,.6.28,23.552,23.552,0,0,1,2.679,2.48,1.175,1.175,0,0,1,.4.84.962.962,0,0,1-.44.76,4.592,4.592,0,0,0-1.36,1.879c-4,8.519-8.6,13.518-16.316,17.677a1.935,1.935,0,0,1-.8.28,1.3,1.3,0,0,1-.88-.479,11.719,11.719,0,0,0-3.72-2.08c7.4-3.44,13.918-8.958,16.8-16.677Zm2.68-8.6c-1.8,0-3.8.04-5.479.159-.4,0-.52-.24-.56-.88a34.835,34.835,0,0,1-.2-3.839,55.04,55.04,0,0,0,6.559.28h7.2c2.6,0,4.719-.12,6.279-.2.36,0,.479.2.479.64a20.273,20.273,0,0,1,0,3.119c0,.68-.119.841-.719.8-1.32,0-3.2-.08-5.639-.08Z" fill="#1482ca"/>
    <path id="パス_3377" data-name="パス 3377" d="M1689.568,4882.514a27.383,27.383,0,0,0-.44-5.839,29.6,29.6,0,0,1,4.959.84c.48.12.681.36.681.639a1.662,1.662,0,0,1-.161.6,9.2,9.2,0,0,0-.44,3.8v8.079c0,2.079.08,3.639.12,5.039,0,.6-.24.8-.88.8h-3.2c-.56,0-.8-.2-.76-.68,0-1.4.12-3.72.12-5.439Zm18.837,7.479c0,5.919-.88,9.878-3.24,13.037a20.634,20.634,0,0,1-8.8,6.28,2.524,2.524,0,0,1-.84.2,1.3,1.3,0,0,1-.96-.481,13.007,13.007,0,0,0-3.4-2.439c4.279-1.319,7.639-3.2,9.758-5.839,1.84-2.279,2.679-5.6,2.679-10.679v-7.558a29.435,29.435,0,0,0-.439-6.519,25.015,25.015,0,0,1,5.2.88.672.672,0,0,1,.56.68,1.26,1.26,0,0,1-.16.639c-.36.84-.36,1.88-.36,4.36Z" fill="#1482ca"/>
    <path id="パス_3378" data-name="パス 3378" d="M1728.928,4895.191a31.92,31.92,0,0,0-5.879.481c-.48,0-.8-.24-.92-.84a43.642,43.642,0,0,1-.6-4.839,51.393,51.393,0,0,0,8.639.48h12.878c3.039,0,6.119-.08,9.2-.12.6-.04.72.08.72.559a29.5,29.5,0,0,1,0,3.76c0,.48-.16.64-.72.6-3-.04-5.959-.08-8.918-.08Z" fill="#1482ca"/>
    <path id="パス_3379" data-name="パス 3379" d="M1573.929,4925.847c-1.8,0-2.4.04-2.521.04-.16,0-.179-.021-.179-.181v-1.1c0-.16.019-.18.179-.18.12,0,.72.04,2.521.04h5.26a9.877,9.877,0,0,0-.159-2.22c.6.02,1.12.06,1.64.119.181.021.28.12.28.181a1,1,0,0,1-.12.42,5.135,5.135,0,0,0-.12,1.5h5.682c1.8,0,2.4-.04,2.52-.04.16,0,.18.02.18.18v1.1c0,.16-.02.181-.18.181-.12,0-.721-.04-2.52-.04h-5.682v1.52h3.181c2,0,2.7-.04,2.821-.04.18,0,.2.02.2.2,0,.12-.04.6-.04,1.881v3.061c0,1.28.04,1.78.04,1.881,0,.159-.019.179-.2.179-.12,0-.82-.04-2.821-.04h-2.181a18.824,18.824,0,0,0,8.062,4.041,3.8,3.8,0,0,0-.66,1c-.14.321-.22.42-.36.42a.96.96,0,0,1-.34-.08,18.617,18.617,0,0,1-7.762-4.8c0,2.761.14,4.881.14,5.161,0,.18-.019.18-.18.18h-1.3c-.18,0-.2,0-.2-.18,0-.28.119-2.34.14-5.041a17.236,17.236,0,0,1-7.182,4.662,1.263,1.263,0,0,1-.36.1c-.14,0-.2-.1-.34-.4a3.179,3.179,0,0,0-.66-.9,16.9,16.9,0,0,0,7.481-4.161h-1.8c-1.981,0-2.7.04-2.8.04-.181,0-.2-.02-.2-.179,0-.12.04-.6.04-1.881v-3.061c0-1.28-.04-1.761-.04-1.881,0-.179.019-.2.2-.2.1,0,.82.04,2.8.04h2.8v-1.52Zm5.26,4.461v-1.721h-4.26v1.721Zm0,2.98v-1.8h-4.26v1.8Zm1.521-4.7v1.721h4.661v-1.721Zm4.661,2.9h-4.661v1.8h4.661Z" fill="#333"/>
    <path id="パス_3380" data-name="パス 3380" d="M1596.809,4935.269a3.881,3.881,0,0,0,.56-1.161,12.262,12.262,0,0,1,1.36.7c.14.1.22.179.22.3,0,.14-.08.22-.22.3a1.67,1.67,0,0,0-.54.54,12.548,12.548,0,0,1-3.321,3.121c-.2.12-.3.2-.4.2-.12,0-.2-.1-.361-.321a2.68,2.68,0,0,0-.8-.78A12.455,12.455,0,0,0,1596.809,4935.269Zm-.4-9.142c-1.881,0-2.5.039-2.621.039-.18,0-.2-.02-.2-.18v-1.16c0-.16.02-.18.2-.18.12,0,.74.041,2.621.041h4.861v-.46a8.039,8.039,0,0,0-.14-1.941,15.115,15.115,0,0,1,1.721.1c.139.019.259.08.259.179a1.211,1.211,0,0,1-.139.4,4.721,4.721,0,0,0-.08,1.28v.441h5.18c1.861,0,2.481-.041,2.6-.041.16,0,.18.02.18.18v1.16c0,.16-.02.18-.18.18-.12,0-.74-.039-2.6-.039Zm8.722,1.68c1.96,0,2.64-.04,2.761-.04.16,0,.179.02.179.2,0,.1-.04.48-.04,1.58v2c0,1.08.04,1.46.04,1.58,0,.18-.019.2-.179.2-.121,0-.8-.04-2.761-.04h-2.081v2.341c0,.9.04,1.76.04,2.48a1.783,1.783,0,0,1-.56,1.56c-.44.36-.96.461-2.76.461-.481,0-.5.019-.621-.5a2.713,2.713,0,0,0-.5-1.12,14.676,14.676,0,0,0,1.741.12c.8,0,1.04-.26,1.04-.84v-4.5h-2.26c-1.941,0-2.641.04-2.741.04-.18,0-.2-.02-.2-.2,0-.12.04-.5.04-1.58v-2c0-1.1-.04-1.481-.04-1.58,0-.18.02-.2.2-.2.1,0,.8.04,2.741.04Zm1.34,1.381h-8.642v2.72h8.642Zm-.04,5.121a.493.493,0,0,1,.22-.1c.06,0,.08.04.14.12a12.252,12.252,0,0,0,4.381,3.681,3.075,3.075,0,0,0-.78.94c-.161.28-.22.38-.34.38a.809.809,0,0,1-.361-.18,15.553,15.553,0,0,1-4.18-4.06c-.1-.16-.06-.2.139-.32Z" fill="#333"/>
    <path id="パス_3381" data-name="パス 3381" d="M1618.269,4938.449c-1.861,0-2.481.04-2.6.04-.16,0-.18-.02-.18-.18v-1.3c0-.16.02-.18.18-.18.12,0,.74.04,2.6.04h4.9v-10.742h-3.581c-1.981,0-2.641.039-2.74.039-.18,0-.2-.02-.2-.18v-1.28c0-.16.021-.18.2-.18.1,0,.759.04,2.74.04h9.223c1.98,0,2.62-.04,2.74-.04.16,0,.179.02.179.18v1.28c0,.16-.019.18-.179.18-.12,0-.76-.039-2.74-.039h-3.921v10.742h5.241c1.84,0,2.48-.04,2.58-.04.16,0,.18.02.18.18v1.3c0,.16-.02.18-.18.18-.1,0-.74-.04-2.58-.04Z" fill="#333"/>
    <path id="パス_3382" data-name="パス 3382" d="M1640.089,4934.929c-1.841,0-2.441.04-2.561.04-.16,0-.179-.021-.179-.181v-1.16c0-.16.019-.18.179-.18.12,0,.72.04,2.561.04h5.381a11.56,11.56,0,0,0-.14-1.86c.38.04.76.08,1.1.14a14.2,14.2,0,0,0,2.26-1.661h-4.94c-1.86,0-2.48.04-2.581.04-.18,0-.2-.02-.2-.16v-1.08c0-.16.02-.18.2-.18.1,0,.721.04,2.581.04h5.521a1.458,1.458,0,0,0,.52-.04.579.579,0,0,1,.22-.06c.14,0,.3.14.7.521.32.339.46.559.46.719a.28.28,0,0,1-.22.281,2.432,2.432,0,0,0-.9.58,23.2,23.2,0,0,1-2.941,2.04,4.726,4.726,0,0,0-.02.6v.08h5.181c1.84,0,2.441-.04,2.561-.04.16,0,.18.02.18.18v1.16c0,.16-.02.181-.18.181-.12,0-.721-.04-2.561-.04h-5.181v1.759c0,.441.02,1.221.02,1.721,0,.78-.139,1.141-.58,1.441-.46.3-1.02.379-2.9.379-.46,0-.46,0-.6-.459a4.891,4.891,0,0,0-.5-1.181,17.726,17.726,0,0,0,2.1.12c.58,0,.84-.14.84-.74v-3.04Zm-.58-5c0,.179-.021.2-.18.2h-1.2c-.18,0-.2-.02-.2-.2,0-.12.04-.4.04-2.181v-.721c0-.7-.04-1.04-.04-1.16,0-.16.019-.179.2-.179.12,0,.8.04,2.7.04h8.4a14.149,14.149,0,0,0,1.161-2.261,4,4,0,0,0,.26-.981,7.211,7.211,0,0,1,1.52.5c.181.08.261.161.261.261s-.061.18-.181.26a1.54,1.54,0,0,0-.38.46c-.34.64-.62,1.14-1.019,1.761h.7c1.9,0,2.6-.04,2.7-.04.18,0,.2.019.2.179,0,.1-.04.46-.04,1.021v.86c0,1.8.04,2.08.04,2.181,0,.179-.02.2-.2.2h-1.181c-.179,0-.2-.02-.2-.2v-2.822h-13.362Zm1.48-7.3c.24-.12.3-.08.4.06a16.838,16.838,0,0,1,1.44,2.161c.08.179.08.179-.18.3l-.879.34a.636.636,0,0,1-.241.08c-.06,0-.1-.04-.14-.16a11.437,11.437,0,0,0-1.361-2.18c-.1-.14-.079-.2.16-.281Zm5.221,2.721c-.3.12-.32.1-.4-.1a10.99,10.99,0,0,0-1.121-2.34c-.1-.18-.059-.2.181-.28l.88-.28c.2-.08.26-.06.36.08a15.038,15.038,0,0,1,1.18,2.341c.061.159,0,.2-.22.279Z" fill="#333"/>
    <path id="パス_3383" data-name="パス 3383" d="M1664.189,4923.065a1.012,1.012,0,0,0,.44-.059.47.47,0,0,1,.24-.04c.12,0,.261.059.62.46.341.36.4.52.4.62a.379.379,0,0,1-.161.3,1.483,1.483,0,0,0-.379.72,31.616,31.616,0,0,1-1.741,4.141c1.64,2.041,1.92,3.2,1.92,4.562a2.453,2.453,0,0,1-2.62,2.719c-.5,0-.5,0-.56-.479a1.828,1.828,0,0,0-.36-.92c1.46.079,2.06-.4,2.06-1.541,0-1.06-.4-2.181-2-4.24a28.65,28.65,0,0,0,1.92-4.842h-2.42v11.6c0,2.761.04,4.081.04,4.2,0,.139-.021.16-.181.16h-1.24c-.159,0-.18-.021-.18-.16,0-.121.04-1.38.04-4.181v-8.643c0-2.84-.04-4.12-.04-4.24,0-.16.021-.181.18-.181.141,0,.561.04,1.52.04Zm5.881,9.5c-.1,4.182-1.46,6.422-4.781,7.783a1.1,1.1,0,0,1-.38.12c-.1,0-.16-.08-.34-.321a4.491,4.491,0,0,0-.88-.86c3.281-.94,4.781-2.641,4.841-6.722-1.72,0-2.341.04-2.44.04-.16,0-.181-.019-.181-.179v-1.08c0-.16.021-.18.181-.18.12,0,.76.04,2.681.04h5.2c1.9,0,2.56-.04,2.66-.04.16,0,.18.02.18.18v1.08c0,.16-.02.179-.18.179-.1,0-.76-.04-2.66-.04h-.761v5.2c0,.52.02.66.2.8a1.736,1.736,0,0,0,.981.16c.78,0,1.04-.1,1.2-.3.24-.3.28-.741.32-2.14a2.972,2.972,0,0,0,.98.42c.44.1.44.14.421.56-.1,1.48-.321,2.041-.821,2.42a3.877,3.877,0,0,1-2.341.46,3.637,3.637,0,0,1-1.9-.28c-.36-.26-.561-.6-.561-1.6v-5.7Zm-2.6-4.6c0,.179-.02.2-.18.2h-1.141c-.179,0-.2-.021-.2-.2,0-.1.021-.321.021-1.74v-.5c0-.521-.021-.781-.021-.9,0-.139.021-.16.2-.16.1,0,.781.04,2.7.04h1.5v-.3a8.927,8.927,0,0,0-.14-2c.6.021,1.14.061,1.66.12.16.021.26.1.26.181a.575.575,0,0,1-.1.359c-.12.2-.12.5-.12,1.321v.32h1.88c1.921,0,2.6-.04,2.7-.04.18,0,.2.021.2.16,0,.12-.04.38-.04.78v.621c0,1.419.04,1.64.04,1.74,0,.179-.02.2-.2.2h-1.16c-.16,0-.181-.021-.181-.2v-1.96h-7.681Zm5.061-.1c1.521,0,2.021-.04,2.141-.04.159,0,.18.02.18.18v1.06c0,.161-.021.18-.18.18-.12,0-.62-.04-2.141-.04h-2.5c-1.48,0-1.98.04-2.08.04-.16,0-.179-.019-.179-.18v-1.06c0-.16.019-.18.179-.18.1,0,.6.04,2.08.04Z" fill="#333"/>
    <path id="パス_3384" data-name="パス 3384" d="M1692.911,4934.608a8.648,8.648,0,0,0-.1-1.1c.56.02,1.16.06,1.64.12.18.02.26.1.26.22a.747.747,0,0,1-.1.3,1.57,1.57,0,0,0-.1.46h1.82c1.841,0,2.44-.04,2.561-.04.18,0,.18.02.18.18v1.021c0,.179,0,.2-.18.2-.121,0-.72-.04-2.561-.04h-1.82v.36c0,.84.02,1.54.02,2.24a1.374,1.374,0,0,1-.66,1.4,5.07,5.07,0,0,1-2.581.319c-.46,0-.479,0-.58-.38a3.783,3.783,0,0,0-.439-1.14c.679.06,1.36.081,1.759.081.6,0,.9-.181.9-.721v-2.16h-8.842c-1.82,0-2.441.04-2.541.04-.159,0-.18-.021-.18-.2v-1.021c0-.16.021-.18.18-.18.1,0,.721.04,2.541.04Zm-6.061-1.42c-1.981,0-2.7.04-2.8.04-.18,0-.2-.02-.2-.2,0-.1.04-.58.04-1.8v-2.54c0-1.242-.04-1.7-.04-1.822,0-.179.02-.2.2-.2.1,0,.82.04,2.8.04h2.42v-1.24h-4.8c-1.861,0-2.5.039-2.62.039-.161,0-.181-.02-.181-.18v-1c0-.2.02-.22.181-.22.12,0,.759.04,2.62.04h4.8a14.092,14.092,0,0,0-.121-1.9c.561.02,1.061.06,1.6.119.16.021.24.08.24.181a.837.837,0,0,1-.1.38,3.621,3.621,0,0,0-.1,1.22h5.2c1.861,0,2.521-.04,2.621-.04.159,0,.18.02.18.22v1c0,.16-.021.18-.18.18-.1,0-.76-.039-2.621-.039h-5.2v1.24h2.761c1.98,0,2.68-.04,2.8-.04.179,0,.2.02.2.2,0,.1-.04.58-.04,1.8v2.561c0,1.22.04,1.7.04,1.8,0,.18-.021.2-.2.2-.121,0-.821-.04-2.8-.04Zm2.42-3.861v-1.46h-3.881v1.46Zm0,2.721v-1.6h-3.881v1.6Zm-2.821,4.321a.668.668,0,0,1,.24-.1.274.274,0,0,1,.18.1,13.358,13.358,0,0,1,1.881,2.14c.12.16.08.22-.141.36l-.9.481a.553.553,0,0,1-.261.12c-.059,0-.1-.04-.139-.12a10.067,10.067,0,0,0-1.821-2.242c-.06-.059-.08-.1-.08-.139,0-.06.06-.1.2-.18Zm4.341-8.5v1.46h4.2v-1.46Zm4.2,2.58h-4.2v1.6h4.2Z" fill="#333"/>
    <path id="パス_3385" data-name="パス 3385" d="M1709.109,4923.126c1.3,0,1.821-.04,1.941-.04.16,0,.179.019.179.2,0,.1-.04.68-.04,1.981v2.7c0,1.28.04,1.86.04,1.961,0,.179-.019.2-.179.2-.12,0-.64-.04-1.941-.04h-3.24v5.882c0,2.74.04,3.94.04,4.081,0,.16-.02.179-.18.179h-1.3c-.16,0-.181-.019-.181-.179,0-.141.04-1.341.04-4.081v-8.582c0-2.721-.04-3.981-.04-4.1,0-.181.021-.2.181-.2.139,0,.8.04,2.24.04Zm-3.24,1.26v1.621h3.82v-1.621Zm3.82,2.76h-3.82v1.741h3.82Zm10.4,7.262c0,1.24.059,2.581.059,3.441,0,.921-.1,1.32-.54,1.661-.42.34-.88.46-2.78.46-.5,0-.5,0-.6-.5a4.837,4.837,0,0,0-.44-1.161,14.347,14.347,0,0,0,1.76.1c.78,0,.961-.18.961-.9v-7.422h-3.3c-1.521,0-2.021.04-2.121.04-.18,0-.2-.02-.2-.2,0-.1.04-.58.04-1.841v-2.961c0-1.26-.04-1.72-.04-1.84,0-.181.019-.2.2-.2.1,0,.6.04,2.121.04h2.58c1.541,0,2.041-.04,2.161-.04.159,0,.18.019.18.2,0,.1-.04.9-.04,2.681Zm-5.661-10.022v1.621h4.081v-1.621Zm4.081,4.5v-1.741h-4.081v1.741Z" fill="#333"/>
    <path id="パス_3386" data-name="パス 3386" d="M1728.089,4934.929c-1.841,0-2.441.04-2.561.04-.16,0-.179-.021-.179-.181v-1.16c0-.16.019-.18.179-.18.12,0,.72.04,2.561.04h5.381a11.56,11.56,0,0,0-.14-1.86c.38.04.76.08,1.1.14a14.2,14.2,0,0,0,2.26-1.661h-4.94c-1.86,0-2.48.04-2.581.04-.18,0-.2-.02-.2-.16v-1.08c0-.16.02-.18.2-.18.1,0,.721.04,2.581.04h5.521a1.458,1.458,0,0,0,.52-.04.579.579,0,0,1,.22-.06c.14,0,.3.14.7.521.32.339.46.559.46.719a.28.28,0,0,1-.22.281,2.432,2.432,0,0,0-.9.58,23.2,23.2,0,0,1-2.941,2.04,4.726,4.726,0,0,0-.02.6v.08h5.181c1.84,0,2.441-.04,2.561-.04.16,0,.18.02.18.18v1.16c0,.16-.02.181-.18.181-.12,0-.721-.04-2.561-.04h-5.181v1.759c0,.441.02,1.221.02,1.721,0,.78-.139,1.141-.58,1.441-.46.3-1.02.379-2.9.379-.46,0-.46,0-.6-.459a4.891,4.891,0,0,0-.5-1.181,17.726,17.726,0,0,0,2.1.12c.58,0,.84-.14.84-.74v-3.04Zm-.58-5c0,.179-.021.2-.18.2h-1.2c-.18,0-.2-.02-.2-.2,0-.12.04-.4.04-2.181v-.721c0-.7-.04-1.04-.04-1.16,0-.16.019-.179.2-.179.12,0,.8.04,2.7.04h8.4a14.149,14.149,0,0,0,1.161-2.261,4,4,0,0,0,.26-.981,7.211,7.211,0,0,1,1.52.5c.181.08.261.161.261.261s-.061.18-.181.26a1.54,1.54,0,0,0-.38.46c-.34.64-.62,1.14-1.019,1.761h.7c1.9,0,2.6-.04,2.7-.04.18,0,.2.019.2.179,0,.1-.04.46-.04,1.021v.86c0,1.8.04,2.08.04,2.181,0,.179-.02.2-.2.2h-1.181c-.179,0-.2-.02-.2-.2v-2.822h-13.362Zm1.48-7.3c.24-.12.3-.08.4.06a16.838,16.838,0,0,1,1.44,2.161c.08.179.08.179-.18.3l-.879.34a.636.636,0,0,1-.241.08c-.06,0-.1-.04-.14-.16a11.437,11.437,0,0,0-1.361-2.18c-.1-.14-.079-.2.16-.281Zm5.221,2.721c-.3.12-.32.1-.4-.1a10.99,10.99,0,0,0-1.121-2.34c-.1-.18-.059-.2.181-.28l.88-.28c.2-.08.26-.06.36.08a15.038,15.038,0,0,1,1.18,2.341c.061.159,0,.2-.22.279Z" fill="#333"/>
    <path id="パス_3387" data-name="パス 3387" d="M1750.188,4926.587v-1.761a12.1,12.1,0,0,0-.16-2.52c.621.019,1.1.059,1.581.12.161.019.281.1.281.179a.943.943,0,0,1-.12.4,5.332,5.332,0,0,0-.121,1.78v1.8h.08c1.4,0,1.8-.04,1.92-.04.161,0,.181.019.181.2v1.04c0,.18-.02.2-.181.2-.12,0-.519-.04-1.879-.04h-.061a11.34,11.34,0,0,0,2.181,4.08,5.252,5.252,0,0,0-.58,1c-.081.2-.14.28-.2.28s-.139-.08-.219-.26a17.523,17.523,0,0,1-1.321-3.24c.02,5.661.16,10.122.16,10.421,0,.18-.02.2-.2.2h-1.22c-.18,0-.2-.021-.2-.2,0-.3.141-4.661.181-10a22.34,22.34,0,0,1-2.3,5.6c-.1.181-.179.28-.259.28s-.141-.08-.2-.259a3.829,3.829,0,0,0-.58-1.08,21.67,21.67,0,0,0,3.12-6.822h-.5c-1.38,0-1.8.04-1.92.04-.16,0-.18-.02-.18-.2v-1.04c0-.181.02-.2.18-.2.121,0,.54.04,1.92.04Zm6.982,4.6c.2-.1.261-.06.32.12a13.118,13.118,0,0,0,1.681,3.26,11.735,11.735,0,0,0,.98-1.86,7.99,7.99,0,0,0,.5-1.74,10.222,10.222,0,0,1,1.361.6c.159.08.259.181.259.261,0,.14-.12.239-.24.38a3.411,3.411,0,0,0-.42.86,12.6,12.6,0,0,1-1.46,2.661,13.454,13.454,0,0,0,5.261,3,4.128,4.128,0,0,0-.76,1.02c-.14.261-.2.381-.34.381a1.025,1.025,0,0,1-.36-.12,15.048,15.048,0,0,1-4.762-3.121,14.481,14.481,0,0,1-5.1,3.281,1,1,0,0,1-.38.119c-.12,0-.181-.1-.3-.3a3.019,3.019,0,0,0-.78-.98,12.938,12.938,0,0,0,5.582-3.261,16.734,16.734,0,0,1-2.041-3.82c-.08-.16-.04-.18.221-.321Zm.58-3.341c.16.1.24.18.24.28a.376.376,0,0,1-.179.3,2.381,2.381,0,0,0-.42.56,12.337,12.337,0,0,1-2.361,2.9c-.16.16-.26.219-.341.219-.1,0-.179-.08-.319-.279a2.858,2.858,0,0,0-.761-.721,9.645,9.645,0,0,0,2.5-2.84,3.388,3.388,0,0,0,.4-.94A12.481,12.481,0,0,1,1757.75,4927.847Zm-.84-1.241c-1.9,0-2.56.04-2.66.04-.16,0-.181-.019-.181-.179v-1.12c0-.16.021-.181.181-.181.1,0,.76.04,2.66.04h1.441v-.82a10.581,10.581,0,0,0-.14-2.12c.58.02,1.2.059,1.68.12.18.019.3.12.3.179a.93.93,0,0,1-.12.4,3.765,3.765,0,0,0-.14,1.42v.82h2.06c1.9,0,2.541-.04,2.641-.04.2,0,.22.021.22.181v1.12c0,.16-.02.179-.22.179-.1,0-.74-.04-2.641-.04Zm4.461.861a.634.634,0,0,1,.22-.1c.06,0,.1.04.16.119a11.011,11.011,0,0,0,3.3,3.3,4.247,4.247,0,0,0-.72.881c-.141.24-.2.359-.3.359-.08,0-.18-.059-.341-.2a13.738,13.738,0,0,1-3.18-3.6c-.1-.161-.08-.2.16-.34Z" fill="#333"/>
  </g>
</svg>
