<svg xmlns="http://www.w3.org/2000/svg" width="504.716" height="52.127" viewBox="0 0 504.716 52.127">
  <g id="グループ_760" data-name="グループ 760" transform="translate(-190.596 -4906.854)">
    <path id="パス_1626" data-name="パス 1626" d="M190.848,4953.93c-.224,0-.252-.029-.252-.252,0-.2.056-1.68.056-9.773v-5.4c0-5.433-.056-7-.056-7.168,0-.225.028-.252.252-.252.2,0,1.148.056,3.892.056h8.848c2.744,0,3.724-.056,3.891-.056.225,0,.253.027.253.252,0,.168-.056,1.735-.056,6.412v6.159c0,8.009.056,9.521.056,9.66,0,.252-.028.281-.253.281H205.66c-.252,0-.28-.029-.28-.281v-1.54H192.948v1.653c0,.223-.028.252-.252.252Zm2.1-13.636H205.38v-7.084H192.948Zm12.432,9.632v-7.561H192.948v7.561Z" fill="#333"/>
    <path id="パス_1627" data-name="パス 1627" d="M226.6,4939.286a32.849,32.849,0,0,1-6.8,7.308c-.28.223-.42.307-.672.139a5.429,5.429,0,0,0-1.849-.811,32.774,32.774,0,0,0,9.128-10.7,11.555,11.555,0,0,0,1.513-3.865,11.657,11.657,0,0,1,2.464,1.009.483.483,0,0,1,0,.783,3.9,3.9,0,0,0-.813.981,31.865,31.865,0,0,1-1.792,3.107l5.712-.139a2.657,2.657,0,0,0,1.345-.224.638.638,0,0,1,.756.056,8.478,8.478,0,0,1,1.344,1.091c.307.336.28.645.084.84a3.684,3.684,0,0,0-.812,1.149,29.671,29.671,0,0,1-5.265,7.336,28.152,28.152,0,0,1,2.773,2.967c.223.281.223.365-.029.645a7.763,7.763,0,0,1-1.288,1.092c-.252.168-.336.2-.532-.056a26.984,26.984,0,0,0-7.7-7c.476-.448.9-.9,1.315-1.288.225-.225.309-.2.617-.028a30.288,30.288,0,0,1,3.276,2.351,23.859,23.859,0,0,0,4.7-6.916Z" fill="#333"/>
    <path id="パス_1628" data-name="パス 1628" d="M249.285,4953.062c-2.632,0-3.5.055-3.64.055-.224,0-.252-.027-.252-.252v-1.735c0-.252.028-.28.252-.28.14,0,1.008.055,3.64.055h7.14v-5.8h-3.277c-2.8,0-3.723.057-3.891.057-.252,0-.28-.028-.28-.28v-1.653c0-.223.028-.252.28-.252.168,0,1.092.057,3.891.057h3.277v-5.349h-6.3a22.133,22.133,0,0,1-2.688,4.256c-.2.225-.28.365-.42.365-.112,0-.252-.113-.5-.365a4.139,4.139,0,0,0-1.316-.867,23.039,23.039,0,0,0,4.592-8.4,6.94,6.94,0,0,0,.364-1.708c.756.168,1.6.391,2.128.559.28.084.392.2.392.365a.727.727,0,0,1-.224.448,2.608,2.608,0,0,0-.5.952c-.28.784-.56,1.54-.868,2.3h5.348v-1.96a22.056,22.056,0,0,0-.224-4c.9.027,1.792.084,2.491.14.225.028.365.168.365.28a1.371,1.371,0,0,1-.14.532,12.43,12.43,0,0,0-.168,3v2.017h5.012c2.8,0,3.723-.057,3.891-.057.253,0,.281.029.281.253v1.708c0,.224-.028.252-.281.252-.168,0-1.091-.057-3.891-.057h-5.012v5.349h3.724c2.8,0,3.752-.057,3.892-.057.224,0,.252.029.252.252v1.653c0,.252-.028.28-.252.28-.14,0-1.093-.057-3.892-.057h-3.724v5.8h7.027c2.605,0,3.473-.055,3.641-.055.224,0,.252.028.252.28v1.735c0,.225-.028.252-.252.252-.168,0-1.036-.055-3.641-.055Z" fill="#333"/>
    <path id="パス_1629" data-name="パス 1629" d="M285.461,4942.786a55.728,55.728,0,0,1-6.132-.112c-.28,0-.364-.084-.392-.393-.056-.447-.112-1.287-.112-1.792a39.467,39.467,0,0,0,6.58.2c-.028-1.232-.056-2.52-.056-3.752a52.318,52.318,0,0,1-7.084-.14c-.252-.028-.336-.112-.364-.336-.056-.532-.112-1.064-.14-1.9a48.584,48.584,0,0,0,7.588.252c0-1.092-.028-1.876-.028-2.857a7.729,7.729,0,0,0-.308-1.876,13.906,13.906,0,0,1,2.8.421.486.486,0,0,1,.28.728,3.031,3.031,0,0,0-.364,1.316c-.056.756-.056,1.288-.083,2.184a54.665,54.665,0,0,0,6.523-.9c.252-.056.336,0,.364.252a11.774,11.774,0,0,1,.112,1.6c0,.28-.084.336-.252.336a59.574,59.574,0,0,1-6.776.84c0,1.259.029,2.547.056,3.723a37.533,37.533,0,0,0,5.852-.84c.252-.055.336,0,.364.2.028.42.056,1.091.056,1.708,0,.223-.084.307-.336.336a49.486,49.486,0,0,1-5.852.7c.028,1.567.084,3,.2,4.536a23.892,23.892,0,0,1,7.42,3.5c.2.168.224.279.14.56a5.039,5.039,0,0,1-.924,1.568c-.168.224-.308.252-.532.084a20.162,20.162,0,0,0-5.992-3.389c0,3.08-1.736,4.313-5.348,4.313-3.444,0-5.292-1.372-5.292-3.584,0-2.157,2.044-3.668,5.376-3.668a20.082,20.082,0,0,1,2.828.168C285.545,4945.306,285.489,4944.13,285.461,4942.786Zm-2.6,5.768c-2.184,0-3.3.7-3.3,1.624,0,.979,1.009,1.568,2.968,1.568a3.624,3.624,0,0,0,2.716-.868,2.711,2.711,0,0,0,.42-1.96A11.946,11.946,0,0,0,282.857,4948.554Z" fill="#333"/>
    <path id="パス_1630" data-name="パス 1630" d="M311.192,4930.578c.393.111.533.279.533.5a1.108,1.108,0,0,1-.168.447,2.631,2.631,0,0,0-.252,1.2c-.084,1.121-.113,1.96-.168,3.332a5.794,5.794,0,0,1,1.008.617c.223.168.251.364.055.616-.447.756-.867,1.512-1.287,2.38a5.4,5.4,0,0,0-.028.672c1.036-1.148,1.847-2.016,2.912-3.024,1.932-1.82,3.5-2.744,5.012-2.744,2.072,0,3.192,1.315,3.192,3.584,0,1.063-.057,2.855-.225,5.151-.139,2.353-.279,3.781-.279,4.676,0,1.6.42,1.933,1.176,1.933a3.418,3.418,0,0,0,2.239-1.036,8.308,8.308,0,0,0,1.681-2.548,4.843,4.843,0,0,0,.811,1.708.735.735,0,0,1,.057,1.008c-1.261,1.9-2.912,3.192-5.068,3.192-2.212,0-3.332-1.177-3.332-3.92,0-1.036.084-2.633.223-4.761.141-2.212.225-3.5.2-4.7,0-1.427-.335-2.183-1.036-2.183-.923,0-2.015.644-3.471,1.96a57.771,57.771,0,0,0-4.117,4.284c.029,3.164.113,7.055.113,10.584,0,.223-.084.336-.336.336a14.931,14.931,0,0,1-1.737.084c-.2,0-.307-.113-.307-.392,0-3.444,0-6.385.084-8.82-1.26,1.82-2.437,3.723-3.7,5.656-.2.308-.281.308-.56.14a6.611,6.611,0,0,1-1.316-1.2c-.224-.2-.113-.42.055-.644,2.3-2.94,3.809-5.124,5.489-7.616.028-.868.028-1.54.055-2.212a28.549,28.549,0,0,0-3.584,1.26c-.279.112-.531.364-.756.364a.582.582,0,0,1-.475-.336,10.179,10.179,0,0,1-.924-2.044,11.3,11.3,0,0,0,1.987-.252q1.471-.378,3.864-1.177c.029-1.259.029-2.491.056-3.752a12.664,12.664,0,0,0-.223-2.743A13.344,13.344,0,0,1,311.192,4930.578Z" fill="#333"/>
    <path id="パス_1631" data-name="パス 1631" d="M340.845,4941.525a9.577,9.577,0,0,1,5.348-1.708c4.06,0,6.72,2.577,6.72,6.412,0,4.369-3.5,7.393-9.464,7.393-3.528,0-5.263-1.513-5.263-3.641a3.349,3.349,0,0,1,3.611-3.135,4.957,4.957,0,0,1,4.984,4.116c2.212-.84,3.556-2.269,3.556-4.788a4.332,4.332,0,0,0-4.648-4.4,12.358,12.358,0,0,0-7.476,3.053,31.369,31.369,0,0,0-2.464,2.323c-.28.281-.42.336-.7.057a8.922,8.922,0,0,1-1.288-1.429c-.14-.168-.084-.307.112-.5a78.982,78.982,0,0,0,6.524-6.215c1.708-1.764,3.22-3.472,5.04-5.6-2.043.336-4.256.784-6.44,1.2a5.042,5.042,0,0,0-1.063.279,1.512,1.512,0,0,1-.533.141c-.252,0-.392-.112-.532-.393a10.2,10.2,0,0,1-.784-2.351,10.854,10.854,0,0,0,2.52.028c1.988-.2,4.368-.532,6.692-.98a3.571,3.571,0,0,0,1.148-.336,1.153,1.153,0,0,1,.476-.2.908.908,0,0,1,.56.225,9.116,9.116,0,0,1,1.484,1.428.9.9,0,0,1,.252.559.648.648,0,0,1-.447.588,3.53,3.53,0,0,0-1.289.952c-2.295,2.353-4.2,4.313-6.72,6.832Zm1.036,7.2c-.924,0-1.624.475-1.624,1.259,0,.924.9,1.6,2.744,1.624a8,8,0,0,0,1.624-.139C344.261,4949.842,343.281,4948.722,341.881,4948.722Z" fill="#333"/>
    <path id="パス_1632" data-name="パス 1632" d="M373.465,4940.686a16.338,16.338,0,0,1-1.708,7.28,13.329,13.329,0,0,1-4.956,5.292c-.448.28-.784.42-1.12.084a4.7,4.7,0,0,0-1.989-1.176c2.773-1.484,4.369-2.912,5.516-5.068a13.315,13.315,0,0,0,1.429-6.412h-5.489c-1.4,0-2.828.084-4.116.168-.279.028-.336-.14-.363-.476a13.014,13.014,0,0,1-.2-2.1c1.6.113,3.08.141,4.675.141H377.44c2.044,0,3.556-.028,5.264-.141.252,0,.309.113.309.477v1.624c0,.308-.141.42-.393.42-1.567-.057-3.3-.112-5.151-.112Zm-5.013-6.329c-1.26,0-2.548.029-3.975.113-.336.028-.392-.113-.42-.42a20.312,20.312,0,0,1-.168-2.1c1.792.113,3.3.141,4.563.141h5.8c1.513,0,3.276,0,4.732-.084.252-.028.308.112.308.42a6.954,6.954,0,0,1,0,1.54c0,.364-.056.448-.336.448-1.512-.057-3.22-.057-4.7-.057Z" fill="#333"/>
    <path id="パス_1633" data-name="パス 1633" d="M404.6,4934.75a2.267,2.267,0,0,0,1.4-.309c.225-.168.477-.111.756.084a10.06,10.06,0,0,1,1.484,1.177.617.617,0,0,1,.056,1.008,2.9,2.9,0,0,0-.812,1.063,38.747,38.747,0,0,1-5.46,8.708,35.075,35.075,0,0,1-8.652,7.141.609.609,0,0,1-.811-.112,5.464,5.464,0,0,0-2.1-1.036,31.036,31.036,0,0,0,9.268-7.281,30,30,0,0,0,5.236-8.315l-7.447.224a41.353,41.353,0,0,1-5.433,5.879.638.638,0,0,1-.924.084,5.586,5.586,0,0,0-1.988-.839,30.89,30.89,0,0,0,7.392-8.232,9.253,9.253,0,0,0,1.512-3.612,9.733,9.733,0,0,1,2.632,1.2.445.445,0,0,1-.027.811,3.322,3.322,0,0,0-.757.869c-.392.588-.672,1.064-1.035,1.595Z" fill="#333"/>
    <path id="パス_1634" data-name="パス 1634" d="M431.174,4933.1a.5.5,0,0,1,.112.812,6.607,6.607,0,0,0-1.232,1.987,45.766,45.766,0,0,1-5.012,8.541,33.851,33.851,0,0,1-8.372,7.923.651.651,0,0,1-.9-.027,6.062,6.062,0,0,0-2.072-1.093,33.268,33.268,0,0,0,9.044-8.147,36.117,36.117,0,0,0,4.536-7.9,12.886,12.886,0,0,0,.952-3.5A15.1,15.1,0,0,1,431.174,4933.1Z" fill="#333"/>
    <path id="パス_1635" data-name="パス 1635" d="M454.3,4933.489a3.277,3.277,0,0,0,1.736-.252.576.576,0,0,1,.644.113,8.078,8.078,0,0,1,1.456,1.484c.2.279.14.476-.168.756a4.894,4.894,0,0,0-.924,1.12,45.223,45.223,0,0,1-3.892,5.684,60.476,60.476,0,0,1,7.9,6.916c.252.252.28.364.028.7a15.979,15.979,0,0,1-1.372,1.372c-.224.223-.392.2-.616-.057a48.894,48.894,0,0,0-7.5-7.027,42.091,42.091,0,0,1-9.772,7.643c-.364.2-.616.281-.868-.027a5.9,5.9,0,0,0-1.876-1.372,34.919,34.919,0,0,0,10.108-7.42,33.952,33.952,0,0,0,5.292-7.28H446.6c-1.541,0-2.857.084-4.2.168-.252,0-.308-.113-.364-.392a12.333,12.333,0,0,1-.2-2.24c1.429.111,2.744.111,4.508.111Z" fill="#333"/>
    <path id="パス_1636" data-name="パス 1636" d="M478.3,4947.266c-1.2,2.072-2.548,3.024-4.4,3.024-2.239,0-4.451-2.436-4.451-6.721a10.262,10.262,0,0,1,3.22-7.279,12.006,12.006,0,0,1,8.68-3.276c6.5,0,10.276,3.836,10.276,9.3,0,4.843-2.856,8.343-8.765,9.967a.736.736,0,0,1-.951-.391,4.036,4.036,0,0,0-1.456-1.344c5.208-1.12,8.624-3.668,8.624-8.6a6.8,6.8,0,0,0-7.168-6.8C481.351,4939.874,480.035,4944.382,478.3,4947.266Zm-4.061-9.436a8.4,8.4,0,0,0-2.464,5.655c0,2.857,1.121,4.2,2.073,4.2.868,0,1.624-.5,2.408-1.905a30.36,30.36,0,0,0,3.164-10.527A9.043,9.043,0,0,0,474.238,4937.83Z" fill="#333"/>
    <path id="パス_1637" data-name="パス 1637" d="M512.506,4958.55V4914.2h-8.5v-6.912h24.336v6.912h-8.5v44.352Z" fill="#1482ca"/>
    <path id="パス_1638" data-name="パス 1638" d="M538.354,4919.382a13.1,13.1,0,0,1,1.079-5.472,11.547,11.547,0,0,1,2.88-3.96,12.157,12.157,0,0,1,3.924-2.3,13.069,13.069,0,0,1,12.852,2.3,12.052,12.052,0,0,1,2.808,3.96,13.1,13.1,0,0,1,1.081,5.472v27.072A12.979,12.979,0,0,1,561.9,4952a11.419,11.419,0,0,1-2.808,3.815,12.306,12.306,0,0,1-4,2.376,12.774,12.774,0,0,1-8.856,0,11.508,11.508,0,0,1-3.924-2.376,10.964,10.964,0,0,1-2.88-3.815,12.981,12.981,0,0,1-1.079-5.544Zm7.343,27.072a4.878,4.878,0,0,0,1.476,3.924,5.468,5.468,0,0,0,6.984,0,4.881,4.881,0,0,0,1.476-3.924v-27.072a4.881,4.881,0,0,0-1.476-3.924,5.47,5.47,0,0,0-6.984,0,4.878,4.878,0,0,0-1.476,3.924Z" fill="#1482ca"/>
    <path id="パス_1639" data-name="パス 1639" d="M576.657,4958.55v-51.264h11.016a16.367,16.367,0,0,1,5.328.792,10.228,10.228,0,0,1,4.176,2.808,10.99,10.99,0,0,1,2.593,4.716,29.6,29.6,0,0,1,.719,7.308,36.369,36.369,0,0,1-.4,5.832,12.176,12.176,0,0,1-1.692,4.464,10.711,10.711,0,0,1-4.032,3.924,13.583,13.583,0,0,1-6.624,1.4H584v20.016ZM584,4914.2v17.424h3.528a7.512,7.512,0,0,0,3.456-.648,4.083,4.083,0,0,0,1.8-1.8,6.578,6.578,0,0,0,.684-2.664q.108-1.583.108-3.529,0-1.8-.072-3.419a7.4,7.4,0,0,0-.648-2.844,4.087,4.087,0,0,0-1.728-1.872,6.861,6.861,0,0,0-3.312-.648Z" fill="#1482ca"/>
    <path id="パス_1640" data-name="パス 1640" d="M613.376,4958.55v-51.264h7.344v51.264Z" fill="#1482ca"/>
    <path id="パス_1641" data-name="パス 1641" d="M658.376,4943.934v3.168a11.429,11.429,0,0,1-.9,4.5,12.473,12.473,0,0,1-2.484,3.78,12,12,0,0,1-3.708,2.628,10.854,10.854,0,0,1-4.572.971,16.458,16.458,0,0,1-4.248-.575,10.027,10.027,0,0,1-3.888-2.016,11.166,11.166,0,0,1-2.845-3.708,13.13,13.13,0,0,1-1.115-5.8v-28.224a12.494,12.494,0,0,1,.863-4.681,11.025,11.025,0,0,1,2.449-3.743,11.381,11.381,0,0,1,3.78-2.484,12.694,12.694,0,0,1,4.859-.9,11.139,11.139,0,0,1,8.425,3.384,12.055,12.055,0,0,1,2.484,3.924,13.271,13.271,0,0,1,.9,4.932v2.88h-7.344v-2.449a5.948,5.948,0,0,0-1.224-3.743,3.968,3.968,0,0,0-3.312-1.584q-2.737,0-3.637,1.692a9.069,9.069,0,0,0-.9,4.284v26.208a6.787,6.787,0,0,0,.972,3.744,3.829,3.829,0,0,0,3.492,1.512,5.311,5.311,0,0,0,1.548-.252,4.65,4.65,0,0,0,1.548-.828,4.4,4.4,0,0,0,1.08-1.584,6.419,6.419,0,0,0,.432-2.52v-2.52Z" fill="#1482ca"/>
    <path id="パス_1642" data-name="パス 1642" d="M695.312,4922.046h-7.344v-1.656a7.84,7.84,0,0,0-1.189-4.356,4.393,4.393,0,0,0-3.995-1.836,4.636,4.636,0,0,0-2.448.575,4.841,4.841,0,0,0-1.513,1.441,6.091,6.091,0,0,0-.792,2.124,13.96,13.96,0,0,0-.216,2.484,24.3,24.3,0,0,0,.109,2.52,4.78,4.78,0,0,0,.54,1.8,3.984,3.984,0,0,0,1.26,1.368,11.464,11.464,0,0,0,2.268,1.152l5.615,2.232a13.962,13.962,0,0,1,3.96,2.2,9.48,9.48,0,0,1,2.376,2.916,13.6,13.6,0,0,1,1.08,3.924,38.822,38.822,0,0,1,.289,5,26.374,26.374,0,0,1-.648,6.012,12.7,12.7,0,0,1-2.088,4.716,10.369,10.369,0,0,1-3.961,3.168,13.981,13.981,0,0,1-5.975,1.151,13.083,13.083,0,0,1-4.968-.935,11.767,11.767,0,0,1-3.96-2.592,12.57,12.57,0,0,1-2.628-3.852,11.7,11.7,0,0,1-.973-4.789v-2.735h7.345v2.3a6,6,0,0,0,1.188,3.636,4.628,4.628,0,0,0,4,1.62,6.449,6.449,0,0,0,2.916-.54,3.883,3.883,0,0,0,1.62-1.548,5.668,5.668,0,0,0,.683-2.412q.109-1.4.109-3.132a31.035,31.035,0,0,0-.145-3.313,5.717,5.717,0,0,0-.575-2.088,4.075,4.075,0,0,0-1.332-1.295,17.435,17.435,0,0,0-2.2-1.081l-5.256-2.16q-4.752-1.944-6.372-5.147a17.709,17.709,0,0,1-1.62-8.028,18.593,18.593,0,0,1,.792-5.472,12.416,12.416,0,0,1,2.376-4.464,10.886,10.886,0,0,1,3.852-2.988,12.864,12.864,0,0,1,5.579-1.116,12.206,12.206,0,0,1,5.005,1.007,12.943,12.943,0,0,1,3.924,2.664,11.133,11.133,0,0,1,3.312,7.921Z" fill="#1482ca"/>
  </g>
</svg>
