<svg xmlns="http://www.w3.org/2000/svg" width="65.494" height="47" viewBox="0 0 65.494 47"><g transform="translate(-601.155 -3377.5)"><path d="M662.923,3388.912l-5.218-5.962-19.554,6.014-.643-11.464h-7.213l-.5,11.507-19.7-6.057-5.217,5.962-3.726,34.191,4.751,1.4,24.125-4.606h7.742L661.9,3424.5l4.751-1.4Zm-48.234,20.806-4.684.456.648-6.413,4.529.05Zm.726-8.7-4.481-.049.584-5.789,4.333.608Zm.669-8.019-4.285-.6.6-5.975,4.127,1.236Zm5.44,16.053-4.007.39.467-5.6,3.868.043Zm.506-7.961-3.813-.042.406-4.872,3.685.517Zm.456-7.194-3.63-.509.41-4.909,3.5,1.048Zm4.9,14.584-3.048.3.309-4.863,2.968.032Zm.37-7.327-2.932-.033.256-4.037,2.862.4Zm.327-6.47-2.825-.4.249-3.937,2.753.825Zm5.627,20.877h-3.348l1.182-30.588h2.166Zm.883,0v-30.588h1.677l1.671,30.588Zm4.942-24.386,2.753-.825.25,3.937-2.826.4Zm.319,6.311,2.861-.4.257,4.037-2.933.033Zm.555,10.995-.229-4.534,2.969-.032.308,4.863Zm4.627-18.954,3.5-1.048.41,4.909-3.63.509Zm.455,7.167,3.685-.517.407,4.872-3.813.042Zm.784,12.358-.328-5.168,3.869-.043.467,5.6Zm4.995-21.394,4.128-1.236.6,5.975-4.284.6Zm.678,8.13,4.333-.608.584,5.789-4.48.049Zm1.162,13.93-.492-5.907,4.529-.05.647,6.413Z" fill="#8f82bc"/></g></svg>