<svg xmlns="http://www.w3.org/2000/svg" width="76.477" height="45" viewBox="0 0 76.477 45"><g transform="translate(-229.158 -3378.5)"><path d="M302.447,3392.769H292.171a3.191,3.191,0,0,0-3.188,3.188v24.355a3.191,3.191,0,0,0,3.188,3.188h10.276a3.191,3.191,0,0,0,3.188-3.188v-24.355A3.191,3.191,0,0,0,302.447,3392.769Zm1.3,4.038v20.416H290.87v-20.416ZM278.765,3378.5H232.688a3.53,3.53,0,0,0-3.53,3.53V3411.5a3.53,3.53,0,0,0,3.53,3.53h19.3v.786a3.53,3.53,0,0,1-3.53,3.531h-5.187v4.151h24.908v-4.151h-5.188a3.53,3.53,0,0,1-3.53-3.531v-.786h19.3a3.53,3.53,0,0,0,3.53-3.53V3382.03A3.53,3.53,0,0,0,278.765,3378.5Zm-1.451,28.712a1.177,1.177,0,0,1-1.177,1.178H235.316a1.177,1.177,0,0,1-1.176-1.178v-22.553a1.177,1.177,0,0,1,1.176-1.177h40.821a1.177,1.177,0,0,1,1.177,1.177Zm25.133-14.443H292.171a3.191,3.191,0,0,0-3.188,3.188v24.355a3.191,3.191,0,0,0,3.188,3.188h10.276a3.191,3.191,0,0,0,3.188-3.188v-24.355A3.191,3.191,0,0,0,302.447,3392.769Zm-5.138,29.261a1.706,1.706,0,1,1,1.705-1.705A1.707,1.707,0,0,1,297.309,3422.03Zm6.439-25.223v20.416H290.87v-20.416ZM278.765,3378.5H232.688a3.53,3.53,0,0,0-3.53,3.53V3411.5a3.53,3.53,0,0,0,3.53,3.53h19.3v.786a3.53,3.53,0,0,1-3.53,3.531h-5.187v4.151h24.908v-4.151h-5.188a3.53,3.53,0,0,1-3.53-3.531v-.786h19.3a3.53,3.53,0,0,0,3.53-3.53V3382.03A3.53,3.53,0,0,0,278.765,3378.5Zm-1.451,28.712a1.177,1.177,0,0,1-1.177,1.178H235.316a1.177,1.177,0,0,1-1.176-1.178v-22.553a1.177,1.177,0,0,1,1.176-1.177h40.821a1.177,1.177,0,0,1,1.177,1.177Z" fill="#8f82bc"/></g></svg>