<svg xmlns="http://www.w3.org/2000/svg" width="40.342" height="42.026" viewBox="0 0 40.342 42.026">
  <g id="グループ_203" data-name="グループ 203" transform="translate(-1562.142 -2776.829)">
    <path id="パス_399" data-name="パス 399" d="M1562.142,2785.71a9.025,9.025,0,0,1,.725-3.715,8.7,8.7,0,0,1,1.945-2.786,8.388,8.388,0,0,1,2.815-1.771,9.452,9.452,0,0,1,6.675,0,8.4,8.4,0,0,1,2.816,1.771,8.711,8.711,0,0,1,1.944,2.786,9.039,9.039,0,0,1,.726,3.715v24.264a9.029,9.029,0,0,1-.726,3.714,8.722,8.722,0,0,1-1.944,2.788,8.384,8.384,0,0,1-2.816,1.77,9.452,9.452,0,0,1-6.675,0,8.37,8.37,0,0,1-2.815-1.77,8.709,8.709,0,0,1-1.945-2.788,9.015,9.015,0,0,1-.725-3.714Zm5.921,24.264a2.927,2.927,0,0,0,.812,2.119,3.013,3.013,0,0,0,4.179,0,2.928,2.928,0,0,0,.813-2.119V2785.71a2.925,2.925,0,0,0-.813-2.118,3.013,3.013,0,0,0-4.179,0,2.925,2.925,0,0,0-.812,2.118Z" fill="#fff"/>
    <path id="パス_400" data-name="パス 400" d="M1596.563,2818.507v-35.061l-5.92,4.354v-6.269l5.92-4.353h5.921v41.329Z" fill="#fff"/>
  </g>
</svg>
