<svg xmlns="http://www.w3.org/2000/svg" width="45.044" height="42.026" viewBox="0 0 45.044 42.026">
  <g id="グループ_204" data-name="グループ 204" transform="translate(-1562.142 -3310.829)">
    <path id="パス_401" data-name="パス 401" d="M1562.142,3319.71a9.025,9.025,0,0,1,.725-3.715,8.7,8.7,0,0,1,1.945-2.786,8.388,8.388,0,0,1,2.815-1.771,9.452,9.452,0,0,1,6.675,0,8.4,8.4,0,0,1,2.816,1.771,8.711,8.711,0,0,1,1.944,2.786,9.039,9.039,0,0,1,.726,3.715v24.264a9.029,9.029,0,0,1-.726,3.714,8.722,8.722,0,0,1-1.944,2.788,8.384,8.384,0,0,1-2.816,1.77,9.452,9.452,0,0,1-6.675,0,8.37,8.37,0,0,1-2.815-1.77,8.709,8.709,0,0,1-1.945-2.788,9.015,9.015,0,0,1-.725-3.714Zm5.921,24.264a2.927,2.927,0,0,0,.812,2.119,3.013,3.013,0,0,0,4.179,0,2.928,2.928,0,0,0,.813-2.119V3319.71a2.925,2.925,0,0,0-.813-2.118,3.013,3.013,0,0,0-4.179,0,2.925,2.925,0,0,0-.812,2.118Z" fill="#fff"/>
    <path id="パス_402" data-name="パス 402" d="M1589.54,3352.507v-5.572l10.68-20.143a7.366,7.366,0,0,0,.929-2.641q.115-1.132.116-2.815,0-.754-.029-1.6a3.9,3.9,0,0,0-.319-1.48,2.5,2.5,0,0,0-2.554-1.509,2.674,2.674,0,0,0-2.9,2.96v3.367h-5.92v-3.251a8.739,8.739,0,0,1,.7-3.482,9.032,9.032,0,0,1,1.915-2.845,8.707,8.707,0,0,1,2.787-1.944,8.44,8.44,0,0,1,3.483-.726,8.686,8.686,0,0,1,3.976.842,7.942,7.942,0,0,1,2.757,2.293,9.991,9.991,0,0,1,1.538,3.308,15.329,15.329,0,0,1,.494,3.948q0,1.511-.059,2.525a15.16,15.16,0,0,1-.231,1.944,8.656,8.656,0,0,1-.581,1.858q-.406.928-1.1,2.264l-8.707,16.775h10.681v5.921Z" fill="#fff"/>
  </g>
</svg>
