<svg xmlns="http://www.w3.org/2000/svg" width="45.044" height="42.026" viewBox="0 0 45.044 42.026">
  <g id="グループ_280" data-name="グループ 280" transform="translate(-816.642 -1972.829)">
    <path id="パス_609" data-name="パス 609" d="M816.642,1981.71a9.024,9.024,0,0,1,.725-3.715,8.7,8.7,0,0,1,1.945-2.786,8.388,8.388,0,0,1,2.815-1.771,9.45,9.45,0,0,1,6.675,0,8.4,8.4,0,0,1,2.816,1.771,8.712,8.712,0,0,1,1.944,2.786,9.041,9.041,0,0,1,.726,3.715v24.264a9.03,9.03,0,0,1-.726,3.714,8.719,8.719,0,0,1-1.944,2.788,8.382,8.382,0,0,1-2.816,1.77,9.45,9.45,0,0,1-6.675,0,8.368,8.368,0,0,1-2.815-1.77,8.706,8.706,0,0,1-1.945-2.788,9.013,9.013,0,0,1-.725-3.714Zm5.921,24.264a2.927,2.927,0,0,0,.812,2.119,3.014,3.014,0,0,0,4.179,0,2.928,2.928,0,0,0,.813-2.119V1981.71a2.925,2.925,0,0,0-.813-2.118,3.014,3.014,0,0,0-4.179,0,2.925,2.925,0,0,0-.812,2.118Z" fill="#ee8a00"/>
    <path id="パス_610" data-name="パス 610" d="M851.063,1990.592a7.477,7.477,0,0,0,3.686-.639q1.016-.639,1.016-2.96v-5.341a2.885,2.885,0,0,0-.784-2.089,2.8,2.8,0,0,0-2.118-.813,2.5,2.5,0,0,0-2.235.987,3.432,3.432,0,0,0-.668,1.915v3.368h-5.92v-3.425a8.6,8.6,0,0,1,.7-3.425,8.348,8.348,0,0,1,1.915-2.786,9.516,9.516,0,0,1,2.845-1.859,8.767,8.767,0,0,1,3.483-.7,7.732,7.732,0,0,1,4.034.958,9.341,9.341,0,0,1,2.409,1.944,12.942,12.942,0,0,1,1.016,1.394,6.8,6.8,0,0,1,.725,1.683,23.105,23.105,0,0,1,.523,5.689q0,2.148-.087,3.482a7.271,7.271,0,0,1-.436,2.207,4.413,4.413,0,0,1-1.132,1.567,13.4,13.4,0,0,1-2,1.393,11.307,11.307,0,0,1,2.118,1.625,4.766,4.766,0,0,1,1.074,1.742,8.931,8.931,0,0,1,.406,2.466q.059,1.423.059,3.628,0,2.032-.087,3.367a17.127,17.127,0,0,1-.262,2.206,6.9,6.9,0,0,1-.464,1.567,9.617,9.617,0,0,1-.754,1.335,9.393,9.393,0,0,1-2.816,2.7,8.359,8.359,0,0,1-4.5,1.074,10.46,10.46,0,0,1-2.961-.464,8.079,8.079,0,0,1-2.844-1.509,8.184,8.184,0,0,1-2.119-2.729,9.15,9.15,0,0,1-.841-4.121v-3.367h5.92v3.077a3.361,3.361,0,0,0,.784,2.292,2.941,2.941,0,0,0,4.237,0,3.529,3.529,0,0,0,.784-2.408V1999.7q0-2.437-.929-3.192a2.583,2.583,0,0,0-1.422-.581,18.981,18.981,0,0,0-2.351-.117Z" fill="#ee8a00"/>
  </g>
</svg>
