<svg xmlns="http://www.w3.org/2000/svg" width="302.677" height="82.855" viewBox="0 0 302.677 82.855">
  <g id="グループ_207" data-name="グループ 207" transform="translate(-1542.816 -2637.727)">
    <path id="パス_407" data-name="パス 407" d="M1547.169,2640.907v-1.1a8.6,8.6,0,0,0-.12-1.821c.56.02,1.02.04,1.52.1.16.02.241.08.241.181a.9.9,0,0,1-.081.3,4,4,0,0,0-.1,1.221v1.12h.44c1.6,0,2.1-.04,2.221-.04.18,0,.2.02.2.18v1.02c0,.18-.02.2-.2.2-.12,0-.62-.04-2.221-.04h-.32a11.149,11.149,0,0,0,2.881,3.18,2.983,2.983,0,0,0-.58.84c-.1.22-.16.32-.26.32-.08,0-.181-.08-.34-.24a9.677,9.677,0,0,1-1.921-2.66c.06,2.92.12,5.1.12,5.4,0,.181-.02.2-.179.2h-1.161c-.16,0-.18-.02-.18-.2,0-.279.06-2.32.1-5.081a11.4,11.4,0,0,1-2.88,3.641.59.59,0,0,1-.321.181c-.1,0-.179-.1-.32-.321a3.442,3.442,0,0,0-.7-.86,11.63,11.63,0,0,0,3.921-4.4h-.9c-1.62,0-2.139.04-2.259.04-.161,0-.181-.021-.181-.2v-1.02c0-.16.02-.18.181-.18.12,0,.639.04,2.259.04Zm-.66,9.742c.26.1.28.14.24.32a12.875,12.875,0,0,1-1.881,3.781c-.059.08-.08.12-.139.12a.5.5,0,0,1-.22-.1l-.821-.541c-.259-.16-.259-.219-.14-.359a9.476,9.476,0,0,0,1.781-3.461c.039-.12.06-.16.119-.16a.628.628,0,0,1,.24.08Zm3.44,2.441c0,.5.1.78.321.92a9.849,9.849,0,0,0,4.8-.12,2.666,2.666,0,0,0,.641-1.9,4.39,4.39,0,0,0,1.08.481c.42.1.42.159.34.58-.18,1.26-.52,1.78-1.08,2.08-.76.44-1.74.52-3.721.52a7.457,7.457,0,0,1-3.2-.38c-.481-.3-.721-.64-.721-1.68v-2.181a10.759,10.759,0,0,0-.12-1.6c.521.02,1.141.08,1.58.14.2.04.3.1.3.18a.856.856,0,0,1-.08.28,2.941,2.941,0,0,0-.141.98Zm2-4.022c.18-.1.24-.1.361.021a12.826,12.826,0,0,1,2.219,2.42c.1.16.1.22-.12.36l-.76.5a.557.557,0,0,1-.259.12c-.061,0-.1-.04-.161-.12a10.679,10.679,0,0,0-2.081-2.54c-.119-.12-.1-.2.1-.32Zm5.461-10.2c1.58,0,2.08-.04,2.2-.04.16,0,.181.021.181.181,0,.12-.04.78-.04,2.36v5.161c0,1.58.04,2.241.04,2.361,0,.16-.021.179-.181.179-.12,0-.62-.04-2.2-.04h-2.681c-1.58,0-2.06.04-2.18.04-.18,0-.2-.019-.2-.179,0-.12.04-.781.04-2.361v-5.161c0-1.58-.04-2.221-.04-2.36,0-.16.019-.181.2-.181.12,0,.6.04,2.18.04Zm-3.581,1.28v1.681h4.461v-1.681Zm4.461,4.6v-1.721h-4.461v1.721Zm0,1.18h-4.461v1.841h4.461Zm.1,4.121c.219-.1.28-.08.4.04a16.4,16.4,0,0,1,2.26,3.5c.06.139.04.18-.18.32l-.9.54a.554.554,0,0,1-.26.119c-.061,0-.1-.039-.141-.139a13.11,13.11,0,0,0-2.139-3.621c-.12-.14-.1-.18.139-.32Z" fill="#333"/>
    <path id="パス_408" data-name="パス 408" d="M1568.969,2641.307c.16.08.24.18.24.28a1.492,1.492,0,0,1-.1.44,7.639,7.639,0,0,0-.18,1.9,29.337,29.337,0,0,0,.32,4.541c.28,2.04,1,3.6,1.841,3.6.7,0,1.36-1.02,2-2.98a4.327,4.327,0,0,0,.96,1.22.509.509,0,0,1,.16.6c-.66,1.8-1.8,3.141-3.16,3.141-1.681,0-3.1-2.12-3.581-5.362a39.974,39.974,0,0,1-.4-5.68,9.761,9.761,0,0,0-.2-2.221A7.85,7.85,0,0,1,1568.969,2641.307Zm9.383,1.421a.3.3,0,0,1,.359.019,12.6,12.6,0,0,1,3.9,6.9c.04.181-.04.241-.18.321a6.006,6.006,0,0,1-1.241.62c-.179.04-.3-.02-.319-.2a12.44,12.44,0,0,0-3.762-6.961C1577.651,2643.087,1578.091,2642.867,1578.352,2642.728Z" fill="#333"/>
    <path id="パス_409" data-name="パス 409" d="M1591.77,2640.146c.259.161.36.261.36.4,0,.12-.04.2-.221.44a3.538,3.538,0,0,0-.42,1.22,32.728,32.728,0,0,0-.9,6.722,17.668,17.668,0,0,0,.2,2.961c.461-1.021.86-1.8,1.44-3.2a6.333,6.333,0,0,0,.6,1,.4.4,0,0,1,.12.241.664.664,0,0,1-.1.32,31.043,31.043,0,0,0-1.22,3.1,1.363,1.363,0,0,0-.08.56c0,.2.04.34.04.48,0,.12-.04.179-.181.219a11.632,11.632,0,0,1-1.32.261c-.119,0-.2-.08-.239-.221a18.568,18.568,0,0,1-.9-5.86,37.394,37.394,0,0,1,.76-6.722,12.9,12.9,0,0,0,.32-2.541A8.28,8.28,0,0,1,1591.77,2640.146Zm4.22,9.483c.12,0,.16.059.16.24.1,1.46,1.2,2.061,3.421,2.08a26.36,26.36,0,0,0,3.9-.28c.18-.02.22,0,.24.221a12.543,12.543,0,0,1,.08,1.28c0,.2,0,.22-.28.26a26.555,26.555,0,0,1-3.46.219c-2.541,0-3.862-.379-4.741-1.42a3.833,3.833,0,0,1-.781-2.48Zm-.74-7.462c0-.2.061-.26.261-.3a33.97,33.97,0,0,1,4.28-.36,26.851,26.851,0,0,1,2.881.12c.34.02.38.04.38.22,0,.44,0,.82-.04,1.24,0,.16-.04.221-.22.2-.96-.08-2.16-.1-3.24-.1a23.564,23.564,0,0,0-4.342.44C1595.23,2642.827,1595.23,2642.467,1595.25,2642.167Z" fill="#333"/>
    <path id="パス_410" data-name="パス 410" d="M1611.729,2644.428a40.213,40.213,0,0,1-.36,5.961,13.82,13.82,0,0,1-1.6,4.941c-.1.22-.181.32-.261.32s-.16-.08-.32-.26a3.5,3.5,0,0,0-.98-.821,11.83,11.83,0,0,0,1.641-4.76,36.071,36.071,0,0,0,.3-5.641c0-2.44-.04-3.481-.04-3.6,0-.159.02-.179.2-.179.1,0,.78.04,2.74.04h4.02v-1.08a7.983,7.983,0,0,0-.119-1.62c.58,0,1.14.059,1.66.1.18.021.26.1.26.18a.927.927,0,0,1-.12.381,2.5,2.5,0,0,0-.1.92v1.12h4.341c1.941,0,2.6-.04,2.721-.04.18,0,.2.02.2.179v1.141c0,.16-.02.18-.2.18-.12,0-.78-.04-2.721-.04h-11.263Zm.34,8.582c-.239-.12-.239-.181-.16-.341a16.039,16.039,0,0,0,1.641-5.061c.02-.2.04-.2.34-.12l.86.241c.261.059.28.08.261.259a20.022,20.022,0,0,1-1.661,5.442c-.04.08-.08.12-.121.12a.662.662,0,0,1-.239-.1Zm5.682-.281c0,.84,0,1.081.32,1.321a3.255,3.255,0,0,0,1.6.22,2.817,2.817,0,0,0,1.7-.34c.44-.34.56-1.08.6-2.681a3.771,3.771,0,0,0,1.08.48c.42.121.42.121.38.56-.14,1.841-.5,2.461-1.06,2.881a5.189,5.189,0,0,1-2.781.5,5.126,5.126,0,0,1-2.861-.481c-.36-.3-.5-.679-.5-1.719v-4.681a22.029,22.029,0,0,0-.139-2.5,10.54,10.54,0,0,1,1.6.16c.2.04.341.08.341.2a.734.734,0,0,1-.16.42,6.183,6.183,0,0,0-.12,1.781Zm-.58-10c.16-.181.18-.2.36-.121a23.309,23.309,0,0,1,3.781,2.54c.08.061.12.1.12.141s-.06.1-.14.2l-.641.78c-.219.24-.24.24-.36.12a20.906,20.906,0,0,0-3.74-2.66c-.141-.081-.12-.1.04-.321Zm8,10.3a.707.707,0,0,1-.261.1c-.059,0-.08-.061-.1-.16a24.673,24.673,0,0,0-2.061-5.241c-.08-.161-.06-.2.2-.321l.78-.34a.581.581,0,0,1,.22-.08c.061,0,.08.02.14.1a26.055,26.055,0,0,1,2.18,5.2c.061.181.041.2-.24.34Z" fill="#333"/>
    <path id="パス_411" data-name="パス 411" d="M1636.33,2644.088c1.581-.261,2.741-.481,3.621-.7a2.327,2.327,0,0,0,.7-.261.491.491,0,0,1,.321-.119c.1,0,.139.039.259.119a5.056,5.056,0,0,1,.941.82.565.565,0,0,1,.16.38.442.442,0,0,1-.261.381,3,3,0,0,0-.679.48c-1.46,1.44-2.6,2.64-3.981,4.121a2.484,2.484,0,0,1,.98-.22c1.02,0,1.86.72,2.18,2.14.38,1.781.741,2.1,2.581,2.1a14.712,14.712,0,0,0,3.021-.34c.2-.04.26.061.3.24a8.219,8.219,0,0,1,.1,1.321c0,.16-.079.24-.3.26a17.373,17.373,0,0,1-2.9.26c-2.921,0-3.841-.7-4.241-2.7-.3-1.38-.6-2.06-1.4-2.06a3.172,3.172,0,0,0-2.1,1.1c-.98.941-2.26,2.5-3.08,3.461a.3.3,0,0,1-.4.04,9.786,9.786,0,0,1-1.04-.921c-.12-.119-.08-.279.06-.42,1.381-1.42,2.741-2.8,3.8-3.881,1.059-1.1,2.34-2.54,4.381-4.741-1.861.421-3.4.761-4.942,1.121a6.577,6.577,0,0,0-.94.3.764.764,0,0,1-.38.12c-.12,0-.2-.1-.3-.28a11.283,11.283,0,0,1-.62-1.761A22.864,22.864,0,0,0,1636.33,2644.088Zm5.161-4.2c.181.04.221.12.181.36a8.86,8.86,0,0,1-.4,1.22.282.282,0,0,1-.3.18,30.163,30.163,0,0,1-5.282-1.661.23.23,0,0,1-.16-.3,12.888,12.888,0,0,1,.521-1.42A34.294,34.294,0,0,0,1641.491,2639.887Z" fill="#333"/>
    <path id="パス_412" data-name="パス 412" d="M1655.93,2646.668a6.834,6.834,0,0,1,3.821-1.22c2.9,0,4.8,1.84,4.8,4.581,0,3.12-2.5,5.281-6.762,5.281-2.52,0-3.761-1.081-3.761-2.6a2.394,2.394,0,0,1,2.581-2.24,3.542,3.542,0,0,1,3.561,2.94,3.42,3.42,0,0,0,2.54-3.42,3.094,3.094,0,0,0-3.32-3.14,8.822,8.822,0,0,0-5.341,2.179,22.822,22.822,0,0,0-1.761,1.661c-.2.2-.3.24-.5.04a6.287,6.287,0,0,1-.92-1.02c-.1-.12-.06-.221.08-.36a56.827,56.827,0,0,0,4.66-4.441c1.221-1.261,2.3-2.481,3.6-4-1.461.239-3.041.56-4.6.86a3.532,3.532,0,0,0-.759.2,1.076,1.076,0,0,1-.38.1c-.181,0-.281-.08-.381-.28a7.352,7.352,0,0,1-.56-1.681,7.7,7.7,0,0,0,1.8.021c1.421-.141,3.121-.38,4.781-.7a2.582,2.582,0,0,0,.821-.24.82.82,0,0,1,.34-.14.65.65,0,0,1,.4.159,6.49,6.49,0,0,1,1.06,1.021.639.639,0,0,1,.18.4.463.463,0,0,1-.32.42,2.508,2.508,0,0,0-.92.681c-1.641,1.679-3,3.08-4.8,4.88Zm.74,5.142c-.66,0-1.16.339-1.16.9,0,.66.64,1.141,1.961,1.161a5.691,5.691,0,0,0,1.16-.1C1658.37,2652.609,1657.67,2651.81,1656.67,2651.81Z" fill="#333"/>
    <path id="パス_413" data-name="パス 413" d="M1679.231,2646.068a11.656,11.656,0,0,1-1.219,5.2,9.529,9.529,0,0,1-3.541,3.78c-.321.2-.561.3-.8.06a3.368,3.368,0,0,0-1.421-.84,8.558,8.558,0,0,0,3.941-3.621,9.5,9.5,0,0,0,1.02-4.581h-3.921c-1,0-2.02.06-2.94.12-.2.02-.241-.1-.26-.34a9.3,9.3,0,0,1-.141-1.5c1.141.08,2.2.1,3.341.1h8.782c1.46,0,2.541-.019,3.761-.1.18,0,.22.08.22.34v1.16c0,.22-.1.3-.28.3-1.121-.04-2.361-.08-3.681-.08Zm-3.58-4.521c-.9,0-1.821.02-2.84.08-.241.02-.281-.08-.3-.3a14.463,14.463,0,0,1-.119-1.5c1.28.08,2.36.1,3.26.1h4.141c1.08,0,2.34,0,3.381-.061.18-.019.22.08.22.3a5.052,5.052,0,0,1,0,1.1c0,.26-.04.32-.241.32-1.08-.04-2.3-.04-3.36-.04Z" fill="#333"/>
    <path id="パス_414" data-name="パス 414" d="M1701.472,2641.827a1.629,1.629,0,0,0,1-.22c.16-.12.34-.08.54.06a7.3,7.3,0,0,1,1.06.84.441.441,0,0,1,.04.721,2.069,2.069,0,0,0-.58.759,27.66,27.66,0,0,1-3.9,6.222,25.076,25.076,0,0,1-6.181,5.1.435.435,0,0,1-.581-.081,3.9,3.9,0,0,0-1.5-.739,22.164,22.164,0,0,0,6.621-5.2,21.432,21.432,0,0,0,3.741-5.941l-5.321.16a29.471,29.471,0,0,1-3.881,4.2.457.457,0,0,1-.66.061,4.009,4.009,0,0,0-1.42-.6,22.052,22.052,0,0,0,5.281-5.881,6.6,6.6,0,0,0,1.081-2.581,6.984,6.984,0,0,1,1.879.86.318.318,0,0,1-.019.58,2.368,2.368,0,0,0-.54.621c-.28.42-.481.76-.74,1.14Z" fill="#333"/>
    <path id="パス_415" data-name="パス 415" d="M1720.452,2640.646a.361.361,0,0,1,.08.581,4.747,4.747,0,0,0-.88,1.42,32.665,32.665,0,0,1-3.581,6.1,24.174,24.174,0,0,1-5.981,5.661.467.467,0,0,1-.64-.02,4.36,4.36,0,0,0-1.48-.781,23.748,23.748,0,0,0,6.461-5.821,25.782,25.782,0,0,0,3.241-5.641,9.218,9.218,0,0,0,.68-2.5A10.848,10.848,0,0,1,1720.452,2640.646Z" fill="#333"/>
    <path id="パス_416" data-name="パス 416" d="M1736.973,2640.927a2.352,2.352,0,0,0,1.24-.18.409.409,0,0,1,.46.08,5.853,5.853,0,0,1,1.04,1.06c.14.2.1.341-.12.54a3.492,3.492,0,0,0-.66.8,32.307,32.307,0,0,1-2.781,4.06,43.284,43.284,0,0,1,5.641,4.941c.181.18.2.26.02.5a11.329,11.329,0,0,1-.98.981c-.16.16-.28.14-.44-.04a35.042,35.042,0,0,0-5.361-5.022,30.08,30.08,0,0,1-6.981,5.461c-.261.141-.441.2-.62-.019a4.23,4.23,0,0,0-1.341-.981,24.953,24.953,0,0,0,7.222-5.3,24.3,24.3,0,0,0,3.781-5.2h-5.622c-1.1,0-2.04.06-3,.121-.181,0-.221-.081-.261-.281a8.894,8.894,0,0,1-.14-1.6c1.021.08,1.961.08,3.221.08Z" fill="#333"/>
    <path id="パス_417" data-name="パス 417" d="M1755.911,2641.587c.18-.06.24-.04.28.141a10.91,10.91,0,0,1,.121,1.179c.019.18-.041.22-.2.24-1.08.22-2.12.38-3.321.56a51.239,51.239,0,0,1-3.98,8.5c-.1.2-.2.181-.38.08a9.892,9.892,0,0,1-1.08-.78c-.141-.12-.161-.22-.021-.4a36.466,36.466,0,0,0,3.621-7.242c-.8.061-1.5.1-2.261.1a10.285,10.285,0,0,1-1.059-.04c-.2,0-.221-.04-.261-.26a6.969,6.969,0,0,1-.16-1.3c.721.06,1.221.08,1.7.08a22.424,22.424,0,0,0,2.5-.139c.24-.8.4-1.5.561-2.3a7.189,7.189,0,0,0,.159-1.58,13.253,13.253,0,0,1,1.921.4.274.274,0,0,1,.24.261.451.451,0,0,1-.16.34,1.555,1.555,0,0,0-.3.66c-.2.62-.4,1.38-.6,2.02A23.315,23.315,0,0,0,1755.911,2641.587Zm.9,5.061a8.612,8.612,0,0,0-.141-1.34,9.507,9.507,0,0,1,1.761.3.3.3,0,0,1,.259.281,1.423,1.423,0,0,1-.12.38,2.446,2.446,0,0,0-.079.9,32.1,32.1,0,0,0,.22,3.561,16.132,16.132,0,0,1,3.681,1.94c.179.12.179.181.1.36a7.556,7.556,0,0,1-.66,1.2c-.119.161-.22.141-.34.021a12.22,12.22,0,0,0-2.78-1.82c.019,2.02-1.181,3.04-3.661,3.04-1.8,0-3.361-.94-3.361-2.6,0-1.62,1.46-2.721,3.541-2.721a8.673,8.673,0,0,1,1.8.2C1756.911,2649.089,1756.831,2647.668,1756.812,2646.648Zm-1.541,4.9c-1.36,0-2.1.54-2.1,1.261,0,.82.66,1.2,1.9,1.2,1.42,0,2.04-.74,2.04-1.7a2.723,2.723,0,0,0-.019-.441A6,6,0,0,0,1755.271,2651.549Zm3.541-9.281c.12-.181.2-.2.379-.121a14.434,14.434,0,0,1,3.921,1.88c.181.12.181.2.061.4a6.065,6.065,0,0,1-.641,1.1c-.1.16-.16.16-.3.06a14.544,14.544,0,0,0-4.121-2.1C1758.372,2643.027,1758.611,2642.567,1758.812,2642.268Z" fill="#333"/>
    <path id="パス_418" data-name="パス 418" d="M1771.151,2643.407c.281.16.321.34.161.58a3.4,3.4,0,0,0-.34,1,39.832,39.832,0,0,0-.541,4.161,9.492,9.492,0,0,1,6.822-3.42c2.8,0,4.461,1.621,4.461,4.041a4.7,4.7,0,0,1-3.021,4.34,15.736,15.736,0,0,1-4.962,1.361c-.379.04-.5.04-.639-.22a3.905,3.905,0,0,0-1.1-1.261,16.149,16.149,0,0,0,5.462-1.2,3.439,3.439,0,0,0,2.38-3.2c0-1.28-.82-2.3-2.74-2.3-1.861,0-4.022,1.16-5.862,3.061a4.634,4.634,0,0,0-.86,1.14c-.12.18-.18.18-.38.12a11.018,11.018,0,0,1-1.08-.42c-.16-.08-.221-.12-.221-.34a62.993,62.993,0,0,1,.6-6.362,11.94,11.94,0,0,0,.16-1.719A8,8,0,0,1,1771.151,2643.407Zm.76-4.961a.262.262,0,0,1,.32-.08,12.746,12.746,0,0,1,3.761,2.321c.141.12.141.18.04.36a9.814,9.814,0,0,1-.82,1.1c-.14.161-.24.18-.38.02a14.836,14.836,0,0,0-3.86-2.521A8.146,8.146,0,0,1,1771.911,2638.446Z" fill="#333"/>
    <path id="パス_419" data-name="パス 419" d="M1795.832,2642.327c-2.761.46-5.182.88-7.542,1.38a6.493,6.493,0,0,0-1.221.32,1.1,1.1,0,0,1-.4.161.362.362,0,0,1-.32-.241,13.749,13.749,0,0,1-.64-1.74,17.6,17.6,0,0,0,2.78-.28c2.761-.42,6.961-1.04,12.242-1.72.241-.02.341.06.361.18a9.375,9.375,0,0,1,.179,1.32c0,.22-.1.26-.319.28a8.417,8.417,0,0,0-2.721.52c-3.06,1.161-5.081,3.581-5.081,6.141,0,3,2.46,4.162,5.561,4.4.28.019.36.059.36.239a5.551,5.551,0,0,1-.16,1.28c-.04.261-.12.361-.34.341-3.5-.16-7.241-1.841-7.241-5.941,0-2.821,1.62-4.982,4.5-6.6Zm3.021,2.581c.08-.06.139-.06.259.02a10.232,10.232,0,0,1,2.2,2.4c.08.12.06.22-.041.28l-.719.56c-.12.08-.24.1-.321-.039a9.53,9.53,0,0,0-2.3-2.581Zm1.86-1.421a.188.188,0,0,1,.26,0,10.693,10.693,0,0,1,2.22,2.341c.08.12.06.2-.06.32l-.7.56a.172.172,0,0,1-.28-.06,10.952,10.952,0,0,0-2.3-2.541Z" fill="#333"/>
    <path id="パス_420" data-name="パス 420" d="M1811.591,2639.807c.3.179.3.38.139.66a3.481,3.481,0,0,0-.339,1.04,40.186,40.186,0,0,0-.981,7.342c0,1,0,2,.08,3.081.42-1,.861-1.941,1.34-3.062a4.124,4.124,0,0,0,.6,1.021.393.393,0,0,1,.019.5,13.671,13.671,0,0,0-1.12,3.121,3.168,3.168,0,0,0-.019.96.213.213,0,0,1-.161.259,6.549,6.549,0,0,1-1.24.3c-.18.02-.24,0-.32-.2a17.858,17.858,0,0,1-.8-6.021,44.774,44.774,0,0,1,.84-7.462,9.629,9.629,0,0,0,.12-2.141A8.648,8.648,0,0,1,1811.591,2639.807Zm7.281,4.961a38.283,38.283,0,0,1-4.281,0c-.18,0-.26-.04-.279-.22a8.97,8.97,0,0,1-.121-1.381,29.809,29.809,0,0,0,4.641.04v-2.22a7.72,7.72,0,0,0-.22-1.86,9.393,9.393,0,0,1,1.96.319c.16.061.281.141.281.281a.732.732,0,0,1-.1.3,2.344,2.344,0,0,0-.159.861c-.04.7-.04,1.341-.04,2.2,1-.1,2.04-.26,3-.44.2-.04.22,0,.24.18a5.866,5.866,0,0,1,.1,1.061c0,.16-.061.24-.161.259a21.578,21.578,0,0,1-3.2.46c.021,2.3.061,3.982.16,5.762a13.936,13.936,0,0,1,3.421,2c.14.1.14.141.06.32a4.986,4.986,0,0,1-.7,1.161c-.08.139-.18.12-.28.02a12.051,12.051,0,0,0-2.52-1.761c-.1,1.741-1.161,2.681-3.482,2.681-2.08,0-3.34-.94-3.34-2.5s1.42-2.58,3.281-2.58a9.636,9.636,0,0,1,1.86.2C1818.912,2648.309,1818.872,2646.628,1818.872,2644.768Zm-1.86,6.361c-1.021,0-1.7.42-1.7,1.12s.6,1.1,1.82,1.1c1.24,0,1.92-.6,1.92-1.54a2.3,2.3,0,0,0-.02-.361A6.642,6.642,0,0,0,1817.012,2651.129Z" fill="#333"/>
    <path id="パス_421" data-name="パス 421" d="M1835.972,2650.769c-.861,1.48-1.821,2.161-3.141,2.161-1.6,0-3.181-1.741-3.181-4.8a7.326,7.326,0,0,1,2.3-5.2,8.579,8.579,0,0,1,6.2-2.341c4.641,0,7.341,2.74,7.341,6.642,0,3.46-2.04,5.96-6.261,7.121a.528.528,0,0,1-.68-.281,2.9,2.9,0,0,0-1.04-.96c3.72-.8,6.161-2.62,6.161-6.141a4.857,4.857,0,0,0-5.121-4.861A23.092,23.092,0,0,1,1835.972,2650.769Zm-2.9-6.742a6,6,0,0,0-1.76,4.041c0,2.04.8,3,1.48,3,.62,0,1.16-.36,1.721-1.36a21.686,21.686,0,0,0,2.259-7.521A6.457,6.457,0,0,0,1833.071,2644.027Z" fill="#333"/>
    <path id="パス_422" data-name="パス 422" d="M1557.432,2720.582v-7.632h-14.616v-6.912l10.584-36.72h7.776l-11.016,36.72h7.272v-14.616h7.344v14.616h3.528v6.912h-3.528v7.632Z" fill="#00ad93"/>
    <path id="パス_423" data-name="パス 423" d="M1585.51,2693.154c6.159-2.08,11.158-3.319,14.4-3.319,7.159,0,11.758,4.319,11.758,10.6,0,5.239-2.279,8.558-7.038,11.118-3.36,1.88-6.48,2.519-10.159,3.32-.8.159-1.119.119-1.4-.641a7.416,7.416,0,0,0-2.8-3.159c5.279-.88,8.119-1.639,10.838-2.96,3.4-1.719,5.519-4.279,5.519-7.958,0-3.759-2.439-6.079-6.879-6.079-3.6,0-8.358,1.44-14.437,4.119a25.421,25.421,0,0,0-2.76,1.44c-.56.48-.88.6-1.079.6-.4,0-.72-.24-1.16-.839a23.292,23.292,0,0,1-2.56-4.16C1579.511,2695.034,1580.99,2694.674,1585.51,2693.154Z" fill="#e65290"/>
    <path id="パス_424" data-name="パス 424" d="M1641.429,2691.635c-.92,6.8-2.6,13.037-5,17.237-1.72,3-3.8,4.6-6.8,4.6-3.519,0-7.078-3.759-7.078-10.279a14.739,14.739,0,0,1,4.518-10.4,17.5,17.5,0,0,1,13-5.119c9.6,0,15.238,5.919,15.238,13.878,0,7.438-4.2,12.118-12.318,14.557-.84.241-1.2.08-1.719-.719a8.5,8.5,0,0,0-2.8-2.52c6.759-1.6,12.078-4.4,12.078-11.958a9.084,9.084,0,0,0-8.959-9.278Zm-11.479,3.879a11.517,11.517,0,0,0-3.119,7.4c0,3.679,1.48,5.719,2.719,5.719,1.04,0,1.92-.521,3-2.44a45.694,45.694,0,0,0,4.239-14.318A12.051,12.051,0,0,0,1629.95,2695.514Z" fill="#00ace6"/>
    <path id="パス_425" data-name="パス 425" d="M1696.066,2709.911c0,1.84.08,3.56.08,4.96,0,1.48-.24,2.6-1.36,3.4-.88.6-2.6.878-5.318.878-1.2,0-1.24.04-1.521-1.239a8.572,8.572,0,0,0-1.239-3,30.651,30.651,0,0,0,4.279.08c.88-.04,1.119-.359,1.119-1.239v-7.919h-7.877c-3.8,0-5.08.08-5.32.08-.4,0-.44-.04-.44-.439v-2.04a5.981,5.981,0,0,1-.76.4c-.88.481-1.84.92-2.8,1.4v6.679c0,4.56.079,6.839.079,7.039,0,.4-.039.44-.479.44h-3.2c-.4,0-.441-.04-.441-.44,0-.24.08-2.479.08-7v-4.879l-2.8,1.2a4.02,4.02,0,0,0-1.319.8.961.961,0,0,1-.68.361c-.28,0-.44-.08-.6-.441a36.923,36.923,0,0,1-1.321-3.879,20.213,20.213,0,0,0,3.72-1.08q1.5-.479,3-1.08v-8.2h-2.359a42.618,42.618,0,0,1-.92,4.6c-.16.679-.24.959-.48.959a2.572,2.572,0,0,1-.92-.4,14.46,14.46,0,0,0-2.2-.8,43.57,43.57,0,0,0,1.68-10.478,18.5,18.5,0,0,0-.04-2.56c1.04.12,2.24.28,3.24.481.48.12.64.239.64.479a1.325,1.325,0,0,1-.2.64,4.645,4.645,0,0,0-.2,1.36l-.16,1.959h1.92v-2.239a42.678,42.678,0,0,0-.319-6.039c1.519.04,2.719.12,4.119.28.4.04.64.2.64.4a2.2,2.2,0,0,1-.241.839c-.2.481-.239,1.481-.239,4.44v2.319c2.2,0,3.039-.079,3.239-.079.44,0,.48.04.48.4v3.081c0,.239-.04.359-.12.4.32,0,1.679.08,5.319.08h2.92v-4h-1.64c-3.559,0-4.719.08-4.96.08-.439,0-.479-.04-.479-.44v-2.84c0-.4.04-.44.479-.44.241,0,1.4.08,4.96.08h1.64a22.893,22.893,0,0,0-.36-4.559c1.559.04,2.8.16,4.2.32.4.04.64.16.64.4a2.032,2.032,0,0,1-.24.8,9.067,9.067,0,0,0-.28,3.04h2.8c3.6,0,4.8-.08,5.039-.08.4,0,.439.04.439.44v2.84c0,.4-.04.44-.439.44-.24,0-1.44-.08-5.039-.08h-2.8v4h4.4c3.8,0,5.12-.08,5.32-.08.4,0,.439.04.439.4v2.839c0,.4-.04.441-.439.441-.2,0-1.521-.08-5.32-.08h-11.278c-3.839,0-5.159.08-5.4.08-.4,0-.44-.04-.44-.441v-2.839c0-.2,0-.28.08-.36-.28,0-1.12-.04-3.159-.08v6.518c1.159-.559,2.4-1.119,3.679-1.8,0,.759.04,1.758.12,2.638h.2c.24,0,1.52.08,5.32.08h7.877a15.184,15.184,0,0,0-.279-3.2,34.2,34.2,0,0,1,4.079.441c.4.08.64.279.64.479a1.264,1.264,0,0,1-.24.68,3.116,3.116,0,0,0-.24,1.6c2.959,0,4.08-.08,4.28-.08.4,0,.439.04.439.441v2.92c0,.4-.04.439-.439.439-.2,0-1.321-.04-4.28-.08Zm-13-2.8c.44-.24.56-.24.84.04a31.7,31.7,0,0,1,3.879,4.639c.24.36.2.44-.239.76l-2.4,1.72c-.24.16-.36.24-.48.24s-.2-.12-.28-.321a24.88,24.88,0,0,0-3.679-5c-.28-.359-.24-.439.2-.719Z" fill="#ee8a00"/>
    <path id="パス_426" data-name="パス 426" d="M1714.271,2704.513c-3.56,0-4.8.08-5.04.08-.36,0-.4-.04-.4-.441v-2.959c0-.4.04-.44.4-.44.241,0,1.48.08,5.04.08h1.2v-11.6c0-2.92-.08-4.279-.08-4.519,0-.4.04-.441.439-.441.24,0,1.64.08,5.52.08h13.357c3.88,0,5.2-.08,5.439-.08.44,0,.48.04.48.441v2.919c0,.36-.04.4-.48.4-.24,0-1.559-.08-5.439-.08h-15v2.239h13.317c3.72,0,4.959-.079,5.2-.079.4,0,.439.039.439.48v2.319c0,.4-.04.44-.439.44-.241,0-1.48-.08-5.2-.08H1719.71v2.2h13.317c3.72,0,4.919-.08,5.16-.08.439,0,.479.04.479.48v2.319c0,.4-.04.441-.479.441-.241,0-1.44-.08-5.16-.08H1719.71v2.279h19.2c3.56,0,4.76-.08,5-.08.441,0,.481.04.481.44v2.959c0,.4-.04.441-.481.441-.239,0-1.439-.08-5-.08h-11.278a17.055,17.055,0,0,0,4.2,5.039,33.038,33.038,0,0,0,4.08-3.28,5.829,5.829,0,0,0,1.28-1.639c1.28.8,2.2,1.359,3.2,2.119.28.2.4.36.4.6s-.2.36-.48.4a4,4,0,0,0-1.4.84,43.624,43.624,0,0,1-4.079,2.919,33.242,33.242,0,0,0,10.479,3.439,10.145,10.145,0,0,0-1.72,2.76c-.6,1.24-.6,1.24-1.8.96-8.879-2.319-14.918-6.919-18.157-14.157h-3.919v8.558c2.4-.56,4.839-1.16,7.478-1.92a16.7,16.7,0,0,0-.16,2.52c0,1.279,0,1.279-1.24,1.64-4.4,1.319-8.8,2.439-12.758,3.279a3.4,3.4,0,0,0-1.4.52.882.882,0,0,1-.6.24c-.16,0-.32-.161-.48-.52-.4-1.12-.84-2.76-1.119-3.88a39.191,39.191,0,0,0,4.279-.6l1.76-.36v-9.478Z" fill="#7fbc26"/>
  </g>
</svg>
