<svg xmlns="http://www.w3.org/2000/svg" width="644.612" height="51.264" viewBox="0 0 644.612 51.264">
  <g id="グループ_440" data-name="グループ 440" transform="translate(-186.844 -1882.286)">
    <path id="パス_923" data-name="パス 923" d="M192.668,1908.462v-1.54a12.02,12.02,0,0,0-.168-2.548c.784.027,1.428.056,2.128.14q.336.042.336.252a1.282,1.282,0,0,1-.112.42,5.6,5.6,0,0,0-.14,1.708v1.568h.616c2.24,0,2.94-.057,3.108-.057.252,0,.28.029.28.252v1.429c0,.252-.028.279-.28.279-.168,0-.868-.055-3.108-.055h-.448a15.625,15.625,0,0,0,4.032,4.452,4.2,4.2,0,0,0-.812,1.176c-.14.308-.224.448-.364.448-.112,0-.252-.113-.476-.336a13.562,13.562,0,0,1-2.688-3.724c.084,4.088.168,7.14.168,7.56,0,.252-.028.28-.252.28h-1.624c-.224,0-.252-.028-.252-.28,0-.392.084-3.248.14-7.113a15.984,15.984,0,0,1-4.032,5.1.814.814,0,0,1-.449.252c-.139,0-.251-.141-.447-.448a4.806,4.806,0,0,0-.98-1.2,16.279,16.279,0,0,0,5.488-6.16h-1.26c-2.268,0-3,.055-3.164.055-.224,0-.252-.027-.252-.279v-1.429c0-.223.028-.252.252-.252.168,0,.9.057,3.164.057Zm-.924,13.636c.364.139.392.2.336.448a18.02,18.02,0,0,1-2.632,5.292c-.084.111-.112.168-.2.168a.706.706,0,0,1-.308-.141l-1.148-.756c-.364-.223-.364-.307-.2-.5a13.274,13.274,0,0,0,2.492-4.843c.055-.168.084-.224.168-.224a.87.87,0,0,1,.336.111Zm4.816,3.416c0,.7.14,1.091.448,1.288a7.386,7.386,0,0,0,3,.336c1.988,0,3.024-.056,3.724-.5a3.731,3.731,0,0,0,.9-2.66,6.084,6.084,0,0,0,1.512.672c.588.139.588.223.476.812-.252,1.764-.728,2.491-1.512,2.911-1.064.616-2.436.729-5.208.729-2.324,0-3.808-.113-4.48-.533s-1.008-.895-1.008-2.351v-3.052a15.068,15.068,0,0,0-.168-2.24c.728.027,1.6.111,2.212.195q.42.086.42.253a1.2,1.2,0,0,1-.112.392,4.163,4.163,0,0,0-.2,1.372Zm2.8-5.628c.252-.14.336-.14.5.028a17.931,17.931,0,0,1,3.108,3.388c.14.223.14.307-.168.5l-1.064.7a.788.788,0,0,1-.364.168c-.084,0-.14-.057-.224-.168a15.006,15.006,0,0,0-2.912-3.557c-.168-.168-.14-.279.14-.447ZM207,1905.6c2.212,0,2.912-.055,3.08-.055.224,0,.252.028.252.252,0,.168-.056,1.092-.056,3.3v7.225c0,2.212.056,3.136.056,3.3,0,.223-.028.252-.252.252-.168,0-.868-.056-3.08-.056h-3.752c-2.212,0-2.884.056-3.052.056-.252,0-.28-.029-.28-.252,0-.168.056-1.092.056-3.3V1909.1c0-2.211-.056-3.107-.056-3.3,0-.224.028-.252.28-.252.168,0,.84.055,3.052.055Zm-5.012,1.792v2.353h6.244V1907.4Zm6.244,6.441v-2.408h-6.244v2.408Zm0,1.651h-6.244v2.576h6.244Zm.14,5.769c.308-.141.392-.112.56.055a23.046,23.046,0,0,1,3.164,4.9c.084.2.056.252-.252.448l-1.26.756a.787.787,0,0,1-.364.168c-.084,0-.14-.057-.2-.2a18.363,18.363,0,0,0-3-5.069c-.168-.2-.14-.252.2-.447Z" fill="#333"/>
    <path id="パス_924" data-name="パス 924" d="M223.188,1909.021c.224.113.335.252.335.393a2.073,2.073,0,0,1-.139.615,10.625,10.625,0,0,0-.252,2.66,41.062,41.062,0,0,0,.448,6.357c.392,2.855,1.4,5.04,2.575,5.04.981,0,1.9-1.429,2.8-4.172a6.028,6.028,0,0,0,1.344,1.708.712.712,0,0,1,.223.84c-.923,2.519-2.519,4.4-4.423,4.4-2.352,0-4.34-2.967-5.012-7.5a56,56,0,0,1-.561-7.953,13.656,13.656,0,0,0-.279-3.107A11,11,0,0,1,223.188,1909.021Zm13.131,1.989a.418.418,0,0,1,.5.028,17.613,17.613,0,0,1,5.46,9.659c.057.252-.055.336-.252.449a8.352,8.352,0,0,1-1.735.868c-.252.055-.42-.029-.448-.281a17.44,17.44,0,0,0-5.264-9.744C235.34,1911.514,235.956,1911.206,236.319,1911.01Z" fill="#333"/>
    <path id="パス_925" data-name="パス 925" d="M255.108,1907.4c.365.225.5.365.5.561,0,.168-.055.279-.308.615a4.965,4.965,0,0,0-.588,1.708,45.805,45.805,0,0,0-1.26,9.408,24.68,24.68,0,0,0,.28,4.145c.644-1.429,1.2-2.521,2.016-4.48a8.953,8.953,0,0,0,.84,1.4.553.553,0,0,1,.168.336.929.929,0,0,1-.14.448,43.663,43.663,0,0,0-1.708,4.34,1.931,1.931,0,0,0-.112.784c0,.279.056.476.056.672,0,.168-.056.252-.252.308a16.833,16.833,0,0,1-1.848.364c-.168,0-.279-.112-.336-.309a26.03,26.03,0,0,1-1.26-8.2,52.218,52.218,0,0,1,1.065-9.408,18.247,18.247,0,0,0,.447-3.557A11.418,11.418,0,0,1,255.108,1907.4Zm5.909,13.273c.168,0,.223.084.223.336.14,2.044,1.68,2.884,4.788,2.912a37.091,37.091,0,0,0,5.46-.393c.252-.027.308,0,.336.309a17.541,17.541,0,0,1,.113,1.792c0,.279,0,.308-.393.363a37.037,37.037,0,0,1-4.844.309c-3.555,0-5.4-.532-6.636-1.988a5.367,5.367,0,0,1-1.091-3.472Zm-1.037-10.444c0-.281.084-.365.364-.42a47.4,47.4,0,0,1,5.992-.5,37.273,37.273,0,0,1,4.032.168c.476.028.532.055.532.307,0,.617,0,1.149-.056,1.737,0,.223-.056.307-.308.28-1.344-.112-3.024-.141-4.536-.141a32.867,32.867,0,0,0-6.076.617C259.952,1911.149,259.952,1910.646,259.98,1910.226Z" fill="#333"/>
    <path id="パス_926" data-name="パス 926" d="M283.052,1913.39a56.242,56.242,0,0,1-.5,8.343,19.307,19.307,0,0,1-2.24,6.916c-.14.309-.252.449-.365.449s-.223-.113-.448-.365a4.866,4.866,0,0,0-1.371-1.147,16.553,16.553,0,0,0,2.3-6.664,50.284,50.284,0,0,0,.42-7.9c0-3.416-.057-4.872-.057-5.04,0-.223.029-.252.28-.252.14,0,1.092.057,3.836.057h5.628v-1.513a11.1,11.1,0,0,0-.168-2.267c.813,0,1.6.084,2.325.139.252.029.364.141.364.252a1.312,1.312,0,0,1-.168.533,3.493,3.493,0,0,0-.141,1.288v1.568h6.076c2.716,0,3.64-.057,3.808-.057.252,0,.28.029.28.252v1.6c0,.224-.028.252-.28.252-.168,0-1.092-.057-3.808-.057H283.052Zm.475,12.011c-.336-.168-.336-.252-.223-.475a22.453,22.453,0,0,0,2.3-7.084c.028-.28.055-.28.475-.168l1.2.336c.365.084.393.112.365.364a27.979,27.979,0,0,1-2.325,7.615c-.055.113-.111.168-.168.168a.926.926,0,0,1-.336-.139Zm7.952-.391c0,1.176,0,1.511.449,1.847a4.537,4.537,0,0,0,2.24.309,3.923,3.923,0,0,0,2.38-.477c.615-.475.783-1.511.84-3.751a5.258,5.258,0,0,0,1.511.671c.588.168.588.168.533.785-.2,2.576-.7,3.444-1.485,4.032a7.265,7.265,0,0,1-3.891.7c-2.044,0-3.277-.141-4-.673-.5-.42-.7-.951-.7-2.407v-6.552a30.564,30.564,0,0,0-.2-3.5,14.69,14.69,0,0,1,2.241.224c.28.055.475.112.475.28a1.033,1.033,0,0,1-.224.588,8.69,8.69,0,0,0-.168,2.492Zm-.811-14c.224-.252.252-.281.5-.168a32.485,32.485,0,0,1,5.292,3.555c.111.084.168.141.168.2s-.084.139-.2.28l-.9,1.092c-.308.336-.336.336-.5.168a29.322,29.322,0,0,0-5.235-3.724c-.2-.112-.168-.14.055-.448Zm11.2,14.42a1,1,0,0,1-.363.139c-.084,0-.112-.084-.141-.223a34.412,34.412,0,0,0-2.884-7.336c-.112-.224-.083-.281.281-.448l1.092-.476a.809.809,0,0,1,.307-.112c.084,0,.112.028.2.139a36.4,36.4,0,0,1,3.052,7.281c.084.252.057.28-.336.475Z" fill="#333"/>
    <path id="パス_927" data-name="パス 927" d="M317.492,1912.914c2.212-.364,3.836-.673,5.069-.98a3.3,3.3,0,0,0,.979-.365.692.692,0,0,1,.448-.168c.14,0,.2.057.365.168a7.1,7.1,0,0,1,1.315,1.149.788.788,0,0,1,.225.532.617.617,0,0,1-.365.531,4.225,4.225,0,0,0-.952.673c-2.044,2.016-3.639,3.7-5.572,5.768a3.463,3.463,0,0,1,1.372-.308c1.428,0,2.6,1.008,3.052,3,.532,2.492,1.036,2.941,3.612,2.941a20.671,20.671,0,0,0,4.229-.476c.279-.057.363.084.419.336a11.292,11.292,0,0,1,.14,1.848c0,.223-.112.336-.42.364a24.32,24.32,0,0,1-4.059.363c-4.089,0-5.376-.979-5.937-3.779-.42-1.933-.84-2.884-1.96-2.884a4.433,4.433,0,0,0-2.939,1.54c-1.372,1.316-3.164,3.5-4.313,4.844a.415.415,0,0,1-.559.056,13.272,13.272,0,0,1-1.456-1.289c-.168-.168-.113-.391.084-.587,1.931-1.989,3.835-3.92,5.319-5.432,1.484-1.54,3.276-3.557,6.132-6.637-2.6.589-4.76,1.065-6.915,1.569a9.206,9.206,0,0,0-1.317.419,1.053,1.053,0,0,1-.532.168c-.168,0-.28-.139-.42-.391a16.023,16.023,0,0,1-.868-2.464A31.888,31.888,0,0,0,317.492,1912.914Zm7.224-5.88c.252.056.308.168.252.5a12.259,12.259,0,0,1-.56,1.708.4.4,0,0,1-.42.252,42.4,42.4,0,0,1-7.391-2.324.324.324,0,0,1-.225-.42,18.307,18.307,0,0,1,.729-1.988A47.96,47.96,0,0,0,324.716,1907.034Z" fill="#333"/>
    <path id="パス_928" data-name="パス 928" d="M344.932,1916.525a9.575,9.575,0,0,1,5.348-1.708c4.06,0,6.72,2.577,6.72,6.412,0,4.369-3.5,7.393-9.464,7.393-3.528,0-5.264-1.513-5.264-3.641a3.35,3.35,0,0,1,3.612-3.135,4.958,4.958,0,0,1,4.984,4.116c2.212-.84,3.556-2.269,3.556-4.788a4.332,4.332,0,0,0-4.648-4.4,12.357,12.357,0,0,0-7.476,3.053,31.424,31.424,0,0,0-2.464,2.323c-.28.281-.42.336-.7.057a8.916,8.916,0,0,1-1.288-1.429c-.14-.168-.084-.307.112-.5a79.047,79.047,0,0,0,6.524-6.215c1.708-1.764,3.22-3.472,5.04-5.6-2.044.336-4.256.784-6.44,1.2a5.02,5.02,0,0,0-1.063.279,1.51,1.51,0,0,1-.533.141c-.252,0-.392-.112-.532-.393a10.2,10.2,0,0,1-.784-2.351,10.874,10.874,0,0,0,2.52.028c1.988-.2,4.368-.532,6.692-.98a3.562,3.562,0,0,0,1.148-.336,1.152,1.152,0,0,1,.476-.2.907.907,0,0,1,.56.225,9.153,9.153,0,0,1,1.484,1.428.9.9,0,0,1,.252.559.647.647,0,0,1-.448.588,3.538,3.538,0,0,0-1.288.952c-2.3,2.353-4.2,4.313-6.72,6.832Zm1.036,7.2c-.924,0-1.624.475-1.624,1.259,0,.924.9,1.6,2.744,1.624a8.022,8.022,0,0,0,1.624-.139C348.348,1924.842,347.368,1923.722,345.968,1923.722Z" fill="#333"/>
    <path id="パス_929" data-name="パス 929" d="M377.552,1915.686a16.351,16.351,0,0,1-1.708,7.28,13.332,13.332,0,0,1-4.956,5.292c-.449.28-.784.42-1.12.084a4.693,4.693,0,0,0-1.989-1.176c2.773-1.484,4.368-2.912,5.516-5.068a13.315,13.315,0,0,0,1.429-6.412h-5.489c-1.4,0-2.828.084-4.116.168-.279.028-.336-.14-.363-.476a13.017,13.017,0,0,1-.2-2.1c1.6.113,3.08.141,4.675.141h12.292c2.044,0,3.556-.028,5.264-.141.252,0,.309.113.309.477v1.624c0,.308-.141.42-.393.42-1.567-.057-3.3-.112-5.151-.112Zm-5.013-6.329c-1.26,0-2.548.029-3.976.113-.335.028-.391-.113-.419-.42a20.331,20.331,0,0,1-.168-2.1c1.792.113,3.3.141,4.563.141h5.8c1.513,0,3.276,0,4.732-.084.252-.028.308.112.308.42a6.953,6.953,0,0,1,0,1.54c0,.364-.056.448-.336.448-1.512-.057-3.22-.057-4.7-.057Z" fill="#333"/>
    <path id="パス_930" data-name="パス 930" d="M408.688,1909.75a2.27,2.27,0,0,0,1.4-.309c.225-.168.476-.111.756.084a10.084,10.084,0,0,1,1.484,1.177.617.617,0,0,1,.056,1.008,2.9,2.9,0,0,0-.812,1.063,38.753,38.753,0,0,1-5.46,8.708,35.075,35.075,0,0,1-8.652,7.141.61.61,0,0,1-.812-.112,5.454,5.454,0,0,0-2.1-1.036,31.04,31.04,0,0,0,9.268-7.281,30.005,30.005,0,0,0,5.236-8.315l-7.448.224a41.3,41.3,0,0,1-5.432,5.879.638.638,0,0,1-.924.084,5.591,5.591,0,0,0-1.988-.839,30.885,30.885,0,0,0,7.392-8.232,9.253,9.253,0,0,0,1.512-3.612,9.729,9.729,0,0,1,2.632,1.2.445.445,0,0,1-.027.811,3.317,3.317,0,0,0-.757.869c-.392.588-.672,1.064-1.035,1.595Z" fill="#333"/>
    <path id="パス_931" data-name="パス 931" d="M435.261,1908.1a.5.5,0,0,1,.112.812,6.63,6.63,0,0,0-1.232,1.987,45.778,45.778,0,0,1-5.012,8.541,33.851,33.851,0,0,1-8.372,7.923.651.651,0,0,1-.9-.027,6.076,6.076,0,0,0-2.072-1.093,33.262,33.262,0,0,0,9.044-8.147,36.118,36.118,0,0,0,4.536-7.9,12.891,12.891,0,0,0,.952-3.5A15.075,15.075,0,0,1,435.261,1908.1Z" fill="#333"/>
    <path id="パス_932" data-name="パス 932" d="M458.389,1908.489a3.279,3.279,0,0,0,1.736-.252.575.575,0,0,1,.644.113,8.14,8.14,0,0,1,1.456,1.484c.2.279.14.476-.168.756a4.9,4.9,0,0,0-.924,1.12,45.214,45.214,0,0,1-3.892,5.684,60.462,60.462,0,0,1,7.9,6.916c.252.252.28.364.028.7a16,16,0,0,1-1.372,1.372c-.224.223-.392.2-.616-.057a48.9,48.9,0,0,0-7.5-7.027,42.122,42.122,0,0,1-9.772,7.643c-.364.2-.616.281-.868-.027a5.9,5.9,0,0,0-1.876-1.372,34.922,34.922,0,0,0,10.108-7.42,33.943,33.943,0,0,0,5.292-7.28h-7.868c-1.54,0-2.856.084-4.2.168-.252,0-.308-.113-.364-.392a12.329,12.329,0,0,1-.2-2.24c1.428.111,2.744.111,4.508.111Z" fill="#333"/>
    <path id="パス_933" data-name="パス 933" d="M484.9,1909.414c.253-.084.337-.057.393.2a15.006,15.006,0,0,1,.168,1.653c.028.252-.056.307-.28.336-1.512.307-2.968.532-4.648.784a71.773,71.773,0,0,1-5.572,11.9c-.14.281-.28.252-.532.113a14.151,14.151,0,0,1-1.512-1.092c-.2-.168-.224-.309-.028-.561a51.173,51.173,0,0,0,5.068-10.136c-1.12.084-2.1.141-3.164.141a14.215,14.215,0,0,1-1.485-.057c-.279,0-.307-.055-.363-.363a9.745,9.745,0,0,1-.224-1.82c1.007.084,1.708.112,2.379.112a31.008,31.008,0,0,0,3.5-.2c.336-1.12.561-2.1.785-3.22a10.059,10.059,0,0,0,.224-2.213,18.915,18.915,0,0,1,2.688.561.382.382,0,0,1,.336.364.63.63,0,0,1-.224.476,2.169,2.169,0,0,0-.42.923c-.28.869-.56,1.933-.841,2.829A32.646,32.646,0,0,0,484.9,1909.414Zm1.261,7.084a12,12,0,0,0-.2-1.876,13.024,13.024,0,0,1,2.464.42.414.414,0,0,1,.364.392,1.99,1.99,0,0,1-.168.532,3.369,3.369,0,0,0-.112,1.26,45.294,45.294,0,0,0,.308,4.984,22.443,22.443,0,0,1,5.152,2.716c.251.168.251.252.14.5a10.845,10.845,0,0,1-.925,1.679c-.168.225-.307.2-.475.029a17.2,17.2,0,0,0-3.892-2.548c.028,2.828-1.652,4.256-5.124,4.256-2.52,0-4.7-1.317-4.7-3.64,0-2.268,2.044-3.809,4.956-3.809a12.091,12.091,0,0,1,2.52.281C486.306,1919.914,486.193,1917.926,486.166,1916.5Zm-2.156,6.859c-1.9,0-2.941.756-2.941,1.765,0,1.148.925,1.68,2.66,1.68,1.989,0,2.857-1.036,2.857-2.38a3.589,3.589,0,0,0-.028-.616A8.394,8.394,0,0,0,484.01,1923.357Zm4.956-12.992c.168-.252.28-.279.532-.168a20.177,20.177,0,0,1,5.487,2.633c.252.168.252.279.084.56a8.524,8.524,0,0,1-.895,1.54c-.14.223-.224.223-.42.084a20.405,20.405,0,0,0-5.769-2.941C488.35,1911.43,488.686,1910.786,488.966,1910.365Z" fill="#333"/>
    <path id="パス_934" data-name="パス 934" d="M506.241,1911.962c.392.224.447.476.224.811a4.813,4.813,0,0,0-.476,1.4,56.032,56.032,0,0,0-.756,5.824c2.8-3.053,6.188-4.788,9.548-4.788,3.92,0,6.243,2.268,6.243,5.655,0,2.912-1.679,4.817-4.227,6.076a22.072,22.072,0,0,1-6.944,1.9c-.532.055-.7.055-.9-.308a5.446,5.446,0,0,0-1.54-1.765,22.639,22.639,0,0,0,7.644-1.679c2.24-.981,3.332-2.548,3.332-4.481,0-1.792-1.148-3.219-3.836-3.219-2.6,0-5.628,1.624-8.2,4.284a6.5,6.5,0,0,0-1.2,1.595c-.168.252-.252.252-.531.168a15.648,15.648,0,0,1-1.513-.587c-.223-.113-.307-.168-.307-.476a87.424,87.424,0,0,1,.84-8.9,16.725,16.725,0,0,0,.224-2.409A11.173,11.173,0,0,1,506.241,1911.962Zm1.064-6.944a.364.364,0,0,1,.448-.113,17.871,17.871,0,0,1,5.264,3.248c.2.168.2.252.056.5a13.735,13.735,0,0,1-1.148,1.54c-.2.225-.336.252-.532.029a20.737,20.737,0,0,0-5.4-3.529A11.317,11.317,0,0,1,507.3,1905.018Z" fill="#333"/>
    <path id="パス_935" data-name="パス 935" d="M540.795,1910.449c-3.864.645-7.252,1.233-10.557,1.933a8.791,8.791,0,0,0-1.708.448,1.556,1.556,0,0,1-.559.224.508.508,0,0,1-.449-.336,19.424,19.424,0,0,1-.895-2.437,24.6,24.6,0,0,0,3.892-.391c3.864-.588,9.744-1.456,17.135-2.409.336-.027.477.084.5.252a13.213,13.213,0,0,1,.253,1.849c0,.308-.14.363-.448.392a11.762,11.762,0,0,0-3.809.728c-4.283,1.624-7.111,5.012-7.111,8.6,0,4.2,3.443,5.824,7.784,6.16.392.027.5.084.5.336a7.8,7.8,0,0,1-.225,1.792c-.055.363-.168.5-.475.476-4.9-.224-10.136-2.577-10.136-8.316,0-3.948,2.268-6.973,6.3-9.24Zm4.227,3.613c.113-.084.2-.084.365.028a14.341,14.341,0,0,1,3.08,3.359c.112.168.084.309-.056.393l-1.009.784c-.168.111-.336.14-.447-.057a13.321,13.321,0,0,0-3.221-3.611Zm2.605-1.989a.261.261,0,0,1,.363,0,14.938,14.938,0,0,1,3.109,3.277c.112.168.084.28-.084.448l-.981.784a.241.241,0,0,1-.391-.084,15.312,15.312,0,0,0-3.22-3.557Z" fill="#333"/>
    <path id="パス_936" data-name="パス 936" d="M562.858,1906.922c.42.252.42.532.2.924a4.773,4.773,0,0,0-.477,1.456,56.318,56.318,0,0,0-1.372,10.276c0,1.4,0,2.8.112,4.312.588-1.4,1.2-2.716,1.876-4.285a5.828,5.828,0,0,0,.84,1.428.552.552,0,0,1,.029.7,19.08,19.08,0,0,0-1.569,4.369,4.353,4.353,0,0,0-.027,1.343.3.3,0,0,1-.225.365,9.18,9.18,0,0,1-1.735.419c-.252.029-.336,0-.448-.28a24.962,24.962,0,0,1-1.121-8.428,62.73,62.73,0,0,1,1.176-10.443,13.493,13.493,0,0,0,.168-3A12,12,0,0,1,562.858,1906.922Zm10.193,6.943a53.229,53.229,0,0,1-5.992,0c-.252,0-.365-.055-.392-.307a12.592,12.592,0,0,1-.169-1.932,42.336,42.336,0,0,0,6.5.056v-3.109a10.852,10.852,0,0,0-.307-2.6,13.2,13.2,0,0,1,2.744.448c.223.084.391.2.391.392a1.038,1.038,0,0,1-.139.419,3.272,3.272,0,0,0-.225,1.2c-.056.98-.056,1.876-.056,3.08,1.4-.14,2.857-.365,4.2-.617.28-.055.307,0,.335.252a8.365,8.365,0,0,1,.14,1.485c0,.223-.084.336-.224.364a30.347,30.347,0,0,1-4.48.644c.028,3.219.084,5.572.225,8.064a19.556,19.556,0,0,1,4.788,2.8c.195.14.195.2.084.448a6.971,6.971,0,0,1-.981,1.623c-.111.2-.252.169-.391.028a16.892,16.892,0,0,0-3.529-2.463c-.139,2.435-1.624,3.752-4.872,3.752-2.912,0-4.676-1.317-4.676-3.5s1.989-3.613,4.592-3.613a13.484,13.484,0,0,1,2.6.281C573.106,1918.821,573.051,1916.47,573.051,1913.865Zm-2.605,8.905c-1.427,0-2.38.587-2.38,1.568s.84,1.54,2.548,1.54c1.737,0,2.689-.84,2.689-2.156a3.107,3.107,0,0,0-.029-.5A9.264,9.264,0,0,0,570.446,1922.77Z" fill="#333"/>
    <path id="パス_937" data-name="パス 937" d="M596.99,1922.266c-1.2,2.072-2.548,3.024-4.4,3.024-2.24,0-4.451-2.436-4.451-6.721a10.261,10.261,0,0,1,3.219-7.279,12.008,12.008,0,0,1,8.68-3.276c6.5,0,10.276,3.836,10.276,9.3,0,4.843-2.856,8.343-8.764,9.967a.736.736,0,0,1-.951-.391,4.045,4.045,0,0,0-1.457-1.344c5.208-1.12,8.625-3.668,8.625-8.6a6.8,6.8,0,0,0-7.168-6.8C600.042,1914.874,598.727,1919.382,596.99,1922.266Zm-4.06-9.436a8.394,8.394,0,0,0-2.464,5.655c0,2.857,1.12,4.2,2.072,4.2.868,0,1.624-.5,2.408-1.905a30.363,30.363,0,0,0,3.164-10.527A9.045,9.045,0,0,0,592.93,1912.83Z" fill="#333"/>
    <path id="パス_938" data-name="パス 938" d="M643.582,1933.55v-7.632H628.967v-6.912l10.584-36.72h7.775l-11.015,36.72h7.271V1904.39h7.345v14.616h3.527v6.912h-3.527v7.632Z" fill="#00ad93"/>
    <path id="パス_939" data-name="パス 939" d="M671.66,1906.122c6.159-2.08,11.158-3.319,14.4-3.319,7.159,0,11.757,4.319,11.757,10.6,0,5.24-2.279,8.559-7.038,11.119-3.36,1.879-6.479,2.519-10.159,3.319-.8.16-1.119.12-1.4-.64a7.426,7.426,0,0,0-2.8-3.159c5.279-.88,8.119-1.64,10.839-2.96,3.4-1.72,5.518-4.279,5.518-7.958,0-3.76-2.439-6.079-6.879-6.079-3.6,0-8.358,1.439-14.437,4.119a25.672,25.672,0,0,0-2.76,1.44c-.559.48-.88.6-1.079.6-.4,0-.72-.24-1.16-.84a23.246,23.246,0,0,1-2.56-4.159C665.661,1908,667.141,1907.642,671.66,1906.122Z" fill="#e65290"/>
    <path id="パス_940" data-name="パス 940" d="M727.579,1904.6c-.92,6.8-2.6,13.037-5,17.237-1.72,3-3.8,4.6-6.8,4.6-3.518,0-7.078-3.758-7.078-10.278a14.738,14.738,0,0,1,4.519-10.4,17.5,17.5,0,0,1,13-5.119c9.6,0,15.237,5.919,15.237,13.878,0,7.438-4.2,12.118-12.317,14.557-.84.24-1.2.08-1.72-.72a8.494,8.494,0,0,0-2.8-2.519c6.759-1.6,12.078-4.4,12.078-11.958a9.083,9.083,0,0,0-8.959-9.278Zm-11.478,3.878a11.521,11.521,0,0,0-3.12,7.4c0,3.679,1.48,5.719,2.719,5.719,1.04,0,1.92-.521,3-2.44a45.672,45.672,0,0,0,4.239-14.318A12.04,12.04,0,0,0,716.1,1908.481Z" fill="#00ace6"/>
    <path id="パス_941" data-name="パス 941" d="M782.217,1922.879c0,1.84.08,3.559.08,4.959,0,1.48-.24,2.6-1.36,3.4-.88.6-2.6.879-5.319.879-1.2,0-1.24.04-1.52-1.239a8.588,8.588,0,0,0-1.24-3,30.7,30.7,0,0,0,4.28.08c.88-.04,1.119-.359,1.119-1.239V1918.8h-7.878c-3.8,0-5.079.08-5.319.08-.4,0-.441-.04-.441-.44v-2.04a5.782,5.782,0,0,1-.76.4c-.88.48-1.839.92-2.8,1.4v6.679c0,4.559.079,6.839.079,7.039,0,.4-.039.439-.48.439h-3.2c-.4,0-.44-.04-.44-.439,0-.24.08-2.48.08-7v-4.879l-2.8,1.2a4.031,4.031,0,0,0-1.32.8.959.959,0,0,1-.679.36c-.281,0-.441-.08-.6-.44a36.888,36.888,0,0,1-1.32-3.879,20.254,20.254,0,0,0,3.72-1.08q1.5-.478,3-1.08v-8.2h-2.36a42.343,42.343,0,0,1-.92,4.6c-.16.68-.24.96-.479.96a2.566,2.566,0,0,1-.92-.4,14.535,14.535,0,0,0-2.2-.8A43.553,43.553,0,0,0,751.9,1901.6a18.51,18.51,0,0,0-.04-2.56c1.04.12,2.241.28,3.241.48.479.121.639.24.639.48a1.328,1.328,0,0,1-.2.64,4.646,4.646,0,0,0-.2,1.36l-.16,1.959h1.92v-2.239a42.514,42.514,0,0,0-.32-6.039c1.52.04,2.719.12,4.119.28.4.04.64.2.64.4a2.215,2.215,0,0,1-.24.84c-.2.481-.239,1.481-.239,4.44v2.319c2.2,0,3.039-.079,3.239-.079.439,0,.479.04.479.4v3.079c0,.241-.04.361-.12.4.32,0,1.68.08,5.32.08H772.9v-4h-1.639c-3.56,0-4.72.08-4.96.08-.44,0-.48-.04-.48-.441v-2.839c0-.4.04-.44.48-.44.24,0,1.4.08,4.96.08H772.9a22.906,22.906,0,0,0-.36-4.559c1.56.04,2.8.16,4.2.32.4.04.64.16.64.4a2.032,2.032,0,0,1-.239.8,9.053,9.053,0,0,0-.281,3.04h2.8c3.6,0,4.8-.08,5.039-.08.4,0,.44.04.44.44v2.839c0,.4-.04.441-.44.441-.24,0-1.439-.08-5.039-.08h-2.8v4h4.4c3.8,0,5.119-.08,5.319-.08.4,0,.44.04.44.4V1911c0,.4-.04.44-.44.44-.2,0-1.52-.08-5.319-.08H769.979c-3.839,0-5.16.08-5.4.08-.4,0-.439-.04-.439-.44v-2.839c0-.2,0-.28.08-.36-.281,0-1.12-.04-3.159-.08v6.518c1.159-.559,2.4-1.119,3.678-1.8,0,.76.04,1.759.12,2.639h.2c.24,0,1.519.08,5.319.08h7.878a15.19,15.19,0,0,0-.279-3.2,34.474,34.474,0,0,1,4.079.44c.4.079.639.28.639.48a1.268,1.268,0,0,1-.24.68,3.131,3.131,0,0,0-.239,1.6c2.959,0,4.079-.08,4.279-.08.4,0,.44.04.44.441v2.919c0,.4-.04.44-.44.44-.2,0-1.32-.04-4.279-.08Zm-13-2.8c.439-.24.559-.24.84.04a31.781,31.781,0,0,1,3.879,4.639c.24.36.2.44-.24.76l-2.4,1.719c-.24.16-.361.241-.481.241s-.2-.121-.28-.321a24.841,24.841,0,0,0-3.679-5c-.28-.359-.24-.439.2-.72Z" fill="#ee8a00"/>
    <path id="パス_942" data-name="パス 942" d="M800.421,1917.48c-3.56,0-4.8.081-5.039.081-.361,0-.4-.04-.4-.441v-2.959c0-.4.04-.44.4-.44.24,0,1.479.08,5.039.08h1.2v-11.6c0-2.92-.08-4.279-.08-4.519,0-.4.04-.441.439-.441.241,0,1.64.08,5.52.08h13.357c3.88,0,5.2-.08,5.44-.08.439,0,.479.04.479.441v2.919c0,.36-.04.4-.479.4-.24,0-1.56-.08-5.44-.08h-15v2.239h13.318c3.719,0,4.959-.079,5.2-.079.4,0,.439.039.439.48v2.319c0,.4-.04.44-.439.44-.24,0-1.48-.08-5.2-.08H805.86v2.2h13.318c3.719,0,4.919-.08,5.159-.08.439,0,.479.04.479.481v2.319c0,.4-.04.441-.479.441-.24,0-1.44-.081-5.159-.081H805.86v2.28h19.2c3.559,0,4.759-.08,5-.08.44,0,.48.04.48.44v2.959c0,.4-.04.441-.48.441-.24,0-1.44-.081-5-.081H813.778a17.06,17.06,0,0,0,4.2,5.04,33.3,33.3,0,0,0,4.08-3.28,5.828,5.828,0,0,0,1.279-1.64c1.28.8,2.2,1.36,3.2,2.12.28.2.4.36.4.6s-.2.361-.481.4a4,4,0,0,0-1.4.84,44.252,44.252,0,0,1-4.079,2.919,33.256,33.256,0,0,0,10.478,3.439,10.172,10.172,0,0,0-1.72,2.76c-.6,1.24-.6,1.24-1.8.96-8.879-2.32-14.918-6.919-18.158-14.158H805.86v8.559c2.4-.56,4.839-1.16,7.479-1.92a16.693,16.693,0,0,0-.16,2.52c0,1.279,0,1.279-1.241,1.639-4.4,1.32-8.8,2.44-12.757,3.28a3.408,3.408,0,0,0-1.4.52.883.883,0,0,1-.6.239c-.161,0-.321-.16-.481-.519-.4-1.12-.84-2.76-1.119-3.88a38.9,38.9,0,0,0,4.279-.6l1.76-.359v-9.479Z" fill="#7fbc26"/>
  </g>
</svg>
