<svg xmlns="http://www.w3.org/2000/svg" width="45.044" height="42.026" viewBox="0 0 45.044 42.026">
  <g id="グループ_279" data-name="グループ 279" transform="translate(-506.642 -1972.829)">
    <path id="パス_606" data-name="パス 606" d="M506.642,1981.71a9.024,9.024,0,0,1,.725-3.715,8.7,8.7,0,0,1,1.945-2.786,8.388,8.388,0,0,1,2.815-1.771,9.45,9.45,0,0,1,6.675,0,8.4,8.4,0,0,1,2.816,1.771,8.712,8.712,0,0,1,1.944,2.786,9.041,9.041,0,0,1,.726,3.715v24.264a9.03,9.03,0,0,1-.726,3.714,8.719,8.719,0,0,1-1.944,2.788,8.382,8.382,0,0,1-2.816,1.77,9.45,9.45,0,0,1-6.675,0,8.368,8.368,0,0,1-2.815-1.77,8.705,8.705,0,0,1-1.945-2.788,9.013,9.013,0,0,1-.725-3.714Zm5.921,24.264a2.927,2.927,0,0,0,.812,2.119,3.014,3.014,0,0,0,4.179,0,2.928,2.928,0,0,0,.813-2.119V1981.71a2.925,2.925,0,0,0-.813-2.118,3.014,3.014,0,0,0-4.179,0,2.925,2.925,0,0,0-.812,2.118Z" fill="#00ace6"/>
    <path id="パス_607" data-name="パス 607" d="M534.04,2014.507v-5.572l10.68-20.143a7.364,7.364,0,0,0,.929-2.641q.116-1.133.116-2.815,0-.755-.029-1.6a3.9,3.9,0,0,0-.319-1.48,2.5,2.5,0,0,0-2.554-1.509,2.674,2.674,0,0,0-2.9,2.96v3.367h-5.92v-3.251a8.738,8.738,0,0,1,.7-3.482,9.03,9.03,0,0,1,1.915-2.845,8.7,8.7,0,0,1,2.787-1.944,8.438,8.438,0,0,1,3.483-.726,8.683,8.683,0,0,1,3.976.842,7.94,7.94,0,0,1,2.757,2.293,9.994,9.994,0,0,1,1.538,3.308,15.329,15.329,0,0,1,.494,3.948q0,1.511-.059,2.525a15.164,15.164,0,0,1-.231,1.944,8.658,8.658,0,0,1-.581,1.858q-.406.929-1.1,2.264l-8.707,16.775h10.681v5.921Z" fill="#00ace6"/>
  </g>
</svg>
