<svg xmlns="http://www.w3.org/2000/svg" width="45.044" height="42.026" viewBox="0 0 45.044 42.026">
  <g id="グループ_205" data-name="グループ 205" transform="translate(-1562.142 -3860.829)">
    <path id="パス_403" data-name="パス 403" d="M1562.142,3869.71a9.025,9.025,0,0,1,.725-3.715,8.7,8.7,0,0,1,1.945-2.786,8.388,8.388,0,0,1,2.815-1.771,9.452,9.452,0,0,1,6.675,0,8.4,8.4,0,0,1,2.816,1.771,8.711,8.711,0,0,1,1.944,2.786,9.039,9.039,0,0,1,.726,3.715v24.264a9.029,9.029,0,0,1-.726,3.714,8.722,8.722,0,0,1-1.944,2.788,8.384,8.384,0,0,1-2.816,1.77,9.452,9.452,0,0,1-6.675,0,8.37,8.37,0,0,1-2.815-1.77,8.709,8.709,0,0,1-1.945-2.788,9.015,9.015,0,0,1-.725-3.714Zm5.921,24.264a2.927,2.927,0,0,0,.812,2.119,3.013,3.013,0,0,0,4.179,0,2.928,2.928,0,0,0,.813-2.119V3869.71a2.925,2.925,0,0,0-.813-2.118,3.013,3.013,0,0,0-4.179,0,2.925,2.925,0,0,0-.812,2.118Z" fill="#fff"/>
    <path id="パス_404" data-name="パス 404" d="M1596.563,3878.592a7.477,7.477,0,0,0,3.686-.639q1.016-.639,1.016-2.96v-5.341a2.884,2.884,0,0,0-.784-2.089,2.8,2.8,0,0,0-2.118-.813,2.5,2.5,0,0,0-2.235.987,3.432,3.432,0,0,0-.668,1.915v3.368h-5.92v-3.425a8.6,8.6,0,0,1,.7-3.425,8.349,8.349,0,0,1,1.915-2.786,9.516,9.516,0,0,1,2.845-1.859,8.769,8.769,0,0,1,3.483-.7,7.73,7.73,0,0,1,4.034.958,9.338,9.338,0,0,1,2.409,1.944,12.93,12.93,0,0,1,1.016,1.394,6.793,6.793,0,0,1,.725,1.683,23.1,23.1,0,0,1,.523,5.689q0,2.148-.087,3.482a7.269,7.269,0,0,1-.436,2.207,4.414,4.414,0,0,1-1.132,1.567,13.393,13.393,0,0,1-2,1.393,11.31,11.31,0,0,1,2.118,1.625,4.764,4.764,0,0,1,1.074,1.742,8.927,8.927,0,0,1,.406,2.466q.059,1.423.059,3.628,0,2.032-.087,3.367a17.132,17.132,0,0,1-.262,2.206,6.911,6.911,0,0,1-.464,1.567,9.636,9.636,0,0,1-.754,1.335,9.392,9.392,0,0,1-2.816,2.7,8.359,8.359,0,0,1-4.5,1.074,10.464,10.464,0,0,1-2.961-.464,8.084,8.084,0,0,1-2.844-1.509,8.187,8.187,0,0,1-2.119-2.729,9.15,9.15,0,0,1-.841-4.121v-3.367h5.92v3.077a3.361,3.361,0,0,0,.784,2.292,2.941,2.941,0,0,0,4.237,0,3.528,3.528,0,0,0,.784-2.408v-5.921q0-2.437-.929-3.192a2.583,2.583,0,0,0-1.422-.581,19.007,19.007,0,0,0-2.351-.117Z" fill="#fff"/>
  </g>
</svg>
