<svg xmlns="http://www.w3.org/2000/svg" width="40.342" height="42.026" viewBox="0 0 40.342 42.026">
  <g id="グループ_240" data-name="グループ 240" transform="translate(-196.642 -1972.829)">
    <path id="パス_514" data-name="パス 514" d="M196.642,1981.71a9.024,9.024,0,0,1,.725-3.715,8.7,8.7,0,0,1,1.945-2.786,8.388,8.388,0,0,1,2.815-1.771,9.45,9.45,0,0,1,6.675,0,8.4,8.4,0,0,1,2.816,1.771,8.711,8.711,0,0,1,1.944,2.786,9.04,9.04,0,0,1,.726,3.715v24.264a9.029,9.029,0,0,1-.726,3.714,8.719,8.719,0,0,1-1.944,2.788,8.382,8.382,0,0,1-2.816,1.77,9.45,9.45,0,0,1-6.675,0,8.368,8.368,0,0,1-2.815-1.77,8.705,8.705,0,0,1-1.945-2.788,9.013,9.013,0,0,1-.725-3.714Zm5.921,24.264a2.927,2.927,0,0,0,.812,2.119,3.014,3.014,0,0,0,4.179,0,2.928,2.928,0,0,0,.813-2.119V1981.71a2.925,2.925,0,0,0-.813-2.118,3.014,3.014,0,0,0-4.179,0,2.925,2.925,0,0,0-.812,2.118Z" fill="#e65290"/>
    <path id="パス_515" data-name="パス 515" d="M231.063,2014.507v-35.061l-5.92,4.354v-6.269l5.92-4.353h5.921v41.329Z" fill="#e65290"/>
  </g>
</svg>
