<svg xmlns="http://www.w3.org/2000/svg" width="46.495" height="42.026" viewBox="0 0 46.495 42.026">
  <g id="グループ_281" data-name="グループ 281" transform="translate(-1126.642 -1972.829)">
    <path id="パス_612" data-name="パス 612" d="M1126.642,1981.71a9.026,9.026,0,0,1,.725-3.715,8.7,8.7,0,0,1,1.945-2.786,8.388,8.388,0,0,1,2.815-1.771,9.45,9.45,0,0,1,6.675,0,8.4,8.4,0,0,1,2.816,1.771,8.711,8.711,0,0,1,1.944,2.786,9.04,9.04,0,0,1,.726,3.715v24.264a9.029,9.029,0,0,1-.726,3.714,8.719,8.719,0,0,1-1.944,2.788,8.383,8.383,0,0,1-2.816,1.77,9.45,9.45,0,0,1-6.675,0,8.368,8.368,0,0,1-2.815-1.77,8.706,8.706,0,0,1-1.945-2.788,9.015,9.015,0,0,1-.725-3.714Zm5.921,24.264a2.927,2.927,0,0,0,.812,2.119,3.013,3.013,0,0,0,4.179,0,2.928,2.928,0,0,0,.813-2.119V1981.71a2.925,2.925,0,0,0-.813-2.118,3.013,3.013,0,0,0-4.179,0,2.925,2.925,0,0,0-.812,2.118Z" fill="#7fbc26"/>
    <path id="パス_613" data-name="パス 613" d="M1164.372,2014.507v-6.153h-11.784v-5.573l8.533-29.6h6.269l-8.881,29.6h5.863V1991h5.92v11.783h2.845v5.573h-2.845v6.153Z" fill="#7fbc26"/>
  </g>
</svg>
