<svg xmlns="http://www.w3.org/2000/svg" width="46.495" height="42.026" viewBox="0 0 46.495 42.026">
  <g id="グループ_206" data-name="グループ 206" transform="translate(-1562.142 -4417.829)">
    <path id="パス_405" data-name="パス 405" d="M1562.142,4426.71a9.025,9.025,0,0,1,.725-3.715,8.7,8.7,0,0,1,1.945-2.786,8.392,8.392,0,0,1,2.815-1.771,9.452,9.452,0,0,1,6.675,0,8.406,8.406,0,0,1,2.816,1.771,8.711,8.711,0,0,1,1.944,2.786,9.039,9.039,0,0,1,.726,3.715v24.264a9.028,9.028,0,0,1-.726,3.714,8.719,8.719,0,0,1-1.944,2.788,8.388,8.388,0,0,1-2.816,1.77,9.452,9.452,0,0,1-6.675,0,8.374,8.374,0,0,1-2.815-1.77,8.707,8.707,0,0,1-1.945-2.788,9.014,9.014,0,0,1-.725-3.714Zm5.921,24.264a2.926,2.926,0,0,0,.812,2.119,3.013,3.013,0,0,0,4.179,0,2.926,2.926,0,0,0,.813-2.119V4426.71a2.926,2.926,0,0,0-.813-2.118,3.014,3.014,0,0,0-4.179,0,2.925,2.925,0,0,0-.812,2.118Z" fill="#fff"/>
    <path id="パス_406" data-name="パス 406" d="M1599.872,4459.507v-6.153h-11.784v-5.573l8.533-29.6h6.269l-8.881,29.6h5.863V4436h5.92v11.783h2.845v5.573h-2.845v6.153Z" fill="#fff"/>
  </g>
</svg>
