<svg xmlns="http://www.w3.org/2000/svg" width="118.472" height="42.026" viewBox="0 0 118.472 42.026">
  <g id="グループ_239" data-name="グループ 239" transform="translate(-188.222 -978.829)">
    <path id="パス_510" data-name="パス 510" d="M188.222,1020.507V979.178h5.689l8.939,24.9h.116v-24.9h5.921v41.329h-5.573l-9.055-24.844h-.116v24.844Z" fill="#00ad93"/>
    <path id="パス_511" data-name="パス 511" d="M220.031,1020.507V979.178h17.646v5.572H225.952v12.132h10.216v5.572H225.952v12.132h11.725v5.921Z" fill="#e65290"/>
    <path id="パス_512" data-name="パス 512" d="M278.02,979.178l-6.154,41.329h-5.572l-4.528-26.818h-.116l-4.469,26.818h-5.573l-6.153-41.329h6.269l2.961,26.237h.116l4.643-26.237h4.528l4.818,26.875h.116l2.844-26.875Z" fill="#00ace6"/>
    <path id="パス_513" data-name="パス 513" d="M306.694,991.077h-5.921v-1.335a6.32,6.32,0,0,0-.958-3.512,3.541,3.541,0,0,0-3.222-1.48,3.72,3.72,0,0,0-1.973.465,3.881,3.881,0,0,0-1.219,1.16,4.907,4.907,0,0,0-.639,1.713,11.193,11.193,0,0,0-.174,2,19.646,19.646,0,0,0,.087,2.031,3.842,3.842,0,0,0,.436,1.451,3.216,3.216,0,0,0,1.015,1.1,9.2,9.2,0,0,0,1.829.928l4.527,1.8a11.233,11.233,0,0,1,3.193,1.771,7.677,7.677,0,0,1,1.916,2.35,11.025,11.025,0,0,1,.87,3.164,31.268,31.268,0,0,1,.233,4.035,21.22,21.22,0,0,1-.523,4.846,10.2,10.2,0,0,1-1.683,3.8,8.362,8.362,0,0,1-3.193,2.555,11.28,11.28,0,0,1-4.817.928,10.558,10.558,0,0,1-4.006-.754,9.507,9.507,0,0,1-3.192-2.09,10.14,10.14,0,0,1-2.119-3.106,9.433,9.433,0,0,1-.784-3.86v-2.2H292.3v1.857a4.83,4.83,0,0,0,.958,2.931,3.731,3.731,0,0,0,3.222,1.307,5.2,5.2,0,0,0,2.35-.436,3.125,3.125,0,0,0,1.306-1.248,4.569,4.569,0,0,0,.552-1.944q.087-1.133.087-2.526a25.139,25.139,0,0,0-.116-2.67,4.594,4.594,0,0,0-.465-1.683,3.28,3.28,0,0,0-1.073-1.045,13.773,13.773,0,0,0-1.771-.87l-4.237-1.742q-3.831-1.566-5.137-4.15a14.275,14.275,0,0,1-1.307-6.473,15.009,15.009,0,0,1,.639-4.411,10.023,10.023,0,0,1,1.916-3.6,8.773,8.773,0,0,1,3.105-2.409,10.375,10.375,0,0,1,4.5-.9,9.836,9.836,0,0,1,4.034.813,10.412,10.412,0,0,1,3.163,2.148,8.967,8.967,0,0,1,2.671,6.385Z" fill="#ee8a00"/>
  </g>
</svg>
