<svg xmlns="http://www.w3.org/2000/svg" width="232.849" height="74.695" viewBox="0 0 232.849 74.695">
  <g id="グループ_452" data-name="グループ 452" transform="translate(-990.249 -711.834)">
    <path id="パス_958" data-name="パス 958" d="M1016.933,733.17a3.467,3.467,0,0,0-1.764,2.855c-.028.42-.057.9-.756.9-1.513,0-5.32-2.268-7.28-5.1a17.477,17.477,0,0,1-2.156-4.732h-.056v10.024c0,.447-.028.672-.532.7l-2.268.141c-.5.027-.588-.028-.588-.756v-7.448a26.1,26.1,0,0,1-11.2,7.056l-.084-.084a32.876,32.876,0,0,0,7.336-7,20.979,20.979,0,0,0,1.708-2.632h-2.128v.784c0,.336-.028.727-.588.756l-2.184.139c-.7.057-.7-.111-.7-.643V717.686c.813.2,3.08.755,4.005,1.064h3.836v-3.08H991.061l-.14-.336h10.612v-3.36c.728.028,3.3.2,3.752.252.42.028.5.084.5.2,0,.252-.476.364-.868.448v2.464h6.019l1.653-2.156c.252-.308.252-.365.336-.365.2,0,3.219,2.3,3.219,2.633,0,.224-.2.224-.363.224h-10.864v3.08h4.172l.895-1.2c.393-.5.505-.5.616-.5.336,0,3.361,2.044,3.361,2.52,0,.448-.924.84-1.092.9v7.056c0,.5,0,.756-.644.812l-2.1.168c-.729.056-.729-.168-.729-.672v-.728h-4.171c1.764,2.912,6.383,5.431,11.7,6.02Zm-15.4-10.472v-3.612h-4.368V722.7Zm0,4.088v-3.752h-4.368v3.752Zm3.388-7.7V722.7h4.479v-3.612Zm0,3.948v3.752h4.479v-3.752Z" fill="#d40e64"/>
    <path id="パス_959" data-name="パス 959" d="M1042.021,715.558l1.624-2.268c.139-.2.251-.309.364-.309a19.008,19.008,0,0,1,3.107,2.689c0,.224-.195.224-.363.224H1021.44l-.139-.336h11.143v-3.724c.588.028,3.248.28,3.893.336.195.028.588.056.588.308,0,.224-.112.251-.9.419v2.661Zm-20.72,20.524a25.933,25.933,0,0,0,5.6-7.952c.449.2,4.145,1.876,4.145,2.212,0,.2-.225.2-.364.2a3.112,3.112,0,0,1-.533-.084,25.429,25.429,0,0,1-8.819,5.684Zm14.727-.98c0,1.036,0,2.715-4.059,2.715-.281,0-.756,0-.756-.279,0-1.933,0-2.576-2.8-3.7v-.113c2.324.141,2.576.168,3.192.168.84,0,.84-.279.84-.7v-7.056h-3.695v.644c0,.447-.028.615-.505.644l-2.351.14c-.644.028-.644-.224-.644-.728v-9.016c.168.056,3.584.9,3.947.98h10.332l1.008-1.428c.2-.28.28-.42.448-.42a18.943,18.943,0,0,1,3.3,2.3.659.659,0,0,1,.057.224c0,.308-.729.671-1.149.868v6.076c0,.559,0,.784-.448.811l-2.464.141c-.559.027-.559-.2-.559-.588v-.644h-3.7Zm-7.279-15.988v6.692h10.976v-6.692Zm8.708,9.491c.7.168,8.092,1.96,8.092,5.321a2.126,2.126,0,0,1-2.156,2.267.974.974,0,0,1-1.065-.672,20.894,20.894,0,0,0-4.928-6.859Z" fill="#d40e64"/>
    <path id="パス_960" data-name="パス 960" d="M1067.389,721.521c0,.281-.5,1.513-.533,1.765-.168.952-.5,5.292-.671,6.272,3.948-.281,4.395-.308,5.235-.449a3.872,3.872,0,0,0,1.736-.783c.477.252,2.632,1.176,3.052,1.428.868.5,1.148.868,1.148,1.4a1.163,1.163,0,0,1-1.148,1.232,13.76,13.76,0,0,1-2.632-.448,19.643,19.643,0,0,0-4.676-.56c-3.248,0-10.975.784-11.759,1.315-.729.477-.953.645-1.2.645-.84,0-3.388-1.848-3.388-3.612a2.862,2.862,0,0,1,.643-1.652c.561,1.792,1.764,1.96,3.193,1.96,2.239,0,5.067-.168,6.971-.308.084-1.232.168-5.124.168-6.552a4.068,4.068,0,0,0-.811-2.884,15.2,15.2,0,0,0-2.744.588,5.743,5.743,0,0,1-1.261.42c-.867,0-2.716-1.569-2.716-2.6a3.108,3.108,0,0,1,.784-1.876,2.492,2.492,0,0,0,2.325,1.764c.336,0,7.307-.532,9.24-.9a4.878,4.878,0,0,0,1.987-.9c.477.252,2.632,1.176,3.025,1.428a1.2,1.2,0,0,1,.616.98c0,.756-.7.867-1.065.867-.5,0-4-.2-4.759-.2a21.825,21.825,0,0,0-2.437.111C1065.988,720.094,1067.389,720.738,1067.389,721.521Z" fill="#d40e64"/>
    <path id="パス_961" data-name="パス 961" d="M1084.777,736.782c1.287-.812,4.9-3.248,6.692-9.408a22.711,22.711,0,0,0,.952-5.4.919.919,0,0,0-.981-1.064c-.168,0-.279.028-.839.084a2.418,2.418,0,0,1,2.379-1.456c.757,0,3.584.728,3.584,1.512,0,.084-.251.979-.363,1.372,1.092-1.148,3.416-3.893,4.088-5.769-3.08.225-9.38.785-11.928,1.821-1.484.588-1.652.644-2.072.644-1.344,0-3.416-1.9-3.416-3.36,0-.728.28-1.008.952-1.68a3.217,3.217,0,0,0,2.632,2.1c.728,0,12.964-.924,13.16-.952a4.741,4.741,0,0,0,1.512-.644,1.517,1.517,0,0,1,.727-.252c1.009,0,3.361,2.576,3.361,3.779,0,.645-.364.645-2.016.7a40.793,40.793,0,0,1-7.112,3.976c-1.288,4.732-1.624,5.964-2.884,7.98a14.181,14.181,0,0,1-8.428,6.132Z" fill="#d40e64"/>
    <path id="パス_962" data-name="パス 962" d="M1124.9,725.862a1.871,1.871,0,0,1-1.876,2.044c-.839,0-1.175-.505-2.184-1.932a12.549,12.549,0,0,0-4.648-3.78c-.055,2.94,0,5.039.056,6.327.028.981.532,5.265.532,6.133,0,1.008-.28,2.94-1.847,2.94s-2.1-2.268-2.353-3.92c.729-2.324.84-7.868.84-10.612,0-.924-.056-6.972-.252-7.84a1.424,1.424,0,0,0-1.512-1.064,2.82,2.82,0,0,0-.868.14,3.526,3.526,0,0,1,2.689-1.876c1.12,0,3.5.391,3.5,1.792,0,.336-.449,1.708-.5,1.988-.168,1.008-.252,4.2-.252,5.46C1120.952,721.857,1124.9,723.313,1124.9,725.862Z" fill="#d40e64"/>
    <path id="パス_963" data-name="パス 963" d="M1130.165,737.2c2.969-.9,12.152-3.64,15.4-14.9-3.219.476-8.232,1.2-10.723,2.212a8.955,8.955,0,0,1-1.456.532c-.84,0-3.445-1.792-3.445-3.193a3.492,3.492,0,0,1,.756-1.819,2.545,2.545,0,0,0,2.716,1.708c.673,0,10.836-.5,12.292-1.26.252-.112,1.177-1.064,1.429-1.064.391,0,3.359,1.988,3.359,2.856,0,.476-.475.756-1.4,1.316-1.708,4.564-5.74,12.74-18.9,13.692Zm6.721-22.484c2.1,0,5.376-.336,7-1.54.7.14,3.248.952,3.248,1.9a1.59,1.59,0,0,1-.841,1.288c-.672.168-8.623.784-9.323.784-2.689,0-3.277-1.456-4.032-3.36A6.187,6.187,0,0,0,1136.886,714.718Z" fill="#d40e64"/>
    <path id="パス_964" data-name="パス 964" d="M1158.362,723.118c.84,0,2.436-1.261,6.468-4.48.7-.56,1.064-.728,1.372-.728.588,0,1.092.447,2.128,1.344a56.825,56.825,0,0,0,11.508,7.979,3.965,3.965,0,0,1,2.016,3.193,1.7,1.7,0,0,1-1.568,1.736c-2.38,0-9.66-7.28-13.1-10.78-.728-.756-.812-.84-1.092-.84-.868,0-5.32,5.46-5.656,6.16-.392.784-.476.952-.924.952-.308,0-.644,0-1.989-1.372a4.246,4.246,0,0,1-1.4-2.772,3.466,3.466,0,0,1,.672-1.876C1157.214,722.642,1157.886,723.118,1158.362,723.118Zm19.32-3.948a1.185,1.185,0,0,1-1.2,1.288c-.616,0-.7-.14-1.344-1.148a9.712,9.712,0,0,0-2.828-2.913C1177.01,716.565,1177.682,718.3,1177.682,719.17Zm-1.4-5.712c2.128,0,4.256.588,4.256,2.324a1.281,1.281,0,0,1-1.148,1.4c-.449,0-.476-.028-1.372-1.2a8.242,8.242,0,0,0-3.248-2.436A11.658,11.658,0,0,1,1176.282,713.458Z" fill="#d40e64"/>
    <path id="パス_965" data-name="パス 965" d="M1185.941,735.662a18.72,18.72,0,0,0,6.721-13.748c0-.532,0-1.765-1.988-1.652,1.147-1.008,1.652-1.4,2.464-1.4,1.316,0,3.416,1.316,3.416,2.072a1.375,1.375,0,0,1-.336.784c-.813,6.412-3.3,10.555-10.277,14Zm27.693-17.892a25.75,25.75,0,0,1-9.744,13.552,6.054,6.054,0,0,0-1.821,1.764c-.252.5-.363.727-.84.727-.784,0-2.744-2.967-2.744-3.555a11.576,11.576,0,0,1,.336-1.4,30.432,30.432,0,0,0,.225-4.507,53.853,53.853,0,0,0-.252-6.552,1.684,1.684,0,0,0-1.849-1.26c1.12-1.036,1.513-1.428,2.3-1.428,1.624,0,3.445,1.652,3.445,2.324a11.187,11.187,0,0,1-.56,1.176c-.309.756-.28,9.52-.252,9.6,4.508-2.072,9.6-7.112,11.731-10.5Z" fill="#d40e64"/>
    <path id="パス_966" data-name="パス 966" d="M1223.1,724.91a2.409,2.409,0,1,1-2.409-2.408A2.407,2.407,0,0,1,1223.1,724.91Z" fill="#d40e64"/>
    <path id="パス_967" data-name="パス 967" d="M1006.111,777.989c0,2.185-1.063,4.872-3.836,4.872a1.744,1.744,0,0,1-1.847-1.736c0-.867.5-1.176,1.651-1.876,1.876-1.147,2.633-2.464,3.444-4.928A11.673,11.673,0,0,1,1006.111,777.989Zm.868,2.3a16.2,16.2,0,0,0,2.548.42c.645,0,.813-.363.9-1.4.111-1.092.223-5.657.223-8.765a29.361,29.361,0,0,0-5.431,1.12c-.112.028-1.4.393-1.54.393a3.585,3.585,0,0,1-2.857-3.136,2.05,2.05,0,0,1,.449-1.372,4.047,4.047,0,0,0,3.528,1.624c.7,0,.979-.028,5.851-.477,0-.952-.055-4.255-.448-4.872-.195-.307-.756-.7-1.96-.672.561-.727,1.372-1.763,2.521-1.763.952,0,3.136.979,3.136,1.819a10.11,10.11,0,0,1-.533,1.288c-.111.448-.111,3.109-.111,3.92,3.22-.447,4.535-.7,5.235-1.735a10.465,10.465,0,0,1,3.809,1.315,1.107,1.107,0,0,1,.672,1.009,1.2,1.2,0,0,1-1.149,1.26c-.112,0-1.708-.2-1.876-.225a21.569,21.569,0,0,0-2.408-.224c-1.344,0-3.611.281-4.283.365,0,4.983,0,6.384.168,8.624.027.42.2,2.3.2,2.687,0,1.792-1.231,3.92-2.716,3.92-.7,0-.784-.336-1.091-1.483a5.209,5.209,0,0,0-2.829-3.529Zm16.493-.139a2.177,2.177,0,0,1-2.185,2.463c-1.231,0-1.456-.979-1.651-1.9a15.871,15.871,0,0,0-3.725-7.111C1017.871,774.378,1023.472,776.59,1023.472,780.146Z" fill="#d40e64"/>
    <path id="パス_968" data-name="パス 968" d="M1031.144,785.886c9.184-5.573,9.548-12.769,9.548-13.048a1.561,1.561,0,0,0-.448-1.12,29.254,29.254,0,0,0-5.936,1.344c-.2.055-1.568.587-1.708.587-.924,0-3.08-1.82-3.08-2.855,0-.393.14-.589.616-1.2a2.268,2.268,0,0,0,2.1,1.315c.532,0,12.824-1.259,13.916-1.4,1.736-.252,2.1-.673,2.548-1.2.476.223,2.659.952,3.08,1.147.7.309,1.176.645,1.176,1.26,0,.309-.168,1.316-1.092,1.316-.448,0-2.352-.448-2.744-.532a14.817,14.817,0,0,0-2.66-.2c-1.036,0-2.016.056-2.408.084.42.168,1.148.475,1.148.811,0,.281-.252.5-.672.9-1.288,4.983-3.724,10.023-13.356,12.907Zm4.872-22.26a42.231,42.231,0,0,0,7.755-1.036,2.2,2.2,0,0,0,1.2-.925,30.649,30.649,0,0,1,2.968,1.2c.616.309.672.588.672.952,0,1.2-.841,1.233-3.053,1.344-1.2.057-6.775.589-7.755.729-.112.028-1.316.223-1.512.223-1.4,0-2.492-2.38-2.772-3.052A4.175,4.175,0,0,0,1036.016,763.626Z" fill="#d40e64"/>
    <path id="パス_969" data-name="パス 969" d="M1057.183,784.262a18.721,18.721,0,0,0,6.72-13.748c0-.533,0-1.765-1.988-1.653,1.148-1.007,1.652-1.4,2.464-1.4,1.316,0,3.416,1.315,3.416,2.071a1.374,1.374,0,0,1-.336.784c-.813,6.412-3.3,10.556-10.276,14Zm27.692-17.893a25.75,25.75,0,0,1-9.744,13.553,6.041,6.041,0,0,0-1.82,1.764c-.252.5-.364.727-.84.727-.784,0-2.744-2.968-2.744-3.556a11.38,11.38,0,0,1,.336-1.4,30.576,30.576,0,0,0,.224-4.508,53.887,53.887,0,0,0-.252-6.552,1.683,1.683,0,0,0-1.848-1.259c1.12-1.036,1.512-1.428,2.3-1.428,1.624,0,3.445,1.651,3.445,2.323a11.207,11.207,0,0,1-.56,1.177c-.308.756-.28,9.519-.252,9.6,4.508-2.072,9.6-7.112,11.732-10.5Z" fill="#d40e64"/>
    <path id="パス_970" data-name="パス 970" d="M1109.822,777.962l1.569-2.269c.139-.2.252-.336.364-.336a18.274,18.274,0,0,1,3.164,2.716c0,.225-.168.225-.336.225h-6.328v5.18c0,1.736,0,3.051-3.948,3.051-.533,0-.869,0-.869-.391,0-.113.057-.588.057-.7,0-.785,0-1.876-2.94-3.025V782.3c.643.055,3.5.252,3.891.252.365,0,.365-.252.365-.616V778.3h-15.736l-.14-.336h15.876v-2.408c.56.055,3.528.336,3.919.42.141.027.336.084.336.223,0,.225-.42.449-.811.532v1.233Zm-.2-14.421,1.567-2.016c.225-.307.252-.336.336-.336a16.077,16.077,0,0,1,3.025,2.493c0,.2-.2.2-.365.2h-10.723v2.548h4.116l.924-1.177c.307-.392.364-.42.5-.42.28,0,3.36,2.212,3.36,2.8,0,.447-.673.588-1.288.756v6.439c0,.252,0,.532-.364.561l-2.464.168c-.616.027-.616-.057-.616-.952h-11.565v1.2c0,.391,0,.616-.336.643l-2.548.141c-.419.027-.5,0-.5-.561V765.642c1.316.252,2.436.5,3.528.784h3.807v-2.548h-10.5l-.139-.337h10.639v-3.023c1.849.139,2.857.223,3.893.364.14.027.392.084.392.279,0,.168-.084.2-.84.42v1.96ZM1094.059,779c3,.393,5.656,1.624,5.656,3.752a2.4,2.4,0,0,1-2.492,2.269c-.617,0-.644-.252-.785-.869a11.46,11.46,0,0,0-2.379-5.095Zm5.963-8.708v-3.527h-3.948v3.527Zm0,4v-3.668h-3.948v3.668Zm3.445-7.531v3.527h4.172v-3.527Zm0,3.863v3.668h4.172v-3.668Z" fill="#d40e64"/>
    <path id="パス_971" data-name="パス 971" d="M1128.3,762.365l.9-1.26c.42-.587.477-.643.616-.643a12.542,12.542,0,0,1,1.624,1.147c1.485,1.149,1.653,1.288,1.653,1.624,0,.281-.2.449-1.261.953v7.784c0,.5,0,.588-.531.616l-2.128.168c-.505.027-.673.056-.673-.532v-.952h-3.64v14.475c0,.477-.028.588-.559.616l-2.437.14c-.391.028-.448-.111-.448-.531V761.581a32.292,32.292,0,0,1,3.7.784Zm-3.445.309v3.891h3.64v-3.891Zm0,4.227v4.033h3.64V766.9Zm15.737-4.536,1.063-1.427c.225-.281.364-.476.477-.476.168,0,3.219,2.351,3.219,2.743s-.307.532-1.2.868v19.321c0,1.147,0,1.847-.784,2.324a7.536,7.536,0,0,1-3.08.727c-.924,0-.924-.42-.924-.7,0-2.016,0-2.323-2.632-3.388v-.084c.644.084,2.941.168,3.277.168.756,0,.756-.223.756-.895V771.27h-3.641v.559c0,.532,0,.645-.531.673l-2.3.168c-.532.027-.589-.028-.589-.616V761.609c.784.141,2.94.533,3.752.756Zm-3.473.309v3.891h3.641v-3.891Zm0,4.227v4.033h3.641V766.9Z" fill="#d40e64"/>
    <path id="パス_972" data-name="パス 972" d="M1171.143,777.121l1.708-2.407c.2-.28.223-.336.363-.336a18.738,18.738,0,0,1,3.221,2.884c0,.195-.2.195-.365.195h-10.92v5.656c0,1.792-.028,3.388-4.228,3.388-.98,0-.98-.168-.98-.7a3.1,3.1,0,0,0-.391-1.905,4.948,4.948,0,0,0-2.6-1.54v-.084c.449.029,3.613.2,3.949.2.755,0,.755-.225.755-1.149v-3.864h-11l-.112-.336h11.116v-2.912c.365.057,1.653.2,2.464.309a17.441,17.441,0,0,0,2.184-3.08h-10.527l-.113-.336h10.556l.868-1.008c.2-.225.393-.448.561-.448a1.082,1.082,0,0,1,.531.28c.168.139,1.764,1.54,1.988,1.763a31.29,31.29,0,0,0,1.372-3.891H1155.07a11.1,11.1,0,0,1,.224,2.212c0,2.155-1.4,3.416-2.716,3.416a2.064,2.064,0,0,1-1.96-1.876c0-.336.112-.532.477-.841a9.391,9.391,0,0,0,3.107-5.46h.112a13.581,13.581,0,0,1,.672,2.213h11.62a36.653,36.653,0,0,0,2.268-6.8c2.632,1.008,2.856,1.12,4.313,1.708.111.057.279.141.279.281,0,.083-.084.28-.9.167a29.4,29.4,0,0,1-5.152,4.649h3.977l1.007-1.093c.224-.252.365-.363.533-.363.279,0,.979.7,1.288,1.008.5.532,2.3,2.435,2.3,2.855s-.5.448-.756.448a10.687,10.687,0,0,1-1.317-.112,30.98,30.98,0,0,1-4.059,1.681c.727.672.811.756.811,1.008,0,.671-1.12.559-1.876.5a41.169,41.169,0,0,1-3.948,1.289c.309.028.5.055.5.252,0,.251-.531.391-.728.419v1.764Zm-17.08-16.351c1.147.2,5.8,1.007,5.8,4.032a2.137,2.137,0,0,1-2.352,2.183c-.672,0-.812-.112-.924-.895a10.412,10.412,0,0,0-2.548-5.236Zm5.711-.281c2.716.449,5.825,1.485,5.825,3.92a2.358,2.358,0,0,1-2.38,2.408c-.448,0-.616-.168-.673-.616a11.563,11.563,0,0,0-2.772-5.655Z" fill="#d40e64"/>
    <path id="パス_973" data-name="パス 973" d="M1181.279,767.462l-.112-.337h4.061V760.6c1.231.112,3.332.28,3.947.419.084,0,.252.056.252.2,0,.168-.42.279-.783.363v5.544h.195l1.12-1.96c.14-.224.2-.336.309-.336a11.511,11.511,0,0,1,2.519,2.437c0,.2-.14.2-.28.2h-3.863v3.779a9.946,9.946,0,0,1,3.135,1.765,31.428,31.428,0,0,0,3.192-6.273c.616.281,3.416,1.624,3.7,1.821.112.084.252.2.252.336,0,.223-.728.168-1.008.139a28.628,28.628,0,0,1-5.656,4.508,2.935,2.935,0,0,1,.532,1.708,2.009,2.009,0,0,1-2.128,2.212c-.924,0-.98-.42-.98-1.371a9.411,9.411,0,0,0-1.035-4.173v13.5c0,.645-.029.729-.841.813l-1.764.168c-.784.084-.811-.225-.811-.7V775.218a15.932,15.932,0,0,1-4.621,5.095l-.056-.055a33.252,33.252,0,0,0,4.256-12.8Zm7.365,18.815a18.384,18.384,0,0,0,8.147-6.5,15.823,15.823,0,0,1-1.54-8.063h.084c.336,1.567.952,4.256,2.66,5.991a27.944,27.944,0,0,0,2.128-6.188c.644.308,3.92,2.016,3.92,2.3,0,.14-.336.281-.952.168a27.667,27.667,0,0,1-2.744,5.685,16.8,16.8,0,0,0,7.644,2.743l.028.084a4.11,4.11,0,0,0-2.1,2.969c-.084.307-.252.7-.672.7a14.394,14.394,0,0,1-6.86-4.144c-1.484,1.373-3.864,3.445-9.688,4.369Zm13.663-20.775,1.6-2.24c.084-.113.224-.309.336-.309a11.9,11.9,0,0,1,2.912,2.66c0,.225-.14.225-.28.225h-14.643l-.141-.336h4.7v-4.956c1.26.111,3.052.336,3.892.447.14.028.476.084.476.252,0,.225-.5.336-.84.393V765.5Zm-2.464,1.623c2.3.2,7.028,1.093,7.028,4.229a1.962,1.962,0,0,1-1.9,2.015.861.861,0,0,1-.868-.588,18,18,0,0,0-4.284-5.544Z" fill="#d40e64"/>
  </g>
</svg>
