<svg xmlns="http://www.w3.org/2000/svg" width="149.5" height="74.303" viewBox="0 0 149.5 74.303">
  <g id="グループ_451" data-name="グループ 451" transform="translate(-375.651 -712.058)">
    <path id="パス_947" data-name="パス 947" d="M380.1,717.49c-2.436,0-3.276.056-3.444.056-.28,0-.308-.028-.308-.308v-2.016c0-.281.028-.308.308-.308.168,0,1.008.056,3.444.056h7.14a15.2,15.2,0,0,0-.224-2.912c1.036.028,2.044.084,3.024.2.28.028.448.168.448.28a1.435,1.435,0,0,1-.168.616,5.079,5.079,0,0,0-.168,1.82h7.672c2.436,0,3.276-.056,3.444-.056.252,0,.28.027.28.308v2.016c0,.28-.028.308-.28.308-.168,0-1.008-.056-3.444-.056h-7.672V719.2h4.34c2.744,0,3.724-.056,3.892-.056.308,0,.336.028.336.336,0,.168-.056.9-.056,2.631v4.62c0,1.737.056,2.464.056,2.633,0,.28-.028.308-.336.308-.168,0-1.148-.056-3.892-.056h-2.324a25.364,25.364,0,0,0,10.276,4.984,7.229,7.229,0,0,0-1.2,1.932c-.224.532-.308.728-.532.728a2.486,2.486,0,0,1-.644-.2,24.47,24.47,0,0,1-10-6.272c.028,3.443.2,6.216.2,6.636,0,.28-.028.307-.308.307h-2.52c-.28,0-.308-.027-.308-.307,0-.42.168-3.109.2-6.525a22.766,22.766,0,0,1-9.268,6.161,2.6,2.6,0,0,1-.672.2c-.224,0-.336-.168-.56-.672a6.457,6.457,0,0,0-1.176-1.764,22.472,22.472,0,0,0,9.6-5.208h-1.82c-2.744,0-3.724.056-3.892.056-.28,0-.308-.028-.308-.308,0-.2.056-.9.056-2.633v-4.62c0-1.735-.056-2.463-.056-2.631,0-.308.028-.336.308-.336.168,0,1.148.056,3.892.056h3.808V717.49Zm7.14,5.852v-1.96h-5.124v1.96Zm0,4.116V725.47h-5.124v1.988Zm2.912-6.076v1.96h5.656v-1.96Zm5.656,4.088h-5.656v1.988h5.656Z" fill="#1482ca"/>
    <path id="パス_948" data-name="パス 948" d="M411.883,730.174a5.243,5.243,0,0,0,.812-1.569,24.147,24.147,0,0,1,2.408,1.205c.224.14.336.28.336.476a.547.547,0,0,1-.336.476,2.32,2.32,0,0,0-.756.756,19.114,19.114,0,0,1-4.564,4.4c-.336.224-.532.363-.672.363-.2,0-.336-.168-.588-.588a4.923,4.923,0,0,0-1.456-1.483A16.737,16.737,0,0,0,411.883,730.174Zm-.392-12.32c-2.548,0-3.388.028-3.556.028-.308,0-.336-.028-.336-.28v-2.184c0-.28.028-.308.336-.308.168,0,1.008.056,3.556.056h6.692v-.477a10.63,10.63,0,0,0-.2-2.575c1.036,0,1.988.056,3.024.14.252.028.42.112.42.28a1.626,1.626,0,0,1-.2.588,6.9,6.9,0,0,0-.112,1.6v.448h7.056c2.52,0,3.388-.056,3.556-.056.28,0,.307.028.307.308V717.6c0,.252-.027.28-.307.28-.168,0-1.036-.028-3.556-.028Zm12.712,1.959c2.716,0,3.668-.055,3.864-.055.28,0,.308.028.308.307,0,.168-.056.757-.056,2.269v3.052c0,1.484.056,2.1.056,2.268,0,.28-.028.308-.308.308-.2,0-1.148-.056-3.864-.056h-2.828v2.827c0,1.288.084,2.493.084,3.529a2.721,2.721,0,0,1-.9,2.464c-.616.5-1.4.671-4.032.671-.84.029-.9.057-1.092-.839a5.2,5.2,0,0,0-.868-2.044,21.993,21.993,0,0,0,2.576.168c.98,0,1.26-.308,1.26-1.008v-5.768h-3.136c-2.688,0-3.668.056-3.836.056-.308,0-.336-.028-.336-.308,0-.2.056-.784.056-2.268v-3.052c0-1.512-.056-2.072-.056-2.269,0-.279.028-.307.336-.307.168,0,1.148.055,3.836.055Zm1.2,2.549H414.039v3.024h11.368Zm.616,6.495c.336-.2.392-.168.56.084a16.349,16.349,0,0,0,6.048,4.956,5.92,5.92,0,0,0-1.456,1.792c-.28.449-.392.645-.588.645a1.377,1.377,0,0,1-.644-.336,21.321,21.321,0,0,1-5.74-5.685c-.168-.251-.084-.307.2-.5Z" fill="#1482ca"/>
    <path id="パス_949" data-name="パス 949" d="M442.067,735.186c-2.492,0-3.36.056-3.528.056-.28,0-.308-.028-.308-.308v-2.352c0-.28.028-.309.308-.309.168,0,1.036.057,3.528.057h6.748v-14.5h-4.928c-2.716,0-3.612.056-3.78.056-.28,0-.308-.028-.308-.308v-2.352c0-.281.028-.308.308-.308.168,0,1.064.056,3.78.056h13.44c2.688,0,3.584-.056,3.752-.056.28,0,.308.027.308.308v2.352c0,.28-.028.308-.308.308-.168,0-1.064-.056-3.752-.056h-5.348v14.5h7.14c2.492,0,3.36-.057,3.528-.057.28,0,.308.029.308.309v2.352c0,.28-.028.308-.308.308-.168,0-1.036-.056-3.528-.056Z" fill="#1482ca"/>
    <path id="パス_950" data-name="パス 950" d="M472.727,730.342c-2.492,0-3.332.055-3.5.055-.28,0-.308-.027-.308-.307v-2.156c0-.28.028-.308.308-.308.168,0,1.008.056,3.5.056h7.364a20.247,20.247,0,0,0-.168-2.38l1.624.168a17.521,17.521,0,0,0,2.548-2.016h-6.048c-2.576,0-3.472.056-3.612.056-.28,0-.308-.029-.308-.281V721.27c0-.28.028-.308.308-.308.14,0,1.036.056,3.612.056h7.588a1.756,1.756,0,0,0,.672-.056.913.913,0,0,1,.364-.112c.224,0,.5.224,1.2.9.56.588.784.952.784,1.2a.445.445,0,0,1-.336.447,6.77,6.77,0,0,0-1.344.925,33.057,33.057,0,0,1-3.92,2.911v.449h7c2.492,0,3.332-.056,3.5-.056.28,0,.308.028.308.308v2.156c0,.28-.028.307-.308.307-.168,0-1.008-.055-3.5-.055h-7v1.82c0,.672.056,1.708.056,2.436,0,1.2-.224,1.82-.9,2.3-.728.448-1.6.616-4.284.616-.868,0-.868.028-1.092-.812a8.444,8.444,0,0,0-.84-2.044,27.241,27.241,0,0,0,3,.168c.784,0,1.092-.2,1.092-.98v-3.5Zm1.736-17.92c.364-.14.448-.084.616.14a21.049,21.049,0,0,1,1.876,2.912c.14.28.14.308-.252.448l-1.848.672h5.824a21.654,21.654,0,0,0-1.6-3.5c-.168-.281-.084-.308.252-.42l1.848-.56c.336-.112.42-.056.56.168a21.764,21.764,0,0,1,1.54,3.248c.084.252.084.28-.308.42l-1.82.644h4.312a22.128,22.128,0,0,0,1.372-2.828,9.274,9.274,0,0,0,.42-1.484,14.069,14.069,0,0,1,2.772.84c.252.112.392.252.392.42a.527.527,0,0,1-.28.42,2.115,2.115,0,0,0-.532.643c-.392.729-.728,1.317-1.148,1.989h.728c2.6,0,3.528-.056,3.7-.056.308,0,.336.027.336.308,0,.168-.056.7-.056,1.511v1.289c0,2.52.056,2.968.056,3.136,0,.308-.028.336-.336.336h-2.212c-.28,0-.308-.028-.308-.336v-3.7h-17.92v3.7c0,.28-.028.308-.308.308h-2.212c-.308,0-.336-.028-.336-.308,0-.2.056-.644.056-3.164v-1.036c0-1.036-.056-1.54-.056-1.736,0-.281.028-.308.336-.308.168,0,1.092.056,3.7.056h.756a16.248,16.248,0,0,0-1.792-3.136c-.168-.252-.14-.308.2-.42Z" fill="#1482ca"/>
    <path id="パス_951" data-name="パス 951" d="M506.663,713.01a1.305,1.305,0,0,0,.56-.084.7.7,0,0,1,.364-.084c.2,0,.42.112,1.064.812.588.672.672.951.672,1.119a.728.728,0,0,1-.252.505,1.864,1.864,0,0,0-.532,1.092,35.583,35.583,0,0,1-2.156,5.544c2.184,2.744,2.408,4.368,2.408,6.384,0,2.212-1.064,3.7-3.64,3.92-.868.055-.868.055-.952-.812a3.241,3.241,0,0,0-.588-1.68c1.764.084,2.52-.5,2.52-1.96,0-1.372-.364-2.94-2.492-5.657a34.72,34.72,0,0,0,2.38-6.523h-2.8v15.848c0,3.836.056,5.852.056,6.02,0,.252-.028.279-.308.279h-2.212c-.28,0-.308-.027-.308-.279,0-.168.056-2.1.056-5.992V719.338c0-3.948-.056-5.88-.056-6.076,0-.281.028-.308.308-.308.2,0,.868.056,2.24.056Zm8.484,13.916c-.14,5.4-1.82,8.736-6.328,10.612a2.237,2.237,0,0,1-.672.224c-.2,0-.308-.14-.616-.56a7.32,7.32,0,0,0-1.624-1.6c4.536-1.175,6.328-3.584,6.412-8.679-2.044.028-2.828.055-2.968.055-.28,0-.308-.027-.308-.307v-1.988c0-.308.028-.336.308-.336.168,0,1.064.056,3.724.056h7.448c2.632,0,3.556-.056,3.724-.056.28,0,.308.028.308.336v1.988c0,.28-.028.307-.308.307-.168,0-1.092-.055-3.724-.055h-.784V733.7c0,.588,0,.756.224.924.168.14.5.168,1.092.168.756,0,.952-.084,1.148-.336.28-.393.308-.98.364-2.968a5.91,5.91,0,0,0,1.876.7c.728.141.728.2.7.925-.14,2.324-.5,3.136-1.316,3.668a5.629,5.629,0,0,1-3.332.644,5.558,5.558,0,0,1-2.772-.42c-.532-.364-.812-.9-.812-2.3v-7.784Zm-.224-4.788c-2.128,0-2.828.056-3,.056-.28,0-.308-.028-.308-.308v-1.344h-2.072c-.308,0-.336-.028-.336-.309,0-.195.056-.531.056-2.631v-.784c0-.812-.056-1.2-.056-1.4,0-.252.028-.28.336-.28.168,0,1.12.056,3.752.056h1.708v-.28a12.817,12.817,0,0,0-.2-2.716c1.036.028,1.988.112,2.94.224.28.028.448.14.448.252a1.075,1.075,0,0,1-.14.532,4.09,4.09,0,0,0-.168,1.651v.337h2.38c2.632,0,3.584-.056,3.752-.056.308,0,.336.028.336.28,0,.168-.056.588-.056,1.2v.98c0,2.1.056,2.436.056,2.631,0,.281-.028.309-.336.309h-2.072v1.344c0,.28-.028.308-.308.308-.168,0-.868-.056-2.968-.056Zm-2.94-2.492c.224,0,.952.056,2.94.056h3.752c1.876,0,2.632-.028,2.884-.056V717.6h-9.576Z" fill="#1482ca"/>
    <path id="パス_952" data-name="パス 952" d="M407.879,777.85a10.343,10.343,0,0,0-.168-1.26,23.173,23.173,0,0,1,2.94.195c.252.028.392.168.392.309a.932.932,0,0,1-.14.42,1.165,1.165,0,0,0-.112.336h2.324c2.492,0,3.332-.057,3.5-.057.28,0,.28.028.28.309v1.847c0,.309,0,.336-.28.336-.168,0-1.008-.056-3.5-.056h-2.324v.392c0,1.12.028,1.988.028,2.969a2.063,2.063,0,0,1-1.036,2.071c-.588.309-1.484.5-3.78.5-.84,0-.868,0-1.036-.644a6.739,6.739,0,0,0-.784-2.1c1.008.084,1.988.111,2.548.111.812,0,1.148-.252,1.148-.9v-2.409H395.727c-2.492,0-3.332.056-3.5.056-.28,0-.28-.027-.28-.336V778.1c0-.281,0-.309.28-.309.168,0,1.008.057,3.5.057Zm-8.4-1.708c-2.744,0-3.724.055-3.892.055-.308,0-.336-.027-.336-.307,0-.2.056-.9.056-2.521v-3.7c0-1.708-.056-2.408-.056-2.605,0-.28.028-.307.336-.307.168,0,1.148.055,3.892.055h3.3v-1.456h-6.636c-2.52,0-3.388.057-3.556.057-.28,0-.308-.028-.308-.309v-1.82c0-.308.028-.336.308-.336.168,0,1.036.057,3.556.057h6.636a17.833,17.833,0,0,0-.168-2.38c.98.027,1.932.084,2.884.2.252.029.364.113.364.28a1.821,1.821,0,0,1-.14.56,3.7,3.7,0,0,0-.14,1.345H412.7c2.548,0,3.416-.057,3.584-.057.28,0,.308.028.308.336v1.82c0,.281-.028.309-.308.309-.168,0-1.036-.057-3.584-.057h-7.112v1.456h3.752c2.744,0,3.724-.055,3.92-.055.28,0,.308.027.308.307,0,.168-.056.9-.056,2.521v3.779c0,1.624.056,2.353.056,2.521,0,.28-.028.307-.308.307-.2,0-1.176-.055-3.92-.055Zm-.084,4.395c.336-.168.392-.14.616.057a19.591,19.591,0,0,1,2.6,3.08c.168.252.112.336-.224.5l-1.96,1.036c-.336.2-.392.224-.56-.057a16.368,16.368,0,0,0-2.492-3.219c-.224-.252-.168-.336.14-.5Zm3.388-10.052v-1.624h-4.732v1.624Zm0,3.64v-1.68h-4.732v1.68Zm2.8-5.264v1.624h5.152v-1.624Zm5.152,3.584h-5.152v1.68h5.152Z" fill="#1482ca"/>
    <path id="パス_953" data-name="パス 953" d="M431.035,761.75c1.764,0,2.548-.057,2.715-.057.281,0,.309.029.309.309,0,.168-.057,1.035-.057,2.855v4.088c0,1.792.057,2.66.057,2.828,0,.281-.028.308-.309.308-.167,0-.951-.056-2.715-.056H426.75v7.953c0,3.807.057,5.683.057,5.879,0,.281-.028.308-.308.308h-2.436c-.28,0-.308-.027-.308-.308,0-.2.056-2.072.056-5.879v-12.04c0-3.808-.056-5.741-.056-5.936,0-.28.028-.309.308-.309.2,0,1.232.057,3.248.057Zm-4.285,2.212v1.987h4.48v-1.987Zm4.48,3.947h-4.48v2.017h4.48Zm15.345,9.017c0,1.96.112,4.2.112,5.571,0,1.345-.141,2.017-.812,2.576s-1.373.756-4.284.756c-.9,0-.924,0-1.092-.895a7.734,7.734,0,0,0-.7-2.1,25.9,25.9,0,0,0,2.716.141c.9,0,1.148-.252,1.148-1.092v-9.857h-4.285c-2.155,0-2.856.056-3.024.056-.307,0-.335-.027-.335-.308,0-.2.056-.9.056-2.631v-4.508c0-1.737-.056-2.437-.056-2.632,0-.28.028-.309.335-.309.168,0,.869.057,3.024.057h3.893c2.156,0,2.884-.057,3.052-.057.28,0,.307.029.307.309,0,.168-.055,1.315-.055,3.668Zm-7.728-12.964v1.987h4.816v-1.987Zm4.816,5.964v-2.017h-4.816v2.017Z" fill="#1482ca"/>
    <path id="パス_954" data-name="パス 954" d="M457.327,778.941c-2.492,0-3.332.056-3.5.056-.28,0-.308-.027-.308-.308v-2.156c0-.279.028-.307.308-.307.168,0,1.008.055,3.5.055h7.364a20.263,20.263,0,0,0-.168-2.38l1.624.168a17.514,17.514,0,0,0,2.548-2.015h-6.048c-2.576,0-3.472.055-3.612.055-.28,0-.308-.028-.308-.28v-1.96c0-.279.028-.307.308-.307.14,0,1.036.055,3.612.055h7.588a1.787,1.787,0,0,0,.672-.055.914.914,0,0,1,.364-.113c.224,0,.5.225,1.2.9.56.588.784.952.784,1.2a.446.446,0,0,1-.336.447,6.721,6.721,0,0,0-1.344.925,33.167,33.167,0,0,1-3.92,2.911v.448h7c2.492,0,3.332-.055,3.5-.055.28,0,.308.028.308.307v2.156c0,.281-.028.308-.308.308-.168,0-1.008-.056-3.5-.056h-7v1.821c0,.672.056,1.708.056,2.435,0,1.2-.224,1.821-.9,2.3-.728.448-1.6.616-4.284.616-.868,0-.868.029-1.092-.811a8.41,8.41,0,0,0-.84-2.044,27.5,27.5,0,0,0,3,.168c.784,0,1.092-.2,1.092-.981v-3.5Zm1.736-17.92c.364-.139.448-.083.616.14a21.167,21.167,0,0,1,1.876,2.912c.14.281.14.309-.252.448l-1.848.672h5.824a21.735,21.735,0,0,0-1.6-3.5c-.168-.28-.084-.307.252-.42l1.848-.559c.336-.112.42-.057.56.168a21.758,21.758,0,0,1,1.54,3.248c.084.252.084.279-.308.42l-1.82.643h4.312a22,22,0,0,0,1.372-2.828,9.223,9.223,0,0,0,.42-1.483,14,14,0,0,1,2.772.84c.252.112.392.252.392.42a.529.529,0,0,1-.28.42,2.1,2.1,0,0,0-.532.643c-.392.729-.728,1.316-1.148,1.988h.728c2.6,0,3.528-.055,3.7-.055.308,0,.336.027.336.307,0,.168-.056.7-.056,1.512v1.288c0,2.521.056,2.969.056,3.137,0,.307-.028.336-.336.336h-2.212c-.28,0-.308-.029-.308-.336v-3.7h-17.92v3.7c0,.279-.028.307-.308.307h-2.212c-.308,0-.336-.028-.336-.307,0-.2.056-.645.056-3.164v-1.036c0-1.036-.056-1.54-.056-1.737,0-.28.028-.307.336-.307.168,0,1.092.055,3.7.055h.756a16.241,16.241,0,0,0-1.792-3.135c-.168-.252-.14-.308.2-.42Z" fill="#1482ca"/>
    <path id="パス_955" data-name="パス 955" d="M488.267,786.361c-.28,0-.308-.028-.308-.336,0-.475.168-5.712.2-12.152a23.457,23.457,0,0,1-2.744,6.049c-.168.279-.308.42-.448.42-.112,0-.2-.141-.308-.477a9.2,9.2,0,0,0-.952-2.1,25.269,25.269,0,0,0,4.2-8.848h-.476c-1.932,0-2.548.056-2.716.056-.28,0-.308-.029-.308-.336v-1.989c0-.252.028-.28.308-.28.168,0,.784.057,2.716.057h.644V764.55a21.347,21.347,0,0,0-.224-3.836,26.911,26.911,0,0,1,2.8.2c.28.029.476.141.476.28a1.443,1.443,0,0,1-.168.617c-.168.336-.2.784-.2,2.687v1.933c1.736,0,2.3-.057,2.464-.057.28,0,.308.028.308.28v1.989c0,.307-.028.336-.308.336-.168,0-.728-.056-2.38-.056a17.875,17.875,0,0,0,3.08,5.291,7.52,7.52,0,0,0-1.008,1.82c-.14.336-.224.5-.336.5s-.224-.139-.392-.447a18.318,18.318,0,0,1-1.512-3.5c.028,7.279.2,12.964.2,13.439,0,.308-.028.336-.336.336Zm10.248-13.271c.336-.168.392-.112.5.195a17.406,17.406,0,0,0,2.044,4.088,13.4,13.4,0,0,0,1.148-2.184,9.433,9.433,0,0,0,.7-2.408,15.814,15.814,0,0,1,2.464,1.176c.28.168.392.28.392.421a.765.765,0,0,1-.309.56,3.549,3.549,0,0,0-.643,1.175,19.531,19.531,0,0,1-1.877,3.472,18.3,18.3,0,0,0,6.916,3.809,8.97,8.97,0,0,0-1.287,1.988c-.224.475-.337.672-.56.672a1.911,1.911,0,0,1-.644-.225,20.979,20.979,0,0,1-6.244-4.088,20.68,20.68,0,0,1-6.748,4.284,1.841,1.841,0,0,1-.672.224c-.2,0-.308-.2-.56-.672a5.678,5.678,0,0,0-1.344-1.68,18.185,18.185,0,0,0,7.476-4.284,21.505,21.505,0,0,1-2.688-5.124c-.112-.28-.056-.307.308-.5Zm.812-4.425c.28.168.42.28.42.448a.625.625,0,0,1-.28.477,4.03,4.03,0,0,0-.672.867,17.981,17.981,0,0,1-3.136,3.836c-.308.28-.476.448-.616.448s-.28-.2-.532-.588a6.311,6.311,0,0,0-1.344-1.372,14.72,14.72,0,0,0,3.36-3.723,6.56,6.56,0,0,0,.616-1.344A18.011,18.011,0,0,1,499.327,768.665Zm-1.54-1.567c-2.632,0-3.556.055-3.724.055-.28,0-.308-.028-.308-.307v-2.128c0-.28.028-.309.308-.309.168,0,1.092.057,3.724.057h1.792v-.813a16.146,16.146,0,0,0-.2-2.967c1.036.028,2.128.084,3.052.2.28.027.476.168.476.279a1.317,1.317,0,0,1-.168.589,4.375,4.375,0,0,0-.224,1.9v.813H505.1c2.632,0,3.528-.057,3.7-.057.308,0,.335.029.335.309v2.128c0,.279-.027.307-.335.307-.168,0-1.064-.055-3.7-.055Zm6.552.756c.336-.2.391-.2.588.084a14.956,14.956,0,0,0,4.592,4.368,8.4,8.4,0,0,0-1.26,1.735c-.224.448-.336.616-.5.616-.14,0-.308-.111-.588-.336a17.727,17.727,0,0,1-4.508-5.067c-.168-.252-.112-.309.224-.505Z" fill="#1482ca"/>
  </g>
</svg>
