<svg xmlns="http://www.w3.org/2000/svg" width="146.647" height="57.843" viewBox="0 0 146.647 57.843">
  <g id="グループ_4321" data-name="グループ 4321" transform="translate(-969.671 -2013.319)">
    <g id="グループ_3003" data-name="グループ 3003">
      <g id="グループ_3002" data-name="グループ 3002">
        <path id="パス_4445" data-name="パス 4445" d="M976.224,2026.319c.233.157.389.313.389.494,0,.13-.078.26-.286.416a2.437,2.437,0,0,0-.649.884,20.079,20.079,0,0,1-2.887,4.343.71.71,0,0,1-.52.312.753.753,0,0,1-.39-.157,7.555,7.555,0,0,0-2.21-1.091,17.368,17.368,0,0,0,3.146-4.291,5.783,5.783,0,0,0,.7-2.106A12.153,12.153,0,0,1,976.224,2026.319Zm3.458-7.15a20.116,20.116,0,0,0-.286-4c1.221.1,2.574.26,3.223.39q.469.078.469.39a1,1,0,0,1-.156.468,6.033,6.033,0,0,0-.26,2.6v1.378h3.2c2.263,0,4.03-.1,5.3-.157.234-.026.338.13.338.416a17.615,17.615,0,0,1-.026,2.029c-.026.338-.1.519-.364.494-1.612-.053-3.589-.131-5.356-.131H982.7l.027,5.253c0,1.378.051,2.5.051,4.523a2.706,2.706,0,0,1-1.534,2.679,8.055,8.055,0,0,1-3.328.857c-.311,0-.468-.155-.624-.545a6.062,6.062,0,0,0-1.742-2.34,12.987,12.987,0,0,0,3.536-.312c.416-.182.6-.469.6-1.144v-8.971H975.6c-1.483,0-3.277.078-4.5.183-.235,0-.339-.208-.339-.521-.026-.468-.1-1.638-.1-2.5,1.976.156,3.562.183,4.888.183h4.135Zm7.644,6.215a.5.5,0,0,1,.338-.13.493.493,0,0,1,.39.233,20.029,20.029,0,0,1,3.717,4.759.677.677,0,0,1,.131.39.5.5,0,0,1-.26.416,14.494,14.494,0,0,1-1.743,1.3.844.844,0,0,1-.311.156c-.105,0-.182-.078-.286-.26a25.252,25.252,0,0,0-3.952-5.461C986.052,2026.268,986.728,2025.825,987.326,2025.384Z" fill="#d40e64"/>
        <path id="パス_4446" data-name="パス 4446" d="M1007.865,2024.915a14.846,14.846,0,0,1-1.534,6.631,13.1,13.1,0,0,1-4.576,4.914,1.581,1.581,0,0,1-.78.311.769.769,0,0,1-.546-.259,6.83,6.83,0,0,0-2.314-1.378c2.548-1.378,4.082-2.653,5.174-4.628a11.037,11.037,0,0,0,1.326-5.591h-4.94c-1.3,0-2.574.078-3.9.156-.234.027-.312-.156-.338-.494a15.634,15.634,0,0,1-.208-2.5c1.456.13,2.912.13,4.42.13h11.674c2.029,0,3.536-.052,5.071-.155.259,0,.286.155.286.519.026.338.026,1.664,0,2,0,.338-.157.443-.39.443-1.352-.052-3.146-.1-4.94-.1Zm-5.148-6.032c-1.2,0-2.236.053-3.692.1-.337,0-.416-.13-.442-.442-.078-.624-.1-1.56-.182-2.5,1.82.1,3.146.13,4.316.13h5.824c1.456,0,3.095-.026,4.395-.1.259,0,.312.156.312.494a11.566,11.566,0,0,1,0,1.9c0,.364-.053.494-.339.494-1.4-.052-2.937-.078-4.368-.078Z" fill="#d40e64"/>
        <path id="パス_4447" data-name="パス 4447" d="M1025.363,2019.065c.443.13.494.442.339.806a3.755,3.755,0,0,0-.312,1.769,19.433,19.433,0,0,1-1.405,7.643,13.38,13.38,0,0,1-3.691,4.889,1.184,1.184,0,0,1-.677.338.89.89,0,0,1-.494-.208,9.141,9.141,0,0,0-2.21-1.092,12.9,12.9,0,0,0,4.316-5.175c.729-1.767,1.067-3.2,1.092-7.357a7,7,0,0,0-.259-2.185A21,21,0,0,1,1025.363,2019.065Zm5.773,11a26.335,26.335,0,0,0,3.692-2.417,24.984,24.984,0,0,0,4.55-4.42,7.481,7.481,0,0,0,.807,2.626,1.279,1.279,0,0,1,.155.441c0,.183-.1.364-.39.65a32.846,32.846,0,0,1-3.847,3.407,43.454,43.454,0,0,1-4.629,3.12,8.427,8.427,0,0,0-.754.546.826.826,0,0,1-.52.208,1.108,1.108,0,0,1-.546-.208,7.534,7.534,0,0,1-1.56-1.586,1.043,1.043,0,0,1-.235-.546.8.8,0,0,1,.1-.39c.182-.339.156-.65.156-1.976v-8.139a20.684,20.684,0,0,0-.261-4.524,24.8,24.8,0,0,1,3.251.546c.338.078.468.234.468.442a1.664,1.664,0,0,1-.208.65c-.234.494-.234,1.014-.234,2.886Z" fill="#d40e64"/>
        <path id="パス_4448" data-name="パス 4448" d="M1044.239,2038.046H1042.6l10.583-24.727h1.637Z" fill="#d40e64"/>
        <path id="パス_4449" data-name="パス 4449" d="M975.521,2054.963c-1.689,0-3.171.078-4.29.131-.337.025-.442-.156-.494-.521-.078-.52-.181-1.872-.233-2.626a45.533,45.533,0,0,0,4.992.182h9.282a2.484,2.484,0,0,0,1.43-.26.733.733,0,0,1,.39-.1,1.252,1.252,0,0,1,.494.13,7.974,7.974,0,0,1,1.9,1.715.654.654,0,0,1,.182.442.888.888,0,0,1-.363.65,3.123,3.123,0,0,0-.6,1.014,30.6,30.6,0,0,1-5.044,8.451,29.114,29.114,0,0,1-7.385,6.187,1.249,1.249,0,0,1-.7.235.912.912,0,0,1-.65-.286,7.71,7.71,0,0,0-2.418-1.43,25.143,25.143,0,0,0,8.5-6.5,21.864,21.864,0,0,0,4.394-7.41Zm12.689-6.136c.13-.1.234-.078.391.052a11.99,11.99,0,0,1,2.469,2.782.262.262,0,0,1-.078.416l-.962.7a.272.272,0,0,1-.442-.078,12.848,12.848,0,0,0-2.626-3.015Zm2.132-1.586c.156-.1.234-.078.39.052a10.842,10.842,0,0,1,2.47,2.678c.1.156.13.286-.078.468l-.857.7a.315.315,0,0,1-.208.1.278.278,0,0,1-.235-.182,12.318,12.318,0,0,0-2.6-2.99Z" fill="#d40e64"/>
        <path id="パス_4450" data-name="パス 4450" d="M1000.715,2058.136c-1.3,0-2.6.025-3.9.1-.233,0-.337-.156-.389-.494a19.694,19.694,0,0,1-.286-2.626,46.01,46.01,0,0,0,4.784.208h8.918a2.861,2.861,0,0,0,1.378-.286.567.567,0,0,1,.339-.156.667.667,0,0,1,.389.182,15.364,15.364,0,0,1,1.742,1.613.763.763,0,0,1,.26.546.63.63,0,0,1-.286.494,2.982,2.982,0,0,0-.884,1.221c-2.6,5.538-5.59,8.788-10.608,11.493a1.247,1.247,0,0,1-.521.182.848.848,0,0,1-.571-.312,7.624,7.624,0,0,0-2.418-1.352c4.81-2.236,9.048-5.824,10.92-10.843Zm1.742-5.591c-1.17,0-2.471.026-3.562.1-.26,0-.338-.156-.364-.572a22.634,22.634,0,0,1-.131-2.5,35.838,35.838,0,0,0,4.265.182h4.68c1.69,0,3.068-.077,4.083-.13.233,0,.311.13.311.416a13.2,13.2,0,0,1,0,2.028c0,.443-.078.546-.468.521-.858,0-2.08-.053-3.666-.053Z" fill="#d40e64"/>
        <path id="パス_4451" data-name="パス 4451" d="M1030.8,2064.688c0,1.793.025,3.328.078,5.408.025.338-.1.442-.391.442a21.669,21.669,0,0,1-2.6,0c-.286,0-.391-.1-.365-.416.027-1.872.1-3.562.1-5.33v-6.059a44.939,44.939,0,0,1-7.149,4.993.738.738,0,0,1-.391.1.723.723,0,0,1-.546-.261,9.759,9.759,0,0,0-2.236-1.534,44.118,44.118,0,0,0,13.728-10.764,7.526,7.526,0,0,0,1.639-2.678,23.2,23.2,0,0,1,2.886,1.82.461.461,0,0,1,.208.39.745.745,0,0,1-.365.572,8.6,8.6,0,0,0-1.559,1.43,41.3,41.3,0,0,1-3.042,3.276Z" fill="#d40e64"/>
        <path id="パス_4452" data-name="パス 4452" d="M1054.381,2052.545a2.535,2.535,0,0,0,1.43-.39.757.757,0,0,1,.442-.182.891.891,0,0,1,.468.209,8.369,8.369,0,0,1,1.767,1.586.628.628,0,0,1,.208.467.66.66,0,0,1-.286.494,3.273,3.273,0,0,0-.779.988,40.543,40.543,0,0,1-3.822,6.293,22.938,22.938,0,0,1,2.807,2.626.506.506,0,0,1,.156.364.5.5,0,0,1-.156.338,16.147,16.147,0,0,1-1.611,1.638.542.542,0,0,1-.313.129.449.449,0,0,1-.286-.156,29.063,29.063,0,0,0-2.521-2.521,31.706,31.706,0,0,1-8.3,6.5,1.414,1.414,0,0,1-.65.234.781.781,0,0,1-.494-.234,7.387,7.387,0,0,0-2.47-1.326,31.525,31.525,0,0,0,9.568-7.046,21.662,21.662,0,0,0-3.744-2.445c.572-.624,1.118-1.3,1.717-1.845a.486.486,0,0,1,.337-.183.673.673,0,0,1,.26.1,25.95,25.95,0,0,1,3.355,2.08,25.1,25.1,0,0,0,3.042-5.149l-6.448.13a31.478,31.478,0,0,1-5.565,5.851.94.94,0,0,1-.519.234.593.593,0,0,1-.416-.183,10.931,10.931,0,0,0-2.185-1.2,29,29,0,0,0,7.358-8.164,9.607,9.607,0,0,0,1.405-3.2,16.429,16.429,0,0,1,3.042,1.274.456.456,0,0,1,.286.416.7.7,0,0,1-.313.52,2.159,2.159,0,0,0-.546.547c-.208.363-.364.623-.8,1.3Zm3.38-3.588c.13-.1.233-.078.389.052a11.949,11.949,0,0,1,2.471,2.782.262.262,0,0,1-.078.416l-1.092.807a.272.272,0,0,1-.442-.078,12.912,12.912,0,0,0-2.626-3.017Zm2.313-1.69c.156-.1.235-.078.391.052a10.858,10.858,0,0,1,2.47,2.678.3.3,0,0,1-.079.468l-1.04.806a.265.265,0,0,1-.441-.078,12.284,12.284,0,0,0-2.6-2.99Z" fill="#d40e64"/>
        <path id="パス_4453" data-name="パス 4453" d="M1071.359,2053.065c.442.13.494.442.338.806a3.754,3.754,0,0,0-.312,1.769,19.434,19.434,0,0,1-1.405,7.643,13.381,13.381,0,0,1-3.691,4.889,1.185,1.185,0,0,1-.677.338.885.885,0,0,1-.493-.208,9.168,9.168,0,0,0-2.211-1.092,12.9,12.9,0,0,0,4.317-5.175c.728-1.767,1.066-3.2,1.091-7.357a7,7,0,0,0-.259-2.185A21.058,21.058,0,0,1,1071.359,2053.065Zm5.772,11a26.271,26.271,0,0,0,3.692-2.417,25.018,25.018,0,0,0,4.55-4.42,7.5,7.5,0,0,0,.807,2.626,1.283,1.283,0,0,1,.156.441c0,.183-.105.364-.391.65a32.8,32.8,0,0,1-3.847,3.407,43.473,43.473,0,0,1-4.629,3.12,8.4,8.4,0,0,0-.754.546.826.826,0,0,1-.52.208,1.109,1.109,0,0,1-.546-.208,7.535,7.535,0,0,1-1.56-1.586,1.039,1.039,0,0,1-.234-.546.8.8,0,0,1,.1-.39c.182-.339.156-.65.156-1.976v-8.139a20.76,20.76,0,0,0-.26-4.524,24.852,24.852,0,0,1,3.25.546c.338.078.468.234.468.442a1.664,1.664,0,0,1-.208.65c-.234.494-.234,1.014-.234,2.886Z" fill="#d40e64"/>
      </g>
    </g>
    <g id="グループ_3004" data-name="グループ 3004">
      <path id="パス_4454" data-name="パス 4454" d="M1104.7,2050.168l10.8,8.332-10.8,8.332" fill="none" stroke="#d40e64" stroke-miterlimit="10" stroke-width="1"/>
      <line id="線_99" data-name="線 99" x1="18" transform="translate(1098 2058.5)" fill="none" stroke="#d40e64" stroke-miterlimit="10" stroke-width="1"/>
    </g>
  </g>
</svg>
