<svg xmlns="http://www.w3.org/2000/svg" width="163" height="179.497" viewBox="0 0 163 179.497">
  <g id="グループ_4315" data-name="グループ 4315" transform="translate(-968 -1494.503)">
    <circle id="楕円形_116" data-name="楕円形 116" cx="81.5" cy="81.5" r="81.5" transform="translate(968 1511)" fill="#1482ca" opacity="0.3"/>
    <g id="グループ_2973" data-name="グループ 2973">
      <path id="パス_4276" data-name="パス 4276" d="M1056.341,1637.008c-8.871.394-4.68,12.87-16.38,13.455-8.427.421-12.285-4.095-12.285-8.775,0-18.163,29.81-20.084,34.515-17.55C1069.8,1628.233,1075.043,1636.176,1056.341,1637.008Z" opacity="0.1"/>
      <g id="グループ_2972" data-name="グループ 2972">
        <path id="パス_4277" data-name="パス 4277" d="M1075.757,1533.763l-9.8-10.69-8.812-8.055v6.791l5.177,11.827,7.05,4.649,3.605,10.351s2.6,1.964,4.836,3.872c1.638,1.4,2.761-3.485,3.372-4.137Z" fill="#002b6a"/>
        <path id="パス_4278" data-name="パス 4278" d="M1057.061,1619.861l-9.176,4.867,1.174,4.484,4.58,1.711,6.9,3.415,5.6-1.858.058-3.827-6.186-4.143Z" fill="#002b6a"/>
        <path id="パス_4279" data-name="パス 4279" d="M1063.4,1568.16l-16.583-3.287,2.072,31.664-1.074,4.6-1.243,24.439,6.59,1.334,6.083-4.382,1.006-26.376Z" fill="#002b6a"/>
        <path id="パス_4280" data-name="パス 4280" d="M1032.384,1631.729l-1.426,5.39,2.605,6.547,4.989,4.969,7.2-2.411.109-3.146-3.6-5.523-1.144-4.776Z" fill="#002b6a"/>
        <path id="パス_4281" data-name="パス 4281" d="M1034.961,1573.122l-2.254,27.28-2.129,9.742-1.145,22.995,8.962,2.788,3.894-3.15,3.485-31.057,7.094-28.655s8.291-.308,10.533-6.472c-.082-.683-.708-4.589-.708-4.589Z" fill="#002b6a"/>
        <path id="パス_4282" data-name="パス 4282" d="M1040.464,1515l-1.107,3.2c-.315.362,7.758,7.017,7.758,7.017h3.147l3.972-5.844-10.7-8.833Z" fill="#f79b69"/>
        <path id="パス_4283" data-name="パス 4283" d="M1052.294,1521.345l-1.639,2.2-6.43-1.53-4.877-4.507-1.319,2.355-1.125,1.347,5.845,10.989,10.935,11.451,5.126-2.286.93-13.358-4.562-10.889Z" fill="#fff"/>
        <path id="パス_4284" data-name="パス 4284" d="M1052.875,1526.56l.327-1.578-2.547-1.44-1.785,2.935,2.157.773,1,4.854s.2,8.276.638,13.083l6.667-2.063-4.317-11.75Z" fill="#33b2c3"/>
        <path id="パス_4285" data-name="パス 4285" d="M1064.542,1573.161l-.944-17.177.392-23.143-2.03-9.768-5.3-6.985-5.3-.664,4.1,9.8.75,5.754-.819,9.173-6.154-7.368-6.7-6.282-4.5-6.637c-4.169,4.114-4.45,4.627-8.508,8.249.27,1.68,6,29.677,6,29.677l-2.294,19,4.642,5.4,16.913-1.774s1.477-6.682,2.462-12.722a95.459,95.459,0,0,1,1.743,10.024Z" fill="#083a75"/>
        <path id="パス_4286" data-name="パス 4286" d="M1045.114,1544.885s-1.166,2.554,1.677,5.627c2.079,2.246,4.068.88,4.068.88s1.745-1.277-.873-4.642S1045.114,1544.885,1045.114,1544.885Z" fill="#001549"/>
        <path id="パス_4287" data-name="パス 4287" d="M1059.446,1541.429l-8.791-.243-3.952,2.967v2.6l4.148,2.155.906-1.248,3.678,1.451.954,1.633,3.157.122,2.513-2.056.861-1.987,1.621,1.2.727-.525-1.259-3.608Z" fill="#fab585"/>
        <path id="パス_4288" data-name="パス 4288" d="M1047.691,1543.411c-.373.122-3.466,2.8-3.466,2.8v5.747l4.283.337,2.343-3.384-2.662-2.061-.842-2.291S1047.537,1543.832,1047.691,1543.411Z" fill="#fff"/>
        <path id="パス_4289" data-name="パス 4289" d="M1045.114,1544.885c-.407.392-4.6,2.834-4.6,2.834l-2.719-15.684-3.828-4.365-4.445.438-1.243,1.726-.912,6.356,1.538,6.006,4.177,16.595,3.358,2.519,4.565-1.251,9.855-8.667-3.358-.892-2.284-3.514A12.923,12.923,0,0,1,1045.114,1544.885Z" fill="#002b6a"/>
        <path id="パス_4290" data-name="パス 4290" d="M1053.429,1500.543l-8.495,2.9-4.418,5.054.7,5.846,1.31,1.079.928-.245.755,2.885,7.543,4.959,3.048-.977,2.875-6.744v-2.6a1.626,1.626,0,0,0,1.061-.967c.3-.785-.413-5.564-.413-5.564Z" fill="#fab585"/>
        <path id="パス_4291" data-name="パス 4291" d="M1047.313,1498.407c-9.047.727-8.559,11.451-8.559,11.451l1.385,4.169.073,1.705,1.521-.963a3.555,3.555,0,0,1-.373-1.14c-1.547-6.146,2.865-1.434,2.865-1.434s1.751,1.939,2.615,1.939,1.151-2.907,1.151-2.907a2.009,2.009,0,0,0,2.232-.483,2.452,2.452,0,0,0,.432-2.258s4.191.968,5.734.484c4.218-2.662,2.038-7.277,2.038-7.277S1053.056,1494.294,1047.313,1498.407Z" fill="#663f30"/>
        <g id="グループ_2970" data-name="グループ 2970">
          <path id="パス_4292" data-name="パス 4292" d="M1062.669,1549.474l-7.652,20.76.766.724,7.653-20.76,20.135-11.731-.767-.728Z" fill="#33b2c3"/>
          <path id="パス_4293" data-name="パス 4293" d="M1055.782,1570.958l20.134-11.731,7.655-20.76-20.135,11.731Z" fill="#0e6d8d"/>
        </g>
        <path id="パス_4294" data-name="パス 4294" d="M1078.87,1550.155a3.135,3.135,0,0,0-1.773,1.286c-.766,1.089-2.175,4.5-1.821,4.637s1.062.87,1.77.426c.393-.44,2.99-2.619,3.422-4.109s-.6-4.024-.6-4.024Z" fill="#f79b69"/>
        <g id="グループ_2971" data-name="グループ 2971">
          <path id="パス_4295" data-name="パス 4295" d="M1037.716,1507.79l1.244,3.282,1.921-.879-1.319-3.088Z" fill="#002b6a"/>
          <path id="パス_4296" data-name="パス 4296" d="M1059.823,1508.117l-20.532-5.446a5.348,5.348,0,0,0-1.713,1.913,6.586,6.586,0,0,0-.406.71l-.139-.018-.115.9c-.091.9.246,2.135,1.871,3.493a15.61,15.61,0,0,0,5.6,2.892s3.762,4.3,8.568,4.791c.46.047,7.44.555,9.548-3.852a2.789,2.789,0,0,0,.158-.52h.007l.008-1.082C1062.318,1509.755,1059.823,1508.117,1059.823,1508.117Z" fill="#d53a3a"/>
          <path id="パス_4297" data-name="パス 4297" d="M1059.937,1507.29l-20.533-5.443a5.3,5.3,0,0,0-1.712,1.913c-.442.707-1.8,2.566,1.212,5.078a15.581,15.581,0,0,0,5.6,2.891s3.824,4.357,8.121,5.121c.433.157,7.772,1.057,9.879-3.347C1063.653,1510.636,1059.937,1507.29,1059.937,1507.29Z" fill="#ff6835"/>
          <path id="パス_4298" data-name="パス 4298" d="M1050.581,1494.874c-10.3-2.537-12.447,9.012-12.513,9.316-1.6,6.371,12.91,8.26,12.91,8.26s6.9,1.386,9.1-2.964C1060.5,1507.716,1060.819,1497.4,1050.581,1494.874Z" fill="#e23d1e"/>
          <path id="パス_4299" data-name="パス 4299" d="M1050.58,1494.874c-10.262-2.564-12.423,9-12.512,9.316-1.755,6.33,12.91,8.26,12.91,8.26s6.9,1.386,9.1-2.964C1060.5,1507.716,1060.81,1497.43,1050.58,1494.874Z" fill="#e23d1e"/>
          <path id="パス_4300" data-name="パス 4300" d="M1046.345,1494.905a12.033,12.033,0,0,0-1.565.109,6.916,6.916,0,0,0-2.244,1.279c1.412.073,3.164.22,3.786.3,11.81,1.552,9.079,15.073,9.1,15.913.022,1.036,3.729-.689,3.392-1.43C1059.221,1509.437,1060.894,1494.905,1046.345,1494.905Z" fill="#ff6835" opacity="0.66"/>
          <path id="パス_4301" data-name="パス 4301" d="M1042.529,1496.279c.08-.03-.074.082-.155.127,16.635-.45,12.356,16.19,12.356,16.19l.689-.089S1059.858,1495.562,1042.529,1496.279Z" fill="#c0301e"/>
        </g>
      </g>
    </g>
  </g>
</svg>
