<svg xmlns="http://www.w3.org/2000/svg" width="306" height="85" viewBox="0 0 306 85">
  <g id="グループ_4323" data-name="グループ 4323" transform="translate(-185 -1866)">
    <g id="パス_4235" data-name="パス 4235" fill="none" stroke-miterlimit="10">
      <path d="M463,1951H185v-85H463l28,41.42Z" stroke="none"/>
      <path d="M 462.453857421875 1950 L 489.8023986816406 1907.43408203125 L 462.4689636230469 1867 L 186 1867 L 186 1950 L 462.453857421875 1950 M 463 1951 L 185 1951 L 185 1866 L 463 1866 L 491 1907.420166015625 L 463 1951 Z" stroke="none" fill="#e25aa4"/>
    </g>
    <g id="グループ_2967" data-name="グループ 2967">
      <path id="パス_4236" data-name="パス 4236" d="M236.572,1898.51a2.972,2.972,0,0,0-1.511,2.448c-.025.36-.048.768-.649.768-1.3,0-4.559-1.945-6.24-4.369a14.956,14.956,0,0,1-1.848-4.056h-.049v8.593c0,.384-.023.576-.456.6l-1.943.12c-.433.024-.505-.024-.505-.648v-6.385a22.375,22.375,0,0,1-9.6,6.049l-.073-.072a28.141,28.141,0,0,0,6.289-6,17.973,17.973,0,0,0,1.464-2.257h-1.824v.673c0,.288-.023.624-.5.647l-1.872.12c-.6.048-.6-.095-.6-.552v-8.953c.7.168,2.64.649,3.432.912h3.288v-2.639H214.4l-.121-.288h9.1v-2.881c.624.024,2.833.168,3.217.216.36.024.432.072.432.168,0,.216-.409.312-.745.384v2.113h5.162l1.416-1.849c.215-.264.215-.311.288-.311a12.91,12.91,0,0,1,2.759,2.255c0,.193-.168.193-.311.193h-9.314v2.639h3.578l.767-1.032c.336-.431.432-.431.528-.431.289,0,2.88,1.752,2.88,2.16,0,.384-.792.719-.935.767v6.049c0,.432,0,.649-.553.7l-1.8.144c-.624.048-.624-.144-.624-.576v-.624H226.54c1.512,2.5,5.473,4.657,10.032,5.161Zm-13.2-8.977v-3.1h-3.744v3.1Zm0,3.5v-3.216h-3.744v3.216Zm2.9-6.6v3.1h3.841v-3.1Zm0,3.384v3.216h3.841v-3.216Z" fill="#d40e64"/>
      <path id="パス_4237" data-name="パス 4237" d="M258.076,1883.412l1.393-1.944c.12-.168.216-.264.312-.264a16.215,16.215,0,0,1,2.664,2.305c0,.191-.168.191-.312.191h-21.7l-.121-.288h9.553v-3.192c.5.024,2.784.24,3.336.288.168.024.5.048.5.264,0,.192-.1.216-.768.36v2.28Zm-17.761,17.594a22.209,22.209,0,0,0,4.8-6.817c.385.168,3.553,1.609,3.553,1.9,0,.169-.192.169-.313.169a2.724,2.724,0,0,1-.456-.072,21.818,21.818,0,0,1-7.56,4.872Zm12.625-.84c0,.888,0,2.328-3.48,2.328-.24,0-.648,0-.648-.24,0-1.656,0-2.208-2.4-3.168v-.1c1.991.12,2.208.145,2.735.145.721,0,.721-.24.721-.6v-6.048H246.7v.552c0,.384-.023.528-.431.552l-2.017.12c-.552.024-.552-.191-.552-.624v-7.729c.145.048,3.072.769,3.385.84h8.856l.865-1.223c.168-.241.24-.361.383-.361a16.191,16.191,0,0,1,2.833,1.969.551.551,0,0,1,.047.191c0,.265-.624.577-.983.745v5.209c0,.479,0,.671-.384.7l-2.112.12c-.481.024-.481-.168-.481-.5v-.552H252.94Zm-6.241-13.7v5.736h9.409v-5.736Zm7.465,8.137c.6.143,6.937,1.679,6.937,4.559a1.823,1.823,0,0,1-1.848,1.945.834.834,0,0,1-.912-.577,17.9,17.9,0,0,0-4.225-5.879Z" fill="#d40e64"/>
      <path id="パス_4238" data-name="パス 4238" d="M279.82,1888.524c0,.241-.432,1.3-.456,1.513-.144.816-.432,4.536-.576,5.376,3.384-.239,3.769-.264,4.488-.384a3.292,3.292,0,0,0,1.489-.672c.408.216,2.256,1.008,2.616,1.224.744.433.984.744.984,1.2a1,1,0,0,1-.984,1.057,11.7,11.7,0,0,1-2.256-.385,16.837,16.837,0,0,0-4.009-.479c-2.784,0-9.409.672-10.081,1.128-.624.408-.815.551-1.032.551-.72,0-2.9-1.584-2.9-3.095a2.453,2.453,0,0,1,.552-1.416c.48,1.536,1.512,1.679,2.737,1.679,1.92,0,4.343-.143,5.976-.263.072-1.057.144-4.393.144-5.618a3.482,3.482,0,0,0-.7-2.471,13.028,13.028,0,0,0-2.352.5,4.922,4.922,0,0,1-1.08.36c-.744,0-2.329-1.345-2.329-2.232a2.663,2.663,0,0,1,.673-1.609,2.134,2.134,0,0,0,1.992,1.513c.288,0,6.264-.456,7.92-.769a4.207,4.207,0,0,0,1.7-.767c.408.216,2.257,1.008,2.593,1.223a1.029,1.029,0,0,1,.528.84c0,.649-.6.744-.912.744-.433,0-3.433-.168-4.081-.168a18.155,18.155,0,0,0-2.088.1C278.62,1887.3,279.82,1887.853,279.82,1888.524Z" fill="#d40e64"/>
      <path id="パス_4239" data-name="パス 4239" d="M294.723,1901.6a13.382,13.382,0,0,0,5.736-8.064,19.469,19.469,0,0,0,.816-4.632.787.787,0,0,0-.839-.912c-.145,0-.241.024-.721.071a2.076,2.076,0,0,1,2.04-1.248c.648,0,3.072.624,3.072,1.3,0,.071-.216.84-.311,1.176a18.844,18.844,0,0,0,3.5-4.944c-2.64.191-8.041.672-10.225,1.559-1.273.5-1.416.553-1.776.553a3.63,3.63,0,0,1-2.928-2.881c0-.624.239-.864.815-1.439a2.759,2.759,0,0,0,2.257,1.8c.624,0,11.112-.792,11.28-.816a4.059,4.059,0,0,0,1.3-.552,1.3,1.3,0,0,1,.624-.216c.864,0,2.88,2.208,2.88,3.241,0,.551-.312.551-1.728.6a34.866,34.866,0,0,1-6.1,3.408c-1.105,4.057-1.393,5.114-2.473,6.841a12.147,12.147,0,0,1-7.224,5.257Z" fill="#d40e64"/>
      <path id="パス_4240" data-name="パス 4240" d="M329.117,1892.245a1.6,1.6,0,0,1-1.608,1.752c-.72,0-1.008-.432-1.872-1.656a10.77,10.77,0,0,0-3.985-3.24c-.048,2.52,0,4.32.048,5.424.025.84.456,4.513.456,5.256,0,.865-.24,2.521-1.584,2.521s-1.8-1.945-2.016-3.361c.624-1.992.72-6.744.72-9.1,0-.792-.048-5.977-.216-6.721a1.221,1.221,0,0,0-1.3-.912,2.416,2.416,0,0,0-.744.12,3.02,3.02,0,0,1,2.3-1.608c.96,0,3,.337,3,1.536,0,.288-.384,1.465-.431,1.7-.145.863-.217,3.6-.217,4.68C325.732,1888.813,329.117,1890.061,329.117,1892.245Z" fill="#d40e64"/>
      <path id="パス_4241" data-name="パス 4241" d="M333.628,1901.966a18.2,18.2,0,0,0,13.2-12.769c-2.761.407-7.057,1.032-9.193,1.9a7.618,7.618,0,0,1-1.248.456c-.72,0-2.952-1.536-2.952-2.736a2.993,2.993,0,0,1,.648-1.56,2.179,2.179,0,0,0,2.328,1.464c.576,0,9.288-.432,10.536-1.08.217-.1,1.009-.912,1.225-.912.336,0,2.88,1.7,2.88,2.448,0,.408-.408.648-1.2,1.128-1.464,3.912-4.92,10.921-16.2,11.737Zm5.76-19.274c1.8,0,4.608-.288,6-1.32.6.12,2.784.816,2.784,1.632a1.363,1.363,0,0,1-.72,1.1c-.576.144-7.392.672-7.993.672-2.3,0-2.809-1.248-3.456-2.88A5.3,5.3,0,0,0,339.388,1882.692Z" fill="#d40e64"/>
      <path id="パス_4242" data-name="パス 4242" d="M357.8,1889.893c.72,0,2.088-1.08,5.544-3.84.6-.481.912-.624,1.177-.624.5,0,.935.384,1.824,1.152a48.737,48.737,0,0,0,9.864,6.84,3.4,3.4,0,0,1,1.729,2.736,1.458,1.458,0,0,1-1.344,1.489c-2.041,0-8.281-6.241-11.234-9.242-.624-.647-.7-.719-.936-.719-.743,0-4.56,4.68-4.848,5.28-.336.672-.408.816-.792.816-.264,0-.552,0-1.7-1.176a3.632,3.632,0,0,1-1.2-2.376,2.97,2.97,0,0,1,.576-1.608C356.812,1889.484,357.388,1889.893,357.8,1889.893Zm16.561-3.384a1.015,1.015,0,0,1-1.032,1.1c-.528,0-.6-.12-1.152-.983a8.277,8.277,0,0,0-2.424-2.5C373.781,1884.276,374.357,1885.765,374.357,1886.509Zm-1.2-4.9c1.824,0,3.649.5,3.649,1.992a1.1,1.1,0,0,1-.985,1.2c-.383,0-.408-.025-1.175-1.033a7.057,7.057,0,0,0-2.785-2.087A9.783,9.783,0,0,1,373.157,1881.612Z" fill="#d40e64"/>
      <path id="パス_4243" data-name="パス 4243" d="M381.435,1900.646a16.044,16.044,0,0,0,5.76-11.786c0-.456,0-1.511-1.7-1.416.985-.863,1.416-1.2,2.113-1.2,1.127,0,2.928,1.129,2.928,1.777a1.173,1.173,0,0,1-.288.671c-.7,5.5-2.833,9.049-8.809,12Zm23.738-15.337a22.069,22.069,0,0,1-8.353,11.617,5.164,5.164,0,0,0-1.56,1.512c-.216.432-.312.624-.72.624-.672,0-2.352-2.544-2.352-3.048a9.692,9.692,0,0,1,.288-1.2,26.209,26.209,0,0,0,.192-3.864,46.2,46.2,0,0,0-.216-5.617,1.442,1.442,0,0,0-1.584-1.08c.96-.888,1.3-1.224,1.968-1.224,1.393,0,2.952,1.416,2.952,1.993a9.869,9.869,0,0,1-.479,1.007c-.265.649-.241,8.161-.217,8.234a27.96,27.96,0,0,0,10.057-9Z" fill="#d40e64"/>
      <path id="パス_4244" data-name="パス 4244" d="M413.284,1891.429a2.064,2.064,0,1,1-2.064-2.064A2.064,2.064,0,0,1,413.284,1891.429Z" fill="#d40e64"/>
      <path id="パス_4245" data-name="パス 4245" d="M219.892,1929.869c0,1.872-.913,4.176-3.288,4.176a1.5,1.5,0,0,1-1.585-1.487c0-.745.432-1.009,1.417-1.609,1.607-.984,2.255-2.112,2.952-4.224A10,10,0,0,1,219.892,1929.869Zm.744,1.968a13.868,13.868,0,0,0,2.183.36c.553,0,.7-.312.769-1.2.1-.936.191-4.849.191-7.513a25.05,25.05,0,0,0-4.656.96c-.1.025-1.2.336-1.319.336a3.071,3.071,0,0,1-2.449-2.688,1.766,1.766,0,0,1,.384-1.176,3.473,3.473,0,0,0,3.025,1.393c.6,0,.84-.025,5.015-.409,0-.816-.048-3.648-.383-4.176-.168-.264-.648-.6-1.68-.577.479-.624,1.176-1.511,2.16-1.511.815,0,2.688.84,2.688,1.56a8.907,8.907,0,0,1-.456,1.1c-.1.384-.1,2.664-.1,3.36,2.76-.384,3.888-.6,4.488-1.488a8.984,8.984,0,0,1,3.265,1.128.947.947,0,0,1,.576.864,1.023,1.023,0,0,1-.985,1.08c-.1,0-1.463-.168-1.608-.191a18.576,18.576,0,0,0-2.063-.193c-1.153,0-3.1.241-3.673.313,0,4.271,0,5.472.144,7.392.024.36.168,1.968.168,2.3,0,1.536-1.056,3.36-2.328,3.36-.6,0-.673-.288-.936-1.272a4.461,4.461,0,0,0-2.424-3.023Zm14.136-.12a1.867,1.867,0,0,1-1.872,2.112c-1.055,0-1.248-.84-1.416-1.632a13.592,13.592,0,0,0-3.192-6.1C229.973,1926.772,234.772,1928.669,234.772,1931.717Z" fill="#d40e64"/>
      <path id="パス_4246" data-name="パス 4246" d="M241.348,1936.638c7.873-4.777,8.184-10.946,8.184-11.186a1.339,1.339,0,0,0-.384-.96,25.119,25.119,0,0,0-5.088,1.153c-.168.047-1.344.5-1.464.5-.792,0-2.64-1.559-2.64-2.448,0-.336.119-.5.527-1.032a1.948,1.948,0,0,0,1.8,1.129c.456,0,10.992-1.08,11.929-1.2,1.488-.217,1.8-.576,2.184-1.033.408.192,2.281.816,2.64.984.6.265,1.008.553,1.008,1.081,0,.264-.144,1.128-.936,1.128-.383,0-2.016-.385-2.352-.456a12.5,12.5,0,0,0-2.28-.168c-.888,0-1.728.048-2.064.071.359.145.983.408.983.7,0,.241-.215.433-.576.769-1.1,4.272-3.191,8.593-11.448,11.064Zm4.176-19.082a36.148,36.148,0,0,0,6.649-.888,1.889,1.889,0,0,0,1.032-.792,25.465,25.465,0,0,1,2.544,1.032c.528.264.576.5.576.816,0,1.032-.72,1.056-2.616,1.152-1.032.048-5.809.5-6.648.624-.1.024-1.128.192-1.3.192-1.2,0-2.136-2.04-2.376-2.616A3.6,3.6,0,0,0,245.524,1917.556Z" fill="#d40e64"/>
      <path id="パス_4247" data-name="パス 4247" d="M260.308,1935.245a16.043,16.043,0,0,0,5.76-11.785c0-.456,0-1.512-1.7-1.416.985-.863,1.416-1.2,2.113-1.2,1.127,0,2.928,1.129,2.928,1.776a1.175,1.175,0,0,1-.288.672c-.7,5.5-2.833,9.049-8.809,12Zm23.738-15.337a22.069,22.069,0,0,1-8.353,11.617,5.188,5.188,0,0,0-1.56,1.512c-.216.433-.312.624-.72.624-.672,0-2.352-2.544-2.352-3.048a9.724,9.724,0,0,1,.288-1.2,26.222,26.222,0,0,0,.192-3.864,46.2,46.2,0,0,0-.216-5.617,1.442,1.442,0,0,0-1.584-1.08c.96-.888,1.3-1.224,1.968-1.224,1.393,0,2.952,1.416,2.952,1.992a9.8,9.8,0,0,1-.479,1.008c-.265.648-.241,8.161-.217,8.233a27.942,27.942,0,0,0,10.057-9Z" fill="#d40e64"/>
      <path id="パス_4248" data-name="パス 4248" d="M305.429,1929.845l1.344-1.945c.121-.168.216-.288.312-.288a15.64,15.64,0,0,1,2.713,2.329c0,.192-.145.192-.288.192h-5.425v4.44c0,1.489,0,2.616-3.385,2.616-.456,0-.743,0-.743-.335,0-.1.048-.5.048-.6,0-.673,0-1.608-2.521-2.593v-.1c.552.048,3,.216,3.336.216.313,0,.313-.216.313-.528v-3.12H287.644l-.121-.288h13.61v-2.064c.479.048,3.024.287,3.36.36.12.024.288.072.288.192,0,.191-.36.384-.7.456v1.056Zm-.168-12.361,1.344-1.728c.192-.264.216-.288.289-.288a13.79,13.79,0,0,1,2.591,2.136c0,.167-.168.167-.311.167H299.98v2.185h3.529l.792-1.008c.264-.336.312-.36.432-.36.24,0,2.88,1.9,2.88,2.4,0,.384-.576.5-1.1.649v5.519c0,.217,0,.456-.312.481l-2.112.144c-.528.024-.528-.049-.528-.816h-9.912V1928c0,.336,0,.527-.289.552l-2.184.12c-.36.023-.432,0-.432-.481v-8.9c1.128.216,2.088.432,3.024.672h3.264v-2.185h-9l-.12-.287h9.121v-2.592c1.584.12,2.449.192,3.336.312.12.024.336.071.336.239,0,.145-.071.168-.72.361v1.68Zm-13.345,13.249c2.568.336,4.849,1.392,4.849,3.216a2.056,2.056,0,0,1-2.137,1.945c-.528,0-.552-.216-.672-.745a9.852,9.852,0,0,0-2.04-4.368Zm5.112-7.464v-3.025h-3.383v3.025Zm0,3.432v-3.144h-3.383v3.144Zm2.952-6.457v3.025h3.577v-3.025Zm0,3.313v3.144h3.577v-3.144Z" fill="#d40e64"/>
      <path id="パス_4249" data-name="パス 4249" d="M321.269,1916.476l.767-1.08c.36-.5.408-.552.528-.552a10.7,10.7,0,0,1,1.393.984c1.272.984,1.416,1.1,1.416,1.392,0,.24-.168.384-1.08.816v6.673c0,.432,0,.5-.456.527l-1.824.145c-.433.023-.576.048-.576-.456v-.817h-3.121v12.41c0,.408-.024.5-.48.528l-2.088.12c-.336.023-.384-.1-.384-.456V1915.8a27.564,27.564,0,0,1,3.168.672Zm-2.953.264v3.336h3.121v-3.336Zm0,3.624v3.456h3.121v-3.456Zm13.49-3.888.912-1.224c.191-.24.311-.408.408-.408a12.586,12.586,0,0,1,2.76,2.352c0,.336-.264.456-1.032.743V1934.5c0,.984,0,1.585-.672,1.992a6.432,6.432,0,0,1-2.641.624c-.792,0-.792-.359-.792-.6,0-1.729,0-1.993-2.256-2.9v-.072c.552.072,2.521.145,2.809.145.647,0,.647-.193.647-.769v-8.809h-3.12v.481c0,.456,0,.552-.456.575l-1.968.145c-.456.024-.5-.025-.5-.529v-8.952c.672.119,2.52.456,3.216.648Zm-2.977.264v3.336h3.12v-3.336Zm0,3.624v3.456h3.12v-3.456Z" fill="#d40e64"/>
      <path id="パス_4250" data-name="パス 4250" d="M357.989,1929.125l1.464-2.064c.168-.241.192-.289.312-.289a16.1,16.1,0,0,1,2.76,2.473c0,.168-.168.168-.312.168h-9.36v4.849c0,1.536-.025,2.9-3.624,2.9-.841,0-.841-.145-.841-.6a2.644,2.644,0,0,0-.336-1.631,4.22,4.22,0,0,0-2.233-1.321v-.072c.385.024,3.1.168,3.385.168.649,0,.649-.191.649-.983v-3.313h-9.434l-.1-.288h9.53v-2.5c.311.048,1.416.168,2.111.264a14.989,14.989,0,0,0,1.873-2.64h-9.025l-.1-.288h9.049l.744-.864c.168-.193.336-.384.479-.384a.931.931,0,0,1,.456.239c.145.12,1.513,1.32,1.7,1.513a26.782,26.782,0,0,0,1.177-3.337H344.212a9.639,9.639,0,0,1,.191,1.9c0,1.849-1.2,2.929-2.328,2.929a1.768,1.768,0,0,1-1.679-1.608.846.846,0,0,1,.408-.72,8.066,8.066,0,0,0,2.664-4.681h.1a11.506,11.506,0,0,1,.577,1.9H354.1a31.391,31.391,0,0,0,1.944-5.832c2.256.864,2.448.96,3.7,1.464.1.047.24.12.24.24,0,.072-.072.24-.768.143a25.157,25.157,0,0,1-4.416,3.985H358.2l.864-.936c.192-.216.312-.312.456-.312.24,0,.84.6,1.1.864a11.84,11.84,0,0,1,1.969,2.448c0,.361-.433.384-.649.384a9.339,9.339,0,0,1-1.128-.1,26.538,26.538,0,0,1-3.48,1.441c.624.576.7.647.7.864,0,.575-.96.479-1.608.432a35.514,35.514,0,0,1-3.385,1.1c.265.024.433.048.433.216,0,.216-.456.336-.624.359v1.513Zm-14.641-14.018c.984.168,4.968.865,4.968,3.457a1.833,1.833,0,0,1-2.016,1.873c-.576,0-.7-.1-.792-.769a8.93,8.93,0,0,0-2.185-4.488Zm4.9-.24c2.328.385,4.992,1.273,4.992,3.361a2.021,2.021,0,0,1-2.04,2.064c-.383,0-.528-.144-.576-.528a9.929,9.929,0,0,0-2.376-4.848Z" fill="#d40e64"/>
      <path id="パス_4251" data-name="パス 4251" d="M366.676,1920.844l-.1-.287h3.48v-5.593c1.056.1,2.856.24,3.384.359.073,0,.216.049.216.169,0,.144-.36.239-.672.312v4.753h.168l.96-1.681c.12-.192.168-.288.265-.288a9.867,9.867,0,0,1,2.16,2.088c0,.168-.12.168-.24.168h-3.313v3.24a8.542,8.542,0,0,1,2.689,1.513,27.006,27.006,0,0,0,2.736-5.377c.527.24,2.928,1.392,3.168,1.56.1.073.216.168.216.288,0,.193-.624.144-.864.12a24.569,24.569,0,0,1-4.848,3.865,2.516,2.516,0,0,1,.456,1.464,1.723,1.723,0,0,1-1.824,1.9c-.792,0-.841-.36-.841-1.177a8.046,8.046,0,0,0-.888-3.576v11.569c0,.552-.024.625-.719.7l-1.513.143c-.672.073-.7-.191-.7-.6v-8.977a13.686,13.686,0,0,1-3.96,4.368l-.048-.048a28.517,28.517,0,0,0,3.648-10.969Zm6.312,16.13a15.761,15.761,0,0,0,6.985-5.569,13.571,13.571,0,0,1-1.321-6.913h.073a10.479,10.479,0,0,0,2.28,5.137,23.971,23.971,0,0,0,1.824-5.305,19.508,19.508,0,0,1,3.36,1.969c0,.12-.288.239-.816.144a23.723,23.723,0,0,1-2.352,4.872,14.391,14.391,0,0,0,6.552,2.352l.025.072a3.516,3.516,0,0,0-1.8,2.544c-.072.265-.217.6-.576.6a12.341,12.341,0,0,1-5.881-3.553c-1.272,1.176-3.313,2.952-8.3,3.744Zm11.713-17.81,1.368-1.92c.073-.1.193-.265.288-.265a10.208,10.208,0,0,1,2.5,2.281c0,.192-.121.192-.241.192H376.061l-.121-.288h4.033v-4.248c1.08.1,2.616.288,3.337.384.119.023.407.072.407.216,0,.192-.432.288-.72.336v3.312Zm-2.112,1.393c1.969.168,6.024.935,6.024,3.624a1.68,1.68,0,0,1-1.632,1.727.737.737,0,0,1-.744-.5,15.425,15.425,0,0,0-3.672-4.752Z" fill="#d40e64"/>
    </g>
  </g>
</svg>
