<svg xmlns="http://www.w3.org/2000/svg" width="156.076" height="54.954" viewBox="0 0 156.076 54.954">
  <g id="グループ_4333" data-name="グループ 4333" transform="translate(-15.727 -2939.927)">
    <g id="グループ_2718" data-name="グループ 2718" transform="translate(-1526)">
      <g id="グループ_2717" data-name="グループ 2717">
        <path id="パス_3760" data-name="パス 3760" d="M1547.953,2952.279c.222.149.37.3.37.47,0,.123-.074.247-.272.4a2.318,2.318,0,0,0-.617.84,18.983,18.983,0,0,1-2.743,4.125.671.671,0,0,1-.493.3.727.727,0,0,1-.371-.148,7.2,7.2,0,0,0-2.1-1.038,16.494,16.494,0,0,0,2.989-4.076,5.452,5.452,0,0,0,.667-2A11.53,11.53,0,0,1,1547.953,2952.279Zm3.285-6.793a19,19,0,0,0-.272-3.805c1.161.1,2.446.247,3.064.371.3.049.445.173.445.37a.937.937,0,0,1-.149.445,5.751,5.751,0,0,0-.247,2.471v1.309h3.039c2.149,0,3.829-.1,5.039-.148.223-.025.322.123.322.4a16.947,16.947,0,0,1-.025,1.927c-.025.321-.1.494-.346.469-1.532-.049-3.409-.123-5.089-.123H1554.1l.024,4.99c0,1.309.05,2.371.05,4.3a2.572,2.572,0,0,1-1.458,2.544,7.647,7.647,0,0,1-3.162.815c-.3,0-.444-.148-.593-.519a5.77,5.77,0,0,0-1.655-2.223,12.336,12.336,0,0,0,3.36-.3c.395-.173.568-.445.568-1.088v-8.522h-3.878c-1.408,0-3.113.074-4.274.173-.222,0-.321-.2-.321-.494-.025-.445-.1-1.557-.1-2.372,1.877.148,3.384.173,4.644.173h3.928Zm7.263,5.9a.482.482,0,0,1,.321-.123.468.468,0,0,1,.371.222,19.056,19.056,0,0,1,3.533,4.521.654.654,0,0,1,.123.37.477.477,0,0,1-.247.4,13.726,13.726,0,0,1-1.655,1.236.812.812,0,0,1-.3.148c-.1,0-.172-.074-.271-.247a24.023,24.023,0,0,0-3.755-5.188C1557.291,2952.23,1557.933,2951.81,1558.5,2951.39Z" fill="#d40e64"/>
        <path id="パス_3761" data-name="パス 3761" d="M1578.014,2950.945a14.106,14.106,0,0,1-1.458,6.3,12.436,12.436,0,0,1-4.348,4.669,1.5,1.5,0,0,1-.741.3.729.729,0,0,1-.519-.247,6.482,6.482,0,0,0-2.2-1.309,10.974,10.974,0,0,0,4.916-4.4,10.5,10.5,0,0,0,1.26-5.312h-4.694c-1.235,0-2.446.075-3.706.149-.222.024-.3-.149-.321-.47a14.921,14.921,0,0,1-.2-2.371c1.383.123,2.766.123,4.2.123H1581.3c1.928,0,3.36-.049,4.818-.148.247,0,.272.148.272.494.024.321.024,1.581,0,1.9,0,.321-.149.42-.371.42-1.285-.049-2.989-.1-4.694-.1Zm-4.891-5.731c-1.137,0-2.125.049-3.509.1-.321,0-.4-.124-.42-.42-.074-.593-.1-1.482-.173-2.372,1.73.1,2.99.124,4.1.124h5.533c1.384,0,2.94-.025,4.175-.1.247,0,.3.148.3.469a10.859,10.859,0,0,1,0,1.8c0,.346-.049.469-.321.469-1.334-.049-2.791-.074-4.15-.074Z" fill="#d40e64"/>
        <path id="パス_3762" data-name="パス 3762" d="M1594.637,2945.387c.42.123.469.42.321.766a3.571,3.571,0,0,0-.3,1.68,18.5,18.5,0,0,1-1.334,7.263,12.719,12.719,0,0,1-3.508,4.644,1.118,1.118,0,0,1-.643.321.842.842,0,0,1-.469-.2,8.749,8.749,0,0,0-2.1-1.038,12.272,12.272,0,0,0,4.1-4.916c.692-1.68,1.013-3.039,1.038-6.991a6.657,6.657,0,0,0-.247-2.075A19.961,19.961,0,0,1,1594.637,2945.387Zm5.484,10.45a25.078,25.078,0,0,0,3.508-2.3,23.723,23.723,0,0,0,4.324-4.2,7.1,7.1,0,0,0,.765,2.495,1.235,1.235,0,0,1,.149.42c0,.173-.1.346-.371.617a31.108,31.108,0,0,1-3.656,3.236,40.882,40.882,0,0,1-4.4,2.965,8.081,8.081,0,0,0-.716.519.786.786,0,0,1-.494.2,1.062,1.062,0,0,1-.519-.2,7.17,7.17,0,0,1-1.482-1.507.986.986,0,0,1-.222-.519.753.753,0,0,1,.1-.37c.173-.321.149-.618.149-1.878v-7.732a19.741,19.741,0,0,0-.247-4.3,23.558,23.558,0,0,1,3.088.519c.321.074.445.222.445.42a1.6,1.6,0,0,1-.2.618c-.223.469-.223.963-.223,2.742Z" fill="#d40e64"/>
        <path id="パス_3763" data-name="パス 3763" d="M1612.567,2963.421h-1.556l10.054-23.494h1.557Z" fill="#d40e64"/>
        <path id="パス_3764" data-name="パス 3764" d="M1547.286,2979.49c-1.606,0-3.014.074-4.076.124-.321.025-.42-.148-.47-.494-.073-.494-.173-1.779-.222-2.5a43.343,43.343,0,0,0,4.743.173h8.82a2.365,2.365,0,0,0,1.358-.247.7.7,0,0,1,.371-.1,1.209,1.209,0,0,1,.469.123,7.621,7.621,0,0,1,1.8,1.631.621.621,0,0,1,.172.42.841.841,0,0,1-.345.617,3,3,0,0,0-.569.964,29.09,29.09,0,0,1-4.792,8.029,27.708,27.708,0,0,1-7.016,5.879,1.2,1.2,0,0,1-.667.222.865.865,0,0,1-.617-.271,7.355,7.355,0,0,0-2.3-1.359,23.88,23.88,0,0,0,8.078-6.176,20.787,20.787,0,0,0,4.175-7.041Zm12.055-5.83c.124-.1.223-.074.371.05a11.379,11.379,0,0,1,2.347,2.643.249.249,0,0,1-.074.4l-.914.667a.258.258,0,0,1-.42-.074,12.259,12.259,0,0,0-2.495-2.865Zm2.026-1.507c.149-.1.222-.074.371.05a10.322,10.322,0,0,1,2.346,2.544c.1.149.124.272-.073.445l-.816.667a.3.3,0,0,1-.2.1.265.265,0,0,1-.223-.173,11.685,11.685,0,0,0-2.47-2.841Z" fill="#d40e64"/>
        <path id="パス_3765" data-name="パス 3765" d="M1571.221,2982.5c-1.236,0-2.471.025-3.706.1-.223,0-.321-.148-.37-.469a18.576,18.576,0,0,1-.272-2.5,43.726,43.726,0,0,0,4.545.2h8.474a2.707,2.707,0,0,0,1.309-.272.534.534,0,0,1,.321-.148.635.635,0,0,1,.371.173,14.735,14.735,0,0,1,1.655,1.532.728.728,0,0,1,.247.519.594.594,0,0,1-.272.469,2.835,2.835,0,0,0-.84,1.161c-2.47,5.262-5.311,8.35-10.079,10.919a1.185,1.185,0,0,1-.494.173.809.809,0,0,1-.544-.3,7.236,7.236,0,0,0-2.3-1.285c4.57-2.124,8.6-5.533,10.376-10.3Zm1.654-5.311c-1.111,0-2.346.025-3.384.1-.247,0-.321-.148-.345-.544a21.3,21.3,0,0,1-.124-2.371,34.089,34.089,0,0,0,4.051.173h4.447c1.606,0,2.915-.074,3.878-.124.223,0,.3.124.3.4a12.63,12.63,0,0,1,0,1.927c0,.42-.074.519-.445.494-.815,0-1.976-.049-3.483-.049Z" fill="#d40e64"/>
        <path id="パス_3766" data-name="パス 3766" d="M1599.8,2988.73c0,1.7.025,3.162.074,5.138.025.321-.1.42-.371.42a20.844,20.844,0,0,1-2.47,0c-.271,0-.37-.1-.345-.4.024-1.779.1-3.385.1-5.064v-5.756a42.781,42.781,0,0,1-6.793,4.743.7.7,0,0,1-.371.1.689.689,0,0,1-.519-.248,9.243,9.243,0,0,0-2.124-1.457,41.909,41.909,0,0,0,13.043-10.228,7.156,7.156,0,0,0,1.557-2.544,22.186,22.186,0,0,1,2.742,1.729.439.439,0,0,1,.2.371.708.708,0,0,1-.346.543,8.176,8.176,0,0,0-1.483,1.359,39.127,39.127,0,0,1-2.89,3.113Z" fill="#d40e64"/>
        <path id="パス_3767" data-name="パス 3767" d="M1622.2,2977.193a2.419,2.419,0,0,0,1.359-.371.725.725,0,0,1,.42-.173.863.863,0,0,1,.445.2,7.985,7.985,0,0,1,1.679,1.507.6.6,0,0,1,.2.445.632.632,0,0,1-.272.469,3.087,3.087,0,0,0-.741.939,38.51,38.51,0,0,1-3.631,5.978,22.074,22.074,0,0,1,2.668,2.495.489.489,0,0,1,.148.346.474.474,0,0,1-.148.321,15.2,15.2,0,0,1-1.532,1.557.512.512,0,0,1-.3.123.427.427,0,0,1-.272-.148,27.355,27.355,0,0,0-2.4-2.4,30.132,30.132,0,0,1-7.881,6.176,1.349,1.349,0,0,1-.618.222.742.742,0,0,1-.469-.222,7,7,0,0,0-2.347-1.26,29.967,29.967,0,0,0,9.091-6.695,20.614,20.614,0,0,0-3.557-2.322c.543-.593,1.062-1.236,1.63-1.754a.467.467,0,0,1,.321-.173.631.631,0,0,1,.248.1,24.83,24.83,0,0,1,3.187,1.976,23.852,23.852,0,0,0,2.89-4.891l-6.127.123a29.854,29.854,0,0,1-5.286,5.559.89.89,0,0,1-.495.222.564.564,0,0,1-.395-.173,10.279,10.279,0,0,0-2.075-1.136,27.567,27.567,0,0,0,6.991-7.757,9.094,9.094,0,0,0,1.334-3.039,15.541,15.541,0,0,1,2.891,1.21.436.436,0,0,1,.272.4.669.669,0,0,1-.3.494,2.06,2.06,0,0,0-.519.519c-.2.345-.346.592-.766,1.235Zm3.212-3.409c.123-.1.222-.074.37.049a11.366,11.366,0,0,1,2.347,2.644.249.249,0,0,1-.074.4l-1.037.766a.258.258,0,0,1-.42-.075,12.262,12.262,0,0,0-2.5-2.865Zm2.2-1.606c.149-.1.222-.074.371.05a10.309,10.309,0,0,1,2.347,2.544.286.286,0,0,1-.074.445l-.988.765a.253.253,0,0,1-.42-.074,11.7,11.7,0,0,0-2.471-2.841Z" fill="#d40e64"/>
        <path id="パス_3768" data-name="パス 3768" d="M1638.332,2977.687c.42.124.469.42.321.766a3.562,3.562,0,0,0-.3,1.68,18.466,18.466,0,0,1-1.334,7.263,12.728,12.728,0,0,1-3.507,4.644,1.118,1.118,0,0,1-.643.321.843.843,0,0,1-.469-.2,8.756,8.756,0,0,0-2.1-1.038,12.267,12.267,0,0,0,4.1-4.916c.692-1.68,1.013-3.039,1.037-6.991a6.631,6.631,0,0,0-.247-2.075A19.812,19.812,0,0,1,1638.332,2977.687Zm5.484,10.45a25,25,0,0,0,3.508-2.3,23.682,23.682,0,0,0,4.323-4.2,7.129,7.129,0,0,0,.766,2.5,1.232,1.232,0,0,1,.149.42c0,.173-.1.346-.371.617a31.32,31.32,0,0,1-3.656,3.237,41.043,41.043,0,0,1-4.4,2.964,7.906,7.906,0,0,0-.716.519.789.789,0,0,1-.494.2,1.055,1.055,0,0,1-.519-.2,7.148,7.148,0,0,1-1.482-1.507.978.978,0,0,1-.222-.519.756.756,0,0,1,.1-.37c.173-.322.149-.618.149-1.878v-7.732a19.73,19.73,0,0,0-.247-4.3,23.783,23.783,0,0,1,3.088.519c.321.074.444.222.444.42a1.594,1.594,0,0,1-.2.618c-.223.469-.223.963-.223,2.742Z" fill="#d40e64"/>
      </g>
    </g>
    <g id="グループ_2719" data-name="グループ 2719" transform="translate(-1526)">
      <path id="パス_3769" data-name="パス 3769" d="M1686.726,2974.937l10.258,7.915-10.258,7.915" fill="none" stroke="#d40e64" stroke-miterlimit="10" stroke-width="1"/>
      <line id="線_84" data-name="線 84" x1="17.1" transform="translate(1680.359 2982.852)" fill="none" stroke="#d40e64" stroke-miterlimit="10" stroke-width="1"/>
    </g>
  </g>
</svg>
