<svg xmlns="http://www.w3.org/2000/svg" width="121.254" height="57.193" viewBox="0 0 121.254 57.193">
  <g id="グループ_2195" data-name="グループ 2195" transform="translate(-388.464 -1720.319)">
    <g id="グループ_244" data-name="グループ 244">
      <path id="パス_557" data-name="パス 557" d="M392.649,1733.813c-2.314,0-3.12.052-3.276.052-.26,0-.286-.025-.286-.286v-2.132c0-.259.026-.286.286-.286.156,0,.962.052,3.276.052h6.683a26.6,26.6,0,0,0-.209-3.25c.494.053,1.041.078,1.561.156a28.2,28.2,0,0,0,4.394-3.562H395.64c-2.548,0-3.433.052-3.589.052-.26,0-.285-.026-.285-.286v-2.053c0-.261.025-.287.285-.287.156,0,1.041.052,3.589.052h11.024a1.367,1.367,0,0,0,.441-.1.81.81,0,0,1,.338-.077c.157,0,.365.077,1.145.832.806.8.962,1.065.962,1.351,0,.234-.156.416-.443.572a4.456,4.456,0,0,0-1.117.911,30.1,30.1,0,0,1-5.8,4.576v1.117h6.475c2.314,0,3.12-.052,3.276-.052.26,0,.287.027.287.286v2.132c0,.261-.027.286-.287.286-.156,0-.962-.052-3.276-.052h-6.475v2.964c0,1.9.053,3.2.053,4.109a2.92,2.92,0,0,1-1.093,2.73c-.754.572-1.9.676-4.706.676-.8,0-.8.026-.988-.806a9.322,9.322,0,0,0-.962-2.184,30.8,30.8,0,0,0,3.614.181c.832,0,1.223-.363,1.223-1.273v-6.4Z" fill="#1482ca"/>
      <path id="パス_558" data-name="パス 558" d="M422.758,1722.477c.312.078.469.209.469.416,0,.364-.183.728-.183,1.092,0,.52.078,1.144.13,1.743a36.53,36.53,0,0,0,.832,4.471c1.3-.7,2.236-1.2,3.692-1.975a6.451,6.451,0,0,0,1.794-1.405,13.409,13.409,0,0,1,1.9,2.445,1.054,1.054,0,0,1,.181.546c0,.259-.156.467-.519.519a12.456,12.456,0,0,0-2.5.78,36.226,36.226,0,0,0-6.111,3.042c-2.262,1.483-3.068,2.7-3.068,3.927,0,1.508,1.066,2.184,4.316,2.184a46.344,46.344,0,0,0,7.748-.6c.287-.053.416,0,.468.312a22.925,22.925,0,0,1,.261,2.418c.025.286-.156.416-.469.442a55.73,55.73,0,0,1-7.748.39c-4.914,0-7.515-1.613-7.515-4.993,0-2.885,1.9-4.784,4.941-6.708a39.448,39.448,0,0,1-1.352-6.343,11.631,11.631,0,0,0-.676-3.017A15.047,15.047,0,0,1,422.758,1722.477Zm8.5.312c.13-.1.233-.078.389.052a11.946,11.946,0,0,1,2.471,2.782.262.262,0,0,1-.078.416l-1.093.807a.271.271,0,0,1-.441-.078,12.912,12.912,0,0,0-2.626-3.017Zm2.313-1.69c.156-.1.235-.078.391.052a10.877,10.877,0,0,1,2.47,2.678.3.3,0,0,1-.079.468l-1.04.807a.266.266,0,0,1-.441-.079,12.28,12.28,0,0,0-2.6-2.99Z" fill="#1482ca"/>
      <path id="パス_559" data-name="パス 559" d="M444.859,1737.9c0,2.392,1.04,3.328,3.458,3.328,3.042,0,4.733-1.17,4.733-3.51,0-1.456-.364-2.652-2.341-4.733a8.293,8.293,0,0,0,2.652-.156.6.6,0,0,1,.546.105,6.771,6.771,0,0,1,2.21,4.887c0,3.693-3.015,6.085-7.488,6.085-4.6,0-6.552-2.08-6.552-5.877,0-.546.078-1.273.182-2.443a20.575,20.575,0,0,1-3.536-.78c-.182-.052-.26-.183-.286-.494a15.028,15.028,0,0,1-.052-2.418,16.294,16.294,0,0,0,4.212,1.013c.13-.962.339-2.652.442-3.717a18.235,18.235,0,0,1-3.744-.729c-.313-.078-.416-.208-.416-.441-.026-.624-.078-1.483-.078-2.418a21.192,21.192,0,0,0,4.706.987c.208-1.508.286-2.21.338-2.99a12.227,12.227,0,0,0-.026-2.184,15.438,15.438,0,0,1,3.12.728c.364.131.573.364.573.6a.757.757,0,0,1-.209.494,2.549,2.549,0,0,0-.468,1.119c-.13.6-.286,1.481-.416,2.443a14.82,14.82,0,0,0,3.2-.156c.182,0,.26.131.26.312a12.139,12.139,0,0,1-.052,1.95c0,.287-.1.365-.416.39a25.621,25.621,0,0,1-3.458.13c-.156.91-.416,2.679-.572,3.719,1.378.025,2.444,0,3.692-.078.338-.052.416.051.416.286a17.3,17.3,0,0,1-.13,1.95c-.026.311-.1.416-.364.416-1.3.1-2.652.1-3.977.077A15.914,15.914,0,0,0,444.859,1737.9Z" fill="#1482ca"/>
      <path id="パス_560" data-name="パス 560" d="M466.776,1745.046h-1.638l10.583-24.727h1.637Z" fill="#1482ca"/>
      <path id="パス_561" data-name="パス 561" d="M402.66,1758.479a3.816,3.816,0,0,0,1.794-.234.437.437,0,0,1,.286-.1.86.86,0,0,1,.443.209,9.443,9.443,0,0,1,1.689,1.819.693.693,0,0,1,.13.338.716.716,0,0,1-.338.52,4.762,4.762,0,0,0-.962,1.144,40.907,40.907,0,0,1-3.328,4.862,61.061,61.061,0,0,1,7.2,6.293.587.587,0,0,1,.208.363.646.646,0,0,1-.181.391,13.941,13.941,0,0,1-1.743,1.768.447.447,0,0,1-.311.156.53.53,0,0,1-.364-.208,47.276,47.276,0,0,0-6.761-6.448,37.429,37.429,0,0,1-8.736,6.864,1.673,1.673,0,0,1-.6.208.583.583,0,0,1-.443-.234,7.092,7.092,0,0,0-2.183-1.69,32.458,32.458,0,0,0,14.04-13.157l-6.708.026c-1.352,0-2.7.052-4.108.156-.209.026-.286-.156-.338-.442a15.147,15.147,0,0,1-.234-2.7c1.4.1,2.7.1,4.394.1Z" fill="#1482ca"/>
      <path id="パス_562" data-name="パス 562" d="M419.455,1767.424c.416.285.572.546.105.91a2.434,2.434,0,0,0-.651.884,20,20,0,0,1-2.886,4.342c-.312.337-.52.416-.91.156a7.587,7.587,0,0,0-2.21-1.092,17.357,17.357,0,0,0,3.146-4.29,5.761,5.761,0,0,0,.7-2.106A12.047,12.047,0,0,1,419.455,1767.424Zm3.459-7.151a20.1,20.1,0,0,0-.286-4c1.222.1,2.573.259,3.224.389.52.1.572.364.312.859a6.031,6.031,0,0,0-.261,2.6v1.378h3.2c2.262,0,4.03-.1,5.3-.156.234-.026.338.13.338.416a17.59,17.59,0,0,1-.026,2.028c-.026.338-.1.521-.364.494-1.612-.051-3.588-.13-5.356-.13H425.93l.026,5.252c0,1.378.052,2.5.052,4.525a2.708,2.708,0,0,1-1.534,2.678,8.078,8.078,0,0,1-3.328.858c-.312,0-.468-.156-.625-.546a6.06,6.06,0,0,0-1.742-2.34,12.941,12.941,0,0,0,3.536-.312c.416-.182.6-.468.6-1.145v-8.97h-4.083c-1.481,0-3.275.079-4.5.182-.233,0-.338-.208-.338-.519-.026-.468-.1-1.639-.1-2.5,1.975.156,3.561.182,4.887.182h4.135Zm7.644,6.214a.452.452,0,0,1,.728.1A20.028,20.028,0,0,1,435,1771.35c.234.389.156.572-.13.805a14.463,14.463,0,0,1-1.742,1.3c-.286.182-.416.233-.6-.1a25.189,25.189,0,0,0-3.952-5.46C429.284,1767.371,429.96,1766.93,430.558,1766.487Zm5.148-9.23a2.808,2.808,0,0,1-5.616,0,2.742,2.742,0,0,1,2.808-2.782A2.774,2.774,0,0,1,435.706,1757.257Zm-4.342,0a1.534,1.534,0,1,0,1.534-1.534A1.489,1.489,0,0,0,431.364,1757.257Z" fill="#1482ca"/>
      <path id="パス_563" data-name="パス 563" d="M443.479,1768.516a20.867,20.867,0,0,0-3.822.311c-.311,0-.519-.155-.6-.546a27.953,27.953,0,0,1-.39-3.145,33.411,33.411,0,0,0,5.616.311h8.372c1.976,0,3.979-.051,5.981-.078.389-.025.467.053.467.364a19.178,19.178,0,0,1,0,2.445c0,.311-.1.416-.467.389-1.951-.026-3.875-.051-5.8-.051Z" fill="#1482ca"/>
      <path id="パス_564" data-name="パス 564" d="M464.9,1758.921a.484.484,0,0,1,.7.183,20.909,20.909,0,0,1,2.913,4.914,1,1,0,0,1,.1.337c0,.157-.1.26-.311.39a16.17,16.17,0,0,1-2,1.015c-.391.155-.547-.027-.677-.391a20.684,20.684,0,0,0-3.042-5.252A20.3,20.3,0,0,1,464.9,1758.921Zm18.2.391a.6.6,0,0,1,.287.519.639.639,0,0,1-.208.442,5.138,5.138,0,0,0-1.014,1.716,40.225,40.225,0,0,1-5.044,8.841,28.022,28.022,0,0,1-6.865,6.447,1.091,1.091,0,0,1-.6.235.756.756,0,0,1-.441-.182,8.018,8.018,0,0,0-2.5-1.223,29.808,29.808,0,0,0,7.721-6.864,31.158,31.158,0,0,0,4.5-8.059,11.677,11.677,0,0,0,.754-3.407A18.5,18.5,0,0,1,483.1,1759.312Zm-11.414-2a.482.482,0,0,1,.676.209,21.593,21.593,0,0,1,2.548,4.809.507.507,0,0,1-.26.729,17.212,17.212,0,0,1-1.975.935c-.416.156-.573.1-.7-.311a20.883,20.883,0,0,0-2.679-5.253C470.078,1758.063,470.91,1757.647,471.69,1757.309Z" fill="#1482ca"/>
    </g>
    <g id="グループ_363" data-name="グループ 363">
      <path id="パス_846" data-name="パス 846" d="M498.1,1758.168l10.8,8.332-10.8,8.332" fill="none" stroke="#1482ca" stroke-miterlimit="10" stroke-width="1"/>
      <line id="線_15" data-name="線 15" x1="18" transform="translate(491.4 1766.5)" fill="none" stroke="#1482ca" stroke-miterlimit="10" stroke-width="1"/>
    </g>
  </g>
</svg>
