<svg xmlns="http://www.w3.org/2000/svg" width="427.901" height="51.264" viewBox="0 0 427.901 51.264">
  <g id="グループ_3883" data-name="グループ 3883" transform="translate(-187.628 -1391.286)">
    <path id="パス_6556" data-name="パス 6556" d="M200.62,1424.686a16.338,16.338,0,0,1-1.708,7.28,13.325,13.325,0,0,1-4.956,5.292c-.448.28-.784.42-1.12.084a4.689,4.689,0,0,0-1.988-1.176c2.772-1.484,4.368-2.912,5.515-5.068a13.315,13.315,0,0,0,1.429-6.412H192.3c-1.4,0-2.828.084-4.116.168-.28.028-.336-.14-.364-.476a13.017,13.017,0,0,1-.2-2.1c1.6.113,3.08.141,4.676.141H204.6c2.044,0,3.555-.028,5.263-.141.252,0,.309.113.309.477v1.624c0,.308-.141.42-.393.42-1.567-.057-3.3-.112-5.151-.112Zm-5.013-6.329c-1.259,0-2.547.029-3.975.113-.336.028-.392-.113-.42-.42a20.34,20.34,0,0,1-.168-2.1c1.792.113,3.3.141,4.563.141h5.8c1.513,0,3.277,0,4.733-.084.252-.028.307.112.307.42a6.953,6.953,0,0,1,0,1.54c0,.364-.055.448-.336.448-1.511-.057-3.219-.057-4.7-.057Z" fill="#333"/>
    <path id="パス_6557" data-name="パス 6557" d="M231.756,1418.75a2.267,2.267,0,0,0,1.4-.309c.225-.168.477-.111.756.084a10.092,10.092,0,0,1,1.485,1.177.617.617,0,0,1,.055,1.008,2.888,2.888,0,0,0-.811,1.063,38.753,38.753,0,0,1-5.46,8.708,35.061,35.061,0,0,1-8.653,7.141.609.609,0,0,1-.811-.112,5.458,5.458,0,0,0-2.1-1.036,31.044,31.044,0,0,0,9.269-7.281,30.027,30.027,0,0,0,5.235-8.315l-7.447.224a41.242,41.242,0,0,1-5.433,5.879.638.638,0,0,1-.924.084,5.576,5.576,0,0,0-1.988-.839,30.89,30.89,0,0,0,7.393-8.232,9.248,9.248,0,0,0,1.511-3.612,9.729,9.729,0,0,1,2.632,1.2.445.445,0,0,1-.027.811,3.355,3.355,0,0,0-.757.869c-.391.588-.672,1.064-1.035,1.595Z" fill="#333"/>
    <path id="パス_6558" data-name="パス 6558" d="M258.329,1417.1a.5.5,0,0,1,.112.812,6.628,6.628,0,0,0-1.232,1.987,45.781,45.781,0,0,1-5.012,8.541,33.851,33.851,0,0,1-8.372,7.923.65.65,0,0,1-.9-.027,6.071,6.071,0,0,0-2.073-1.093,33.247,33.247,0,0,0,9.044-8.147,36.121,36.121,0,0,0,4.537-7.9,12.964,12.964,0,0,0,.952-3.5A15.066,15.066,0,0,1,258.329,1417.1Z" fill="#333"/>
    <path id="パス_6559" data-name="パス 6559" d="M281.457,1417.489a3.276,3.276,0,0,0,1.736-.252.575.575,0,0,1,.644.113,8.107,8.107,0,0,1,1.456,1.484c.2.279.141.476-.168.756a4.925,4.925,0,0,0-.924,1.12,45.315,45.315,0,0,1-3.891,5.684,60.516,60.516,0,0,1,7.895,6.916c.252.252.28.364.028.7a16,16,0,0,1-1.372,1.372c-.223.223-.391.2-.616-.057a48.9,48.9,0,0,0-7.5-7.027,42.118,42.118,0,0,1-9.771,7.643c-.365.2-.616.281-.868-.027a5.927,5.927,0,0,0-1.876-1.372,34.916,34.916,0,0,0,10.107-7.42,33.908,33.908,0,0,0,5.292-7.28h-7.867c-1.54,0-2.857.084-4.2.168-.252,0-.309-.113-.365-.392a12.329,12.329,0,0,1-.2-2.24c1.429.111,2.744.111,4.508.111Z" fill="#333"/>
    <path id="パス_6560" data-name="パス 6560" d="M309.653,1419.449c-3.864.645-7.252,1.233-10.556,1.933a8.729,8.729,0,0,0-1.707.448,1.579,1.579,0,0,1-.561.224.508.508,0,0,1-.448-.336,19.247,19.247,0,0,1-.9-2.437,24.6,24.6,0,0,0,3.892-.391c3.864-.588,9.744-1.456,17.136-2.409.336-.027.476.084.5.252a13.51,13.51,0,0,1,.253,1.849c0,.308-.141.363-.449.392a11.756,11.756,0,0,0-3.808.728c-4.284,1.624-7.112,5.012-7.112,8.6,0,4.2,3.444,5.824,7.785,6.16.391.027.5.084.5.336a7.852,7.852,0,0,1-.224,1.792c-.056.363-.168.5-.476.476-4.9-.224-10.135-2.577-10.135-8.316,0-3.948,2.267-6.973,6.3-9.24Zm4.228,3.613c.112-.084.2-.084.364.028a14.341,14.341,0,0,1,3.08,3.359c.113.168.084.309-.055.393l-1.009.784c-.168.111-.336.14-.448-.057a13.316,13.316,0,0,0-3.22-3.611Zm2.6-1.989a.263.263,0,0,1,.364,0,14.957,14.957,0,0,1,3.108,3.277c.112.168.084.28-.084.448l-.979.784a.242.242,0,0,1-.393-.084,15.289,15.289,0,0,0-3.22-3.557Z" fill="#333"/>
    <path id="パス_6561" data-name="パス 6561" d="M329.478,1430.93c-2.577,0-3.416.055-3.584.055-.225,0-.252-.027-.252-.252v-1.624c0-.223.027-.252.252-.252.168,0,1.007.057,3.584.057h7.531a16.2,16.2,0,0,0-.2-2.6c.532.055,1.064.112,1.541.2a20.1,20.1,0,0,0,3.164-2.324H334.6c-2.6,0-3.473.055-3.613.055-.252,0-.28-.027-.28-.223V1422.5c0-.225.028-.252.28-.252.14,0,1.008.056,3.613.056h7.727a2.047,2.047,0,0,0,.729-.056.813.813,0,0,1,.307-.084c.2,0,.42.195.98.728.448.476.644.784.644,1.007a.39.39,0,0,1-.307.393,3.444,3.444,0,0,0-1.261.811,32.563,32.563,0,0,1-4.115,2.857,6.38,6.38,0,0,0-.029.84v.112h7.252c2.576,0,3.416-.057,3.584-.057.224,0,.252.029.252.252v1.624c0,.225-.028.252-.252.252-.168,0-1.008-.055-3.584-.055h-7.252v2.464c0,.616.029,1.708.029,2.408,0,1.092-.2,1.595-.813,2.015-.643.42-1.428.533-4.059.533-.645,0-.645,0-.841-.644a6.844,6.844,0,0,0-.7-1.652,24.77,24.77,0,0,0,2.939.168c.813,0,1.176-.2,1.176-1.036v-4.256Zm-.813-7c0,.252-.027.28-.252.28h-1.68c-.252,0-.28-.028-.28-.28,0-.168.056-.56.056-3.052v-1.008c0-.98-.056-1.456-.056-1.624,0-.225.028-.252.28-.252.168,0,1.121.056,3.781.056h11.759a19.861,19.861,0,0,0,1.624-3.164,5.594,5.594,0,0,0,.364-1.372,10.01,10.01,0,0,1,2.129.7c.252.112.363.224.363.364a.445.445,0,0,1-.252.363,2.123,2.123,0,0,0-.532.645c-.476.895-.867,1.6-1.428,2.464h.98c2.66,0,3.64-.056,3.78-.056.252,0,.28.027.28.252,0,.14-.056.644-.056,1.428v1.2c0,2.519.056,2.912.056,3.052,0,.252-.028.28-.28.28h-1.652c-.252,0-.28-.028-.28-.28v-3.949h-18.7Zm2.072-10.22c.336-.168.42-.112.56.084a23.53,23.53,0,0,1,2.016,3.023c.112.252.112.252-.251.42l-1.233.477a.88.88,0,0,1-.336.112c-.084,0-.139-.056-.2-.224a15.982,15.982,0,0,0-1.9-3.052c-.141-.2-.113-.28.223-.392Zm7.308,3.808c-.42.168-.447.139-.56-.14a15.431,15.431,0,0,0-1.568-3.276c-.14-.252-.084-.281.252-.392l1.232-.393c.281-.111.365-.084.5.113a21.187,21.187,0,0,1,1.653,3.276c.084.224,0,.279-.309.392Z" fill="#333"/>
    <path id="パス_6562" data-name="パス 6562" d="M358.485,1426.029c1.176-1.008,3.052-2.632,5.012-4.4a3.055,3.055,0,0,1,2.24-1.092,3.125,3.125,0,0,1,2.212.952c2.185,1.764,3.836,3.163,6.3,4.984a63.249,63.249,0,0,0,6.356,3.976.35.35,0,0,1,.224.447,9.115,9.115,0,0,1-1.036,2.017c-.2.252-.336.279-.588.111-1.512-.924-4.2-2.8-5.991-4.143-2.072-1.569-4.116-3.361-6.076-5.04a2.145,2.145,0,0,0-1.345-.729c-.363,0-.672.253-1.119.673-1.513,1.483-3.557,3.416-4.9,4.7a8.352,8.352,0,0,0-.952,1.092.466.466,0,0,1-.811.084,17.608,17.608,0,0,1-1.821-2.24A8.867,8.867,0,0,0,358.485,1426.029Zm15.149-8.091c.111-.084.2-.056.363.056a13.446,13.446,0,0,1,3.08,3.388c.112.168.084.252-.056.364l-1.036.84a.287.287,0,0,1-.448-.112,13.754,13.754,0,0,0-3.22-3.613Zm2.6-1.96a.336.336,0,0,1,.392,0,14.259,14.259,0,0,1,3.108,3.276c.084.168.084.252-.084.42l-1.007.784c-.168.14-.281.111-.393-.057a14.724,14.724,0,0,0-3.22-3.555Z" fill="#333"/>
    <path id="パス_6563" data-name="パス 6563" d="M394.27,1425.525a9.575,9.575,0,0,1,5.348-1.708c4.06,0,6.72,2.577,6.72,6.412,0,4.369-3.5,7.393-9.464,7.393-3.528,0-5.264-1.513-5.264-3.641a3.35,3.35,0,0,1,3.612-3.135,4.957,4.957,0,0,1,4.984,4.116c2.212-.84,3.556-2.269,3.556-4.788a4.332,4.332,0,0,0-4.648-4.4,12.357,12.357,0,0,0-7.476,3.053,31.419,31.419,0,0,0-2.464,2.323c-.28.281-.42.336-.7.057a8.869,8.869,0,0,1-1.288-1.429c-.14-.168-.084-.307.112-.5a79.047,79.047,0,0,0,6.524-6.215c1.708-1.764,3.22-3.472,5.04-5.6-2.044.336-4.257.784-6.44,1.2a5.044,5.044,0,0,0-1.064.279,1.505,1.505,0,0,1-.532.141c-.252,0-.392-.112-.532-.393a10.2,10.2,0,0,1-.784-2.351,10.874,10.874,0,0,0,2.52.028c1.988-.2,4.367-.532,6.692-.98a3.561,3.561,0,0,0,1.148-.336,1.152,1.152,0,0,1,.476-.2.907.907,0,0,1,.56.225,9.154,9.154,0,0,1,1.484,1.428.9.9,0,0,1,.252.559.647.647,0,0,1-.448.588,3.53,3.53,0,0,0-1.288.952c-2.3,2.353-4.2,4.313-6.72,6.832Zm1.036,7.2c-.924,0-1.624.475-1.624,1.259,0,.924.9,1.6,2.744,1.624a8.022,8.022,0,0,0,1.624-.139C397.686,1433.842,396.706,1432.722,395.306,1432.722Z" fill="#333"/>
    <path id="パス_6564" data-name="パス 6564" d="M422.281,1442.55,435.17,1398.2h-8.065v5.9h-6.479v-12.816h21.888v7.344l-12.456,43.92Z" fill="#00ad93"/>
    <path id="パス_6565" data-name="パス 6565" d="M455.76,1415.122c6.159-2.08,11.158-3.319,14.4-3.319,7.159,0,11.758,4.319,11.758,10.6,0,5.24-2.279,8.559-7.038,11.119-3.36,1.879-6.48,2.519-10.159,3.319-.8.16-1.119.12-1.4-.64a7.417,7.417,0,0,0-2.8-3.159c5.279-.88,8.119-1.64,10.838-2.96,3.4-1.72,5.519-4.279,5.519-7.958,0-3.76-2.439-6.079-6.879-6.079-3.6,0-8.358,1.439-14.437,4.119a25.471,25.471,0,0,0-2.76,1.44c-.56.48-.88.6-1.079.6-.4,0-.72-.24-1.16-.84A23.242,23.242,0,0,1,448,1417.2C449.761,1417,451.24,1416.642,455.76,1415.122Z" fill="#e65290"/>
    <path id="パス_6566" data-name="パス 6566" d="M511.679,1413.6c-.92,6.8-2.6,13.037-5,17.237-1.72,3-3.8,4.6-6.8,4.6-3.519,0-7.078-3.758-7.078-10.278a14.737,14.737,0,0,1,4.518-10.4,17.5,17.5,0,0,1,13-5.119c9.6,0,15.238,5.919,15.238,13.878,0,7.438-4.2,12.118-12.318,14.557-.84.24-1.2.08-1.719-.72a8.515,8.515,0,0,0-2.8-2.519c6.759-1.6,12.078-4.4,12.078-11.958a9.084,9.084,0,0,0-8.959-9.278Zm-11.479,3.878a11.519,11.519,0,0,0-3.119,7.4c0,3.679,1.48,5.719,2.719,5.719,1.04,0,1.92-.521,3-2.44a45.7,45.7,0,0,0,4.239-14.318A12.043,12.043,0,0,0,500.2,1417.481Z" fill="#00ace6"/>
    <path id="パス_6567" data-name="パス 6567" d="M556.4,1409.8c-3.558,0-4.758.08-5,.08-.4,0-.439-.04-.439-.44v-2.92c0-.4.04-.439.439-.439.241,0,1.441.079,5,.079h9.16c3.6,0,4.8-.079,5-.079.4,0,.439.039.439.439v2.92c0,.4-.04.44-.439.44-.2,0-1.4-.08-5-.08h-3a30.735,30.735,0,0,1-1.28,3h2.759c3.2,0,4.319-.08,4.6-.08.4,0,.44.04.44.439,0,.2-.08,1.6-.08,4.64v10.637c0,3.04.08,4.4.08,4.64,0,.4-.04.44-.44.44-.281,0-1.4-.081-4.6-.081H557.8c-3.239,0-4.36.081-4.6.081-.439,0-.479-.04-.479-.44,0-.24.08-1.6.08-4.64v-10.477c0-1.72-.04-2.92-.04-3.68a11.563,11.563,0,0,0-1.6,2.68c-.28.559-.44.84-.68.84-.2,0-.44-.16-.88-.521s-.88-.76-1.28-1.159v2.839c0,.4-.04.44-.44.44-.239,0-.84-.08-2.919-.08h-3.04c-2.079,0-2.679.08-2.919.08-.36,0-.4-.04-.4-.44v-2.639c-.64.6-1.28,1.2-1.959,1.72-.4.319-.641.479-.84.479-.281,0-.441-.28-.721-.919a7.956,7.956,0,0,0-1.439-2.32,23.087,23.087,0,0,0,7-7.759,10.071,10.071,0,0,0,1.08-2.719c1.359.2,2.479.36,3.638.559.441.08.641.321.641.561,0,.2-.12.4-.44.6l-.241.161a21.063,21.063,0,0,0,7.44,7.558c-.04-.639-.04-.96-.04-1.08,0-.4.04-.439.479-.439.2,0,1.281.08,4.119.08a19.253,19.253,0,0,0,1.121-3ZM543.24,1425.48v9.958c0,3.16.08,4.68.08,4.919,0,.4-.04.441-.44.441h-3.159c-.4,0-.441-.04-.441-.441,0-.279.08-1.759.08-4.919v-9.958c-2.718,0-3.678.081-3.879.081-.44,0-.48-.04-.48-.441v-2.8c0-.44.04-.48.48-.48.241,0,1.24.08,4.36.08h5.919c3.159,0,4.239-.08,4.479-.08.4,0,.44.04.44.48,0,.24-.08.959-.08,2.639v3.84c0,1.4.08,2.959.08,4a3.721,3.721,0,0,1-.92,2.8c-.6.6-1.4.88-3.48.96-1.279.04-1.279.04-1.519-1.241a10.338,10.338,0,0,0-.88-2.719,13.04,13.04,0,0,0,2.12.12c.64,0,.84-.24.84-1.119v-6.12ZM548,1415.8a26.6,26.6,0,0,1-4.479-5.879,30.637,30.637,0,0,1-4.439,5.879,26.631,26.631,0,0,0,2.839.08h3.04c2.079,0,2.68-.08,2.919-.08Zm10.918,19.4c.36.24.44.441.44.641,0,.239-.2.359-.48.479-.279.161-.6.4-1.039.72a25.083,25.083,0,0,1-6.44,4,2.754,2.754,0,0,1-.919.319c-.28,0-.48-.24-.92-.919a11.038,11.038,0,0,0-1.68-2,22.7,22.7,0,0,0,6.959-3.559,7.146,7.146,0,0,0,1.32-1.36A19.473,19.473,0,0,1,558.917,1435.2Zm-2.279-19.076v2.52h8.478v-2.52Zm8.478,8.158v-2.639h-8.478v2.639Zm0,3h-8.478v2.839h8.478Zm-1.2,6.479c.2-.2.319-.28.439-.28s.241.08.4.24a24.093,24.093,0,0,0,7.038,4.279,9.325,9.325,0,0,0-1.64,2.24c-.359.68-.519.959-.8.959a2.783,2.783,0,0,1-1-.4,26.61,26.61,0,0,1-6.318-4.72c-.32-.319-.2-.4.2-.76Z" fill="#ee8a00"/>
    <path id="パス_6568" data-name="パス 6568" d="M586.72,1429.2a32.484,32.484,0,0,0,3.479-1.519,22.856,22.856,0,0,0-.12,2.479c0,1.32,0,1.32-1.159,1.84a10.217,10.217,0,0,1-.96.44,21.926,21.926,0,0,0,4.119-.48,68.353,68.353,0,0,0,10.118-2.76c-.12.8-.239,1.6-.279,2.4,0,1.319,0,1.359-1.2,1.719a93.077,93.077,0,0,1-9.118,2.56c-.72.239-1.2.359-1.441.479a1.984,1.984,0,0,1-.84.321c-.239,0-.439-.16-.6-.6a28.194,28.194,0,0,1-.84-3.6c-1.96.84-4.159,1.6-6.239,2.32a4.213,4.213,0,0,0-1.2.559,1.13,1.13,0,0,1-.679.281c-.2,0-.4-.12-.521-.52a30.586,30.586,0,0,1-.84-3.6,20.835,20.835,0,0,0,3.48-.72l.88-.24v-11.678h-.08c-2.48,0-3.24.079-3.48.079-.359,0-.4-.039-.4-.44v-3c0-.439.04-.479.4-.479.28,0,1.04.08,3.56.08v-3.68a43.767,43.767,0,0,0-.281-6.079c1.481.04,2.72.12,4.121.281.359.04.6.24.6.44a3.122,3.122,0,0,1-.16.84c-.2.479-.32,1.479-.32,4.438v3.76c2.04,0,2.719-.08,2.96-.08.4,0,.439.04.439.479v3c0,.4-.04.44-.439.44-.241,0-.92-.039-2.96-.079Zm19.837-14.517a83.079,83.079,0,0,0,1.08,11.278,24.526,24.526,0,0,0,1.639-4.359,22.853,22.853,0,0,0,.76-4.08,31.438,31.438,0,0,1,3.44,1.161c.48.24.679.359.679.719a1.188,1.188,0,0,1-.4.76c-.32.32-.441.84-.88,2.16a36.463,36.463,0,0,1-3.96,8.8c1.12,3.68,2.12,5,2.48,5,.64,0,.959-1.72,1.12-5.119a8.789,8.789,0,0,0,2.04,1.48c1.04.52,1.04.52.92,1.64-.561,5.359-1.72,6.8-4.08,6.8-1.64,0-3.559-1.72-5.239-6.159a32.523,32.523,0,0,1-7.558,6.079,3.064,3.064,0,0,1-1.04.479c-.241,0-.441-.239-.84-.759a7.7,7.7,0,0,0-2.281-2.039,29.109,29.109,0,0,0,10.359-8,81.075,81.075,0,0,1-2.079-15.838H595.6c-3.879,0-5.2.08-5.44.08-.4,0-.439-.04-.439-.48v-2.92c0-.4.04-.439.439-.439.24,0,1.561.08,5.44.08h7v-.481a44.569,44.569,0,0,0-.321-5.718,34.983,34.983,0,0,1,4.039.32c.441.04.641.239.641.439a1.96,1.96,0,0,1-.2.8c-.2.4-.28.84-.28,2.76V1411h2.28c3.919,0,5.278-.08,5.518-.08.4,0,.441.04.441.439v2.92c0,.44-.04.48-.441.48-.24,0-1.6-.08-5.518-.08Zm-8.8,2.96c2.16,0,2.8-.08,3.04-.08.439,0,.479.04.479.44,0,.239-.08,1.039-.08,3.079v3.6c0,2.079.08,2.879.08,3.119,0,.4-.04.44-.479.44-.24,0-.88-.08-3.04-.08h-3.119c-2.16,0-2.8.08-3.079.08-.4,0-.441-.04-.441-.44,0-.28.08-1.04.08-3.119v-3.6c0-2.04-.08-2.84-.08-3.079,0-.4.04-.44.441-.44.279,0,.919.08,3.079.08Zm.28,3.119H594.4v4.279h3.64Zm12.358-15.438c.48-.159.48-.119.76.2a18.7,18.7,0,0,1,2.28,3.28c.2.36.12.48-.44.68l-1.72.8c-.56.28-.6.239-.8-.2a16.807,16.807,0,0,0-2.2-3.359c-.28-.321-.2-.441.321-.64Z" fill="#7fbc26"/>
  </g>
</svg>
