<svg xmlns="http://www.w3.org/2000/svg" width="165.01" height="58.311" viewBox="0 0 165.01 58.311">
  <g id="グループ_4319" data-name="グループ 4319" transform="translate(-964.109 -1699.319)">
    <g id="グループ_3777" data-name="グループ 3777">
      <path id="パス_6272" data-name="パス 6272" d="M968.676,1721.212c-2.315,0-3.121.052-3.277.052-.26,0-.286-.026-.286-.286v-2.184c0-.261.026-.286.286-.286.156,0,.962.052,3.277.052h6.265v-13.469h-4.576c-2.521,0-3.353.053-3.51.053-.259,0-.286-.027-.286-.287v-2.184c0-.26.027-.286.286-.286.157,0,.989.052,3.51.052h12.481c2.5,0,3.328-.052,3.484-.052.26,0,.286.026.286.286v2.184c0,.26-.026.287-.286.287-.156,0-.988-.053-3.484-.053H977.88v13.469h6.63c2.314,0,3.12-.052,3.276-.052.26,0,.286.025.286.286v2.184c0,.26-.026.286-.286.286-.156,0-.962-.052-3.276-.052Z" fill="#1482ca"/>
      <path id="パス_6273" data-name="パス 6273" d="M994.545,1716.714c-2.314,0-3.094.052-3.25.052-.26,0-.286-.027-.286-.287v-2c0-.26.026-.287.286-.287.156,0,.936.052,3.25.052h6.839a19.025,19.025,0,0,0-.156-2.21l1.507.156a16.331,16.331,0,0,0,2.367-1.872h-5.617c-2.391,0-3.223.052-3.354.052-.26,0-.285-.025-.285-.26v-1.82c0-.26.025-.286.285-.286.131,0,.963.053,3.354.053h7.046a1.606,1.606,0,0,0,.625-.053.842.842,0,0,1,.338-.1c.208,0,.468.208,1.117.832.521.546.729.884.729,1.119a.414.414,0,0,1-.313.416,6.306,6.306,0,0,0-1.248.857,30.716,30.716,0,0,1-3.639,2.7v.416h6.5c2.314,0,3.094-.052,3.25-.052.26,0,.286.027.286.287v2c0,.26-.026.287-.286.287-.156,0-.936-.052-3.25-.052h-6.5v1.689c0,.624.051,1.587.051,2.263,0,1.118-.208,1.689-.832,2.132-.675.416-1.481.572-3.977.572-.807,0-.807.026-1.015-.754a7.827,7.827,0,0,0-.779-1.9,25.262,25.262,0,0,0,2.781.156c.729,0,1.015-.183,1.015-.91v-3.25Zm1.612-16.641c.338-.13.416-.078.572.13a19.649,19.649,0,0,1,1.743,2.7c.13.26.13.286-.235.416l-1.716.624h5.409a20.106,20.106,0,0,0-1.483-3.25c-.156-.259-.078-.286.235-.39l1.715-.52c.313-.1.39-.052.521.156a20.4,20.4,0,0,1,1.43,3.016c.078.234.078.26-.286.391l-1.691.6h4.005a20.553,20.553,0,0,0,1.273-2.626,8.6,8.6,0,0,0,.391-1.378,13.061,13.061,0,0,1,2.574.78c.234.1.364.234.364.39a.488.488,0,0,1-.26.39,1.949,1.949,0,0,0-.494.6c-.365.675-.676,1.221-1.066,1.845h.676c2.418,0,3.276-.051,3.432-.051.286,0,.312.025.312.286,0,.155-.052.649-.052,1.4v1.2c0,2.34.052,2.756.052,2.912,0,.286-.026.313-.312.313h-2.054c-.26,0-.286-.027-.286-.313v-3.431H994.285v3.431c0,.26-.025.286-.286.286h-2.054c-.286,0-.312-.026-.312-.286,0-.181.053-.6.053-2.938v-.962c0-.962-.053-1.43-.053-1.611,0-.261.026-.286.312-.286.157,0,1.014.051,3.432.051h.7a14.984,14.984,0,0,0-1.664-2.912c-.155-.234-.13-.286.183-.39Z" fill="#1482ca"/>
      <path id="パス_6274" data-name="パス 6274" d="M1018.934,1705.481c.337.079.389.13.363.416a22.535,22.535,0,0,1-.884,5.7c-.078.26-.13.233-.416.1l-1.248-.519c-.338-.131-.364-.261-.286-.521a21.593,21.593,0,0,0,.832-5.278c0-.26.053-.233.416-.156Zm1.04-1.793a24,24,0,0,0-.208-3.927c.987.026,1.819.078,2.677.182.26.026.416.13.416.26a1.263,1.263,0,0,1-.13.52,10.359,10.359,0,0,0-.182,2.886v15.107c0,2.938.053,4.42.053,4.55,0,.286-.027.312-.287.312h-2.106c-.26,0-.286-.026-.286-.312,0-.13.053-1.612.053-4.524Zm3.925.675c.287-.1.365-.078.468.157a18.776,18.776,0,0,1,1.067,3.093c.078.26.051.313-.287.443l-1.091.389c-.338.13-.416.13-.468-.156a19.478,19.478,0,0,0-.963-3.145c-.1-.287-.078-.339.261-.443Zm4.758,5.928c-2.521,0-3.38.026-3.536.026-.26,0-.285,0-.285-.286v-1.482c0-.26.025-.285.285-.285.156,0,1.015.051,3.536.051h2.185v-1.2h-1.3c-2.341,0-3.095.052-3.276.052-.26,0-.287-.025-.287-.312v-1.3c0-.261.027-.287.287-.287.181,0,.935.052,3.276.052h1.3v-1.17h-1.716c-2.444,0-3.276.052-3.433.052-.259,0-.286-.025-.286-.286v-1.4c0-.287.027-.313.286-.313.157,0,.989.052,3.433.052h1.716c-.027-.91-.078-1.638-.182-2.548.962.026,1.69.078,2.573.182.287.026.416.156.416.26a2.572,2.572,0,0,1-.181.676,5.648,5.648,0,0,0-.1,1.43h2.5c2.419,0,3.251-.052,3.407-.052.286,0,.312.026.312.313v1.4c0,.261-.026.286-.312.286-.156,0-.988-.052-3.407-.052h-2.5v1.17h1.769c2.314,0,3.094-.052,3.25-.052.26,0,.286.026.286.287v1.3c0,.287-.026.312-.286.312-.156,0-.936-.052-3.25-.052h-1.769v1.2h3.225c2.5,0,3.38-.051,3.51-.051.26,0,.286.025.286.285v1.482c0,.286-.026.286-.286.286-.13,0-1.014-.026-3.51-.026Zm9.595,6.709c0,1.3.052,2.808.052,3.613a2.737,2.737,0,0,1-.676,2.185c-.442.39-1.066.6-2.964.65-.807.026-.832.026-1.015-.806a6,6,0,0,0-.6-1.613c.6.053,1.3.078,1.768.078.754,0,.909-.259.909-.779v-1.04h-7.045v1.2c0,1.821.051,2.679.051,2.809,0,.286-.025.312-.311.312H1026.4c-.287,0-.312-.026-.312-.312,0-.13.052-.91.052-2.756v-6.085c0-1.819-.052-2.651-.052-2.807,0-.287.025-.313.312-.313.156,0,.936.053,3.223.053h5.175c2.288,0,3.042-.053,3.224-.053.26,0,.286.026.286.313,0,.156-.052,1.118-.052,3.042Zm-9.568-3.641v1.223h7.045v-1.223Zm7.045,4.212V1716.3h-7.045v1.273Z" fill="#1482ca"/>
      <path id="パス_6275" data-name="パス 6275" d="M1047.508,1706.833v-2.054h-.7c-2,0-2.653.052-2.809.052-.26,0-.286-.026-.286-.286v-1.638c0-.234.026-.26.286-.26.156,0,.806.052,2.809.052h.7v-.052a16.534,16.534,0,0,0-.183-2.86,23.918,23.918,0,0,1,2.574.182c.287.026.416.13.416.26a1,1,0,0,1-.156.468,2.863,2.863,0,0,0-.155,1.3v.7h.571c2,0,2.653-.052,2.809-.052.233,0,.26.026.26.26v1.638c0,.26-.027.286-.26.286-.156,0-.807-.052-2.809-.052H1050v2.054h.884c2.235,0,2.937-.052,3.093-.052.26,0,.287.027.287.313v1.611c0,.26-.027.286-.287.286-.156,0-.858-.052-3.093-.052h-4.681c-2.184,0-2.912.052-3.042.052-.286,0-.311-.026-.311-.286v-1.611c0-.286.025-.313.311-.313.13,0,.858.052,3.042.052Zm0,10.011v-2.132h-1.326c-2.185,0-2.912.052-3.043.052-.26,0-.285-.027-.285-.313v-1.611c0-.261.025-.286.285-.286.131,0,.858.051,3.043.051h3.067c.313-.753.6-1.534.832-2.288a8.753,8.753,0,0,0,.261-1.221,19.11,19.11,0,0,1,2.183.519c.26.078.365.156.365.286a.394.394,0,0,1-.183.312,1.387,1.387,0,0,0-.338.494,20.393,20.393,0,0,1-.832,1.9c1.717,0,2.341-.051,2.5-.051.261,0,.286.025.286.286v1.611c0,.286-.025.313-.286.313-.155,0-.857-.052-3.067-.052H1050v2.132h.7c2.028,0,2.679-.052,2.834-.052.261,0,.286.025.286.286v1.611c0,.26-.025.287-.286.287-.155,0-.806-.052-2.834-.052h-.7v1.689c0,1.742.052,2.575.052,2.7,0,.26-.027.286-.286.286h-2.029c-.26,0-.286-.026-.286-.286,0-.156.053-.963.053-2.7v-1.689h-.859c-2.028,0-2.7.052-2.86.052-.26,0-.286-.027-.286-.287v-1.611c0-.261.026-.286.286-.286.156,0,.832.052,2.86.052Zm-1.353-4.342a1.406,1.406,0,0,1-.286.052c-.13,0-.234-.1-.286-.286a15.135,15.135,0,0,0-.832-2.21c-.13-.287-.078-.313.234-.416l1.43-.443c.286-.078.364-.025.468.182a13.284,13.284,0,0,1,.885,2.263c.078.259.078.337-.26.442Zm16.823-3.3a1.443,1.443,0,0,0,.728-.1.675.675,0,0,1,.39-.1c.156,0,.364.078.988.7.624.651.729.832.729,1.014a.626.626,0,0,1-.183.442,1.843,1.843,0,0,0-.442.989,23.983,23.983,0,0,1-2.106,6.006,17.285,17.285,0,0,0,3.718,3.016,5.968,5.968,0,0,0-1.014,1.768c-.182.39-.286.572-.442.572-.1,0-.26-.1-.52-.286a23.247,23.247,0,0,1-3.12-2.808,22.85,22.85,0,0,1-2.21,2.626c-.261.234-.39.364-.52.364-.157,0-.26-.182-.468-.546a6.538,6.538,0,0,0-1.118-1.535c.026,1.223.051,1.9.051,2,0,.234-.025.26-.286.26h-2c-.286,0-.311-.026-.311-.26,0-.182.052-1.9.052-5.434v-11.206c0-3.563-.052-5.331-.052-5.513,0-.26.025-.286.311-.286.157,0,1.17.052,3.225.052h4.186c2.08,0,2.782-.052,2.938-.052.26,0,.364.078.338.338-.052.494-.052.885-.078,1.326a10.953,10.953,0,0,1-.572,3.9c-.494,1.014-1.222,1.378-2.834,1.378-.442,0-.911,0-1.378-.026-.6-.052-.624-.052-.728-.676a9.437,9.437,0,0,0-.416-1.664,14.521,14.521,0,0,0,2.027.156c.677,0,.937-.156,1.093-.675a6,6,0,0,0,.182-1.613h-5.746v5.876Zm-5.59,12.039a17.905,17.905,0,0,0,2.73-2.938,19.028,19.028,0,0,1-2.549-6.761h-.181Zm2.366-9.7a17.013,17.013,0,0,0,1.742,4.446,20.751,20.751,0,0,0,1.4-4.446Z" fill="#1482ca"/>
      <path id="パス_6276" data-name="パス 6276" d="M1076.107,1724.046h-1.638l10.583-24.727h1.637Z" fill="#1482ca"/>
      <path id="パス_6277" data-name="パス 6277" d="M969.655,1752.17c1.437,1.43,3.4,2.184,6.827,2.184a56.467,56.467,0,0,0,8.4-.495,5.7,5.7,0,0,0-.619,1.9c-.155.858-.155.858-.84.884-2.209.182-4.109.26-6.96.26-2.718,0-5.611-.39-7.556-2.392a4.09,4.09,0,0,1-.442-.468,17.982,17.982,0,0,1-2.319,2.886c-.244.234-.376.364-.487.364-.133,0-.22-.183-.4-.521a5.877,5.877,0,0,0-1.149-1.611,15.353,15.353,0,0,0,2.872-3.173,19.723,19.723,0,0,1-1.723-3.977c-.154-.416-.154-.494.133-.676l1.083-.677c.376-.233.4-.13.551.313a15.763,15.763,0,0,0,1.061,2.885,19,19,0,0,0,1.149-5.017h-1.9l-.354.623c-.087.156-.154.234-.264.234a2.855,2.855,0,0,1-.928-.416c-.663-.364-.885-.467-.885-.624a.622.622,0,0,1,.133-.311,44.7,44.7,0,0,0,3.381-6.813H966.96c-1.437,0-1.878.052-2.011.052-.22,0-.243-.026-.243-.286v-1.924c0-.286.023-.312.243-.312.133,0,.574.052,2.011.052h2.408a1.92,1.92,0,0,0,.486-.052,1.024,1.024,0,0,1,.265-.078c.133,0,.287.1.73.754.375.572.574.884.574,1.118a.524.524,0,0,1-.221.442,2.594,2.594,0,0,0-.6.962c-.508,1.093-1.17,2.6-2.01,4.264h1.06a.77.77,0,0,0,.508-.129c.133-.079.177-.13.287-.13.177,0,.354.155.8.754.442.545.53.727.53.935a.711.711,0,0,1-.243.521,2.087,2.087,0,0,0-.265.91,21.536,21.536,0,0,1-1.723,6.681Zm4.817-.494c-2.1,0-2.828.052-2.961.052-.221,0-.243-.027-.243-.312v-1.586c0-.286.022-.312.243-.312.133,0,.862.051,2.961.051h1.767v-1.456h-.971c-1.99,0-2.7.053-2.829.053-.221,0-.243-.026-.243-.286v-1.509c0-.26.022-.285.243-.285.132,0,.839.052,2.829.052h.971v-1.456h-1.193c-1.723,0-2.275.051-2.408.051-.221,0-.243-.026-.243-.286v-1.456c0-.26.022-.286.243-.286.133,0,.685.053,2.408.053h1.193V1741.3h-1.988c-2.033,0-2.718.053-2.851.053-.22,0-.243-.027-.243-.313v-1.534c0-.26.023-.286.243-.286.133,0,.818.052,2.851.052h1.988v-1.43h-.817c-1.967,0-2.608.053-2.74.053-.221,0-.243-.027-.243-.287V1736.1c0-.261.022-.287.243-.287.132,0,.773.052,2.74.052h.817a16.614,16.614,0,0,0-.154-2.106,18.091,18.091,0,0,1,2.165.182c.221.026.354.1.354.26a1.022,1.022,0,0,1-.133.416,3,3,0,0,0-.133,1.248h1.282c2.032,0,3.005-.052,3.138-.052.242,0,.264.026.264.287,0,.155-.043.935-.043,2.573v.6c.684,0,1.369-.052,1.48-.052.221,0,.242.026.242.286v1.56c0,.26-.021.287-.242.287-.111,0-.8-.027-1.48-.053v.625c0,1.637.043,2.391.043,2.521,0,.26-.022.286-.264.286-.133,0-1.106-.051-3.138-.051h-1.282v1.456h1.856c1.989,0,2.674-.052,2.806-.052.243,0,.266.025.266.285v1.509c0,.26-.023.286-.266.286-.132,0-.817-.053-2.806-.053h-1.856v1.456h2.607c2.121,0,2.851-.051,2.984-.051.22,0,.243.026.243.312v1.586c0,.285-.023.312-.243.312-.133,0-.863-.052-2.984-.052h-2.607c.022,1.143.045,1.689.045,1.794,0,.286-.023.311-.243.311h-1.68c-.243,0-.265-.025-.265-.311,0-.052.022-.651.022-1.794Zm3.866-13.833v1.43h2.586v-1.43Zm2.586,3.458h-2.586v1.457h2.586Z" fill="#1482ca"/>
      <path id="パス_6278" data-name="パス 6278" d="M987.689,1740.938c0-.235.022-.287.221-.287a1.738,1.738,0,0,1-.4-.467,4.1,4.1,0,0,0-1.061-1.067,12.5,12.5,0,0,0,2.851-4.212,7.6,7.6,0,0,0,.375-1.222,16.362,16.362,0,0,1,1.967.39c.22.026.331.1.331.312,0,.156-.067.234-.2.364a1.54,1.54,0,0,0-.353.6c-.067.182-.155.339-.222.494h2.431c1.855,0,2.43-.052,2.562-.052.222,0,.243.026.243.313v1.637a12.7,12.7,0,0,0,1.415-2.782,8.21,8.21,0,0,0,.376-1.274,12.887,12.887,0,0,1,1.79.364c.243.052.331.1.331.286a.487.487,0,0,1-.155.364,1.318,1.318,0,0,0-.309.65l-.2.494h3.38c2.254,0,3.049-.052,3.182-.052.221,0,.243.026.243.313v1.533c0,.261-.022.286-.243.286-.133,0-.928-.052-3.182-.052h-.42a10.02,10.02,0,0,1,.641,1.352c.089.234.066.312-.221.39l-1.37.338c-.309.078-.353.052-.441-.208a10.29,10.29,0,0,0-.752-1.872h-1.745a13.4,13.4,0,0,1-1.215,1.9c-.222.285-.332.416-.442.416-.133,0-.265-.157-.553-.469a4.036,4.036,0,0,0-.994-.832c.265-.312.508-.624.752-.962H996.2c-.132,0-.684-.052-2.363-.052.242.468.441.962.662,1.483.111.259.067.337-.221.389l-1.37.312c-.331.078-.4.078-.464-.207a12.754,12.754,0,0,0-.662-1.977h-1.569a11.7,11.7,0,0,1-1.7,2.366,1.593,1.593,0,0,1-.443.416c.244.027.8.052,2.011.052h2.364c1.5,0,1.989-.052,2.122-.052.22,0,.243.027.243.287v1.534c0,.259-.023.286-.243.286-.133,0-.619-.053-2.122-.053h-.11v2.315c.8-.208,1.635-.468,2.541-.781a8.01,8.01,0,0,0-.177,1.275c-.022.857-.022.857-.707,1.04-1.811.624-3.381,1.065-5.1,1.508a2.374,2.374,0,0,0-.73.311.583.583,0,0,1-.376.156c-.131,0-.242-.1-.308-.338a17.159,17.159,0,0,1-.531-2.131,20.224,20.224,0,0,0,2.077-.313l1.282-.233V1742.7h-.222c-1.524,0-1.988.053-2.121.053-.243,0-.265-.027-.265-.286Zm11.446,2.677c.11-.1.177-.156.242-.156s.111.053.222.156a16.626,16.626,0,0,1,1.834,2.21c.154.235.131.286-.111.521l-.884.805c-.111.1-.176.157-.243.157-.045,0-.089-.052-.176-.183a11.479,11.479,0,0,0-1.768-2.287.355.355,0,0,1-.155-.209,5.091,5.091,0,0,1-1.679,3.068c.42.027.817.078,1.237.13a.319.319,0,0,1,.309.313,1.462,1.462,0,0,1-.11.467,2.981,2.981,0,0,0-.088.832h5.5c2.01,0,2.7-.051,2.828-.051.221,0,.243.026.243.259v1.691c0,.26-.022.286-.243.286-.132,0-.818-.053-2.828-.053h-3.69a16.755,16.755,0,0,0,7.446,3.225,10.3,10.3,0,0,0-.883,1.664c-.332.754-.332.728-.994.519a17.921,17.921,0,0,1-7.424-4.471c0,2.626.088,4.394.088,4.836,0,.26-.022.286-.244.286h-1.9c-.2,0-.222-.026-.222-.286,0-.442.067-2.08.089-4.758a16.522,16.522,0,0,1-7.137,4.446c-.685.208-.685.208-1.016-.546a6.837,6.837,0,0,0-.861-1.482,15.245,15.245,0,0,0,7.158-3.433H990.23c-2.01,0-2.7.053-2.828.053-.22,0-.243-.026-.243-.286v-1.691c0-.233.023-.259.243-.259.133,0,.818.051,2.828.051h5.258a9.254,9.254,0,0,0-.044-1.091c-.11-.027-.22-.182-.441-.443a3.449,3.449,0,0,0-1.127-.987c2.011-1.2,2.452-2.185,2.452-5.227,0-.572-.044-.91-.044-1.091,0-.261.023-.287.243-.287.155,0,.619.052,2.165.052h2.5c1.569,0,2.055-.052,2.209-.052.221,0,.244.026.244.287,0,.181-.044.754-.044,1.949v2.314c0,.573,0,.832.11.937.154.155.265.155.574.155a.731.731,0,0,0,.707-.363,5.71,5.71,0,0,0,.222-2.263,4.245,4.245,0,0,0,1.126.6c.575.233.553.26.509.91a4.446,4.446,0,0,1-.686,2.626,2.83,2.83,0,0,1-2.142.624,2.889,2.889,0,0,1-1.79-.338,1.928,1.928,0,0,1-.6-1.639v-3.769h-3.336a15.664,15.664,0,0,1-.177,2.21,1.8,1.8,0,0,1,.177-.183Z" fill="#1482ca"/>
      <path id="パス_6279" data-name="パス 6279" d="M1020,1750.688c0,1.793.022,3.328.066,5.408.022.338-.088.442-.332.442a15.66,15.66,0,0,1-2.209,0c-.243,0-.332-.1-.309-.416.022-1.872.088-3.562.088-5.33v-6.059a38.807,38.807,0,0,1-6.075,4.993.557.557,0,0,1-.332.1.58.58,0,0,1-.464-.261,8.4,8.4,0,0,0-1.9-1.534,35.435,35.435,0,0,0,6.96-5.33,39.336,39.336,0,0,0,4.706-5.434,7.873,7.873,0,0,0,1.393-2.678,19.562,19.562,0,0,1,2.452,1.82.489.489,0,0,1,.177.39.768.768,0,0,1-.31.572,7.9,7.9,0,0,0-1.325,1.43,39.441,39.441,0,0,1-2.585,3.276Z" fill="#1482ca"/>
      <path id="パス_6280" data-name="パス 6280" d="M1029.369,1737.323a.4.4,0,0,1,.309-.208.538.538,0,0,1,.287.13,23.7,23.7,0,0,1,4.221,3.693c.132.156.2.259.2.363a.614.614,0,0,1-.132.339c-.332.519-1.061,1.559-1.37,1.95-.111.13-.177.207-.266.207s-.177-.077-.287-.207a24.444,24.444,0,0,0-4.507-4.238C1028.309,1738.649,1028.949,1737.843,1029.369,1737.323Zm1.922,13.7a32.635,32.635,0,0,0,6.363-4.836,36.667,36.667,0,0,0,6.054-7.072,13.3,13.3,0,0,0,.619,3.042,1.468,1.468,0,0,1,.111.494,1.366,1.366,0,0,1-.354.781,39.247,39.247,0,0,1-5.082,5.511,47.4,47.4,0,0,1-6.673,5.1,7.776,7.776,0,0,0-1.48,1.2.59.59,0,0,1-.4.26c-.11,0-.243-.1-.375-.286a18.136,18.136,0,0,1-1.767-2.886A12.088,12.088,0,0,0,1031.291,1751.025Z" fill="#1482ca"/>
      <path id="パス_6281" data-name="パス 6281" d="M1057.81,1744.915a17.04,17.04,0,0,1-1.3,6.631,12.5,12.5,0,0,1-3.889,4.914,1.235,1.235,0,0,1-.662.311.62.62,0,0,1-.465-.259,5.7,5.7,0,0,0-1.966-1.378,10.607,10.607,0,0,0,4.4-4.628,12.656,12.656,0,0,0,1.127-5.591h-4.2c-1.1,0-2.188.078-3.315.156-.2.027-.264-.156-.287-.494a18.4,18.4,0,0,1-.177-2.5,35.857,35.857,0,0,0,3.757.13h9.92c1.724,0,3.005-.052,4.309-.155.22,0,.243.155.243.519.022.338.022,1.664,0,2,0,.338-.133.443-.331.443-1.15-.052-2.674-.1-4.2-.1Zm-4.375-6.032c-1.016,0-1.9.053-3.137.1-.288,0-.354-.13-.376-.442-.067-.624-.088-1.56-.154-2.5,1.545.1,2.672.13,3.667.13h4.949c1.237,0,2.63-.026,3.734-.1.221,0,.265.156.265.494a13.383,13.383,0,0,1,0,1.9c0,.364-.044.494-.287.494-1.193-.052-2.5-.078-3.712-.078Z" fill="#1482ca"/>
      <path id="パス_6282" data-name="パス 6282" d="M1069.9,1739.273a20.851,20.851,0,0,0-.243-3.8,14.126,14.126,0,0,1,2.74.546c.265.079.375.234.375.416a1.245,1.245,0,0,1-.087.39,6.937,6.937,0,0,0-.244,2.47v5.253c0,1.351.044,2.366.067,3.275,0,.391-.133.521-.486.521h-1.768c-.31,0-.442-.13-.42-.443,0-.91.066-2.418.066-3.536Zm10.407,4.863c0,3.847-.486,6.422-1.789,8.475a11.642,11.642,0,0,1-4.862,4.082,1.223,1.223,0,0,1-.464.131.682.682,0,0,1-.53-.312,7.328,7.328,0,0,0-1.878-1.586,10.674,10.674,0,0,0,5.391-3.8c1.016-1.483,1.48-3.641,1.48-6.942v-4.915a22.485,22.485,0,0,0-.242-4.238,11.948,11.948,0,0,1,2.872.572.428.428,0,0,1,.31.442.946.946,0,0,1-.089.416,9.157,9.157,0,0,0-.2,2.834Z" fill="#1482ca"/>
      <path id="パス_6283" data-name="パス 6283" d="M1089.7,1739.611c-1.259,0-2.606.1-3.91.208-.266.027-.353-.156-.4-.389-.177-.729-.309-2.029-.4-2.809,1.5.13,2.718.182,4.485.182h9.479a3.984,3.984,0,0,0,1.524-.156,1.482,1.482,0,0,1,.42-.182.738.738,0,0,1,.508.364,12.7,12.7,0,0,1,1.326,1.638.82.82,0,0,1,.177.469.693.693,0,0,1-.309.545,3.072,3.072,0,0,0-.6.754,21.238,21.238,0,0,1-3.889,5.019.6.6,0,0,1-.464.233.8.8,0,0,1-.53-.259,4.834,4.834,0,0,0-1.834-1.067,17.27,17.27,0,0,0,3.955-4.55Zm1.238,10.141a13.842,13.842,0,0,0,1.083-6.137,10.986,10.986,0,0,0-.221-2.444,21.094,21.094,0,0,1,2.849.494.457.457,0,0,1,.376.494,1.207,1.207,0,0,1-.11.468,2.727,2.727,0,0,0-.2,1.066,18.3,18.3,0,0,1-1.3,7.151,12.994,12.994,0,0,1-4.021,5.174,1.011,1.011,0,0,1-.619.259.588.588,0,0,1-.442-.233,6.037,6.037,0,0,0-2.01-1.326A10.636,10.636,0,0,0,1090.938,1749.752Z" fill="#1482ca"/>
    </g>
    <g id="グループ_2982" data-name="グループ 2982">
      <path id="パス_4354" data-name="パス 4354" d="M1117.5,1737.168l10.8,8.332-10.8,8.332" fill="none" stroke="#1482ca" stroke-miterlimit="10" stroke-width="1"/>
      <line id="線_95" data-name="線 95" x1="18" transform="translate(1110.8 1745.5)" fill="none" stroke="#1482ca" stroke-miterlimit="10" stroke-width="1"/>
    </g>
  </g>
</svg>
