<svg xmlns="http://www.w3.org/2000/svg" width="158.7" height="55.398" viewBox="0 0 158.7 55.398">
  <g id="グループ_4329" data-name="グループ 4329" transform="translate(-14.943 -2290.977)">
    <g id="グループ_3510" data-name="グループ 3510" transform="translate(-1526)">
      <path id="パス_5688" data-name="パス 5688" d="M1545.281,2311.778c-2.2,0-2.964.049-3.112.049-.247,0-.272-.024-.272-.271v-2.076c0-.247.025-.271.272-.271.148,0,.914.049,3.112.049h5.954v-12.8h-4.348c-2.4,0-3.187.05-3.335.05-.247,0-.272-.025-.272-.272v-2.075c0-.247.025-.272.272-.272.148,0,.939.05,3.335.05h11.858c2.372,0,3.162-.05,3.311-.05.246,0,.271.025.271.272v2.075c0,.247-.025.272-.271.272-.149,0-.939-.05-3.311-.05h-4.718v12.8h6.3c2.2,0,2.965-.049,3.113-.049.247,0,.271.024.271.271v2.076c0,.247-.024.271-.271.271-.148,0-.914-.049-3.113-.049Z" fill="#1482ca"/>
      <path id="パス_5689" data-name="パス 5689" d="M1569.858,2307.5c-2.2,0-2.94.05-3.088.05-.247,0-.271-.025-.271-.272v-1.9c0-.247.024-.272.271-.272.148,0,.89.049,3.088.049h6.5a17.65,17.65,0,0,0-.148-2.1l1.433.148a15.471,15.471,0,0,0,2.248-1.779h-5.336c-2.273,0-3.063.05-3.187.05-.247,0-.272-.025-.272-.248V2299.5c0-.247.025-.271.272-.271.124,0,.914.049,3.187.049h6.695a1.554,1.554,0,0,0,.592-.049.8.8,0,0,1,.322-.1c.2,0,.444.2,1.062.791.494.519.692.84.692,1.062a.393.393,0,0,1-.3.4,5.927,5.927,0,0,0-1.185.816,29.321,29.321,0,0,1-3.459,2.569v.4h6.176c2.2,0,2.94-.049,3.088-.049.247,0,.272.025.272.272v1.9c0,.247-.025.272-.272.272-.148,0-.889-.05-3.088-.05h-6.176v1.606c0,.593.049,1.507.049,2.149,0,1.062-.2,1.606-.79,2.026-.643.4-1.408.543-3.78.543-.766,0-.766.025-.963-.716a7.467,7.467,0,0,0-.741-1.8,24.245,24.245,0,0,0,2.643.148c.691,0,.963-.173.963-.865V2307.5Zm1.532-15.81c.321-.124.4-.074.543.123a18.526,18.526,0,0,1,1.655,2.569c.124.247.124.272-.222.4l-1.63.593h5.138a19.072,19.072,0,0,0-1.408-3.088c-.148-.247-.074-.272.222-.371l1.631-.494c.3-.1.37-.049.494.148a19.146,19.146,0,0,1,1.358,2.866c.075.222.075.247-.271.37l-1.606.569h3.805a19.558,19.558,0,0,0,1.21-2.5,8.15,8.15,0,0,0,.371-1.309,12.413,12.413,0,0,1,2.445.741c.223.1.346.223.346.371a.464.464,0,0,1-.247.37,1.867,1.867,0,0,0-.47.569c-.345.642-.642,1.161-1.012,1.754h.642c2.3,0,3.113-.05,3.261-.05.272,0,.3.025.3.272,0,.148-.049.617-.049,1.334v1.136c0,2.224.049,2.619.049,2.767,0,.272-.024.3-.3.3h-1.952c-.247,0-.272-.025-.272-.3v-3.261h-15.81v3.261c0,.247-.025.272-.272.272h-1.951c-.272,0-.3-.025-.3-.272,0-.173.05-.568.05-2.792v-.914c0-.914-.05-1.358-.05-1.531,0-.247.025-.272.3-.272.148,0,.963.05,3.26.05h.667a14.236,14.236,0,0,0-1.581-2.767c-.148-.223-.123-.272.174-.371Z" fill="#1482ca"/>
      <path id="パス_5690" data-name="パス 5690" d="M1593.027,2296.832c.321.074.37.124.346.4a21.441,21.441,0,0,1-.84,5.41c-.075.248-.124.223-.4.1l-1.185-.494c-.322-.123-.347-.247-.272-.494a20.487,20.487,0,0,0,.79-5.015c0-.247.05-.222.4-.148Zm.988-1.705a22.687,22.687,0,0,0-.2-3.73c.939.025,1.729.074,2.545.173.247.025.395.124.395.247a1.2,1.2,0,0,1-.124.494,9.818,9.818,0,0,0-.173,2.742v14.353c0,2.792.05,4.2.05,4.323,0,.272-.025.3-.272.3h-2c-.247,0-.272-.025-.272-.3,0-.123.05-1.531.05-4.3Zm3.73.643c.272-.1.346-.074.445.148a17.952,17.952,0,0,1,1.013,2.94c.074.247.049.3-.272.42l-1.037.37c-.322.124-.4.124-.445-.148a18.587,18.587,0,0,0-.914-2.989c-.1-.272-.075-.321.247-.42Zm4.521,5.632c-2.4,0-3.212.025-3.36.025-.247,0-.272,0-.272-.272v-1.408c0-.247.025-.272.272-.272.148,0,.964.05,3.36.05h2.075v-1.137h-1.235c-2.224,0-2.94.05-3.113.05-.247,0-.271-.025-.271-.3v-1.235c0-.247.024-.272.271-.272.173,0,.889.05,3.113.05h1.235v-1.112h-1.631c-2.321,0-3.112.05-3.26.05-.247,0-.272-.025-.272-.272v-1.334c0-.272.025-.3.272-.3.148,0,.939.05,3.26.05h1.631c-.025-.865-.074-1.557-.173-2.421.914.025,1.606.074,2.446.173.272.024.4.148.4.247a2.426,2.426,0,0,1-.173.642,5.38,5.38,0,0,0-.1,1.359h2.372c2.3,0,3.088-.05,3.236-.05.272,0,.3.025.3.3v1.334c0,.247-.025.272-.3.272-.148,0-.939-.05-3.236-.05h-2.372v1.112h1.68c2.2,0,2.94-.05,3.088-.05.247,0,.272.025.272.272v1.235c0,.272-.025.3-.272.3-.148,0-.889-.05-3.088-.05h-1.68v1.137h3.064c2.371,0,3.211-.05,3.335-.05.247,0,.271.025.271.272v1.408c0,.272-.024.272-.271.272-.124,0-.964-.025-3.335-.025Zm9.116,6.374c0,1.235.049,2.668.049,3.434a2.6,2.6,0,0,1-.642,2.075c-.42.371-1.013.568-2.816.617-.766.025-.791.025-.964-.765a5.729,5.729,0,0,0-.568-1.532c.568.049,1.235.074,1.68.074.716,0,.864-.247.864-.741v-.988h-6.694v1.136c0,1.729.049,2.545.049,2.668,0,.272-.025.3-.3.3h-1.926c-.272,0-.3-.025-.3-.3,0-.123.05-.864.05-2.618v-5.781c0-1.73-.05-2.52-.05-2.668,0-.272.025-.3.3-.3.148,0,.889.049,3.063.049h4.916c2.174,0,2.89-.049,3.063-.049.247,0,.272.024.272.3,0,.148-.049,1.062-.049,2.89Zm-9.091-3.459v1.162h6.694v-1.162Zm6.694,4v-1.21h-6.694v1.21Z" fill="#1482ca"/>
      <path id="パス_5691" data-name="パス 5691" d="M1620.172,2298.117v-1.952h-.667c-1.9,0-2.519.049-2.668.049-.247,0-.271-.024-.271-.271v-1.557c0-.222.024-.247.271-.247.149,0,.767.05,2.668.05h.667v-.05a15.74,15.74,0,0,0-.172-2.717,22.758,22.758,0,0,1,2.445.173c.272.025.4.123.4.247a.949.949,0,0,1-.149.445,2.718,2.718,0,0,0-.148,1.235v.667h.543c1.9,0,2.52-.05,2.669-.05.222,0,.247.025.247.247v1.557c0,.247-.025.271-.247.271-.149,0-.766-.049-2.669-.049h-.543v1.952h.84c2.125,0,2.792-.05,2.94-.05.247,0,.272.025.272.3v1.532c0,.246-.025.271-.272.271-.148,0-.815-.049-2.94-.049h-4.446c-2.076,0-2.768.049-2.891.049-.272,0-.3-.025-.3-.271v-1.532c0-.272.025-.3.3-.3.123,0,.815.05,2.891.05Zm0,9.511V2305.6h-1.259c-2.076,0-2.767.049-2.891.049-.247,0-.272-.024-.272-.3v-1.532c0-.247.025-.271.272-.271.124,0,.815.049,2.891.049h2.915c.3-.716.568-1.457.79-2.174a8.442,8.442,0,0,0,.247-1.161,18.112,18.112,0,0,1,2.075.494c.248.074.346.148.346.272a.376.376,0,0,1-.173.3,1.327,1.327,0,0,0-.321.47,19.6,19.6,0,0,1-.791,1.8c1.631,0,2.224-.049,2.372-.049.247,0,.272.024.272.271v1.532c0,.272-.025.3-.272.3-.148,0-.815-.049-2.915-.049h-.914v2.026h.667c1.927,0,2.545-.05,2.693-.05.247,0,.272.025.272.272v1.532c0,.247-.025.271-.272.271-.148,0-.766-.049-2.693-.049h-.667v1.606c0,1.655.05,2.446.05,2.569,0,.247-.025.272-.272.272H1620.4c-.247,0-.272-.025-.272-.272,0-.148.049-.914.049-2.569V2309.6h-.815c-1.927,0-2.569.049-2.717.049-.247,0-.272-.024-.272-.271v-1.532c0-.247.025-.272.272-.272.148,0,.79.05,2.717.05Zm-1.284-4.126a1.258,1.258,0,0,1-.272.05c-.123,0-.222-.1-.272-.272a14.316,14.316,0,0,0-.79-2.1c-.124-.272-.074-.3.222-.4l1.359-.42c.272-.074.346-.025.445.173a12.511,12.511,0,0,1,.839,2.149c.075.247.075.321-.247.42Zm15.984-3.137a1.368,1.368,0,0,0,.691-.1.646.646,0,0,1,.371-.1c.148,0,.345.074.939.667.592.618.691.791.691.964a.6.6,0,0,1-.173.42,1.747,1.747,0,0,0-.42.938,22.79,22.79,0,0,1-2,5.707,16.446,16.446,0,0,0,3.533,2.866,5.634,5.634,0,0,0-.963,1.679c-.173.371-.272.544-.42.544-.1,0-.247-.1-.495-.272a22.052,22.052,0,0,1-2.964-2.668,21.588,21.588,0,0,1-2.1,2.5c-.247.222-.371.346-.494.346-.148,0-.247-.173-.444-.519a6.215,6.215,0,0,0-1.063-1.457c.025,1.161.049,1.8.049,1.9,0,.222-.024.247-.271.247h-1.9c-.272,0-.3-.025-.3-.247,0-.173.049-1.8.049-5.163v-10.647c0-3.385-.049-5.065-.049-5.238,0-.247.025-.272.3-.272.148,0,1.111.05,3.063.05h3.977c1.977,0,2.644-.05,2.792-.05.247,0,.346.075.321.322-.049.469-.049.84-.074,1.26a10.408,10.408,0,0,1-.544,3.705c-.469.963-1.161,1.309-2.693,1.309-.42,0-.864,0-1.309-.024-.568-.05-.593-.05-.692-.643a8.885,8.885,0,0,0-.4-1.581,13.932,13.932,0,0,0,1.927.149c.643,0,.889-.149,1.038-.643a5.7,5.7,0,0,0,.173-1.531h-5.46v5.583Zm-5.312,11.438a16.867,16.867,0,0,0,2.594-2.792,18.078,18.078,0,0,1-2.421-6.423h-.173Zm2.248-9.215a16.206,16.206,0,0,0,1.655,4.225,19.672,19.672,0,0,0,1.334-4.225Z" fill="#1482ca"/>
      <path id="パス_5692" data-name="パス 5692" d="M1647.342,2314.471h-1.556l10.054-23.494h1.556Z" fill="#1482ca"/>
      <path id="パス_5693" data-name="パス 5693" d="M1546.213,2341.188c1.365,1.358,3.234,2.075,6.488,2.075a53.717,53.717,0,0,0,7.979-.47,5.44,5.44,0,0,0-.588,1.8c-.147.815-.147.815-.8.84-2.1.173-3.9.247-6.614.247-2.582,0-5.333-.371-7.18-2.273a3.872,3.872,0,0,1-.42-.445,17,17,0,0,1-2.2,2.742c-.231.223-.357.346-.462.346-.126,0-.21-.173-.378-.494a5.584,5.584,0,0,0-1.092-1.531,14.625,14.625,0,0,0,2.73-3.014,18.687,18.687,0,0,1-1.638-3.78c-.147-.4-.147-.469.126-.642l1.029-.643c.357-.222.378-.123.525.3a14.973,14.973,0,0,0,1.008,2.742,18.123,18.123,0,0,0,1.091-4.768h-1.8l-.336.593c-.084.148-.147.222-.252.222a2.715,2.715,0,0,1-.882-.395c-.63-.346-.84-.445-.84-.593a.586.586,0,0,1,.126-.3,42.511,42.511,0,0,0,3.213-6.473h-1.386c-1.365,0-1.785.05-1.911.05-.21,0-.231-.025-.231-.272v-1.828c0-.272.021-.3.231-.3.126,0,.546.05,1.911.05h2.288a1.8,1.8,0,0,0,.462-.05,1,1,0,0,1,.252-.074c.126,0,.273.1.693.717.357.543.546.84.546,1.062a.5.5,0,0,1-.21.42,2.455,2.455,0,0,0-.567.914c-.483,1.038-1.113,2.47-1.91,4.051h1.007a.726.726,0,0,0,.483-.123c.126-.074.168-.124.273-.124.168,0,.336.149.756.717.42.519.5.692.5.889a.673.673,0,0,1-.231.494,1.98,1.98,0,0,0-.252.865,20.492,20.492,0,0,1-1.638,6.349Zm4.578-.47c-1.995,0-2.688.05-2.814.05-.21,0-.231-.025-.231-.3v-1.507c0-.272.021-.3.231-.3.126,0,.819.049,2.814.049h1.679v-1.383h-.924c-1.889,0-2.561.049-2.687.049-.21,0-.231-.025-.231-.272v-1.432c0-.247.021-.272.231-.272.126,0,.8.049,2.687.049h.924v-1.383h-1.134c-1.637,0-2.162.049-2.288.049-.21,0-.231-.024-.231-.271v-1.384c0-.247.021-.272.231-.272.126,0,.651.05,2.288.05h1.134v-1.384h-1.889c-1.932,0-2.583.05-2.709.05-.21,0-.231-.025-.231-.3v-1.457c0-.247.021-.272.231-.272.126,0,.777.05,2.709.05h1.889v-1.359h-.777c-1.868,0-2.477.049-2.6.049-.21,0-.231-.024-.231-.271v-1.433c0-.247.021-.272.231-.272.126,0,.735.049,2.6.049h.777a15.692,15.692,0,0,0-.147-2,17.174,17.174,0,0,1,2.058.173c.21.025.336.1.336.247a.963.963,0,0,1-.126.4,2.851,2.851,0,0,0-.126,1.186h1.218c1.931,0,2.855-.049,2.981-.049.231,0,.252.025.252.272,0,.148-.042.889-.042,2.445v.569c.651,0,1.3-.05,1.407-.05.21,0,.231.025.231.272v1.482c0,.247-.021.272-.231.272-.1,0-.756-.025-1.407-.05v.593c0,1.557.042,2.273.042,2.4,0,.247-.021.271-.252.271-.126,0-1.05-.049-2.981-.049h-1.218v1.383h1.764c1.889,0,2.54-.049,2.666-.049.231,0,.252.025.252.272v1.432c0,.247-.021.272-.252.272-.126,0-.777-.049-2.666-.049h-1.764v1.383h2.477c2.016,0,2.709-.049,2.835-.049.21,0,.231.024.231.3v1.507c0,.272-.021.3-.231.3-.126,0-.819-.05-2.835-.05h-2.477c.021,1.087.042,1.606.042,1.705,0,.272-.021.3-.231.3h-1.6c-.231,0-.252-.024-.252-.3,0-.049.021-.618.021-1.705Zm3.674-13.142v1.359h2.456v-1.359Zm2.456,3.285h-2.456v1.384h2.456Z" fill="#1482ca"/>
      <path id="パス_5694" data-name="パス 5694" d="M1563.345,2330.516c0-.223.021-.272.21-.272a1.674,1.674,0,0,1-.378-.445,3.906,3.906,0,0,0-1.008-1.013,11.837,11.837,0,0,0,2.709-4,7.063,7.063,0,0,0,.357-1.161,15.454,15.454,0,0,1,1.869.371c.209.025.314.1.314.3,0,.148-.063.222-.189.346a1.484,1.484,0,0,0-.335.568c-.063.173-.147.321-.21.47h2.309c1.764,0,2.31-.05,2.436-.05.21,0,.231.025.231.3v1.556a12.091,12.091,0,0,0,1.343-2.644,7.766,7.766,0,0,0,.357-1.21,12.275,12.275,0,0,1,1.7.346c.231.05.315.1.315.272a.457.457,0,0,1-.147.345,1.26,1.26,0,0,0-.294.618l-.189.47h3.212c2.142,0,2.9-.05,3.024-.05.21,0,.231.025.231.3v1.457c0,.247-.021.272-.231.272-.126,0-.882-.049-3.024-.049h-.4a9.67,9.67,0,0,1,.608,1.284c.084.222.063.3-.21.371l-1.3.321c-.294.074-.336.049-.42-.2a9.713,9.713,0,0,0-.714-1.778h-1.659a12.863,12.863,0,0,1-1.155,1.8c-.209.272-.314.4-.419.4-.126,0-.252-.148-.525-.445a3.838,3.838,0,0,0-.945-.79c.252-.3.483-.593.714-.914h-.105c-.126,0-.651-.049-2.247-.049.231.444.42.914.63,1.408.1.247.063.321-.21.37l-1.3.3c-.315.074-.378.074-.441-.2a12.146,12.146,0,0,0-.63-1.877h-1.49a11.147,11.147,0,0,1-1.617,2.248,1.557,1.557,0,0,1-.42.395c.231.025.756.049,1.911.049h2.246c1.428,0,1.89-.049,2.016-.049.21,0,.231.025.231.272v1.457c0,.247-.021.272-.231.272-.126,0-.588-.05-2.016-.05h-.1v2.2c.756-.2,1.554-.445,2.415-.741a7.569,7.569,0,0,0-.168,1.21c-.021.816-.021.816-.672.989-1.722.592-3.212,1.013-4.85,1.432a2.221,2.221,0,0,0-.693.3.559.559,0,0,1-.357.148c-.126,0-.231-.1-.294-.321a16.606,16.606,0,0,1-.5-2.026,18.973,18.973,0,0,0,1.974-.3l1.218-.223V2332.2h-.21c-1.449,0-1.89.05-2.016.05-.231,0-.252-.025-.252-.272Zm10.876,2.544c.105-.1.168-.148.231-.148s.1.049.21.148a15.646,15.646,0,0,1,1.743,2.1c.147.222.126.272-.1.494l-.84.766c-.1.1-.168.148-.231.148-.042,0-.084-.049-.168-.173a10.917,10.917,0,0,0-1.68-2.174.33.33,0,0,1-.147-.2,4.836,4.836,0,0,1-1.595,2.915c.4.025.777.075,1.175.124a.3.3,0,0,1,.294.3,1.387,1.387,0,0,1-.1.445,2.818,2.818,0,0,0-.084.791h5.228c1.911,0,2.562-.05,2.688-.05.21,0,.231.025.231.248v1.6c0,.247-.021.272-.231.272-.126,0-.777-.05-2.688-.05h-3.506a15.91,15.91,0,0,0,7.076,3.064,9.79,9.79,0,0,0-.84,1.581c-.315.716-.315.692-.945.494a17.052,17.052,0,0,1-7.055-4.249c0,2.495.084,4.175.084,4.595,0,.247-.021.271-.231.271h-1.8c-.189,0-.21-.024-.21-.271,0-.42.063-1.977.084-4.521a15.7,15.7,0,0,1-6.782,4.224c-.651.2-.651.2-.966-.518a6.544,6.544,0,0,0-.819-1.409,14.489,14.489,0,0,0,6.8-3.261h-3.275c-1.911,0-2.562.05-2.688.05-.21,0-.231-.025-.231-.272v-1.6c0-.223.021-.248.231-.248.126,0,.777.05,2.688.05h5a8.792,8.792,0,0,0-.042-1.038c-.1-.025-.21-.173-.42-.42a3.258,3.258,0,0,0-1.071-.938c1.911-1.137,2.331-2.076,2.331-4.966,0-.544-.042-.865-.042-1.038,0-.247.021-.271.231-.271.147,0,.588.049,2.057.049h2.373c1.491,0,1.952-.049,2.1-.049.21,0,.231.024.231.271,0,.173-.042.717-.042,1.853v2.2c0,.543,0,.79.1.889.147.148.252.148.546.148a.7.7,0,0,0,.672-.345,5.426,5.426,0,0,0,.21-2.15,3.956,3.956,0,0,0,1.071.568c.546.223.525.248.483.865a4.223,4.223,0,0,1-.651,2.5,2.689,2.689,0,0,1-2.037.593,2.735,2.735,0,0,1-1.7-.321,1.83,1.83,0,0,1-.567-1.556v-3.582h-3.171a14.817,14.817,0,0,1-.168,2.1,1.761,1.761,0,0,1,.168-.173Z" fill="#1482ca"/>
      <path id="パス_5695" data-name="パス 5695" d="M1594.041,2339.78c0,1.7.021,3.162.063,5.138.021.321-.084.42-.315.42a15,15,0,0,1-2.1,0c-.231,0-.314-.1-.293-.395.021-1.779.083-3.385.083-5.065v-5.756a36.844,36.844,0,0,1-5.773,4.743.528.528,0,0,1-.315.1.555.555,0,0,1-.441-.247,7.946,7.946,0,0,0-1.806-1.457,33.732,33.732,0,0,0,6.614-5.065,37.47,37.47,0,0,0,4.472-5.163,7.48,7.48,0,0,0,1.323-2.544,18.46,18.46,0,0,1,2.33,1.729.464.464,0,0,1,.168.371.729.729,0,0,1-.294.543,7.422,7.422,0,0,0-1.259,1.359,37.632,37.632,0,0,1-2.457,3.113Z" fill="#1482ca"/>
      <path id="パス_5696" data-name="パス 5696" d="M1602.942,2327.082a.383.383,0,0,1,.294-.2.514.514,0,0,1,.273.124,22.529,22.529,0,0,1,4.011,3.508.587.587,0,0,1,.188.345.58.58,0,0,1-.125.322c-.315.494-1.008,1.482-1.3,1.852-.1.124-.168.2-.252.2s-.168-.074-.273-.2a23.332,23.332,0,0,0-4.283-4.026C1601.935,2328.342,1602.543,2327.576,1602.942,2327.082Zm1.827,13.019a31.117,31.117,0,0,0,6.047-4.595,34.889,34.889,0,0,0,5.753-6.72,12.673,12.673,0,0,0,.588,2.891,1.381,1.381,0,0,1,.1.469,1.3,1.3,0,0,1-.336.741,37.347,37.347,0,0,1-4.829,5.238,45.235,45.235,0,0,1-6.341,4.841,7.342,7.342,0,0,0-1.407,1.137.563.563,0,0,1-.378.247c-.1,0-.231-.1-.357-.272a17.223,17.223,0,0,1-1.679-2.742A11.529,11.529,0,0,0,1604.769,2340.1Z" fill="#1482ca"/>
      <path id="パス_5697" data-name="パス 5697" d="M1629.963,2334.295a16.2,16.2,0,0,1-1.238,6.3,11.871,11.871,0,0,1-3.7,4.669,1.174,1.174,0,0,1-.63.3.584.584,0,0,1-.441-.247,5.418,5.418,0,0,0-1.868-1.309,10.075,10.075,0,0,0,4.178-4.4,12,12,0,0,0,1.071-5.312h-3.989c-1.05,0-2.079.074-3.15.148-.189.025-.252-.148-.273-.469a17.429,17.429,0,0,1-.168-2.371,34.205,34.205,0,0,0,3.57.123h9.427c1.638,0,2.855-.049,4.094-.148.21,0,.231.148.231.494.021.321.021,1.581,0,1.9,0,.321-.126.42-.315.42-1.092-.049-2.54-.1-3.989-.1Zm-4.157-5.731c-.966,0-1.806.049-2.981.1-.273,0-.336-.124-.357-.42-.063-.593-.084-1.483-.147-2.372,1.47.1,2.54.124,3.485.124h4.7c1.176,0,2.5-.025,3.549-.1.21,0,.252.148.252.469a12.932,12.932,0,0,1,0,1.8c0,.346-.042.469-.273.469-1.134-.049-2.373-.074-3.528-.074Z" fill="#1482ca"/>
      <path id="パス_5698" data-name="パス 5698" d="M1641.448,2328.935a19.831,19.831,0,0,0-.231-3.607,13.5,13.5,0,0,1,2.6.518c.252.075.357.223.357.4a1.18,1.18,0,0,1-.084.37,6.624,6.624,0,0,0-.231,2.347v4.99c0,1.285.042,2.249.063,3.113,0,.371-.126.494-.462.494h-1.68c-.294,0-.42-.123-.4-.42,0-.865.063-2.3.063-3.36Zm9.889,4.619c0,3.656-.462,6.1-1.7,8.054a11.088,11.088,0,0,1-4.619,3.878,1.169,1.169,0,0,1-.441.124.647.647,0,0,1-.5-.3,6.987,6.987,0,0,0-1.785-1.507,10.131,10.131,0,0,0,5.123-3.607c.966-1.407,1.407-3.458,1.407-6.595v-4.669a21.278,21.278,0,0,0-.231-4.027,11.354,11.354,0,0,1,2.729.543.407.407,0,0,1,.294.42.9.9,0,0,1-.084.4,8.69,8.69,0,0,0-.189,2.692Z" fill="#1482ca"/>
      <path id="パス_5699" data-name="パス 5699" d="M1660.26,2329.256c-1.2,0-2.478.1-3.717.2-.251.025-.335-.148-.377-.37a26.9,26.9,0,0,1-.378-2.668c1.427.123,2.582.173,4.262.173h9.007a3.781,3.781,0,0,0,1.449-.149,1.4,1.4,0,0,1,.4-.172.7.7,0,0,1,.483.345,12.016,12.016,0,0,1,1.259,1.557.781.781,0,0,1,.168.444.661.661,0,0,1-.294.519,2.959,2.959,0,0,0-.566.717,20.172,20.172,0,0,1-3.7,4.767.564.564,0,0,1-.441.223.763.763,0,0,1-.5-.247,4.586,4.586,0,0,0-1.742-1.013,16.471,16.471,0,0,0,3.758-4.323Zm1.176,9.634a13.15,13.15,0,0,0,1.028-5.83,10.444,10.444,0,0,0-.21-2.322,19.983,19.983,0,0,1,2.709.469.434.434,0,0,1,.357.47,1.144,1.144,0,0,1-.1.444,2.6,2.6,0,0,0-.189,1.013,17.382,17.382,0,0,1-1.239,6.794,12.364,12.364,0,0,1-3.821,4.916.963.963,0,0,1-.588.247.558.558,0,0,1-.42-.222,5.753,5.753,0,0,0-1.911-1.26A10.108,10.108,0,0,0,1661.436,2338.89Z" fill="#1482ca"/>
    </g>
    <g id="グループ_2714" data-name="グループ 2714" transform="translate(-1526)">
      <path id="パス_3757" data-name="パス 3757" d="M1688.566,2326.937l10.258,7.915-10.258,7.915" fill="none" stroke="#1482ca" stroke-miterlimit="10" stroke-width="1"/>
      <line id="線_81" data-name="線 81" x1="17.1" transform="translate(1682.199 2334.852)" fill="none" stroke="#1482ca" stroke-miterlimit="10" stroke-width="1"/>
    </g>
  </g>
</svg>
