<svg xmlns="http://www.w3.org/2000/svg" width="155.038" height="54.942" viewBox="0 0 155.038 54.942">
  <g id="グループ_4331" data-name="グループ 4331" transform="translate(-16.765 -2660.927)">
    <g id="グループ_2682" data-name="グループ 2682" transform="translate(-1526)">
      <g id="グループ_2681" data-name="グループ 2681">
        <path id="パス_3523" data-name="パス 3523" d="M1543.036,2684.05c-.247,0-.271-.024-.271-.271,0-.173.049-1.829.049-9.487v-4.916c0-4.891-.049-6.621-.049-6.769,0-.247.024-.272.271-.272.173,0,.988.05,3.286.05h13.414c2.3,0,3.113-.05,3.286-.05.247,0,.271.025.271.272,0,.148-.049,1.878-.049,5.929v5.732c0,7.658.049,9.338.049,9.486,0,.247-.024.272-.271.272H1560.9c-.247,0-.272-.025-.272-.272v-1.161h-15.217v1.186c0,.247-.025.271-.272.271Zm2.372-3.755h15.217v-15.588h-15.217Zm9.98-9.214c1.977,0,2.668-.05,2.817-.05.247,0,.272.025.272.272v1.631c0,.247-.025.271-.272.271-.149,0-.84-.049-2.817-.049H1554.1v3.285h2.025c2.3,0,3.039-.049,3.187-.049.272,0,.3.025.3.272v1.7c0,.247-.025.272-.3.272-.148,0-.889-.049-3.187-.049H1549.9c-2.3,0-3.039.049-3.187.049-.272,0-.3-.025-.3-.272v-1.7c0-.247.024-.272.3-.272.148,0,.889.049,3.187.049h1.7v-3.285h-.963c-2.025,0-2.717.049-2.866.049-.247,0-.271-.024-.271-.271V2671.3c0-.247.024-.272.271-.272.149,0,.841.05,2.866.05h.963v-2.594h-1.432c-2.223,0-2.989.049-3.137.049-.223,0-.247-.025-.247-.271v-1.656c0-.247.024-.271.247-.271.148,0,.914.049,3.137.049h5.731c2.248,0,3.014-.049,3.162-.049.223,0,.247.024.247.271v1.656c0,.246-.024.271-.247.271-.148,0-.914-.049-3.162-.049h-1.8v2.594Zm1.483,2.273c.247-.124.3-.075.494.148a9.725,9.725,0,0,1,1.21,1.778c.1.2.1.247-.2.4l-1.062.568c-.321.173-.37.1-.494-.173a7.824,7.824,0,0,0-1.136-1.828c-.173-.2-.074-.222.2-.371Z" fill="#d40e64"/>
        <path id="パス_3524" data-name="パス 3524" d="M1586.61,2663.2a1.191,1.191,0,0,0,.445-.074.764.764,0,0,1,.321-.074c.2,0,.4.124.84.617.519.544.617.767.617.914a.639.639,0,0,1-.222.42,3.335,3.335,0,0,0-.518.865,20.158,20.158,0,0,1-2.125,3.212,10.769,10.769,0,0,0,3.607,2.717,6.719,6.719,0,0,0-.939,1.507c-.2.4-.272.568-.42.568a1.382,1.382,0,0,1-.568-.271,13.463,13.463,0,0,1-2.495-2.051v1.606c0,.247-.025.272-.272.272-.148,0-.568-.05-2.125-.05h-2.124c-1.531,0-1.976.05-2.125.05-.247,0-.271-.025-.271-.272v-1.285a17.208,17.208,0,0,1-2.2,1.828,1.37,1.37,0,0,1-.568.272c-.148,0-.247-.148-.4-.42a3.382,3.382,0,0,0-.89-1.186,18.375,18.375,0,0,0,2.248-1.7,12.7,12.7,0,0,0-1.185-1.013c-.223-.148-.2-.2.024-.445l.643-.642c.222-.247.271-.247.494-.074a12.545,12.545,0,0,1,1.235.963c.272-.3.494-.642.741-.963-.4-.346-.741-.643-1.161-.964-.124-.074-.173-.123-.173-.2s.074-.149.2-.272l.568-.667c.123-.124.173-.173.247-.173a.457.457,0,0,1,.247.124,9.24,9.24,0,0,1,.939.691,14.06,14.06,0,0,0,.741-1.63h-2.051a15.319,15.319,0,0,1-2.791,3.236c-.272.222-.42.346-.544.346-.148,0-.271-.148-.543-.47a5.948,5.948,0,0,0-.84-.716l-.84,2.026c1.482,2.026,1.877,3.038,1.877,4.669,0,2.371-.815,3.508-2.865,3.656-.766.05-.766.05-.865-.766a3.848,3.848,0,0,0-.494-1.507c1.482.074,2-.222,2-1.531a7.219,7.219,0,0,0-1.927-4.472,24.509,24.509,0,0,0,1.927-5.434h-2.223v13.957c0,3.385.049,5.163.049,5.287,0,.247-.025.272-.272.272h-1.926c-.223,0-.247-.025-.247-.272,0-.149.049-1.828.049-5.262v-10.7c0-3.459-.049-5.163-.049-5.336,0-.247.024-.272.247-.272.172,0,.716.05,1.852.05h3.039a1.2,1.2,0,0,0,.494-.075.879.879,0,0,1,.346-.074c.173,0,.346.124.963.791.47.568.519.741.519.939a.46.46,0,0,1-.222.42,2.073,2.073,0,0,0-.4.815c-.271.791-.543,1.556-.864,2.372a13,13,0,0,0,3.73-4.843,5.755,5.755,0,0,0,.3-1.21c.767.1,1.507.247,2.026.346.3.074.371.173.371.3a.614.614,0,0,1-.149.346,1.534,1.534,0,0,0-.419.642l-.223.494h2.026a.457.457,0,0,1-.05-.2c-.074-.247-.024-.4.248-.47l1.259-.37c.3-.1.322-.148.4.1a21.312,21.312,0,0,0,1.877,4.891,13.043,13.043,0,0,0,1.285-2.3h-.593c-.667,0-1.062.049-1.21.049-.247,0-.272-.024-.272-.272v-1.433c0-.246.025-.271.272-.271.148,0,.518.049,1.507.049Zm-10.993,15.588a3.6,3.6,0,0,0,.642-1.087,13.822,13.822,0,0,1,1.977.791c.2.1.271.222.271.321a.363.363,0,0,1-.222.321,1.734,1.734,0,0,0-.618.643,13.438,13.438,0,0,1-2.84,2.989c-.272.222-.4.321-.519.321-.173,0-.3-.148-.593-.469a6.167,6.167,0,0,0-1.236-.989A13,13,0,0,0,1575.617,2678.788Zm2.767-1.8c-2.322,0-3.137.049-3.286.049-.247,0-.271-.024-.271-.271v-1.606c0-.272.024-.3.271-.3.149,0,.964.05,3.286.05h6.571c2.322,0,3.113-.05,3.261-.05.272,0,.3.025.3.3v1.606c0,.247-.025.271-.3.271-.148,0-.939-.049-3.261-.049h-2.347v1.729c0,.742.05,1.927.05,2.841a2,2,0,0,1-.766,1.779,5.307,5.307,0,0,1-2.866.469c-.79,0-.79,0-.988-.765a5.053,5.053,0,0,0-.667-1.606c.889.074,1.705.1,2.223.1a.618.618,0,0,0,.667-.692v-3.854Zm4.372-5.707c1.483,0,1.928-.049,2.1-.049a15.206,15.206,0,0,1-2.964-5.089,15.852,15.852,0,0,1-3.063,5.114c.3.024.815.024,1.8.024Zm2.52,6.572a.479.479,0,0,1,.272-.124c.1,0,.148.074.223.173a14.562,14.562,0,0,0,3.458,3.063,4.979,4.979,0,0,0-1.013,1.211c-.222.37-.346.519-.494.519-.123,0-.3-.124-.593-.371a14.852,14.852,0,0,1-3.137-3.335c-.148-.222-.1-.222.2-.4Z" fill="#d40e64"/>
        <path id="パス_3525" data-name="パス 3525" d="M1598.191,2684.421h-1.556l10.055-23.494h1.556Z" fill="#d40e64"/>
        <path id="パス_3526" data-name="パス 3526" d="M1622.176,2665.72c1.878,0,2.495-.05,2.643-.05.247,0,.272.025.272.272v1.754c0,.272-.025.3-.272.3-.148,0-.765-.05-2.643-.05h-3.31c-1.878,0-2.495.05-2.644.05-.222,0-.246-.025-.246-.3v-1.754c0-.247.024-.272.246-.272.149,0,.766.05,2.644.05Zm2.223,14.032c0,2.866.05,3.409.05,3.557,0,.247-.025.272-.272.272h-1.8c-.248,0-.272-.025-.272-.272v-.667h-2.742v1.137c0,.247-.025.271-.272.271h-1.8c-.272,0-.3-.024-.3-.271,0-.173.05-.741.05-3.731v-1.655c0-1.556-.05-2.149-.05-2.322,0-.247.025-.272.3-.272.148,0,.667.05,2.248.05h2.371c1.606,0,2.1-.05,2.273-.05.247,0,.272.025.272.272,0,.148-.05.741-.05,1.9Zm-2.42-17.417c1.6,0,2.075-.049,2.223-.049.272,0,.3.025.3.272v1.655c0,.247-.024.272-.3.272-.148,0-.618-.049-2.223-.049h-2.372c-1.606,0-2.1.049-2.248.049-.247,0-.272-.025-.272-.272v-1.655c0-.247.025-.272.272-.272.148,0,.642.049,2.248.049Zm-.2,6.893c1.507,0,1.927-.049,2.075-.049.271,0,.3.024.3.271v1.581c0,.247-.025.272-.3.272-.148,0-.568-.049-2.075-.049h-2.1c-1.507,0-1.952.049-2.1.049-.247,0-.271-.025-.271-.272v-1.581c0-.247.024-.271.271-.271.148,0,.593.049,2.1.049Zm0,3.286c1.507,0,1.927-.05,2.075-.05.271,0,.3.025.3.272v1.606c0,.222-.025.247-.3.247-.148,0-.568-.05-2.075-.05h-2.1c-1.507,0-1.952.05-2.1.05-.247,0-.271-.025-.271-.247v-1.606c0-.247.024-.272.271-.272.148,0,.593.05,2.1.05Zm-2.421,5.385v2.717h2.742V2677.9Zm9.733-13.513c-2.223,0-2.989.05-3.113.05-.247,0-.272-.025-.272-.272v-1.68c0-.272.025-.3.272-.3.124,0,.89.05,3.113.05h5.509c2.224,0,2.989-.05,3.138-.05.247,0,.271.025.271.3v1.68c0,.247-.024.272-.271.272-.149,0-.914-.05-3.138-.05h-2.693c-.148.791-.3,1.556-.469,2.3h1.705c1.951,0,2.643-.05,2.767-.05.271,0,.3.025.3.3,0,.124-.049.618-.049,1.779v2.841c1.407,0,1.976-.049,2.1-.049.222,0,.247.024.247.271v1.705c0,.247-.025.272-.247.272-.148,0-.963-.05-3.26-.05h-6.5c-2.322,0-3.112.05-3.261.05-.247,0-.271-.025-.271-.272v-1.705c0-.247.024-.271.271-.271.124,0,.741.049,2.347.049.321-.889.618-1.828.89-2.791-1.31.024-1.829.049-1.952.049-.247,0-.272-.025-.272-.272v-1.606c0-.271.025-.3.272-.3.123,0,.766.05,2.495.05.173-.767.346-1.532.469-2.3Zm-2.495,19.64c-.247,0-.272-.025-.272-.3,0-.148.049-.741.049-3.878v-1.68c0-1.655-.049-2.3-.049-2.471,0-.247.025-.271.272-.271.173,0,.865.049,2.94.049h4.274c2.075,0,2.791-.049,2.939-.049.248,0,.272.024.272.271,0,.173-.049.816-.049,2.15v1.951c0,3.088.049,3.706.049,3.854,0,.247-.024.272-.272.272h-2c-.247,0-.271-.025-.271-.272v-.815H1628.8v.889c0,.272-.025.3-.272.3Zm2.2-3.286h5.682v-3.162H1628.8Zm2.124-11.981c-.272.938-.543,1.877-.839,2.791h3.655v-2.791Z" fill="#d40e64"/>
        <path id="パス_3527" data-name="パス 3527" d="M1644.208,2677.454c-2.2,0-2.939.05-3.087.05-.247,0-.272-.025-.272-.272v-1.9c0-.247.025-.272.272-.272.148,0,.889.049,3.087.049h6.5a18.1,18.1,0,0,0-.148-2.1l1.432.148a15.344,15.344,0,0,0,2.248-1.779H1648.9c-2.272,0-3.063.05-3.186.05-.247,0-.272-.025-.272-.247v-1.73c0-.247.025-.271.272-.271.123,0,.914.049,3.186.049h6.7a1.56,1.56,0,0,0,.593-.049.8.8,0,0,1,.321-.1c.2,0,.445.2,1.063.79.493.519.691.84.691,1.063a.393.393,0,0,1-.3.395,5.892,5.892,0,0,0-1.186.815,29.14,29.14,0,0,1-3.459,2.569v.4h6.176c2.2,0,2.94-.049,3.088-.049.247,0,.272.025.272.272v1.9c0,.247-.025.272-.272.272-.148,0-.889-.05-3.088-.05h-6.176v1.606c0,.593.05,1.507.05,2.149,0,1.062-.2,1.606-.791,2.026-.642.395-1.408.544-3.779.544-.766,0-.766.024-.964-.717a7.428,7.428,0,0,0-.741-1.8,24.017,24.017,0,0,0,2.643.148c.692,0,.964-.173.964-.865v-3.088Zm1.532-15.81c.322-.124.4-.074.544.123a18.732,18.732,0,0,1,1.655,2.569c.124.247.124.272-.222.4l-1.631.593h5.139a19.081,19.081,0,0,0-1.409-3.088c-.148-.247-.074-.272.223-.371l1.63-.494c.3-.1.371-.049.495.148a19.386,19.386,0,0,1,1.358,2.866c.074.222.074.247-.272.371l-1.6.568h3.8a19.753,19.753,0,0,0,1.211-2.495,8.241,8.241,0,0,0,.37-1.31,12.474,12.474,0,0,1,2.446.741c.222.1.346.223.346.371a.463.463,0,0,1-.247.37,1.856,1.856,0,0,0-.47.569c-.346.642-.642,1.161-1.013,1.754h.643c2.3,0,3.112-.05,3.261-.05.271,0,.3.025.3.272,0,.148-.049.618-.049,1.334v1.137c0,2.223.049,2.618.049,2.766,0,.272-.025.3-.3.3h-1.952c-.247,0-.272-.025-.272-.3v-3.261h-15.811v3.261c0,.247-.024.272-.271.272h-1.952c-.271,0-.3-.025-.3-.272,0-.173.049-.568.049-2.791v-.914c0-.914-.049-1.359-.049-1.532,0-.247.025-.272.3-.272.149,0,.964.05,3.261.05h.667a14.341,14.341,0,0,0-1.581-2.767c-.148-.223-.124-.272.173-.371Z" fill="#d40e64"/>
        <path id="パス_3528" data-name="パス 3528" d="M1672.292,2684.421h-1.556l10.055-23.494h1.556Z" fill="#d40e64"/>
        <path id="パス_3529" data-name="パス 3529" d="M1547.063,2703.109a46.34,46.34,0,0,0,6.028-2.4,7.668,7.668,0,0,0,2.643-1.779,14.118,14.118,0,0,1,2.051,2.223.718.718,0,0,1,.2.445c0,.2-.124.371-.42.445a13.04,13.04,0,0,0-2.051.815,64.706,64.706,0,0,1-8.473,3.063v3.286c0,1.161.173,1.556.815,1.754a12.665,12.665,0,0,0,3.113.272,43.5,43.5,0,0,0,6.966-.569c.371-.049.42.05.445.346.074.692.148,1.631.148,2.15,0,.321-.148.419-.519.444a49.357,49.357,0,0,1-7.337.445,12.153,12.153,0,0,1-4.693-.667c-1.236-.519-1.754-1.68-1.754-3.706v-9.116a25.714,25.714,0,0,0-.247-4.52,20.959,20.959,0,0,1,3.112.494c.3.074.4.222.4.4a1.086,1.086,0,0,1-.172.519,5.616,5.616,0,0,0-.248,2.223Zm10.327-7.139c.123-.1.222-.074.37.049a11.358,11.358,0,0,1,2.347,2.643.25.25,0,0,1-.074.4l-1.037.765a.258.258,0,0,1-.42-.074,12.287,12.287,0,0,0-2.495-2.865Zm2.2-1.606c.149-.1.223-.074.371.049a10.327,10.327,0,0,1,2.347,2.545.285.285,0,0,1-.074.444l-.988.766a.254.254,0,0,1-.42-.074,11.7,11.7,0,0,0-2.471-2.841Z" fill="#d40e64"/>
        <path id="パス_3530" data-name="パス 3530" d="M1565.243,2701.75c.123-.173.247-.3.469-.247a17.169,17.169,0,0,1,4.744,2.421c.172.124.271.222.271.371a.727.727,0,0,1-.1.272,10.084,10.084,0,0,1-1.086,1.877c-.124.148-.223.247-.322.247a.473.473,0,0,1-.3-.148,21.686,21.686,0,0,0-4.99-2.693C1564.551,2702.862,1564.946,2702.146,1565.243,2701.75Zm4,9.166a41.462,41.462,0,0,0,6.769-4.274,44.979,44.979,0,0,0,7.114-6.893,12.354,12.354,0,0,0,.717,2.767,1.207,1.207,0,0,1,.123.47.767.767,0,0,1-.271.568,46.041,46.041,0,0,1-6.275,5.706,57.354,57.354,0,0,1-7.387,4.645,8.086,8.086,0,0,0-1.432.84.549.549,0,0,1-.4.2.633.633,0,0,1-.494-.3,15.557,15.557,0,0,1-1.828-2.52A11.436,11.436,0,0,0,1569.245,2710.916Zm-1.013-14.848c.173-.3.321-.345.618-.2a16.779,16.779,0,0,1,4.644,2.742.391.391,0,0,1,.2.321.6.6,0,0,1-.1.321,10.568,10.568,0,0,1-1.26,1.853.276.276,0,0,1-.247.148.637.637,0,0,1-.371-.173,23.863,23.863,0,0,0-4.792-3.038C1567.343,2697.4,1567.812,2696.711,1568.232,2696.068Zm11.314-.765c.124-.1.223-.074.371.049a11.38,11.38,0,0,1,2.347,2.643.25.25,0,0,1-.074.4l-1.038.765a.258.258,0,0,1-.42-.074,12.239,12.239,0,0,0-2.495-2.865Zm2.2-1.606c.148-.1.222-.074.371.049a10.3,10.3,0,0,1,2.346,2.545.284.284,0,0,1-.074.444l-.988.766a.254.254,0,0,1-.42-.074,11.691,11.691,0,0,0-2.47-2.841Z" fill="#d40e64"/>
        <path id="パス_3531" data-name="パス 3531" d="M1599.059,2711.064c0,2.2.074,3.829.074,4.446,0,.223-.173.322-.469.322a15.355,15.355,0,0,1-2.125,0c-.3,0-.47-.1-.47-.346,0-.692.124-2.347.124-4.4V2707.9a42.767,42.767,0,0,1-6.794,4.125,1,1,0,0,1-.42.124.673.673,0,0,1-.494-.272,5.752,5.752,0,0,0-1.976-1.507,46.861,46.861,0,0,0,7.955-4.447,34.273,34.273,0,0,0,4.792-4l-5.706.124c-1.334.049-2.248.1-3.261.173-.272,0-.371-.148-.42-.47a21.452,21.452,0,0,1-.272-2.421,23.986,23.986,0,0,0,3.434.2l7.164-.074a3.988,3.988,0,0,0,1.754-.272.832.832,0,0,1,.371-.1.559.559,0,0,1,.42.2,9.7,9.7,0,0,1,1.235,1.457.789.789,0,0,1,.148.42c0,.2-.123.346-.371.445a2.649,2.649,0,0,0-.79.568c-1.26,1.285-2.569,2.52-3.9,3.657Zm-4-16.873c.148-.222.272-.3.519-.222a33.592,33.592,0,0,1,5.237,2.149c.173.1.271.173.271.272a.4.4,0,0,1-.1.247c-.272.543-.593,1.161-1.013,1.828-.1.173-.2.247-.321.247a.462.462,0,0,1-.272-.1,25.43,25.43,0,0,0-5.509-2.446C1594.365,2695.377,1594.81,2694.562,1595.057,2694.191Zm6.67,11.166c.173-.222.247-.2.494-.1a26.306,26.306,0,0,1,5.385,3.014c.148.1.223.173.223.3a.591.591,0,0,1-.1.3,14.222,14.222,0,0,1-1.21,1.779.426.426,0,0,1-.3.2.74.74,0,0,1-.346-.173,27.46,27.46,0,0,0-5.558-3.409C1600.862,2706.469,1601.406,2705.728,1601.727,2705.357Z" fill="#d40e64"/>
        <path id="パス_3532" data-name="パス 3532" d="M1623.859,2697.18a3.634,3.634,0,0,0,1.7-.222.413.413,0,0,1,.272-.1.816.816,0,0,1,.42.2,9,9,0,0,1,1.606,1.729.655.655,0,0,1,.123.321.68.68,0,0,1-.321.494,4.531,4.531,0,0,0-.914,1.087,39.032,39.032,0,0,1-3.162,4.62,58.2,58.2,0,0,1,6.843,5.978.56.56,0,0,1,.2.346.609.609,0,0,1-.172.37,13.134,13.134,0,0,1-1.656,1.68.424.424,0,0,1-.3.149.51.51,0,0,1-.346-.2,44.915,44.915,0,0,0-6.423-6.127,35.556,35.556,0,0,1-8.3,6.522,1.565,1.565,0,0,1-.569.2.551.551,0,0,1-.42-.223,6.763,6.763,0,0,0-2.074-1.6,30.833,30.833,0,0,0,13.339-12.5l-6.373.025c-1.285,0-2.569.05-3.9.148-.2.025-.272-.148-.322-.42a14.424,14.424,0,0,1-.222-2.569c1.334.1,2.569.1,4.175.1Z" fill="#d40e64"/>
      </g>
    </g>
    <g id="グループ_2716" data-name="グループ 2716" transform="translate(-1526)">
      <path id="パス_3759" data-name="パス 3759" d="M1686.726,2695.937l10.258,7.915-10.258,7.915" fill="none" stroke="#d40e64" stroke-miterlimit="10" stroke-width="1"/>
      <line id="線_83" data-name="線 83" x1="17.1" transform="translate(1680.359 2703.852)" fill="none" stroke="#d40e64" stroke-miterlimit="10" stroke-width="1"/>
    </g>
  </g>
</svg>
