<svg xmlns="http://www.w3.org/2000/svg" width="163" height="166.78" viewBox="0 0 163 166.78">
  <g id="グループ_4317" data-name="グループ 4317" transform="translate(-553 -1820.22)">
    <circle id="楕円形_118" data-name="楕円形 118" cx="81.5" cy="81.5" r="81.5" transform="translate(553 1824)" fill="#e25aa4" opacity="0.3"/>
    <g id="グループ_2992" data-name="グループ 2992">
      <path id="パス_4366" data-name="パス 4366" d="M691.91,1940.754c-8.856,3.976-5.229,10.624-17.046,10.722-8.438.07-11.6-6.945-10.53-10.947.269-1.007-28.08,10.272-28.08,10.272l-9.147-4.008,64.917-32.527,5.231,2.933-17.577,11.44s-6.575,4.844-.973,4.844C688.66,1933.483,704.423,1935.137,691.91,1940.754Z" opacity="0.1"/>
      <g id="グループ_2991" data-name="グループ 2991">
        <g id="グループ_2987" data-name="グループ 2987">
          <path id="パス_4367" data-name="パス 4367" d="M691.666,1878.853a3.256,3.256,0,0,0-1.693-2.582l-52.768-26.886c-.932-.475-1.693-.087-1.693.858l0,30.558a3.262,3.262,0,0,0,1.7,2.584l53.926,26.995a.306.306,0,0,0,.066-.029l.066-.037-.019-.014a1.017,1.017,0,0,0,.422-.889Z" fill="#d8fffa"/>
          <path id="パス_4368" data-name="パス 4368" d="M685.078,1882.18a3.265,3.265,0,0,0-1.7-2.586l-52.77-26.883c-.929-.477-1.693-.091-1.693.855l0,30.557a3.263,3.263,0,0,0,1.693,2.586l52.768,26.884,1.7-.856Z" fill="#9eecea"/>
          <path id="パス_4369" data-name="パス 4369" d="M573.478,1881.554l3.793,1.915,56.921-28.814-.634-4.209-61.184,30.987A1.364,1.364,0,0,1,573.478,1881.554Z" fill="#d8fffa"/>
          <path id="パス_4370" data-name="パス 4370" d="M635.876,1918.216l0,10.253,44.286-22.516v-7.134a4.653,4.653,0,0,0-1.9-4.251Z" fill="#e43c3c"/>
          <path id="パス_4371" data-name="パス 4371" d="M634.182,1904.091a3.243,3.243,0,0,1,1.694,2.563v11.562l43.613-22.342a4.1,4.1,0,0,0-1.555-1.473l-29.04-14.727a4.421,4.421,0,0,0-3.941,0l-29.483,14.974Z" fill="#ff5252"/>
          <g id="グループ_2986" data-name="グループ 2986">
            <path id="パス_4372" data-name="パス 4372" d="M647.664,1848.542l-8.713-4.355a1.286,1.286,0,0,0-1.236.063l-50.43,25.377a3.227,3.227,0,0,0-1.7,2.561v7.229l29.365,14.844,22.762-11.453a3.228,3.228,0,0,0,1.7-2.56Z" fill="#ff5252"/>
            <path id="パス_4373" data-name="パス 4373" d="M647.969,1849.359c0-.94-.763-1.323-1.7-.856l-50.435,25.378a3.236,3.236,0,0,0-1.693,2.56v7.338l21.6,10.869,30.219-15.438a3.227,3.227,0,0,0,1.7-2.559Z" fill="#e43c3c"/>
            <path id="パス_4374" data-name="パス 4374" d="M585.588,1879.417l8.556,4.362v-7.338l-8.556-4.253Z" fill="#b23939"/>
          </g>
          <path id="パス_4375" data-name="パス 4375" d="M685.008,1908.226l-4.848-2.274-44.286,22.516v4.829Z" fill="#bef6f2"/>
          <path id="パス_4376" data-name="パス 4376" d="M635.876,1906.654a3.243,3.243,0,0,0-1.694-2.563l-52.769-26.675c-.931-.47-5.45,4.11-5.45,5.048l3.754,26.12a3.222,3.222,0,0,0,1.694,2.563l46.184,30.828,7.743-4.04a.353.353,0,0,0,.061-.03l.072-.034-.022-.014a1,1,0,0,0,.425-.88Z" fill="#d8fffa"/>
          <path id="パス_4377" data-name="パス 4377" d="M628.03,1910.805a3.233,3.233,0,0,0-1.7-2.562l-52.767-26.675c-.929-.472-1.692-.09-1.692.846l0,34.967a3.237,3.237,0,0,0,1.7,2.565l52.767,26.676c.931.473,1.694.09,1.694-.848Z" fill="#9eecea"/>
          <path id="パス_4378" data-name="パス 4378" d="M691.244,1914.947a1.034,1.034,0,0,0,.422-.889v-35.206l-6.588,3.328-.031,26.029-49.121,24.8-.051-26.354-7.845,4.151-.436,35.817Z" fill="#85e1dd"/>
        </g>
        <g id="グループ_2990" data-name="グループ 2990">
          <path id="パス_4379" data-name="パス 4379" d="M643.989,1840.461l.017,0,.013.006Z" fill="#98b104"/>
          <path id="パス_4380" data-name="パス 4380" d="M633.944,1820.931s3.869,3.12,7.818,5.757c3.24,2.162-.268,4.339-.7,7.012-.241,1.523.1,2.741-.966,3.718-2.253,2.028-2.159,3.886-2.159,3.886s2.443-.148,5.384-3.3c2.135-2.286,2.607-6.223,2.505-9.278-.081-2.442.266-3.263-.845-5.026C642.9,1820.388,638.7,1819.383,633.944,1820.931Z" fill="#f1e7b2"/>
          <path id="パス_4381" data-name="パス 4381" d="M658.531,1873.21c-2.447-7.382-10.423-21.171-10.423-21.171s-5.026-5.042-7.379-4.676c-2.611.414,3.707,10.37,3.707,10.37L653.315,1873S658.924,1874.4,658.531,1873.21Z" fill="#f8a773"/>
          <path id="パス_4382" data-name="パス 4382" d="M624.743,1849.85c2.822-1.62,6.008-3.282,9.616-3.146,1.8.071,3.63.248,4.65.287,1.158,1.3,1.922,3.168,2.335,5.994a4.578,4.578,0,0,1-3.732,5.513C629.728,1858.759,628.2,1850.576,624.743,1849.85Z" fill="#f8a773"/>
          <path id="パス_4383" data-name="パス 4383" d="M629.658,1848.3s3.929-8.53,3.884-11.142c-.028-2.052,7.412,1.722,6.71,3.038-2.068,3.879-2.7,9.635-2.7,9.635Z" fill="#f8a773"/>
          <path id="パス_4384" data-name="パス 4384" d="M635.664,1823.886c4.693-2.184,7.991.62,9.318,3.163.932,1.782.89,6.358.89,6.358l-1.234,8.6-2.751.448s-4.482-1.091-6.14-1.524a6.54,6.54,0,0,1-4.527-4.58l.737-5.291S633.169,1825.038,635.664,1823.886Z" fill="#fab585"/>
          <path id="パス_4385" data-name="パス 4385" d="M649.323,1881.46c-3.674,1.95-5.47,3.157-6.28,8.64,0,0-2.686,2.154,1.47,3.692,4.548,1.684,10.19,7.707,10.991,11.741.532,2.694,2.516,10.329,2.516,10.329l8.518,19.469.933,3.662a2.68,2.68,0,0,0,.55,1.38c.652,1,1.35,2.222,6.728,5.8,2.706,1.8,2.627-2.9,2.627-2.9l-1.768-2.292-2.988-3.19-.622-2s-4.221-22.9-5.962-33.263C664.722,1894.744,651.7,1880.2,649.323,1881.46Z" fill="#f8a773"/>
          <path id="パス_4386" data-name="パス 4386" d="M671.167,1942.735c2.516,2.667,8.438,4.7,5.224-.876l3.066,4.12a4.335,4.335,0,0,1,.07,1.876c-.463,1.116-1.78.867-3.281.5-2.186-.543-4.589-3.064-4.589-3.064l-1.512-1.8h-1.172l-1.605-1.352s-.765-2.655-.165-3.812C667.31,1938.1,668.756,1940.178,671.167,1942.735Z" fill="#002b6a"/>
          <g id="グループ_2988" data-name="グループ 2988">
            <path id="パス_4387" data-name="パス 4387" d="M695.921,1927.055c2.229,2.8,6.237,2.167,6.581.292.367-2.009-5.151-2.819-3.525-2.591.069.008,3.8.536,5.171,1.331a2.675,2.675,0,0,1,1.533,2.322c.006,1.191-1.533,2.169-3.659,2.367a19.607,19.607,0,0,1-6.152-.753l-3.936-1.53s-2.666-1.26-3.074-2.987c-.022-.092-.68-5.316,5.353,1.9C694.477,1927.721,695.631,1926.69,695.921,1927.055Z" fill="#002b6a"/>
            <path id="パス_4388" data-name="パス 4388" d="M664.558,1889.729c-3.472.3-16.557-1.952-20.586-1.865l-11.3,6.941c1.274,6.815,13.528,5.921,19.593,5.534,2.622-.168,7.773-1.175,10.536-.968.825.066,3.715,5.955,3.715,5.955l10.715,9.539,11.632,8.919s.573,2.783,1.646,3.317c3.24,1.617,11.591,3.8,12.419.558.231-.9-.842-2.078-4.045-2.9a42.668,42.668,0,0,1-5.092-1.863c-2.485-1.107-4.657-4.38-4.657-4.38l-15.219-22.478S670.84,1889.2,664.558,1889.729Z" fill="#ffb584"/>
          </g>
          <path id="パス_4389" data-name="パス 4389" d="M628.543,1878.806l-.134-4-3.931-10.98s-1.41-11.413-1.984-12.85c1.84-.921,3.457-1.9,5.2-2.691.238-.108,3.057,4.225,3.057,4.225l4.7,1.8,3.4-2.6s-.7-4.841-.589-4.831a27.947,27.947,0,0,1,2.956.347c1.128.656,5.481,9.694,5.481,9.694l.36,5.337-1.626,8.953.65,4.491,9.652,7.952L667.608,1890l-4.912,2.482-3.9,4.613-2.153,5.59s-4.285,7.758-6.45,9.708c-1.855,1.671-8.85,4.633-8.85,4.633s-2.032-11.53-5.424-15.394C627.094,1891.59,626.965,1887.81,628.543,1878.806Z" fill="#002b6a"/>
          <path id="パス_4390" data-name="パス 4390" d="M624.05,1851.7l-3.2,2.127-1.528,5.066-3.769,22.109,1.35,2.837,13.147,4.6s2.158.48,2.567-.114a6.525,6.525,0,0,0,.974-2.205l-12.005-6.806,2.692-12.6s2.783-5.053,3.18-8.733A5.74,5.74,0,0,0,624.05,1851.7Z" fill="#f8a773"/>
          <g id="グループ_2989" data-name="グループ 2989">
            <path id="パス_4391" data-name="パス 4391" d="M653.72,1893.313l-7.239,7.239-14.125-9.711,23.13-12.183,15.361,8.475Z" fill="#fff"/>
            <path id="パス_4392" data-name="パス 4392" d="M646.355,1900.735l10.72-20.665,23.66-13.066-9.888,20.128Z" fill="#bffffb"/>
            <path id="パス_4393" data-name="パス 4393" d="M645.932,1900.175c-.065-.045,10.564-20.475,10.564-20.475l.579.371-10.594,20.481Z" fill="#85e1dd"/>
            <path id="パス_4394" data-name="パス 4394" d="M680.735,1867.005l-.807-.481L656.5,1879.7l.579.37Z" fill="#fff"/>
            <path id="パス_4395" data-name="パス 4395" d="M646.481,1900.552s-.329.861-1.651.026l-12.474-8.994v-.743Z" fill="#85e1dd"/>
          </g>
          <path id="パス_4396" data-name="パス 4396" d="M656.675,1871.231s-2.123-.33-5.14,3.215a18.515,18.515,0,0,1-6.119,4.937l1.531,2.979s8.474-2.175,10.587-5.333C659.536,1874.041,658.227,1870.88,656.675,1871.231Z" fill="#f8a773"/>
          <path id="パス_4397" data-name="パス 4397" d="M630.823,1885.11l2.769.42s5.287.349,5.827,1.892a36.351,36.351,0,0,1,1.381,5.125l-2.792.465-2.989-2.3-3.107-.854-4-3.038Z" fill="#f8a773"/>
          <path id="パス_4398" data-name="パス 4398" d="M638,1827.755c0,9.464-1.552,14.281-5.536,17.548-6.563,5.405.092,11.611.092,11.611s-17.452-2.253-10.349-16.372c4.765-9.466,1.08-15.031,9.993-19.122,4.713-2.171,14.681.079,10.9,3.995C643.1,1825.415,638,1823.514,638,1827.755Z" fill="#f1e7b2"/>
          <path id="パス_4399" data-name="パス 4399" d="M649.849,1878.4l-4.433.982-2.448,4.488-.143,2.3,2,2.093,3.091-1.251a8.119,8.119,0,0,0,1.808-2.252c.3-.995,2.058-5.447,2.058-5.447Z" fill="#f8a773"/>
        </g>
      </g>
    </g>
  </g>
</svg>
