<svg xmlns="http://www.w3.org/2000/svg" width="163" height="174.766" viewBox="0 0 163 174.766">
  <g id="グループ_4312" data-name="グループ 4312" transform="translate(-972 -1812.234)">
    <circle id="楕円形_120" data-name="楕円形 120" cx="81.5" cy="81.5" r="81.5" transform="translate(972 1824)" fill="#e25aa4" opacity="0.3"/>
    <g id="グループ_3086" data-name="グループ 3086">
      <path id="パス_4600" data-name="パス 4600" d="M1059.936,1961.488c-2.723,1.658-11.83,2.973-18.948-4.145-4.737-4.737,3.553-11.25,3.553-11.25,11.843-9.474,19.3-9.712,26.053-2.96C1074.739,1947.277,1073.555,1953.2,1059.936,1961.488Z" opacity="0.13"/>
      <g id="グループ_3085" data-name="グループ 3085">
        <path id="パス_4601" data-name="パス 4601" d="M1050.961,1835.512l3.3-.827,5.987,2.309,2.473,5.073,1.584,19.555Z" fill="#1a3554"/>
        <path id="パス_4602" data-name="パス 4602" d="M1053.654,1948.063l3.4,4.3,4.891,3.358-.05,2.095s-2.356,2.728-3.141,3.055l-5.69-.65-5.335-4.708-3.575-2.332.088-3.715Z" fill="#1a3554"/>
        <path id="パス_4603" data-name="パス 4603" d="M1053.061,1945.695l4.579.109,5.485,2.032,5.36.365,1.374-2.733-1.31-3.238-4.228-1.1-5.708-3.519s-7.093.177-7.1.523-.121,5.1-.121,5.1l-.054,2.246Z" fill="#1a3554"/>
        <path id="パス_4604" data-name="パス 4604" d="M1057.523,1899.717l-.36,15.192-2.315,34.449-5.265,2.652-6.161-.838c.093-.257-.277-27.021-.277-27.021l1.38-8.509-3.7-33.694,14.394,1.785Z" fill="#152a3f"/>
        <path id="パス_4605" data-name="パス 4605" d="M1035.411,1851.483c.011-.346-1.986-7.327-1.986-7.327l5.145-5.479,14.781-3.019,5.775,2.946s4.107,6.277,4.444,6.631,2.813,12.6,2.813,12.6l.5,33.733s-10.863,2.414-10.611,2.716-16.227-1.049-16.227-1.049l-.219-8.973Z" fill="#152a3f"/>
        <path id="パス_4606" data-name="パス 4606" d="M1038.57,1838.677c-.195.947-.61,3.876-.61,3.876s5.379,2.807,5.64,2.727,3.479-.868,3.386-.611-.135,5.789-.135,5.789l9.285,11.934s3.783,9.2,3.8,8.537,1.228-11.684,1.228-11.684L1059.4,1846l-3.378-4.187,1.674-.522s-2.422-3.6-2.674-3.908a14.99,14.99,0,0,0-2.827-1.063Z" fill="#1a3554"/>
        <path id="パス_4607" data-name="パス 4607" d="M1066.089,1886.85c-.094.343-1.6,23.562-1.6,23.562s-1.622,6.442-1.628,6.659-2.757,21.5-2.757,21.5l-2.3,2.193-3.974-.094s.882-51.769,1.136-51.543S1066.089,1886.85,1066.089,1886.85Z" fill="#152a3f"/>
        <path id="パス_4608" data-name="パス 4608" d="M1040.413,1836.456l1.681-.938-1.158,1.614Z" fill="#dcffff"/>
        <g id="グループ_3081" data-name="グループ 3081">
          <path id="パス_4609" data-name="パス 4609" d="M1051.7,1834.674a21.093,21.093,0,0,1,.292,2.235l2.655,4.411-14.614-2.922,2.4-3.346c-.165-1.231-.327-2.476-.365-2.685a8.892,8.892,0,0,0,1.516-1.125S1051.16,1834.776,1051.7,1834.674Z" fill="#f89c69"/>
          <path id="パス_4610" data-name="パス 4610" d="M1053.742,1818.67c-.676.948-5.082-.8-6.194-.266-1.566.718-4.507,5.034-4.507,5.034l-1.371,3.076s-2.436,1.289-1.8,2.522c.5.973,1.371,3.151,2.422,3.209a1.041,1.041,0,0,0,.7-.278c.3.645,1,2.173,1,2.173l7.317,2.028,3.451-1.781.113-10.056S1053.885,1819.06,1053.742,1818.67Z" fill="#fbb686"/>
          <path id="パス_4611" data-name="パス 4611" d="M1043.988,1823.669l.691,3.364-.989.942.368,3a10.229,10.229,0,0,1-1.153-.57c-.3-.953-.573-2.067-.79-2.6-.284-.2-1.452.141-1.452.141l-.539,1.017s1.116,3.227,2.166,3.285c.072.4.2,1.208.2,1.208l-1.174-.36-.922-1.46a82.747,82.747,0,0,1-4.889-7.735l-.65-5.146Z" fill="#11487f"/>
          <path id="パス_4612" data-name="パス 4612" d="M1046.671,1821.018s-2.543,2.688-2.683,2.651c-3.238-.616-6.4-3.009-9.133-4.917a19.07,19.07,0,0,1,2.475-3.6c.942-.944,6.774-3.013,8.5-2.911h.013c.759.1,3.375.527,3.893.563-.27-.009,5.041,3.8,5.145,3.81l-1.032,2.479Z" fill="#002b6a"/>
        </g>
        <path id="パス_4613" data-name="パス 4613" d="M1062.615,1878.235c.05.529-.238,10.022-.238,10.022l.953,7.2-5.741,1.5-.218-21.7Z" fill="#94e5ed"/>
        <path id="パス_4614" data-name="パス 4614" d="M1038.63,1838.561l1.355,1.694,7.043,2.66,7.068,8.171,4.348,9.848-.46-12.606-2.722-6.351-2.914-4.656-.077,3.226-10.491-2.325-1.366-1.765Z" fill="#fff"/>
        <path id="パス_4615" data-name="パス 4615" d="M1053.272,1842.05l-3.456-.082.421,4.121,1.195.674,3.007-2.868,2.406.618a22.3,22.3,0,0,0-1.291-3.889l-1.017-.876Z" fill="#ff1f4b"/>
        <path id="パス_4616" data-name="パス 4616" d="M1060.639,1874.039c.348-.081,2.769-.108,2.769-.108l-.659-1.341.348-3.766-.677-2.446.507-1.311,1.382.033s.507.522.5.674-.055,2.311-.055,2.311l1.077,2s1.573-.724,1.665-.981a25.846,25.846,0,0,0,.062-2.6l8.137-.468-.038,1.62-5.438,4.021-4.392,5.862-1.549.827-5.645-.049.864-3.6Z" fill="#fbb686"/>
        <path id="パス_4617" data-name="パス 4617" d="M1031.694,1849.509l3.585,29.468,3.1,2.4,23.328-1.529.766-6.8-18.886-1.944.149-15.332-2.175-8.575-8.14-3.046Z" fill="#1a3554"/>
        <path id="パス_4618" data-name="パス 4618" d="M1060.929,1873.682l-2.252,29.366s-10.155.786-10.412.694-6.931-3.017-6.931-3.017l.384-25.4,2.314-3.183,2.516-.891,6.956,1.116,2.678.063,5.693.517Z" fill="#fff"/>
        <path id="パス_4619" data-name="パス 4619" d="M1045.357,1854.9l.377,1.811,3.822-1.352-.539-1.3Z" fill="#fff"/>
        <g id="グループ_3084" data-name="グループ 3084">
          <g id="グループ_3082" data-name="グループ 3082">
            <ellipse id="楕円形_126" data-name="楕円形 126" cx="7.077" cy="13.718" rx="7.077" ry="13.718" transform="translate(1055.948 1868.079) rotate(-88.641)" fill="#94e5ed"/>
            <path id="パス_4620" data-name="パス 4620" d="M1069.653,1868.81a22.113,22.113,0,0,1-9.874-2.362c-2.7-1.476-4.165-3.414-4.117-5.455s1.6-3.906,4.371-5.253a24.229,24.229,0,0,1,19.849.471c2.7,1.476,4.165,3.414,4.117,5.455s-1.6,3.906-4.371,5.253A22.132,22.132,0,0,1,1069.653,1868.81Zm.453-14.371a21.139,21.139,0,0,0-9.519,1.793c-2.473,1.2-3.976,3.044-4.017,4.783s1.266,3.423,3.68,4.741a23.238,23.238,0,0,0,18.941.45c2.473-1.2,3.859-2.823,3.9-4.562s-1.149-3.644-3.563-4.963A21.128,21.128,0,0,0,1070.106,1854.439Z" fill="#dcffff"/>
            <path id="パス_4621" data-name="パス 4621" d="M1080.664,1861.211c-.034,1.432-1.126,2.835-3.263,3.876a18.756,18.756,0,0,1-15.309-.363c-2.09-1.142-3.114-2.595-3.08-4.027.127-5.342,5.079-9.56,11.058-9.418S1080.791,1855.868,1080.664,1861.211Z" fill="#dcffff"/>
            <path id="パス_4622" data-name="パス 4622" d="M1080.048,1861.125a8.921,8.921,0,0,0-8.8-9.1c5.506,2.86,7.229,6.868,6.891,11.784A3.512,3.512,0,0,0,1080.048,1861.125Z" fill="#fff"/>
          </g>
          <g id="グループ_3083" data-name="グループ 3083">
            <path id="パス_4623" data-name="パス 4623" d="M1070.716,1850.729l-1.269-.03-.024.985c0,.084.058.169.18.236a1.1,1.1,0,0,0,.9.021c.125-.06.189-.143.191-.226h0Z" fill="#94e5ed"/>
            <path id="パス_4624" data-name="パス 4624" d="M1071.243,1850.373a1.154,1.154,0,1,1-1.125-1.2A1.165,1.165,0,0,1,1071.243,1850.373Z" fill="#dcffff"/>
            <path id="パス_4625" data-name="パス 4625" d="M1070.887,1849.778c.162.218.182.46.045.541s-.379-.03-.542-.249-.182-.461-.045-.542S1070.724,1849.559,1070.887,1849.778Z" fill="#fff"/>
          </g>
        </g>
      </g>
    </g>
  </g>
</svg>
