<svg xmlns="http://www.w3.org/2000/svg" width="159.306" height="54.682" viewBox="0 0 159.306 54.682">
  <g id="グループ_4327" data-name="グループ 4327" transform="translate(-15.177 -2005.977)">
    <g id="グループ_2677" data-name="グループ 2677" transform="translate(-1526)">
      <path id="パス_3483" data-name="パス 3483" d="M1553.183,2022.109h3.533c1.655,0,3.31-.049,4.99-.1.272-.025.4.1.4.4.024.643.024,1.334,0,1.977,0,.321-.075.444-.371.444-1.186-.049-3.385-.1-4.99-.1h-9.931c-1.013,0-2.619.074-4.546.1-.4.025-.445-.074-.519-.494a14.377,14.377,0,0,1-.173-2.322c1.779.1,3.657.124,5.238.124h3.359v-8.449h-1.926c-1.779,0-2.817.049-3.829.1-.3.024-.347-.149-.421-.519a13.8,13.8,0,0,1-.2-2.3,41.821,41.821,0,0,0,4.273.1h6.992c1.507,0,2.865,0,4.323-.074.247-.025.321.124.321.4.025.618.025,1.31,0,1.927-.024.321-.074.47-.346.47-1.655-.075-2.865-.1-4.249-.1h-1.927Z" fill="#1482ca"/>
      <path id="パス_3484" data-name="パス 3484" d="M1566.916,2009.782a.461.461,0,0,1,.346-.2.652.652,0,0,1,.321.124,25.745,25.745,0,0,1,4.719,3.507c.148.149.222.247.222.346a.524.524,0,0,1-.149.321c-.37.494-1.185,1.483-1.531,1.853-.123.124-.2.2-.3.2s-.2-.074-.32-.2a26.227,26.227,0,0,0-5.04-4.027C1565.73,2011.042,1566.447,2010.276,1566.916,2009.782Zm2.149,13.019a36.646,36.646,0,0,0,7.115-4.595,37.123,37.123,0,0,0,6.769-6.72,10.982,10.982,0,0,0,.692,2.89,1.218,1.218,0,0,1,.123.47c0,.222-.123.42-.4.741a40.324,40.324,0,0,1-5.682,5.237,53.078,53.078,0,0,1-7.46,4.842,8.473,8.473,0,0,0-1.656,1.137.682.682,0,0,1-.445.247.64.64,0,0,1-.419-.272,17.13,17.13,0,0,1-1.977-2.742A14.884,14.884,0,0,0,1569.065,2022.8Z" fill="#1482ca"/>
      <path id="パス_3485" data-name="パス 3485" d="M1600.56,2010.671a2.414,2.414,0,0,0,1.358-.371.725.725,0,0,1,.42-.173.859.859,0,0,1,.445.2,7.986,7.986,0,0,1,1.679,1.507.6.6,0,0,1,.2.445.633.633,0,0,1-.271.469,3.116,3.116,0,0,0-.742.939,38.5,38.5,0,0,1-3.631,5.978,22.07,22.07,0,0,1,2.668,2.495.488.488,0,0,1,.148.346.475.475,0,0,1-.148.321,15.2,15.2,0,0,1-1.532,1.557.511.511,0,0,1-.3.123.429.429,0,0,1-.272-.148,27.305,27.305,0,0,0-2.4-2.4,30.116,30.116,0,0,1-7.881,6.176,1.348,1.348,0,0,1-.618.222.744.744,0,0,1-.469-.222,7,7,0,0,0-2.346-1.26,29.96,29.96,0,0,0,9.09-6.695,20.616,20.616,0,0,0-3.557-2.322c.544-.593,1.062-1.235,1.631-1.754a.463.463,0,0,1,.32-.173.624.624,0,0,1,.247.1,24.675,24.675,0,0,1,3.187,1.976,23.766,23.766,0,0,0,2.891-4.891l-6.127.123a29.821,29.821,0,0,1-5.286,5.559.891.891,0,0,1-.495.222.565.565,0,0,1-.4-.173,10.269,10.269,0,0,0-2.075-1.136,27.555,27.555,0,0,0,6.991-7.757,9.094,9.094,0,0,0,1.334-3.039,15.541,15.541,0,0,1,2.891,1.21.435.435,0,0,1,.271.4.667.667,0,0,1-.3.494,2.074,2.074,0,0,0-.519.519c-.2.345-.346.592-.766,1.235Z" fill="#1482ca"/>
      <path id="パス_3486" data-name="パス 3486" d="M1620.123,2011.091a11.5,11.5,0,0,0,.939-3.039,12.062,12.062,0,0,1,3.112,1.557.514.514,0,0,1,.247.42.728.728,0,0,1-.272.543,5.423,5.423,0,0,0-1.111,1.655,48.7,48.7,0,0,1-2.816,4.892,28.688,28.688,0,0,1,3.631,3.36.531.531,0,0,1,.148.345.662.662,0,0,1-.123.322c-.494.642-.988,1.185-1.507,1.753a.382.382,0,0,1-.3.173c-.123,0-.222-.074-.345-.222a25.346,25.346,0,0,0-3.237-3.261,32.411,32.411,0,0,1-8.449,7.708,1.125,1.125,0,0,1-.567.2.691.691,0,0,1-.47-.173,7.2,7.2,0,0,0-2.223-1.358,30.192,30.192,0,0,0,9.313-8.1,27.062,27.062,0,0,0-4.817-2.94c.716-.914,1.309-1.68,1.63-2.026a.344.344,0,0,1,.247-.123.7.7,0,0,1,.3.1,36.955,36.955,0,0,1,4.3,2.593A29.275,29.275,0,0,0,1620.123,2011.091Z" fill="#1482ca"/>
      <path id="パス_3487" data-name="パス 3487" d="M1635.583,2029.471h-1.557l10.055-23.494h1.556Z" fill="#1482ca"/>
      <path id="パス_3488" data-name="パス 3488" d="M1555.16,2043.515a2.3,2.3,0,0,0,1.235-.3.5.5,0,0,1,.321-.1.717.717,0,0,1,.4.149,11.309,11.309,0,0,1,1.68,1.334.8.8,0,0,1,.321.568.711.711,0,0,1-.3.518,2.984,2.984,0,0,0-.816,1.063,34.047,34.047,0,0,1-4.891,7.633,31.351,31.351,0,0,1-7.51,6.152.67.67,0,0,1-.4.123.868.868,0,0,1-.568-.272,6.516,6.516,0,0,0-2.347-1.136,28.456,28.456,0,0,0,8.226-6.3,25.125,25.125,0,0,0,4.57-7.015l-5.978.172a34.346,34.346,0,0,1-4.669,5.065.767.767,0,0,1-.519.271.59.59,0,0,1-.37-.148,6.722,6.722,0,0,0-2.372-1.062,29.307,29.307,0,0,0,6.646-7.337,10.563,10.563,0,0,0,1.457-3.335,12.154,12.154,0,0,1,2.89,1.309.516.516,0,0,1,.247.42.492.492,0,0,1-.271.42,2.685,2.685,0,0,0-.618.667c-.272.42-.519.791-.815,1.235Z" fill="#1482ca"/>
      <path id="パス_3489" data-name="パス 3489" d="M1565.137,2043.935a16.884,16.884,0,0,0-.272-3.607,18.362,18.362,0,0,1,3.064.518c.3.075.42.223.42.4a1.043,1.043,0,0,1-.1.37,5.674,5.674,0,0,0-.272,2.347v4.99c0,1.285.049,2.249.074,3.113,0,.371-.148.494-.543.494h-1.977c-.345,0-.494-.123-.469-.42,0-.865.074-2.3.074-3.36Zm11.635,4.619c0,3.656-.543,6.1-2,8.054a12.749,12.749,0,0,1-5.434,3.878,1.572,1.572,0,0,1-.519.124.8.8,0,0,1-.593-.3,8.029,8.029,0,0,0-2.1-1.507,12.06,12.06,0,0,0,6.028-3.607c1.137-1.407,1.655-3.458,1.655-6.595v-4.669a18.17,18.17,0,0,0-.271-4.027,15.456,15.456,0,0,1,3.211.543.415.415,0,0,1,.346.42.787.787,0,0,1-.1.4,7.413,7.413,0,0,0-.223,2.692Z" fill="#1482ca"/>
      <path id="パス_3490" data-name="パス 3490" d="M1593.815,2054.409h3.533c1.655,0,3.311-.049,4.99-.1.272-.025.4.1.4.4.024.643.024,1.335,0,1.977,0,.321-.074.444-.371.444-1.186-.049-3.384-.1-4.99-.1h-9.931c-1.013,0-2.619.074-4.546.1-.4.025-.444-.074-.519-.494a14.52,14.52,0,0,1-.172-2.322c1.778.1,3.656.124,5.237.124h3.36v-8.449h-1.927c-1.779,0-2.816.049-3.829.1-.3.024-.346-.148-.421-.519a13.79,13.79,0,0,1-.2-2.3,42.14,42.14,0,0,0,4.274.1h6.991c1.507,0,2.866,0,4.323-.074.247-.024.321.124.321.4.025.617.025,1.309,0,1.926-.024.322-.074.47-.345.47-1.656-.074-2.866-.1-4.249-.1h-1.928Z" fill="#1482ca"/>
      <path id="パス_3491" data-name="パス 3491" d="M1617.85,2054.78c0,1.7.024,3.162.073,5.138.025.321-.1.42-.37.42a20.739,20.739,0,0,1-2.47,0c-.272,0-.371-.1-.346-.395.024-1.779.1-3.385.1-5.065v-5.756a42.689,42.689,0,0,1-6.793,4.743.7.7,0,0,1-.371.1.692.692,0,0,1-.519-.247,9.233,9.233,0,0,0-2.124-1.457,39.644,39.644,0,0,0,7.782-5.065,40.1,40.1,0,0,0,5.262-5.163,7.155,7.155,0,0,0,1.556-2.544,21.8,21.8,0,0,1,2.742,1.729.436.436,0,0,1,.2.371.708.708,0,0,1-.346.543,8.125,8.125,0,0,0-1.482,1.359,39.516,39.516,0,0,1-2.89,3.113Z" fill="#1482ca"/>
      <path id="パス_3492" data-name="パス 3492" d="M1640.253,2042.971a2.424,2.424,0,0,0,1.359-.37.721.721,0,0,1,.42-.174.858.858,0,0,1,.445.2,7.988,7.988,0,0,1,1.679,1.507.6.6,0,0,1,.2.445.633.633,0,0,1-.271.469,3.1,3.1,0,0,0-.742.939,38.448,38.448,0,0,1-3.632,5.978,22.031,22.031,0,0,1,2.669,2.5.488.488,0,0,1,.148.346.474.474,0,0,1-.148.321,15.222,15.222,0,0,1-1.532,1.557.513.513,0,0,1-.3.123.426.426,0,0,1-.272-.148,27.322,27.322,0,0,0-2.4-2.4,30.128,30.128,0,0,1-7.881,6.176,1.347,1.347,0,0,1-.618.222.742.742,0,0,1-.469-.222,6.987,6.987,0,0,0-2.347-1.26,29.947,29.947,0,0,0,9.091-6.7,20.581,20.581,0,0,0-3.557-2.322c.544-.593,1.062-1.235,1.63-1.754a.467.467,0,0,1,.321-.173.628.628,0,0,1,.247.1,24.661,24.661,0,0,1,3.187,1.976,23.789,23.789,0,0,0,2.89-4.891l-6.126.123a29.791,29.791,0,0,1-5.287,5.559.887.887,0,0,1-.494.222.569.569,0,0,1-.4-.173,10.218,10.218,0,0,0-2.075-1.136,27.539,27.539,0,0,0,6.991-7.757,9.1,9.1,0,0,0,1.334-3.039,15.443,15.443,0,0,1,2.89,1.211.432.432,0,0,1,.272.4.667.667,0,0,1-.3.494,2.071,2.071,0,0,0-.519.518c-.2.347-.346.593-.766,1.236Z" fill="#1482ca"/>
      <path id="パス_3493" data-name="パス 3493" d="M1652.874,2051.766a19.8,19.8,0,0,0-3.632.3c-.3,0-.494-.148-.568-.519a26.725,26.725,0,0,1-.371-2.989,31.739,31.739,0,0,0,5.337.3h7.954c1.878,0,3.78-.05,5.682-.075.37-.024.445.05.445.346a18.331,18.331,0,0,1,0,2.322c0,.3-.1.4-.445.371-1.853-.025-3.681-.049-5.509-.049Z" fill="#1482ca"/>
    </g>
    <g id="グループ_2712" data-name="グループ 2712" transform="translate(-1526)">
      <path id="パス_3755" data-name="パス 3755" d="M1689.406,2041.937l10.258,7.915-10.258,7.915" fill="none" stroke="#1482ca" stroke-miterlimit="10" stroke-width="1"/>
      <line id="線_79" data-name="線 79" x1="17.1" transform="translate(1683.039 2049.852)" fill="none" stroke="#1482ca" stroke-miterlimit="10" stroke-width="1"/>
    </g>
  </g>
</svg>
