<svg xmlns="http://www.w3.org/2000/svg" width="340" height="62" viewBox="0 0 340 62">
  <g id="グループ_4325" data-name="グループ 4325" transform="translate(-18 -2386)">
    <g id="パス_3472" data-name="パス 3472" transform="translate(-1526)" fill="none" stroke-miterlimit="10">
      <path d="M1544,2428v-42h340v42l-174.072,20Z" stroke="none"/>
      <path d="M 1709.930908203125 2446.9931640625 L 1883 2427.1083984375 L 1883 2387 L 1545 2387 L 1545 2427.11328125 L 1709.930908203125 2446.9931640625 M 1709.928100585938 2448 L 1544 2428 L 1544 2386 L 1884 2386 L 1884 2428 L 1709.928100585938 2448 Z" stroke="none" fill="#e25aa4"/>
    </g>
    <g id="グループ_2837" data-name="グループ 2837" transform="translate(-1526)">
      <path id="パス_3956" data-name="パス 3956" d="M1578.713,2413.85a2.478,2.478,0,0,0-1.261,2.04c-.019.3-.04.64-.54.64-1.08,0-3.8-1.62-5.2-3.64a12.487,12.487,0,0,1-1.54-3.381h-.04v7.161c0,.32-.021.48-.38.5l-1.621.1c-.359.019-.42-.021-.42-.541v-5.321a18.635,18.635,0,0,1-8,5.041l-.061-.06a23.471,23.471,0,0,0,5.242-5,15.043,15.043,0,0,0,1.22-1.88h-1.52v.559c0,.241-.021.521-.42.54l-1.561.1c-.5.04-.5-.08-.5-.46v-7.462c.58.14,2.2.54,2.861.76h2.74v-2.2h-7.481l-.1-.241h7.581v-2.4c.52.021,2.36.141,2.681.181.3.019.36.059.36.139,0,.18-.34.26-.62.321v1.759h4.3l1.18-1.54c.18-.219.18-.259.24-.259a10.743,10.743,0,0,1,2.3,1.88c0,.16-.139.16-.259.16h-7.762v2.2h2.98l.641-.859c.279-.361.359-.361.439-.361.241,0,2.4,1.46,2.4,1.8,0,.32-.66.6-.78.641v5.041c0,.36,0,.54-.46.58l-1.5.12c-.521.04-.521-.12-.521-.481v-.519h-2.98c1.26,2.08,4.561,3.881,8.362,4.3Zm-11-7.482v-2.581h-3.12v2.581Zm0,2.92v-2.681h-3.12v2.681Zm2.421-5.5v2.581h3.2v-2.581Zm0,2.82v2.681h3.2v-2.681Z" fill="#d40e64"/>
      <path id="パス_3957" data-name="パス 3957" d="M1596.231,2401.267l1.161-1.621c.1-.139.179-.219.259-.219a13.516,13.516,0,0,1,2.221,1.92c0,.16-.14.16-.26.16h-18.084l-.1-.24h7.962v-2.661c.42.02,2.32.2,2.781.241.14.019.42.04.42.219,0,.161-.08.18-.641.3v1.9Zm-14.8,14.663a18.534,18.534,0,0,0,4-5.681,15.713,15.713,0,0,1,2.961,1.58c0,.14-.161.14-.26.14a2.158,2.158,0,0,1-.38-.06,18.2,18.2,0,0,1-6.3,4.061Zm10.522-.7c0,.741,0,1.941-2.9,1.941-.2,0-.54,0-.54-.2,0-1.38,0-1.84-2-2.641v-.079c1.66.1,1.84.119,2.28.119.6,0,.6-.2.6-.5v-5.041h-2.641v.46c0,.32-.02.441-.359.461l-1.681.1c-.46.019-.46-.161-.46-.521v-6.441c.12.04,2.561.64,2.82.7h7.382l.72-1.02c.141-.2.2-.3.32-.3a13.661,13.661,0,0,1,2.361,1.64.485.485,0,0,1,.04.16c0,.22-.52.481-.821.621v4.34c0,.4,0,.561-.319.58l-1.761.1c-.4.02-.4-.141-.4-.421v-.46h-2.641Zm-5.2-11.421v4.78h7.842v-4.78Zm6.222,6.781c.5.12,5.781,1.4,5.781,3.8a1.52,1.52,0,0,1-1.54,1.62.7.7,0,0,1-.761-.48,14.922,14.922,0,0,0-3.52-4.9Z" fill="#d40e64"/>
      <path id="パス_3958" data-name="パス 3958" d="M1613.951,2405.527c0,.2-.36,1.08-.38,1.261-.12.68-.36,3.78-.48,4.481,2.82-.2,3.14-.22,3.741-.32a2.757,2.757,0,0,0,1.24-.56c.34.179,1.88.84,2.18,1.02.62.36.82.62.82,1a.831.831,0,0,1-.82.88,9.891,9.891,0,0,1-1.88-.319,14,14,0,0,0-3.341-.4c-2.32,0-7.842.56-8.4.941-.521.34-.681.46-.86.46-.6,0-2.421-1.321-2.421-2.581a2.037,2.037,0,0,1,.46-1.18c.4,1.28,1.26,1.4,2.28,1.4,1.6,0,3.621-.12,4.981-.22.061-.88.12-3.66.12-4.681a2.906,2.906,0,0,0-.58-2.061,10.907,10.907,0,0,0-1.961.42,4.009,4.009,0,0,1-.9.3c-.62,0-1.94-1.12-1.94-1.86a2.22,2.22,0,0,1,.559-1.34,1.781,1.781,0,0,0,1.66,1.26c.241,0,5.222-.38,6.6-.64a3.486,3.486,0,0,0,1.421-.641c.34.181,1.88.841,2.16,1.021a.856.856,0,0,1,.44.7c0,.54-.5.62-.76.62-.36,0-2.861-.139-3.4-.139a15.333,15.333,0,0,0-1.74.08C1612.951,2404.508,1613.951,2404.968,1613.951,2405.527Z" fill="#d40e64"/>
      <path id="パス_3959" data-name="パス 3959" d="M1625.969,2416.43a11.154,11.154,0,0,0,4.781-6.721,16.262,16.262,0,0,0,.681-3.861.657.657,0,0,0-.7-.76c-.12,0-.2.019-.6.059a1.729,1.729,0,0,1,1.7-1.04c.54,0,2.561.521,2.561,1.081,0,.06-.18.7-.26.98a15.7,15.7,0,0,0,2.921-4.121c-2.2.16-6.7.56-8.523,1.3-1.059.42-1.179.46-1.479.46a3.027,3.027,0,0,1-2.442-2.4c0-.52.2-.72.681-1.2a2.3,2.3,0,0,0,1.88,1.5c.52,0,9.263-.66,9.4-.681a3.33,3.33,0,0,0,1.08-.46,1.1,1.1,0,0,1,.521-.179c.72,0,2.4,1.84,2.4,2.7,0,.46-.259.46-1.44.5a29.231,29.231,0,0,1-5.081,2.841c-.92,3.381-1.16,4.26-2.061,5.7a10.128,10.128,0,0,1-6.021,4.381Z" fill="#d40e64"/>
      <path id="パス_3960" data-name="パス 3960" d="M1654.231,2408.628a1.337,1.337,0,0,1-1.339,1.461c-.6,0-.84-.36-1.561-1.381a8.971,8.971,0,0,0-3.32-2.7c-.04,2.1,0,3.6.04,4.52.019.7.38,3.761.38,4.382,0,.72-.2,2.1-1.321,2.1s-1.5-1.62-1.68-2.8c.52-1.661.6-5.622.6-7.582,0-.66-.04-4.982-.179-5.6a1.019,1.019,0,0,0-1.081-.759,2.053,2.053,0,0,0-.621.1,2.522,2.522,0,0,1,1.921-1.34c.8,0,2.5.281,2.5,1.281,0,.24-.319,1.219-.359,1.42-.12.72-.181,3-.181,3.9C1651.411,2405.768,1654.231,2406.808,1654.231,2408.628Z" fill="#d40e64"/>
      <path id="パス_3961" data-name="パス 3961" d="M1657.59,2416.73a15.164,15.164,0,0,0,11-10.642,42.749,42.749,0,0,0-7.661,1.58,6.284,6.284,0,0,1-1.041.38c-.6,0-2.46-1.28-2.46-2.28a2.492,2.492,0,0,1,.54-1.3,1.817,1.817,0,0,0,1.94,1.22c.481,0,7.741-.361,8.782-.9.18-.08.84-.76,1.02-.76.28,0,2.4,1.42,2.4,2.04,0,.341-.34.54-1,.941-1.219,3.261-4.1,9.1-13.5,9.782Zm4.8-16.063c1.5,0,3.84-.24,5-1.1.5.1,2.32.68,2.32,1.361a1.136,1.136,0,0,1-.6.92c-.48.12-6.161.56-6.662.56-1.92,0-2.34-1.04-2.88-2.4A4.429,4.429,0,0,0,1662.391,2400.667Z" fill="#d40e64"/>
      <path id="パス_3962" data-name="パス 3962" d="M1677.329,2406.668c.6,0,1.74-.9,4.621-3.2.5-.4.761-.52.981-.52.42,0,.78.321,1.52.96a40.56,40.56,0,0,0,8.222,5.7,2.833,2.833,0,0,1,1.44,2.281,1.214,1.214,0,0,1-1.121,1.24c-1.7,0-6.9-5.2-9.361-7.7-.521-.54-.58-.6-.78-.6-.621,0-3.8,3.9-4.041,4.4-.281.56-.34.679-.661.679-.219,0-.46,0-1.42-.979a3.035,3.035,0,0,1-1-1.981,2.481,2.481,0,0,1,.48-1.341C1676.509,2406.328,1676.989,2406.668,1677.329,2406.668Zm13.8-2.82a.847.847,0,0,1-.86.92c-.44,0-.5-.1-.96-.821a6.922,6.922,0,0,0-2.021-2.08C1690.652,2401.987,1691.132,2403.228,1691.132,2403.848Zm-1-4.081c1.52,0,3.041.42,3.041,1.66a.915.915,0,0,1-.82,1c-.321,0-.34-.02-.981-.861a5.9,5.9,0,0,0-2.32-1.74A8.337,8.337,0,0,1,1690.132,2399.767Z" fill="#d40e64"/>
      <path id="パス_3963" data-name="パス 3963" d="M1696.629,2415.63a13.37,13.37,0,0,0,4.8-9.822c0-.38,0-1.26-1.421-1.18.82-.721,1.18-1,1.761-1,.94,0,2.44.94,2.44,1.48a.981.981,0,0,1-.24.561c-.58,4.581-2.361,7.541-7.341,10Zm19.784-12.783a18.4,18.4,0,0,1-6.962,9.682,4.336,4.336,0,0,0-1.3,1.26c-.18.36-.26.521-.6.521-.561,0-1.96-2.121-1.96-2.541a8.1,8.1,0,0,1,.239-1,21.854,21.854,0,0,0,.16-3.221,38.726,38.726,0,0,0-.179-4.681,1.2,1.2,0,0,0-1.321-.9c.8-.74,1.08-1.021,1.641-1.021a2.927,2.927,0,0,1,2.46,1.661,7.885,7.885,0,0,1-.4.84c-.219.54-.2,6.8-.179,6.862a23.309,23.309,0,0,0,8.382-7.5Z" fill="#d40e64"/>
      <path id="パス_3964" data-name="パス 3964" d="M1722.771,2407.948a1.72,1.72,0,1,1-1.72-1.72A1.721,1.721,0,0,1,1722.771,2407.948Z" fill="#d40e64"/>
      <path id="パス_3965" data-name="パス 3965" d="M1731.909,2411.148c0,1.561-.76,3.482-2.74,3.482a1.247,1.247,0,0,1-1.32-1.24c0-.62.36-.841,1.18-1.341a5.494,5.494,0,0,0,2.46-3.521A8.3,8.3,0,0,1,1731.909,2411.148Zm.62,1.641a11.564,11.564,0,0,0,1.822.3c.46,0,.58-.26.639-1,.08-.78.16-4.041.16-6.261a20.8,20.8,0,0,0-3.88.8c-.081.019-1,.28-1.1.28a2.56,2.56,0,0,1-2.04-2.24,1.469,1.469,0,0,1,.32-.98,2.9,2.9,0,0,0,2.521,1.16c.5,0,.7-.021,4.18-.34a13.578,13.578,0,0,0-.32-3.482c-.14-.219-.54-.5-1.4-.479.4-.521.98-1.261,1.8-1.261.68,0,2.241.7,2.241,1.3a7.408,7.408,0,0,1-.38.92c-.08.32-.08,2.221-.08,2.8,2.3-.321,3.24-.5,3.741-1.241a7.484,7.484,0,0,1,2.72.941.787.787,0,0,1,.48.72.852.852,0,0,1-.82.9c-.08,0-1.22-.141-1.34-.16a15.172,15.172,0,0,0-1.721-.16c-.96,0-2.58.2-3.06.259,0,3.562,0,4.562.12,6.162.019.3.14,1.64.14,1.92,0,1.281-.88,2.8-1.941,2.8-.5,0-.559-.24-.78-1.06a3.719,3.719,0,0,0-2.021-2.521Zm11.784-.1a1.556,1.556,0,0,1-1.561,1.76c-.88,0-1.04-.7-1.181-1.36a11.32,11.32,0,0,0-2.66-5.081C1740.312,2408.568,1744.313,2410.148,1744.313,2412.689Z" fill="#d40e64"/>
      <path id="パス_3966" data-name="パス 3966" d="M1749.39,2416.79c6.561-3.98,6.821-9.122,6.821-9.322a1.122,1.122,0,0,0-.32-.8,20.946,20.946,0,0,0-4.241.96c-.14.04-1.121.42-1.22.42-.66,0-2.2-1.3-2.2-2.04,0-.28.1-.42.44-.861a1.621,1.621,0,0,0,1.5.941c.38,0,9.162-.9,9.941-1,1.241-.181,1.5-.481,1.821-.86.34.16,1.9.679,2.2.82.5.22.84.46.84.9,0,.221-.12.941-.781.941-.32,0-1.679-.32-1.96-.38a10.492,10.492,0,0,0-1.9-.14c-.74,0-1.44.04-1.721.06.3.12.821.34.821.58,0,.2-.18.36-.481.64-.92,3.561-2.66,7.162-9.542,9.222Zm3.48-15.9a30.038,30.038,0,0,0,5.541-.741,1.571,1.571,0,0,0,.86-.66,21.291,21.291,0,0,1,2.121.861c.44.219.48.42.48.679,0,.861-.6.881-2.181.961-.86.04-4.84.42-5.541.52-.08.02-.94.16-1.08.16-1,0-1.78-1.7-1.98-2.181A2.981,2.981,0,0,0,1752.87,2400.887Z" fill="#d40e64"/>
      <path id="パス_3967" data-name="パス 3967" d="M1764.789,2415.63a13.37,13.37,0,0,0,4.8-9.822c0-.38,0-1.26-1.421-1.18.82-.721,1.181-1,1.761-1,.94,0,2.44.94,2.44,1.48a.974.974,0,0,1-.24.561c-.58,4.581-2.36,7.541-7.341,10Zm19.784-12.783a18.388,18.388,0,0,1-6.962,9.682,4.322,4.322,0,0,0-1.3,1.26c-.181.36-.261.521-.6.521-.561,0-1.96-2.121-1.96-2.541a8.08,8.08,0,0,1,.239-1,21.854,21.854,0,0,0,.16-3.221,38.7,38.7,0,0,0-.179-4.681,1.2,1.2,0,0,0-1.321-.9c.8-.74,1.08-1.021,1.641-1.021a2.927,2.927,0,0,1,2.46,1.661,7.874,7.874,0,0,1-.4.84c-.22.54-.2,6.8-.18,6.862a23.3,23.3,0,0,0,8.382-7.5Z" fill="#d40e64"/>
      <path id="パス_3968" data-name="パス 3968" d="M1801.992,2411.129l1.12-1.62c.1-.141.181-.24.261-.24a13.032,13.032,0,0,1,2.26,1.94c0,.16-.119.16-.239.16h-4.522v3.7c0,1.241,0,2.181-2.82,2.181-.38,0-.62,0-.62-.28,0-.08.04-.42.04-.5,0-.56,0-1.34-2.1-2.16v-.081c.46.041,2.5.18,2.78.18.261,0,.261-.18.261-.439v-2.6h-11.243l-.1-.24h11.343v-1.721c.4.04,2.521.24,2.8.3.1.02.24.06.24.159,0,.16-.3.32-.58.381v.88Zm-.139-10.3,1.12-1.439c.16-.221.179-.241.24-.241a11.506,11.506,0,0,1,2.16,1.781c0,.139-.14.139-.26.139h-7.662v1.821h2.942l.66-.84c.219-.28.26-.3.359-.3.2,0,2.4,1.58,2.4,2,0,.32-.48.42-.92.54v4.6c0,.179,0,.38-.26.4l-1.761.12c-.439.021-.439-.04-.439-.679h-8.263v.86c0,.279,0,.439-.239.46l-1.821.1c-.3.021-.36,0-.36-.4v-7.422c.94.18,1.74.361,2.521.56h2.72v-1.821h-7.5l-.1-.24h7.6v-2.16c1.321.1,2.04.16,2.78.26.1.02.281.06.281.2,0,.12-.061.141-.6.3v1.4Zm-11.123,11.043c2.14.28,4.041,1.16,4.041,2.681a1.713,1.713,0,0,1-1.781,1.62c-.439,0-.46-.18-.559-.62a8.218,8.218,0,0,0-1.7-3.641Zm4.261-6.222v-2.52h-2.821v2.52Zm0,2.861v-2.62h-2.821v2.62Zm2.46-5.381v2.52h2.982v-2.52Zm0,2.761v2.62h2.982v-2.62Z" fill="#d40e64"/>
      <path id="パス_3969" data-name="パス 3969" d="M1814.79,2399.986l.641-.9c.3-.42.34-.46.439-.46a8.83,8.83,0,0,1,1.16.82c1.061.821,1.181.92,1.181,1.16,0,.2-.14.321-.9.681v5.561c0,.36,0,.42-.38.44l-1.521.12c-.359.02-.479.04-.479-.38v-.68h-2.6v10.342c0,.34-.02.42-.4.44l-1.741.1c-.28.02-.32-.08-.32-.38v-17.423a22.992,22.992,0,0,1,2.641.559Zm-2.46.22v2.781h2.6v-2.781Zm0,3.022v2.879h2.6v-2.879Zm11.242-3.242.76-1.02c.16-.2.261-.34.34-.34a10.52,10.52,0,0,1,2.3,1.961c0,.279-.22.38-.861.62v13.8c0,.82,0,1.32-.559,1.66a5.379,5.379,0,0,1-2.2.52c-.661,0-.661-.3-.661-.5,0-1.44,0-1.661-1.88-2.42v-.06c.459.06,2.1.119,2.34.119.54,0,.54-.159.54-.64v-7.341h-2.6v.4c0,.38,0,.46-.38.481l-1.641.119c-.38.02-.42-.02-.42-.44v-7.462c.56.1,2.1.38,2.681.54Zm-2.48.22v2.781h2.6v-2.781Zm0,3.022v2.879h2.6v-2.879Z" fill="#d40e64"/>
      <path id="パス_3970" data-name="パス 3970" d="M1844.992,2410.528l1.221-1.719c.14-.2.16-.241.26-.241a13.379,13.379,0,0,1,2.3,2.061c0,.14-.139.14-.259.14h-7.8v4.041c0,1.28-.021,2.42-3.021,2.42-.7,0-.7-.12-.7-.5a2.206,2.206,0,0,0-.28-1.36,3.516,3.516,0,0,0-1.86-1.1v-.06c.32.019,2.58.14,2.82.14.54,0,.54-.161.54-.821v-2.76h-7.861l-.08-.241h7.941v-2.08c.261.04,1.181.14,1.761.22a12.446,12.446,0,0,0,1.56-2.2h-7.521l-.08-.24h7.541l.62-.72c.14-.16.28-.32.4-.32a.782.782,0,0,1,.38.2c.12.1,1.261,1.1,1.421,1.259a22.166,22.166,0,0,0,.979-2.78H1833.51a7.956,7.956,0,0,1,.16,1.58,2.2,2.2,0,0,1-1.941,2.441,1.475,1.475,0,0,1-1.4-1.34c0-.24.08-.38.341-.6a6.711,6.711,0,0,0,2.22-3.9h.08a9.577,9.577,0,0,1,.48,1.58h8.3a26.171,26.171,0,0,0,1.62-4.86c1.881.719,2.041.8,3.081,1.219.08.04.2.1.2.2,0,.059-.06.2-.64.12a21.009,21.009,0,0,1-3.681,3.32h2.841l.72-.78c.16-.18.26-.26.379-.26.2,0,.7.5.921.721a9.888,9.888,0,0,1,1.64,2.04c0,.3-.359.32-.54.32a7.739,7.739,0,0,1-.939-.08,22.308,22.308,0,0,1-2.9,1.2c.521.48.58.54.58.72,0,.48-.8.4-1.34.36a29.335,29.335,0,0,1-2.82.92c.22.021.359.04.359.181,0,.179-.379.279-.519.3v1.259Zm-12.2-11.681c.82.139,4.141.719,4.141,2.88a1.528,1.528,0,0,1-1.68,1.56c-.48,0-.58-.08-.66-.64a7.459,7.459,0,0,0-1.82-3.741Zm4.081-.2c1.941.32,4.161,1.06,4.161,2.8a1.684,1.684,0,0,1-1.7,1.72c-.319,0-.439-.12-.479-.439a8.278,8.278,0,0,0-1.981-4.041Z" fill="#d40e64"/>
      <path id="パス_3971" data-name="パス 3971" d="M1851.829,2403.627l-.08-.24h2.9v-4.66c.881.08,2.381.2,2.822.3.059,0,.179.04.179.14,0,.12-.3.2-.56.261v3.96h.14l.8-1.4c.1-.16.141-.24.22-.24a8.229,8.229,0,0,1,1.8,1.74c0,.14-.1.14-.2.14h-2.761v2.7a7.119,7.119,0,0,1,2.241,1.26,22.342,22.342,0,0,0,2.28-4.481c.441.2,2.441,1.161,2.641,1.3.08.061.18.141.18.24,0,.161-.52.121-.72.1a20.524,20.524,0,0,1-4.041,3.221,2.1,2.1,0,0,1,.38,1.22,1.437,1.437,0,0,1-1.521,1.581c-.66,0-.7-.3-.7-.98a6.72,6.72,0,0,0-.74-2.981v9.642c0,.46-.02.52-.6.58l-1.261.12c-.559.06-.58-.16-.58-.5v-7.482a11.391,11.391,0,0,1-3.3,3.642l-.04-.04a23.744,23.744,0,0,0,3.041-9.143Zm5.261,13.443a13.126,13.126,0,0,0,5.821-4.641,11.314,11.314,0,0,1-1.1-5.761h.059a8.745,8.745,0,0,0,1.9,4.281,19.95,19.95,0,0,0,1.521-4.421,16.221,16.221,0,0,1,2.8,1.64c0,.1-.24.2-.681.12a19.8,19.8,0,0,1-1.96,4.062,12.019,12.019,0,0,0,5.461,1.96l.021.059a2.935,2.935,0,0,0-1.5,2.121c-.06.22-.18.5-.48.5a10.285,10.285,0,0,1-4.9-2.961c-1.061.981-2.761,2.461-6.922,3.121Zm9.763-14.843,1.139-1.6c.061-.08.16-.221.24-.221a8.5,8.5,0,0,1,2.081,1.9c0,.16-.1.16-.2.16H1859.65l-.1-.24h3.36v-3.54c.9.08,2.181.239,2.781.319.1.02.34.06.34.181,0,.16-.36.24-.6.28v2.76Zm-1.761,1.16c1.64.14,5.021.78,5.021,3.021a1.4,1.4,0,0,1-1.36,1.441.616.616,0,0,1-.62-.421,12.865,12.865,0,0,0-3.061-3.961Z" fill="#d40e64"/>
    </g>
  </g>
</svg>
