<svg xmlns="http://www.w3.org/2000/svg" width="163" height="180.79" viewBox="0 0 163 180.79">
  <g id="グループ_4313" data-name="グループ 4313" transform="translate(-554 -1493.21)">
    <circle id="楕円形_114" data-name="楕円形 114" cx="81.5" cy="81.5" r="81.5" transform="translate(554 1511)" fill="#1482ca" opacity="0.3"/>
    <g id="グループ_2965" data-name="グループ 2965">
      <path id="パス_4180" data-name="パス 4180" d="M647.142,1638.942c-8.847.758-5.85,11.115-17.55,11.7-8.428.421-15.2-5.969-14.04-9.945,4.095-14.04,31.062-15.827,36.27-14.625C659.427,1627.827,667.617,1637.187,647.142,1638.942Z" fill="rgba(0,0,0,0.3)" opacity="0.37"/>
      <g id="グループ_2964" data-name="グループ 2964">
        <path id="パス_4181" data-name="パス 4181" d="M627.782,1635.285l3.5,4.43,5.043,3.462-.052,2.16s-2.428,2.812-3.238,3.149l-5.866-.669-5.5-4.854-3.686-2.405.091-3.83Z" fill="#1a3554"/>
        <path id="パス_4182" data-name="パス 4182" d="M640.9,1631.933l4.721.112,5.654,2.095,5.525.376,1.418-2.818-1.351-3.338-4.359-1.129-5.885-3.629s-7.312.183-7.321.539-.124,5.256-.124,5.256l-.055,2.315Z" fill="#1a3554"/>
        <path id="パス_4183" data-name="パス 4183" d="M631.673,1517.208l3.407-.853,6.172,2.38,2.55,5.229,1.633,20.161Z" fill="#1a3554"/>
        <path id="パス_4184" data-name="パス 4184" d="M623.217,1564.683l-3.139,1.026-1.117,11.5-.573,22.462,24.738-5.173,1.736-31.583Z" fill="#06141e"/>
        <path id="パス_4185" data-name="パス 4185" d="M646.733,1566.521l1.94,27.022v3.948l-1.052,26.111-2.371,2.379-8.326-.2-.486-25.978-5.682-28.857Z" fill="#0d2030"/>
        <path id="パス_4186" data-name="パス 4186" d="M637.363,1575.927l-3.538,25.486-5.969,35.167-4.552,1.164-6.351-.864c.095-.265,2.51-28.682,2.51-28.682l1.422-8.772.842-30.073,14.34-2.431Z" fill="#152a3f"/>
        <path id="パス_4187" data-name="パス 4187" d="M615.643,1533.674c.01-.356-2.048-7.553-2.048-7.553l5.3-5.649,15.238-3.112,5.954,3.037s4.234,6.471,4.582,6.836,2.9,12.991,2.9,12.991l.345,23.4-1.185.869.3,6.238-10.288,9.626-13.8-10.842-1.363-2.288-1.5-1.11,1.588-15.874Z" fill="#152a3f"/>
        <path id="パス_4188" data-name="パス 4188" d="M618.9,1520.472l-.278,1.768,7.693,6.568s3.385,5.8,3.519,5.756l2.694,1.175-.14,5.968,4.443,4.5,4.095,7.518,1.267-12.046v-8.592l-2.439-2.069,1.327-2.384-2.106-4.787s-2.949-4.507-3.11-4.7a15.462,15.462,0,0,0-2.915-1.1Z" fill="#1a3554"/>
        <path id="パス_4189" data-name="パス 4189" d="M621.58,1567.228l1.5,1.382,3.869.407,10.788-1.884,2.934-2.778.625-3.147.894,3.285,1.683.9,2.859-.9v1.279l-12.1,4.118-7.051,1.136-4.342-.281-1.515-1.393Z" fill="#fff"/>
        <g id="グループ_2962" data-name="グループ 2962">
          <path id="パス_4190" data-name="パス 4190" d="M632.431,1516.345a21.651,21.651,0,0,1,.3,2.3l2.737,4.547-15.067-3.012,2.474-3.45c-.169-1.268-.337-2.552-.375-2.767a9.2,9.2,0,0,0,1.562-1.16S631.878,1516.45,632.431,1516.345Z" fill="#f79b69"/>
          <path id="パス_4191" data-name="パス 4191" d="M634.54,1499.845c-.7.978-5.239-.822-6.385-.273-1.615.739-4.647,5.189-4.647,5.189l-1.413,3.172s-2.511,1.329-1.858,2.6c.514,1,1.414,3.248,2.5,3.308a1.076,1.076,0,0,0,.725-.287c.312.665,1.035,2.24,1.035,2.24l7.544,2.091,3.557-1.836.116-10.367S634.688,1500.247,634.54,1499.845Z" fill="#fab585"/>
          <path id="パス_4192" data-name="パス 4192" d="M625.39,1503.765l-2.173,3.2.96,2.474.38,3.094a10.4,10.4,0,0,1-1.189-.589c-.311-.982-.591-2.13-.814-2.683-.293-.21-1.5.145-1.5.145l-.556,1.049s1.151,3.327,2.233,3.387c.074.415.206,1.245.206,1.245l-1.21-.371-.95-1.505a85.251,85.251,0,0,1-5.041-7.974l-.67-5.306Z" fill="#002b6a"/>
          <path id="パス_4193" data-name="パス 4193" d="M629.943,1504.173s-4.408-.37-4.553-.408c-3.338-.636-7.508-1.868-10.321-3.835a19.662,19.662,0,0,1,2.552-3.714c.971-.974,6.983-3.106,8.759-3h.014c.782.1,3.479.544,4.014.581-.279-.009,5.2,3.92,5.3,3.928l-.708,4.284Z" fill="#002b6a"/>
        </g>
        <path id="パス_4194" data-name="パス 4194" d="M618.96,1520.352l1.4,1.747,7.261,2.742,7.286,8.423,6.021,20.458-2.013-23.3-2.806-6.547-3.007-4.663-.076,3.189-10.816-2.4-1.409-1.82Z" fill="#fff"/>
        <path id="パス_4195" data-name="パス 4195" d="M634.056,1523.95l-3.563-.085.434,4.249,1.232.694,3.1-2.957,2.48.638a22.948,22.948,0,0,0-1.331-4.009l-1.048-.9Z" fill="#ff1f4b"/>
        <path id="パス_4196" data-name="パス 4196" d="M611.81,1531.639l3.7,30.38,3.2,2.475,23.862-6.433-.377-6.977-17.512.429-.451-13.411-2.242-8.841-8.392-3.14Z" fill="#1a3554"/>
        <path id="パス_4197" data-name="パス 4197" d="M620.8,1518.182l1.733-.967-1.193,1.664Z" fill="#dbffff"/>
        <g id="グループ_2963" data-name="グループ 2963">
          <path id="パス_4198" data-name="パス 4198" d="M635.273,1515.6l2.379-1.664,7.492,4.207a13.307,13.307,0,0,1,2.361,5.372c.608,3.2,5.667,30.542,5.667,30.542l1.483,1.995,4.8,8.764s-4.927,2.2-6.5,1.7c-2-.642-3.756-3.8-3.756-3.8l-1.789-6.019-4.325-32.821-.935-2.117Z" fill="#ffd422"/>
          <path id="パス_4199" data-name="パス 4199" d="M652.24,1562.778l.71,3.735a9.731,9.731,0,0,0,8.644-1.243,11.325,11.325,0,0,0,3.211-7.1c.15-1.611.437-5.821.437-5.821s-.027-1.3,1.833-3.633S653.7,1541.4,653.7,1541.4l-.48.935.8,3.174,1.634,5.193.147,3.03-1.247,2.342Z" fill="#ffd422"/>
          <path id="パス_4200" data-name="パス 4200" d="M653.075,1537.061c-1.713,1.792-3.72,7.821,6.423,12.567,9.178,4.294,14.542-4.524,9.251-10.364C667.976,1538.411,659.42,1530.421,653.075,1537.061Z" fill="#fff6d6"/>
          <path id="パス_4201" data-name="パス 4201" d="M652.965,1536.483c-1.713,1.792-3.72,7.821,6.423,12.567,9.178,4.294,14.542-4.525,9.251-10.364C667.866,1537.833,659.31,1529.842,652.965,1536.483Z" fill="#ffe166"/>
          <path id="パス_4202" data-name="パス 4202" d="M654,1537.088c-1.5,1.564-3.248,6.828,5.608,10.971,8.012,3.748,12.7-3.95,8.076-9.048C667.013,1538.266,659.544,1531.29,654,1537.088Z" fill="#ffd422"/>
          <path id="パス_4203" data-name="パス 4203" d="M654.926,1538.011c-1.245,1.3-2.7,5.684,4.667,9.132,6.669,3.12,10.567-3.287,6.722-7.531C665.754,1538.992,659.537,1533.186,654.926,1538.011Z" fill="#ffa210" opacity="0.49"/>
          <path id="パス_4204" data-name="パス 4204" d="M656.335,1539.868c-.949.993-2.062,4.336,3.561,6.966,5.088,2.381,8.061-2.508,5.128-5.745C664.6,1540.616,659.853,1536.186,656.335,1539.868Z" fill="#ffa210"/>
          <path id="パス_4205" data-name="パス 4205" d="M655.966,1543.581a7.916,7.916,0,0,0,3.929,3.253c2.32,1.085,4.2.658,5.279-.433a4.682,4.682,0,0,0-.837-1.291C663.92,1544.651,659.445,1540.471,655.966,1543.581Z" fill="#e17a0a"/>
          <path id="パス_4206" data-name="パス 4206" d="M635.273,1515.6l2.379-1.664-2.808-1.535-1.97.9Z" fill="#543213"/>
          <path id="パス_4207" data-name="パス 4207" d="M650.93,1543.87a1.292,1.292,0,1,1-1.533-1.263A1.416,1.416,0,0,1,650.93,1543.87Z" fill="#ffec45"/>
          <path id="パス_4208" data-name="パス 4208" d="M649.825,1538.06a1.292,1.292,0,1,1-1.532-1.263A1.416,1.416,0,0,1,649.825,1538.06Z" fill="#ffec45"/>
          <path id="パス_4209" data-name="パス 4209" d="M648.63,1531.774a1.292,1.292,0,1,1-1.533-1.264A1.416,1.416,0,0,1,648.63,1531.774Z" fill="#ffec45"/>
          <path id="パス_4210" data-name="パス 4210" d="M649.645,1549.129l-2.162-.28.228,1.2,3.375.084,1.212-.8-.2-1.055-1.061.72Z" fill="#ff9a17"/>
          <path id="パス_4211" data-name="パス 4211" d="M650.966,1555.234l-1.883,1.187-.165-.868,3.077-1.484,1.395.164.6.858-1.672-.217Z" fill="#ffec45"/>
          <path id="パス_4212" data-name="パス 4212" d="M648.671,1544.006l-2.162-.28.228,1.2,3.375.084,1.212-.8-.2-1.055-1.061.72Z" fill="#ffec45"/>
          <path id="パス_4213" data-name="パス 4213" d="M647.543,1538.07l-2.162-.28.228,1.2,3.375.084,1.212-.8-.2-1.055-1.061.72Z" fill="#ffec45"/>
          <path id="パス_4214" data-name="パス 4214" d="M646.372,1531.909l-2.162-.28.228,1.2,3.375.084,1.212-.8-.2-1.055-1.061.72Z" fill="#ffec45"/>
          <path id="パス_4215" data-name="パス 4215" d="M657.954,1550.275c.19,1-.2,1.91-.877,2.038s-1.374-.576-1.563-1.574.2-1.909.877-2.038S657.765,1549.278,657.954,1550.275Z" fill="#ffa11a"/>
          <path id="パス_4216" data-name="パス 4216" d="M657.94,1554.981c-.212.993-.927,1.682-1.6,1.539s-1.043-1.063-.832-2.056.926-1.682,1.6-1.54S658.151,1553.988,657.94,1554.981Z" fill="#ffa11a"/>
          <path id="パス_4217" data-name="パス 4217" d="M655.277,1559.37c-.642.786-1.594,1.071-2.125.636s-.44-1.423.2-2.209,1.594-1.071,2.125-.636S655.92,1558.584,655.277,1559.37Z" fill="#ffa11a"/>
          <path id="パス_4218" data-name="パス 4218" d="M657.623,1550.2c.19,1-.2,1.91-.877,2.038s-1.374-.577-1.563-1.574.2-1.91.877-2.038S657.434,1549.2,657.623,1550.2Z" fill="#ffec45"/>
          <path id="パス_4219" data-name="パス 4219" d="M657.648,1554.919c-.211.993-.926,1.682-1.6,1.539s-1.044-1.063-.833-2.056.927-1.682,1.6-1.54S657.859,1553.926,657.648,1554.919Z" fill="#ffec45"/>
          <path id="パス_4220" data-name="パス 4220" d="M655,1559.144c-.642.786-1.594,1.071-2.125.637s-.44-1.424.2-2.21,1.594-1.07,2.125-.636S655.644,1558.358,655,1559.144Z" fill="#ffec45"/>
          <path id="パス_4221" data-name="パス 4221" d="M653.158,1554.365a1.327,1.327,0,1,1-1.822-1.1A1.541,1.541,0,0,1,653.158,1554.365Z" fill="#ffec45"/>
          <path id="パス_4222" data-name="パス 4222" d="M651.981,1549.4a1.292,1.292,0,1,1-1.533-1.263A1.417,1.417,0,0,1,651.981,1549.4Z" fill="#ff9a17"/>
        </g>
        <path id="パス_4223" data-name="パス 4223" d="M643.466,1548.282a28.8,28.8,0,0,0,1.914-2.756l.922.387.108,2.946,2.615-.792,2.539-3.056.735.886-.059,5.723-4.228,3.286L642.581,1557l-.288-5.068Z" fill="#fab585"/>
        <path id="パス_4224" data-name="パス 4224" d="M648.759,1530.241l-1.478,4.274.772,3.5,1.773.047,1.3-2.109-.664-5.711-1.967-1.433Z" fill="#f79b69"/>
      </g>
    </g>
  </g>
</svg>
