<svg xmlns="http://www.w3.org/2000/svg" width="155.679" height="87.699" viewBox="0 0 155.679 87.699">
  <g id="グループ_4332" data-name="グループ 4332" transform="translate(-197.204 -2660.927)">
    <g id="グループ_2684" data-name="グループ 2684" transform="translate(-1526)">
      <g id="グループ_2683" data-name="グループ 2683">
        <path id="パス_3533" data-name="パス 3533" d="M1735.383,2677.059h3.533c1.655,0,3.311-.049,4.99-.1.272-.024.4.1.4.4.024.643.024,1.334,0,1.977,0,.321-.074.445-.371.445-1.186-.05-3.385-.1-4.99-.1h-9.931c-1.013,0-2.619.074-4.546.1-.4.024-.444-.075-.519-.5a14.492,14.492,0,0,1-.173-2.322c1.779.1,3.657.124,5.238.124h3.36v-8.449h-1.927c-1.779,0-2.817.05-3.829.1-.3.025-.346-.148-.421-.519a13.788,13.788,0,0,1-.2-2.3,41.738,41.738,0,0,0,4.274.1h6.991c1.507,0,2.865,0,4.323-.075.247-.025.321.124.321.4.025.617.025,1.309,0,1.927-.024.321-.074.469-.345.469-1.656-.074-2.866-.1-4.249-.1h-1.928Z" fill="#d40e64"/>
        <path id="パス_3534" data-name="パス 3534" d="M1752.253,2666.906c-1.408,0-2.915.1-4.372.2-.3.024-.4-.149-.445-.371a23.084,23.084,0,0,1-.444-2.668c1.679.123,3.038.173,5.014.173h10.6a5.194,5.194,0,0,0,1.7-.149,1.828,1.828,0,0,1,.469-.172.842.842,0,0,1,.569.345,12.729,12.729,0,0,1,1.482,1.557.716.716,0,0,1,.2.444.644.644,0,0,1-.345.519,3.057,3.057,0,0,0-.667.717,21.025,21.025,0,0,1-4.348,4.768.711.711,0,0,1-.519.222.967.967,0,0,1-.593-.247,5.692,5.692,0,0,0-2.051-1.013,17.569,17.569,0,0,0,4.423-4.323Zm1.384,9.634a11.42,11.42,0,0,0,1.211-5.83,8.957,8.957,0,0,0-.247-2.322,27.537,27.537,0,0,1,3.186.469c.321.075.42.247.42.47a.993.993,0,0,1-.124.444,2.277,2.277,0,0,0-.222,1.013,15.1,15.1,0,0,1-1.457,6.794,12.862,12.862,0,0,1-4.5,4.916,1.243,1.243,0,0,1-.692.247.7.7,0,0,1-.494-.222,6.93,6.93,0,0,0-2.248-1.26A10.933,10.933,0,0,0,1753.637,2676.54Z" fill="#d40e64"/>
        <path id="パス_3535" data-name="パス 3535" d="M1774.73,2671.2c-1.234,0-2.47.025-3.7.1-.222,0-.321-.148-.37-.469a18.576,18.576,0,0,1-.272-2.495,43.8,43.8,0,0,0,4.545.2h8.474a2.717,2.717,0,0,0,1.309-.271.532.532,0,0,1,.321-.149.635.635,0,0,1,.371.173,14.566,14.566,0,0,1,1.655,1.532.728.728,0,0,1,.247.519.6.6,0,0,1-.272.469,2.833,2.833,0,0,0-.84,1.161c-2.47,5.262-5.311,8.35-10.079,10.919a1.181,1.181,0,0,1-.494.173.806.806,0,0,1-.543-.3,7.241,7.241,0,0,0-2.3-1.285c4.57-2.125,8.6-5.534,10.376-10.3Zm1.656-5.311c-1.112,0-2.347.024-3.385.1-.247,0-.321-.148-.345-.544a21.543,21.543,0,0,1-.124-2.371,34.036,34.036,0,0,0,4.051.173h4.447c1.606,0,2.915-.074,3.879-.124.222,0,.3.124.3.4a12.63,12.63,0,0,1,0,1.927c0,.42-.074.519-.444.494-.816,0-1.977-.049-3.484-.049Z" fill="#d40e64"/>
        <path id="パス_3536" data-name="パス 3536" d="M1803.31,2677.43c0,1.7.024,3.162.074,5.138.025.321-.1.42-.371.42a20.335,20.335,0,0,1-2.47,0c-.272,0-.371-.1-.346-.4.025-1.779.1-3.385.1-5.065v-5.756a42.692,42.692,0,0,1-6.794,4.744.7.7,0,0,1-.37.1.689.689,0,0,1-.519-.248,9.249,9.249,0,0,0-2.125-1.457,39.663,39.663,0,0,0,7.782-5.064,40.093,40.093,0,0,0,5.262-5.164,7.152,7.152,0,0,0,1.556-2.544,21.934,21.934,0,0,1,2.743,1.729.437.437,0,0,1,.2.371.705.705,0,0,1-.345.543,8.168,8.168,0,0,0-1.483,1.359,38.959,38.959,0,0,1-2.89,3.113Z" fill="#d40e64"/>
        <path id="パス_3537" data-name="パス 3537" d="M1813.781,2664.732a.462.462,0,0,1,.346-.2.649.649,0,0,1,.321.124,25.755,25.755,0,0,1,4.719,3.508c.148.148.222.247.222.345a.532.532,0,0,1-.148.322c-.371.494-1.186,1.482-1.532,1.853-.123.123-.2.2-.3.2s-.2-.074-.321-.2a26.162,26.162,0,0,0-5.04-4.027C1812.6,2665.992,1813.312,2665.226,1813.781,2664.732Zm2.15,13.019a36.664,36.664,0,0,0,7.114-4.595,37.154,37.154,0,0,0,6.769-6.719,11.033,11.033,0,0,0,.692,2.89,1.209,1.209,0,0,1,.123.469c0,.223-.123.42-.4.741a40.324,40.324,0,0,1-5.682,5.237,53,53,0,0,1-7.46,4.842,8.507,8.507,0,0,0-1.655,1.137.687.687,0,0,1-.445.247.64.64,0,0,1-.42-.272,17.031,17.031,0,0,1-1.976-2.742A14.928,14.928,0,0,0,1815.931,2677.751Z" fill="#d40e64"/>
        <path id="パス_3538" data-name="パス 3538" d="M1841.1,2684.421h-1.557l10.055-23.494h1.556Z" fill="#d40e64"/>
        <path id="パス_3539" data-name="パス 3539" d="M1726.169,2697.6a.46.46,0,0,1,.667.173,19.877,19.877,0,0,1,2.767,4.669.956.956,0,0,1,.1.321c0,.148-.1.247-.3.371a15.053,15.053,0,0,1-1.9.963c-.371.149-.519-.024-.643-.37a19.64,19.64,0,0,0-2.89-4.991A19.445,19.445,0,0,1,1726.169,2697.6Zm17.292.371a.566.566,0,0,1,.272.494.611.611,0,0,1-.2.42,4.9,4.9,0,0,0-.964,1.63,38.156,38.156,0,0,1-4.792,8.4,26.645,26.645,0,0,1-6.522,6.126,1.041,1.041,0,0,1-.569.222.722.722,0,0,1-.419-.172,7.586,7.586,0,0,0-2.372-1.162,28.335,28.335,0,0,0,7.337-6.521,29.671,29.671,0,0,0,4.274-7.659,11.2,11.2,0,0,0,.717-3.236A17.662,17.662,0,0,1,1743.461,2697.971Zm-10.844-1.9a.459.459,0,0,1,.642.2,20.573,20.573,0,0,1,2.421,4.57.483.483,0,0,1-.247.692,16.434,16.434,0,0,1-1.878.889c-.4.148-.543.1-.667-.3a19.787,19.787,0,0,0-2.544-4.99C1731.085,2696.785,1731.875,2696.39,1732.617,2696.068Z" fill="#d40e64"/>
        <path id="パス_3540" data-name="パス 3540" d="M1752.253,2706.716a19.779,19.779,0,0,0-3.631.3c-.3,0-.495-.148-.569-.518a27.07,27.07,0,0,1-.37-2.99,31.725,31.725,0,0,0,5.336.3h7.955c1.877,0,3.779-.05,5.681-.074.371-.025.445.049.445.346a18.331,18.331,0,0,1,0,2.322c0,.3-.1.4-.445.37-1.852-.025-3.68-.049-5.509-.049Z" fill="#d40e64"/>
        <path id="パス_3541" data-name="パス 3541" d="M1772.458,2698.885a16.882,16.882,0,0,0-.272-3.607,18.218,18.218,0,0,1,3.064.519c.3.074.419.222.419.395a1.051,1.051,0,0,1-.1.371,5.665,5.665,0,0,0-.272,2.346v4.99c0,1.285.049,2.249.074,3.113,0,.371-.148.494-.543.494h-1.977c-.346,0-.494-.123-.469-.42,0-.864.074-2.3.074-3.359Zm11.635,4.619c0,3.657-.543,6.1-2,8.054a12.74,12.74,0,0,1-5.434,3.878,1.571,1.571,0,0,1-.519.124.8.8,0,0,1-.593-.3,8.023,8.023,0,0,0-2.1-1.507,12.073,12.073,0,0,0,6.028-3.606c1.136-1.409,1.655-3.459,1.655-6.6v-4.669a18.1,18.1,0,0,0-.272-4.027,15.535,15.535,0,0,1,3.212.543.416.416,0,0,1,.346.42.787.787,0,0,1-.1.4,7.415,7.415,0,0,0-.223,2.692Z" fill="#d40e64"/>
        <path id="パス_3542" data-name="パス 3542" d="M1802.421,2697.6a3.633,3.633,0,0,0,1.7-.222.413.413,0,0,1,.272-.1.815.815,0,0,1,.42.2,8.953,8.953,0,0,1,1.606,1.729.655.655,0,0,1,.123.321.68.68,0,0,1-.321.494,4.536,4.536,0,0,0-.914,1.087,39.032,39.032,0,0,1-3.162,4.62,58.091,58.091,0,0,1,6.843,5.978.561.561,0,0,1,.2.346.613.613,0,0,1-.173.37,13.293,13.293,0,0,1-1.655,1.68.428.428,0,0,1-.3.148.507.507,0,0,1-.346-.2,44.929,44.929,0,0,0-6.423-6.127,35.549,35.549,0,0,1-8.3,6.522,1.563,1.563,0,0,1-.568.2.55.55,0,0,1-.42-.222,6.75,6.75,0,0,0-2.075-1.606,30.831,30.831,0,0,0,13.339-12.5l-6.373.025c-1.285,0-2.569.05-3.9.148-.2.025-.272-.148-.321-.42a14.327,14.327,0,0,1-.223-2.569c1.334.1,2.569.1,4.175.1Zm4.175-2.52c.123-.1.222-.074.37.05a11.355,11.355,0,0,1,2.347,2.643.249.249,0,0,1-.074.4l-1.037.766a.258.258,0,0,1-.42-.074,12.285,12.285,0,0,0-2.495-2.866Zm2.2-1.6c.149-.1.223-.075.371.049a10.345,10.345,0,0,1,2.347,2.544.286.286,0,0,1-.074.445l-.988.766a.253.253,0,0,1-.42-.074,11.693,11.693,0,0,0-2.471-2.841Z" fill="#d40e64"/>
        <path id="パス_3543" data-name="パス 3543" d="M1823.564,2696.217c.173.123.3.247.3.4a.831.831,0,0,1-.247.494,7.939,7.939,0,0,0-1.013,2.05c-1.383,3.78-2.693,7.412-4.249,11.117,3.8-.321,5.879-.519,8.647-.939a24.737,24.737,0,0,0-2.743-3.952c.742-.4,1.458-.815,2.149-1.186.272-.148.42-.05.594.148a34.786,34.786,0,0,1,4.99,8.078.6.6,0,0,1,.1.322c0,.148-.1.3-.321.42a12.524,12.524,0,0,1-1.877,1.013.663.663,0,0,1-.3.073c-.148,0-.272-.123-.345-.345-.3-.692-.569-1.334-.865-1.977-3.953.593-7.708,1.013-11.735,1.433a8.323,8.323,0,0,0-2.89.593c-.321.148-.593.1-.716-.247a22.948,22.948,0,0,1-.865-3.187c.988.074,2.026.05,3.014.025,1.754-4.422,3.039-8.078,4.323-12.229a13.169,13.169,0,0,0,.716-3.384A13.41,13.41,0,0,1,1823.564,2696.217Z" fill="#d40e64"/>
        <path id="パス_3544" data-name="パス 3544" d="M1842.581,2716.721h-1.556l10.055-23.493h1.556Z" fill="#d40e64"/>
        <path id="パス_3545" data-name="パス 3545" d="M1725.6,2733.087c-.222.2-.444.371-.667.543s-.37.272-.494.272c-.173,0-.247-.173-.4-.568a6.032,6.032,0,0,0-.84-1.581,14.485,14.485,0,0,0,4.224-4.323,4.819,4.819,0,0,0,.544-1.285c.741.1,1.631.247,2.273.4.247.075.37.2.37.3a.477.477,0,0,1-.247.4l-.173.148a13.38,13.38,0,0,0,3.533,3.162,6.992,6.992,0,0,0-.939,1.285c-.2.371-.3.544-.445.544-.123,0-.271-.124-.543-.346a17.324,17.324,0,0,1-2.693-2.915,19.716,19.716,0,0,1-2.717,3.236c.321.025.79.025,1.531.025h2c1.483,0,1.928-.05,2.076-.05.247,0,.272.025.272.3v1.531c0,.247-.025.272-.272.272-.148,0-.593-.049-2-.049v1.926h.074c1.852,0,2.421-.049,2.569-.049.272,0,.3.025.3.272v1.63c0,.247-.025.272-.3.272-.148,0-.717-.049-2.569-.049H1730v5.953c1.086-.346,2.173-.667,3.211-1.037a6.078,6.078,0,0,0-.148,1.383c0,.791-.025.766-.79,1.038-1.928.691-4.447,1.457-6.5,2a3.054,3.054,0,0,0-.864.346.778.778,0,0,1-.4.148.409.409,0,0,1-.395-.321,15.547,15.547,0,0,1-.593-2.1,15.346,15.346,0,0,0,2.4-.371l1.754-.42v-6.62h-.79c-1.853,0-2.421.049-2.57.049-.246,0-.271-.025-.271-.272v-1.63c0-.247.025-.272.271-.272.149,0,.717.049,2.57.049h.79v-1.926c-1.259,0-1.679.049-1.8.049-.247,0-.272-.025-.272-.272Zm0,6.448c.321-.124.371-.1.47.173a18.508,18.508,0,0,1,.938,3.705c.05.247.025.272-.3.4l-1.112.421c-.346.123-.4.1-.444-.2a19.818,19.818,0,0,0-.89-3.706c-.1-.247-.049-.3.272-.42Zm7.683.271c.173.075.247.149.247.272a.31.31,0,0,1-.148.272.854.854,0,0,0-.321.519c-.2.617-.47,1.383-.717,1.976-.173.4-.222.568-.4.568a1.385,1.385,0,0,1-.518-.2,4.955,4.955,0,0,0-.964-.346,18.5,18.5,0,0,0,.889-2.767,8.548,8.548,0,0,0,.148-.914A18.662,18.662,0,0,1,1733.283,2739.806Zm2.644-6.694a21.116,21.116,0,0,1-.89,2.174c-.148.345-.271.494-.42.494-.123,0-.271-.124-.494-.346a5.839,5.839,0,0,0-1.383-1.087,17.617,17.617,0,0,0,1.951-5.559,7,7,0,0,0,.124-1.507,14.275,14.275,0,0,1,2.149.544c.3.1.4.2.4.346a.568.568,0,0,1-.148.371,2.973,2.973,0,0,0-.321,1.062c-.074.4-.173.815-.272,1.21h1.68v-1.161a22.378,22.378,0,0,0-.173-3.458c.84.024,1.7.074,2.569.172.247.025.346.124.346.272a1.614,1.614,0,0,1-.148.593,9.561,9.561,0,0,0-.148,2.4v1.186h1.383c1.977,0,2.644-.049,2.792-.049.247,0,.271.025.271.3v1.828c0,.247-.024.272-.271.272-.148,0-.815-.049-2.792-.049h-1.433c-.049,1.235-.1,2.346-.2,3.335h2c2.248,0,3.014-.05,3.162-.05.222,0,.247.025.247.272v1.853c0,.247-.025.271-.247.271-.148,0-.914-.049-3.162-.049h-1.581a14.49,14.49,0,0,0,5.583,7.461,6.19,6.19,0,0,0-1.26,1.68c-.2.345-.3.494-.445.494-.123,0-.272-.1-.519-.321a15.908,15.908,0,0,1-4.669-6.794,13.034,13.034,0,0,1-5.978,7.09,2.131,2.131,0,0,1-.593.272c-.148,0-.247-.148-.469-.544a5.042,5.042,0,0,0-1.26-1.482c3.459-1.556,5.262-3.631,6.151-6.6l.3-1.26h-.791c-2.223,0-2.989.049-3.137.049-.247,0-.272-.024-.272-.271v-1.853c0-.247.025-.272.272-.272.148,0,.914.05,3.137.05h1.087c.1-.964.148-2.075.2-3.335Z" fill="#d40e64"/>
        <path id="パス_3546" data-name="パス 3546" d="M1753.981,2743.092a3.757,3.757,0,0,0,2.051,2.075,14.108,14.108,0,0,0,4.545.469c3.187,0,6.942-.2,10.623-.568a4.689,4.689,0,0,0-.667,1.952c-.1.791-.123.791-.914.84-3.138.148-6.077.222-8.646.222-2.545,0-4.744-.148-5.756-.667a6.573,6.573,0,0,1-2.57-2.248c-.766.741-1.7,1.557-2.495,2.2a1.793,1.793,0,0,0-.494.494.466.466,0,0,1-.37.222.472.472,0,0,1-.346-.3,21.569,21.569,0,0,1-1.013-2.322,11.325,11.325,0,0,0,1.457-.766,13.736,13.736,0,0,0,2.175-1.606v-5.459h-1.211c-1.334,0-1.68.049-1.8.049-.271,0-.3-.025-.3-.3v-1.877c0-.247.025-.272.3-.272.124,0,.47.05,1.8.05h1.556c1.309,0,1.7-.05,1.853-.05.247,0,.272.025.272.272,0,.148-.05.84-.05,2.347Zm-3.631-16.3c.148-.1.222-.148.3-.148a.463.463,0,0,1,.248.124,18.728,18.728,0,0,1,3.087,3.681c.148.2.124.247-.148.444l-1.408,1.186c-.148.124-.222.173-.3.173-.1,0-.148-.074-.222-.2a19.26,19.26,0,0,0-3.013-3.853c-.2-.173-.149-.248.123-.445Zm8.128,4.422c-2.57,0-3.41.05-3.558.05-.247,0-.272-.025-.272-.3v-1.6c0-.272.025-.3.272-.3.148,0,.988.05,3.558.05h.271a9.814,9.814,0,0,0-1.284-2.273c-.173-.222-.1-.321.222-.42l1.68-.445c.3-.074.346-.049.519.1a8.961,8.961,0,0,1,1.26,2.1c.123.247.024.321-.223.42l-1.457.519h3.9a15.974,15.974,0,0,0,.964-1.952,7.171,7.171,0,0,0,.419-1.285,22.276,22.276,0,0,1,2.372.544c.2.074.321.173.321.346s-.1.271-.247.4a1.42,1.42,0,0,0-.445.494c-.272.445-.568.939-.939,1.458h.791c2.4,0,3.236-.05,3.385-.05.271,0,.3.025.3.3v1.6c0,.272-.025.3-.3.3-.149,0-.989-.05-3.385-.05h-3.261a15.661,15.661,0,0,1-.642,1.433h2.347c2.2,0,2.989-.049,3.113-.049.271,0,.3.025.3.272,0,.148-.049.914-.049,2.692v5.88c0,1.754.049,2.421.049,2.569,0,.272-.025.3-.3.3-.124,0-.914-.049-3.113-.049h-5.287c-2.2,0-2.989.049-3.137.049-.272,0-.3-.024-.3-.3,0-.148.049-.815.049-2.569v-5.88c0-1.778-.049-2.544-.049-2.692,0-.247.025-.272.3-.272.148,0,.938.049,3.137.049h.494a14.117,14.117,0,0,0,.568-1.433Zm.271,4.744h7.288v-1.409h-7.288Zm7.288,3.137v-1.383h-7.288v1.383Zm0,1.729h-7.288v1.483h7.288Z" fill="#d40e64"/>
      </g>
    </g>
    <g id="グループ_2720" data-name="グループ 2720" transform="translate(-1526)">
      <path id="パス_3770" data-name="パス 3770" d="M1867.806,2728.937l10.258,7.915-10.258,7.915" fill="none" stroke="#d40e64" stroke-miterlimit="10" stroke-width="1"/>
      <line id="線_85" data-name="線 85" x1="17.1" transform="translate(1861.439 2736.852)" fill="none" stroke="#d40e64" stroke-miterlimit="10" stroke-width="1"/>
    </g>
  </g>
</svg>
