<svg xmlns="http://www.w3.org/2000/svg" width="163" height="175.891" viewBox="0 0 163 175.891">
  <g id="グループ_4318" data-name="グループ 4318" transform="translate(-760 -1811.109)">
    <circle id="楕円形_119" data-name="楕円形 119" cx="81.5" cy="81.5" r="81.5" transform="translate(760 1824)" fill="#e25aa4" opacity="0.3"/>
    <g id="グループ_2999" data-name="グループ 2999">
      <path id="パス_4415" data-name="パス 4415" d="M847.558,1958.1c-5.832-1.313-.821,7.006-8.19,5.265-8.1-1.913-13.932-6.129-13.455-9.945,1.17-9.36,16.965-8.19,23.985-4.68C853.887,1950.739,856.9,1960.207,847.558,1958.1Z" fill="rgba(0,0,0,0.2)" opacity="0.37"/>
      <g id="グループ_2998" data-name="グループ 2998">
        <path id="パス_4416" data-name="パス 4416" d="M835.253,1822.913l-3.272,3.614s3.527,7.756-.834,21.081,10.252,3.166,10.638,2.31,8.81-5.934,8.81-5.934a12.972,12.972,0,0,1-1.277-12.764C852.365,1823.731,835.253,1822.913,835.253,1822.913Z" fill="#002b6a" fill-rule="evenodd"/>
        <g id="グループ_2996" data-name="グループ 2996">
          <path id="パス_4417" data-name="パス 4417" d="M841.692,1934.383c-1.086-8.053-2.347-13.567-1.806-19.162.411-4.236.614-6.977.67-9.075.449-7.312,8.249,2.108,8.166,8.323-.1,8.127-1.586,16.018-2.2,24.367.062.584.128,1.183.179,1.749.343,3.846.127,5.656.8,7.8a24.535,24.535,0,0,0,1.754,3.572s-2.789,1.314-3.1,1.341-4.465-1.361-4.465-1.361-1.568-7.032-1.545-7.432c.252-4.537-2.219-4.2.563-7.487A4.738,4.738,0,0,0,841.692,1934.383Z" fill="#f79b69" fill-rule="evenodd"/>
          <path id="パス_4418" data-name="パス 4418" d="M848.091,1949.553c1.481,2.176,1.885,3.388,1.227,4.6-.367.671-1.774.886-3.34.679a11.577,11.577,0,0,1-3.71-1.037,16.9,16.9,0,0,1-.8-1.625,71.673,71.673,0,0,0-1.522-7.852l-.344,6.591-.6-.1a58.58,58.58,0,0,0-.624-7.213c-.125-.814-.459-1.616-.485-2.065-.111-1.955,1.428-3.167,2.612-4.53.542,3.619.438,11.148,3.884,13.023A3.19,3.19,0,0,0,848.091,1949.553Z" fill="#c0301e" fill-rule="evenodd"/>
          <path id="パス_4419" data-name="パス 4419" d="M833.659,1940.278c-1.127-9.184-2.65-15.163-2.064-21.216.371-3.844.575-6.457.649-8.474.687-18.3,9.9-9.034,9.411-.914-.1,3.877-1.185,5.746-1.225,8.636-.089,6.9-1.149,13.649-1.852,20.635.073,2.062.32,4.059.489,5.935.344,3.846.128,5.656.8,7.8a24.351,24.351,0,0,0,1.753,3.572s-2.788,1.314-3.1,1.342-4.465-1.362-4.465-1.362-1.569-7.031-1.546-7.431c.252-4.537-2.218-4.195.564-7.487A3.784,3.784,0,0,0,833.659,1940.278Z" fill="#fab585" fill-rule="evenodd"/>
          <path id="パス_4420" data-name="パス 4420" d="M840.462,1953.848c1.48,2.175,1.885,3.387,1.226,4.6-.365.671-1.773.885-3.34.68a11.635,11.635,0,0,1-3.71-1.038,17.473,17.473,0,0,1-.8-1.624,71.183,71.183,0,0,0-1.523-7.854l-.344,6.592-.6-.1a58.525,58.525,0,0,0-.623-7.211c-.126-.815-.46-1.617-.485-2.066-.111-1.955,1.427-3.166,2.612-4.529.541,3.618.437,11.148,3.883,13.022A3.191,3.191,0,0,0,840.462,1953.848Z" fill="#c0301e" fill-rule="evenodd"/>
        </g>
        <path id="パス_4421" data-name="パス 4421" d="M833.47,1872.366a7.427,7.427,0,0,1-1.335,3.405,33.943,33.943,0,0,0-3.1,8.475c-1.4,8.9.505,13.071,1.227,28.57,0,0,2.578,2.365,3.738,2.427,8.12.432,14.118-4.761,15.623-6.209,3.521-26.5,2.431-25.641,1.071-30.906-.74-2.869-2.237-5.481-2.047-6.821C844.819,1874.975,838.512,1875.091,833.47,1872.366Z" fill="#002b6a" fill-rule="evenodd"/>
        <path id="パス_4422" data-name="パス 4422" d="M844.069,1815.93c3.534.341,5.957,1.245,6.858,3.027,2.806,5.551,1.92,11.292-4.67,18.365-2.7-.99-4.053,1.077-8.382-11.554Z" fill="#05345e" fill-rule="evenodd"/>
        <path id="パス_4423" data-name="パス 4423" d="M838.173,1831.806c.149,1.529,2.174,4.486.341,8.234l8.61,10.793-.356-8.272c-.515-3.3-.9-5.661-.094-8.545Z" fill="#f8a773" fill-rule="evenodd"/>
        <path id="パス_4424" data-name="パス 4424" d="M839.124,1844.663l-5.26-.175,14.766,17.043,4.908-6.509-2.288-9.072-2.557-2.557-2.209,3.653Z" fill="#dbfff9" fill-rule="evenodd"/>
        <path id="パス_4425" data-name="パス 4425" d="M851.262,1877.642c-1.541-5.968-1.622-11.433.532-16.489a10.976,10.976,0,0,0,2.076-3.244,18.185,18.185,0,0,0,.24-2.856s-1.278-5.762-2.288-9.072c-.591-1.936-.677-2.774-1.5-3.934a5.944,5.944,0,0,0-2.395-1.714c-.105-.04,1.384,10.89,1.384,10.89s-5.725,22.17-3.186,26.573c0,0,1.014,2.3,1.723,2.259C849.1,1879.975,851.262,1877.642,851.262,1877.642Z" fill="#013470" fill-rule="evenodd"/>
        <g id="グループ_2997" data-name="グループ 2997">
          <path id="パス_4426" data-name="パス 4426" d="M842.131,1842.543l4.636-1.936v1.954l-1.3,1.851Z" fill="#c0301e" fill-rule="evenodd"/>
          <path id="パス_4427" data-name="パス 4427" d="M842.649,1842.327l4.033-2.381.037.958Z" fill="#e23d1e" fill-rule="evenodd"/>
          <path id="パス_4428" data-name="パス 4428" d="M840.2,1841.319c.068.181,6.033,1.519,6.033,1.519l-1.965,2.626-2.485-1.773Z" fill="#ff6835" fill-rule="evenodd"/>
          <path id="パス_4429" data-name="パス 4429" d="M846.484,1841.323l-.871,2.1-2.263,1.729,3.134,1.888.176-3.981Z" fill="#e23d1e" fill-rule="evenodd"/>
        </g>
        <path id="パス_4430" data-name="パス 4430" d="M837.787,1840.607a11.527,11.527,0,0,1-4.389,3.664,4.952,4.952,0,0,0-2.488,4.27c-.334,3.471,1.087,8.12,1.947,11.74.79,3.325,1.427,6.251.84,7.979-1.123,3.312-6.328,10.649-5.145,16.505,0,0,7.148.086,11.679-1.656,2.194-.843,4.946-1.96,5.879-4.277,2.86-7.1,1.333-22.585,1.333-22.585l-3.258-5.12S838.963,1842.307,837.787,1840.607Z" fill="#0f447a" fill-rule="evenodd"/>
        <path id="パス_4431" data-name="パス 4431" d="M838.591,1838.907l3.194,4.784,4.7,3.354-4.7,2.873-4.007-8.755Z" fill="#fff" fill-rule="evenodd"/>
        <path id="パス_4432" data-name="パス 4432" d="M846.235,1838.859l.426,4.2-.176,3.981,3.36.951-2-8Z" fill="#fff" fill-rule="evenodd"/>
        <path id="パス_4433" data-name="パス 4433" d="M834.237,1885.572l-2.363,3.511-.243,4.219,3.2,1.993,1.372-.434v-5.228Z" fill="#fab585" fill-rule="evenodd"/>
        <path id="パス_4434" data-name="パス 4434" d="M834.538,1845.975a12.246,12.246,0,0,0-2.307-.8c-.114.132-2.107.193-3.033,4.858s-4.285,18.157-4.285,18.157l5.875,21.279,4.465-2.878-3.1-19.2,3.033-13.377.064-5.6Z" fill="#155588" fill-rule="evenodd"/>
        <path id="パス_4435" data-name="パス 4435" d="M849.377,1818.387c2.925,5.274,1.242,12.646,1.242,12.646l-1.4,3.9-1.957,3.522-2.714.142-4.667-3.017-.682-2.192s-3.087-.59-3.176-1.234l-1.49-10.786Z" fill="#fab585" fill-rule="evenodd"/>
        <path id="パス_4436" data-name="パス 4436" d="M839.218,1830.967a4.389,4.389,0,0,0-.662-2.208l-1.115-.36a2.293,2.293,0,0,0-.832.409l-.14,1.426s1.225,2.744,1.753,2.961c.872.806,1.029,3.024.533,4.576-3.261-.412-6.76-7.052-6.774-12.234-.017-6.739,4.451-12.66,13.113-10.539a6.367,6.367,0,0,1,5.336,4.535C852.035,1825.739,841.513,1826.248,839.218,1830.967Z" fill="#002b6a" fill-rule="evenodd"/>
        <path id="パス_4437" data-name="パス 4437" d="M835.253,1816.974l2.526-4.887,1.22-.978h3.82l3.665,2.933s2.691,4.5,2.691,5.286a49.637,49.637,0,0,1-1.136,4.99l-1.912.945-5.662-3.1Z" fill="#e23d1e"/>
        <path id="パス_4438" data-name="パス 4438" d="M846.127,1820.208l-8.348-8.121,1.221-.978,6.006,6.066,1.122-1.517-1.443-3.058,2.441,3.329Z" fill="#c0301e"/>
        <path id="パス_4439" data-name="パス 4439" d="M846.576,1861.254c0,.485-.243.878-.543.878s-.543-.393-.543-.878.243-.877.543-.877S846.576,1860.77,846.576,1861.254Z" fill="#f0ae00"/>
        <path id="パス_4440" data-name="パス 4440" d="M846.915,1865.962c0,.484-.243.877-.542.877s-.543-.393-.543-.877.243-.878.543-.878S846.915,1865.477,846.915,1865.962Z" fill="#f0ae00"/>
        <path id="パス_4441" data-name="パス 4441" d="M846.881,1870.7c-.028.484-.292.862-.592.845s-.52-.423-.492-.906.292-.863.591-.846S846.908,1870.215,846.881,1870.7Z" fill="#f0ae00"/>
        <path id="パス_4442" data-name="パス 4442" d="M846.361,1875.23c-.1.475-.416.81-.709.749s-.452-.495-.354-.969.416-.81.71-.749S846.46,1874.756,846.361,1875.23Z" fill="#f0ae00"/>
        <path id="パス_4443" data-name="パス 4443" d="M846.778,1821.792l-.572-.553-1.827,1.234,2.487-.133,1.224-2.131-.692.35Z" fill="#f2af00"/>
      </g>
    </g>
  </g>
</svg>
