<svg xmlns="http://www.w3.org/2000/svg" width="158.933" height="54.336" viewBox="0 0 158.933 54.336">
  <g id="グループ_4328" data-name="グループ 4328" transform="translate(-196.63 -2005.977)">
    <g id="グループ_2678" data-name="グループ 2678" transform="translate(-1526)">
      <path id="パス_3494" data-name="パス 3494" d="M1726.606,2018.8c-2.2,0-2.964.049-3.112.049-.247,0-.272-.025-.272-.272v-2.025c0-.248.025-.272.272-.272.148,0,.914.049,3.112.049h6.349a25.174,25.174,0,0,0-.2-3.088c.469.05.988.074,1.482.148a26.716,26.716,0,0,0,4.175-3.384h-8.968c-2.421,0-3.26.049-3.409.049-.247,0-.271-.024-.271-.271v-1.952c0-.247.024-.272.271-.272.149,0,.988.05,3.409.05h10.475a1.3,1.3,0,0,0,.42-.1.752.752,0,0,1,.321-.074c.148,0,.346.074,1.087.79.766.766.914,1.013.914,1.285,0,.222-.148.4-.42.543a4.221,4.221,0,0,0-1.062.865,28.584,28.584,0,0,1-5.509,4.348v1.062h6.151c2.2,0,2.965-.049,3.113-.049.247,0,.271.024.271.272v2.025c0,.247-.024.272-.271.272-.148,0-.915-.049-3.113-.049h-6.151v2.816c0,1.8.049,3.038.049,3.9a2.778,2.778,0,0,1-1.037,2.594c-.717.544-1.8.642-4.472.642-.766,0-.766.025-.939-.765a8.893,8.893,0,0,0-.914-2.076,29.171,29.171,0,0,0,3.434.173c.79,0,1.161-.346,1.161-1.21V2018.8Z" fill="#1482ca"/>
      <path id="パス_3495" data-name="パス 3495" d="M1755.21,2008.028c.3.074.445.2.445.4,0,.346-.173.692-.173,1.037,0,.495.074,1.087.123,1.656a34.9,34.9,0,0,0,.791,4.249c1.235-.667,2.125-1.136,3.508-1.878a6.113,6.113,0,0,0,1.7-1.334,12.727,12.727,0,0,1,1.8,2.322,1,1,0,0,1,.172.519c0,.247-.147.445-.493.494a11.909,11.909,0,0,0-2.372.741,34.383,34.383,0,0,0-5.805,2.891c-2.15,1.408-2.915,2.569-2.915,3.73,0,1.433,1.012,2.075,4.1,2.075a43.927,43.927,0,0,0,7.361-.568c.272-.049.395,0,.445.3a21.831,21.831,0,0,1,.247,2.3c.025.272-.148.395-.445.42a52.865,52.865,0,0,1-7.362.37c-4.669,0-7.139-1.531-7.139-4.743,0-2.742,1.8-4.545,4.694-6.373a37.508,37.508,0,0,1-1.285-6.028,11.045,11.045,0,0,0-.642-2.866A14.259,14.259,0,0,1,1755.21,2008.028Zm8.078.3c.124-.1.223-.074.371.05a11.356,11.356,0,0,1,2.347,2.643.25.25,0,0,1-.074.4l-1.038.766a.258.258,0,0,1-.42-.074,12.264,12.264,0,0,0-2.495-2.866Zm2.2-1.606c.148-.1.222-.074.37.05a10.307,10.307,0,0,1,2.347,2.544.285.285,0,0,1-.074.445l-.988.766a.253.253,0,0,1-.42-.074,11.651,11.651,0,0,0-2.471-2.841Z" fill="#1482ca"/>
      <path id="パス_3496" data-name="パス 3496" d="M1776.206,2022.677c0,2.273.988,3.162,3.285,3.162,2.891,0,4.5-1.111,4.5-3.335,0-1.383-.345-2.52-2.223-4.5a7.876,7.876,0,0,0,2.52-.148.568.568,0,0,1,.519.1,6.443,6.443,0,0,1,2.1,4.645c0,3.508-2.865,5.781-7.114,5.781-4.373,0-6.225-1.977-6.225-5.583,0-.519.073-1.211.172-2.322a19.489,19.489,0,0,1-3.36-.742c-.172-.049-.247-.173-.271-.469a14.353,14.353,0,0,1-.05-2.3,15.423,15.423,0,0,0,4,.964c.124-.914.321-2.52.421-3.533a17.2,17.2,0,0,1-3.558-.692c-.3-.074-.4-.2-.4-.419-.024-.593-.073-1.409-.073-2.3a20.037,20.037,0,0,0,4.471.939c.2-1.433.272-2.1.321-2.841a11.479,11.479,0,0,0-.025-2.075,14.6,14.6,0,0,1,2.965.692c.346.123.544.345.544.568a.724.724,0,0,1-.2.469,2.417,2.417,0,0,0-.445,1.062c-.124.569-.271,1.408-.4,2.322a14.045,14.045,0,0,0,3.039-.148c.172,0,.247.124.247.3a11.6,11.6,0,0,1-.05,1.852c0,.272-.1.346-.395.371a24.408,24.408,0,0,1-3.286.124c-.148.864-.4,2.544-.543,3.532,1.309.025,2.322,0,3.508-.074.321-.049.4.05.4.272a16.459,16.459,0,0,1-.124,1.853c-.024.3-.1.4-.346.4-1.235.1-2.519.1-3.779.074A15.119,15.119,0,0,0,1776.206,2022.677Z" fill="#1482ca"/>
      <path id="パス_3497" data-name="パス 3497" d="M1797.027,2029.471h-1.556l10.054-23.494h1.557Z" fill="#1482ca"/>
      <path id="パス_3498" data-name="パス 3498" d="M1736.118,2042.23a3.643,3.643,0,0,0,1.7-.222.41.41,0,0,1,.271-.1.819.819,0,0,1,.42.2,8.965,8.965,0,0,1,1.606,1.73.658.658,0,0,1,.124.321.682.682,0,0,1-.322.494,4.529,4.529,0,0,0-.914,1.087,38.787,38.787,0,0,1-3.162,4.619,57.97,57.97,0,0,1,6.843,5.979.559.559,0,0,1,.2.346.612.612,0,0,1-.173.37,13.2,13.2,0,0,1-1.655,1.68.426.426,0,0,1-.3.148.507.507,0,0,1-.345-.2,45.04,45.04,0,0,0-6.423-6.127,35.546,35.546,0,0,1-8.3,6.522,1.557,1.557,0,0,1-.568.2.55.55,0,0,1-.42-.223,6.766,6.766,0,0,0-2.075-1.6,30.032,30.032,0,0,0,8.7-6.3,30.334,30.334,0,0,0,4.644-6.2l-6.374.025c-1.284,0-2.569.049-3.9.148-.2.025-.272-.148-.321-.42a14.337,14.337,0,0,1-.223-2.569c1.334.1,2.57.1,4.175.1Z" fill="#1482ca"/>
      <path id="パス_3499" data-name="パス 3499" d="M1752.073,2050.728c.4.272.544.519.1.865a2.314,2.314,0,0,0-.618.84,19.026,19.026,0,0,1-2.742,4.125c-.3.321-.494.395-.865.149a7.186,7.186,0,0,0-2.1-1.038,16.516,16.516,0,0,0,2.989-4.076,5.478,5.478,0,0,0,.667-2A11.5,11.5,0,0,1,1752.073,2050.728Zm3.286-6.793a19.079,19.079,0,0,0-.272-3.805c1.161.1,2.446.247,3.063.37.495.1.544.346.3.816a5.747,5.747,0,0,0-.247,2.47v1.31h3.038c2.15,0,3.829-.1,5.04-.149.222-.024.321.124.321.4a16.509,16.509,0,0,1-.025,1.927c-.024.321-.1.494-.345.469-1.532-.05-3.41-.124-5.089-.124h-2.915l.024,4.99c0,1.31.049,2.372.049,4.3a2.57,2.57,0,0,1-1.457,2.544,7.671,7.671,0,0,1-3.162.816c-.3,0-.445-.149-.593-.519a5.773,5.773,0,0,0-1.655-2.223,12.284,12.284,0,0,0,3.36-.3c.4-.173.568-.444.568-1.087v-8.523h-3.879c-1.408,0-3.112.074-4.273.173-.223,0-.322-.2-.322-.494-.025-.444-.1-1.556-.1-2.371,1.877.148,3.384.173,4.644.173h3.928Zm7.263,5.9a.428.428,0,0,1,.691.1,19.046,19.046,0,0,1,3.533,4.52c.222.371.148.544-.123.766a13.638,13.638,0,0,1-1.656,1.235c-.272.173-.4.223-.568-.1a23.91,23.91,0,0,0-3.755-5.188C1761.411,2050.679,1762.054,2050.259,1762.622,2049.839Zm4.891-8.77a2.668,2.668,0,0,1-5.336,0,2.605,2.605,0,0,1,2.668-2.643A2.635,2.635,0,0,1,1767.513,2041.069Zm-4.125,0a1.458,1.458,0,1,0,1.457-1.458A1.414,1.414,0,0,0,1763.388,2041.069Z" fill="#1482ca"/>
      <path id="パス_3500" data-name="パス 3500" d="M1774.9,2051.766a19.79,19.79,0,0,0-3.631.3c-.3,0-.494-.148-.568-.519a26.7,26.7,0,0,1-.371-2.989,31.73,31.73,0,0,0,5.337.3h7.954c1.878,0,3.78-.05,5.682-.075.37-.024.445.05.445.346a18.376,18.376,0,0,1,0,2.322c0,.3-.1.4-.445.371-1.853-.025-3.681-.049-5.509-.049Z" fill="#1482ca"/>
      <path id="パス_3501" data-name="パス 3501" d="M1795.25,2042.65a.46.46,0,0,1,.667.173,19.868,19.868,0,0,1,2.766,4.669.925.925,0,0,1,.1.321c0,.148-.1.247-.3.371a15.217,15.217,0,0,1-1.9.963c-.37.148-.519-.025-.642-.371a19.681,19.681,0,0,0-2.89-4.99A19.342,19.342,0,0,1,1795.25,2042.65Zm17.292.371a.568.568,0,0,1,.272.494.609.609,0,0,1-.2.42,4.9,4.9,0,0,0-.963,1.63,38.082,38.082,0,0,1-4.793,8.4,26.611,26.611,0,0,1-6.522,6.127,1.041,1.041,0,0,1-.568.222.719.719,0,0,1-.42-.173,7.593,7.593,0,0,0-2.371-1.161,28.378,28.378,0,0,0,7.337-6.521,29.666,29.666,0,0,0,4.273-7.659,11.136,11.136,0,0,0,.717-3.236A17.6,17.6,0,0,1,1812.542,2043.021Zm-10.845-1.9a.458.458,0,0,1,.642.2,20.469,20.469,0,0,1,2.421,4.57.482.482,0,0,1-.247.692,16.438,16.438,0,0,1-1.877.889c-.4.148-.544.1-.667-.3a19.829,19.829,0,0,0-2.545-4.99C1800.166,2041.834,1800.956,2041.439,1801.7,2041.118Z" fill="#1482ca"/>
    </g>
    <g id="グループ_2713" data-name="グループ 2713" transform="translate(-1526)">
      <path id="パス_3756" data-name="パス 3756" d="M1870.486,2041.937l10.258,7.915-10.258,7.915" fill="none" stroke="#1482ca" stroke-miterlimit="10" stroke-width="1"/>
      <line id="線_80" data-name="線 80" x1="17.1" transform="translate(1864.12 2049.852)" fill="none" stroke="#1482ca" stroke-miterlimit="10" stroke-width="1"/>
    </g>
  </g>
</svg>
