<svg xmlns="http://www.w3.org/2000/svg" width="163" height="181.748" viewBox="0 0 163 181.748">
  <g id="グループ_4314" data-name="グループ 4314" transform="translate(-761 -1492.252)">
    <circle id="楕円形_115" data-name="楕円形 115" cx="81.5" cy="81.5" r="81.5" transform="translate(761 1511)" fill="#1482ca" opacity="0.3"/>
    <g id="グループ_2969" data-name="グループ 2969">
      <path id="パス_4252" data-name="パス 4252" d="M841.938,1638c-5.5,2.349-6,11.965-13.372,10.223-8.1-1.913-11.656-7.327-11.179-11.143,1.17-9.36,22.967-11.536,26.66-8.332C847.416,1631.67,846.931,1635.865,841.938,1638Z" fill="rgba(0,0,0,0.3)" opacity="0.37"/>
      <g id="グループ_2968" data-name="グループ 2968">
        <path id="パス_4253" data-name="パス 4253" d="M854.4,1599.755l-2.447.569-1.324.948s-2.986,6.826-2.637,7.175a24.031,24.031,0,0,1,1.522,2.538l5.583-4.568Z" fill="#f79b69"/>
        <path id="パス_4254" data-name="パス 4254" d="M852.056,1611.238l-.473-2.216-1.518,0-.223-5.9.79-1.852-6.38-2.533-3.413,12.517-.9,4.993.518,4.818,3.733,0,2.6-6.018,1.666-2.186Z" fill="#fff"/>
        <path id="パス_4255" data-name="パス 4255" d="M857,1564.775l-16.461-2.45,7.214,16.874,17.582,8.112-5.944,1.658-8.374,10.576,3.422,9.071,23.944-19.865v-6.96Z" fill="#00489d"/>
        <path id="パス_4256" data-name="パス 4256" d="M823.3,1628.147l-1.762,3.29,2.06,12.19,6.606,3.075,3.644-2.551v-2.366l-1.935-1.379-.75-4.036.882-3.572-1.05-.356-.26-6.056Z" fill="#fff"/>
        <path id="パス_4257" data-name="パス 4257" d="M828.772,1621.072l-2.792,6.281-1.427,1.713v2.673l1.713,3.868s1.2-3.211,1.632-3.354a13.024,13.024,0,0,1,2.523.113h0l.534-.929,5.811-5.8Z" fill="#f79b69"/>
        <path id="パス_4258" data-name="パス 4258" d="M831.254,1569.809l-1.467,8.952,5.9,26.609-3.358,4.536-5.583,12.494v4.763l5.607,4.274,3.787-3.064,12.6-18.681-.984-30.493,3.424-3.937,2.03-5.72,3.793-4.767-2.634-4.57C844.562,1564.136,831.254,1569.809,831.254,1569.809Z" fill="#0056bb"/>
        <path id="パス_4259" data-name="パス 4259" d="M819.445,1526.6l-5.425,1.9-5.368,2.446H803.1l-19.175,4.8.362,4.982,20.381-.86,3.618-1.853,7.959-.965Z" fill="#fab585"/>
        <path id="パス_4260" data-name="パス 4260" d="M834.361,1513.82l-1.076,3.112c-.307.352-.019,8.755-.019,8.755h14.489v-7.615l-10.406-8.591Z" fill="#f79b69"/>
        <path id="パス_4261" data-name="パス 4261" d="M859.394,1509.481c.487-1.213.275-4.449.275-4.449l1.565-3.857s4.513-6.035,9.044-1.086l-7.627,17.7Z" fill="#f79b69"/>
        <path id="パス_4262" data-name="パス 4262" d="M829.787,1543.992l.39,6.306,3.1,9.236-2.022,10.275,2.91,2.157,5.773-2.03,16.282-6.909-3.109-15.8Z" fill="#f79b69"/>
        <path id="パス_4263" data-name="パス 4263" d="M855.1,1564.492l1.119-1.466-.56-2.821-13.656,7.352-7.27.793-2.951-1.237-.531,2.7,2.91,2.157,7.841-.761Z" fill="#00489d"/>
        <path id="パス_4264" data-name="パス 4264" d="M846,1562.955l1.015,5.87,5.044-2.474-.522-4.591Z" fill="#3576ab"/>
        <path id="パス_4265" data-name="パス 4265" d="M859.793,1504.029l-4.72,8.019-4.487,1.785-3.57,5.326,6.1,13.491,1.921,3.99,2.211-5.472,5.531-11.608,2.562-5.033Z" fill="#fff"/>
        <path id="パス_4266" data-name="パス 4266" d="M846.505,1517.04l-.508,6.01L842.6,1525.4l-6.233-.4-2.661-3.925.652-7.253-2.368,4.722-1.094,1.31,5.685,10.689,10.636,11.138,4.986-2.223.905-12.993-4.438-10.592Z" fill="#fff"/>
        <path id="パス_4267" data-name="パス 4267" d="M857.784,1558.959,855.1,1550.3l2.143-19.129-1.975-9.5-5.158-6.793-5.506-.691,4.334,9.571.73,5.6-.8,8.922-5.985-7.166L836.37,1525l-4.376-6.456c-4.056,4-4.329,4.5-8.276,8.023.262,1.635,3.912,23.733,3.912,23.733l-2.284,12.109,10.888,4.822,9.668.55Z" fill="#fff"/>
        <path id="パス_4268" data-name="パス 4268" d="M776.694,1535.957l7.488-.207,3.366,2.527v2.213l-4.3.772-3.133,1.236-.813,1.391-2.689.1-2.141-1.751-.733-1.693-1.381,1.025-.619-.447,1.072-3.073Z" fill="#fab585"/>
        <path id="パス_4269" data-name="パス 4269" d="M813.737,1527.69l11.379-5.5h3.239l2.544,3.4v8.036l-1.83,2.229-5.438.79-8.467,1.7Z" fill="#fff"/>
        <path id="パス_4270" data-name="パス 4270" d="M836.489,1500.319l8.263,2.823,2.714,3.646.289,3.446-.613,3.827-.954.494-.734,2.806-3.449,4.223-4.1.607-5.552-7.517s-.745-2.708-1.032-3.471.4-5.413.4-5.413Z" fill="#fab585"/>
        <path id="パス_4271" data-name="パス 4271" d="M837.495,1496.894c-8.8.708-8.325,11.138-8.325,11.138l1.348,4.055.071,1.659,1.479-.937a3.456,3.456,0,0,1-.363-1.109c-1.5-5.978,3.919-6.668,3.919-6.668s3.5,2.6,5.52,1.142c1.07-.774,3.679,3.934,3.679,3.934s1.46-3.363,2.932.126c2.627-3.547.551-10.144.551-10.144S843.081,1492.894,837.495,1496.894Z" fill="#663f30"/>
        <path id="パス_4272" data-name="パス 4272" d="M788.453,1534.279l-4.522,1.47,1.393,5.139,4.938-.409Z" fill="#e23d1e"/>
        <path id="パス_4273" data-name="パス 4273" d="M837.333,1501.829l5.871.9,2.641-3.137,2.311-.825,3.714-2.311-3.714-3.8-6.438.66-4.385,4.375Z" fill="#f79b69"/>
        <path id="パス_4274" data-name="パス 4274" d="M846.505,1494.641l1.651-1.981,13.7.66,7.594,2.972.825,3.8-2.765,1.74h-7.305l-8.337-5.372Z" fill="#f79b69"/>
        <path id="パス_4275" data-name="パス 4275" d="M849.969,1492.748l3.143,1.182v1.755l-.726,1.106,2.1,1.35,1.048-1.451.238-3.045-2.656-1.237-2.545-.154Z" fill="#e23d1e"/>
      </g>
    </g>
  </g>
</svg>
