<svg xmlns="http://www.w3.org/2000/svg" width="148.356" height="58.389" viewBox="0 0 148.356 58.389">
  <g id="グループ_2197" data-name="グループ 2197" transform="translate(-802.333 -1720.319)">
    <g id="グループ_246" data-name="グループ 246">
      <path id="パス_572" data-name="パス 572" d="M803.919,1727.911c.183-.233.286-.26.52-.13a22.776,22.776,0,0,1,3.77,2.678.277.277,0,0,1,.131.234.445.445,0,0,1-.131.286l-1.17,1.586c-.13.182-.208.26-.286.26s-.13-.052-.233-.13a19.48,19.48,0,0,0-3.745-2.885c-.1-.079-.156-.13-.156-.208s.052-.157.156-.287Zm.026,12.948a41.393,41.393,0,0,0,2.392-6.265,13.683,13.683,0,0,0,1.509,1.3c.416.286.546.416.546.65a2.794,2.794,0,0,1-.13.6,56.962,56.962,0,0,1-2.211,5.876,6.88,6.88,0,0,0-.39,1.014c-.052.208-.156.338-.311.338a.982.982,0,0,1-.469-.13,15.26,15.26,0,0,1-2.132-1.43A8.948,8.948,0,0,0,803.945,1740.859Zm1.144-19.474c.208-.26.286-.26.494-.13a22.674,22.674,0,0,1,3.744,2.756c.183.156.208.234-.025.546l-1.171,1.587c-.182.259-.234.286-.468.1a18.852,18.852,0,0,0-3.744-3.016c-.233-.129-.233-.182,0-.468Zm7.644,12.974c-2.547,0-3.458.052-3.614.052-.26,0-.286-.025-.286-.311v-2.029c0-.259.026-.286.286-.286.156,0,1.067.053,3.614.053h2.991v-3.8H813.93c-2.5,0-3.355.053-3.485.053-.259,0-.286-.027-.286-.286v-2c0-.26.027-.285.286-.285.13,0,.989.051,3.485.051h1.794v-1.144a25.15,25.15,0,0,0-.182-3.458c.987.026,1.9.078,2.756.156.26.026.416.156.416.313a1.388,1.388,0,0,1-.13.519,7.68,7.68,0,0,0-.183,2.393v1.221h2.835c2.5,0,3.354-.051,3.51-.051.26,0,.286.025.286.285v2c0,.259-.026.286-.286.286-.156,0-1.014-.053-3.51-.053H818.4v3.8h3.9c2.548,0,3.458-.053,3.614-.053.234,0,.26.027.26.286v2.029c0,.286-.026.311-.26.311-.156,0-1.066-.052-3.614-.052h-5.226a62.758,62.758,0,0,1-2.289,6.111c2.289-.208,4.343-.443,6.449-.754-.6-.884-1.248-1.742-1.9-2.548-.182-.234-.156-.313.156-.494l1.4-.832c.261-.156.339-.13.521.052a33.676,33.676,0,0,1,4.6,6.708c.13.259.13.286-.182.494l-1.612.962a.721.721,0,0,1-.338.156c-.078,0-.13-.078-.182-.208-.364-.7-.728-1.4-1.118-2.107-3.848.651-7.254,1.093-11.467,1.509a2.586,2.586,0,0,0-.962.234.807.807,0,0,1-.468.182c-.208,0-.337-.156-.416-.416a23.477,23.477,0,0,1-.572-2.574,27.223,27.223,0,0,0,2.731-.1,2.328,2.328,0,0,0,.416-.025,41.047,41.047,0,0,0,2.339-6.345Z" fill="#1482ca"/>
      <path id="パス_573" data-name="パス 573" d="M841.854,1723.179a14.781,14.781,0,0,0-.182-2.47c.935.026,1.794.078,2.652.182.26.026.416.156.416.286a1.257,1.257,0,0,1-.131.494,3.429,3.429,0,0,0-.181,1.508h1.716c2.522,0,3.718-.052,3.874-.052.26,0,.286.026.286.286,0,.156-.052.962-.052,2.678v.832c1.17,0,1.872-.052,2.028-.052.26,0,.286.026.286.313v1.923c0,.26-.026.287-.286.287-.156,0-.858-.052-2.028-.052v.754c0,1.794.052,2.626.052,2.781,0,.261-.026.286-.286.286-.156,0-1.352-.052-3.874-.052h-1.716v1.691H847.1c2.471,0,3.3-.052,3.485-.052.26,0,.286.025.286.285v1.639c0,.26-.026.286-.286.286-.182,0-1.014-.053-3.485-.053h-2.677v1.742h4.056c2.548,0,3.432-.051,3.562-.051.286,0,.312.026.312.286v1.716c0,.259-.026.286-.312.286-.13,0-1.014-.052-3.562-.052h-4.056c0,2.184.051,3.354.051,3.458,0,.26-.025.286-.259.286h-2.132c-.26,0-.286-.026-.286-.286,0-.13.026-1.274.052-3.458h-2.991c-2.574,0-3.458.052-3.614.052-.26,0-.286-.027-.286-.286v-1.716c0-.26.026-.286.286-.286.156,0,1.04.051,3.614.051h2.991v-1.742h-2.106c-2.471,0-3.276.053-3.433.053-.259,0-.286-.026-.286-.286v-1.639c0-.26.027-.285.286-.285.157,0,.962.052,3.433.052h2.106v-1.691h-1.846c-2.185,0-2.887.052-3.069.052-.259,0-.286-.025-.286-.286v-1.638c0-.26.027-.286.286-.286.182,0,.884.053,3.069.053h1.846v-1.795H839.8c-2.445,0-3.277.053-3.433.053-.26,0-.286-.027-.286-.313v-.13a.7.7,0,0,1-.208.157,1.882,1.882,0,0,0-.649.7c-.365.624-.807,1.273-1.275,1.924v9.49c0,2.08.027,3.068.027,3.2,0,.26-.027.286-.261.286h-2.054c-.286,0-.286-.026-.286-.286,0-.156.026-1.118.026-3.2v-3.823c0-.753,0-1.793.027-2.73a18.443,18.443,0,0,1-1.483,1.379c-.259.208-.442.338-.572.338s-.234-.156-.338-.546a6.092,6.092,0,0,0-.832-1.847,22.172,22.172,0,0,0,5.019-5.616,9.637,9.637,0,0,0,.7-1.352,16.419,16.419,0,0,1,1.871,1.17,1.451,1.451,0,0,1,.286.312v-1.117c0-.261.026-.286.286-.286.156,0,.988.051,3.433.051h2.054v-1.664h-1.483c-2.392,0-3.224.052-3.38.052-.26,0-.286-.026-.286-.286v-1.716c0-.26.026-.286.286-.286.156,0,.988.052,3.38.052Zm-6.084-1.144c.208.156.337.286.337.468a.365.365,0,0,1-.259.364,2.246,2.246,0,0,0-.781.651,24.014,24.014,0,0,1-4.471,4.393c-.286.235-.469.364-.6.364-.156,0-.286-.208-.494-.624a5.434,5.434,0,0,0-1.065-1.456,18.437,18.437,0,0,0,4.523-4.056,6.8,6.8,0,0,0,.807-1.274A13.017,13.017,0,0,1,835.77,1722.035Zm8.658,3.328v1.664h3.328v-1.664Zm3.328,3.848h-3.328v1.795h3.328Z" fill="#1482ca"/>
      <path id="パス_574" data-name="パス 574" d="M862.107,1745.046h-1.638l10.583-24.727h1.637Z" fill="#1482ca"/>
      <path id="パス_575" data-name="パス 575" d="M889.1,1729.186c.338-.13.416-.079.546.181a23.644,23.644,0,0,1,1.742,4.681c.078.286,0,.363-.313.468l-1.3.389c-.312.1-.389.078-.442-.208l-.286-1.118-1.611.156v7.151c0,2.391.051,3.276.051,3.406,0,.26-.026.286-.286.286h-1.975c-.261,0-.286-.026-.286-.286,0-.156.051-1.015.051-3.406v-6.916l-2.366.155a2.391,2.391,0,0,0-.962.209.866.866,0,0,1-.389.13c-.183,0-.235-.183-.287-.443a21.152,21.152,0,0,1-.364-2.183,21.167,21.167,0,0,0,2.21.052c.494-.624.988-1.3,1.456-1.977a39.495,39.495,0,0,0-3.484-3.769c-.1-.105-.155-.157-.155-.235s.077-.181.181-.338l.91-1.3c.1-.156.182-.234.26-.234s.13.052.234.156l.676.7a26.116,26.116,0,0,0,1.405-2.679,8,8,0,0,0,.6-1.612,20.777,20.777,0,0,1,2.21.936c.26.13.338.26.338.416,0,.13-.1.234-.233.338a1.588,1.588,0,0,0-.495.624,35.625,35.625,0,0,1-2.288,3.588c.416.469.832.91,1.222,1.378.6-.962,1.17-1.924,1.742-2.886a13.265,13.265,0,0,0,.781-1.794,24.126,24.126,0,0,1,2.183,1.118c.235.13.313.234.313.39,0,.183-.078.286-.286.391a3.188,3.188,0,0,0-.859,1.04c-1.326,2.1-2.729,4.082-3.926,5.641.936-.052,1.872-.13,2.809-.208-.183-.494-.391-1.014-.625-1.508-.1-.259-.1-.311.261-.467Zm-7.437,7.748a6.777,6.777,0,0,0,.027-1.456c.649.078,1.559.259,2,.364.311.078.441.181.441.311a.693.693,0,0,1-.13.365,3.135,3.135,0,0,0-.155.858,30.172,30.172,0,0,1-.91,4.836c-.131.416-.208.572-.365.572a1.1,1.1,0,0,1-.467-.208,9.024,9.024,0,0,0-1.483-.677A21.132,21.132,0,0,0,881.659,1736.934Zm8.112-1.43c.313-.078.338-.053.443.233a22.522,22.522,0,0,1,.962,4.343c.025.285,0,.363-.338.468l-1.248.338c-.416.1-.443.078-.469-.182a28.423,28.423,0,0,0-.832-4.5c-.078-.285,0-.338.313-.416Zm8.685,2.521v3.433H900.9c2.47,0,3.3-.052,3.432-.052.286,0,.313.026.313.26v1.846c0,.259-.027.286-.313.286-.13,0-.962-.052-3.432-.052h-7.125c-2.5,0-3.328.052-3.484.052-.26,0-.285-.027-.285-.286v-1.846c0-.234.025-.26.285-.26.156,0,.988.052,3.484.052h2.133v-3.433H895.1c-2.21,0-2.964.053-3.121.053-.259,0-.286-.026-.286-.286v-1.742c0-.261.027-.286.286-.286.157,0,.911.051,3.121.051h.806v-.572a13.61,13.61,0,0,0-.156-2.7c.962.026,1.689.105,2.574.208.26.026.416.156.416.286a1.171,1.171,0,0,1-.131.469,4.373,4.373,0,0,0-.155,1.611v.7h1.508c2.21,0,2.964-.051,3.12-.051.286,0,.312.025.312.286v1.742c0,.26-.026.286-.312.286-.156,0-.91-.053-3.12-.053Zm2.235-16.042a1.144,1.144,0,0,0,.6-.129.727.727,0,0,1,.338-.1c.182,0,.52.182,1.092.7.65.572.858.858.858,1.04s-.078.26-.312.443a3.7,3.7,0,0,0-.728,1.117,15.3,15.3,0,0,1-3.042,4.264,18.255,18.255,0,0,0,5.174,1.743,6.6,6.6,0,0,0-.91,1.923c-.13.468-.182.624-.416.624a2.764,2.764,0,0,1-.6-.129,19.064,19.064,0,0,1-5.278-2.47,20.609,20.609,0,0,1-4.472,2.262,2.552,2.552,0,0,1-.65.181c-.208,0-.313-.156-.494-.546a6.26,6.26,0,0,0-1.119-1.637,19.861,19.861,0,0,0,4.759-1.951,15.227,15.227,0,0,1-3.2-5.122,13.417,13.417,0,0,1-1.353.026c-.259-.052-.286,0-.286-.26v-1.742c0-.26.027-.286.286-.286.157,0,.911.052,3.25.052Zm-5.849,2.184a10.964,10.964,0,0,0,2.6,3.718,10.239,10.239,0,0,0,2.679-3.718Z" fill="#1482ca"/>
      <path id="パス_576" data-name="パス 576" d="M912.184,1720.995c.337-.13.416-.078.572.1a14.3,14.3,0,0,1,1.508,2.444c.13.234.13.26-.235.391l-1.82.6h10.375a21.215,21.215,0,0,0,1.326-2.5,9.836,9.836,0,0,0,.416-1.3,18.5,18.5,0,0,1,2.47.754c.234.1.338.182.338.338a.514.514,0,0,1-.234.443,1.868,1.868,0,0,0-.546.623c-.364.6-.65,1.118-.988,1.638h.52c2.392,0,3.25-.052,3.432-.052.26,0,.286.026.286.287,0,.155-.052.649-.052,1.378v1.143c0,2.288.052,2.7.052,2.86,0,.26-.026.287-.286.287h-2.08c-.26,0-.286-.027-.286-.287v-3.379H910.233v3.353c0,.286-.026.313-.286.313h-2.08c-.26,0-.286-.027-.286-.313,0-.156.052-.572.052-2.859v-.937c0-.91-.052-1.378-.052-1.559,0-.261.026-.287.286-.287.182,0,1.04.052,3.432.052h.6a.474.474,0,0,1-.129-.208,12.486,12.486,0,0,0-1.327-2.392c-.156-.234-.129-.286.182-.39Zm9.282,7.359c2.34,0,3.172-.053,3.354-.053.234,0,.26.026.26.312,0,.13-.053.573-.053,1.768v2.289c0,1.195.053,1.638.053,1.794,0,.26-.026.286-.26.286-.182,0-1.014-.053-3.354-.053h-1.977c-.233.651-.493,1.223-.727,1.742h4.94c2.548,0,3.458-.025,3.64-.025.26,0,.26.025.26.285,0,.156-.026.78-.026,2v1.664c0,3.069.026,3.641.026,3.8,0,.234,0,.26-.26.26h-2.184c-.261,0-.286-.026-.286-.26v-.78H912.34v.884c0,.259-.027.286-.261.286h-2.21c-.26,0-.286-.027-.286-.286,0-.157.052-.728.052-3.848v-1.4c0-1.535-.052-2.159-.052-2.315,0-.26.026-.285.286-.285.182,0,1.092.025,3.641.025h2.521a17.275,17.275,0,0,0,.729-1.742h-1.067c-2.366,0-3.2.053-3.353.053-.235,0-.261-.026-.261-.286,0-.183.052-.6.052-1.794v-2.289c0-1.195-.052-1.638-.052-1.768,0-.286.026-.312.261-.312.155,0,.987.053,3.353.053Zm-9.126,12.766h12.532v-2.392H912.34Zm2.391-8.476h7.723v-2.263h-7.723Zm3.666-11.935c.313-.1.39-.052.521.182a17.411,17.411,0,0,1,1.3,2.6c.1.208.078.26-.286.364l-1.743.52c-.389.1-.416.078-.519-.208a22.74,22.74,0,0,0-1.223-2.548c-.156-.26-.078-.286.235-.39Z" fill="#1482ca"/>
      <path id="パス_577" data-name="パス 577" d="M940.107,1745.046h-1.638l10.583-24.727h1.637Z" fill="#1482ca"/>
      <path id="パス_578" data-name="パス 578" d="M809.848,1757.2a7.685,7.685,0,0,0,.546-1.69,16.415,16.415,0,0,1,2.574.91c.286.13.389.261.389.442a.432.432,0,0,1-.234.39,1.983,1.983,0,0,0-.6.806,26.036,26.036,0,0,1-7.644,9.569c-.285.233-.468.363-.6.363-.156,0-.26-.182-.494-.571a5.672,5.672,0,0,0-1.456-1.691A19.807,19.807,0,0,0,809.848,1757.2Zm8.606,11a.862.862,0,0,1,.312-.13c.051,0,.1.052.208.156a56.472,56.472,0,0,1,5.538,8.321c.13.234.13.286-.234.494l-1.95,1.118a.721.721,0,0,1-.312.13c-.1,0-.157-.052-.234-.208-.39-.807-.806-1.586-1.222-2.366-4.369.65-9.1,1.17-13.677,1.559a2.143,2.143,0,0,0-.987.286.709.709,0,0,1-.443.183c-.182,0-.311-.156-.39-.416a20.145,20.145,0,0,1-.624-2.756c.989.026,1.924,0,2.964-.053.235,0,.494-.025.728-.025a76.855,76.855,0,0,0,3.354-8.425,16.275,16.275,0,0,0,.7-2.729c1.013.233,1.9.416,2.782.676.286.1.494.233.494.441a.637.637,0,0,1-.208.469,3.875,3.875,0,0,0-.676,1.248c-.936,2.5-2.08,5.382-3.328,8.086,2.651-.208,5.434-.468,8.008-.754-.832-1.3-1.691-2.574-2.653-3.849-.156-.208-.129-.26.208-.468Zm-.494-12.636c.338-.156.39-.129.519.13a20.944,20.944,0,0,0,8.451,9.62,7.064,7.064,0,0,0-1.456,1.951c-.208.389-.338.572-.494.572-.13,0-.286-.131-.546-.338a27.406,27.406,0,0,1-8.476-10.739c-.1-.286-.053-.312.26-.468Z" fill="#1482ca"/>
      <path id="パス_579" data-name="パス 579" d="M845.233,1771.428a10.778,10.778,0,0,1-6.032,6.812,2.068,2.068,0,0,1-.624.208c-.208,0-.311-.156-.571-.6a5.24,5.24,0,0,0-1.223-1.482c2.756-.91,4.811-2.419,5.8-4.94h-.442c-2.315,0-3.069.051-3.224.051-.286,0-.312-.026-.312-.286V1769.5c0-.286.026-.313.312-.313.155,0,.909.052,3.224.052h.988c.052-.311.078-.649.1-1.014a11.691,11.691,0,0,0-.025-1.326,18.06,18.06,0,0,1-2,.676c-.6.156-.623.13-.857-.468a8.279,8.279,0,0,0-.7-1.273,14.608,14.608,0,0,1-1.144,2.6c-.234.389-.312.545-.442.545a1.242,1.242,0,0,1-.468-.208,7.122,7.122,0,0,0-1.534-.624,13.794,13.794,0,0,0,1.326-2.6H835.9v6.76c0,1.169.079,2.236.079,3.276a2.471,2.471,0,0,1-.832,2.236c-.468.364-1.119.52-3.069.52-.78,0-.78-.026-.962-.806a4.64,4.64,0,0,0-.7-1.664,15.6,15.6,0,0,0,2.132.13c.728,0,.91-.208.91-.754v-4.576c0-.807,0-1.612.026-2.418a17.569,17.569,0,0,1-3.042,5.355c-.234.261-.39.416-.545.416s-.287-.155-.469-.494a4.975,4.975,0,0,0-1.066-1.378,18.809,18.809,0,0,0,4.186-6.6h-.285c-2.185,0-2.912.052-3.069.052-.259,0-.286-.027-.286-.313v-1.716c0-.286.027-.311.286-.311.157,0,.884.051,3.069.051h1.429a30.47,30.47,0,0,0-2.938-2.418c-.1-.078-.182-.156-.182-.208,0-.078.078-.129.208-.259l1.067-.91c.26-.235.338-.235.571-.079l1.561,1.119a19.812,19.812,0,0,0,2-2.367h-3.329c-2.053,0-2.73.052-2.885.052-.261,0-.286-.026-.286-.286v-1.872c0-.26.025-.286.286-.286.155,0,.832.053,2.885.053h4.5a1.21,1.21,0,0,0,.521-.1.959.959,0,0,1,.363-.1c.208,0,.443.156.989.728.6.624.7.858.7,1.118a.626.626,0,0,1-.365.494,4.336,4.336,0,0,0-.727.781,22.563,22.563,0,0,1-2.912,3.275c.208.208.416.442.649.65.183.182.183.26-.1.495l-.157.129h1.638a.871.871,0,0,0,.494-.1.723.723,0,0,1,.338-.078c.156,0,.416.131.91.6.624.573.754.832.754,1.066,0,.182-.052.286-.26.469a.59.59,0,0,0-.181.181,14.705,14.705,0,0,0,4.368-1.689,13.156,13.156,0,0,1-2.028-2.5l-1.092,1.248c-.208.233-.338.338-.494.338-.13,0-.26-.1-.443-.338a5.661,5.661,0,0,0-1.481-1.2,14.933,14.933,0,0,0,3.821-5.018,6.455,6.455,0,0,0,.572-1.69c.754.13,1.743.364,2.393.52.233.052.363.156.363.338a.491.491,0,0,1-.259.391,2.166,2.166,0,0,0-.52.727c-.13.26-.234.521-.364.754h4.42c2.028,0,2.678-.052,2.834-.052.26,0,.286.026.286.286v1.69c0,.261-.026.286-.286.286-.13,0-.546-.025-1.612-.052a11.885,11.885,0,0,1-2.392,4.212,12.9,12.9,0,0,0,5.018,1.717,6.983,6.983,0,0,0-.884,1.819c-.312.78-.312.78-1.092.572a16.611,16.611,0,0,1-4.888-2.469,13.488,13.488,0,0,1-2.288,1.326c.676.052,1.352.13,1.976.207.312.053.467.156.467.312a.824.824,0,0,1-.207.52,2.259,2.259,0,0,0-.234,1.066l-.078.468H847.6c2.339,0,3.146-.052,3.3-.052.26,0,.312.079.312.338l-.1,1.586c-.156,2.549-.286,4.187-.858,5.305a2.77,2.77,0,0,1-2.912,1.768c-.443,0-.936,0-1.483-.026-.727-.053-.727-.053-.91-.91a7.656,7.656,0,0,0-.571-1.639,13.232,13.232,0,0,0,2.235.235c.651,0,.989-.1,1.248-.546a11.354,11.354,0,0,0,.651-3.874Zm-1.429-11.935a10.665,10.665,0,0,0,2.158,2.808,8.043,8.043,0,0,0,1.69-2.808Z" fill="#1482ca"/>
      <path id="パス_580" data-name="パス 580" d="M862.315,1773.949a12.734,12.734,0,0,1,2,1.171c.26.182.338.26.338.416,0,.182-.155.312-.416.363a4.424,4.424,0,0,0-1.013.469,21.628,21.628,0,0,1-5.8,2.236,3.727,3.727,0,0,1-.547.1c-.285,0-.363-.183-.624-.7a7.436,7.436,0,0,0-1.2-1.638,19.333,19.333,0,0,0,5.8-1.612,5.022,5.022,0,0,0,1.3-.807h-.624c-2.548,0-3.458.053-3.614.053-.286,0-.312-.026-.312-.286,0-.156.052-.937.052-2.731v-5.408c0-1.819-.052-2.6-.052-2.756,0-.259.026-.286.312-.286.156,0,1.066.052,3.614.052h10.037c2.548,0,3.458-.052,3.614-.052.26,0,.286.027.286.286,0,.157-.052.937-.052,2.756v5.408c0,1.794.052,2.6.052,2.731,0,.26-.026.286-.286.286-.156,0-1.066-.053-3.614-.053Zm7.956-18.3c2.471,0,3.329-.052,3.485-.052.26,0,.286.026.286.286,0,.156-.052.6-.052,1.742v1.691c0,1.118.052,1.559.052,1.715,0,.26-.026.286-.286.286-.156,0-1.014-.051-3.485-.051h-7.41c-2.469,0-3.3.051-3.484.051-.26,0-.285-.026-.285-.286,0-.181.052-.6.052-1.715v-1.691c0-1.144-.052-1.586-.052-1.742,0-.26.025-.286.285-.286.183,0,1.015.052,3.484.052Zm-9.931,10.193h12.4v-1.275h-12.4Zm12.4,3.016v-1.3h-12.4v1.3Zm0,1.742h-12.4v1.351h12.4Zm-1.456-12.923h-9.438v1.639h9.438Zm-.91,16.485a.557.557,0,0,1,.338-.156.509.509,0,0,1,.208.078,18.83,18.83,0,0,0,7.15,2.288,8.726,8.726,0,0,0-1.274,1.586c-.312.494-.416.676-.676.676a3.626,3.626,0,0,1-.546-.1,20.978,20.978,0,0,1-6.89-2.885c-.1-.078-.157-.13-.157-.208s.078-.157.261-.26Z" fill="#1482ca"/>
    </g>
    <g id="グループ_365" data-name="グループ 365">
      <path id="パス_848" data-name="パス 848" d="M893.9,1758.168l10.8,8.332-10.8,8.332" fill="none" stroke="#1482ca" stroke-miterlimit="10" stroke-width="1"/>
      <line id="線_17" data-name="線 17" x1="18" transform="translate(887.2 1766.5)" fill="none" stroke="#1482ca" stroke-miterlimit="10" stroke-width="1"/>
    </g>
  </g>
</svg>
