<svg xmlns="http://www.w3.org/2000/svg" width="136.242" height="92.311" viewBox="0 0 136.242 92.311">
  <g id="グループ_4320" data-name="グループ 4320" transform="translate(-757.489 -2013.319)">
    <g id="グループ_2995" data-name="グループ 2995">
      <g id="グループ_2994" data-name="グループ 2994">
        <path id="パス_4401" data-name="パス 4401" d="M770.309,2030.3h3.717c1.743,0,3.485-.052,5.252-.1.286-.025.416.1.416.416.027.676.027,1.405,0,2.08,0,.338-.078.469-.389.469-1.248-.053-3.563-.1-5.252-.1H763.6c-1.066,0-2.756.078-4.785.1-.416.026-.467-.078-.545-.52a15.169,15.169,0,0,1-.182-2.445c1.872.1,3.848.13,5.512.13h3.536v-8.891h-2.028c-1.872,0-2.964.051-4.03.1-.312.027-.364-.156-.442-.546a14.415,14.415,0,0,1-.208-2.418,44.159,44.159,0,0,0,4.5.1h7.358c1.586,0,3.017,0,4.55-.077.261-.027.339.13.339.416.025.649.025,1.378,0,2.027-.027.338-.078.494-.364.494-1.743-.078-3.017-.1-4.473-.1h-2.027Z" fill="#d40e64"/>
        <path id="パス_4402" data-name="パス 4402" d="M788.065,2019.611c-1.481,0-3.067.1-4.6.208-.313.027-.416-.156-.469-.389a24.605,24.605,0,0,1-.468-2.809c1.769.13,3.2.182,5.279.182H798.96a5.477,5.477,0,0,0,1.794-.156,1.9,1.9,0,0,1,.494-.182.884.884,0,0,1,.6.364,13.327,13.327,0,0,1,1.56,1.638.754.754,0,0,1,.208.469.677.677,0,0,1-.364.545,3.23,3.23,0,0,0-.7.754,22.131,22.131,0,0,1-4.576,5.019.751.751,0,0,1-.546.233,1.015,1.015,0,0,1-.624-.259,6,6,0,0,0-2.158-1.067,18.475,18.475,0,0,0,4.654-4.55Zm1.456,10.141a12.015,12.015,0,0,0,1.275-6.137,9.4,9.4,0,0,0-.26-2.444,28.864,28.864,0,0,1,3.354.494c.338.078.442.261.442.494a1.055,1.055,0,0,1-.13.468,2.378,2.378,0,0,0-.234,1.066,15.9,15.9,0,0,1-1.534,7.151,13.536,13.536,0,0,1-4.733,5.174,1.3,1.3,0,0,1-.727.259.736.736,0,0,1-.521-.233,7.313,7.313,0,0,0-2.365-1.326A11.515,11.515,0,0,0,789.521,2029.752Z" fill="#d40e64"/>
        <path id="パス_4403" data-name="パス 4403" d="M811.726,2024.136c-1.3,0-2.6.025-3.9.1-.233,0-.338-.156-.389-.494a19.679,19.679,0,0,1-.287-2.626,46.044,46.044,0,0,0,4.785.208h8.918a2.86,2.86,0,0,0,1.378-.286.565.565,0,0,1,.338-.156.669.669,0,0,1,.39.182,15.353,15.353,0,0,1,1.742,1.613.763.763,0,0,1,.26.546.63.63,0,0,1-.286.494,2.981,2.981,0,0,0-.884,1.221c-2.6,5.538-5.59,8.788-10.608,11.493a1.253,1.253,0,0,1-.52.182.846.846,0,0,1-.572-.312,7.624,7.624,0,0,0-2.418-1.352c4.809-2.236,9.048-5.824,10.92-10.843Zm1.742-5.591c-1.17,0-2.47.026-3.563.1-.259,0-.338-.156-.364-.572a22.905,22.905,0,0,1-.13-2.5,35.838,35.838,0,0,0,4.265.182h4.679c1.691,0,3.069-.077,4.083-.13.234,0,.312.13.312.416a13.2,13.2,0,0,1,0,2.028c0,.443-.078.546-.468.521-.858,0-2.08-.053-3.666-.053Z" fill="#d40e64"/>
        <path id="パス_4404" data-name="パス 4404" d="M841.809,2030.688c0,1.793.025,3.328.078,5.408.025.338-.105.442-.391.442a21.685,21.685,0,0,1-2.6,0c-.286,0-.39-.1-.364-.416.027-1.872.105-3.562.105-5.33v-6.059a45.04,45.04,0,0,1-7.151,4.993.736.736,0,0,1-.39.1.723.723,0,0,1-.546-.261,9.75,9.75,0,0,0-2.237-1.534,44.116,44.116,0,0,0,13.729-10.764,7.525,7.525,0,0,0,1.639-2.678,23.105,23.105,0,0,1,2.885,1.82.458.458,0,0,1,.208.39.744.744,0,0,1-.364.572,8.6,8.6,0,0,0-1.559,1.43,41.554,41.554,0,0,1-3.042,3.276Z" fill="#d40e64"/>
        <path id="パス_4405" data-name="パス 4405" d="M852.832,2017.323a.489.489,0,0,1,.364-.208.689.689,0,0,1,.338.13,27.079,27.079,0,0,1,4.967,3.693c.155.156.233.259.233.363a.559.559,0,0,1-.155.339c-.391.519-1.248,1.559-1.612,1.95-.13.13-.208.207-.313.207s-.208-.077-.338-.207a27.446,27.446,0,0,0-5.3-4.238C851.584,2018.649,852.339,2017.843,852.832,2017.323Zm2.263,13.7a38.447,38.447,0,0,0,7.488-4.836,39.056,39.056,0,0,0,7.124-7.072,11.605,11.605,0,0,0,.729,3.042,1.273,1.273,0,0,1,.129.494c0,.235-.129.443-.416.781a42.549,42.549,0,0,1-5.98,5.511,55.757,55.757,0,0,1-7.853,5.1,9.014,9.014,0,0,0-1.742,1.2.714.714,0,0,1-.468.26.676.676,0,0,1-.442-.286,18.19,18.19,0,0,1-2.08-2.886A15.627,15.627,0,0,0,855.095,2031.025Z" fill="#d40e64"/>
        <path id="パス_4406" data-name="パス 4406" d="M881.588,2038.046h-1.639l10.583-24.727h1.638Z" fill="#d40e64"/>
        <path id="パス_4407" data-name="パス 4407" d="M760.609,2051.921a.486.486,0,0,1,.7.183,20.906,20.906,0,0,1,2.912,4.914,1,1,0,0,1,.1.337c0,.157-.1.26-.311.39a16.185,16.185,0,0,1-2,1.015c-.391.155-.547-.027-.677-.391a20.684,20.684,0,0,0-3.042-5.252A20.284,20.284,0,0,1,760.609,2051.921Zm18.2.391a.6.6,0,0,1,.286.519.639.639,0,0,1-.208.442,5.138,5.138,0,0,0-1.014,1.716,40.232,40.232,0,0,1-5.044,8.841,28.011,28.011,0,0,1-6.865,6.447,1.091,1.091,0,0,1-.6.235.756.756,0,0,1-.441-.182,8,8,0,0,0-2.5-1.223,29.806,29.806,0,0,0,7.721-6.864,31.157,31.157,0,0,0,4.5-8.059,11.679,11.679,0,0,0,.754-3.407A18.532,18.532,0,0,1,778.81,2052.312Zm-11.414-2a.481.481,0,0,1,.675.209,21.6,21.6,0,0,1,2.548,4.809.507.507,0,0,1-.26.729,17.19,17.19,0,0,1-1.975.935c-.416.156-.572.1-.7-.311a20.888,20.888,0,0,0-2.679-5.253C765.783,2051.063,766.615,2050.647,767.4,2050.309Z" fill="#d40e64"/>
        <path id="パス_4408" data-name="パス 4408" d="M788.065,2061.516a20.884,20.884,0,0,0-3.822.311c-.311,0-.519-.155-.6-.546a27.958,27.958,0,0,1-.39-3.145,33.411,33.411,0,0,0,5.616.311h8.372c1.976,0,3.979-.051,5.981-.078.389-.025.467.053.467.364a19.18,19.18,0,0,1,0,2.445c0,.311-.1.416-.467.389-1.951-.026-3.875-.051-5.8-.051Z" fill="#d40e64"/>
        <path id="パス_4409" data-name="パス 4409" d="M809.333,2053.273a17.8,17.8,0,0,0-.286-3.8,19.212,19.212,0,0,1,3.224.546c.312.079.442.234.442.416a1.09,1.09,0,0,1-.1.39,5.983,5.983,0,0,0-.286,2.47v5.253c0,1.351.052,2.366.078,3.275,0,.391-.156.521-.572.521h-2.08c-.364,0-.52-.13-.494-.443,0-.91.078-2.418.078-3.536Zm12.246,4.863c0,3.847-.571,6.422-2.1,8.475a13.4,13.4,0,0,1-5.721,4.082,1.65,1.65,0,0,1-.546.131.843.843,0,0,1-.624-.312,8.446,8.446,0,0,0-2.21-1.586,12.712,12.712,0,0,0,6.344-3.8c1.2-1.483,1.742-3.641,1.742-6.942v-4.915a19.171,19.171,0,0,0-.285-4.238,16.278,16.278,0,0,1,3.38.572.439.439,0,0,1,.364.442.815.815,0,0,1-.105.416,7.835,7.835,0,0,0-.234,2.834Z" fill="#d40e64"/>
        <path id="パス_4410" data-name="パス 4410" d="M840.873,2051.921a3.819,3.819,0,0,0,1.794-.233.431.431,0,0,1,.286-.1.873.873,0,0,1,.443.208,9.505,9.505,0,0,1,1.689,1.82.7.7,0,0,1,.13.338.718.718,0,0,1-.338.52,4.779,4.779,0,0,0-.962,1.144,40.848,40.848,0,0,1-3.328,4.863,61.04,61.04,0,0,1,7.2,6.292.582.582,0,0,1,.208.364.643.643,0,0,1-.182.389,13.809,13.809,0,0,1-1.742,1.769.446.446,0,0,1-.311.155.533.533,0,0,1-.365-.207,47.273,47.273,0,0,0-6.76-6.449,37.452,37.452,0,0,1-8.737,6.865,1.638,1.638,0,0,1-.6.207.58.58,0,0,1-.443-.233,7.109,7.109,0,0,0-2.183-1.69,32.441,32.441,0,0,0,14.04-13.157l-6.708.027c-1.352,0-2.7.051-4.109.155-.208.026-.285-.155-.337-.442a15.129,15.129,0,0,1-.234-2.7c1.4.1,2.7.1,4.394.1Zm4.4-2.651c.129-.1.233-.079.389.051a11.955,11.955,0,0,1,2.47,2.783.263.263,0,0,1-.077.416l-1.093.8a.27.27,0,0,1-.441-.078,12.948,12.948,0,0,0-2.626-3.016Zm2.313-1.691c.156-.1.234-.078.391.052a10.848,10.848,0,0,1,2.469,2.678.3.3,0,0,1-.078.468l-1.04.806a.266.266,0,0,1-.441-.078,12.285,12.285,0,0,0-2.6-2.99Z" fill="#d40e64"/>
        <path id="パス_4411" data-name="パス 4411" d="M863.129,2050.465c.183.13.312.26.312.416a.876.876,0,0,1-.259.52,8.318,8.318,0,0,0-1.067,2.159c-1.456,3.977-2.834,7.8-4.471,11.7,4-.338,6.187-.546,9.1-.989a25.824,25.824,0,0,0-2.886-4.16c.781-.416,1.535-.857,2.262-1.248.286-.156.443-.051.624.157a36.578,36.578,0,0,1,5.253,8.5.632.632,0,0,1,.1.338c0,.157-.1.313-.338.443a13.1,13.1,0,0,1-1.977,1.066.684.684,0,0,1-.311.077c-.157,0-.286-.13-.365-.363-.311-.728-.6-1.4-.91-2.08-4.16.624-8.112,1.065-12.349,1.508a8.729,8.729,0,0,0-3.043.624c-.338.156-.624.1-.754-.26a24.229,24.229,0,0,1-.91-3.354c1.04.078,2.132.051,3.172.026,1.846-4.654,3.2-8.5,4.55-12.871a13.864,13.864,0,0,0,.754-3.562A14.117,14.117,0,0,1,863.129,2050.465Z" fill="#d40e64"/>
        <path id="パス_4412" data-name="パス 4412" d="M883.149,2072.046h-1.638l10.583-24.727h1.637Z" fill="#d40e64"/>
        <path id="パス_4413" data-name="パス 4413" d="M760.012,2089.275c-.235.208-.469.39-.7.573s-.391.285-.521.285c-.182,0-.26-.182-.416-.6a6.339,6.339,0,0,0-.884-1.664,15.258,15.258,0,0,0,4.447-4.55,5.139,5.139,0,0,0,.572-1.352c.779.1,1.716.26,2.391.416.26.078.39.208.39.312a.5.5,0,0,1-.26.416l-.181.157a14.138,14.138,0,0,0,3.717,3.328,7.352,7.352,0,0,0-.988,1.351c-.208.39-.311.572-.468.572-.13,0-.286-.129-.572-.364a18.237,18.237,0,0,1-2.834-3.068,20.71,20.71,0,0,1-2.859,3.406c.338.026.832.026,1.611.026h2.107c1.559,0,2.028-.052,2.183-.052.261,0,.286.026.286.312v1.613c0,.259-.025.286-.286.286-.155,0-.624-.053-2.1-.053v2.028h.078c1.95,0,2.548-.051,2.7-.051.285,0,.311.025.311.286v1.715c0,.26-.026.287-.311.287-.156,0-.754-.052-2.7-.052h-.078v6.265c1.143-.363,2.288-.7,3.38-1.091a6.4,6.4,0,0,0-.157,1.456c0,.832-.025.8-.832,1.092-2.027.728-4.679,1.534-6.838,2.106a3.193,3.193,0,0,0-.91.364.826.826,0,0,1-.416.156.432.432,0,0,1-.416-.338,16.464,16.464,0,0,1-.624-2.21,16.184,16.184,0,0,0,2.523-.39l1.845-.442v-6.968h-.832c-1.95,0-2.548.052-2.7.052-.26,0-.286-.027-.286-.287v-1.715c0-.261.026-.286.286-.286.156,0,.754.051,2.7.051h.832v-2.028c-1.326,0-1.767.053-1.9.053-.26,0-.285-.027-.285-.286Zm0,6.787c.338-.13.389-.1.493.181a19.433,19.433,0,0,1,.988,3.9c.052.259.027.286-.311.416l-1.17.442c-.365.13-.416.1-.469-.208a20.838,20.838,0,0,0-.936-3.9c-.1-.26-.052-.312.287-.443Zm8.086.286c.181.078.259.156.259.286a.324.324,0,0,1-.156.286.9.9,0,0,0-.338.546c-.208.649-.494,1.456-.754,2.08-.181.416-.234.6-.416.6a1.479,1.479,0,0,1-.546-.208,5.311,5.311,0,0,0-1.013-.365,19.6,19.6,0,0,0,.935-2.912,9.128,9.128,0,0,0,.157-.962A19.783,19.783,0,0,1,768.1,2096.348Zm2.782-7.047a22.521,22.521,0,0,1-.937,2.289c-.156.363-.286.519-.441.519-.131,0-.286-.13-.521-.364a6.144,6.144,0,0,0-1.456-1.143,18.6,18.6,0,0,0,2.055-5.851,7.512,7.512,0,0,0,.13-1.586,15.031,15.031,0,0,1,2.262.572c.311.1.416.208.416.365a.591.591,0,0,1-.157.389,3.176,3.176,0,0,0-.337,1.118c-.079.416-.182.858-.287,1.274h1.769v-1.222a23.389,23.389,0,0,0-.183-3.64c.885.026,1.795.078,2.7.182.261.026.365.13.365.286a1.679,1.679,0,0,1-.157.624,10.156,10.156,0,0,0-.155,2.522v1.248h1.456c2.08,0,2.782-.052,2.938-.052.26,0,.286.026.286.313v1.923c0,.26-.026.287-.286.287-.156,0-.858-.053-2.938-.053H775.9c-.051,1.3-.1,2.47-.208,3.511H777.8c2.366,0,3.172-.052,3.328-.052.234,0,.26.025.26.285V2095c0,.261-.026.286-.26.286-.156,0-.962-.052-3.328-.052h-1.664a15.255,15.255,0,0,0,5.876,7.853,6.539,6.539,0,0,0-1.326,1.768c-.208.364-.312.52-.468.52-.13,0-.286-.1-.546-.338a16.733,16.733,0,0,1-4.914-7.15,13.728,13.728,0,0,1-6.292,7.462,2.254,2.254,0,0,1-.624.286c-.156,0-.261-.156-.494-.572a5.331,5.331,0,0,0-1.326-1.56c3.639-1.639,5.538-3.822,6.474-6.942l.312-1.327h-.832c-2.34,0-3.147.052-3.3.052-.261,0-.286-.025-.286-.286v-1.95c0-.26.025-.285.286-.285.155,0,.962.052,3.3.052h1.143c.1-1.015.156-2.185.209-3.511Z" fill="#d40e64"/>
        <path id="パス_4414" data-name="パス 4414" d="M789.886,2099.806a3.958,3.958,0,0,0,2.157,2.184,14.864,14.864,0,0,0,4.785.493c3.354,0,7.306-.208,11.18-.6a4.946,4.946,0,0,0-.7,2.053c-.1.832-.13.832-.962.885-3.3.155-6.4.234-9.1.234-2.679,0-4.992-.156-6.058-.7a6.927,6.927,0,0,1-2.7-2.365c-.8.78-1.793,1.638-2.626,2.314a1.9,1.9,0,0,0-.52.52.4.4,0,0,1-.754-.078,22.534,22.534,0,0,1-1.065-2.444,11.833,11.833,0,0,0,1.533-.806,14.453,14.453,0,0,0,2.288-1.69v-5.746h-1.274c-1.4,0-1.768.051-1.9.051-.286,0-.311-.025-.311-.311v-1.977c0-.26.025-.286.311-.286.13,0,.494.053,1.9.053H787.7c1.378,0,1.794-.053,1.95-.053.26,0,.287.026.287.286,0,.156-.052.884-.052,2.47Zm-3.823-17.161c.156-.1.234-.156.312-.156a.486.486,0,0,1,.26.13,19.8,19.8,0,0,1,3.251,3.874c.155.208.13.26-.157.468l-1.482,1.248c-.155.13-.233.183-.311.183-.1,0-.157-.079-.235-.208a20.238,20.238,0,0,0-3.172-4.057c-.208-.182-.156-.26.13-.468Zm8.554,4.654c-2.7,0-3.588.053-3.744.053-.26,0-.285-.027-.285-.313v-1.689c0-.287.025-.313.285-.313.156,0,1.04.052,3.744.052h.286a10.348,10.348,0,0,0-1.351-2.392c-.183-.234-.1-.338.233-.442l1.769-.468c.311-.078.364-.052.546.1a9.428,9.428,0,0,1,1.326,2.211c.13.259.025.337-.235.441l-1.534.546h4.109a16.569,16.569,0,0,0,1.013-2.054,7.4,7.4,0,0,0,.443-1.352,23.429,23.429,0,0,1,2.5.572c.208.078.338.183.338.364s-.1.286-.26.416a1.5,1.5,0,0,0-.468.52c-.286.468-.6.988-.988,1.534h.832c2.522,0,3.406-.052,3.562-.052.286,0,.312.026.312.313v1.689c0,.286-.026.313-.312.313-.156,0-1.04-.053-3.562-.053H799.74a16.4,16.4,0,0,1-.677,1.509h2.471c2.314,0,3.146-.053,3.276-.053.286,0,.312.026.312.286,0,.156-.052.962-.052,2.834v6.188c0,1.847.052,2.548.052,2.705,0,.286-.026.312-.312.312-.13,0-.962-.053-3.276-.053H795.97c-2.315,0-3.147.053-3.3.053-.286,0-.313-.026-.313-.312,0-.157.052-.858.052-2.705v-6.188c0-1.872-.052-2.678-.052-2.834,0-.26.027-.286.313-.286.155,0,.987.053,3.3.053h.519a15.286,15.286,0,0,0,.6-1.509Zm.286,4.992h7.671v-1.481H794.9Zm7.671,3.3v-1.456H794.9v1.456Zm0,1.82H794.9v1.56h7.671Z" fill="#d40e64"/>
      </g>
    </g>
    <g id="グループ_3000" data-name="グループ 3000">
      <path id="パス_4444" data-name="パス 4444" d="M825.7,2084.168l10.8,8.332-10.8,8.332" fill="none" stroke="#d40e64" stroke-miterlimit="10" stroke-width="1"/>
      <line id="線_98" data-name="線 98" x1="18" transform="translate(819 2092.5)" fill="none" stroke="#d40e64" stroke-miterlimit="10" stroke-width="1"/>
    </g>
  </g>
</svg>
