<svg xmlns="http://www.w3.org/2000/svg" width="198.831" height="82.683" viewBox="0 0 198.831 82.683">
  <g id="グループ_3472" data-name="グループ 3472" transform="translate(-1543.568 -1613.899)">
    <path id="パス_5404" data-name="パス 5404" d="M1552.851,1622.068a11.669,11.669,0,0,1-1.22,5.2,9.522,9.522,0,0,1-3.541,3.78c-.32.2-.561.3-.8.06a3.37,3.37,0,0,0-1.421-.84,8.561,8.561,0,0,0,3.942-3.621,9.5,9.5,0,0,0,1.019-4.581h-3.921c-1,0-2.02.06-2.94.12-.2.02-.24-.1-.26-.34a9.3,9.3,0,0,1-.141-1.5c1.141.08,2.2.1,3.341.1h8.782c1.46,0,2.541-.019,3.761-.1.18,0,.22.08.22.34v1.16c0,.22-.1.3-.279.3-1.122-.04-2.362-.08-3.682-.08Zm-3.58-4.521c-.9,0-1.822.02-2.841.08-.241.02-.281-.08-.3-.3a14.466,14.466,0,0,1-.119-1.5c1.28.08,2.36.1,3.261.1h4.14c1.08,0,2.34,0,3.381-.061.18-.019.22.08.22.3a5.051,5.051,0,0,1,0,1.1c0,.26-.04.32-.241.32-1.08-.04-2.3-.04-3.36-.04Z" fill="#333"/>
    <path id="パス_5405" data-name="パス 5405" d="M1575.092,1617.827a1.631,1.631,0,0,0,1-.22c.16-.12.34-.08.54.06a7.257,7.257,0,0,1,1.06.84.441.441,0,0,1,.04.721,2.079,2.079,0,0,0-.58.759,27.66,27.66,0,0,1-3.9,6.222,25.079,25.079,0,0,1-6.181,5.1.435.435,0,0,1-.581-.081,3.9,3.9,0,0,0-1.5-.739,22.164,22.164,0,0,0,6.621-5.2,21.46,21.46,0,0,0,3.742-5.941l-5.322.16a29.465,29.465,0,0,1-3.881,4.2.457.457,0,0,1-.66.061,4.006,4.006,0,0,0-1.42-.6,22.073,22.073,0,0,0,5.282-5.881,6.608,6.608,0,0,0,1.08-2.581,6.992,6.992,0,0,1,1.88.86.318.318,0,0,1-.02.58,2.369,2.369,0,0,0-.54.621c-.28.42-.48.76-.74,1.14Z" fill="#333"/>
    <path id="パス_5406" data-name="パス 5406" d="M1594.071,1616.646a.36.36,0,0,1,.08.581,4.765,4.765,0,0,0-.88,1.42,32.655,32.655,0,0,1-3.581,6.1,24.174,24.174,0,0,1-5.981,5.661.468.468,0,0,1-.64-.02,4.355,4.355,0,0,0-1.48-.781,23.748,23.748,0,0,0,6.461-5.821,25.779,25.779,0,0,0,3.241-5.641,9.215,9.215,0,0,0,.68-2.5A10.839,10.839,0,0,1,1594.071,1616.646Z" fill="#333"/>
    <path id="パス_5407" data-name="パス 5407" d="M1610.592,1616.927a2.351,2.351,0,0,0,1.24-.18.409.409,0,0,1,.46.08,5.853,5.853,0,0,1,1.04,1.06c.14.2.1.341-.12.54a3.491,3.491,0,0,0-.66.8,32.3,32.3,0,0,1-2.781,4.06,43.286,43.286,0,0,1,5.641,4.941c.181.18.2.26.021.5a11.48,11.48,0,0,1-.981.981c-.16.16-.28.14-.44-.04a34.986,34.986,0,0,0-5.361-5.022,30.084,30.084,0,0,1-6.981,5.461c-.261.141-.441.2-.62-.019a4.231,4.231,0,0,0-1.341-.981,24.94,24.94,0,0,0,7.222-5.3,24.3,24.3,0,0,0,3.781-5.2h-5.622c-1.1,0-2.04.06-3,.121-.181,0-.221-.081-.261-.281a8.894,8.894,0,0,1-.14-1.6c1.021.08,1.961.08,3.221.08Z" fill="#333"/>
    <path id="パス_5408" data-name="パス 5408" d="M1630.732,1618.327c-2.76.46-5.181.88-7.542,1.38a6.5,6.5,0,0,0-1.22.32,1.1,1.1,0,0,1-.4.161.364.364,0,0,1-.32-.241,13.73,13.73,0,0,1-.64-1.74,17.616,17.616,0,0,0,2.781-.28c2.76-.42,6.961-1.04,12.242-1.72.24-.02.341.06.36.18a9.54,9.54,0,0,1,.18,1.32c0,.22-.1.26-.319.28a8.412,8.412,0,0,0-2.721.52c-3.061,1.161-5.081,3.581-5.081,6.141,0,3,2.46,4.162,5.56,4.4.281.019.361.059.361.239a5.6,5.6,0,0,1-.16,1.28c-.041.261-.121.361-.34.341-3.5-.16-7.242-1.841-7.242-5.941,0-2.821,1.621-4.982,4.5-6.6Zm3.021,2.581c.08-.06.14-.06.26.02a10.245,10.245,0,0,1,2.2,2.4c.08.12.06.22-.04.28l-.72.56c-.12.08-.24.1-.32-.039a9.539,9.539,0,0,0-2.3-2.581Zm1.86-1.421a.188.188,0,0,1,.26,0,10.7,10.7,0,0,1,2.221,2.341c.08.12.059.2-.061.32l-.7.56c-.119.08-.2.061-.279-.06a10.954,10.954,0,0,0-2.3-2.541Z" fill="#333"/>
    <path id="パス_5409" data-name="パス 5409" d="M1644.89,1626.529c-1.841,0-2.441.04-2.561.04-.16,0-.18-.02-.18-.18v-1.16c0-.161.02-.18.18-.18.12,0,.72.04,2.561.04h5.381a11.688,11.688,0,0,0-.14-1.86c.38.04.76.08,1.1.139a14.247,14.247,0,0,0,2.261-1.66h-4.94c-1.861,0-2.481.04-2.581.04-.18,0-.2-.02-.2-.16v-1.08c0-.16.02-.181.2-.181.1,0,.72.04,2.581.04h5.52a1.466,1.466,0,0,0,.521-.04.593.593,0,0,1,.22-.059c.14,0,.3.139.7.52.32.34.46.56.46.72a.279.279,0,0,1-.22.28,2.459,2.459,0,0,0-.9.58,23.1,23.1,0,0,1-2.941,2.04,4.753,4.753,0,0,0-.02.6v.08h5.181c1.84,0,2.441-.04,2.561-.04.16,0,.18.019.18.18v1.16c0,.16-.02.18-.18.18-.12,0-.721-.04-2.561-.04h-5.181v1.76c0,.44.02,1.221.02,1.721,0,.78-.14,1.14-.58,1.44-.46.3-1.02.38-2.9.38-.46,0-.46,0-.6-.46a4.9,4.9,0,0,0-.5-1.181,17.507,17.507,0,0,0,2.1.121c.58,0,.84-.14.84-.741v-3.04Zm-.58-5c0,.18-.021.2-.18.2h-1.2c-.18,0-.2-.02-.2-.2,0-.12.041-.4.041-2.18v-.721c0-.7-.041-1.04-.041-1.16,0-.16.02-.18.2-.18.12,0,.8.04,2.7.04h8.4a14.036,14.036,0,0,0,1.16-2.261,3.941,3.941,0,0,0,.261-.98,7.185,7.185,0,0,1,1.52.5c.18.08.26.16.26.261s-.06.179-.18.259a1.544,1.544,0,0,0-.38.46c-.34.641-.62,1.141-1.02,1.761h.7c1.9,0,2.6-.04,2.7-.04.179,0,.2.02.2.18,0,.1-.04.46-.04,1.02v.861c0,1.8.04,2.08.04,2.18,0,.18-.021.2-.2.2h-1.181c-.18,0-.2-.02-.2-.2v-2.821H1644.31Zm1.48-7.3c.24-.121.3-.081.4.059a16.973,16.973,0,0,1,1.441,2.161c.08.18.08.18-.18.3l-.88.34a.648.648,0,0,1-.24.08c-.06,0-.1-.04-.141-.16a11.347,11.347,0,0,0-1.36-2.181c-.1-.139-.079-.2.16-.279Zm5.221,2.72c-.3.12-.321.1-.4-.1a10.9,10.9,0,0,0-1.12-2.34c-.1-.181-.059-.2.181-.28l.88-.281c.2-.08.26-.059.36.08a15.072,15.072,0,0,1,1.18,2.341c.06.159,0,.2-.22.279Z" fill="#333"/>
    <path id="パス_5410" data-name="パス 5410" d="M1665.609,1623.028c.84-.72,2.181-1.881,3.58-3.14a2.184,2.184,0,0,1,1.6-.781,2.237,2.237,0,0,1,1.58.68c1.561,1.261,2.741,2.261,4.5,3.562a45.03,45.03,0,0,0,4.541,2.839.253.253,0,0,1,.16.321,6.539,6.539,0,0,1-.74,1.44c-.14.18-.239.2-.42.08-1.08-.66-3-2-4.28-2.961-1.481-1.12-2.942-2.4-4.342-3.6a1.524,1.524,0,0,0-.96-.521c-.26,0-.479.181-.8.481-1.08,1.06-2.541,2.44-3.5,3.361a5.812,5.812,0,0,0-.679.779.333.333,0,0,1-.581.061,12.422,12.422,0,0,1-1.3-1.6A6.338,6.338,0,0,0,1665.609,1623.028Zm10.823-5.781c.08-.06.139-.04.259.04a9.618,9.618,0,0,1,2.2,2.42c.08.12.06.181-.04.261l-.741.6a.2.2,0,0,1-.319-.08,9.824,9.824,0,0,0-2.3-2.58Zm1.86-1.4a.24.24,0,0,1,.28,0,10.2,10.2,0,0,1,2.22,2.341c.061.12.061.179-.06.3l-.72.56c-.119.1-.2.08-.28-.039a10.5,10.5,0,0,0-2.3-2.541Z" fill="#333"/>
    <path id="パス_5411" data-name="パス 5411" d="M1691.171,1622.668a6.838,6.838,0,0,1,3.821-1.22c2.9,0,4.8,1.84,4.8,4.581,0,3.12-2.5,5.281-6.762,5.281-2.52,0-3.76-1.081-3.76-2.6a2.393,2.393,0,0,1,2.581-2.24,3.542,3.542,0,0,1,3.56,2.94,3.421,3.421,0,0,0,2.54-3.42,3.093,3.093,0,0,0-3.32-3.14,8.825,8.825,0,0,0-5.341,2.179,22.777,22.777,0,0,0-1.761,1.661c-.2.2-.3.24-.5.04a6.379,6.379,0,0,1-.92-1.02c-.1-.12-.06-.221.08-.36a56.8,56.8,0,0,0,4.661-4.441c1.22-1.261,2.3-2.481,3.6-4-1.461.239-3.041.56-4.6.86a3.555,3.555,0,0,0-.76.2,1.074,1.074,0,0,1-.38.1c-.181,0-.28-.08-.381-.28a7.357,7.357,0,0,1-.559-1.681,7.7,7.7,0,0,0,1.8.021c1.421-.141,3.121-.38,4.782-.7a2.579,2.579,0,0,0,.82-.24.82.82,0,0,1,.34-.14.651.651,0,0,1,.4.159,6.547,6.547,0,0,1,1.061,1.021.642.642,0,0,1,.179.4.463.463,0,0,1-.32.42,2.511,2.511,0,0,0-.92.681c-1.641,1.679-3,3.08-4.8,4.88Zm.74,5.142c-.66,0-1.16.339-1.16.9,0,.66.641,1.141,1.961,1.161a5.692,5.692,0,0,0,1.16-.1C1693.611,1628.609,1692.911,1627.81,1691.911,1627.81Z" fill="#333"/>
    <path id="パス_5412" data-name="パス 5412" d="M1546.271,1696.582l12.889-44.352H1551.1v5.9h-6.48v-12.816H1566.5v7.344l-12.456,43.92Z" fill="#00ad93"/>
    <path id="パス_5413" data-name="パス 5413" d="M1582.63,1669.154c6.159-2.08,11.158-3.319,14.4-3.319,7.16,0,11.758,4.319,11.758,10.6,0,5.239-2.279,8.558-7.038,11.118-3.36,1.88-6.479,2.519-10.159,3.32-.8.159-1.119.119-1.4-.641a7.416,7.416,0,0,0-2.8-3.159c5.279-.88,8.119-1.639,10.839-2.96,3.4-1.719,5.518-4.279,5.518-7.958,0-3.759-2.439-6.079-6.879-6.079-3.6,0-8.358,1.44-14.437,4.119a25.438,25.438,0,0,0-2.76,1.44c-.56.48-.88.6-1.079.6-.4,0-.72-.24-1.16-.839a23.3,23.3,0,0,1-2.56-4.16C1576.631,1671.034,1578.11,1670.674,1582.63,1669.154Z" fill="#e65290"/>
    <path id="パス_5414" data-name="パス 5414" d="M1638.549,1667.635c-.92,6.8-2.6,13.037-5,17.237-1.72,3-3.8,4.6-6.8,4.6-3.519,0-7.078-3.759-7.078-10.279a14.743,14.743,0,0,1,4.518-10.4,17.5,17.5,0,0,1,13-5.119c9.6,0,15.238,5.919,15.238,13.878,0,7.438-4.2,12.118-12.318,14.557-.839.241-1.2.08-1.719-.719a8.506,8.506,0,0,0-2.8-2.52c6.759-1.6,12.078-4.4,12.078-11.958a9.084,9.084,0,0,0-8.959-9.278Zm-11.479,3.879a11.516,11.516,0,0,0-3.119,7.4c0,3.679,1.48,5.719,2.719,5.719,1.04,0,1.92-.521,3-2.44a45.7,45.7,0,0,0,4.239-14.318A12.05,12.05,0,0,0,1627.07,1671.514Z" fill="#00ace6"/>
    <path id="パス_5415" data-name="パス 5415" d="M1683.268,1663.835c-3.559,0-4.759.08-5,.08-.4,0-.44-.04-.44-.439v-2.92c0-.4.04-.44.44-.44.24,0,1.44.079,5,.079h9.159c3.6,0,4.8-.079,5-.079.4,0,.439.04.439.44v2.92c0,.4-.04.439-.439.439-.2,0-1.4-.08-5-.08h-3a30.72,30.72,0,0,1-1.28,3h2.759c3.2,0,4.32-.08,4.6-.08.4,0,.44.04.44.439,0,.2-.08,1.6-.08,4.64v10.638c0,3.04.08,4.4.08,4.639,0,.4-.04.44-.44.44-.28,0-1.4-.08-4.6-.08h-6.238c-3.239,0-4.359.08-4.6.08-.439,0-.479-.04-.479-.44,0-.24.08-1.6.08-4.639v-10.478c0-1.72-.04-2.92-.04-3.68a11.557,11.557,0,0,0-1.6,2.68c-.28.56-.44.84-.68.84-.2,0-.44-.16-.88-.521s-.88-.759-1.28-1.159v2.839c0,.4-.04.441-.44.441-.239,0-.84-.08-2.919-.08h-3.04c-2.079,0-2.68.08-2.919.08-.36,0-.4-.04-.4-.441v-2.639c-.64.6-1.28,1.2-1.959,1.72-.4.32-.641.48-.84.48-.28,0-.441-.281-.721-.92a7.956,7.956,0,0,0-1.439-2.32,23.082,23.082,0,0,0,7-7.758,10.076,10.076,0,0,0,1.08-2.72c1.359.2,2.479.36,3.638.56.441.08.641.32.641.56,0,.2-.12.4-.44.6l-.241.16a21.056,21.056,0,0,0,7.44,7.558c-.04-.639-.04-.96-.04-1.08,0-.4.04-.439.479-.439.2,0,1.281.08,4.12.08a19.342,19.342,0,0,0,1.12-3Zm-13.158,15.678v9.958c0,3.159.08,4.679.08,4.919,0,.4-.04.44-.44.44h-3.159c-.4,0-.441-.04-.441-.44,0-.28.08-1.76.08-4.919v-9.958c-2.718,0-3.678.08-3.878.08-.441,0-.481-.04-.481-.441v-2.8c0-.441.04-.481.481-.481.24,0,1.239.08,4.359.08h5.919c3.159,0,4.239-.08,4.479-.08.4,0,.44.04.44.481,0,.239-.08.959-.08,2.638v3.84c0,1.4.08,2.959.08,4a3.717,3.717,0,0,1-.92,2.8c-.6.6-1.4.88-3.48.96-1.279.04-1.279.04-1.519-1.24a10.344,10.344,0,0,0-.88-2.72,13.04,13.04,0,0,0,2.12.12c.64,0,.84-.239.84-1.119v-6.119Zm4.759-9.679a26.6,26.6,0,0,1-4.479-5.879,30.64,30.64,0,0,1-4.439,5.879,26.644,26.644,0,0,0,2.839.08h3.04c2.079,0,2.68-.08,2.919-.08Zm10.918,19.4c.36.241.441.441.441.641,0,.239-.2.359-.481.48-.279.16-.6.4-1.039.719a25.093,25.093,0,0,1-6.439,4,2.751,2.751,0,0,1-.92.32c-.28,0-.48-.241-.92-.92a10.948,10.948,0,0,0-1.68-2,22.67,22.67,0,0,0,6.959-3.56,7.144,7.144,0,0,0,1.32-1.36A19.482,19.482,0,0,1,1685.787,1689.23Zm-2.279-19.076v2.52h8.478v-2.52Zm8.478,8.159v-2.64h-8.478v2.64Zm0,3h-8.478v2.838h8.478Zm-1.2,6.478c.2-.2.319-.28.44-.28s.24.08.4.24a24.093,24.093,0,0,0,7.038,4.279,9.33,9.33,0,0,0-1.64,2.241c-.359.679-.519.958-.8.958a2.77,2.77,0,0,1-1-.4,26.592,26.592,0,0,1-6.319-4.72c-.32-.319-.2-.4.2-.759Z" fill="#ee8a00"/>
    <path id="パス_5416" data-name="パス 5416" d="M1713.59,1683.231a32.284,32.284,0,0,0,3.479-1.519,22.869,22.869,0,0,0-.12,2.479c0,1.321,0,1.321-1.159,1.84a10.232,10.232,0,0,1-.96.441,21.933,21.933,0,0,0,4.119-.481,68.231,68.231,0,0,0,10.118-2.76c-.12.8-.239,1.6-.279,2.4,0,1.319,0,1.359-1.2,1.72a93.1,93.1,0,0,1-9.118,2.559c-.72.239-1.2.36-1.441.48a2,2,0,0,1-.84.32c-.239,0-.439-.16-.6-.6a28.389,28.389,0,0,1-.84-3.6c-1.96.84-4.159,1.6-6.239,2.319a4.153,4.153,0,0,0-1.2.56,1.14,1.14,0,0,1-.68.28c-.2,0-.4-.12-.521-.52a30.587,30.587,0,0,1-.84-3.6,20.738,20.738,0,0,0,3.48-.72l.88-.24v-11.678h-.08c-2.48,0-3.239.079-3.48.079-.359,0-.4-.04-.4-.439v-3c0-.44.04-.48.4-.48.281,0,1.04.08,3.56.08v-3.679a43.941,43.941,0,0,0-.28-6.079c1.48.04,2.719.12,4.12.28.359.04.6.24.6.44a3.118,3.118,0,0,1-.16.84c-.2.48-.32,1.48-.32,4.439v3.759c2.04,0,2.72-.08,2.96-.08.4,0,.439.04.439.48v3c0,.4-.04.439-.439.439-.24,0-.92-.04-2.96-.079Zm19.837-14.517a83.1,83.1,0,0,0,1.08,11.278,24.511,24.511,0,0,0,1.639-4.359,22.835,22.835,0,0,0,.76-4.079,31.239,31.239,0,0,1,3.44,1.16c.479.239.679.359.679.72a1.188,1.188,0,0,1-.4.759c-.32.321-.44.84-.88,2.161a36.474,36.474,0,0,1-3.96,8.8c1.12,3.68,2.12,5,2.481,5,.639,0,.959-1.719,1.119-5.119a8.824,8.824,0,0,0,2.04,1.481c1.04.519,1.04.519.92,1.639-.561,5.359-1.72,6.8-4.079,6.8-1.641,0-3.56-1.72-5.24-6.159a32.506,32.506,0,0,1-7.559,6.079,3.06,3.06,0,0,1-1.039.48c-.241,0-.441-.24-.84-.76a7.7,7.7,0,0,0-2.28-2.039,29.093,29.093,0,0,0,10.358-8,81.06,81.06,0,0,1-2.079-15.838h-7.119c-3.879,0-5.2.08-5.44.08-.4,0-.439-.04-.439-.48V1665.4c0-.4.04-.44.439-.44.241,0,1.561.08,5.44.08h7v-.48a44.582,44.582,0,0,0-.321-5.719,35.02,35.02,0,0,1,4.04.32c.44.04.64.24.64.44a1.968,1.968,0,0,1-.2.8c-.2.4-.28.839-.28,2.759v1.88h2.28c3.919,0,5.278-.08,5.519-.08.4,0,.44.04.44.44v2.919c0,.44-.04.48-.44.48-.241,0-1.6-.08-5.519-.08Zm-8.8,2.96c2.16,0,2.8-.08,3.04-.08.439,0,.479.04.479.44,0,.239-.08,1.039-.08,3.079v3.6c0,2.079.08,2.879.08,3.119,0,.4-.04.44-.479.44-.24,0-.88-.08-3.04-.08h-3.119c-2.159,0-2.8.08-3.079.08-.4,0-.441-.04-.441-.44,0-.28.08-1.04.08-3.119v-3.6c0-2.04-.08-2.84-.08-3.079,0-.4.04-.44.441-.44.279,0,.92.08,3.079.08Zm.28,3.119h-3.639v4.279h3.639Zm12.359-15.438c.479-.159.479-.119.759.2a18.7,18.7,0,0,1,2.28,3.279c.2.36.12.48-.44.681l-1.72.8c-.56.28-.6.24-.8-.2a16.81,16.81,0,0,0-2.2-3.359c-.28-.32-.2-.441.321-.64Z" fill="#7fbc26"/>
  </g>
</svg>
