<svg xmlns="http://www.w3.org/2000/svg" width="157.917" height="55.473" viewBox="0 0 157.917 55.473">
  <g id="グループ_4330" data-name="グループ 4330" transform="translate(-196.806 -2290.977)">
    <g id="グループ_2680" data-name="グループ 2680" transform="translate(-1526)">
      <path id="パス_3514" data-name="パス 3514" d="M1724.313,2298.191c.173-.222.271-.247.494-.124a21.655,21.655,0,0,1,3.582,2.545.26.26,0,0,1,.123.222.421.421,0,0,1-.123.272l-1.112,1.507c-.123.173-.2.247-.272.247s-.123-.049-.222-.124a18.517,18.517,0,0,0-3.557-2.742c-.1-.074-.148-.123-.148-.2s.049-.148.148-.271Zm.024,12.3a39.218,39.218,0,0,0,2.273-5.953,13.111,13.111,0,0,0,1.433,1.235c.4.272.519.4.519.618a2.669,2.669,0,0,1-.124.568,53.6,53.6,0,0,1-2.1,5.583,6.571,6.571,0,0,0-.37.963c-.05.2-.148.321-.3.321a.927.927,0,0,1-.444-.123,14.482,14.482,0,0,1-2.026-1.359A8.462,8.462,0,0,0,1724.337,2310.493Zm1.087-18.5c.2-.247.272-.247.47-.123a21.553,21.553,0,0,1,3.557,2.618c.173.148.2.223-.025.519l-1.111,1.507c-.173.247-.223.272-.445.1a17.926,17.926,0,0,0-3.557-2.866c-.223-.123-.223-.173,0-.445Zm7.264,12.327c-2.421,0-3.286.05-3.435.05-.247,0-.271-.025-.271-.3v-1.926c0-.248.024-.272.271-.272.149,0,1.014.049,3.435.049h2.84v-3.607h-1.7c-2.372,0-3.187.05-3.311.05-.246,0-.271-.025-.271-.272v-1.9c0-.247.025-.272.271-.272.124,0,.939.049,3.311.049h1.7v-1.087a23.806,23.806,0,0,0-.173-3.285c.939.025,1.8.074,2.619.148.247.025.4.148.4.3a1.326,1.326,0,0,1-.123.494,7.279,7.279,0,0,0-.173,2.272v1.161h2.693c2.371,0,3.186-.049,3.335-.049.247,0,.272.025.272.272v1.9c0,.247-.025.272-.272.272-.149,0-.964-.05-3.335-.05h-2.693v3.607h3.7c2.421,0,3.286-.049,3.434-.049.223,0,.247.024.247.272v1.926c0,.272-.024.3-.247.3-.148,0-1.013-.05-3.434-.05h-4.965a59.833,59.833,0,0,1-2.174,5.806c2.174-.2,4.126-.42,6.127-.717-.569-.84-1.186-1.655-1.8-2.421-.173-.222-.148-.3.148-.469l1.334-.79c.247-.149.322-.124.494.049a32,32,0,0,1,4.373,6.373c.124.248.124.272-.173.47l-1.532.914a.68.68,0,0,1-.321.148c-.074,0-.123-.074-.173-.2-.345-.667-.691-1.334-1.062-2-3.656.618-6.892,1.038-10.894,1.433a2.467,2.467,0,0,0-.914.223.777.777,0,0,1-.445.173c-.2,0-.321-.149-.4-.4a22.077,22.077,0,0,1-.544-2.445c1.062,0,1.829-.025,2.594-.1a2.1,2.1,0,0,0,.4-.025,38.927,38.927,0,0,0,2.223-6.028Z" fill="#1482ca"/>
      <path id="パス_3515" data-name="パス 3515" d="M1760.352,2293.7a14.016,14.016,0,0,0-.173-2.347c.889.025,1.705.074,2.52.173.247.024.4.148.4.271a1.206,1.206,0,0,1-.123.47,3.231,3.231,0,0,0-.173,1.433h1.63c2.4,0,3.533-.05,3.681-.05.247,0,.272.025.272.272,0,.148-.049.914-.049,2.544v.791c1.111,0,1.778-.049,1.926-.049.247,0,.272.024.272.3v1.828c0,.247-.025.272-.272.272-.148,0-.815-.049-1.926-.049v.716c0,1.7.049,2.495.049,2.643,0,.247-.025.272-.272.272-.148,0-1.284-.049-3.681-.049h-1.63v1.6h2.544c2.347,0,3.137-.049,3.31-.049.247,0,.272.025.272.272v1.556c0,.247-.025.272-.272.272-.173,0-.963-.05-3.31-.05H1762.8v1.656h3.853c2.422,0,3.262-.05,3.385-.05.272,0,.3.025.3.272v1.63c0,.247-.025.272-.3.272-.123,0-.963-.049-3.385-.049H1762.8c0,2.075.049,3.187.049,3.285,0,.247-.025.272-.247.272h-2.026c-.247,0-.271-.025-.271-.272,0-.123.024-1.21.049-3.285h-2.841c-2.446,0-3.285.049-3.434.049-.247,0-.271-.025-.271-.272v-1.63c0-.247.024-.272.271-.272.149,0,.988.05,3.434.05h2.841v-1.656h-2c-2.347,0-3.113.05-3.261.05-.247,0-.272-.025-.272-.272v-1.556c0-.247.025-.272.272-.272.148,0,.914.049,3.261.049h2v-1.6H1758.6c-2.075,0-2.742.049-2.915.049-.247,0-.272-.025-.272-.272v-1.556c0-.247.025-.272.272-.272.173,0,.84.05,2.915.05h1.754v-1.705H1758.4c-2.322,0-3.112.049-3.26.049-.247,0-.272-.024-.272-.3v-.124a.691.691,0,0,1-.2.149,1.8,1.8,0,0,0-.617.667c-.346.592-.766,1.21-1.211,1.828v9.017c0,1.976.025,2.915.025,3.038,0,.247-.025.272-.247.272h-1.952c-.272,0-.272-.025-.272-.272,0-.148.025-1.062.025-3.038v-3.632c0-.716,0-1.7.025-2.594a17.51,17.51,0,0,1-1.408,1.31c-.247.2-.42.321-.544.321s-.222-.148-.321-.519a5.781,5.781,0,0,0-.791-1.754,21.05,21.05,0,0,0,4.768-5.336,8.8,8.8,0,0,0,.667-1.285,15.6,15.6,0,0,1,1.779,1.112,1.417,1.417,0,0,1,.272.3v-1.062c0-.247.025-.272.272-.272.148,0,.938.05,3.26.05h1.952v-1.581h-1.408c-2.273,0-3.063.049-3.212.049-.247,0-.272-.025-.272-.272v-1.63c0-.247.025-.272.272-.272.149,0,.939.05,3.212.05Zm-5.781-1.087c.2.148.322.271.322.444a.35.35,0,0,1-.247.346,2.149,2.149,0,0,0-.742.618,22.775,22.775,0,0,1-4.249,4.175c-.272.222-.445.346-.568.346-.148,0-.272-.2-.469-.593a5.139,5.139,0,0,0-1.013-1.384,17.5,17.5,0,0,0,4.3-3.853,6.4,6.4,0,0,0,.766-1.211A12.257,12.257,0,0,1,1754.571,2292.608Zm8.227,3.162v1.581h3.162v-1.581Zm3.162,3.656H1762.8v1.705h3.162Z" fill="#1482ca"/>
      <path id="パス_3516" data-name="パス 3516" d="M1779.591,2314.471h-1.556l10.055-23.494h1.556Z" fill="#1482ca"/>
      <path id="パス_3517" data-name="パス 3517" d="M1805.231,2299.4c.321-.123.4-.074.519.173a22.443,22.443,0,0,1,1.655,4.447c.074.272,0,.346-.3.445l-1.234.37c-.3.1-.371.074-.42-.2l-.272-1.063-1.532.149v6.793c0,2.273.049,3.113.049,3.236,0,.247-.024.272-.271.272h-1.878c-.247,0-.272-.025-.272-.272,0-.148.05-.963.05-3.236v-6.571l-2.248.148a2.292,2.292,0,0,0-.914.2.83.83,0,0,1-.371.123c-.173,0-.222-.173-.272-.42a19.988,19.988,0,0,1-.345-2.075,19.818,19.818,0,0,0,2.1.049c.47-.593.939-1.235,1.384-1.877a37.7,37.7,0,0,0-3.31-3.582c-.1-.1-.149-.148-.149-.222s.074-.173.173-.322l.865-1.235c.1-.148.173-.222.247-.222s.123.049.222.148l.643.667a24.8,24.8,0,0,0,1.334-2.544,7.6,7.6,0,0,0,.568-1.532,19.893,19.893,0,0,1,2.1.889c.247.124.321.247.321.4,0,.123-.1.222-.222.321a1.5,1.5,0,0,0-.47.593,34.318,34.318,0,0,1-2.174,3.409c.4.444.791.864,1.161,1.309.569-.914,1.112-1.828,1.655-2.742a12.724,12.724,0,0,0,.742-1.705,22.893,22.893,0,0,1,2.074,1.063c.223.123.3.222.3.37,0,.173-.074.272-.272.371a3.034,3.034,0,0,0-.815.988c-1.26,2-2.594,3.878-3.73,5.361.889-.05,1.778-.124,2.668-.2-.173-.469-.371-.964-.593-1.433-.1-.247-.1-.3.247-.445Zm-7.065,7.362a6.37,6.37,0,0,0,.024-1.383c.618.074,1.483.247,1.9.346.3.074.42.172.42.3a.658.658,0,0,1-.124.346,3,3,0,0,0-.148.815,28.439,28.439,0,0,1-.865,4.595c-.123.4-.2.543-.346.543a1.051,1.051,0,0,1-.444-.2,8.5,8.5,0,0,0-1.408-.643A20.141,20.141,0,0,0,1798.166,2306.763Zm7.708-1.359c.3-.074.32-.049.419.223a21.483,21.483,0,0,1,.915,4.125c.024.272,0,.346-.322.445l-1.185.321c-.4.1-.421.074-.445-.173a26.976,26.976,0,0,0-.791-4.274c-.074-.271,0-.321.3-.4Zm8.251,2.4v3.261h2.322c2.346,0,3.137-.05,3.261-.05.271,0,.3.025.3.247v1.754c0,.247-.025.272-.3.272-.124,0-.915-.05-3.261-.05h-6.769c-2.372,0-3.162.05-3.31.05-.247,0-.272-.025-.272-.272v-1.754c0-.222.025-.247.272-.247.148,0,.938.05,3.31.05h2.026V2307.8h-.766c-2.1,0-2.816.049-2.965.049-.247,0-.271-.025-.271-.272v-1.655c0-.247.024-.272.271-.272.149,0,.865.05,2.965.05h.766v-.544a12.863,12.863,0,0,0-.149-2.569c.914.025,1.606.1,2.446.2.247.025.4.148.4.272a1.1,1.1,0,0,1-.123.444,4.154,4.154,0,0,0-.148,1.532v.667h1.433c2.1,0,2.816-.05,2.964-.05.271,0,.3.025.3.272v1.655c0,.247-.025.272-.3.272-.148,0-.865-.049-2.964-.049Zm2.124-15.243a1.074,1.074,0,0,0,.568-.123.7.7,0,0,1,.322-.1c.173,0,.493.173,1.037.667.617.543.815.815.815.988s-.074.247-.3.42a3.529,3.529,0,0,0-.692,1.062,14.561,14.561,0,0,1-2.89,4.052,17.349,17.349,0,0,0,4.916,1.655,6.3,6.3,0,0,0-.865,1.828c-.123.445-.173.593-.395.593a2.651,2.651,0,0,1-.568-.123,18.106,18.106,0,0,1-5.015-2.347,19.6,19.6,0,0,1-4.249,2.149,2.4,2.4,0,0,1-.618.173c-.2,0-.3-.149-.469-.519a6,6,0,0,0-1.062-1.557,18.779,18.779,0,0,0,4.52-1.852,14.465,14.465,0,0,1-3.038-4.867,12.6,12.6,0,0,1-1.285.025c-.247-.05-.272,0-.272-.247v-1.655c0-.247.025-.272.272-.272.148,0,.865.049,3.088.049Zm-5.558,2.075a10.4,10.4,0,0,0,2.47,3.533,9.739,9.739,0,0,0,2.545-3.533Z" fill="#1482ca"/>
      <path id="パス_3518" data-name="パス 3518" d="M1827.165,2291.62c.321-.124.4-.075.543.1a13.463,13.463,0,0,1,1.433,2.323c.124.222.124.247-.222.37l-1.73.568h9.857a20.223,20.223,0,0,0,1.261-2.371,9.368,9.368,0,0,0,.4-1.235,17.43,17.43,0,0,1,2.347.716c.222.1.321.173.321.321a.486.486,0,0,1-.223.42,1.807,1.807,0,0,0-.519.593c-.345.568-.617,1.062-.938,1.556h.494c2.273,0,3.088-.049,3.261-.049.247,0,.272.025.272.272,0,.148-.05.617-.05,1.309v1.087c0,2.174.05,2.569.05,2.717,0,.248-.025.272-.272.272h-1.976c-.247,0-.272-.024-.272-.272V2297.1h-15.885v3.187c0,.272-.024.3-.271.3h-1.977c-.247,0-.272-.024-.272-.3,0-.149.05-.544.05-2.718v-.889c0-.865-.05-1.309-.05-1.482,0-.247.025-.272.272-.272.173,0,.988.049,3.261.049h.568a.448.448,0,0,1-.123-.2,11.913,11.913,0,0,0-1.26-2.273c-.149-.222-.124-.272.173-.371Zm8.819,6.991c2.224,0,3.014-.05,3.187-.05.223,0,.247.025.247.3,0,.123-.049.543-.049,1.68v2.174c0,1.136.049,1.556.049,1.7,0,.247-.024.272-.247.272-.173,0-.963-.049-3.187-.049h-1.877c-.223.617-.47,1.161-.692,1.655h4.694c2.421,0,3.286-.025,3.458-.025.247,0,.247.025.247.272,0,.148-.024.741-.024,1.9v1.581c0,2.915.024,3.458.024,3.607,0,.222,0,.247-.247.247h-2.075c-.247,0-.271-.025-.271-.247v-.741h-11.908v.839c0,.248-.024.272-.247.272h-2.1c-.247,0-.272-.024-.272-.272,0-.148.05-.691.05-3.656v-1.334c0-1.457-.05-2.05-.05-2.2,0-.247.025-.272.272-.272.173,0,1.038.025,3.459.025h2.4a16.746,16.746,0,0,0,.692-1.655H1830.5c-2.248,0-3.039.049-3.187.049-.222,0-.247-.025-.247-.272,0-.173.05-.568.05-1.7v-2.174c0-1.137-.05-1.557-.05-1.68,0-.272.025-.3.247-.3.148,0,.939.05,3.187.05Zm-8.671,12.129h11.908v-2.272h-11.908Zm2.273-8.053h7.337v-2.149h-7.337Zm3.483-11.339c.3-.1.371-.05.494.173a16.331,16.331,0,0,1,1.235,2.47c.1.2.075.247-.271.346l-1.655.494c-.371.1-.4.074-.495-.2a21.6,21.6,0,0,0-1.161-2.421c-.148-.247-.074-.271.223-.37Z" fill="#1482ca"/>
      <path id="パス_3519" data-name="パス 3519" d="M1853.692,2314.471h-1.556l10.054-23.494h1.557Z" fill="#1482ca"/>
      <path id="パス_3520" data-name="パス 3520" d="M1729.945,2326.02a7.219,7.219,0,0,0,.519-1.606,15.532,15.532,0,0,1,2.446.864c.272.124.37.247.37.42a.413.413,0,0,1-.222.371,1.888,1.888,0,0,0-.568.765,24.757,24.757,0,0,1-7.263,9.092c-.272.222-.445.345-.568.345-.149,0-.247-.172-.47-.543a5.42,5.42,0,0,0-1.383-1.606A18.818,18.818,0,0,0,1729.945,2326.02Zm8.177,10.449a.837.837,0,0,1,.3-.123c.05,0,.1.049.2.148a53.593,53.593,0,0,1,5.262,7.905c.124.223.124.272-.222.47l-1.853,1.062a.681.681,0,0,1-.3.123c-.1,0-.149-.049-.223-.2-.37-.766-.765-1.507-1.161-2.248-4.15.617-8.646,1.111-12.994,1.482a2.008,2.008,0,0,0-.939.272.671.671,0,0,1-.42.173c-.173,0-.3-.149-.37-.4a18.923,18.923,0,0,1-.593-2.618c.939.024,1.828,0,2.816-.05.222,0,.469-.024.692-.024a73.079,73.079,0,0,0,3.186-8,15.335,15.335,0,0,0,.667-2.593c.964.222,1.8.4,2.644.642.271.1.469.222.469.42a.6.6,0,0,1-.2.444,3.745,3.745,0,0,0-.642,1.186c-.889,2.372-1.976,5.114-3.162,7.683,2.52-.2,5.163-.444,7.609-.716-.79-1.235-1.606-2.446-2.52-3.656-.148-.2-.123-.248.2-.445Zm-.469-12.006c.321-.148.37-.123.494.123a19.9,19.9,0,0,0,8.029,9.141,6.724,6.724,0,0,0-1.384,1.853c-.2.37-.321.543-.469.543-.124,0-.272-.123-.519-.321a26.041,26.041,0,0,1-8.054-10.2c-.1-.272-.049-.3.248-.445Z" fill="#1482ca"/>
      <path id="パス_3521" data-name="パス 3521" d="M1763.563,2339.532a10.241,10.241,0,0,1-5.731,6.473,1.983,1.983,0,0,1-.593.2c-.2,0-.3-.149-.543-.569a5.021,5.021,0,0,0-1.161-1.408c2.618-.864,4.57-2.3,5.509-4.694h-.42c-2.2,0-2.916.05-3.063.05-.272,0-.3-.025-.3-.272V2337.7c0-.271.025-.3.3-.3.147,0,.864.05,3.063.05h.939c.049-.3.074-.618.1-.964a11.188,11.188,0,0,0-.024-1.26,17.231,17.231,0,0,1-1.9.642c-.568.148-.592.124-.815-.444a7.708,7.708,0,0,0-.667-1.211,13.741,13.741,0,0,1-1.087,2.47c-.222.371-.3.519-.42.519a1.191,1.191,0,0,1-.444-.2,6.71,6.71,0,0,0-1.458-.593,13.027,13.027,0,0,0,1.26-2.471h-1.408v6.423c0,1.112.074,2.125.074,3.113a2.347,2.347,0,0,1-.79,2.125c-.445.346-1.063.494-2.916.494-.741,0-.741-.025-.914-.766a4.407,4.407,0,0,0-.667-1.581,14.807,14.807,0,0,0,2.026.123c.692,0,.865-.2.865-.716v-4.348c0-.766,0-1.532.024-2.3a16.694,16.694,0,0,1-2.89,5.089c-.222.247-.371.4-.519.4s-.272-.148-.445-.47a4.728,4.728,0,0,0-1.012-1.309,17.88,17.88,0,0,0,3.977-6.275h-.272c-2.075,0-2.767.05-2.915.05-.247,0-.272-.025-.272-.3v-1.63c0-.272.025-.3.272-.3.148,0,.84.05,2.915.05h1.359a28.846,28.846,0,0,0-2.792-2.3c-.1-.074-.173-.148-.173-.2,0-.074.075-.124.2-.247l1.013-.865c.247-.222.321-.222.543-.074l1.483,1.062a18.6,18.6,0,0,0,1.9-2.248h-3.162c-1.952,0-2.594.05-2.742.05-.247,0-.272-.025-.272-.272v-1.779c0-.247.025-.271.272-.271.148,0,.79.049,2.742.049h4.274a1.138,1.138,0,0,0,.494-.1.9.9,0,0,1,.346-.1c.2,0,.42.149.938.692.569.593.667.815.667,1.062a.591.591,0,0,1-.346.469,4.216,4.216,0,0,0-.691.742,21.288,21.288,0,0,1-2.767,3.112c.2.2.4.42.618.618.173.173.173.247-.1.469l-.148.124h1.556a.829.829,0,0,0,.469-.1.689.689,0,0,1,.321-.074c.149,0,.4.123.865.568.593.544.716.791.716,1.013,0,.173-.049.272-.247.445a.569.569,0,0,0-.173.173,14.021,14.021,0,0,0,4.151-1.606,12.51,12.51,0,0,1-1.927-2.372l-1.038,1.186c-.2.222-.321.321-.469.321-.124,0-.247-.1-.42-.321a5.384,5.384,0,0,0-1.408-1.136,14.186,14.186,0,0,0,3.631-4.768,6.174,6.174,0,0,0,.544-1.606c.716.123,1.655.346,2.272.494.223.05.347.148.347.321a.468.468,0,0,1-.248.371,2.063,2.063,0,0,0-.494.692c-.123.247-.222.494-.346.716h4.2c1.927,0,2.545-.049,2.693-.049.247,0,.272.024.272.271v1.606c0,.247-.025.272-.272.272-.124,0-.519-.025-1.532-.05a11.3,11.3,0,0,1-2.273,4,12.23,12.23,0,0,0,4.768,1.631,6.629,6.629,0,0,0-.84,1.729c-.3.741-.3.741-1.037.544a15.814,15.814,0,0,1-4.644-2.347,12.77,12.77,0,0,1-2.175,1.26c.643.049,1.285.123,1.878.2.3.05.445.148.445.3a.79.79,0,0,1-.2.494,2.141,2.141,0,0,0-.222,1.013l-.075.445h1.829c2.223,0,2.989-.05,3.137-.05.247,0,.3.074.3.321l-.1,1.507c-.147,2.421-.271,3.977-.814,5.04a2.633,2.633,0,0,1-2.768,1.68c-.419,0-.889,0-1.408-.025-.691-.05-.691-.05-.864-.865a7.259,7.259,0,0,0-.543-1.556,12.7,12.7,0,0,0,2.124.222c.617,0,.939-.1,1.186-.519a10.818,10.818,0,0,0,.617-3.681Zm-1.358-11.339a10.138,10.138,0,0,0,2.05,2.668,7.626,7.626,0,0,0,1.606-2.668Z" fill="#1482ca"/>
      <path id="パス_3522" data-name="パス 3522" d="M1779.79,2341.929a12.036,12.036,0,0,1,1.9,1.112c.247.172.322.247.322.4,0,.173-.149.3-.4.345a4.235,4.235,0,0,0-.963.445,20.53,20.53,0,0,1-5.509,2.125,3.631,3.631,0,0,1-.519.1c-.272,0-.346-.173-.593-.667a7,7,0,0,0-1.136-1.557,18.352,18.352,0,0,0,5.509-1.531,4.835,4.835,0,0,0,1.235-.766h-.593c-2.421,0-3.285.049-3.434.049-.271,0-.3-.025-.3-.271,0-.149.049-.89.049-2.594v-5.139c0-1.729-.049-2.47-.049-2.619,0-.247.025-.271.3-.271.149,0,1.013.049,3.434.049h9.536c2.421,0,3.286-.049,3.434-.049.247,0,.272.024.272.271,0,.149-.05.89-.05,2.619v5.139c0,1.7.05,2.47.05,2.594,0,.246-.025.271-.272.271-.148,0-1.013-.049-3.434-.049Zm7.56-17.392c2.347,0,3.162-.049,3.31-.049.247,0,.272.024.272.272,0,.148-.05.568-.05,1.655v1.606c0,1.062.05,1.482.05,1.63,0,.247-.025.272-.272.272-.148,0-.963-.05-3.31-.05h-7.041c-2.347,0-3.137.05-3.31.05-.248,0-.272-.025-.272-.272,0-.173.049-.568.049-1.63v-1.606c0-1.087-.049-1.507-.049-1.655,0-.248.024-.272.272-.272.173,0,.963.049,3.31.049Zm-9.437,9.684H1789.7v-1.21h-11.784Zm11.784,2.866v-1.235h-11.784v1.235Zm0,1.655h-11.784v1.285H1789.7Zm-1.384-12.278h-8.967v1.557h8.967Zm-.864,15.662a.534.534,0,0,1,.321-.148.494.494,0,0,1,.2.074,17.9,17.9,0,0,0,6.794,2.174,8.336,8.336,0,0,0-1.211,1.507c-.3.47-.4.642-.642.642a3.6,3.6,0,0,1-.519-.1,19.974,19.974,0,0,1-6.546-2.743c-.1-.074-.149-.123-.149-.2s.075-.148.247-.247Z" fill="#1482ca"/>
    </g>
    <g id="グループ_2715" data-name="グループ 2715" transform="translate(-1526)">
      <path id="パス_3758" data-name="パス 3758" d="M1869.646,2326.937l10.258,7.915-10.258,7.915" fill="none" stroke="#1482ca" stroke-miterlimit="10" stroke-width="1"/>
      <line id="線_82" data-name="線 82" x1="17.1" transform="translate(1863.279 2334.852)" fill="none" stroke="#1482ca" stroke-miterlimit="10" stroke-width="1"/>
    </g>
  </g>
</svg>
