<svg xmlns="http://www.w3.org/2000/svg" width="340" height="62" viewBox="0 0 340 62">
  <g id="グループ_4324" data-name="グループ 4324" transform="translate(-18 -1727)">
    <g id="パス_3473" data-name="パス 3473" transform="translate(-1526)" fill="none" stroke-miterlimit="10">
      <path d="M1544,1769v-42h340v42l-174.072,20Z" stroke="none"/>
      <path d="M 1709.930908203125 1787.993041992188 L 1883 1768.108276367188 L 1883 1728 L 1545 1728 L 1545 1768.11328125 L 1709.930908203125 1787.993041992188 M 1709.928100585938 1789 L 1544 1769 L 1544 1727 L 1884 1727 L 1884 1769 L 1709.928100585938 1789 Z" stroke="none" fill="#1482ca"/>
    </g>
    <g id="グループ_2676" data-name="グループ 2676" transform="translate(-1526)">
      <path id="パス_3474" data-name="パス 3474" d="M1619.24,1746.647c-1.74,0-2.341.041-2.461.041-.2,0-.22-.021-.22-.221v-1.441c0-.2.02-.219.22-.219.12,0,.721.04,2.461.04h5.1a10.857,10.857,0,0,0-.16-2.08c.74.019,1.46.059,2.16.139.2.02.321.12.321.2a1.032,1.032,0,0,1-.12.441,3.6,3.6,0,0,0-.121,1.3h5.481c1.741,0,2.341-.04,2.461-.04.18,0,.2.019.2.219v1.441c0,.2-.02.221-.2.221-.12,0-.72-.041-2.461-.041h-5.481v1.22h3.1c1.96,0,2.661-.04,2.781-.04.22,0,.24.021.24.24,0,.121-.04.64-.04,1.88v3.3c0,1.24.04,1.761.04,1.881,0,.2-.02.22-.24.22-.12,0-.821-.04-2.781-.04h-1.66a18.133,18.133,0,0,0,7.341,3.561,5.15,5.15,0,0,0-.86,1.38c-.16.38-.22.521-.38.521a1.791,1.791,0,0,1-.46-.141,17.481,17.481,0,0,1-7.142-4.481c.02,2.46.14,4.441.14,4.741,0,.2-.02.22-.22.22h-1.8c-.2,0-.22-.02-.22-.22,0-.3.12-2.22.14-4.661a16.263,16.263,0,0,1-6.621,4.4,1.874,1.874,0,0,1-.481.141c-.159,0-.239-.121-.4-.481a4.631,4.631,0,0,0-.84-1.261,16.06,16.06,0,0,0,6.862-3.72h-1.3c-1.961,0-2.661.04-2.781.04-.2,0-.22-.02-.22-.22,0-.14.04-.641.04-1.881v-3.3c0-1.24-.04-1.759-.04-1.88,0-.219.02-.24.22-.24.12,0,.82.04,2.781.04h2.72v-1.22Zm5.1,4.181v-1.4h-3.661v1.4Zm0,2.941v-1.42h-3.661v1.42Zm2.08-4.341v1.4h4.041v-1.4Zm4.041,2.921h-4.041v1.42h4.041Z" fill="#1482ca"/>
      <path id="パス_3475" data-name="パス 3475" d="M1641.94,1755.709a3.738,3.738,0,0,0,.58-1.12,17.135,17.135,0,0,1,1.721.86c.159.1.239.2.239.34a.39.39,0,0,1-.239.34,1.668,1.668,0,0,0-.541.54,13.652,13.652,0,0,1-3.26,3.141c-.24.16-.38.26-.481.26-.14,0-.239-.12-.419-.421a3.543,3.543,0,0,0-1.04-1.059A11.973,11.973,0,0,0,1641.94,1755.709Zm-.28-8.8c-1.821,0-2.421.02-2.54.02-.221,0-.241-.02-.241-.2v-1.561c0-.2.02-.221.241-.221.119,0,.719.04,2.54.04h4.781v-.34a7.587,7.587,0,0,0-.14-1.839c.74,0,1.42.04,2.16.1.181.02.3.08.3.2a1.15,1.15,0,0,1-.14.42,4.94,4.94,0,0,0-.08,1.141v.319h5.041c1.8,0,2.42-.04,2.54-.04.2,0,.22.021.22.221v1.561c0,.179-.02.2-.22.2-.12,0-.74-.02-2.54-.02Zm9.082,1.4c1.94,0,2.62-.04,2.76-.04.2,0,.221.019.221.219,0,.12-.04.54-.04,1.62v2.181c0,1.061.04,1.5.04,1.62,0,.2-.02.221-.221.221-.14,0-.82-.04-2.76-.04h-2.02v2.02c0,.92.059,1.781.059,2.521a1.942,1.942,0,0,1-.639,1.76c-.441.36-1,.48-2.881.48-.6.02-.64.04-.781-.6a3.685,3.685,0,0,0-.62-1.46,15.749,15.749,0,0,0,1.841.12c.7,0,.9-.22.9-.72v-4.121h-2.241c-1.92,0-2.62.04-2.74.04-.22,0-.24-.021-.24-.221,0-.139.04-.559.04-1.62v-2.181c0-1.08-.04-1.479-.04-1.62,0-.2.02-.219.24-.219.12,0,.82.04,2.74.04Zm.86,1.82h-8.122v2.16h8.122Zm.44,4.641c.24-.14.28-.121.4.06a11.68,11.68,0,0,0,4.321,3.54,4.245,4.245,0,0,0-1.04,1.28c-.2.321-.28.461-.42.461a.987.987,0,0,1-.46-.24,15.244,15.244,0,0,1-4.1-4.061c-.12-.18-.06-.22.14-.36Z" fill="#1482ca"/>
      <path id="パス_3476" data-name="パス 3476" d="M1663.5,1759.29c-1.78,0-2.4.04-2.521.04-.2,0-.22-.02-.22-.221v-1.679c0-.2.02-.221.22-.221.121,0,.741.04,2.521.04h4.821v-10.362H1664.8c-1.94,0-2.58.04-2.7.04-.2,0-.221-.02-.221-.22v-1.681c0-.2.02-.219.221-.219.12,0,.76.04,2.7.04h9.6c1.921,0,2.561-.04,2.681-.04.2,0,.22.019.22.219v1.681c0,.2-.02.22-.22.22-.12,0-.76-.04-2.681-.04h-3.82v10.362h5.1c1.78,0,2.4-.04,2.52-.04.2,0,.22.02.22.221v1.679c0,.2-.02.221-.22.221-.12,0-.74-.04-2.52-.04Z" fill="#1482ca"/>
      <path id="パス_3477" data-name="パス 3477" d="M1685.4,1755.829c-1.78,0-2.38.04-2.5.04-.2,0-.22-.02-.22-.22v-1.541c0-.2.02-.219.22-.219.121,0,.721.04,2.5.04h5.261a14.458,14.458,0,0,0-.12-1.7l1.16.12a12.593,12.593,0,0,0,1.82-1.441h-4.32c-1.841,0-2.481.04-2.581.04-.2,0-.22-.02-.22-.2v-1.4c0-.2.02-.22.22-.22.1,0,.74.04,2.581.04h5.421a1.258,1.258,0,0,0,.48-.04.651.651,0,0,1,.26-.08c.16,0,.36.16.86.64.4.419.56.68.56.86a.319.319,0,0,1-.24.32,4.789,4.789,0,0,0-.96.66,23.412,23.412,0,0,1-2.8,2.08v.321h5c1.78,0,2.38-.04,2.5-.04.2,0,.22.019.22.219v1.541c0,.2-.02.22-.22.22-.12,0-.72-.04-2.5-.04h-5v1.3c0,.48.04,1.221.04,1.741,0,.859-.159,1.3-.64,1.64-.52.32-1.14.44-3.06.44-.621,0-.621.02-.781-.58a5.99,5.99,0,0,0-.6-1.46,19.74,19.74,0,0,0,2.141.119c.56,0,.78-.139.78-.7v-2.5Zm1.24-12.8c.26-.1.32-.06.44.1a14.91,14.91,0,0,1,1.34,2.081c.1.2.1.22-.179.319l-1.321.481h4.161a15.474,15.474,0,0,0-1.14-2.5c-.12-.2-.06-.221.18-.3l1.32-.4c.24-.08.3-.04.4.119a15.474,15.474,0,0,1,1.1,2.321c.06.18.06.2-.219.3l-1.3.46h3.081a15.766,15.766,0,0,0,.98-2.021,6.591,6.591,0,0,0,.3-1.06,10.058,10.058,0,0,1,1.981.6c.179.08.279.18.279.3a.379.379,0,0,1-.2.3,1.5,1.5,0,0,0-.381.46c-.279.519-.52.939-.82,1.42h.521c1.86,0,2.52-.04,2.64-.04.22,0,.24.02.24.22,0,.12-.04.5-.04,1.081v.92c0,1.8.04,2.12.04,2.24,0,.219-.02.24-.24.24h-1.58c-.2,0-.221-.021-.221-.24v-2.641h-12.8v2.641c0,.2-.02.219-.22.219H1683.4c-.219,0-.239-.019-.239-.219,0-.14.039-.46.039-2.261v-.74c0-.739-.039-1.1-.039-1.24,0-.2.02-.22.239-.22.121,0,.781.04,2.641.04h.54a11.613,11.613,0,0,0-1.28-2.24c-.12-.181-.1-.22.14-.3Z" fill="#1482ca"/>
      <path id="パス_3478" data-name="パス 3478" d="M1709.641,1743.446a.93.93,0,0,0,.4-.059.5.5,0,0,1,.26-.061c.139,0,.3.08.76.58.42.481.48.681.48.8a.519.519,0,0,1-.18.359,1.345,1.345,0,0,0-.381.781,25.233,25.233,0,0,1-1.54,3.961,6.3,6.3,0,0,1,1.721,4.561,2.535,2.535,0,0,1-2.6,2.8c-.62.04-.62.04-.68-.58a2.315,2.315,0,0,0-.42-1.2c1.26.06,1.8-.36,1.8-1.4,0-.979-.26-2.1-1.78-4.041a24.806,24.806,0,0,0,1.7-4.66h-2v11.322c0,2.741.04,4.181.04,4.3,0,.18-.02.2-.22.2h-1.581c-.2,0-.22-.02-.22-.2,0-.12.04-1.5.04-4.281v-8.661c0-2.822-.04-4.2-.04-4.342,0-.2.02-.22.22-.22.141,0,.621.04,1.6.04Zm6.061,9.943c-.1,3.86-1.3,6.241-4.521,7.581a1.608,1.608,0,0,1-.48.16c-.14,0-.221-.1-.44-.4a5.237,5.237,0,0,0-1.161-1.14c3.241-.84,4.521-2.561,4.581-6.2-1.46.019-2.02.04-2.12.04-.2,0-.22-.021-.22-.221v-1.42c0-.22.02-.24.22-.24.12,0,.76.04,2.66.04h5.321c1.881,0,2.541-.04,2.661-.04.2,0,.22.02.22.24v1.42c0,.2-.02.221-.22.221-.12,0-.78-.04-2.661-.04h-.56v4.84c0,.42,0,.541.161.661a1.371,1.371,0,0,0,.779.12c.541,0,.681-.061.821-.24.2-.281.22-.7.26-2.121a4.242,4.242,0,0,0,1.34.5c.52.1.52.14.5.661-.1,1.66-.36,2.24-.94,2.62a4.009,4.009,0,0,1-2.381.46,3.95,3.95,0,0,1-1.98-.3c-.38-.26-.58-.64-.58-1.641v-5.56Zm-.16-3.421c-1.521,0-2.021.04-2.141.04-.2,0-.22-.021-.22-.22v-.961h-1.48c-.22,0-.24-.019-.24-.22,0-.139.04-.379.04-1.879v-.561c0-.58-.04-.86-.04-1,0-.181.02-.2.24-.2.12,0,.8.04,2.68.04h1.221v-.2a9.1,9.1,0,0,0-.141-1.941c.741.021,1.421.08,2.1.16.2.02.32.1.32.18a.763.763,0,0,1-.1.38,2.93,2.93,0,0,0-.12,1.181v.24h1.7c1.881,0,2.561-.04,2.681-.04.22,0,.24.019.24.2,0,.12-.04.42-.04.86v.7c0,1.5.04,1.74.04,1.879,0,.2-.02.22-.24.22h-1.48v.961c0,.2-.02.22-.22.22-.12,0-.62-.04-2.121-.04Zm-2.1-1.78c.16,0,.681.04,2.1.04h2.68c1.341,0,1.881-.021,2.061-.04v-1.46h-6.842Z" fill="#1482ca"/>
      <path id="パス_3479" data-name="パス 3479" d="M1738.082,1755.049a7.465,7.465,0,0,0-.12-.9,16.541,16.541,0,0,1,2.1.141c.18.02.28.12.28.22a.67.67,0,0,1-.1.3.851.851,0,0,0-.08.24h1.661c1.78,0,2.38-.04,2.5-.04.2,0,.2.02.2.22v1.32c0,.221,0,.24-.2.24-.12,0-.72-.04-2.5-.04h-1.661v.28c0,.8.02,1.42.02,2.12a1.475,1.475,0,0,1-.74,1.481,5.92,5.92,0,0,1-2.7.36c-.6,0-.62,0-.741-.46a4.837,4.837,0,0,0-.56-1.5c.72.061,1.42.08,1.821.08.58,0,.82-.179.82-.639v-1.721H1729.4c-1.78,0-2.38.04-2.5.04-.2,0-.2-.019-.2-.24v-1.32c0-.2,0-.22.2-.22.121,0,.721.04,2.5.04Zm-6-1.221c-1.961,0-2.661.04-2.781.04-.22,0-.24-.019-.24-.22,0-.139.04-.639.04-1.8v-2.641c0-1.221-.04-1.721-.04-1.86,0-.2.02-.221.24-.221.12,0,.82.04,2.781.04h2.36v-1.04H1729.7c-1.8,0-2.421.04-2.54.04-.2,0-.221-.021-.221-.22v-1.3c0-.219.02-.24.221-.24.119,0,.739.04,2.54.04h4.741a12.774,12.774,0,0,0-.12-1.7c.7.021,1.38.061,2.06.141.181.019.261.079.261.2a1.3,1.3,0,0,1-.1.4,2.609,2.609,0,0,0-.1.96h5.081c1.821,0,2.441-.04,2.561-.04.2,0,.22.021.22.24v1.3c0,.2-.02.22-.22.22-.12,0-.74-.04-2.561-.04h-5.081v1.04h2.681c1.961,0,2.661-.04,2.8-.04.2,0,.221.02.221.221,0,.119-.04.639-.04,1.8v2.7c0,1.16.04,1.679.04,1.8,0,.2-.02.22-.221.22-.139,0-.839-.04-2.8-.04Zm-.06,3.142c.24-.12.28-.1.439.039a14.024,14.024,0,0,1,1.861,2.2c.12.18.08.24-.16.359l-1.4.741c-.24.14-.281.16-.4-.04a11.668,11.668,0,0,0-1.78-2.3c-.16-.181-.12-.241.1-.361Zm2.42-7.182v-1.16h-3.381v1.16Zm0,2.6v-1.2h-3.381v1.2Zm2-3.761v1.16h3.681v-1.16Zm3.681,2.56h-3.681v1.2h3.681Z" fill="#1482ca"/>
      <path id="パス_3480" data-name="パス 3480" d="M1754.621,1743.547c1.26,0,1.82-.04,1.94-.04.2,0,.22.019.22.22,0,.12-.04.74-.04,2.04v2.921c0,1.28.04,1.9.04,2.02,0,.2-.02.22-.22.22-.12,0-.68-.04-1.94-.04h-3.061v5.681c0,2.721.04,4.061.04,4.2,0,.2-.02.219-.22.219h-1.74c-.2,0-.221-.02-.221-.219,0-.141.04-1.481.04-4.2v-8.6c0-2.721-.04-4.1-.04-4.241,0-.2.02-.22.221-.22.14,0,.88.04,2.32.04Zm-3.061,1.58v1.42h3.2v-1.42Zm3.2,2.82h-3.2v1.441h3.2Zm10.962,6.442c0,1.4.08,3,.08,3.98,0,.961-.1,1.441-.58,1.841s-.98.54-3.061.54c-.64,0-.66,0-.78-.64a5.511,5.511,0,0,0-.5-1.5,18.519,18.519,0,0,0,1.94.1c.64,0,.821-.181.821-.78v-7.042h-3.061c-1.54,0-2.04.04-2.161.04-.22,0-.24-.02-.24-.22,0-.14.04-.641.04-1.881v-3.221c0-1.24-.04-1.74-.04-1.879,0-.2.02-.22.24-.22.121,0,.621.04,2.161.04h2.78c1.541,0,2.061-.04,2.181-.04.2,0,.22.019.22.22,0,.12-.04.94-.04,2.62Zm-5.521-9.262v1.42h3.441v-1.42Zm3.441,4.261v-1.441H1760.2v1.441Z" fill="#1482ca"/>
      <path id="パス_3481" data-name="パス 3481" d="M1773.4,1755.829c-1.78,0-2.38.04-2.5.04-.2,0-.22-.02-.22-.22v-1.541c0-.2.02-.219.22-.219.121,0,.721.04,2.5.04h5.261a14.458,14.458,0,0,0-.12-1.7l1.16.12a12.593,12.593,0,0,0,1.82-1.441h-4.32c-1.841,0-2.481.04-2.581.04-.2,0-.22-.02-.22-.2v-1.4c0-.2.02-.22.22-.22.1,0,.74.04,2.581.04h5.421a1.258,1.258,0,0,0,.48-.04.651.651,0,0,1,.26-.08c.16,0,.36.16.86.64.4.419.56.68.56.86a.319.319,0,0,1-.24.32,4.789,4.789,0,0,0-.96.66,23.412,23.412,0,0,1-2.8,2.08v.321h5c1.78,0,2.38-.04,2.5-.04.2,0,.22.019.22.219v1.541c0,.2-.02.22-.22.22-.12,0-.72-.04-2.5-.04h-5v1.3c0,.48.04,1.221.04,1.741,0,.859-.159,1.3-.64,1.64-.52.32-1.14.44-3.06.44-.621,0-.621.02-.781-.58a5.99,5.99,0,0,0-.6-1.46,19.74,19.74,0,0,0,2.141.119c.56,0,.78-.139.78-.7v-2.5Zm1.24-12.8c.26-.1.32-.06.44.1a14.91,14.91,0,0,1,1.34,2.081c.1.2.1.22-.179.319l-1.321.481h4.161a15.474,15.474,0,0,0-1.14-2.5c-.12-.2-.06-.221.18-.3l1.32-.4c.24-.08.3-.04.4.119a15.474,15.474,0,0,1,1.1,2.321c.06.18.06.2-.219.3l-1.3.46h3.081a15.766,15.766,0,0,0,.98-2.021,6.591,6.591,0,0,0,.3-1.06,10.058,10.058,0,0,1,1.981.6c.179.08.279.18.279.3a.379.379,0,0,1-.2.3,1.5,1.5,0,0,0-.381.46c-.279.519-.52.939-.82,1.42h.521c1.86,0,2.52-.04,2.64-.04.22,0,.24.02.24.22,0,.12-.04.5-.04,1.081v.92c0,1.8.04,2.12.04,2.24,0,.219-.02.24-.24.24h-1.58c-.2,0-.221-.021-.221-.24v-2.641h-12.8v2.641c0,.2-.02.219-.22.219H1771.4c-.219,0-.239-.019-.239-.219,0-.14.039-.46.039-2.261v-.74c0-.739-.039-1.1-.039-1.24,0-.2.02-.22.239-.22.121,0,.781.04,2.641.04h.54a11.613,11.613,0,0,0-1.28-2.24c-.12-.181-.1-.22.14-.3Z" fill="#1482ca"/>
      <path id="パス_3482" data-name="パス 3482" d="M1795.5,1761.13c-.2,0-.22-.02-.22-.24,0-.34.12-4.08.14-8.682a16.7,16.7,0,0,1-1.961,4.321c-.12.2-.22.3-.319.3-.08,0-.14-.1-.221-.34a6.577,6.577,0,0,0-.68-1.5,18.057,18.057,0,0,0,3-6.321h-.34c-1.38,0-1.82.039-1.941.039-.2,0-.22-.019-.22-.239v-1.421c0-.18.02-.2.22-.2.121,0,.561.04,1.941.04h.46v-1.34a15.245,15.245,0,0,0-.16-2.74,18.942,18.942,0,0,1,2,.139c.2.02.341.1.341.2a1.026,1.026,0,0,1-.121.44,5.054,5.054,0,0,0-.14,1.921v1.38c1.241,0,1.641-.04,1.761-.04.2,0,.22.02.22.2v1.421c0,.22-.02.239-.22.239-.12,0-.52-.039-1.7-.039a12.8,12.8,0,0,0,2.2,3.78,5.362,5.362,0,0,0-.72,1.3c-.1.239-.16.359-.24.359s-.161-.1-.28-.319a13.047,13.047,0,0,1-1.081-2.5c.02,5.2.14,9.262.14,9.6,0,.22-.02.24-.24.24Zm7.321-9.482c.241-.12.281-.08.361.14a12.476,12.476,0,0,0,1.46,2.921,9.563,9.563,0,0,0,.82-1.561,6.748,6.748,0,0,0,.5-1.72,11.128,11.128,0,0,1,1.761.841c.2.12.279.2.279.3a.55.55,0,0,1-.219.4,2.522,2.522,0,0,0-.461.84,14,14,0,0,1-1.34,2.48,13.065,13.065,0,0,0,4.941,2.721,6.382,6.382,0,0,0-.92,1.42c-.16.341-.24.48-.4.48a1.377,1.377,0,0,1-.46-.16,14.974,14.974,0,0,1-4.461-2.921,14.784,14.784,0,0,1-4.821,3.061,1.315,1.315,0,0,1-.48.16c-.14,0-.22-.14-.4-.48a4.021,4.021,0,0,0-.959-1.2,13.033,13.033,0,0,0,5.341-3.06,15.408,15.408,0,0,1-1.921-3.662c-.08-.2-.04-.219.22-.36Zm.581-3.161c.2.12.3.2.3.321a.443.443,0,0,1-.2.339,2.987,2.987,0,0,0-.48.621,12.863,12.863,0,0,1-2.24,2.74c-.22.2-.34.32-.44.32s-.2-.14-.38-.42a4.462,4.462,0,0,0-.961-.98,10.489,10.489,0,0,0,2.4-2.66,4.705,4.705,0,0,0,.44-.96A13.223,13.223,0,0,1,1803.4,1748.487Zm-1.1-1.12c-1.88,0-2.54.04-2.66.04-.2,0-.22-.02-.22-.219v-1.521c0-.2.02-.22.22-.22.12,0,.78.039,2.66.039h1.281v-.58a11.456,11.456,0,0,0-.141-2.12c.741.021,1.521.061,2.181.14.2.02.34.12.34.2a.943.943,0,0,1-.12.421,3.12,3.12,0,0,0-.16,1.359v.58h1.84c1.881,0,2.521-.039,2.641-.039.22,0,.24.02.24.22v1.521c0,.2-.02.219-.24.219-.12,0-.76-.04-2.641-.04Zm4.681.54c.241-.139.281-.139.42.061a10.683,10.683,0,0,0,3.281,3.12,6.059,6.059,0,0,0-.9,1.24c-.16.32-.24.441-.36.441-.1,0-.22-.081-.42-.241a12.673,12.673,0,0,1-3.221-3.621c-.12-.179-.08-.219.16-.359Z" fill="#1482ca"/>
    </g>
  </g>
</svg>
