<svg xmlns="http://www.w3.org/2000/svg" width="306" height="85" viewBox="0 0 306 85">
  <g id="グループ_4322" data-name="グループ 4322" transform="translate(-185 -1552)">
    <g id="パス_4225" data-name="パス 4225" fill="none" stroke-miterlimit="10">
      <path d="M463,1637H185v-85H463l28,41.42Z" stroke="none"/>
      <path d="M 462.453857421875 1636 L 489.8023986816406 1593.43408203125 L 462.4689636230469 1553 L 186 1553 L 186 1636 L 462.453857421875 1636 M 463 1637 L 185 1637 L 185 1552 L 463 1552 L 491 1593.420166015625 L 463 1637 Z" stroke="none" fill="#1482ca"/>
    </g>
    <g id="グループ_2966" data-name="グループ 2966">
      <path id="パス_4226" data-name="パス 4226" d="M214.972,1587.068c-2.089,0-2.809.048-2.953.048-.24,0-.264-.023-.264-.263v-1.729c0-.239.024-.264.264-.264.144,0,.864.048,2.953.048h6.12a13.031,13.031,0,0,0-.192-2.5c.888.025,1.752.072,2.592.168.24.024.384.144.384.24a1.23,1.23,0,0,1-.144.528,4.353,4.353,0,0,0-.144,1.56h6.577c2.088,0,2.808-.048,2.952-.048.216,0,.24.025.24.264v1.729c0,.24-.024.263-.24.263-.144,0-.864-.048-2.952-.048h-6.577v1.464h3.721c2.352,0,3.192-.048,3.336-.048.264,0,.288.025.288.288,0,.145-.048.769-.048,2.257v3.96c0,1.489.048,2.113.048,2.256,0,.24-.024.265-.288.265-.144,0-.984-.049-3.336-.049h-1.993a21.726,21.726,0,0,0,8.809,4.272,6.2,6.2,0,0,0-1.032,1.657c-.192.456-.264.624-.456.624a2.129,2.129,0,0,1-.552-.168,20.984,20.984,0,0,1-8.569-5.376c.024,2.952.168,5.328.168,5.688,0,.24-.024.264-.264.264h-2.16c-.24,0-.264-.024-.264-.264,0-.36.144-2.664.168-5.593a19.534,19.534,0,0,1-7.945,5.281,2.225,2.225,0,0,1-.576.168c-.192,0-.288-.144-.48-.576a5.52,5.52,0,0,0-1.008-1.512,19.268,19.268,0,0,0,8.233-4.465h-1.56c-2.352,0-3.193.049-3.337.049-.24,0-.263-.025-.263-.265,0-.168.047-.767.047-2.256v-3.96c0-1.488-.047-2.112-.047-2.257,0-.263.023-.288.263-.288.144,0,.985.048,3.337.048h3.264v-1.464Zm6.12,5.017V1590.4H216.7v1.681Zm0,3.528v-1.7H216.7v1.7Zm2.5-5.209v1.681h4.849V1590.4Zm4.849,3.505h-4.849v1.7h4.849Z" fill="#1482ca"/>
      <path id="パス_4227" data-name="パス 4227" d="M242.211,1597.941a4.466,4.466,0,0,0,.7-1.343,20.89,20.89,0,0,1,2.064,1.031c.192.12.288.24.288.408a.466.466,0,0,1-.288.408,1.985,1.985,0,0,0-.648.649,16.392,16.392,0,0,1-3.913,3.768c-.288.192-.456.312-.576.312-.168,0-.288-.144-.5-.5a4.229,4.229,0,0,0-1.248-1.273A14.328,14.328,0,0,0,242.211,1597.941Zm-.336-10.56c-2.184,0-2.9.023-3.048.023-.264,0-.288-.023-.288-.24v-1.872c0-.239.024-.264.288-.264.144,0,.864.048,3.048.048h5.737v-.408a9.116,9.116,0,0,0-.168-2.208c.888,0,1.7.048,2.592.12.216.024.36.1.36.24a1.388,1.388,0,0,1-.168.5,5.915,5.915,0,0,0-.1,1.368v.384h6.049c2.16,0,2.9-.048,3.048-.048.24,0,.264.025.264.264v1.872c0,.217-.024.24-.264.24-.144,0-.888-.023-3.048-.023Zm10.9,1.68c2.329,0,3.145-.048,3.312-.048.241,0,.265.024.265.263,0,.145-.048.649-.048,1.945v2.616c0,1.272.048,1.8.048,1.944,0,.24-.024.264-.265.264-.167,0-.983-.048-3.312-.048h-2.424v2.425c0,1.1.072,2.136.072,3.023a2.333,2.333,0,0,1-.768,2.113c-.528.432-1.2.576-3.456.576-.72.024-.768.048-.936-.72a4.471,4.471,0,0,0-.744-1.752,18.836,18.836,0,0,0,2.208.144c.84,0,1.08-.264,1.08-.865V1596h-2.688c-2.3,0-3.144.048-3.288.048-.265,0-.288-.024-.288-.264,0-.168.047-.672.047-1.944v-2.616c0-1.3-.047-1.777-.047-1.945,0-.239.023-.263.288-.263.144,0,.984.048,3.288.048Zm1.033,2.184H244.06v2.592H253.8Zm.528,5.568c.288-.167.335-.144.48.073a14.023,14.023,0,0,0,5.184,4.248,5.066,5.066,0,0,0-1.248,1.536c-.24.384-.336.552-.5.552a1.185,1.185,0,0,1-.552-.288,18.289,18.289,0,0,1-4.921-4.872c-.144-.216-.072-.264.168-.433Z" fill="#1482ca"/>
      <path id="パス_4228" data-name="パス 4228" d="M268.083,1602.237c-2.136,0-2.88.049-3.024.049-.24,0-.264-.024-.264-.265v-2.015c0-.24.024-.265.264-.265.144,0,.888.049,3.024.049h5.785v-12.434h-4.224c-2.329,0-3.1.048-3.241.048-.24,0-.264-.023-.264-.263v-2.017c0-.239.024-.264.264-.264.144,0,.912.048,3.241.048h11.521c2.3,0,3.072-.048,3.216-.048.24,0,.264.025.264.264v2.017c0,.24-.024.263-.264.263-.144,0-.912-.048-3.216-.048H276.58v12.434H282.7c2.136,0,2.88-.049,3.024-.049.24,0,.264.025.264.265v2.015c0,.241-.024.265-.264.265-.144,0-.888-.049-3.024-.049Z" fill="#1482ca"/>
      <path id="パス_4229" data-name="パス 4229" d="M294.364,1598.085c-2.136,0-2.857.049-3,.049-.239,0-.263-.025-.263-.265v-1.848c0-.24.024-.264.263-.264.144,0,.865.049,3,.049h6.312a17.355,17.355,0,0,0-.144-2.041l1.392.144a14.972,14.972,0,0,0,2.184-1.728h-5.184c-2.208,0-2.976.048-3.1.048-.24,0-.264-.024-.264-.24v-1.68c0-.241.024-.264.264-.264.12,0,.888.048,3.1.048h6.5a1.506,1.506,0,0,0,.576-.048.783.783,0,0,1,.312-.1c.192,0,.432.193,1.032.769.48.5.672.816.672,1.032a.383.383,0,0,1-.288.384,5.739,5.739,0,0,0-1.152.792,28.44,28.44,0,0,1-3.36,2.5v.385h6c2.136,0,2.856-.049,3-.049.24,0,.264.024.264.264v1.848c0,.24-.024.265-.264.265-.144,0-.864-.049-3-.049h-6v1.561c0,.576.048,1.463.048,2.087,0,1.033-.192,1.561-.769,1.969-.624.384-1.368.527-3.672.527-.744,0-.744.025-.936-.695a7.263,7.263,0,0,0-.72-1.753,23.1,23.1,0,0,0,2.568.145c.672,0,.936-.168.936-.84v-3Zm1.488-15.361c.312-.12.384-.072.528.12a18.111,18.111,0,0,1,1.608,2.5c.12.24.12.264-.216.385l-1.584.576h4.992a18.532,18.532,0,0,0-1.368-3c-.144-.239-.072-.264.216-.36l1.584-.48c.288-.1.36-.048.48.144a18.7,18.7,0,0,1,1.321,2.785c.071.215.071.239-.265.359l-1.56.553h3.7a19.053,19.053,0,0,0,1.176-2.425,7.95,7.95,0,0,0,.36-1.272,12.057,12.057,0,0,1,2.376.72c.216.1.336.216.336.361a.451.451,0,0,1-.24.359,1.812,1.812,0,0,0-.456.553c-.336.624-.624,1.128-.984,1.7h.624c2.232,0,3.024-.049,3.168-.049.264,0,.288.024.288.265,0,.143-.048.6-.048,1.3v1.1c0,2.16.048,2.544.048,2.687,0,.265-.024.289-.288.289h-1.9c-.24,0-.264-.024-.264-.289v-3.167H294.124v3.167c0,.241-.024.265-.264.265h-1.9c-.264,0-.288-.024-.288-.265,0-.167.049-.551.049-2.711v-.888c0-.889-.049-1.32-.049-1.488,0-.241.024-.265.288-.265.144,0,.936.049,3.169.049h.648a13.905,13.905,0,0,0-1.536-2.689c-.144-.216-.12-.264.168-.36Z" fill="#1482ca"/>
      <path id="パス_4230" data-name="パス 4230" d="M323.452,1583.229a1.1,1.1,0,0,0,.48-.073.6.6,0,0,1,.312-.072c.168,0,.36.1.912.7.5.576.576.817.576.96a.621.621,0,0,1-.216.432,1.6,1.6,0,0,0-.456.936,30.5,30.5,0,0,1-1.848,4.752,7.56,7.56,0,0,1,2.064,5.473,3.041,3.041,0,0,1-3.12,3.36c-.744.048-.744.048-.816-.7a2.762,2.762,0,0,0-.505-1.439c1.513.071,2.161-.433,2.161-1.681,0-1.176-.312-2.52-2.137-4.848a29.753,29.753,0,0,0,2.041-5.592h-2.4v13.584c0,3.289.047,5.017.047,5.161,0,.216-.024.24-.263.24h-1.9c-.24,0-.263-.024-.263-.24,0-.144.047-1.8.047-5.136v-10.394c0-3.383-.047-5.04-.047-5.208,0-.24.023-.264.263-.264.168,0,.744.049,1.921.049Zm7.273,11.928c-.121,4.633-1.56,7.489-5.425,9.1a1.917,1.917,0,0,1-.576.192c-.168,0-.264-.12-.528-.48a6.251,6.251,0,0,0-1.392-1.368c3.888-1.008,5.424-3.073,5.5-7.441-1.752.025-2.424.048-2.544.048-.24,0-.264-.023-.264-.264v-1.7c0-.264.024-.288.264-.288.144,0,.912.048,3.192.048h6.385c2.256,0,3.048-.048,3.192-.048.24,0,.264.024.264.288v1.7c0,.241-.024.264-.264.264-.144,0-.936-.048-3.192-.048h-.672v5.809c0,.5,0,.647.192.792.144.12.432.143.936.143.648,0,.816-.071.984-.288.24-.336.264-.84.312-2.544a5.094,5.094,0,0,0,1.608.6c.624.12.624.168.6.792-.12,1.992-.432,2.687-1.128,3.143a4.81,4.81,0,0,1-2.856.553,4.752,4.752,0,0,1-2.376-.36c-.456-.312-.7-.768-.7-1.968v-6.673Zm-.193-4.1c-1.824,0-2.424.048-2.568.048-.24,0-.264-.024-.264-.264v-1.152h-1.776c-.264,0-.288-.024-.288-.264,0-.168.048-.456.048-2.257v-.672c0-.7-.048-1.032-.048-1.2,0-.216.024-.239.288-.239.144,0,.96.048,3.216.048H330.6v-.241a11,11,0,0,0-.167-2.328c.888.024,1.7.1,2.52.192.24.024.384.12.384.216a.93.93,0,0,1-.12.456,3.515,3.515,0,0,0-.144,1.417v.288h2.04c2.256,0,3.072-.048,3.216-.048.264,0,.288.023.288.239,0,.145-.048.5-.048,1.032v.84c0,1.8.048,2.089.048,2.257,0,.24-.024.264-.288.264h-1.776v1.152c0,.24-.024.264-.264.264-.144,0-.744-.048-2.544-.048Zm-2.52-2.136c.192,0,.816.048,2.52.048h3.217c1.608,0,2.256-.025,2.472-.048v-1.753h-8.209Z" fill="#1482ca"/>
      <path id="パス_4231" data-name="パス 4231" d="M357.581,1597.149a9.176,9.176,0,0,0-.144-1.08,19.865,19.865,0,0,1,2.52.168c.216.025.335.144.335.264a.789.789,0,0,1-.119.36,1.018,1.018,0,0,0-.1.288h1.992c2.136,0,2.856-.047,3-.047.24,0,.24.023.24.263v1.584c0,.265,0,.288-.24.288-.144,0-.864-.048-3-.048h-1.992v.336c0,.96.024,1.7.024,2.544a1.77,1.77,0,0,1-.889,1.777,7.1,7.1,0,0,1-3.24.432c-.72,0-.744,0-.888-.552a5.783,5.783,0,0,0-.672-1.8c.864.072,1.7.095,2.184.095.7,0,.985-.215.985-.767v-2.065H347.164c-2.137,0-2.857.048-3,.048-.24,0-.24-.023-.24-.288v-1.584c0-.24,0-.263.24-.263.144,0,.864.047,3,.047Zm-7.2-1.463c-2.353,0-3.192.047-3.337.047-.264,0-.288-.024-.288-.264,0-.168.049-.768.049-2.16v-3.168c0-1.464-.049-2.065-.049-2.233,0-.239.024-.263.288-.263.145,0,.984.047,3.337.047h2.832v-1.248h-5.689c-2.16,0-2.9.048-3.048.048-.24,0-.264-.023-.264-.263v-1.561c0-.264.024-.288.264-.288.144,0,.888.049,3.048.049h5.689a15.305,15.305,0,0,0-.144-2.041c.84.024,1.656.072,2.472.168.216.024.312.1.312.24a1.566,1.566,0,0,1-.12.48,3.175,3.175,0,0,0-.12,1.153h6.1c2.184,0,2.928-.049,3.072-.049.24,0,.264.024.264.288v1.561c0,.24-.024.263-.264.263-.144,0-.888-.048-3.072-.048h-6.1v1.248h3.217c2.352,0,3.192-.047,3.36-.047.24,0,.264.024.264.263,0,.145-.048.769-.048,2.16v3.241c0,1.392.048,2.016.048,2.16,0,.24-.024.264-.264.264-.168,0-1.008-.047-3.36-.047Zm-.072,3.767c.288-.143.336-.119.528.049a16.878,16.878,0,0,1,2.232,2.64c.144.215.1.288-.192.432l-1.68.888c-.288.168-.336.192-.48-.048a14.047,14.047,0,0,0-2.136-2.761c-.192-.215-.144-.288.12-.431Zm2.9-8.616v-1.393h-4.056v1.393Zm0,3.12v-1.44h-4.056v1.44Zm2.4-4.513v1.393h4.417v-1.393Zm4.417,3.073h-4.417v1.44h4.417Z" fill="#1482ca"/>
      <path id="パス_4232" data-name="パス 4232" d="M377.428,1583.348c1.512,0,2.184-.048,2.328-.048.24,0,.264.024.264.264,0,.144-.048.888-.048,2.449v3.5c0,1.536.048,2.28.048,2.423,0,.241-.024.265-.264.265-.144,0-.816-.048-2.328-.048h-3.673v6.817c0,3.263.048,4.872.048,5.04,0,.24-.024.264-.263.264h-2.089c-.24,0-.264-.024-.264-.264,0-.168.048-1.777.048-5.04v-10.322c0-3.263-.048-4.92-.048-5.088,0-.24.024-.264.264-.264.168,0,1.056.048,2.784.048Zm-3.673,1.9v1.7H377.6v-1.7Zm3.841,3.385h-3.841v1.727H377.6Zm13.153,7.728c0,1.68.1,3.6.1,4.777,0,1.152-.12,1.728-.7,2.208s-1.176.648-3.672.648c-.769,0-.792,0-.936-.768a6.57,6.57,0,0,0-.6-1.8,22.211,22.211,0,0,0,2.329.12c.768,0,.983-.216.983-.937v-8.448h-3.671c-1.849,0-2.449.048-2.593.048-.264,0-.288-.024-.288-.265,0-.168.048-.767.048-2.255v-3.865c0-1.488-.048-2.088-.048-2.256,0-.24.024-.264.288-.264.144,0,.744.048,2.593.048h3.336c1.848,0,2.472-.048,2.616-.048.24,0,.264.024.264.264,0,.144-.048,1.128-.048,3.144Zm-6.624-11.113v1.7h4.127v-1.7Zm4.127,5.112v-1.727h-4.127v1.727Z" fill="#1482ca"/>
      <path id="パス_4233" data-name="パス 4233" d="M399.963,1598.085c-2.136,0-2.856.049-3,.049-.24,0-.264-.025-.264-.265v-1.848c0-.24.024-.264.264-.264.144,0,.864.049,3,.049h6.313a17.348,17.348,0,0,0-.144-2.041l1.392.144a15.025,15.025,0,0,0,2.184-1.728h-5.184c-2.209,0-2.977.048-3.1.048-.239,0-.263-.024-.263-.24v-1.68c0-.241.024-.264.263-.264.12,0,.888.048,3.1.048h6.5a1.506,1.506,0,0,0,.576-.048.782.782,0,0,1,.313-.1c.191,0,.431.193,1.031.769.481.5.673.816.673,1.032a.384.384,0,0,1-.288.384,5.707,5.707,0,0,0-1.153.792,28.438,28.438,0,0,1-3.36,2.5v.385h6c2.136,0,2.856-.049,3-.049.24,0,.264.024.264.264v1.848c0,.24-.024.265-.264.265-.144,0-.864-.049-3-.049h-6v1.561c0,.576.048,1.463.048,2.087,0,1.033-.192,1.561-.768,1.969-.624.384-1.368.527-3.672.527-.744,0-.744.025-.936-.695a7.224,7.224,0,0,0-.721-1.753,23.116,23.116,0,0,0,2.569.145c.672,0,.936-.168.936-.84v-3Zm1.489-15.361c.312-.12.383-.072.527.12a17.926,17.926,0,0,1,1.608,2.5c.121.24.121.264-.215.385l-1.584.576h4.992a18.529,18.529,0,0,0-1.368-3c-.144-.239-.072-.264.216-.36l1.584-.48c.288-.1.36-.048.48.144a18.7,18.7,0,0,1,1.32,2.785c.072.215.072.239-.264.359l-1.56.553h3.7a19.19,19.19,0,0,0,1.177-2.425,8.075,8.075,0,0,0,.359-1.272,12.015,12.015,0,0,1,2.376.72c.217.1.337.216.337.361a.452.452,0,0,1-.24.359,1.812,1.812,0,0,0-.456.553c-.336.624-.624,1.128-.984,1.7h.624c2.232,0,3.024-.049,3.168-.049.264,0,.288.024.288.265,0,.143-.048.6-.048,1.3v1.1c0,2.16.048,2.544.048,2.687,0,.265-.024.289-.288.289h-1.9c-.241,0-.265-.024-.265-.289v-3.167H399.723v3.167c0,.241-.024.265-.264.265h-1.9c-.264,0-.288-.024-.288-.265,0-.167.048-.551.048-2.711v-.888c0-.889-.048-1.32-.048-1.488,0-.241.024-.265.288-.265.144,0,.936.049,3.168.049h.648a13.905,13.905,0,0,0-1.536-2.689c-.144-.216-.12-.264.168-.36Z" fill="#1482ca"/>
      <path id="パス_4234" data-name="パス 4234" d="M426.484,1604.446c-.24,0-.264-.024-.264-.288,0-.408.144-4.9.168-10.417a20.11,20.11,0,0,1-2.352,5.185c-.144.239-.265.359-.385.359-.1,0-.168-.12-.264-.407a7.9,7.9,0,0,0-.816-1.8,21.657,21.657,0,0,0,3.6-7.585h-.408c-1.657,0-2.184.049-2.328.049-.241,0-.265-.024-.265-.288v-1.7c0-.217.024-.24.265-.24.144,0,.671.047,2.328.047h.552v-1.608a18.3,18.3,0,0,0-.192-3.288,23.04,23.04,0,0,1,2.4.168c.24.024.408.12.408.24a1.226,1.226,0,0,1-.144.528,6.066,6.066,0,0,0-.168,2.3v1.656c1.488,0,1.968-.047,2.112-.047.24,0,.264.023.264.24v1.7c0,.264-.024.288-.264.288-.144,0-.624-.049-2.04-.049a15.332,15.332,0,0,0,2.64,4.537,6.43,6.43,0,0,0-.864,1.56c-.12.288-.192.432-.288.432s-.192-.12-.336-.384a15.674,15.674,0,0,1-1.3-3c.024,6.241.168,11.113.168,11.521,0,.264-.024.288-.288.288Zm8.785-11.377c.288-.144.335-.1.432.168a14.935,14.935,0,0,0,1.752,3.5,11.52,11.52,0,0,0,.984-1.872,8.1,8.1,0,0,0,.6-2.064,13.435,13.435,0,0,1,2.112,1.008c.24.144.336.24.336.36a.656.656,0,0,1-.264.48,3.041,3.041,0,0,0-.552,1.008,16.8,16.8,0,0,1-1.608,2.977,15.661,15.661,0,0,0,5.928,3.263,7.707,7.707,0,0,0-1.1,1.7c-.192.409-.288.577-.48.577a1.651,1.651,0,0,1-.552-.192,18.019,18.019,0,0,1-5.353-3.505,17.716,17.716,0,0,1-5.784,3.673,1.578,1.578,0,0,1-.576.192c-.168,0-.264-.168-.48-.577a4.854,4.854,0,0,0-1.152-1.439,15.6,15.6,0,0,0,6.409-3.673,18.41,18.41,0,0,1-2.3-4.391c-.1-.241-.048-.265.264-.433Zm.695-3.793c.241.145.361.241.361.385a.533.533,0,0,1-.241.407,3.563,3.563,0,0,0-.576.745,15.464,15.464,0,0,1-2.688,3.289c-.264.239-.408.383-.528.383s-.24-.168-.456-.5a5.369,5.369,0,0,0-1.152-1.176,12.594,12.594,0,0,0,2.88-3.193,5.594,5.594,0,0,0,.528-1.151A15.477,15.477,0,0,1,435.964,1589.276Zm-1.319-1.343c-2.257,0-3.049.047-3.193.047-.24,0-.264-.023-.264-.263v-1.824c0-.241.024-.265.264-.265.144,0,.936.049,3.193.049h1.536v-.7a13.83,13.83,0,0,0-.168-2.543c.887.023,1.824.071,2.616.167.24.024.408.144.408.24a1.121,1.121,0,0,1-.144.5,3.757,3.757,0,0,0-.192,1.632v.7h2.208c2.256,0,3.024-.049,3.168-.049.264,0,.288.024.288.265v1.824c0,.24-.024.263-.288.263-.144,0-.912-.047-3.168-.047Zm5.616.648c.288-.169.336-.169.5.071a12.776,12.776,0,0,0,3.936,3.744,7.277,7.277,0,0,0-1.08,1.489c-.192.385-.288.528-.432.528-.12,0-.264-.1-.5-.288a15.186,15.186,0,0,1-3.864-4.345c-.144-.216-.1-.263.192-.431Z" fill="#1482ca"/>
    </g>
  </g>
</svg>
