<svg xmlns="http://www.w3.org/2000/svg" width="146.925" height="57.83" viewBox="0 0 146.925 57.83">
  <g id="グループ_2198" data-name="グループ 2198" transform="translate(-1011.764 -1721.319)">
    <g id="グループ_248" data-name="グループ 248">
      <g id="グループ_247" data-name="グループ 247">
        <path id="パス_581" data-name="パス 581" d="M1012.049,1745.656c-.26,0-.285-.026-.285-.286,0-.182.051-1.925.051-9.984v-5.175c0-5.148-.051-6.968-.051-7.124,0-.26.025-.286.285-.286.182,0,1.04.053,3.459.053h14.118c2.418,0,3.276-.053,3.458-.053.26,0,.286.026.286.286,0,.156-.052,1.976-.052,6.24v6.032c0,8.061.052,9.829.052,9.985,0,.26-.026.286-.286.286h-2.236c-.26,0-.286-.026-.286-.286v-1.222h-16.017v1.248c0,.26-.025.286-.285.286Zm2.5-3.952h16.017V1725.3h-16.017Zm10.505-9.7c2.08,0,2.807-.053,2.964-.053.259,0,.286.026.286.286v1.716c0,.261-.027.286-.286.286-.157,0-.884-.052-2.964-.052H1023.7v3.458h2.133c2.418,0,3.2-.051,3.354-.051.286,0,.312.025.312.286v1.794c0,.26-.026.286-.312.286-.157,0-.936-.052-3.354-.052h-6.553c-2.418,0-3.2.052-3.353.052-.286,0-.313-.026-.313-.286v-1.794c0-.261.027-.286.313-.286.155,0,.935.051,3.353.051h1.794v-3.458h-1.013c-2.132,0-2.861.052-3.017.052-.26,0-.285-.025-.285-.286v-1.716c0-.26.025-.286.285-.286.156,0,.885.053,3.017.053h1.013v-2.731h-1.508c-2.339,0-3.146.052-3.3.052-.235,0-.261-.026-.261-.286V1727.3c0-.26.026-.285.261-.285.155,0,.962.051,3.3.051h6.033c2.366,0,3.172-.051,3.328-.051.234,0,.26.025.26.285v1.742c0,.26-.026.286-.26.286-.156,0-.962-.052-3.328-.052h-1.9v2.731Zm1.559,2.391c.261-.129.313-.078.521.157a10.141,10.141,0,0,1,1.274,1.872c.1.208.1.26-.209.416l-1.117.6c-.338.182-.39.1-.52-.181a8.139,8.139,0,0,0-1.2-1.924c-.181-.209-.078-.234.208-.391Z" fill="#d40e64"/>
        <path id="パス_582" data-name="パス 582" d="M1057.914,1723.711a1.259,1.259,0,0,0,.468-.078.8.8,0,0,1,.338-.078c.208,0,.416.131.884.65.546.572.65.806.65.962a.678.678,0,0,1-.234.442,3.465,3.465,0,0,0-.546.911,21.19,21.19,0,0,1-2.236,3.379,11.346,11.346,0,0,0,3.8,2.861,7.083,7.083,0,0,0-.988,1.586c-.208.416-.286.6-.442.6a1.426,1.426,0,0,1-.6-.286,14.133,14.133,0,0,1-2.626-2.158v1.69c0,.26-.026.287-.286.287-.156,0-.6-.052-2.237-.052h-2.235c-1.612,0-2.08.052-2.236.052-.26,0-.286-.027-.286-.287v-1.351a18.429,18.429,0,0,1-2.315,1.924,1.45,1.45,0,0,1-.6.286c-.157,0-.26-.156-.417-.443a3.57,3.57,0,0,0-.935-1.248,19.245,19.245,0,0,0,2.365-1.794,13.045,13.045,0,0,0-1.248-1.066c-.233-.155-.208-.208.026-.468l.676-.675c.235-.26.286-.26.521-.079a13.392,13.392,0,0,1,1.3,1.014c.286-.311.52-.676.78-1.014-.416-.364-.78-.675-1.223-1.013-.13-.078-.181-.131-.181-.209s.078-.156.208-.285l.6-.7c.13-.129.183-.182.261-.182a.491.491,0,0,1,.26.131,9.534,9.534,0,0,1,.988.727,14.861,14.861,0,0,0,.779-1.716h-2.158a16.15,16.15,0,0,1-2.937,3.407c-.287.233-.443.363-.573.363-.156,0-.286-.155-.572-.494a6.092,6.092,0,0,0-.884-.754l-.883,2.133c1.559,2.132,1.975,3.2,1.975,4.914,0,2.5-.857,3.691-3.016,3.847-.8.053-.8.053-.91-.805a4.036,4.036,0,0,0-.52-1.586c1.56.078,2.106-.235,2.106-1.612,0-1.3-.494-2.756-2.028-4.707a25.769,25.769,0,0,0,2.028-5.72h-2.34v14.69c0,3.563.052,5.435.052,5.565,0,.259-.025.286-.286.286h-2.028c-.234,0-.26-.027-.26-.286,0-.157.053-1.924.053-5.538v-11.259c0-3.64-.053-5.434-.053-5.615,0-.261.026-.287.26-.287.182,0,.755.052,1.95.052h3.2a1.284,1.284,0,0,0,.521-.078.914.914,0,0,1,.364-.078c.182,0,.363.13,1.014.832.494.6.545.78.545.988a.482.482,0,0,1-.234.442,2.217,2.217,0,0,0-.416.858c-.286.832-.571,1.638-.909,2.5a13.7,13.7,0,0,0,3.926-5.1,6.055,6.055,0,0,0,.311-1.274c.807.1,1.587.26,2.133.364.312.078.39.182.39.312a.648.648,0,0,1-.157.364,1.631,1.631,0,0,0-.441.676l-.234.52h2.131a.5.5,0,0,1-.051-.208c-.078-.26-.027-.416.259-.494l1.327-.389c.312-.1.338-.157.416.1a22.453,22.453,0,0,0,1.976,5.148,13.708,13.708,0,0,0,1.352-2.417h-.624c-.7,0-1.118.051-1.275.051-.259,0-.285-.026-.285-.286v-1.508c0-.259.026-.286.285-.286.157,0,.547.052,1.587.052Zm-11.57,16.406a3.807,3.807,0,0,0,.676-1.143,14.31,14.31,0,0,1,2.08.832c.208.1.286.234.286.338a.384.384,0,0,1-.235.337,1.805,1.805,0,0,0-.649.677,14.116,14.116,0,0,1-2.99,3.146c-.286.234-.416.338-.546.338-.183,0-.313-.156-.624-.495a6.549,6.549,0,0,0-1.3-1.04A13.7,13.7,0,0,0,1046.344,1740.117Zm2.912-1.9c-2.444,0-3.3.051-3.458.051-.261,0-.286-.025-.286-.286V1736.3c0-.286.025-.313.286-.313.155,0,1.014.052,3.458.052h6.916c2.444,0,3.276-.052,3.432-.052.286,0,.312.027.312.313v1.689c0,.261-.026.286-.312.286-.156,0-.988-.051-3.432-.051h-2.47v1.82c0,.779.052,2.027.052,2.989a2.1,2.1,0,0,1-.807,1.873,5.57,5.57,0,0,1-3.015.494c-.832,0-.832,0-1.04-.806a5.33,5.33,0,0,0-.7-1.691c.937.079,1.794.1,2.34.1a.651.651,0,0,0,.7-.729v-4.055Zm4.6-6.007c1.561,0,2.029-.052,2.211-.052a16.014,16.014,0,0,1-3.121-5.356,16.658,16.658,0,0,1-3.223,5.383c.311.025.858.025,1.9.025Zm2.653,6.917a.5.5,0,0,1,.286-.13c.1,0,.156.078.234.182a15.394,15.394,0,0,0,3.64,3.224,5.215,5.215,0,0,0-1.066,1.274c-.234.39-.364.546-.52.546-.13,0-.313-.13-.624-.39a15.589,15.589,0,0,1-3.3-3.51c-.156-.234-.1-.234.208-.416Z" fill="#d40e64"/>
        <path id="パス_583" data-name="パス 583" d="M1070.107,1746.046h-1.638l10.583-24.727h1.637Z" fill="#d40e64"/>
        <path id="パス_584" data-name="パス 584" d="M1095.354,1726.363c1.975,0,2.625-.051,2.782-.051.26,0,.286.025.286.286v1.845c0,.286-.026.312-.286.312-.157,0-.807-.052-2.782-.052h-3.485c-1.975,0-2.626.052-2.782.052-.233,0-.26-.026-.26-.312V1726.6c0-.261.027-.286.26-.286.156,0,.807.051,2.782.051Zm2.339,14.769c0,3.015.052,3.588.052,3.744,0,.26-.025.286-.286.286h-1.9c-.26,0-.287-.026-.287-.286v-.7h-2.885v1.2c0,.26-.027.286-.286.286h-1.9c-.286,0-.311-.026-.311-.286,0-.182.051-.78.051-3.927V1739.7c0-1.638-.051-2.262-.051-2.443,0-.26.025-.286.311-.286.156,0,.7.051,2.366.051h2.5c1.691,0,2.21-.051,2.392-.051.261,0,.286.026.286.286,0,.156-.052.779-.052,2Zm-2.547-18.331c1.69,0,2.183-.052,2.339-.052.286,0,.313.026.313.286v1.742c0,.26-.027.286-.313.286-.156,0-.649-.052-2.339-.052h-2.5c-1.69,0-2.21.052-2.366.052-.26,0-.286-.026-.286-.286v-1.742c0-.26.026-.286.286-.286.156,0,.676.052,2.366.052Zm-.208,7.255c1.585,0,2.028-.053,2.183-.053.286,0,.313.026.313.286v1.664c0,.26-.027.286-.313.286-.155,0-.6-.051-2.183-.051h-2.21c-1.586,0-2.055.051-2.21.051-.261,0-.287-.026-.287-.286v-1.664c0-.26.026-.286.287-.286.155,0,.624.053,2.21.053Zm0,3.458c1.585,0,2.028-.053,2.183-.053.286,0,.313.026.313.286v1.691c0,.234-.027.259-.313.259-.155,0-.6-.051-2.183-.051h-2.21c-1.586,0-2.055.051-2.21.051-.261,0-.287-.025-.287-.259v-1.691c0-.26.026-.286.287-.286.155,0,.624.053,2.21.053Zm-2.548,5.668v2.86h2.885v-2.86Zm10.244-14.223c-2.34,0-3.147.052-3.277.052-.259,0-.286-.026-.286-.286v-1.768c0-.286.027-.312.286-.312.13,0,.937.052,3.277.052h5.8c2.339,0,3.146-.052,3.3-.052.26,0,.286.026.286.312v1.768c0,.26-.026.286-.286.286-.156,0-.963-.052-3.3-.052H1105.6c-.157.832-.312,1.639-.494,2.418h1.793c2.055,0,2.783-.052,2.913-.052.286,0,.312.027.312.312,0,.131-.052.65-.052,1.873v2.989c1.482,0,2.08-.052,2.21-.052.234,0,.26.027.26.286v1.794c0,.26-.026.286-.26.286-.156,0-1.014-.051-3.432-.051h-6.838c-2.445,0-3.277.051-3.433.051-.26,0-.286-.026-.286-.286v-1.794c0-.259.026-.286.286-.286.13,0,.78.052,2.471.052.338-.936.649-1.924.935-2.937-1.378.025-1.923.051-2.053.051-.26,0-.286-.026-.286-.286v-1.69c0-.285.026-.312.286-.312.13,0,.8.052,2.626.052.181-.806.364-1.611.494-2.418Zm-2.626,20.671c-.26,0-.286-.026-.286-.312,0-.156.051-.78.051-4.083v-1.767c0-1.742-.051-2.418-.051-2.6,0-.26.026-.285.286-.285.181,0,.91.052,3.094.052h4.5c2.184,0,2.938-.052,3.094-.052.26,0,.286.025.286.285,0,.183-.052.859-.052,2.263v2.054c0,3.25.052,3.9.052,4.056,0,.26-.026.285-.286.285h-2.106c-.26,0-.286-.025-.286-.285v-.858h-5.981v.936c0,.286-.025.312-.286.312Zm2.313-3.458h5.981v-3.328h-5.981Zm2.237-12.61c-.287.987-.573,1.975-.884,2.937h3.847v-2.937Z" fill="#d40e64"/>
        <path id="パス_585" data-name="パス 585" d="M1118.545,1738.714c-2.314,0-3.094.052-3.25.052-.26,0-.286-.027-.286-.287v-2c0-.26.026-.287.286-.287.156,0,.936.052,3.25.052h6.839a19.011,19.011,0,0,0-.156-2.21l1.507.156a16.332,16.332,0,0,0,2.367-1.872h-5.617c-2.391,0-3.223.052-3.354.052-.26,0-.285-.025-.285-.26v-1.82c0-.26.025-.286.285-.286.131,0,.963.053,3.354.053h7.046a1.606,1.606,0,0,0,.625-.053.843.843,0,0,1,.338-.1c.208,0,.468.208,1.117.832.521.546.729.884.729,1.119a.414.414,0,0,1-.313.416,6.3,6.3,0,0,0-1.248.857,30.727,30.727,0,0,1-3.639,2.7v.416h6.5c2.314,0,3.094-.052,3.25-.052.26,0,.286.027.286.287v2c0,.26-.026.287-.286.287-.156,0-.936-.052-3.25-.052h-6.5v1.689c0,.624.051,1.587.051,2.263,0,1.118-.208,1.689-.832,2.132-.675.416-1.481.572-3.977.572-.807,0-.807.026-1.015-.754a7.819,7.819,0,0,0-.779-1.9,25.261,25.261,0,0,0,2.781.156c.729,0,1.015-.183,1.015-.91v-3.25Zm1.612-16.641c.338-.13.416-.078.572.13a19.65,19.65,0,0,1,1.743,2.7c.13.26.13.286-.235.416l-1.716.624h5.409a20.117,20.117,0,0,0-1.483-3.25c-.156-.259-.078-.286.235-.39l1.715-.52c.313-.1.39-.052.521.156a20.4,20.4,0,0,1,1.43,3.016c.078.234.078.26-.286.391l-1.691.6h4.005a20.553,20.553,0,0,0,1.273-2.626,8.6,8.6,0,0,0,.391-1.378,13.063,13.063,0,0,1,2.574.78c.234.1.364.234.364.39a.488.488,0,0,1-.26.39,1.949,1.949,0,0,0-.494.6c-.365.675-.676,1.221-1.066,1.845h.676c2.418,0,3.276-.051,3.432-.051.286,0,.312.025.312.286,0,.155-.052.649-.052,1.4v1.2c0,2.34.052,2.756.052,2.912,0,.286-.026.313-.312.313h-2.054c-.26,0-.286-.027-.286-.313v-3.431h-16.641v3.431c0,.26-.025.286-.286.286h-2.054c-.286,0-.312-.026-.312-.286,0-.181.053-.6.053-2.938v-.962c0-.962-.053-1.43-.053-1.611,0-.261.026-.286.312-.286.157,0,1.014.051,3.432.051h.7a14.987,14.987,0,0,0-1.664-2.912c-.155-.234-.13-.286.183-.39Z" fill="#d40e64"/>
        <path id="パス_586" data-name="パス 586" d="M1148.107,1746.046h-1.638l10.583-24.727h1.637Z" fill="#d40e64"/>
        <path id="パス_587" data-name="パス 587" d="M1016.288,1765.72a48.983,48.983,0,0,0,6.344-2.523,8.069,8.069,0,0,0,2.782-1.872,14.96,14.96,0,0,1,2.158,2.34.756.756,0,0,1,.208.468c0,.209-.13.39-.442.469a13.691,13.691,0,0,0-2.158.857,68.3,68.3,0,0,1-8.918,3.225v3.458c0,1.221.181,1.637.858,1.845a13.274,13.274,0,0,0,3.276.286,45.889,45.889,0,0,0,7.333-.6c.389-.052.441.052.467.364.078.728.157,1.716.157,2.262,0,.338-.157.442-.546.468a52.025,52.025,0,0,1-7.723.468,12.8,12.8,0,0,1-4.94-.7c-1.3-.546-1.846-1.768-1.846-3.9v-9.595a26.886,26.886,0,0,0-.261-4.758,22.234,22.234,0,0,1,3.276.52c.313.078.416.234.416.416a1.151,1.151,0,0,1-.181.547,5.922,5.922,0,0,0-.26,2.339Zm10.868-7.515c.13-.1.235-.078.39.052a11.971,11.971,0,0,1,2.471,2.782.263.263,0,0,1-.079.416l-1.092.807a.272.272,0,0,1-.442-.078,12.889,12.889,0,0,0-2.626-3.017Zm2.315-1.69c.155-.1.233-.077.389.052a10.855,10.855,0,0,1,2.47,2.678.3.3,0,0,1-.078.468l-1.04.807a.266.266,0,0,1-.441-.079,12.325,12.325,0,0,0-2.6-2.99Z" fill="#d40e64"/>
        <path id="パス_588" data-name="パス 588" d="M1035.425,1764.289c.13-.182.26-.311.494-.26a18.1,18.1,0,0,1,4.992,2.548c.182.13.286.235.286.391a.784.784,0,0,1-.1.286,10.582,10.582,0,0,1-1.144,1.975c-.13.157-.234.26-.338.26a.5.5,0,0,1-.312-.155,22.8,22.8,0,0,0-5.252-2.835C1034.7,1765.459,1035.113,1764.7,1035.425,1764.289Zm4.212,9.647a43.6,43.6,0,0,0,7.125-4.5,47.392,47.392,0,0,0,7.488-7.254,12.892,12.892,0,0,0,.754,2.912,1.267,1.267,0,0,1,.13.494.811.811,0,0,1-.286.6,48.434,48.434,0,0,1-6.6,6.005,60.261,60.261,0,0,1-7.774,4.889,8.545,8.545,0,0,0-1.508.884.576.576,0,0,1-.416.208.668.668,0,0,1-.52-.313,16.4,16.4,0,0,1-1.924-2.651A12.023,12.023,0,0,0,1039.637,1773.936Zm-1.066-15.627c.182-.312.338-.364.65-.207a17.645,17.645,0,0,1,4.888,2.885.409.409,0,0,1,.208.338.627.627,0,0,1-.1.338,11.04,11.04,0,0,1-1.326,1.95.291.291,0,0,1-.26.157.67.67,0,0,1-.39-.183,25.188,25.188,0,0,0-5.044-3.2C1037.635,1759.713,1038.129,1758.985,1038.571,1758.309Zm11.908-.806c.13-.1.234-.078.39.052a11.966,11.966,0,0,1,2.471,2.782.263.263,0,0,1-.078.416l-1.092.807a.272.272,0,0,1-.442-.079,12.951,12.951,0,0,0-2.626-3.016Zm2.314-1.69c.156-.1.234-.078.391.052a10.834,10.834,0,0,1,2.469,2.678.3.3,0,0,1-.078.468l-1.04.806a.265.265,0,0,1-.441-.078,12.283,12.283,0,0,0-2.6-2.99Z" fill="#d40e64"/>
        <path id="パス_589" data-name="パス 589" d="M1071.019,1774.092c0,2.314.078,4.03.078,4.679,0,.235-.183.338-.494.338a15.763,15.763,0,0,1-2.237,0c-.311,0-.494-.1-.494-.363,0-.728.13-2.471.13-4.629v-3.353a44.978,44.978,0,0,1-7.15,4.341,1.041,1.041,0,0,1-.442.13.705.705,0,0,1-.52-.286,6.094,6.094,0,0,0-2.08-1.586,49.26,49.26,0,0,0,8.372-4.679,36.247,36.247,0,0,0,5.045-4.212l-6.007.13c-1.4.051-2.366.1-3.432.181-.286,0-.39-.156-.442-.494a22.725,22.725,0,0,1-.286-2.548,25.174,25.174,0,0,0,3.614.208l7.541-.078a4.19,4.19,0,0,0,1.846-.286.873.873,0,0,1,.389-.1.588.588,0,0,1,.443.208,10.122,10.122,0,0,1,1.3,1.535.817.817,0,0,1,.157.441q0,.312-.39.468a2.779,2.779,0,0,0-.832.6c-1.326,1.352-2.7,2.653-4.108,3.848Zm-4.212-17.759c.155-.234.285-.312.546-.234a35.423,35.423,0,0,1,5.511,2.262c.183.1.286.182.286.286a.424.424,0,0,1-.1.26,21.91,21.91,0,0,1-1.067,1.924c-.1.183-.208.26-.337.26a.485.485,0,0,1-.287-.1,26.792,26.792,0,0,0-5.8-2.574C1066.078,1757.581,1066.546,1756.723,1066.807,1756.333Zm7.019,11.753c.183-.234.26-.209.521-.105a27.713,27.713,0,0,1,5.668,3.172c.156.105.234.183.234.313a.617.617,0,0,1-.1.311,14.854,14.854,0,0,1-1.274,1.872.447.447,0,0,1-.312.208.8.8,0,0,1-.365-.181,28.828,28.828,0,0,0-5.849-3.588C1072.916,1769.256,1073.488,1768.476,1073.826,1768.086Z" fill="#d40e64"/>
        <path id="パス_590" data-name="パス 590" d="M1097.123,1759.479a3.815,3.815,0,0,0,1.794-.234.435.435,0,0,1,.286-.1.86.86,0,0,1,.443.209,9.438,9.438,0,0,1,1.689,1.819.693.693,0,0,1,.13.338.716.716,0,0,1-.338.52,4.762,4.762,0,0,0-.962,1.144,40.925,40.925,0,0,1-3.328,4.862,61.141,61.141,0,0,1,7.2,6.293.587.587,0,0,1,.208.363.643.643,0,0,1-.182.391,13.858,13.858,0,0,1-1.742,1.768.448.448,0,0,1-.311.156.534.534,0,0,1-.365-.208,47.214,47.214,0,0,0-6.76-6.448,37.411,37.411,0,0,1-8.737,6.864,1.663,1.663,0,0,1-.6.208.581.581,0,0,1-.443-.234,7.092,7.092,0,0,0-2.183-1.69,32.459,32.459,0,0,0,14.04-13.157l-6.708.026c-1.352,0-2.7.052-4.109.156-.208.026-.285-.156-.337-.442a15.147,15.147,0,0,1-.234-2.7c1.4.1,2.7.1,4.394.1Z" fill="#d40e64"/>
      </g>
    </g>
    <g id="グループ_366" data-name="グループ 366">
      <path id="パス_849" data-name="パス 849" d="M1120.3,1758.168l10.8,8.332-10.8,8.332" fill="none" stroke="#d40e64" stroke-miterlimit="10" stroke-width="1"/>
      <line id="線_18" data-name="線 18" x1="18" transform="translate(1113.6 1766.5)" fill="none" stroke="#d40e64" stroke-miterlimit="10" stroke-width="1"/>
    </g>
  </g>
</svg>
