<svg xmlns="http://www.w3.org/2000/svg" width="163" height="174.833" viewBox="0 0 163 174.833">
  <g id="グループ_4316" data-name="グループ 4316" transform="translate(-1175 -1499.167)">
    <circle id="楕円形_117" data-name="楕円形 117" cx="81.5" cy="81.5" r="81.5" transform="translate(1175 1511)" fill="#1482ca" opacity="0.3"/>
    <g id="グループ_2979" data-name="グループ 2979">
      <path id="パス_4302" data-name="パス 4302" d="M1238.493,1640.856c-7.1.458-7.606,10.263-16.38,8.19-9.64-2.278-12.245-5.985-11.7-10.53,1.755-14.625,34.214-10.834,38.61-7.02C1253.034,1634.975,1256.628,1639.686,1238.493,1640.856Z" fill="#00638d" opacity="0.37"/>
      <g id="グループ_2976" data-name="グループ 2976">
        <g id="グループ_2974" data-name="グループ 2974">
          <path id="パス_4303" data-name="パス 4303" d="M1300.865,1644.613c-3.9,3.028-11.99,3.871-20.716.139s-12.639-9.212-8.741-12.24,14.133-2.455,22.859,1.277S1304.764,1641.586,1300.865,1644.613Z" fill="#00638d" opacity="0.23"/>
          <path id="パス_4304" data-name="パス 4304" d="M1292.816,1574.908c-.319-3.752-1-8.543-4.086-18.066l-4.819.4h-1.2l.2,11.041c-.325,6.4-1.489,18.968-1.682,25.313-.125,4.076.909,6.1.78,9.138-.347,8.176.623,16.207.849,24.6a15.994,15.994,0,0,1-.754,4.5c-.773,1.968-3.615,3.608-5.145,4.889l-.575.536,2.056,1.219a7.629,7.629,0,0,0,2.434.176c1.319-.883,2.643-2.055,3.526-2.633,3.423-2.251,4.533-2.287,3.768-4.45a18.02,18.02,0,0,1,.183-8.023l-.032.015c1.58-8.134,3.163-13.724,2.925-19.52-.527-12.83,0-12.635,1.385-20.644C1294.75,1571.051,1293.232,1579.817,1292.816,1574.908Z" fill="#f79b69" fill-rule="evenodd"/>
          <path id="パス_4305" data-name="パス 4305" d="M1301.3,1579.424c-.318-3.751-1-8.542-4.086-18.065l-4.819.4h-1.2l.2,11.043c-.326,6.4-1.489,18.967-1.683,25.311-.125,4.077.909,6.1.779,9.138-.343,8.085.6,16.031.839,24.321a13.239,13.239,0,0,1-.617,4.426,28.67,28.67,0,0,1-4.268,4.285l-1.1,1.384.626.594,3.294-.513c1.319-.882,3.122-1.513,3.9-2.223,1.743-1.584,3.135-2.547,3.463-3.9.194-.8-.568-3.841.143-7.372,1.591-8.226,3.195-13.863,2.956-19.7l-.195-8.368s.6-6.58,1.581-12.276C1303.231,1575.568,1301.716,1584.335,1301.3,1579.424Z" fill="#fab585" fill-rule="evenodd"/>
          <path id="パス_4306" data-name="パス 4306" d="M1277.833,1636.119c-1.239,1.857,3.119,1.223,5.976-.292,1.946-1.031,3.15-2.921,4.261-4.751a5.647,5.647,0,0,1,.878,4.316l-.276,2.057-2.309.878-1.58-.4.125-1.029c-2.195,1.7-2.341,2.486-3.29,2.984-1.282.674-6.111,1.134-7.158.179v-1.911A15.975,15.975,0,0,1,1277.833,1636.119Z" fill="#002b6a" fill-rule="evenodd"/>
          <path id="パス_4307" data-name="パス 4307" d="M1286.439,1640.285c-1.237,1.856,3.12,1.223,5.977-.291,1.947-1.032,3.151-2.922,4.261-4.752a5.643,5.643,0,0,1,.878,4.316l-.275,2.057-2.309.878-1.581-.4.125-1.029c-2.194,1.7-2.34,2.486-3.289,2.984-1.283.674-6.495,1.3-7.542.343l-.056-1.61C1283.486,1641.668,1285.728,1640.641,1286.439,1640.285Z" fill="#002b6a" fill-rule="evenodd"/>
          <path id="パス_4308" data-name="パス 4308" d="M1299.4,1553.8a7.717,7.717,0,0,0,1.187,3.6,35.177,35.177,0,0,1,2.723,8.958c.937,9.3-1.507,15.652-3.148,31.668-10.51.9-17.687-2.227-19.374-4.04-2.121-27.651-1.276-29.837.436-35.214.932-2.929,2.633-5.549,2.514-6.948C1287.495,1555.85,1294.022,1556.333,1299.4,1553.8Z" fill="#002b6a" fill-rule="evenodd"/>
        </g>
        <path id="パス_4309" data-name="パス 4309" d="M1285.1,1525.2c-3.134.53-3.619,23.327-3.619,23.327l-1.452,24.016h5.734l-1.982-22.074-.45-1.942a41.662,41.662,0,0,1,1.094-6.949l4.042-11.53Z" fill="#083d7c" fill-rule="evenodd"/>
        <path id="パス_4310" data-name="パス 4310" d="M1291.544,1500.073c-3.341-.1-5.586-.038-6.651,1.513-4.849,7.055.651,16.365-1.921,21.537l5.758-.211,7.445-12.918Z" fill="#002b6a" fill-rule="evenodd"/>
        <path id="パス_4311" data-name="パス 4311" d="M1296.587,1515.545c-.246,1.6-1.688,5.249.017,9.291l-5.712,4.352-2.72-2.557a17.8,17.8,0,0,0,.217-8.6Z" fill="#f79b69" fill-rule="evenodd"/>
        <path id="パス_4312" data-name="パス 4312" d="M1285.844,1502.382a33.032,33.032,0,0,0-1.595,10.318l1.289,7.855,2.634.827s9-2.757,9.5-5.356l1.966-10.065Z" fill="#fab585" fill-rule="evenodd"/>
        <path id="パス_4313" data-name="パス 4313" d="M1296.446,1524.206c1.342,2.862,2.624,4.581,5.124,6.066,4.629,2.746,1.714,10.54-.53,16.157-1.163,2.914-2.426,8.163-.887,11.181,9.136,17.907-12.042,31.728-17.177,18.869-1.462-3.661-3.836-9.487-1.126-18,.932-2.93,1.751-4.748,1.632-6.147a21.511,21.511,0,0,0-1.372-6.1,10.584,10.584,0,0,1-2.075-6.54c.091-2.7,1.478-5.776,2.732-9.191a13.193,13.193,0,0,1,1.97-4.159,10.223,10.223,0,0,1,3.789-2.309,4.538,4.538,0,0,0,1.2,3.713C1293.139,1526.58,1294.084,1526.7,1296.446,1524.206Z" fill="#fff" fill-rule="evenodd"/>
        <path id="パス_4314" data-name="パス 4314" d="M1290.461,1561.072l-8.608-.639v10.736l3,15.4,12.393.684Z" fill="#002b6a" fill-rule="evenodd"/>
        <path id="パス_4315" data-name="パス 4315" d="M1299.567,1553.981l1.473-7.576s5.5-14.1.869-16.843a12.03,12.03,0,0,1-4.811-4.807c-4.325,6.151-8.722,9.472-9.882,25.063-.69,9.268,2.054,18.97,2.335,30.5a63.048,63.048,0,0,0,14,.152c.313-5.61-.091-16.734-.091-16.734l-2.7-6.151a10.8,10.8,0,0,1-1.188-3.6Zm-20.654,22.281c-.4-8.974.705-13.142,1.933-17,.932-2.929,2.336-7.252,2.336-7.252l-1.573-5.8a10.58,10.58,0,0,1-2.076-6.54c.091-2.7,1.678-5.975,2.933-9.392.733-2,1.112-3.447,2.043-4.616a2.182,2.182,0,0,1,.964-.612c-1.389,8.493-.845,16.458.5,27,.791,6.21-2.607,10.348-2.113,26.714A22.132,22.132,0,0,1,1278.913,1576.262Z" fill="#083d7c" fill-rule="evenodd"/>
        <path id="パス_4316" data-name="パス 4316" d="M1296.179,1523.123c-1.314,2.794-5.361,3.863-6.959,4.145l1.226,3.433c3.826-1.693,6.154-3.767,6.854-5.308Z" fill="#e2f5ff" fill-rule="evenodd"/>
        <path id="パス_4317" data-name="パス 4317" d="M1288.653,1523.888a4.1,4.1,0,0,0,.6,3.369q-.875,1.491-1.752,2.978c-1.256-2.266-.785-3.52-.451-5.758Z" fill="#e2f5ff" fill-rule="evenodd"/>
        <path id="パス_4318" data-name="パス 4318" d="M1297,1524.747c-9.8,9.975-9.905,14.684-9.968,28.021,1.8-4.884,5.961-14.121,5.961-14.121l-2-3.344,3.267-.44,5.022-7.706Z" fill="#134d86" fill-rule="evenodd"/>
        <path id="パス_4319" data-name="パス 4319" d="M1287.142,1524.428l-2.445.861-2.044,6.686.969,1.467-2.243,2.64,4.75,17.992C1285.742,1543.9,1283.527,1533.8,1287.142,1524.428Z" fill="#134d86" fill-rule="evenodd"/>
        <path id="パス_4320" data-name="パス 4320" d="M1294.74,1514.742c.088-2.223,1.275-2.446,1.8-2.322,2.152.507.06,4.441-.917,5.392-.14.131-.472.169-.588.317-1.361,1.749-1.095,4.635-2.094,6.415,7.782-1.421,9.164-2.948,9.077-14.553-.048-6.346-3.717-12.114-11.973-10.572a5.994,5.994,0,0,0-5.255,3.985C1282.961,1509.156,1292.827,1510.185,1294.74,1514.742Z" fill="#002b6a" fill-rule="evenodd"/>
        <g id="グループ_2975" data-name="グループ 2975">
          <path id="パス_4321" data-name="パス 4321" d="M1289.4,1558.082c-1.787-.5-3.985-1.015-5.71-.485a55.99,55.99,0,0,0-5.477,2.794l4.486,1.689,3.463-.127,3.333-.187Z" fill="#f79b69" fill-rule="evenodd"/>
          <path id="パス_4322" data-name="パス 4322" d="M1288.73,1556.842l-14.923,7.865-13.25-6.576v-.543l24.309-3.279Z" fill="#0b89ac" fill-rule="evenodd"/>
          <path id="パス_4323" data-name="パス 4323" d="M1291.026,1555.525l-17.219,8.611-13.25-6.548,17.219-8.611Z" fill="#33b2c3" fill-rule="evenodd"/>
          <path id="パス_4324" data-name="パス 4324" d="M1289.492,1555.256l-15.37,7.678-11.148-5.509,15.37-7.678Z" fill="#fff" fill-rule="evenodd"/>
          <path id="パス_4325" data-name="パス 4325" d="M1285.21,1558.987l-.631-1.031-2.254-1.1.077-.967,2.995.67,1.985.166a6.98,6.98,0,0,1,1.98,1.378l-.651,1.464-2.317-.106Z" fill="#f79b69" fill-rule="evenodd"/>
          <path id="パス_4326" data-name="パス 4326" d="M1304.97,1533.951s-1.763-4.3-3.5-4.325a4.25,4.25,0,0,0-3.481,1.944c-.88,1.681-1.215,6.846-1.215,6.846l1.127,13.627-8.351,4.221v6.018l12.389-3.588,2.094-2.535Z" fill="#083d7c" fill-rule="evenodd"/>
        </g>
      </g>
      <path id="パス_4327" data-name="パス 4327" d="M1237.987,1584.04l.39-5.437-1.294-.466-.024-.053.506-1.982,0-1.864a14.947,14.947,0,0,1,1.662-1.6l.031,0c1.28-.19,4.441-.263,4.441-.263l-.169,8.873.033.038-.292.345-4.47,3.12Z" fill="#f79b69"/>
      <path id="パス_4328" data-name="パス 4328" d="M1244.271,1576.687l-7.96,1.955-.718-1.741,7.471-.953,1.4-.963Z" fill="#b8e4fa"/>
      <path id="パス_4329" data-name="パス 4329" d="M1237.069,1577.871l1.345-21.38-.073-5.107,3.912-24.166,1.634,3.49.867,20.088.666,24.554Z" fill="#002756"/>
      <path id="パス_4330" data-name="パス 4330" d="M1247.016,1633.38l-4.178-3.376-2.424-2.93-.022.018s-7.5-.459-9.625,1.642c.1.941.312,3.576.375,4.111.227.16,6.551,2.99,7.023,3.262.374.239,5.207,2.578,5.207,2.578l3.908-3.3Z" fill="#002b6a"/>
      <path id="パス_4331" data-name="パス 4331" d="M1227.862,1641.817l-3.7-3.187s-1.39-2.487-1.61-2.924c-.015-.013-1.8-3.033-1.813-3.046-.4-.728-7.563,1.288-9.211,3.2-.011.041-.243,2.1-.264,2.664.439.416,1.194,1.051,2.134,1.8.206-.452.828-.312,1.185-.056a2.393,2.393,0,0,1,.826,1.617c2.813,2.113,7.687,4.91,7.687,4.91v-.013c.915-.019,4.711-2.78,4.711-2.78Z" fill="#002b6a"/>
      <path id="パス_4332" data-name="パス 4332" d="M1240.079,1568.739c-.007-.109-26.165,7.736-26.39,7.6-.115.856-.23,1.714-.316,2.545-.031,1.173.073,6.659.073,6.659l-.557,20.828s-1.6,5.653-1.629,7.643l.112,21.891,2.617.03,7.684-1.48,2.372-25.695,4.219-17.927.958,15.538s1.363,21.219,1.545,22.363c.084.113,3.481,2.281,3.481,2.281l6.461-2.249.026-.011v-.013C1241.093,1622.879,1240.08,1569.832,1240.079,1568.739Z" fill="#002b6a"/>
      <path id="パス_4333" data-name="パス 4333" d="M1210.064,1586.617c1.928,2.7,2.485-4.316,2.4-3.725-2.219.169-4.442-.648-6.532-.906a23.349,23.349,0,0,0-.073,4.517l1.735,3.471,3.266-2.027A5.377,5.377,0,0,0,1210.064,1586.617Z" fill="#f8a773"/>
      <path id="パス_4334" data-name="パス 4334" d="M1212.682,1583.285l-5.348-.161-1.656-1.167.243-1.722,6.894.79A6.929,6.929,0,0,1,1212.682,1583.285Z" fill="#b8e4fa"/>
      <path id="パス_4335" data-name="パス 4335" d="M1240.581,1559.946s.174-5.652.514-9.018c.368-3.877,3.1-20.554,3.1-20.554l-4.321-8.194-7.048-2.683-12.337,4.657-9.854,7.91-2.027,5.8s-2.3,28.862-2.47,32.542c-.1,2.1-.332,8.51-.4,9.626.009.015,1.364,1.435,1.364,1.435s6.246.2,6.347.1a3.735,3.735,0,0,0,.01-.378c.047-.806.772-2.4.887-3.26.226.135,6.1,3.477,6.1,3.477l20.533-7.977Z" fill="#002b6a"/>
      <path id="パス_4336" data-name="パス 4336" d="M1234.946,1543.674c.287-2.235,1.653-4.39,1.54-6.651,0-.2-.014-.419-.028-.622a36.422,36.422,0,0,0-1.237-7.76,9.74,9.74,0,0,0-.974-2.33c-.094-.168-.189-.309-.283-.464a4.405,4.405,0,0,0-2.349-2.026,7.926,7.926,0,0,0,2.063-1.029,36.9,36.9,0,0,1,2.987,2.8l-.667,2.13,2.556,1.122.469,3.891s-3.741,15.827-4.192,16.892c.352-.936-.468-2.67-.164-3.676A12.539,12.539,0,0,0,1234.946,1543.674Z" fill="#11487f"/>
      <path id="パス_4337" data-name="パス 4337" d="M1223.049,1528.294a11.337,11.337,0,0,0,1.742,2c.369.307.725.627,1.083.92a23.775,23.775,0,0,1,4.206,4.035,24.169,24.169,0,0,1,3.834,7.534c.033.1.065.207.1.317a14.5,14.5,0,0,1,.3,3.771,21.681,21.681,0,0,0,.2,2.51l-.55-2.276c-.887-3.161-4.383-7.178-4.383-7.178l-5.44-3.126.234-2.823-2.248.235-1.1-2.892s-1.708-4.563-1.2-6.2c.1-.089,1.772-2.694,2.626-3.585.014.407.042.813.069,1.233.057.8.1,1.6.157,2.4a2.39,2.39,0,0,1-.15-.306l-.027.012A3.47,3.47,0,0,0,1223.049,1528.294Z" fill="#11487f"/>
      <g id="グループ_2977" data-name="グループ 2977">
        <path id="パス_4338" data-name="パス 4338" d="M1236.486,1537.023c0-.2-.014-.419-.028-.622a77.053,77.053,0,0,0-1.237-7.76,16.621,16.621,0,0,0-.974-2.33c-.825-.458-10.471,2.583-11.2,1.982a17.524,17.524,0,0,0,1.742,2l1.083.92,4.206,4.035a46.688,46.688,0,0,1,3.833,7.534c.034.1,1.318,1.865,1.349,1.975C1235.287,1542.79,1236.114,1540.274,1236.486,1537.023Z" fill="#93e4ec"/>
        <path id="パス_4339" data-name="パス 4339" d="M1236.245,1535.7l-2.2-5.7-.1-.21-.287-2.354s-.58-.482-.878-.677a4.851,4.851,0,0,0-1.526-.421c-.24.592-.5,1.277-.722,1.979-.018.066-.048.145-.065.225a8.733,8.733,0,0,0,2.263,1.94,49.75,49.75,0,0,1,.762,6.653l-.171,4.1.564,1.634.773,8.016c.033-.349,1.86-12.53,1.86-12.53Z" fill="#ff5252"/>
        <path id="パス_4340" data-name="パス 4340" d="M1222.677,1525.165c1.748,3.014,8.363,2.3,8.573.078l-.243-2.416c.238.527,2.3,2.034,2.957,3.02.094.155.189.3.283.464a6.147,6.147,0,0,1-.236,1.376l-.36-.253-.877-.678-1.571-.268c-.241.592-1.095,3.661-1.095,3.661h-.026l-4.438-.528a13.143,13.143,0,0,1-2.6-1.326,3.47,3.47,0,0,1-.549-3.423l.027-.012A2.39,2.39,0,0,0,1222.677,1525.165Z" fill="#dbffff"/>
      </g>
      <g id="グループ_2978" data-name="グループ 2978">
        <path id="パス_4341" data-name="パス 4341" d="M1231.285,1523.383c.078,0-.041,2.817-.037,2.952-.055.938-6.72,2.7-8.709-1-.057-.8-.159-4.8-.188-5.2.206.026.27-2.057.512-2.231C1223.442,1518.375,1230.766,1523.431,1231.285,1523.383Z" fill="#f79b69"/>
        <path id="パス_4342" data-name="パス 4342" d="M1234.748,1507.692c-.732.875-2.965,1.269-4.072,1.687-1.557.557-5.672,2.311-5.672,2.311a16.378,16.378,0,0,1-.345,2.7c-.164,1.19-.79,2.071-.282,4.561-.527-.34-1.041-.681-1.514-1.046-.2-.976-.365-1.978-.519-2.532a.991.991,0,0,0-1.514,1.187c.382,1.016.754,3.315,1.747,3.477a.963.963,0,0,0,.695-.207c.226.671,1.687,1.8,1.687,1.8a68.875,68.875,0,0,0,6.486,2.37c.079.005,2.85-1.214,2.85-1.214l.995-9.358S1234.847,1508.093,1234.748,1507.692Z" fill="#fab585"/>
        <path id="パス_4343" data-name="パス 4343" d="M1225.005,1511.69a16.49,16.49,0,0,1-.346,2.7c-.163,1.19-.79,2.072-.281,4.561-.528-.34-1.042-.681-1.515-1.046-.2-.976-.365-1.978-.52-2.532a.99.99,0,0,0-1.512,1.187c.381,1.016.754,3.316,1.747,3.478.029.406.075,1.219.075,1.219l-1.081-.474-.738-1.542a83.973,83.973,0,0,1-3.912-8.166l-.129-5.176S1221.986,1510.757,1225.005,1511.69Z" fill="#11487f"/>
        <path id="パス_4344" data-name="パス 4344" d="M1226.181,1511.905s-1.046-.164-1.176-.215c-3.019-.933-5.8-3.624-8.212-5.79a18.8,18.8,0,0,1,2.693-3.332c.985-.844,6.724-2.32,8.351-2.048h.013c.712.171,3.157.859,3.646.946-.256-.035,4.235.6,4.332.612,0,0,.789,2.969-.017,4.412-.239.418-1.363,2.049-1.363,2.049S1227.98,1511.979,1226.181,1511.905Z" fill="#002b6a"/>
      </g>
      <path id="パス_4345" data-name="パス 4345" d="M1220.646,1596.053l-.161,2.743-1.2,18.47-4.89,2.562.553-9.439.638-10.88.006-.108.08-1.371,0-.041.489-.185.027-.012,4.057-1.575.014-.014Z" fill="#0e6d8d"/>
      <path id="パス_4346" data-name="パス 4346" d="M1214.949,1610.389l-20.939-12.95.709-12.1.026-.011,20.89,12.689.037.016Z" fill="#2b94b1"/>
      <path id="パス_4347" data-name="パス 4347" d="M1214.949,1610.389l-.553,9.439-20.882-13.931.5-8.458,20.863,12.917Z" fill="#10809a"/>
      <path id="パス_4348" data-name="パス 4348" d="M1209.392,1605.821l2.144,1.312-.174,2.972-2.137-1.433Z" fill="#dbffff"/>
      <path id="パス_4349" data-name="パス 4349" d="M1215.636,1598.014l-20.89-12.689,4.836-1.85c.5.316,20.937,12.315,21.075,12.391l-.011.187Z" fill="#33b2c3"/>
      <path id="パス_4350" data-name="パス 4350" d="M1212.464,1587.167l-.367,5.314-.793.243-.566-.383c.022-.214.221-3.78.253-4.326a5.042,5.042,0,0,1-.738-.476.213.213,0,0,0-.053-.052c-.343-.374-.053-1.166-.053-1.166a3.823,3.823,0,0,1,.549-.235C1210.988,1586.193,1212.464,1587.167,1212.464,1587.167Z" fill="#168ba7"/>
      <path id="パス_4351" data-name="パス 4351" d="M1205.006,1588.714l-.541.078-.62-.332.112-1.911.341-2.495,1.14-.135h.346l.02.444.012,1.66a1.93,1.93,0,0,0-.382-.121l-.263.123Z" fill="#168ba7"/>
    </g>
  </g>
</svg>
