<svg xmlns="http://www.w3.org/2000/svg" width="504.716" height="52.127" viewBox="0 0 504.716 52.127">
  <g id="グループ_242" data-name="グループ 242" transform="translate(-190.596 -2952.854)">
    <path id="パス_529" data-name="パス 529" d="M190.848,2999.93c-.224,0-.252-.029-.252-.252,0-.2.056-1.68.056-9.773v-5.4c0-5.433-.056-7-.056-7.168,0-.225.028-.252.252-.252.2,0,1.148.056,3.892.056h8.848c2.744,0,3.724-.056,3.891-.056.225,0,.253.027.253.252,0,.168-.056,1.735-.056,6.412v6.159c0,8.009.056,9.521.056,9.66,0,.252-.028.281-.253.281H205.66c-.252,0-.28-.029-.28-.281v-1.54H192.948v1.653c0,.223-.028.252-.252.252Zm2.1-13.636H205.38v-7.084H192.948Zm12.432,9.632v-7.561H192.948v7.561Z" fill="#333"/>
    <path id="パス_530" data-name="パス 530" d="M226.6,2985.286a32.833,32.833,0,0,1-6.8,7.308c-.28.223-.42.307-.672.139a5.434,5.434,0,0,0-1.849-.811,32.78,32.78,0,0,0,9.128-10.7,11.556,11.556,0,0,0,1.513-3.865,11.631,11.631,0,0,1,2.464,1.009.484.484,0,0,1,0,.783,3.9,3.9,0,0,0-.813.981,31.855,31.855,0,0,1-1.792,3.107l5.712-.139a2.657,2.657,0,0,0,1.345-.224.638.638,0,0,1,.756.056,8.464,8.464,0,0,1,1.344,1.091c.307.336.28.645.084.84a3.693,3.693,0,0,0-.812,1.149,29.672,29.672,0,0,1-5.265,7.336,28.176,28.176,0,0,1,2.773,2.967c.223.281.223.365-.028.645a7.786,7.786,0,0,1-1.289,1.092c-.252.168-.336.2-.532-.056a26.987,26.987,0,0,0-7.7-7c.476-.448.9-.9,1.315-1.288.225-.225.309-.2.617-.028a30.321,30.321,0,0,1,3.276,2.351,23.849,23.849,0,0,0,4.7-6.916Z" fill="#333"/>
    <path id="パス_531" data-name="パス 531" d="M249.285,2999.062c-2.632,0-3.5.055-3.64.055-.224,0-.252-.027-.252-.252v-1.735c0-.252.028-.28.252-.28.14,0,1.008.055,3.64.055h7.14v-5.8h-3.277c-2.8,0-3.723.057-3.891.057-.252,0-.28-.028-.28-.28v-1.653c0-.223.028-.252.28-.252.168,0,1.092.057,3.891.057h3.277v-5.349h-6.3a22.135,22.135,0,0,1-2.688,4.256c-.2.225-.28.365-.42.365-.112,0-.252-.113-.5-.365a4.137,4.137,0,0,0-1.316-.867,23.033,23.033,0,0,0,4.592-8.4,6.933,6.933,0,0,0,.364-1.708c.756.168,1.6.391,2.128.559.28.084.392.2.392.365a.728.728,0,0,1-.224.448,2.606,2.606,0,0,0-.5.952c-.28.784-.56,1.54-.868,2.3h5.348v-1.96a22.056,22.056,0,0,0-.224-4c.9.027,1.792.084,2.491.14.225.028.365.168.365.28a1.367,1.367,0,0,1-.14.532,12.435,12.435,0,0,0-.168,3v2.017h5.012c2.8,0,3.723-.057,3.891-.057.253,0,.281.029.281.253v1.708c0,.224-.028.252-.281.252-.168,0-1.091-.057-3.891-.057h-5.012v5.349h3.724c2.8,0,3.752-.057,3.892-.057.224,0,.252.029.252.252v1.653c0,.252-.028.28-.252.28-.14,0-1.093-.057-3.892-.057h-3.724v5.8h7.027c2.605,0,3.473-.055,3.641-.055.224,0,.252.028.252.28v1.735c0,.225-.028.252-.252.252-.168,0-1.036-.055-3.641-.055Z" fill="#333"/>
    <path id="パス_532" data-name="パス 532" d="M285.461,2988.786a55.609,55.609,0,0,1-6.132-.112c-.28,0-.364-.084-.391-.393a17.764,17.764,0,0,1-.113-1.792,39.494,39.494,0,0,0,6.58.2c-.028-1.232-.056-2.52-.056-3.752a52.318,52.318,0,0,1-7.084-.14c-.252-.028-.336-.112-.364-.336-.056-.532-.112-1.064-.14-1.9a48.525,48.525,0,0,0,7.588.252c0-1.092-.028-1.876-.028-2.857a7.737,7.737,0,0,0-.308-1.876,13.941,13.941,0,0,1,2.8.421.486.486,0,0,1,.28.728,3.034,3.034,0,0,0-.364,1.316c-.056.756-.056,1.288-.083,2.184a54.565,54.565,0,0,0,6.523-.9c.252-.056.336,0,.364.252a11.78,11.78,0,0,1,.112,1.6c0,.28-.084.336-.252.336a59.689,59.689,0,0,1-6.776.84c0,1.259.029,2.547.056,3.723a37.533,37.533,0,0,0,5.852-.84c.252-.055.336,0,.364.2.028.42.056,1.091.056,1.708,0,.223-.084.307-.336.336a49.586,49.586,0,0,1-5.852.7c.028,1.567.084,3,.2,4.536a23.9,23.9,0,0,1,7.42,3.5c.2.168.224.279.14.56a5.033,5.033,0,0,1-.924,1.568c-.168.224-.308.252-.532.084a20.164,20.164,0,0,0-5.992-3.389c0,3.08-1.736,4.313-5.348,4.313-3.444,0-5.292-1.372-5.292-3.584,0-2.157,2.044-3.668,5.376-3.668a20.119,20.119,0,0,1,2.828.168C285.545,2991.306,285.489,2990.13,285.461,2988.786Zm-2.6,5.768c-2.184,0-3.3.7-3.3,1.624,0,.979,1.009,1.568,2.968,1.568a3.624,3.624,0,0,0,2.716-.868,2.711,2.711,0,0,0,.42-1.96A11.96,11.96,0,0,0,282.857,2994.554Z" fill="#333"/>
    <path id="パス_533" data-name="パス 533" d="M311.192,2976.578c.393.111.533.279.533.5a1.11,1.11,0,0,1-.168.447,2.628,2.628,0,0,0-.252,1.2c-.084,1.121-.113,1.96-.168,3.332a5.794,5.794,0,0,1,1.008.617c.223.168.251.364.055.616-.447.756-.867,1.512-1.287,2.38a5.4,5.4,0,0,0-.028.672c1.036-1.148,1.847-2.016,2.912-3.024,1.932-1.82,3.5-2.744,5.012-2.744,2.072,0,3.192,1.315,3.192,3.584,0,1.063-.057,2.855-.225,5.151-.139,2.353-.279,3.781-.279,4.676,0,1.6.42,1.933,1.176,1.933a3.418,3.418,0,0,0,2.239-1.036,8.307,8.307,0,0,0,1.681-2.548,4.847,4.847,0,0,0,.811,1.708.735.735,0,0,1,.057,1.008c-1.261,1.9-2.912,3.192-5.068,3.192-2.212,0-3.332-1.177-3.332-3.92,0-1.036.084-2.633.223-4.761.141-2.212.225-3.5.2-4.7,0-1.427-.335-2.183-1.036-2.183-.923,0-2.015.644-3.471,1.96a57.781,57.781,0,0,0-4.117,4.284c.029,3.164.113,7.055.113,10.584,0,.223-.084.336-.336.336a14.877,14.877,0,0,1-1.737.084c-.2,0-.307-.113-.307-.392,0-3.444,0-6.385.084-8.82-1.26,1.82-2.437,3.723-3.7,5.656-.2.308-.281.308-.56.14a6.61,6.61,0,0,1-1.316-1.2c-.224-.2-.113-.42.055-.644,2.3-2.94,3.809-5.124,5.489-7.616.028-.868.028-1.54.055-2.212a28.627,28.627,0,0,0-3.584,1.26c-.279.112-.531.364-.756.364a.582.582,0,0,1-.475-.336,10.191,10.191,0,0,1-.924-2.044,11.342,11.342,0,0,0,1.987-.252q1.471-.378,3.865-1.177c.028-1.259.028-2.491.055-3.752a12.665,12.665,0,0,0-.223-2.743A13.383,13.383,0,0,1,311.192,2976.578Z" fill="#333"/>
    <path id="パス_534" data-name="パス 534" d="M340.845,2987.525a9.577,9.577,0,0,1,5.348-1.708c4.06,0,6.72,2.577,6.72,6.412,0,4.369-3.5,7.393-9.464,7.393-3.528,0-5.263-1.513-5.263-3.641a3.349,3.349,0,0,1,3.611-3.135,4.958,4.958,0,0,1,4.984,4.116c2.212-.84,3.556-2.269,3.556-4.788a4.332,4.332,0,0,0-4.648-4.4,12.357,12.357,0,0,0-7.476,3.053,31.373,31.373,0,0,0-2.464,2.323c-.28.281-.42.336-.7.057a8.92,8.92,0,0,1-1.288-1.429c-.14-.168-.084-.307.112-.5a79.112,79.112,0,0,0,6.524-6.215c1.708-1.764,3.22-3.472,5.041-5.6-2.044.336-4.257.784-6.441,1.2a5,5,0,0,0-1.063.279,1.511,1.511,0,0,1-.533.141c-.252,0-.392-.112-.532-.393a10.2,10.2,0,0,1-.784-2.351,10.868,10.868,0,0,0,2.52.028c1.988-.2,4.368-.532,6.692-.98a3.559,3.559,0,0,0,1.148-.336,1.152,1.152,0,0,1,.476-.2.908.908,0,0,1,.56.225,9.106,9.106,0,0,1,1.484,1.428.9.9,0,0,1,.252.559.648.648,0,0,1-.447.588,3.531,3.531,0,0,0-1.289.952c-2.295,2.353-4.2,4.313-6.72,6.832Zm1.036,7.2c-.924,0-1.624.475-1.624,1.259,0,.924.9,1.6,2.744,1.624a8.033,8.033,0,0,0,1.624-.139C344.261,2995.842,343.281,2994.722,341.881,2994.722Z" fill="#333"/>
    <path id="パス_535" data-name="パス 535" d="M373.465,2986.686a16.339,16.339,0,0,1-1.708,7.28,13.332,13.332,0,0,1-4.956,5.292c-.448.28-.784.42-1.12.084a4.694,4.694,0,0,0-1.989-1.176c2.773-1.484,4.369-2.912,5.516-5.068a13.314,13.314,0,0,0,1.429-6.412h-5.489c-1.4,0-2.828.084-4.116.168-.279.028-.336-.14-.363-.476a13.014,13.014,0,0,1-.2-2.1c1.6.113,3.08.141,4.675.141H377.44c2.044,0,3.556-.028,5.264-.141.252,0,.309.113.309.477v1.624c0,.308-.141.42-.393.42-1.567-.057-3.3-.112-5.151-.112Zm-5.013-6.329c-1.26,0-2.548.029-3.975.113-.336.028-.392-.113-.42-.42a20.328,20.328,0,0,1-.168-2.1c1.792.113,3.3.141,4.563.141h5.8c1.513,0,3.276,0,4.732-.084.252-.028.308.112.308.42a6.954,6.954,0,0,1,0,1.54c0,.364-.056.448-.336.448-1.512-.057-3.22-.057-4.7-.057Z" fill="#333"/>
    <path id="パス_536" data-name="パス 536" d="M404.6,2980.75a2.269,2.269,0,0,0,1.4-.309c.225-.168.477-.111.756.084a10.107,10.107,0,0,1,1.484,1.177.617.617,0,0,1,.056,1.008,2.9,2.9,0,0,0-.812,1.063,38.753,38.753,0,0,1-5.46,8.708,35.075,35.075,0,0,1-8.652,7.141.609.609,0,0,1-.811-.112,5.464,5.464,0,0,0-2.1-1.036,31.044,31.044,0,0,0,9.268-7.281,30,30,0,0,0,5.236-8.315l-7.447.224a41.366,41.366,0,0,1-5.433,5.879.638.638,0,0,1-.924.084,5.581,5.581,0,0,0-1.988-.839,30.884,30.884,0,0,0,7.392-8.232,9.252,9.252,0,0,0,1.512-3.612,9.734,9.734,0,0,1,2.632,1.2.445.445,0,0,1-.027.811,3.314,3.314,0,0,0-.757.869c-.392.588-.672,1.064-1.035,1.595Z" fill="#333"/>
    <path id="パス_537" data-name="パス 537" d="M431.174,2979.1a.5.5,0,0,1,.112.812,6.608,6.608,0,0,0-1.232,1.987,45.774,45.774,0,0,1-5.012,8.541,33.856,33.856,0,0,1-8.372,7.923.651.651,0,0,1-.9-.027,6.07,6.07,0,0,0-2.072-1.093,33.264,33.264,0,0,0,9.044-8.147,36.119,36.119,0,0,0,4.536-7.9,12.891,12.891,0,0,0,.952-3.5A15.076,15.076,0,0,1,431.174,2979.1Z" fill="#333"/>
    <path id="パス_538" data-name="パス 538" d="M454.3,2979.489a3.28,3.28,0,0,0,1.736-.252.575.575,0,0,1,.644.113,8.071,8.071,0,0,1,1.456,1.484c.2.279.14.476-.168.756a4.893,4.893,0,0,0-.924,1.12,45.223,45.223,0,0,1-3.892,5.684,60.458,60.458,0,0,1,7.9,6.916c.252.252.28.364.028.7a16.014,16.014,0,0,1-1.372,1.372c-.224.223-.392.195-.616-.057a48.891,48.891,0,0,0-7.5-7.027,42.1,42.1,0,0,1-9.772,7.643c-.364.2-.616.281-.868-.027a5.9,5.9,0,0,0-1.876-1.372,34.924,34.924,0,0,0,10.108-7.42,33.95,33.95,0,0,0,5.292-7.28H446.6c-1.54,0-2.857.084-4.2.168-.252,0-.308-.113-.364-.392a12.328,12.328,0,0,1-.2-2.24c1.429.111,2.744.111,4.508.111Z" fill="#333"/>
    <path id="パス_539" data-name="パス 539" d="M478.3,2993.266c-1.2,2.072-2.548,3.024-4.4,3.024-2.239,0-4.451-2.436-4.451-6.721a10.262,10.262,0,0,1,3.22-7.279,12.006,12.006,0,0,1,8.68-3.276c6.5,0,10.276,3.836,10.276,9.3,0,4.843-2.856,8.343-8.765,9.967a.737.737,0,0,1-.951-.391,4.04,4.04,0,0,0-1.456-1.344c5.208-1.12,8.624-3.668,8.624-8.6a6.8,6.8,0,0,0-7.168-6.8C481.351,2985.874,480.035,2990.382,478.3,2993.266Zm-4.061-9.436a8.4,8.4,0,0,0-2.464,5.655c0,2.857,1.121,4.2,2.073,4.2.868,0,1.624-.5,2.408-1.905a30.365,30.365,0,0,0,3.164-10.527A9.046,9.046,0,0,0,474.238,2983.83Z" fill="#333"/>
    <path id="パス_540" data-name="パス 540" d="M512.506,3004.55V2960.2h-8.5v-6.912h24.336v6.912h-8.5v44.352Z" fill="#00ad93"/>
    <path id="パス_541" data-name="パス 541" d="M538.354,2965.382a13.1,13.1,0,0,1,1.079-5.472,11.552,11.552,0,0,1,2.88-3.96,12.166,12.166,0,0,1,3.924-2.3,13.07,13.07,0,0,1,12.852,2.3,12.057,12.057,0,0,1,2.808,3.96,13.1,13.1,0,0,1,1.081,5.472v27.072A12.978,12.978,0,0,1,561.9,2998a11.424,11.424,0,0,1-2.808,3.815,12.306,12.306,0,0,1-4,2.376,12.774,12.774,0,0,1-8.856,0,11.508,11.508,0,0,1-3.924-2.376,10.969,10.969,0,0,1-2.88-3.815,12.98,12.98,0,0,1-1.079-5.544Zm7.343,27.072a4.878,4.878,0,0,0,1.476,3.924,5.469,5.469,0,0,0,6.984,0,4.881,4.881,0,0,0,1.476-3.924v-27.072a4.882,4.882,0,0,0-1.476-3.924,5.469,5.469,0,0,0-6.984,0,4.878,4.878,0,0,0-1.476,3.924Z" fill="#e65290"/>
    <path id="パス_542" data-name="パス 542" d="M576.657,3004.55v-51.264h11.016a16.38,16.38,0,0,1,5.328.792,10.232,10.232,0,0,1,4.176,2.808,10.993,10.993,0,0,1,2.593,4.716,29.6,29.6,0,0,1,.719,7.308,36.365,36.365,0,0,1-.4,5.832,12.178,12.178,0,0,1-1.692,4.464,10.711,10.711,0,0,1-4.032,3.924,13.583,13.583,0,0,1-6.624,1.4H584v20.016ZM584,2960.2v17.424h3.528a7.509,7.509,0,0,0,3.456-.648,4.084,4.084,0,0,0,1.8-1.8,6.58,6.58,0,0,0,.684-2.664q.108-1.584.108-3.529,0-1.8-.072-3.419a7.394,7.394,0,0,0-.648-2.844,4.09,4.09,0,0,0-1.728-1.872,6.864,6.864,0,0,0-3.312-.648Z" fill="#00ace6"/>
    <path id="パス_543" data-name="パス 543" d="M613.376,3004.55v-51.264h7.344v51.264Z" fill="#ee8a00"/>
    <path id="パス_544" data-name="パス 544" d="M658.376,2989.934v3.168a11.429,11.429,0,0,1-.9,4.5,12.474,12.474,0,0,1-2.484,3.78,12,12,0,0,1-3.708,2.628,10.862,10.862,0,0,1-4.572.971,16.468,16.468,0,0,1-4.248-.575,10.028,10.028,0,0,1-3.888-2.016,11.161,11.161,0,0,1-2.845-3.708,13.127,13.127,0,0,1-1.115-5.8v-28.224a12.5,12.5,0,0,1,.863-4.681,11.022,11.022,0,0,1,2.449-3.743,11.378,11.378,0,0,1,3.78-2.484,12.7,12.7,0,0,1,4.859-.9,11.139,11.139,0,0,1,8.425,3.384,12.054,12.054,0,0,1,2.484,3.924,13.272,13.272,0,0,1,.9,4.932v2.88h-7.344v-2.449a5.949,5.949,0,0,0-1.224-3.743,3.969,3.969,0,0,0-3.312-1.584q-2.737,0-3.637,1.692a9.072,9.072,0,0,0-.9,4.284v26.208a6.787,6.787,0,0,0,.972,3.744,3.828,3.828,0,0,0,3.492,1.512,5.311,5.311,0,0,0,1.548-.252,4.64,4.64,0,0,0,1.548-.828,4.394,4.394,0,0,0,1.08-1.584,6.418,6.418,0,0,0,.432-2.52v-2.52Z" fill="#7fbc26"/>
    <path id="パス_545" data-name="パス 545" d="M695.312,2968.046h-7.344v-1.656a7.842,7.842,0,0,0-1.189-4.356,4.394,4.394,0,0,0-3.995-1.836,4.636,4.636,0,0,0-2.448.575,4.833,4.833,0,0,0-1.513,1.441,6.087,6.087,0,0,0-.792,2.124,13.96,13.96,0,0,0-.216,2.484,24.3,24.3,0,0,0,.109,2.52,4.78,4.78,0,0,0,.54,1.8,3.987,3.987,0,0,0,1.26,1.368,11.465,11.465,0,0,0,2.268,1.152l5.615,2.232a13.956,13.956,0,0,1,3.96,2.2,9.475,9.475,0,0,1,2.376,2.916,13.6,13.6,0,0,1,1.08,3.924,38.829,38.829,0,0,1,.289,5,26.379,26.379,0,0,1-.648,6.012,12.7,12.7,0,0,1-2.088,4.716,10.366,10.366,0,0,1-3.961,3.168,13.985,13.985,0,0,1-5.975,1.151,13.083,13.083,0,0,1-4.968-.935,11.764,11.764,0,0,1-3.96-2.592,12.57,12.57,0,0,1-2.628-3.852,11.7,11.7,0,0,1-.973-4.789v-2.735h7.345v2.3a6,6,0,0,0,1.188,3.636,4.628,4.628,0,0,0,4,1.62,6.445,6.445,0,0,0,2.916-.54,3.882,3.882,0,0,0,1.62-1.548,5.672,5.672,0,0,0,.683-2.412q.109-1.4.109-3.132a31.028,31.028,0,0,0-.145-3.313,5.719,5.719,0,0,0-.575-2.088,4.072,4.072,0,0,0-1.332-1.295,17.469,17.469,0,0,0-2.2-1.081l-5.256-2.16q-4.752-1.944-6.372-5.147a17.71,17.71,0,0,1-1.62-8.028,18.59,18.59,0,0,1,.792-5.472,12.417,12.417,0,0,1,2.376-4.464,10.892,10.892,0,0,1,3.852-2.988,12.868,12.868,0,0,1,5.579-1.116,12.2,12.2,0,0,1,5.005,1.007,12.938,12.938,0,0,1,3.924,2.664,11.133,11.133,0,0,1,3.312,7.921Z" fill="#3071b5"/>
  </g>
</svg>
