<svg xmlns="http://www.w3.org/2000/svg" width="215.561" height="82.848" viewBox="0 0 215.561 82.848">
  <g id="グループ_2" data-name="グループ 2" transform="translate(-1543.952 -5392.166)">
    <path id="パス_14" data-name="パス 14" d="M1544.669,5409.53c-.16,0-.18-.02-.18-.18,0-.14.04-1.2.04-6.982v-3.86c0-3.881-.04-5-.04-5.121,0-.16.02-.181.18-.181.141,0,.82.04,2.781.04h6.321c1.96,0,2.661-.04,2.781-.04.16,0,.179.021.179.181,0,.12-.04,1.24-.04,4.581v4.4c0,5.722.04,6.8.04,6.9,0,.18-.019.2-.179.2h-1.3c-.181,0-.2-.02-.2-.2v-1.1h-8.882v1.18c0,.16-.021.18-.181.18Zm1.5-9.742h8.882v-5.061h-8.882Zm8.882,6.881v-5.4h-8.882v5.4Z" fill="#333"/>
    <path id="パス_15" data-name="パス 15" d="M1570.21,5399.067a23.385,23.385,0,0,1-4.861,5.222c-.2.16-.3.22-.48.1a3.872,3.872,0,0,0-1.32-.58,23.421,23.421,0,0,0,6.521-7.642,8.234,8.234,0,0,0,1.08-2.761,8.225,8.225,0,0,1,1.76.721.346.346,0,0,1,0,.56,2.779,2.779,0,0,0-.58.7,23.2,23.2,0,0,1-1.28,2.22l4.081-.1a1.914,1.914,0,0,0,.96-.16.455.455,0,0,1,.54.04,6.037,6.037,0,0,1,.961.78c.22.239.2.46.059.6a2.636,2.636,0,0,0-.58.82,21.227,21.227,0,0,1-3.76,5.241,20.191,20.191,0,0,1,1.98,2.12c.16.2.16.261-.02.46a5.5,5.5,0,0,1-.92.78c-.18.121-.241.141-.38-.04a19.329,19.329,0,0,0-5.5-5c.34-.32.639-.639.94-.919.159-.161.22-.14.44-.021a21.775,21.775,0,0,1,2.34,1.681,17,17,0,0,0,3.361-4.942Z" fill="#333"/>
    <path id="パス_16" data-name="パス 16" d="M1586.408,5408.91c-1.88,0-2.5.04-2.6.04-.161,0-.18-.02-.18-.18v-1.241c0-.179.019-.2.18-.2.1,0,.72.04,2.6.04h5.1v-4.14h-2.341c-2,0-2.66.04-2.78.04-.181,0-.2-.02-.2-.2v-1.179c0-.16.02-.181.2-.181.12,0,.78.04,2.78.04h2.341v-3.82h-4.5a15.913,15.913,0,0,1-1.921,3.04c-.14.16-.2.261-.3.261-.08,0-.18-.081-.36-.261a2.941,2.941,0,0,0-.94-.62,16.467,16.467,0,0,0,3.281-6,4.965,4.965,0,0,0,.259-1.22c.54.119,1.141.279,1.521.4.2.061.28.141.28.261a.518.518,0,0,1-.16.319,1.883,1.883,0,0,0-.36.681c-.2.56-.4,1.1-.621,1.64h3.822v-1.4a15.78,15.78,0,0,0-.16-2.861c.639.021,1.28.061,1.78.1.16.019.26.12.26.2a.989.989,0,0,1-.1.38,8.879,8.879,0,0,0-.12,2.14v1.44h3.581c2,0,2.66-.04,2.78-.04.18,0,.2.02.2.18v1.22c0,.16-.02.181-.2.181-.12,0-.78-.04-2.78-.04h-3.581v3.82h2.66c2,0,2.681-.04,2.781-.04.16,0,.18.021.18.181v1.179c0,.181-.02.2-.18.2-.1,0-.78-.04-2.781-.04h-2.66v4.14h5.021c1.861,0,2.481-.04,2.6-.04.159,0,.18.021.18.2v1.241c0,.16-.021.18-.18.18-.12,0-.74-.04-2.6-.04Z" fill="#333"/>
    <path id="パス_17" data-name="パス 17" d="M1612.25,5401.568a39.721,39.721,0,0,1-4.381-.08c-.2,0-.261-.059-.28-.28-.04-.32-.08-.92-.08-1.28a28.245,28.245,0,0,0,4.7.14c-.021-.88-.04-1.8-.04-2.68a37.687,37.687,0,0,1-5.062-.1c-.179-.019-.24-.08-.259-.24-.04-.38-.08-.76-.1-1.359a34.743,34.743,0,0,0,5.421.179c0-.78-.021-1.341-.021-2.041a5.578,5.578,0,0,0-.219-1.34,9.969,9.969,0,0,1,2,.3.348.348,0,0,1,.2.521,2.158,2.158,0,0,0-.26.94c-.04.54-.04.92-.06,1.56a38.8,38.8,0,0,0,4.661-.64c.18-.04.24,0,.26.18a8.432,8.432,0,0,1,.081,1.14c0,.2-.061.241-.181.241a42.91,42.91,0,0,1-4.841.6c0,.9.02,1.82.04,2.661a26.954,26.954,0,0,0,4.181-.6c.18-.04.24,0,.26.14.02.3.04.78.04,1.22,0,.16-.06.22-.24.24a34.734,34.734,0,0,1-4.181.5c.02,1.12.06,2.141.14,3.241a17.086,17.086,0,0,1,5.3,2.5c.141.121.16.2.1.4a3.616,3.616,0,0,1-.661,1.12c-.12.16-.22.18-.38.06a14.352,14.352,0,0,0-4.281-2.42c0,2.2-1.24,3.08-3.821,3.08-2.46,0-3.78-.98-3.78-2.561,0-1.54,1.46-2.62,3.841-2.62a14.345,14.345,0,0,1,2.02.12C1612.31,5403.369,1612.27,5402.528,1612.25,5401.568Zm-1.86,4.121c-1.561,0-2.361.5-2.361,1.161,0,.7.72,1.12,2.12,1.12a2.59,2.59,0,0,0,1.941-.62,1.939,1.939,0,0,0,.3-1.4A8.574,8.574,0,0,0,1610.39,5405.689Z" fill="#333"/>
    <path id="パス_18" data-name="パス 18" d="M1630.631,5392.847c.279.08.38.2.38.359a.805.805,0,0,1-.12.32,1.893,1.893,0,0,0-.18.861c-.061.8-.08,1.4-.12,2.381a4.017,4.017,0,0,1,.72.439c.16.12.18.261.04.44-.321.541-.621,1.081-.92,1.7a3.661,3.661,0,0,0-.021.48c.74-.82,1.32-1.44,2.081-2.16,1.38-1.3,2.5-1.961,3.58-1.961,1.481,0,2.282.94,2.282,2.561,0,.759-.04,2.04-.161,3.68-.1,1.681-.2,2.7-.2,3.341,0,1.141.3,1.38.84,1.38a2.448,2.448,0,0,0,1.6-.739,5.927,5.927,0,0,0,1.2-1.822,3.459,3.459,0,0,0,.58,1.221.523.523,0,0,1,.04.72,4.367,4.367,0,0,1-3.621,2.281c-1.58,0-2.38-.841-2.38-2.8,0-.74.06-1.881.16-3.4.1-1.581.16-2.5.14-3.361,0-1.021-.24-1.561-.74-1.561a4.226,4.226,0,0,0-2.481,1.4,41.4,41.4,0,0,0-2.94,3.061c.019,2.261.08,5.041.08,7.561,0,.161-.061.241-.241.241a10.533,10.533,0,0,1-1.24.06c-.139,0-.219-.08-.219-.28,0-2.461,0-4.561.059-6.3-.9,1.3-1.74,2.661-2.641,4.041-.139.221-.2.221-.4.1a4.7,4.7,0,0,1-.939-.861c-.161-.14-.08-.3.04-.459,1.639-2.1,2.72-3.662,3.921-5.442.019-.62.019-1.1.04-1.58a20.21,20.21,0,0,0-2.561.9c-.2.081-.381.261-.54.261a.414.414,0,0,1-.341-.24,7.3,7.3,0,0,1-.66-1.46,8.019,8.019,0,0,0,1.421-.181q1.05-.268,2.761-.839c.019-.9.019-1.781.039-2.681a9.119,9.119,0,0,0-.159-1.96A9.423,9.423,0,0,1,1630.631,5392.847Z" fill="#333"/>
    <path id="パス_19" data-name="パス 19" d="M1651.811,5400.668a6.836,6.836,0,0,1,3.821-1.22c2.9,0,4.8,1.84,4.8,4.581,0,3.12-2.5,5.281-6.762,5.281-2.521,0-3.761-1.081-3.761-2.6a2.394,2.394,0,0,1,2.581-2.24,3.542,3.542,0,0,1,3.561,2.94,3.421,3.421,0,0,0,2.54-3.42,3.094,3.094,0,0,0-3.321-3.14,8.823,8.823,0,0,0-5.34,2.179,22.756,22.756,0,0,0-1.761,1.661c-.2.2-.3.24-.5.04a6.282,6.282,0,0,1-.92-1.02c-.1-.12-.061-.221.08-.36a56.861,56.861,0,0,0,4.66-4.441c1.221-1.261,2.3-2.481,3.6-4-1.461.239-3.041.56-4.6.86a3.583,3.583,0,0,0-.76.2,1.068,1.068,0,0,1-.379.1c-.181,0-.281-.08-.381-.28a7.352,7.352,0,0,1-.56-1.681,7.7,7.7,0,0,0,1.8.021c1.421-.141,3.121-.38,4.781-.7a2.571,2.571,0,0,0,.821-.24.822.822,0,0,1,.339-.14.652.652,0,0,1,.4.159,6.481,6.481,0,0,1,1.06,1.021.644.644,0,0,1,.18.4.463.463,0,0,1-.32.42,2.515,2.515,0,0,0-.92.681c-1.641,1.679-3,3.08-4.8,4.88Zm.74,5.142c-.66,0-1.16.339-1.16.9,0,.66.64,1.141,1.961,1.161a5.69,5.69,0,0,0,1.16-.1C1654.251,5406.609,1653.551,5405.81,1652.551,5405.81Z" fill="#333"/>
    <path id="パス_20" data-name="パス 20" d="M1675.111,5400.068a11.669,11.669,0,0,1-1.219,5.2,9.526,9.526,0,0,1-3.541,3.78c-.321.2-.561.3-.8.06a3.373,3.373,0,0,0-1.421-.84,8.558,8.558,0,0,0,3.941-3.621,9.5,9.5,0,0,0,1.02-4.581h-3.921c-1,0-2.021.06-2.941.12-.2.02-.24-.1-.259-.34a9.3,9.3,0,0,1-.141-1.5c1.141.08,2.2.1,3.341.1h8.782c1.46,0,2.541-.019,3.761-.1.18,0,.22.08.22.34v1.16c0,.22-.1.3-.28.3-1.121-.04-2.361-.08-3.681-.08Zm-3.58-4.521c-.9,0-1.821.02-2.841.08-.24.02-.28-.08-.3-.3a14.474,14.474,0,0,1-.119-1.5c1.28.08,2.36.1,3.26.1h4.141c1.08,0,2.34,0,3.381-.061.179-.019.219.08.219.3a4.932,4.932,0,0,1,0,1.1c0,.26-.04.32-.24.32-1.08-.04-2.3-.04-3.36-.04Z" fill="#333"/>
    <path id="パス_21" data-name="パス 21" d="M1697.352,5395.827a1.629,1.629,0,0,0,1-.22c.16-.12.339-.08.54.06a7.334,7.334,0,0,1,1.06.84.442.442,0,0,1,.04.721,2.073,2.073,0,0,0-.58.759,27.656,27.656,0,0,1-3.9,6.222,25.1,25.1,0,0,1-6.181,5.1.434.434,0,0,1-.581-.081,3.9,3.9,0,0,0-1.5-.739,22.164,22.164,0,0,0,6.621-5.2,21.434,21.434,0,0,0,3.741-5.941l-5.321.16a29.448,29.448,0,0,1-3.881,4.2.457.457,0,0,1-.66.061,4,4,0,0,0-1.42-.6,22.052,22.052,0,0,0,5.281-5.881,6.578,6.578,0,0,0,1.08-2.581,6.978,6.978,0,0,1,1.88.86.318.318,0,0,1-.019.58,2.368,2.368,0,0,0-.54.621c-.281.42-.481.76-.74,1.14Z" fill="#333"/>
    <path id="パス_22" data-name="パス 22" d="M1716.332,5394.646a.361.361,0,0,1,.08.581,4.727,4.727,0,0,0-.88,1.42,32.658,32.658,0,0,1-3.581,6.1,24.222,24.222,0,0,1-5.981,5.661.468.468,0,0,1-.64-.02,4.352,4.352,0,0,0-1.48-.781,23.754,23.754,0,0,0,6.461-5.821,25.822,25.822,0,0,0,3.241-5.641,9.178,9.178,0,0,0,.679-2.5A10.842,10.842,0,0,1,1716.332,5394.646Z" fill="#333"/>
    <path id="パス_23" data-name="パス 23" d="M1732.854,5394.927a2.352,2.352,0,0,0,1.24-.18.409.409,0,0,1,.46.08,5.83,5.83,0,0,1,1.04,1.06c.139.2.1.341-.12.54a3.531,3.531,0,0,0-.661.8,32.215,32.215,0,0,1-2.78,4.06,43.284,43.284,0,0,1,5.641,4.941c.18.18.2.26.02.5a11.329,11.329,0,0,1-.98.981c-.16.16-.28.14-.441-.04a34.98,34.98,0,0,0-5.36-5.022,30.107,30.107,0,0,1-6.981,5.461c-.261.141-.441.2-.62-.019a4.237,4.237,0,0,0-1.341-.981,24.948,24.948,0,0,0,7.221-5.3,24.264,24.264,0,0,0,3.782-5.2h-5.622c-1.1,0-2.04.06-3,.121-.181,0-.221-.081-.261-.281a8.887,8.887,0,0,1-.14-1.6c1.021.08,1.961.08,3.221.08Z" fill="#333"/>
    <path id="パス_24" data-name="パス 24" d="M1749.991,5404.769c-.86,1.48-1.82,2.161-3.14,2.161-1.6,0-3.181-1.741-3.181-4.8a7.326,7.326,0,0,1,2.3-5.2,8.575,8.575,0,0,1,6.2-2.341c4.641,0,7.341,2.74,7.341,6.642,0,3.46-2.04,5.96-6.261,7.121a.529.529,0,0,1-.681-.281,2.9,2.9,0,0,0-1.04-.96c3.721-.8,6.161-2.62,6.161-6.141a4.857,4.857,0,0,0-5.121-4.861A23.076,23.076,0,0,1,1749.991,5404.769Zm-2.9-6.742a6,6,0,0,0-1.761,4.041c0,2.04.8,3,1.481,3,.62,0,1.16-.36,1.72-1.36a21.715,21.715,0,0,0,2.26-7.521A6.457,6.457,0,0,0,1747.091,5398.027Z" fill="#333"/>
    <path id="パス_25" data-name="パス 25" d="M1552.448,5474.582V5430.23h-8.5v-6.912h24.336v6.912h-8.5v44.352Z" fill="#00ad93"/>
    <path id="パス_26" data-name="パス 26" d="M1578.3,5435.414a13.1,13.1,0,0,1,1.079-5.472,11.567,11.567,0,0,1,2.881-3.96,12.171,12.171,0,0,1,3.924-2.3,13.07,13.07,0,0,1,12.851,2.3,12.06,12.06,0,0,1,2.809,3.96,13.1,13.1,0,0,1,1.08,5.472v27.072a12.975,12.975,0,0,1-1.08,5.544,11.443,11.443,0,0,1-2.809,3.816,12.358,12.358,0,0,1-4,2.376,12.772,12.772,0,0,1-8.855,0,11.544,11.544,0,0,1-3.924-2.376,11,11,0,0,1-2.881-3.816,12.978,12.978,0,0,1-1.079-5.544Zm7.344,27.072a4.88,4.88,0,0,0,1.475,3.924,5.471,5.471,0,0,0,6.985,0,4.884,4.884,0,0,0,1.475-3.924v-27.072a4.885,4.885,0,0,0-1.475-3.924,5.469,5.469,0,0,0-6.985,0,4.882,4.882,0,0,0-1.475,3.924Z" fill="#e65290"/>
    <path id="パス_27" data-name="パス 27" d="M1616.6,5474.582v-51.264h11.015a16.377,16.377,0,0,1,5.328.792,10.247,10.247,0,0,1,4.176,2.808,11,11,0,0,1,2.593,4.716,29.6,29.6,0,0,1,.72,7.308,36.246,36.246,0,0,1-.4,5.832,12.182,12.182,0,0,1-1.691,4.464,10.719,10.719,0,0,1-4.032,3.924,13.572,13.572,0,0,1-6.624,1.4h-3.745v20.016Zm7.343-44.352v17.424h3.529a7.512,7.512,0,0,0,3.456-.648,4.08,4.08,0,0,0,1.8-1.8,6.578,6.578,0,0,0,.683-2.664q.108-1.584.109-3.528,0-1.8-.073-3.42a7.4,7.4,0,0,0-.647-2.844,4.1,4.1,0,0,0-1.729-1.872,6.857,6.857,0,0,0-3.311-.648Z" fill="#00ace6"/>
    <path id="パス_28" data-name="パス 28" d="M1653.318,5474.582v-51.264h7.344v51.264Z" fill="#ee8a00"/>
    <path id="パス_29" data-name="パス 29" d="M1698.318,5459.966v3.168a11.41,11.41,0,0,1-.9,4.5,12.478,12.478,0,0,1-2.483,3.78,11.983,11.983,0,0,1-3.708,2.628,10.867,10.867,0,0,1-4.573.972,16.493,16.493,0,0,1-4.248-.576,10.01,10.01,0,0,1-3.887-2.016,11.125,11.125,0,0,1-2.845-3.708,13.126,13.126,0,0,1-1.115-5.8v-28.224a12.487,12.487,0,0,1,.863-4.68,10.99,10.99,0,0,1,2.448-3.743,11.4,11.4,0,0,1,3.78-2.485,12.713,12.713,0,0,1,4.86-.9,11.142,11.142,0,0,1,8.425,3.385,12.067,12.067,0,0,1,2.483,3.923,13.258,13.258,0,0,1,.9,4.932v2.88h-7.343v-2.448a5.952,5.952,0,0,0-1.225-3.744,3.967,3.967,0,0,0-3.312-1.584q-2.737,0-3.636,1.692a9.062,9.062,0,0,0-.9,4.284v26.208a6.8,6.8,0,0,0,.972,3.744,3.829,3.829,0,0,0,3.492,1.512,5.306,5.306,0,0,0,1.548-.252,4.606,4.606,0,0,0,1.548-.828,4.367,4.367,0,0,0,1.08-1.584,6.416,6.416,0,0,0,.433-2.52v-2.52Z" fill="#7fbc26"/>
    <path id="パス_30" data-name="パス 30" d="M1735.254,5438.078h-7.344v-1.656a7.842,7.842,0,0,0-1.188-4.356,4.393,4.393,0,0,0-3.995-1.836,4.626,4.626,0,0,0-2.449.576,4.8,4.8,0,0,0-1.512,1.44,6.071,6.071,0,0,0-.792,2.124,13.864,13.864,0,0,0-.216,2.484,24.342,24.342,0,0,0,.108,2.52,4.778,4.778,0,0,0,.54,1.8,3.981,3.981,0,0,0,1.26,1.368,11.451,11.451,0,0,0,2.269,1.152l5.615,2.232a13.977,13.977,0,0,1,3.96,2.2,9.484,9.484,0,0,1,2.376,2.916,13.662,13.662,0,0,1,1.08,3.924,39.016,39.016,0,0,1,.288,5,26.4,26.4,0,0,1-.648,6.013,12.68,12.68,0,0,1-2.087,4.715,10.368,10.368,0,0,1-3.961,3.168,13.982,13.982,0,0,1-5.976,1.152,13.088,13.088,0,0,1-4.968-.936,11.778,11.778,0,0,1-3.96-2.592,12.586,12.586,0,0,1-2.628-3.852,11.7,11.7,0,0,1-.972-4.788v-2.736h7.344v2.3a6,6,0,0,0,1.188,3.636,4.627,4.627,0,0,0,4,1.62,6.44,6.44,0,0,0,2.916-.54,3.876,3.876,0,0,0,1.62-1.548,5.687,5.687,0,0,0,.684-2.412q.108-1.4.108-3.132a31.3,31.3,0,0,0-.144-3.312,5.7,5.7,0,0,0-.576-2.088,4.068,4.068,0,0,0-1.332-1.3,17.251,17.251,0,0,0-2.2-1.08l-5.256-2.16q-4.752-1.944-6.372-5.148a17.706,17.706,0,0,1-1.62-8.028,18.625,18.625,0,0,1,.792-5.472,12.419,12.419,0,0,1,2.376-4.464,10.9,10.9,0,0,1,3.853-2.988,12.858,12.858,0,0,1,5.579-1.116,12.21,12.21,0,0,1,5.005,1.008,12.907,12.907,0,0,1,3.923,2.664,11.128,11.128,0,0,1,3.312,7.921Z" fill="#3071b5"/>
  </g>
</svg>
