<svg id="レイヤー_1" data-name="レイヤー 1" xmlns="http://www.w3.org/2000/svg" viewBox="0 0 215.66 18.59"><defs><style>.cls-1{fill:#464646;}</style></defs><path class="cls-1" d="M3232.2,2201.37v3.21h-5.42v14.91H3223v-14.91h-5.45v-3.21Z" transform="translate(-3217.52 -2201.37)"/><path class="cls-1" d="M3247.81,2204.58h-9.59v3.85h8.8v3.15h-8.8v4.66h10v3.25h-13.73v-18.12h13.29Z" transform="translate(-3217.52 -2201.37)"/><path class="cls-1" d="M3251.2,2201.37H3255v14.87H3264v3.25H3251.2Z" transform="translate(-3217.52 -2201.37)"/><path class="cls-1" d="M3267.52,2206.61h3.72v3.68h-3.72Zm0,9.21h3.72v3.67h-3.72Z" transform="translate(-3217.52 -2201.37)"/><path class="cls-1" d="M3284.76,2203.94a17.59,17.59,0,0,1,0,13.61q-1.37,2.38-4.78,2.39t-4.77-2.39a17.59,17.59,0,0,1,0-13.61q1.36-2.4,4.77-2.4T3284.76,2203.94Zm-6.84,11.51a2,2,0,0,0,2.06,1.63,2,2,0,0,0,2.05-1.63,23.12,23.12,0,0,0,0-9.47,2,2,0,0,0-2.05-1.55,2,2,0,0,0-2.06,1.55,22.67,22.67,0,0,0,0,9.47Z" transform="translate(-3217.52 -2201.37)"/><path class="cls-1" d="M3300.22,2215.66h-2v3.83h-3.43v-3.83h-7.05v-3.06l6.55-10.82h3.93v11.14h2Zm-5.45-2.74v-7.68l-4.45,7.68Z" transform="translate(-3217.52 -2201.37)"/><path class="cls-1" d="M3302.67,2216a9.84,9.84,0,0,1,3.54-3.77,26,26,0,0,0,3.13-2.49,3.67,3.67,0,0,0,1.1-2.55,2.84,2.84,0,0,0-.63-1.89,2.21,2.21,0,0,0-1.79-.75,2.18,2.18,0,0,0-2.18,1.2,6,6,0,0,0-.39,2.19H3302a8.67,8.67,0,0,1,.82-3.68q1.41-2.67,5-2.67a6.28,6.28,0,0,1,4.5,1.57,5.4,5.4,0,0,1,1.68,4.15,5.58,5.58,0,0,1-1.19,3.51,11.53,11.53,0,0,1-2.55,2.28l-1.4,1c-.88.63-1.48,1.08-1.8,1.36a3.81,3.81,0,0,0-.82,1h7.78v3.08h-12.21A8.46,8.46,0,0,1,3302.67,2216Z" transform="translate(-3217.52 -2201.37)"/><path class="cls-1" d="M3316.27,2214.91V2211h9.87v3.95Z" transform="translate(-3217.52 -2201.37)"/><path class="cls-1" d="M3331.45,2214a4,4,0,0,0,.35,1.77,2.34,2.34,0,0,0,2.31,1.29,2.56,2.56,0,0,0,1.8-.7,2.64,2.64,0,0,0,.77-2,2.31,2.31,0,0,0-1.42-2.35,7.24,7.24,0,0,0-2.55-.33v-2.51a6.33,6.33,0,0,0,2.37-.33,2,2,0,0,0,1.17-2.09,2.33,2.33,0,0,0-.6-1.66,2.18,2.18,0,0,0-1.67-.64,2.12,2.12,0,0,0-1.82.79,3.31,3.31,0,0,0-.56,2.1h-3.27a8.77,8.77,0,0,1,.45-2.52,5.73,5.73,0,0,1,1.36-1.93,4.57,4.57,0,0,1,1.63-1,7.08,7.08,0,0,1,2.32-.33,6.18,6.18,0,0,1,4.12,1.32,4.43,4.43,0,0,1,1.57,3.55,3.92,3.92,0,0,1-.94,2.65,3.14,3.14,0,0,1-1.23.93,2.52,2.52,0,0,1,1.38.82,4.41,4.41,0,0,1,1.34,3.39,5.69,5.69,0,0,1-1.57,4,6,6,0,0,1-4.63,1.72c-2.53,0-4.28-.83-5.26-2.47a7.36,7.36,0,0,1-.86-3.45Z" transform="translate(-3217.52 -2201.37)"/><path class="cls-1" d="M3342.69,2211.83a4.32,4.32,0,0,1,2-1.83,4.12,4.12,0,0,1-1.69-1.86,5.19,5.19,0,0,1-.39-1.88,4.38,4.38,0,0,1,1.47-3.31,6.94,6.94,0,0,1,8.28,0,4.38,4.38,0,0,1,1.47,3.31,5.19,5.19,0,0,1-.39,1.88,3.58,3.58,0,0,1-1.68,1.74,5,5,0,0,1,2,1.95,5.65,5.65,0,0,1,.67,2.72,5.08,5.08,0,0,1-1.67,3.83,6.53,6.53,0,0,1-4.66,1.58,6.07,6.07,0,0,1-4.53-1.58,5.31,5.31,0,0,1-1.54-3.83A5.54,5.54,0,0,1,3342.69,2211.83Zm3.64,4.53a2.84,2.84,0,0,0,3.78,0,2.89,2.89,0,0,0,.68-2,2.84,2.84,0,0,0-.69-2.07,2.83,2.83,0,0,0-3.75,0,2.8,2.8,0,0,0-.7,2.07A2.89,2.89,0,0,0,3346.33,2216.36Zm.23-8.12a2.21,2.21,0,0,0,1.66.62,2.08,2.08,0,0,0,2.24-2.2,2.23,2.23,0,0,0-.59-1.65,2.2,2.2,0,0,0-1.65-.6,2.24,2.24,0,0,0-1.66.6,2.2,2.2,0,0,0-.6,1.65A2.16,2.16,0,0,0,3346.56,2208.24Z" transform="translate(-3217.52 -2201.37)"/><path class="cls-1" d="M3368.63,2204.64a21.75,21.75,0,0,0-2.19,2.76,24.93,24.93,0,0,0-2.36,4.1,24.36,24.36,0,0,0-1.35,4.06,16.93,16.93,0,0,0-.6,3.93h-3.64a21.28,21.28,0,0,1,3.15-10,23.41,23.41,0,0,1,3.23-4.47H3356l.05-3.15h12.59Z" transform="translate(-3217.52 -2201.37)"/><path class="cls-1" d="M3370.56,2214.91V2211h9.87v3.95Z" transform="translate(-3217.52 -2201.37)"/><path class="cls-1" d="M3385.8,2214.72a3.42,3.42,0,0,0,.79,1.77,2.64,2.64,0,0,0,3.7-.3,3.71,3.71,0,0,0,.68-2.3,4.07,4.07,0,0,0-.63-2.31,2.26,2.26,0,0,0-2-.94,3.66,3.66,0,0,0-1.11.16,2.18,2.18,0,0,0-1.23,1.1l-3.15-.15,1.26-9.85h9.8v3h-7.28l-.63,3.89a8,8,0,0,1,1.26-.7,5.34,5.34,0,0,1,1.85-.28,5.58,5.58,0,0,1,3.86,1.49,5.51,5.51,0,0,1,1.64,4.32A6.79,6.79,0,0,1,3393,2218a5.78,5.78,0,0,1-4.74,1.94,6.29,6.29,0,0,1-4.18-1.36,5.29,5.29,0,0,1-1.81-3.88Z" transform="translate(-3217.52 -2201.37)"/><path class="cls-1" d="M3397.39,2207.2v-2.39a15.46,15.46,0,0,0,2.32-.22,3.26,3.26,0,0,0,1.72-.93,3.72,3.72,0,0,0,.82-2h2.92v17.82h-3.59V2207.2Z" transform="translate(-3217.52 -2201.37)"/><path class="cls-1" d="M3411.39,2207.2v-2.39a15.31,15.31,0,0,0,2.32-.22,3.22,3.22,0,0,0,1.72-.93,3.72,3.72,0,0,0,.82-2h2.93v17.82h-3.59V2207.2Z" transform="translate(-3217.52 -2201.37)"/><path class="cls-1" d="M3425.4,2207.2v-2.39a15.29,15.29,0,0,0,2.31-.22,3,3,0,0,0,2.41-2.21,2.9,2.9,0,0,0,.13-.71h2.93v17.82h-3.59V2207.2Z" transform="translate(-3217.52 -2201.37)"/></svg>