<svg id="レイヤー_1" data-name="レイヤー 1" xmlns="http://www.w3.org/2000/svg" viewBox="0 0 50.5 36.24"><defs><style>.cls-1{fill:#1e7ab1;}</style></defs><path class="cls-1" d="M2997.55,2185.68l-4-4.6-15.08,4.64-.49-8.84h-5.56l-.39,8.87-15.18-4.67-4,4.6-2.87,26.36,3.66,1.08,18.6-3.55h6l18.6,3.55,3.67-1.08Zm-37.18,16-3.62.35.5-4.94,3.5,0Zm.55-6.71-3.45,0,.45-4.47,3.34.47Zm.52-6.18-3.3-.46.46-4.61,3.18.95Zm4.2,12.38-3.09.3.36-4.32,3,0Zm.38-6.14-2.93,0,.31-3.76,2.84.4Zm.36-5.55-2.8-.39.31-3.78,2.7.8Zm3.78,11.25-2.35.23.24-3.75,2.28,0Zm.28-5.65-2.26,0,.2-3.11,2.21.31Zm.26-5-2.18-.31.19-3,2.12.64Zm4.33,16.1h-2.58l.91-23.59H2975Zm.68,0v-23.59h1.3l1.29,23.59Zm3.81-18.8,2.13-.64.19,3-2.18.31Zm.25,4.86,2.21-.31.19,3.11-2.26,0Zm.43,8.48-.18-3.5,2.29,0,.24,3.75Zm3.57-14.62,2.69-.8.32,3.78-2.8.39Zm.35,5.53,2.84-.4.31,3.76-2.94,0Zm.6,9.53-.25-4,3,0,.36,4.32Zm3.85-16.5,3.18-.95.47,4.61-3.3.46Zm.53,6.27,3.34-.47.45,4.47-3.46,0Zm.89,10.74-.38-4.55,3.49,0,.5,4.94Z" transform="translate(-2949.93 -2176.88)"/></svg>