<svg id="レイヤー_1" data-name="レイヤー 1" xmlns="http://www.w3.org/2000/svg" viewBox="0 0 207.86 18.59"><defs><style>.cls-1{fill:#464646;}</style></defs><path class="cls-1" d="M2983.08,2187v3.21h-5.42v14.91h-3.81v-14.91h-5.44V2187Z" transform="translate(-2968.41 -2187.04)"/><path class="cls-1" d="M2998.7,2190.25h-9.59v3.85h8.8v3.14h-8.8v4.66h10v3.26h-13.73V2187h13.29Z" transform="translate(-2968.41 -2187.04)"/><path class="cls-1" d="M3002.09,2187h3.79v14.86h9v3.26h-12.84Z" transform="translate(-2968.41 -2187.04)"/><path class="cls-1" d="M3018.41,2192.28h3.72V2196h-3.72Zm0,9.2h3.72v3.68h-3.72Z" transform="translate(-2968.41 -2187.04)"/><path class="cls-1" d="M3035.65,2189.61a17.59,17.59,0,0,1,0,13.61q-1.38,2.39-4.78,2.38t-4.77-2.38a17.47,17.47,0,0,1,0-13.61q1.37-2.4,4.77-2.4T3035.65,2189.61Zm-6.84,11.51a2.11,2.11,0,0,0,4.11,0,23.59,23.59,0,0,0,0-9.47,2.14,2.14,0,0,0-4.11,0,22.23,22.23,0,0,0,0,9.47Z" transform="translate(-2968.41 -2187.04)"/><path class="cls-1" d="M3051.11,2201.32h-2v3.84h-3.43v-3.84h-7.06v-3.06l6.56-10.82h3.93v11.14h2Zm-5.45-2.74v-7.68l-4.45,7.68Z" transform="translate(-2968.41 -2187.04)"/><path class="cls-1" d="M3053.55,2201.66a9.88,9.88,0,0,1,3.55-3.78,26.06,26.06,0,0,0,3.13-2.48,3.66,3.66,0,0,0,1.09-2.56,2.82,2.82,0,0,0-.62-1.88,2.22,2.22,0,0,0-1.8-.75,2.19,2.19,0,0,0-2.17,1.19,5.71,5.71,0,0,0-.4,2.19h-3.4a8.51,8.51,0,0,1,.82-3.67q1.41-2.67,5-2.67a6.31,6.31,0,0,1,4.5,1.57,5.38,5.38,0,0,1,1.67,4.15,5.59,5.59,0,0,1-1.18,3.51,12,12,0,0,1-2.55,2.28l-1.4,1c-.88.62-1.48,1.07-1.81,1.35a4.18,4.18,0,0,0-.81,1h7.78v3.09h-12.21A8.38,8.38,0,0,1,3053.55,2201.66Z" transform="translate(-2968.41 -2187.04)"/><path class="cls-1" d="M3066.52,2196.48h6.86v3.32h-6.86Z" transform="translate(-2968.41 -2187.04)"/><path class="cls-1" d="M3078.44,2199.69a4,4,0,0,0,.34,1.77,2.36,2.36,0,0,0,2.32,1.29,2.59,2.59,0,0,0,1.8-.71,2.63,2.63,0,0,0,.76-2,2.29,2.29,0,0,0-1.42-2.35,7.24,7.24,0,0,0-2.55-.33v-2.51a6.81,6.81,0,0,0,2.38-.33,2.06,2.06,0,0,0,1.16-2.09,2.37,2.37,0,0,0-.59-1.66,2.18,2.18,0,0,0-1.68-.64,2.11,2.11,0,0,0-1.82.79,3.35,3.35,0,0,0-.56,2.1h-3.27a9,9,0,0,1,.46-2.52,5.74,5.74,0,0,1,1.35-1.93,4.66,4.66,0,0,1,1.63-1,7.12,7.12,0,0,1,2.32-.33,6.16,6.16,0,0,1,4.12,1.32,4.38,4.38,0,0,1,1.57,3.55,3.91,3.91,0,0,1-.93,2.65,3.25,3.25,0,0,1-1.23.92,2.54,2.54,0,0,1,1.37.83,4.38,4.38,0,0,1,1.34,3.39,5.75,5.75,0,0,1-1.56,4,6,6,0,0,1-4.64,1.71q-3.78,0-5.26-2.47a7.4,7.4,0,0,1-.86-3.44Z" transform="translate(-2968.41 -2187.04)"/><path class="cls-1" d="M3089.68,2197.5a4.29,4.29,0,0,1,2-1.83,4.2,4.2,0,0,1-1.68-1.86,5.23,5.23,0,0,1-.39-1.88,4.39,4.39,0,0,1,1.46-3.31,6.94,6.94,0,0,1,8.28,0,4.36,4.36,0,0,1,1.47,3.31,5.23,5.23,0,0,1-.39,1.88,3.62,3.62,0,0,1-1.68,1.74,4.86,4.86,0,0,1,2,1.95,5.51,5.51,0,0,1,.67,2.72,5.1,5.1,0,0,1-1.67,3.83,6.51,6.51,0,0,1-4.66,1.58,6,6,0,0,1-4.52-1.58,5.28,5.28,0,0,1-1.54-3.83A5.41,5.41,0,0,1,3089.68,2197.5Zm3.64,4.53a2.83,2.83,0,0,0,3.77,0,3.4,3.4,0,0,0,0-4.12,2.86,2.86,0,0,0-3.75,0,3.44,3.44,0,0,0,0,4.12Zm.22-8.12a2.24,2.24,0,0,0,3.9-1.58,2.27,2.27,0,0,0-.58-1.66,2.26,2.26,0,0,0-3.92,1.66A2.17,2.17,0,0,0,3093.54,2193.91Z" transform="translate(-2968.41 -2187.04)"/><path class="cls-1" d="M3115.61,2190.31a23.75,23.75,0,0,0-2.19,2.76,24.46,24.46,0,0,0-2.35,4.1,25.26,25.26,0,0,0-1.36,4.06,16.85,16.85,0,0,0-.6,3.93h-3.64a21.47,21.47,0,0,1,3.15-10,23.36,23.36,0,0,1,3.24-4.47H3103l.05-3.15h12.58Z" transform="translate(-2968.41 -2187.04)"/><path class="cls-1" d="M3116.92,2196.48h6.86v3.32h-6.86Z" transform="translate(-2968.41 -2187.04)"/><path class="cls-1" d="M3128.88,2200.39a3.32,3.32,0,0,0,.8,1.76,2.22,2.22,0,0,0,1.71.63,2.31,2.31,0,0,0,2-.92,3.73,3.73,0,0,0,.69-2.31,4,4,0,0,0-.64-2.3,2.24,2.24,0,0,0-2-.94,3.31,3.31,0,0,0-1.1.16,2.21,2.21,0,0,0-1.24,1.09l-3.14-.14,1.25-9.85H3137v3h-7.28l-.64,3.9a7.23,7.23,0,0,1,1.26-.7,5.36,5.36,0,0,1,1.86-.28,5.37,5.37,0,0,1,5.5,5.81,6.75,6.75,0,0,1-1.59,4.41,5.73,5.73,0,0,1-4.74,2,6.27,6.27,0,0,1-4.17-1.37,5.29,5.29,0,0,1-1.82-3.87Z" transform="translate(-2968.41 -2187.04)"/><path class="cls-1" d="M3140.47,2192.87v-2.39a15.31,15.31,0,0,0,2.32-.22,3.36,3.36,0,0,0,1.72-.93,3.06,3.06,0,0,0,.68-1.28,3,3,0,0,0,.14-.72h2.93v17.83h-3.59v-12.29Z" transform="translate(-2968.41 -2187.04)"/><path class="cls-1" d="M3154.48,2192.87v-2.39a15.29,15.29,0,0,0,2.31-.22,3.32,3.32,0,0,0,1.72-.93,3.19,3.19,0,0,0,.69-1.28,2.89,2.89,0,0,0,.13-.72h2.93v17.83h-3.59v-12.29Z" transform="translate(-2968.41 -2187.04)"/><path class="cls-1" d="M3168.48,2192.87v-2.39a15.46,15.46,0,0,0,2.32-.22,3.33,3.33,0,0,0,1.71-.93,3.08,3.08,0,0,0,.69-1.28,3,3,0,0,0,.14-.72h2.92v17.83h-3.59v-12.29Z" transform="translate(-2968.41 -2187.04)"/></svg>