<svg id="レイヤー_1" data-name="レイヤー 1" xmlns="http://www.w3.org/2000/svg" viewBox="0 0 198.64 19.24"><defs><style>.cls-1{fill:#464646;}.cls-2{fill:#169e3d;}.cls-3{fill:#fff;}</style></defs><path class="cls-1" d="M3019.85,2187.1a17.59,17.59,0,0,1,0,13.61c-.91,1.59-2.51,2.38-4.78,2.38s-3.86-.79-4.77-2.38a17.59,17.59,0,0,1,0-13.61q1.36-2.4,4.77-2.4C3017.34,2184.7,3018.94,2185.5,3019.85,2187.1Zm-6.84,11.51a2.11,2.11,0,0,0,4.11,0,23.12,23.12,0,0,0,0-9.47,2.14,2.14,0,0,0-4.11,0,22.23,22.23,0,0,0,0,9.47Z" transform="translate(-2973.18 -2184.38)"/><path class="cls-1" d="M3023.89,2190.36V2188a15.46,15.46,0,0,0,2.32-.22,3.19,3.19,0,0,0,1.71-.93,3.65,3.65,0,0,0,.83-2h2.92v17.82h-3.59v-12.29Z" transform="translate(-2973.18 -2184.38)"/><path class="cls-1" d="M3037.76,2199.15a9.92,9.92,0,0,1,3.54-3.78,25.23,25.23,0,0,0,3.13-2.48,3.68,3.68,0,0,0,1.1-2.56,2.83,2.83,0,0,0-.63-1.88,2.22,2.22,0,0,0-1.8-.75,2.18,2.18,0,0,0-2.17,1.2,5.84,5.84,0,0,0-.39,2.18h-3.41a8.66,8.66,0,0,1,.82-3.67q1.41-2.67,5-2.67a6.28,6.28,0,0,1,4.5,1.57,5.4,5.4,0,0,1,1.68,4.15,5.58,5.58,0,0,1-1.19,3.51,11.53,11.53,0,0,1-2.55,2.28l-1.4,1c-.88.63-1.48,1.08-1.8,1.36a3.65,3.65,0,0,0-.82,1h7.78v3.08h-12.21A8.42,8.42,0,0,1,3037.76,2199.15Z" transform="translate(-2973.18 -2184.38)"/><path class="cls-1" d="M3061.86,2187.1a17.59,17.59,0,0,1,0,13.61c-.91,1.59-2.51,2.38-4.78,2.38s-3.86-.79-4.77-2.38a17.59,17.59,0,0,1,0-13.61q1.36-2.4,4.77-2.4C3059.35,2184.7,3061,2185.5,3061.86,2187.1Zm-6.84,11.51a2.11,2.11,0,0,0,4.11,0,17.46,17.46,0,0,0,.49-4.7,17.29,17.29,0,0,0-.49-4.77,2.14,2.14,0,0,0-4.11,0,22.23,22.23,0,0,0,0,9.47Z" transform="translate(-2973.18 -2184.38)"/><path class="cls-1" d="M3065.36,2198.07v-4h9.87v4Z" transform="translate(-2973.18 -2184.38)"/><path class="cls-1" d="M3085.67,2189.31a1.78,1.78,0,0,0-.33-.94,1.93,1.93,0,0,0-1.71-.84,2.52,2.52,0,0,0-2.43,1.92,11.19,11.19,0,0,0-.54,3.12,3.83,3.83,0,0,1,1.51-1.13,5.05,5.05,0,0,1,2-.36,5.14,5.14,0,0,1,3.89,1.61,5.78,5.78,0,0,1,1.51,4.12,6.94,6.94,0,0,1-1.48,4.4,5.53,5.53,0,0,1-4.63,1.91,5.31,5.31,0,0,1-5-2.82,11.44,11.44,0,0,1-1.24-5.68,25,25,0,0,1,.17-3.32,10.08,10.08,0,0,1,1.19-3.78,6,6,0,0,1,2-2.08,5.41,5.41,0,0,1,2.95-.79,5.84,5.84,0,0,1,4,1.28,4.77,4.77,0,0,1,1.66,3.38Zm-4.15,10.05a2.48,2.48,0,0,0,2,.91,2.21,2.21,0,0,0,1.84-.88,3.65,3.65,0,0,0,.67-2.28,3.4,3.4,0,0,0-.76-2.39,2.42,2.42,0,0,0-1.87-.83,2.51,2.51,0,0,0-1.59.54,3.08,3.08,0,0,0-1,2.58A3.49,3.49,0,0,0,3081.52,2199.36Z" transform="translate(-2973.18 -2184.38)"/><path class="cls-1" d="M3094.55,2197.18a4,4,0,0,0,.34,1.77,2.36,2.36,0,0,0,2.32,1.29,2.56,2.56,0,0,0,1.8-.7,2.65,2.65,0,0,0,.76-2,2.3,2.3,0,0,0-1.42-2.35,7.24,7.24,0,0,0-2.55-.33v-2.51a6.36,6.36,0,0,0,2.38-.33,2.05,2.05,0,0,0,1.16-2.09,2.37,2.37,0,0,0-.59-1.66,2.21,2.21,0,0,0-1.68-.64,2.11,2.11,0,0,0-1.82.79,3.29,3.29,0,0,0-.55,2.1h-3.27a8.77,8.77,0,0,1,.45-2.52,5.74,5.74,0,0,1,1.35-1.93,4.66,4.66,0,0,1,1.63-1,7.12,7.12,0,0,1,2.32-.33,6.16,6.16,0,0,1,4.12,1.32,4.38,4.38,0,0,1,1.57,3.55,3.91,3.91,0,0,1-.93,2.65,3.39,3.39,0,0,1-1.23.93,2.47,2.47,0,0,1,1.37.82,4.38,4.38,0,0,1,1.34,3.39,5.73,5.73,0,0,1-1.56,4,6,6,0,0,1-4.64,1.71q-3.78,0-5.25-2.47a7.17,7.17,0,0,1-.86-3.44Z" transform="translate(-2973.18 -2184.38)"/><path class="cls-1" d="M3117.61,2198.82h-2v3.83h-3.43v-3.83h-7.06v-3.06l6.55-10.82h3.94v11.14h2Zm-5.44-2.74v-7.68l-4.45,7.68Z" transform="translate(-2973.18 -2184.38)"/><path class="cls-1" d="M3119.66,2198.07v-4h9.87v4Z" transform="translate(-2973.18 -2184.38)"/><path class="cls-1" d="M3132.34,2199.15a9.88,9.88,0,0,1,3.55-3.78,26.06,26.06,0,0,0,3.13-2.48,3.66,3.66,0,0,0,1.09-2.56,2.82,2.82,0,0,0-.62-1.88,2.22,2.22,0,0,0-1.8-.75,2.18,2.18,0,0,0-2.17,1.2,5.81,5.81,0,0,0-.4,2.18h-3.4a8.51,8.51,0,0,1,.82-3.67q1.41-2.67,5-2.67a6.31,6.31,0,0,1,4.5,1.57,5.4,5.4,0,0,1,1.67,4.15,5.57,5.57,0,0,1-1.18,3.51,12,12,0,0,1-2.55,2.28l-1.4,1c-.88.63-1.48,1.08-1.81,1.36a3.81,3.81,0,0,0-.81,1h7.78v3.08h-12.21A8.42,8.42,0,0,1,3132.34,2199.15Z" transform="translate(-2973.18 -2184.38)"/><path class="cls-1" d="M3156.45,2187.1a17.59,17.59,0,0,1,0,13.61q-1.38,2.39-4.78,2.38t-4.78-2.38a17.59,17.59,0,0,1,0-13.61q1.38-2.4,4.78-2.4T3156.45,2187.1Zm-6.84,11.51a2.11,2.11,0,0,0,4.11,0,23.59,23.59,0,0,0,0-9.47,2.14,2.14,0,0,0-4.11,0,22.23,22.23,0,0,0,0,9.47Z" transform="translate(-2973.18 -2184.38)"/><path class="cls-1" d="M3170.45,2187.1a17.59,17.59,0,0,1,0,13.61c-.91,1.59-2.51,2.38-4.78,2.38s-3.86-.79-4.77-2.38a17.59,17.59,0,0,1,0-13.61q1.36-2.4,4.77-2.4C3167.94,2184.7,3169.54,2185.5,3170.45,2187.1Zm-6.84,11.51a2.11,2.11,0,0,0,4.11,0,17.46,17.46,0,0,0,.49-4.7,17.29,17.29,0,0,0-.49-4.77,2.14,2.14,0,0,0-4.11,0,22.23,22.23,0,0,0,0,9.47Z" transform="translate(-2973.18 -2184.38)"/><rect class="cls-2" width="29.12" height="19"/><path class="cls-1" d="M3003.17,2201.8A1.82,1.82,0,1,0,3005,2200a1.83,1.83,0,0,0-1.82,1.82m.21,0a1.61,1.61,0,1,1,1.61,1.61A1.61,1.61,0,0,1,3003.38,2201.8Z" transform="translate(-2973.18 -2184.38)"/><path class="cls-1" d="M3005.87,2203h-.34l-.71-1.09h-.31V2203h-.28v-2.41h.68a.81.81,0,0,1,.54.17.54.54,0,0,1,.2.46.6.6,0,0,1-.15.4.75.75,0,0,1-.39.23l.76,1.15m-1.36-1.34h.35a.52.52,0,0,0,.36-.12.39.39,0,0,0,.14-.3c0-.27-.16-.4-.49-.4h-.36Z" transform="translate(-2973.18 -2184.38)"/><path class="cls-3" d="M2980.5,2199.12a3.6,3.6,0,0,1-3.58-3.74c0-2,1.93-3.52,3.58-4.45,1.64.93,3.58,2.49,3.58,4.45a3.6,3.6,0,0,1-3.58,3.74m11-3.78c0-2,1.93-3.52,3.58-4.45,1.64.93,3.58,2.49,3.58,4.45a3.58,3.58,0,1,1-7.16,0m10.82-8a16.34,16.34,0,0,0-7.36,1.66,16.42,16.42,0,0,0-14.39,0,16.37,16.37,0,0,0-7.36-1.66V2189a14.81,14.81,0,0,1,5.54,1.05c-1.8,1.2-3.58,3-3.58,5.33a5.44,5.44,0,0,0,5.4,5.36,5.33,5.33,0,0,0,5.27-5.36c0-2.3-1.66-4.13-3.45-5.33a14.28,14.28,0,0,1,10.75,0c-1.8,1.2-3.45,3-3.45,5.33a5.33,5.33,0,0,0,5.27,5.36,5.4,5.4,0,0,0,5.36-5.36c0-2.3-1.74-4.13-3.54-5.33a14.81,14.81,0,0,1,5.54-1.05Z" transform="translate(-2973.18 -2184.38)"/></svg>