<svg id="レイヤー_1" data-name="レイヤー 1" xmlns="http://www.w3.org/2000/svg" viewBox="0 0 198.64 19.24"><defs><style>.cls-1{fill:#464646;}.cls-2{fill:#169e3d;}.cls-3{fill:#fff;}</style></defs><path class="cls-1" d="M3019.68,2189.43a17.59,17.59,0,0,1,0,13.61q-1.36,2.39-4.77,2.39c-2.27,0-3.87-.8-4.78-2.39a17.59,17.59,0,0,1,0-13.61c.91-1.59,2.51-2.39,4.78-2.39S3018.77,2187.84,3019.68,2189.43Zm-6.84,11.52a2,2,0,0,0,2.07,1.63,2,2,0,0,0,2-1.63,17.19,17.19,0,0,0,.49-4.71,17,17,0,0,0-.49-4.77,2,2,0,0,0-2-1.54,2,2,0,0,0-2.07,1.54,16.93,16.93,0,0,0-.5,4.77A17.13,17.13,0,0,0,3012.84,2201Z" transform="translate(-2973.01 -2186.71)"/><path class="cls-1" d="M3023.72,2192.69v-2.38a16.78,16.78,0,0,0,2.32-.22,3.3,3.3,0,0,0,1.72-.94,3,3,0,0,0,.68-1.28,3,3,0,0,0,.14-.71h2.92V2205h-3.59v-12.3Z" transform="translate(-2973.01 -2186.71)"/><path class="cls-1" d="M3037.59,2201.48a9.91,9.91,0,0,1,3.54-3.77,26.37,26.37,0,0,0,3.14-2.49,3.64,3.64,0,0,0,1.09-2.55,2.81,2.81,0,0,0-.63-1.88,2.56,2.56,0,0,0-4,.44,6,6,0,0,0-.39,2.19H3037a8.55,8.55,0,0,1,.83-3.68q1.39-2.67,5-2.67a6.36,6.36,0,0,1,4.51,1.57,5.45,5.45,0,0,1,1.67,4.15,5.62,5.62,0,0,1-1.18,3.52,12,12,0,0,1-2.55,2.27l-1.41,1q-1.32.93-1.8,1.35a4,4,0,0,0-.82,1H3049V2205h-12.2A8.31,8.31,0,0,1,3037.59,2201.48Z" transform="translate(-2973.01 -2186.71)"/><path class="cls-1" d="M3061.69,2189.43a17.59,17.59,0,0,1,0,13.61q-1.36,2.39-4.77,2.39c-2.27,0-3.87-.8-4.78-2.39a17.59,17.59,0,0,1,0-13.61c.91-1.59,2.51-2.39,4.78-2.39S3060.78,2187.84,3061.69,2189.43Zm-6.84,11.52a2,2,0,0,0,2.07,1.63,2,2,0,0,0,2-1.63,17.19,17.19,0,0,0,.49-4.71,17,17,0,0,0-.49-4.77,2,2,0,0,0-2-1.54,2,2,0,0,0-2.07,1.54,16.56,16.56,0,0,0-.5,4.77A16.74,16.74,0,0,0,3054.85,2201Z" transform="translate(-2973.01 -2186.71)"/><path class="cls-1" d="M3065.19,2200.41v-4h9.87v4Z" transform="translate(-2973.01 -2186.71)"/><path class="cls-1" d="M3085.5,2191.65a1.78,1.78,0,0,0-.33-1,1.91,1.91,0,0,0-1.71-.84,2.52,2.52,0,0,0-2.43,1.92,12.15,12.15,0,0,0-.54,3.12,4,4,0,0,1,1.51-1.13,5.25,5.25,0,0,1,2-.35,5.09,5.09,0,0,1,3.89,1.61,5.76,5.76,0,0,1,1.52,4.12,7,7,0,0,1-1.49,4.4,5.49,5.49,0,0,1-4.62,1.9,5.33,5.33,0,0,1-5-2.81,11.46,11.46,0,0,1-1.24-5.68,26.78,26.78,0,0,1,.17-3.32,10.25,10.25,0,0,1,1.19-3.79,6.22,6.22,0,0,1,2-2.08,5.44,5.44,0,0,1,3-.78,5.87,5.87,0,0,1,4,1.27,4.89,4.89,0,0,1,1.66,3.39Zm-4.15,10a2.46,2.46,0,0,0,2,.91,2.15,2.15,0,0,0,1.83-.88,3.61,3.61,0,0,0,.67-2.28,3.4,3.4,0,0,0-.76-2.39,2.45,2.45,0,0,0-1.87-.83,2.5,2.5,0,0,0-1.58.54,3.05,3.05,0,0,0-1,2.58A3.49,3.49,0,0,0,3081.35,2201.69Z" transform="translate(-2973.01 -2186.71)"/><path class="cls-1" d="M3094.38,2199.51a4.18,4.18,0,0,0,.34,1.78,2.36,2.36,0,0,0,2.32,1.29,2.57,2.57,0,0,0,1.8-.71,2.64,2.64,0,0,0,.77-2,2.28,2.28,0,0,0-1.43-2.34,6.88,6.88,0,0,0-2.54-.34v-2.5a6.5,6.5,0,0,0,2.37-.34,2,2,0,0,0,1.17-2.09,2.33,2.33,0,0,0-.6-1.66,2.19,2.19,0,0,0-1.67-.63,2.11,2.11,0,0,0-1.82.78,3.33,3.33,0,0,0-.56,2.1h-3.27a8.77,8.77,0,0,1,.45-2.52,5.84,5.84,0,0,1,1.35-1.93,4.84,4.84,0,0,1,1.64-1,6.8,6.8,0,0,1,2.32-.34,6.19,6.19,0,0,1,4.12,1.32,4.43,4.43,0,0,1,1.56,3.55,3.94,3.94,0,0,1-.93,2.66,3.1,3.1,0,0,1-1.23.92,2.52,2.52,0,0,1,1.38.82,4.42,4.42,0,0,1,1.34,3.4,5.69,5.69,0,0,1-1.57,4,5.93,5.93,0,0,1-4.63,1.72c-2.53,0-4.28-.83-5.26-2.47a7.36,7.36,0,0,1-.86-3.45Z" transform="translate(-2973.01 -2186.71)"/><path class="cls-1" d="M3117.44,2201.15h-2V2205H3112v-3.84h-7.06v-3.06l6.55-10.82h3.94v11.14h2Zm-5.44-2.74v-7.68l-4.45,7.68Z" transform="translate(-2973.01 -2186.71)"/><path class="cls-1" d="M3119.49,2200.41v-4h9.87v4Z" transform="translate(-2973.01 -2186.71)"/><path class="cls-1" d="M3134.67,2199.51a4,4,0,0,0,.35,1.78,2.34,2.34,0,0,0,2.32,1.29,2.57,2.57,0,0,0,1.79-.71,2.64,2.64,0,0,0,.77-2,2.29,2.29,0,0,0-1.42-2.34,7,7,0,0,0-2.55-.34v-2.5a6.46,6.46,0,0,0,2.37-.34,2,2,0,0,0,1.17-2.09,2.33,2.33,0,0,0-.6-1.66,2.17,2.17,0,0,0-1.67-.63,2.12,2.12,0,0,0-1.82.78,3.33,3.33,0,0,0-.56,2.1h-3.27a8.78,8.78,0,0,1,.46-2.52,5.56,5.56,0,0,1,1.35-1.93,4.7,4.7,0,0,1,1.63-1,6.8,6.8,0,0,1,2.32-.34,6.18,6.18,0,0,1,4.12,1.32,4.44,4.44,0,0,1,1.57,3.55,3.9,3.9,0,0,1-.94,2.66,3.1,3.1,0,0,1-1.23.92,2.52,2.52,0,0,1,1.38.82,4.42,4.42,0,0,1,1.34,3.4,5.69,5.69,0,0,1-1.57,4,5.93,5.93,0,0,1-4.63,1.72c-2.52,0-4.28-.83-5.26-2.47a7.48,7.48,0,0,1-.86-3.45Z" transform="translate(-2973.01 -2186.71)"/><path class="cls-1" d="M3156.28,2189.43a17.59,17.59,0,0,1,0,13.61c-.91,1.59-2.51,2.39-4.78,2.39s-3.86-.8-4.77-2.39a17.59,17.59,0,0,1,0-13.61q1.36-2.38,4.77-2.39C3153.77,2187,3155.37,2187.84,3156.28,2189.43Zm-6.84,11.52a2.11,2.11,0,0,0,4.11,0,17.19,17.19,0,0,0,.49-4.71,17,17,0,0,0-.49-4.77,2.14,2.14,0,0,0-4.11,0,16.49,16.49,0,0,0-.51,4.77A16.68,16.68,0,0,0,3149.44,2201Z" transform="translate(-2973.01 -2186.71)"/><path class="cls-1" d="M3170.28,2189.43a17.59,17.59,0,0,1,0,13.61q-1.37,2.39-4.77,2.39c-2.27,0-3.87-.8-4.78-2.39a17.59,17.59,0,0,1,0-13.61c.91-1.59,2.51-2.39,4.78-2.39S3169.37,2187.84,3170.28,2189.43Zm-6.84,11.52a2,2,0,0,0,2.07,1.63,2,2,0,0,0,2-1.63,17.19,17.19,0,0,0,.49-4.71,17,17,0,0,0-.49-4.77,2,2,0,0,0-2-1.54,2,2,0,0,0-2.07,1.54,16.93,16.93,0,0,0-.5,4.77A17.13,17.13,0,0,0,3163.44,2201Z" transform="translate(-2973.01 -2186.71)"/><rect class="cls-2" width="29.12" height="19"/><path class="cls-1" d="M3003,2204.13a1.82,1.82,0,1,0,1.82-1.82,1.82,1.82,0,0,0-1.82,1.82m.22,0a1.61,1.61,0,1,1,1.6,1.61A1.61,1.61,0,0,1,3003.22,2204.13Z" transform="translate(-2973.01 -2186.71)"/><path class="cls-1" d="M3005.71,2205.31h-.35l-.71-1.09h-.31v1.09h-.28v-2.4h.68a.81.81,0,0,1,.54.16.56.56,0,0,1,.2.47.62.62,0,0,1-.14.39.76.76,0,0,1-.4.23l.77,1.15m-1.37-1.33h.36a.5.5,0,0,0,.36-.13.37.37,0,0,0,.13-.3c0-.27-.16-.4-.49-.4h-.36Z" transform="translate(-2973.01 -2186.71)"/><path class="cls-3" d="M2980.33,2201.45a3.6,3.6,0,0,1-3.58-3.74c0-1.95,1.93-3.51,3.58-4.45,1.64.94,3.58,2.5,3.58,4.45a3.6,3.6,0,0,1-3.58,3.74m11-3.78c0-2,1.93-3.52,3.58-4.45,1.64.93,3.58,2.5,3.58,4.45a3.58,3.58,0,1,1-7.16,0m10.82-8a16.32,16.32,0,0,0-7.35,1.67,16.36,16.36,0,0,0-14.4,0,16.33,16.33,0,0,0-7.36-1.67v1.67a14.8,14.8,0,0,1,5.54,1c-1.8,1.21-3.58,3-3.58,5.33a5.44,5.44,0,0,0,5.4,5.36,5.33,5.33,0,0,0,5.27-5.36c0-2.3-1.65-4.12-3.45-5.33a14.41,14.41,0,0,1,10.75,0c-1.79,1.21-3.45,3-3.45,5.33a5.34,5.34,0,0,0,5.28,5.36,5.4,5.4,0,0,0,5.36-5.36c0-2.3-1.75-4.12-3.55-5.33a14.83,14.83,0,0,1,5.54-1Z" transform="translate(-2973.01 -2186.71)"/></svg>