<svg id="レイヤー_1" data-name="レイヤー 1" xmlns="http://www.w3.org/2000/svg" viewBox="0 0 215.66 18.59"><defs><style>.cls-1{fill:#464646;}</style></defs><path class="cls-1" d="M2979.28,2197.57v3.21h-5.42v14.91h-3.81v-14.91h-5.45v-3.21Z" transform="translate(-2964.6 -2197.57)"/><path class="cls-1" d="M2994.89,2200.78h-9.59v3.85h8.81v3.14h-8.81v4.66h10v3.26H2981.6v-18.12h13.29Z" transform="translate(-2964.6 -2197.57)"/><path class="cls-1" d="M2998.29,2197.57h3.78v14.86h9v3.26h-12.83Z" transform="translate(-2964.6 -2197.57)"/><path class="cls-1" d="M3014.6,2202.81h3.73v3.67h-3.73Zm0,9.2h3.73v3.68h-3.73Z" transform="translate(-2964.6 -2197.57)"/><path class="cls-1" d="M3031.84,2200.14a17.59,17.59,0,0,1,0,13.61q-1.37,2.39-4.77,2.38c-2.27,0-3.87-.79-4.78-2.38a17.59,17.59,0,0,1,0-13.61c.91-1.6,2.51-2.4,4.78-2.4S3030.93,2198.54,3031.84,2200.14Zm-6.84,11.51a2,2,0,0,0,2.07,1.63,2,2,0,0,0,2-1.63,23.12,23.12,0,0,0,0-9.47,2,2,0,0,0-2-1.55,2,2,0,0,0-2.07,1.55,22.67,22.67,0,0,0,0,9.47Z" transform="translate(-2964.6 -2197.57)"/><path class="cls-1" d="M3047.3,2211.85h-2v3.84h-3.43v-3.84h-7.06v-3.06l6.55-10.82h3.94v11.14h2Zm-5.44-2.74v-7.68l-4.45,7.68Z" transform="translate(-2964.6 -2197.57)"/><path class="cls-1" d="M3049.75,2212.19a9.92,9.92,0,0,1,3.54-3.78,25.6,25.6,0,0,0,3.14-2.48,3.66,3.66,0,0,0,1.09-2.56,2.83,2.83,0,0,0-.63-1.88,2.56,2.56,0,0,0-4,.44,6,6,0,0,0-.39,2.19h-3.41a8.5,8.5,0,0,1,.83-3.67q1.4-2.67,5-2.67a6.32,6.32,0,0,1,4.51,1.57,5.41,5.41,0,0,1,1.67,4.14,5.6,5.6,0,0,1-1.18,3.52,11.75,11.75,0,0,1-2.55,2.27l-1.41,1q-1.32.93-1.8,1.35a4.22,4.22,0,0,0-.82,1h7.78v3.09h-12.2A8.23,8.23,0,0,1,3049.75,2212.19Z" transform="translate(-2964.6 -2197.57)"/><path class="cls-1" d="M3063.35,2211.11v-4h9.87v4Z" transform="translate(-2964.6 -2197.57)"/><path class="cls-1" d="M3078.54,2210.22a4,4,0,0,0,.34,1.77,2.35,2.35,0,0,0,2.32,1.29,2.57,2.57,0,0,0,1.79-.71,2.63,2.63,0,0,0,.77-2,2.29,2.29,0,0,0-1.42-2.35,7.24,7.24,0,0,0-2.55-.33v-2.51a6.85,6.85,0,0,0,2.38-.33,2.06,2.06,0,0,0,1.16-2.09,2.37,2.37,0,0,0-.59-1.66,2.18,2.18,0,0,0-1.68-.64,2.11,2.11,0,0,0-1.82.79,3.35,3.35,0,0,0-.56,2.1h-3.27a9,9,0,0,1,.46-2.52,5.47,5.47,0,0,1,1.35-1.93,4.66,4.66,0,0,1,1.63-1,7.12,7.12,0,0,1,2.32-.33,6.16,6.16,0,0,1,4.12,1.32,4.38,4.38,0,0,1,1.57,3.55,3.87,3.87,0,0,1-.94,2.65,3.1,3.1,0,0,1-1.23.92,2.56,2.56,0,0,1,1.38.83,4.41,4.41,0,0,1,1.34,3.39,5.75,5.75,0,0,1-1.56,4,6,6,0,0,1-4.64,1.71c-2.52,0-4.28-.82-5.26-2.47a7.44,7.44,0,0,1-.86-3.44Z" transform="translate(-2964.6 -2197.57)"/><path class="cls-1" d="M3089.77,2208a4.37,4.37,0,0,1,2-1.83,4.23,4.23,0,0,1-1.69-1.86,5.42,5.42,0,0,1-.38-1.88,4.35,4.35,0,0,1,1.46-3.31,6.94,6.94,0,0,1,8.28,0,4.36,4.36,0,0,1,1.47,3.31,5.23,5.23,0,0,1-.39,1.88,3.66,3.66,0,0,1-1.68,1.74,4.92,4.92,0,0,1,2,2,5.51,5.51,0,0,1,.67,2.72,5.1,5.1,0,0,1-1.67,3.83,6.51,6.51,0,0,1-4.66,1.58,6.07,6.07,0,0,1-4.53-1.58,5.31,5.31,0,0,1-1.53-3.83A5.51,5.51,0,0,1,3089.77,2208Zm3.65,4.53a2.83,2.83,0,0,0,3.77,0,3.44,3.44,0,0,0,0-4.12,2.86,2.86,0,0,0-3.75,0,3.4,3.4,0,0,0,0,4.12Zm.22-8.12a2.24,2.24,0,0,0,3.9-1.58,2.27,2.27,0,0,0-.58-1.66,2.26,2.26,0,0,0-3.92,1.66A2.17,2.17,0,0,0,3093.64,2204.44Z" transform="translate(-2964.6 -2197.57)"/><path class="cls-1" d="M3115.71,2200.84a27.47,27.47,0,0,0-4.54,6.86,24.31,24.31,0,0,0-1.36,4.06,16.85,16.85,0,0,0-.6,3.93h-3.64a21.47,21.47,0,0,1,3.15-10,23.85,23.85,0,0,1,3.24-4.48h-8.89l0-3.14h12.59Z" transform="translate(-2964.6 -2197.57)"/><path class="cls-1" d="M3117.65,2211.11v-4h9.87v4Z" transform="translate(-2964.6 -2197.57)"/><path class="cls-1" d="M3141.89,2211.85h-2v3.84h-3.43v-3.84h-7.06v-3.06l6.55-10.82h3.94v11.14h2Zm-5.44-2.74v-7.68l-4.45,7.68Z" transform="translate(-2964.6 -2197.57)"/><path class="cls-1" d="M3144.07,2208a4.29,4.29,0,0,1,2-1.83,4.2,4.2,0,0,1-1.68-1.86,5.23,5.23,0,0,1-.39-1.88,4.36,4.36,0,0,1,1.47-3.31,6.94,6.94,0,0,1,8.28,0,4.39,4.39,0,0,1,1.46,3.31,5.42,5.42,0,0,1-.38,1.88,3.66,3.66,0,0,1-1.68,1.74,5,5,0,0,1,2,2,5.61,5.61,0,0,1,.66,2.72,5.09,5.09,0,0,1-1.66,3.83,6.54,6.54,0,0,1-4.66,1.58,6,6,0,0,1-4.53-1.58,5.28,5.28,0,0,1-1.54-3.83A5.52,5.52,0,0,1,3144.07,2208Zm3.64,4.53a2.84,2.84,0,0,0,3.78,0,2.91,2.91,0,0,0,.68-2,2.8,2.8,0,0,0-.7-2.07,2.49,2.49,0,0,0-1.87-.7,2.53,2.53,0,0,0-1.88.7,2.84,2.84,0,0,0-.69,2.07A2.91,2.91,0,0,0,3147.71,2212.56Zm.23-8.12a2.25,2.25,0,0,0,3.9-1.58,2.27,2.27,0,0,0-.59-1.66,2.62,2.62,0,0,0-3.31,0,2.24,2.24,0,0,0-.6,1.66A2.17,2.17,0,0,0,3147.94,2204.44Z" transform="translate(-2964.6 -2197.57)"/><path class="cls-1" d="M3169.9,2211.85h-2v3.84h-3.43v-3.84h-7.06v-3.06L3164,2198h3.93v11.14h2Zm-5.45-2.74v-7.68l-4.45,7.68Z" transform="translate(-2964.6 -2197.57)"/><path class="cls-1" d="M3172.48,2203.4V2201a15.46,15.46,0,0,0,2.32-.22,3.33,3.33,0,0,0,1.71-.93,3.08,3.08,0,0,0,.69-1.28,3,3,0,0,0,.14-.72h2.92v17.83h-3.59V2203.4Z" transform="translate(-2964.6 -2197.57)"/></svg>