<svg id="レイヤー_1" data-name="レイヤー 1" xmlns="http://www.w3.org/2000/svg" viewBox="0 0 53.49 48.37"><defs><style>.cls-1{fill:#464646;}.cls-2{fill:#b6719e;}.cls-3{fill:#ab93b9;}.cls-4{fill:#999dc2;}.cls-5{fill:#5e97c4;}.cls-6{fill:#1a91c7;}.cls-7{fill:#188aca;}.cls-8{fill:#bf4b87;}.cls-9{fill:#c71970;}.cls-10{fill:#cd4a83;}.cls-11{fill:#d6709a;}</style></defs><path class="cls-1" d="M2938.26,2202.71l.29,0,.17,0,.13.07.3,0,.17.1.22.05a1.61,1.61,0,0,1,.33.23l.21.13.05.08.09,0v.07l.09.09.09.15.2.24a1.19,1.19,0,0,1,.11.67l-.11.05-.12,0-.09.1h0c-.07-.09-.14-.06-.23-.11a1.37,1.37,0,0,0-.18-.49,1.79,1.79,0,0,0-1.08-.89h-.16a1,1,0,0,0-.36,0h-.25a2.81,2.81,0,0,0-.59.12c-.06,0-.1.12-.16.14s-.11,0-.14,0l-.07.11c-.22,0-.19.09-.3.25l-.2.13c-.08.12-.1.27-.18.39l-.09.16,0,.11-.11.12v.18c0,.07,0,.14,0,.22l0,.1,0,.25,0,.14-.05.11a2.22,2.22,0,0,0,.05.53v.11l.06.11,0,.12.07.08,0,.16.12.23,0,.15.09.14,0,.13.1.08c.11.11.17.24.29.34l.17.14.05.09h.15a.71.71,0,0,1,.18.12,1.06,1.06,0,0,0,.33.09c.16,0,.31.11.44,0s.07,0,.11.06a2,2,0,0,0,.6-.11,2,2,0,0,0,1.11-1.09l.15-.47c0-.09,0-.21.05-.27h0c.05,0,.14,0,.2,0h.26a.17.17,0,0,1,.09.08,2.51,2.51,0,0,1-.18.66,3.41,3.41,0,0,1-.18.48c0,.06-.07.09-.1.14l0,.11-.14.1-.18.29c-.06,0-.13.06-.2.11l-.08.09-.16.07s0,.1-.11.12-.12,0-.21.05h-.12l-.08.06h-.18l-.23.1c-.06,0-.11,0-.15,0h-.18l-.21,0-.21,0a2.25,2.25,0,0,1-.24-.08h-.18l-.26-.14-.16,0-.11-.1a3,3,0,0,1-.35-.23l-.09,0-.06-.1-.14-.09a3.23,3.23,0,0,1-.62-1.09,3.43,3.43,0,0,1-.11-.59l-.07-.22,0-.19a3.54,3.54,0,0,1,0-.56l.06-.28v-.19l.08-.18v-.2a3.16,3.16,0,0,1,.62-1.09,1.47,1.47,0,0,1,.43-.35l.32-.25.23-.08.13-.08c.11,0,.18,0,.29-.05l.1-.05C2938,2202.7,2938.14,2202.78,2938.26,2202.71Zm29.16.06c.09,0,.1,0,.16.05s.2,0,.31,0l.13,0c.12,0,.22,0,.33.06a2.49,2.49,0,0,1,.59.29l.11.11a.49.49,0,0,1,.15.1c.08.12.15.22.22.34l.12.17v.11a1,1,0,0,1,.08.59,1.82,1.82,0,0,1-.3.11s0-.06-.11-.05a.35.35,0,0,1-.11,0,.11.11,0,0,1-.07-.06c0-.07,0-.29-.05-.39l-.1-.17,0-.12c0-.07-.14-.12-.18-.18s0-.06,0-.08a1.93,1.93,0,0,0-.5-.24c-.05,0-.1-.08-.17-.1l-.41-.07-.18,0c-.06,0-.13-.05-.2,0l-.25.1c-.08,0-.16,0-.23,0s-.08.1-.13.12l-.14,0-.23.22h0a1,1,0,0,0-.11.27l-.09.12a1,1,0,0,0,0,.43s0,.08.05.12v.15l.1.12a2,2,0,0,0,1,.51h.22l.18.08.16,0,.1,0c.07,0,.14.07.22.09a1.62,1.62,0,0,0,.21,0s.06.07.1.08l.28.06a1.42,1.42,0,0,1,.25.12l.32.13.16.15a.91.91,0,0,1,.23.15l.06.17a2.15,2.15,0,0,1,.21.4l0,.13,0,.18v.24c0,.13,0,.17-.05.27v.18c0,.05-.08.06-.1.1s0,.14-.08.19a1.93,1.93,0,0,1-.43.47l-.16.06s0,.08-.07.11l-.32.05-.13.07h-.14c-.09,0-.22.06-.31.08h0l-.11,0-.2,0s-.07,0-.12,0a2.41,2.41,0,0,1-1.23-.18,1.57,1.57,0,0,1-.38-.14c-.06,0-.09-.12-.16-.17s-.18-.07-.24-.16l-.13-.21-.13-.12,0-.15-.07-.1c0-.1,0-.21,0-.33s0-.07,0-.2-.06-.24,0-.33.13,0,.23,0l.08,0s.05,0,.1,0,.05,0,.11-.05a1.42,1.42,0,0,1,.14.36c0,.08,0,.15,0,.23l.09.16a1,1,0,0,0,.36.57,2.12,2.12,0,0,0,.61.28s.1,0,.15,0l.23.08h.22l.09,0,.1-.07c.06,0,.07,0,.11.06l.25,0a1.66,1.66,0,0,0,.94-.5,1.71,1.71,0,0,0,.18-.2,1.15,1.15,0,0,0,.11-.61.93.93,0,0,0-.21-.42l-.09-.14-.24-.11-.11-.11h-.15l-.09-.08h-.11l-.07,0-.14,0-.11-.05-.29-.06-.47-.13H2967l-.11-.05h-.12c-.09,0-.21-.1-.29-.13l-.17,0a3.29,3.29,0,0,1-.56-.29,2.11,2.11,0,0,1-.2-.29,1.37,1.37,0,0,1-.15-1.1V2204l.06-.07s0-.13.06-.19l.07-.1.08-.19.23-.17.12-.17.15,0c.13,0,.26-.15.37-.2h.19l.23-.07h.13l.14,0C2967.3,2202.77,2967.37,2202.79,2967.42,2202.77Zm-44.63,0,.21,0,.15,0a.21.21,0,0,0,.12,0c.06,0,.1,0,.18,0a1.33,1.33,0,0,0,.53,0,.29.29,0,0,1,.14,0,1.71,1.71,0,0,0,.51,0l.2,0a3.45,3.45,0,0,1,.85,0l.34,0,.15,0s0,0,.08,0l.09.05.14,0,.17,0a3.18,3.18,0,0,1,.69,0c.14.1.14.22.09.39s0,.1,0,.12h-.12l-.15,0h0l-.08,0-.41,0c-.06,0-.07.06-.14.06s-.14,0-.27,0l-.16,0a.93.93,0,0,0-.46.07c-.05,0-.11-.08-.18,0l0,0v.15a1.52,1.52,0,0,0,0,.52v.28c0,.19-.07.34,0,.55l0,.18a2.5,2.5,0,0,0,0,.55l0,.44a2.28,2.28,0,0,0,0,.69.9.9,0,0,1,0,.25,1.33,1.33,0,0,0,0,.45v.3c0,.09-.05.17,0,.28s.08.78-.08.91c0,0-.05-.06-.09-.07l-.14,0a.43.43,0,0,1-.29-.12,3,3,0,0,0,0-.42,3.76,3.76,0,0,1,0-.47c0-.1-.05-.2,0-.26a1.65,1.65,0,0,0,0-.56,2,2,0,0,1,0-.34,1.77,1.77,0,0,0,0-.52l0-.14a3.83,3.83,0,0,0,0-.61v-.12l-.05-.13,0-.13v-.15a4.69,4.69,0,0,0,0-.53l0-.13a1.47,1.47,0,0,0,0-.59c0-.1.08-.16,0-.23s-.27,0-.46-.09c0,0-.08-.05-.15,0s-.08.09-.13.08l-.1-.07c-.08,0-.08.06-.15,0l-.15-.06c-.08,0-.13,0-.18.05s-.11-.13-.28,0l-.11-.06c-.12,0-.3,0-.35-.06a.44.44,0,0,1,0-.16C2922.74,2202.92,2922.61,2202.9,2922.79,2202.78Zm20.82,0h0c0,.06.11.09.12.15a1.17,1.17,0,0,1,0,.42c0,.05,0,.08,0,.11l0,.09c0,.11,0,.22,0,.33a4.73,4.73,0,0,0,0,.75c.05.28-.06.55,0,.8a1,1,0,0,0,.53,0s.06,0,.12-.05a.87.87,0,0,0,.5.07l.18,0c.06,0,.13,0,.19,0a1.83,1.83,0,0,0,.53,0s.09-.06.16,0a1.67,1.67,0,0,0,.86,0,.66.66,0,0,0,.41.07c.07,0,0-.33,0-.43s0-.25,0-.38v-.13s0-.07,0-.12a9.58,9.58,0,0,1,0-1.56l.09,0,.14,0c.13,0,.28-.06.36.05s0,.23,0,.34,0,.46,0,.67l0,.45a3.14,3.14,0,0,0,0,.81c0,.17,0,.36,0,.55v.41a.79.79,0,0,0,0,.23,2.44,2.44,0,0,1,0,.81s0,.08,0,.11a1.86,1.86,0,0,1,0,.54l0,.17a4.6,4.6,0,0,1,0,.83l-.11.07c-.06,0-.11,0-.14,0a.54.54,0,0,0-.23,0h0l0,0a.38.38,0,0,1-.06-.22l0-.11c0-.05-.06-.06-.07-.13s0-.48,0-.65l0-.14,0-.12,0-.09c0-.11,0-.24,0-.34s-.05-.16,0-.25l0-.08a2.81,2.81,0,0,0,0-.5c0-.08,0-.1,0-.19s-.33-.08-.53-.11-.14.08-.23.06l-.12,0-.12,0a1.07,1.07,0,0,0-.46-.06l-.2.08-.09-.07-.16,0c-.07,0-.17-.07-.27-.05a.4.4,0,0,1-.13,0l-.13,0s-.06.06-.12.07a.63.63,0,0,0-.61,0c-.06,0-.06,0-.1-.05a1.9,1.9,0,0,0-.25,0l0,1.11,0,.59a1.88,1.88,0,0,1,0,.58c0,.2.09.42,0,.58a.47.47,0,0,1-.17,0,.31.31,0,0,0-.17,0c-.06,0-.08.06-.17,0a.47.47,0,0,1-.09-.26v-.14c0-.07-.07-.21,0-.3l0-.08s0-.08,0-.11l0-.13v-.71a2.33,2.33,0,0,1,0-.59c0-.06,0-.1,0-.15s0-.09,0-.17,0-.28,0-.39v-.13a3.69,3.69,0,0,0,0-1.1l0-.22v-.12c0-.1,0-.18,0-.27l0-.21c0-.16,0-.34,0-.48a.35.35,0,0,1,0-.11.83.83,0,0,0,0-.32c.13-.18.31,0,.42-.06A.27.27,0,0,0,2943.61,2202.79Zm-14.08,0,.13,0c.06,0,.09,0,.13,0a2.91,2.91,0,0,1,.42,0l.11,0,.18,0a2,2,0,0,0,.35,0,2.64,2.64,0,0,1,.63,0l.29,0a1.83,1.83,0,0,1,.35,0,.21.21,0,0,0,.12,0l.15,0h.3s.09,0,.16,0l.07,0,.18,0,.36,0c.08,0,.13.33.08.46l-.08.08-.2,0s-.06,0-.11,0-.06,0-.11,0-.06.06-.14.06l-.1-.06h0l-.13,0-.27,0s-.08.06-.14,0-.06,0-.13,0l-.08.07c-.06,0-.08,0-.13,0l-.41,0-.12.07c-.06,0-.08,0-.13,0s-.07,0-.1,0-.08,0-.12,0-.21,0-.31,0l-.13,0c-.07,0-.08.07-.16.08l-.07-.08c-.12,0-.26,0-.39,0h0c0,.07.06.11.05.18a2.73,2.73,0,0,0-.05.5,1.7,1.7,0,0,1,0,.46,1.75,1.75,0,0,0,0,.56c0,.18-.07.37,0,.47l.37,0c.2,0,.44,0,.65,0l.13,0a3.21,3.21,0,0,1,.62,0l.11,0h.12c.14,0,.27,0,.41,0a1,1,0,0,0,.35,0,1.78,1.78,0,0,1,.47.05h.06c.07,0,0,.39,0,.45a.24.24,0,0,0-.12.07c-.08,0-.1,0-.16-.05l-.35,0a4.77,4.77,0,0,0-1.07,0l-.14-.05-.12,0-.09,0a1.55,1.55,0,0,0-.31,0,.17.17,0,0,1-.13,0l-.14,0-.1-.05-.07,0-.12,0-.1,0a2.35,2.35,0,0,0-.27,0l-.06.07,0,.13c0,.1-.05.16,0,.25l.05.12v.29l0,.16v.24l0,.1c0,.06.07.12.05.2l0,.07v.19a.52.52,0,0,0,0,.18l0,.18s0,.07,0,.14l0,0h.35l.07-.07c.07,0,.1.1.21.08s.32,0,.45,0l.15,0c.05,0,.06-.05.13-.05l.1.06a2.8,2.8,0,0,0,.41,0l.13,0,.1,0c.06,0,.09,0,.13,0l.16,0h.26c.12,0,.18-.08.27-.06l.1.06c.13,0,.47,0,.56,0a1.69,1.69,0,0,1,0,.38.44.44,0,0,1-.13.14l-.13,0-.08.05c-.07,0-.09,0-.13-.05h-.43c-.06,0-.07.07-.15,0s-.07,0-.15,0l-.12,0-.22-.06-.11,0-.15,0-.11.06c-.08,0-.11-.08-.2-.07l-.12,0-.24,0-.12.05s-.07-.06-.13,0-.06,0-.12.06l-.09-.06h-.42l-.1.06h0c-.06,0-.08,0-.11,0a.18.18,0,0,0-.13,0,.29.29,0,0,1-.14,0c-.13,0-.29,0-.36-.06s0-.14,0-.24l-.05-.13,0-.13v-.44a1.28,1.28,0,0,1,0-.4,1.33,1.33,0,0,0,0-.41.77.77,0,0,1,0-.27,1.94,1.94,0,0,0,0-.64l0-.14c0-.07,0-.13,0-.18s0-.23,0-.34l0-.22c0-.23,0-.45,0-.66l0-.17,0-.17c0-.15,0-.3,0-.46s0-.25,0-.32a2.68,2.68,0,0,0,.05-.42.76.76,0,0,1,0-.15Zm21,.06a.67.67,0,0,1,.2,0l.09,0c.06,0,.08,0,.11,0l.19,0c0,.11.14.13.21.22s0,.11,0,.17a2.19,2.19,0,0,0,.25.37l.08.06.11.22c.08.11.19.23.27.35s.14.28.23.41l.11.08.06.16c0,.06.15.17.2.23l.07,0,0,.12c0,.09.11.18.16.27l.1.09c.13.19.25.38.37.58l.1.09,0,.12a2.61,2.61,0,0,0,.27.31,3.41,3.41,0,0,1,.21.38c0,.05.09.06.13.1l0,.11.11.14a1.26,1.26,0,0,0,.23.39l.05,0a.52.52,0,0,0,0-.22l0-.13a4.46,4.46,0,0,0,0-.5,3.49,3.49,0,0,1,0-.86c0-.08-.08-.09-.06-.16l.05-.1v-.2c0-.14,0-.31,0-.45s0-.09,0-.14,0-.06,0-.12a.94.94,0,0,1,0-.25l0-.16-.06-.09,0-.19a3.17,3.17,0,0,1,0-.53v-.11l-.06-.12c.13-.13,0-.52.09-.68a.58.58,0,0,1,.19,0c.11,0,.26-.07.31,0s0,.24,0,.38l0,.37a1.91,1.91,0,0,0,0,.42,4.84,4.84,0,0,1,0,.66,4.27,4.27,0,0,1,0,.62c-.06.31,0,.61,0,.86a1.35,1.35,0,0,0,0,.46l0,.34c0,.25,0,.53,0,.73s.12,1-.1,1.15c-.07,0-.22,0-.31,0s-.07.05-.11.07h-.06c-.18-.09-.26-.31-.36-.47l-.15-.16c-.11-.2-.23-.4-.36-.59l-.13-.12,0-.11c-.07-.11-.18-.22-.25-.32s-.12-.27-.2-.39l-.19-.24-.12-.09-.05-.17-.19-.22-.27-.43-.12-.08,0-.13-.11-.11-.07-.16-.11-.13-.06-.13-.12-.11,0-.13c-.06-.09-.16-.16-.22-.25l0-.11a1.78,1.78,0,0,0-.27-.42s0,0-.07,0a2.61,2.61,0,0,0,0,.8l0,.17v.19a.66.66,0,0,0,0,.21,1.17,1.17,0,0,1,0,.38l0,.12a2.29,2.29,0,0,0,0,.37c0,.06.06.11,0,.2a2.4,2.4,0,0,0,0,.8c0,.07,0,.12,0,.17a1.93,1.93,0,0,0,0,.54c0,.08.07.15.05.26s-.08.13-.06.24l0,.22.06.2c-.08.17-.19,0-.33.08s-.14.1-.29,0a3.06,3.06,0,0,1,0-.67c0-.1-.06-.13-.06-.2l.06-.1c0-.15,0-.29,0-.44a.38.38,0,0,1,0-.16,1.66,1.66,0,0,0,0-.86l.06-.13v-.19l0-.18a2.81,2.81,0,0,0,0-.29l0-.1a2.28,2.28,0,0,0,0-.53l0-.1s0-.07,0-.1a1.61,1.61,0,0,0,0-.31v-.35l0-.16,0-.11c.07-.38-.1-.79,0-1Zm-24.9,9.91c.15,0,.34,0,.48,0l.19,0,.1.07a.6.6,0,0,0,.36.06c.08.08.11.06.21.12l.64.36c0,.18.17.26.29.32,0,.24.19.37.26.57l0,.17c0,.1.09.27,0,.31a.82.82,0,0,1-.54,0l-.07-.25-.12-.26-.09-.1-.06-.12-.19-.23H2927l-.06-.09c-.08-.06-.17-.08-.25-.13l-.09-.08h-.14a3,3,0,0,0-.36-.15.16.16,0,0,1-.12.06l-.12-.07c-.05,0-.08,0-.11,0s-.17,0-.28,0l-.14.06a2.61,2.61,0,0,0-.32.06l-.14.1c-.09,0-.23,0-.27.1v.12s-.1,0-.13,0a.68.68,0,0,0-.2.24l-.15.1-.06.11-.07.05v.1c0,.07,0,.14-.07.22a2.38,2.38,0,0,0-.2.39c0,.15-.05.37-.08.52v.14a1,1,0,0,0,0,.35c0,.06,0,.15.06.22s0,.13,0,.19a1.59,1.59,0,0,0,0,.29,3.72,3.72,0,0,0,.16.44v.14a1.92,1.92,0,0,0,.18.22l.05.17.07.07.05.12.09,0c0,.06,0,.12.11.17a1.57,1.57,0,0,0,.26.12l.12.14a2.91,2.91,0,0,0,.82.25c.12,0,.19,0,.28,0a1.49,1.49,0,0,0,.42,0l.14-.08c.07,0,.12,0,.17,0s0-.08.08-.11c.19,0,.24-.11.36-.19a.79.79,0,0,0,.26-.31,5.55,5.55,0,0,0,.29-.48c0-.05,0-.11,0-.19s.07-.28.09-.42c.2-.14.69-.17.6.24l0,.11-.05.3-.09.16a2.88,2.88,0,0,1-.34.68,1.2,1.2,0,0,1-.21.17l-.1.15a1.19,1.19,0,0,1-.23.16l-.13,0-.08.09-.25.07-.09.07-.17,0-.07.07-.13,0-.11.05c-.09,0-.2-.05-.31,0s-.27.06-.38.07-.24,0-.39-.09l-.45-.14-.2-.13c-.06,0-.13,0-.18,0s-.23-.21-.35-.29l-.06-.1-.1-.07a1,1,0,0,1-.23-.34l-.11-.11,0-.13c0-.06-.09-.09-.12-.16l0-.13-.13-.18V2217l-.08-.2a2.64,2.64,0,0,1,0-1c0-.19-.07-.35,0-.53l0-.06,0-.21.05-.09a1.6,1.6,0,0,1,.07-.33l.07-.09.07-.22a3.38,3.38,0,0,0,.32-.53c.14-.05.17-.18.27-.26l.32-.23.09-.09.12,0,.12-.08.17,0,.19-.1.24,0,.2-.07C2925.49,2212.77,2925.57,2212.8,2925.64,2212.77Zm34.63.09a2.4,2.4,0,0,1,2.34,1.2,2.75,2.75,0,0,0,.19.28s0,.09,0,.15.13.26,0,.43c-.08,0-.1,0-.16,0s-.22.07-.31,0-.1-.29-.16-.44-.11-.17-.16-.25-.09-.09-.15-.14l-.06-.1-.18-.15-.1,0s0-.06-.06-.1l-.22-.14-.3-.06-.12-.07h-.3l-.12,0-.12.09a.85.85,0,0,0-.68.06l-.2,0-.11.1-.15.07-.06.09-.11,0-.05.1c-.15.19-.37.32-.46.57l0,.18-.14.27v.18a1.39,1.39,0,0,0-.12.28l0,.14,0,.11v.2c0,.06,0,.12,0,.16s.07.13.06.23a.9.9,0,0,0,.05.47v.14a1.58,1.58,0,0,0,.06.26,1.51,1.51,0,0,0,.15.28l.08.08.06.22.14.21.34.31.09,0,.09.1c.05,0,.14,0,.18,0s.22.16.36.19a.53.53,0,0,0,.26,0l.1,0,.15.05a1.46,1.46,0,0,0,.43,0h.21a2.75,2.75,0,0,0,.63-.28l.17-.15.16-.09,0-.16c.07-.09.19-.13.25-.25l.09-.2v-.11a3.69,3.69,0,0,0,.15-.53v-.16a.37.37,0,0,0,0-.15c-.09-.06-.12-.05-.23,0s-.11,0-.15,0h-.24c-.12,0-.18.05-.3,0l-.15,0-.13,0a.37.37,0,0,0-.19,0l-.49,0a.26.26,0,0,1-.14-.09v-.11c0-.15,0-.29.07-.36s.23.05.34,0a.53.53,0,0,0,.15-.08l.09.06.16,0,.14,0,.19,0a.3.3,0,0,1,.14,0c.09,0,.12-.09.2-.06l.1.05.11,0,.14,0a1,1,0,0,0,.26,0l.16,0c.06,0,.05-.07.14-.07l.18.12c0,.18,0,.35,0,.53l0,.23a3.58,3.58,0,0,0-.06.37.78.78,0,0,0,.05.24,1.11,1.11,0,0,1,0,.42c0,.24.06.42,0,.62a3.85,3.85,0,0,0,0,.48c0,.16-.29.2-.43.12a1.92,1.92,0,0,1,0-.24,1.62,1.62,0,0,1-.05-.46l0-.18a.23.23,0,0,0-.09-.11s0,0-.06,0l-.05.22c-.15.05-.2.22-.3.32l-.18.1-.12.14h-.09s0,.09-.09.11l-.19,0-.17.1a1.37,1.37,0,0,1-.28,0l-.14.09c-.21,0-.51,0-.77,0-.07,0-.09,0-.16,0l-.11-.08h-.1l-.25-.07-.13-.09-.13,0-.14-.11-.13-.05-.08-.09-.14,0-.16-.22-.18-.12s0-.11-.06-.16l-.09-.08c0-.07-.11-.14-.15-.21a2.87,2.87,0,0,1-.17-.44l-.1-.18,0-.25-.05-.12v-.25a2,2,0,0,1,0-.84l0-.2c.06-.21.08-.45.13-.68s.17-.31.21-.46v-.11c.09,0,.12-.14.17-.2l.28-.39.13-.13s0-.09.06-.12l.13,0c.14-.08.34-.18.4-.34.23,0,.12,0,.23-.08h.13l.08,0,.13,0,.09,0C2959.9,2212.85,2960.11,2212.93,2960.27,2212.86Zm-21,0h0l.11.11c0,.13,0,.26,0,.39v.94c0,.12,0,.24,0,.35s0,.39,0,.56l0,.58c0,.23,0,.55,0,.81a2.73,2.73,0,0,0,0,.7c0,.28-.06.53,0,.79,0,.1,0,.22,0,.3l.07.05h.18a1.52,1.52,0,0,0,.37,0h.17c.16,0,.39.05.6,0a1.16,1.16,0,0,1,.42,0,.8.8,0,0,0,.27,0,2,2,0,0,1,.54,0c.21,0,.6-.06.68.06v.16c0,.16,0,.3-.17.31l-.15,0a.7.7,0,0,1-.38,0l-.12,0h-.15l-.36.05c-.07-.07-.1,0-.18,0l-.1-.05c-.08,0-.17.05-.28,0s-.09,0-.16,0c-.36-.07-.77,0-1.12-.05-.17,0-.55.1-.65,0s-.06-.22-.07-.37v-.38a3.42,3.42,0,0,1,0-.64c0-.19-.05-.38,0-.57a2.57,2.57,0,0,0,0-.68l0-.49c0-.23,0-.51,0-.79a3.74,3.74,0,0,1,0-.75l0-.18c0-.18,0-.38,0-.57l0-.2a.73.73,0,0,1,0-.36C2938.88,2212.84,2939.13,2213,2939.25,2212.9Zm6.17,0c.22,0,.11.17.15.33s.08.07.06.15l-.06.12,0,.12,0,.24,0,.11c0,.07,0,.12,0,.16s0,.09,0,.12,0,.1,0,.19v.39c0,.05,0,.05,0,.12a1.65,1.65,0,0,0,0,.71c0,.07.09.11.07.2l-.07.15a5.88,5.88,0,0,0,0,.74,2,2,0,0,0,0,.5l.07.15-.06.2a2.51,2.51,0,0,0,0,.68c0,.08,0,.1,0,.18s.17-.06.3,0a3.19,3.19,0,0,0,.54.05,2.83,2.83,0,0,1,.37-.06,1.34,1.34,0,0,0,.51.05h.23l.1,0,.09,0a1.48,1.48,0,0,0,.56,0c.08,0,.14,0,.21,0h.35l.07.05c.06.09,0,.43-.05.47s-.35-.06-.5,0a2.44,2.44,0,0,1-.81,0c-.13,0-.25.06-.4,0l-.28-.06a1,1,0,0,0-.36.05.92.92,0,0,1-.3,0,1.69,1.69,0,0,0-.23,0,1.23,1.23,0,0,0-.39.05c-.12,0-.24-.06-.34-.05s-.12.06-.19,0,0-.2-.06-.37l0-.38a2.15,2.15,0,0,0,0-.52v-.26a5.81,5.81,0,0,1,0-1.25l0-.28a2.16,2.16,0,0,1,0-.57l0-.19,0-.72c0-.13,0-.27,0-.39,0-.28-.07-.54,0-.79,0-.08,0-.22,0-.27S2945.29,2213,2945.42,2212.94Zm5.87,0c.06,0,.07,0,.11,0s.08,0,.12,0l.12,0,.23,0,.14,0c.06,0,.1,0,.14,0s.13,0,.18,0l.11,0c.12,0,.28,0,.39,0s.09,0,.14,0,.08-.07.14,0l.08,0,.11,0c.12,0,.3,0,.4,0s.11,0,.15,0a.23.23,0,0,0,.12,0s.33,0,.36,0,.22,0,.32,0l.1,0h.26c.1,0,.26-.08.31,0a.85.85,0,0,1,0,.5.29.29,0,0,1-.11,0l-.12,0-.09.06a1.81,1.81,0,0,0-.58-.07,1.14,1.14,0,0,1-.39,0,1.11,1.11,0,0,0-.42,0c-.07,0-.13.06-.22,0h-.21a1.28,1.28,0,0,0-.4,0c-.09,0-.17.06-.24.07l-.15,0a1.51,1.51,0,0,0-.6,0v0c0,.18,0,.35,0,.53s0,.21,0,.31a3.7,3.7,0,0,0,0,.88c0,.13-.05.28,0,.39s.18,0,.3,0l.13,0,.13,0,.1,0c.07,0,.11,0,.16,0s.11,0,.15,0a2.85,2.85,0,0,0,.51,0l.12,0,.12,0,.16,0a1,1,0,0,0,.25,0s.08,0,.12,0,.08,0,.12,0,.1,0,.14,0,.1,0,.15,0l.24,0c.2,0,.36-.1.41.13v.22l0,.07s0,.06,0,.1h0a.32.32,0,0,0-.14,0l-.1,0-.09,0a1.39,1.39,0,0,0-.51,0c-.07,0-.09-.06-.18,0a.29.29,0,0,1-.14,0l-.23,0-.14,0-.11,0-.1,0-.12,0h-.32l-.11,0-.12.06-.09,0c-.08,0-.11,0-.16,0l-.17,0-.21,0h0c-.05,0-.08,0-.14,0l-.09,0v2.32a2.13,2.13,0,0,0,.62,0l.13-.05.09.05.81,0,.34,0a2.21,2.21,0,0,1,.68,0,1.67,1.67,0,0,0,.51,0l.3.05s.06,0,.1,0a1.36,1.36,0,0,1,0,.45l-.16.08c-.06,0-.08-.07-.16-.06a2.44,2.44,0,0,1-.81,0c-.19,0-.3.06-.47,0a2.44,2.44,0,0,0-.81,0,.73.73,0,0,1-.3-.06l-.1,0a1.91,1.91,0,0,1-.24,0,3,3,0,0,1-.6,0c-.21,0-.37.08-.52,0s0-.31,0-.47a.38.38,0,0,1,0-.2,1.62,1.62,0,0,0,0-.46c0-.08,0-.34,0-.41s.06-.12,0-.2a3.32,3.32,0,0,1,0-.89,1.16,1.16,0,0,0-.05-.43c0-.11.08-.13.05-.25a.23.23,0,0,1,0-.13.3.3,0,0,0,0-.14,3.12,3.12,0,0,1,0-.44c0-.07.07-.15,0-.28v-.23a1.14,1.14,0,0,1,0-.42.72.72,0,0,0,0-.22,1.16,1.16,0,0,1-.07-.42l0-.14,0-.11C2951.15,2213,2951.22,2213,2951.29,2212.94Zm15.6,0,.13.06c.06,0,.11,0,.15,0h.16c.14,0,.17,0,.32,0l.16,0,.09.05.59,0a2.26,2.26,0,0,0,.82,0c.08,0,.13,0,.18,0l.31,0c.13,0,.15.18.14.34v.16s-.21.08-.28.07a1.89,1.89,0,0,0-.82,0c-.11,0-.13-.06-.23,0h-.3l-.24,0a2.26,2.26,0,0,0-.78,0c-.1,0-.15,0-.24,0l-.23,0a1.56,1.56,0,0,0-.25,0s-.09,0-.14,0,0,.35,0,.57c0,.38,0,.7,0,1.09a2.22,2.22,0,0,0,0,.44l0,0,.59,0,.14,0,.09,0c.09,0,.11,0,.19,0a.49.49,0,0,0,.22,0l.17,0h.12l.12,0,.09,0,.21,0,.23,0,.13,0,.13,0,.08,0c.06,0,.09,0,.13,0h.13c.19,0,.24,0,.4,0,.23.09.12.13.15.33a.36.36,0,0,1,0,.27,1.64,1.64,0,0,1-.25,0c-.12,0-.24,0-.33,0s-.12.06-.17.05-.07,0-.13-.05-.18,0-.34,0-.12,0-.17.05l-.14,0-.13,0-.12,0-.24,0s-.08-.07-.15-.06l-.11.07-.14-.05c-.05,0-.07.07-.15.06l-.15-.06-.24,0-.13,0-.1,0c-.05,0-.07,0-.12,0-.05.16.06.32,0,.52s0,.17,0,.26a1,1,0,0,0,0,.46c0,.16,0,.32,0,.48s-.09.53,0,.62.08,0,.14,0a1.67,1.67,0,0,0,.39,0,.83.83,0,0,1,.32-.05l.14,0a.65.65,0,0,0,.24,0h.12s.08,0,.15,0a1.93,1.93,0,0,0,.61.05h.16l.12-.06.1.05s.07,0,.11,0l.1,0a1.6,1.6,0,0,0,.6-.07.66.66,0,0,1,.22.06s0,.08,0,.16,0,.31-.13.34h-.32l-.33,0a1.47,1.47,0,0,0-.55,0,1.52,1.52,0,0,1-.57,0l-.41.05a4.2,4.2,0,0,1-.51-.05c-.15,0-.26.07-.42,0a2.7,2.7,0,0,0-.85,0,.42.42,0,0,1-.11-.16v-1.18c0-.21,0-.38,0-.57l0-.39,0-.15c0-.11,0-.25,0-.37a2.35,2.35,0,0,0,0-.7l0-.58a3.11,3.11,0,0,1,0-.61v-.1c0-.13,0-.23,0-.34v-.56c0-.08,0-.32,0-.36a.5.5,0,0,1,.34,0l.13,0a.91.91,0,0,0,.33,0C2966.71,2213,2966.79,2213,2966.89,2213Zm-30.89,1.69-.06-.23-.13-.25,0-.12-.11-.09-.12-.23s-.08-.06-.13-.09l-.27-.31c-.05,0-.12,0-.17-.06s-.06-.09-.11-.12l-.11,0c-.07,0-.11-.11-.17-.13h-.1c-.1,0-.26-.11-.37-.13l-.3,0-.13-.06-.16,0c-.07,0-.12,0-.18,0s-.2,0-.34,0a1.2,1.2,0,0,1-.2,0l-.1.05h-.12l-.11.07h-.13c-.1,0,0,.08-.21.07a1,1,0,0,1-.56.34c-.07.13-.17.31-.34.34l0,.19a2,2,0,0,1-.21.32l-.06,0,0,.15s-.07.06-.09.09v0l0,.14c0,.09-.11.21-.13.31v.17c0,.1-.08.25-.11.36s.06.12,0,.23a3.28,3.28,0,0,0,.22,1.64l.07.27.09.12,0,.13.12.12.17.25c.05.07.15.1.2.16l.08.14c.06,0,.15,0,.22.1l.07.08.13,0,.13.13c.06,0,.1,0,.15,0l.13.1c.11,0,.3,0,.38.05s0,.06.09.08a1.12,1.12,0,0,1,.63,0c.07,0,.07-.05.15,0s.07,0,.14,0l.11-.08h.28l.24-.13h.14l.08-.07.17-.06s.08-.09.12-.12l.15-.07.08-.11.11,0,0-.09.1-.05.09-.16a2.18,2.18,0,0,0,.21-.22,3.19,3.19,0,0,0,.3-.73l0-.09V2217c0-.18.1-.38.14-.56v-.23A3.45,3.45,0,0,0,2936,2214.66Zm-.61,2.55a2.86,2.86,0,0,1-.29.55l-.1.07a1.24,1.24,0,0,1-.19.26c-.1.07-.2.11-.3.18l-.09.09-.14,0-.1.07a3,3,0,0,1-.37.08l-.11.05a1.1,1.1,0,0,1-.5-.05l-.21,0a2,2,0,0,1-.55-.21s-.08,0-.14,0l-.22-.13a2.52,2.52,0,0,1-.43-.49c-.05-.07-.05-.17-.1-.24a2.77,2.77,0,0,1-.22-.37l0-.22-.08-.2a1.91,1.91,0,0,1,0-.32l0-.21,0-.08a2.84,2.84,0,0,1,0-.51l0-.19c0-.11.08-.23.1-.33l0-.13.16-.3,0-.19a1.57,1.57,0,0,1,.3-.38l.24-.27.1,0,.06-.08a3.37,3.37,0,0,1,.32-.19l.23,0a1.09,1.09,0,0,1,.23-.09l.14,0c.1,0,.08-.07.19,0s.1,0,.14-.07a1.79,1.79,0,0,1,.53.12,1.28,1.28,0,0,1,.35.08l.17.11.06.1.1,0,.11.11.1,0,.07.13.13.12.05.13a1.87,1.87,0,0,1,.25.41l0,.15.07.12,0,.32A3.35,3.35,0,0,1,2935.39,2217.21Zm27.79-11.29,0-.07v-.39c-.06-.29-.1-.55-.18-.82a2.64,2.64,0,0,0-1.06-1.4l-.35-.24h-.11l-.21-.1-.32-.06-.12-.07-.19,0-.24-.05c-.15.09-.17,0-.27,0s-.06.06-.12.05,0,0-.09,0l-.63.2-.2,0c-.06,0-.15.15-.21.19s-.15.07-.23.12l-.08.09-.11.06c-.07.05-.1.15-.15.22a2.29,2.29,0,0,0-.27.27l-.07.2a3.64,3.64,0,0,0-.27.6c-.06.21,0,.39-.1.6a2.44,2.44,0,0,0-.06.85v.32l.12.25,0,.27a1.86,1.86,0,0,0,.17.41l0,.16.11.09,0,.12a1.44,1.44,0,0,1,.21.37.82.82,0,0,1,.28.19s0,.09.06.12.24.08.34.15l.21.19.14,0a5.89,5.89,0,0,0,.7.19h.8l.25-.07h.16c.08,0,.2-.1.29-.12h.14s0-.09.09-.13.11,0,.16-.06.09-.17.29-.17.15-.31.34-.31l.05-.17c.06-.1.15-.18.21-.27l.13-.21,0-.09.06-.07a1.87,1.87,0,0,1,0-.25l.07-.13v-.14l.07-.2c0-.1,0-.2,0-.28l0-.17A1.59,1.59,0,0,0,2963.18,2205.92Zm-.69.44c0,.13,0,.26,0,.38l-.06.1a1.09,1.09,0,0,1-.1.32l-.11.16v.11a2.43,2.43,0,0,1-.2.35l-.13.07-.07.14a.79.79,0,0,1-.25.17l-.1.1a1.67,1.67,0,0,1-.66.24c-.09,0-.25.09-.34.06l-.11,0c-.05,0-.08,0-.13,0h0c-.06,0-.09,0-.12,0l-.14,0a1.87,1.87,0,0,1-.77-.29l0-.08c-.06,0-.12,0-.16-.06l-.09-.12-.25-.23c-.08-.12-.11-.26-.2-.38l-.1-.16,0-.15-.12-.29v-.15l-.07-.11V2206a2.68,2.68,0,0,1,.24-1.35l0-.14c0-.09.15-.16.21-.25a1.87,1.87,0,0,1,.17-.31l.13-.07c.09-.06.16-.14.25-.21l.08-.1.13,0a1.83,1.83,0,0,1,.46-.18c.18,0,.5,0,.66,0l.29.06h.15l.23.09.11.08.16,0,.07.09a2.29,2.29,0,0,1,.93,1.38A2.52,2.52,0,0,1,2962.49,2206.36Z" transform="translate(-2919.93 -2170.82)"/><rect class="cls-2" x="28.21" width="5.45" height="27.87"/><rect class="cls-3" x="19.29" y="0.69" width="4.53" height="26.39"/><rect class="cls-4" x="11.99" y="1.45" width="3.66" height="24.84"/><rect class="cls-5" x="6.38" y="2.19" width="2.77" height="23.34"/><rect class="cls-6" x="2.38" y="2.93" width="1.88" height="21.84"/><rect class="cls-7" y="3.68" width="1" height="20.31"/><rect class="cls-8" x="36.48" y="0.74" width="4.55" height="26.38"/><rect class="cls-9" x="43.16" y="1.53" width="3.66" height="24.83"/><rect class="cls-10" x="48.19" y="2.31" width="2.77" height="23.31"/><rect class="cls-11" x="51.57" y="3.08" width="1.92" height="21.8"/></svg>