<svg xmlns="http://www.w3.org/2000/svg" width="27.624" height="16.32" viewBox="0 0 27.624 16.32">
  <path id="パス_2798" data-name="パス 2798" d="M6.648.312A5.31,5.31,0,0,0,12.24-5.3v-5.088a5.31,5.31,0,0,0-5.592-5.616,5.31,5.31,0,0,0-5.592,5.616V-5.3A5.31,5.31,0,0,0,6.648.312Zm0-2.664A2.623,2.623,0,0,1,3.912-5.3v-5.088a2.623,2.623,0,0,1,2.736-2.952,2.623,2.623,0,0,1,2.736,2.952V-5.3A2.623,2.623,0,0,1,6.648-2.352ZM18.288,0h2.856V-15.7H15.168v2.568h3.12Zm8.5.312a1.855,1.855,0,0,0,1.9-1.9,1.855,1.855,0,0,0-1.9-1.9,1.855,1.855,0,0,0-1.9,1.9A1.855,1.855,0,0,0,26.784.312Z" transform="translate(-1.056 16.008)" fill="#ff8c3c"/>
</svg>
