<svg xmlns="http://www.w3.org/2000/svg" width="31.392" height="16.32" viewBox="0 0 31.392 16.32">
  <path id="パス_2800" data-name="パス 2800" d="M6.648.312A5.31,5.31,0,0,0,12.24-5.3v-5.088a5.31,5.31,0,0,0-5.592-5.616,5.31,5.31,0,0,0-5.592,5.616V-5.3A5.31,5.31,0,0,0,6.648.312Zm0-2.664A2.623,2.623,0,0,1,3.912-5.3v-5.088a2.623,2.623,0,0,1,2.736-2.952,2.623,2.623,0,0,1,2.736,2.952V-5.3A2.623,2.623,0,0,1,6.648-2.352ZM15.312,0h9.912V-2.568H19.176l3.648-3.456c1.608-1.536,2.592-2.808,2.592-4.848a4.837,4.837,0,0,0-5.04-5.136c-3.12,0-5.04,2.088-5.04,5.28v.216h2.832v-.336c0-1.488.768-2.5,2.184-2.5,1.44,0,2.16,1.032,2.16,2.448a4.634,4.634,0,0,1-1.8,3.192l-5.4,5.256Zm15.24.312a1.855,1.855,0,0,0,1.9-1.9,1.855,1.855,0,0,0-1.9-1.9,1.855,1.855,0,0,0-1.9,1.9A1.855,1.855,0,0,0,30.552.312Z" transform="translate(-1.056 16.008)" fill="#ff8c3c"/>
</svg>
