<svg xmlns="http://www.w3.org/2000/svg" width="31.944" height="16.32" viewBox="0 0 31.944 16.32">
  <path id="パス_2801" data-name="パス 2801" d="M6.648.312A5.31,5.31,0,0,0,12.24-5.3v-5.088a5.31,5.31,0,0,0-5.592-5.616,5.31,5.31,0,0,0-5.592,5.616V-5.3A5.31,5.31,0,0,0,6.648.312Zm0-2.664A2.623,2.623,0,0,1,3.912-5.3v-5.088a2.623,2.623,0,0,1,2.736-2.952,2.623,2.623,0,0,1,2.736,2.952V-5.3A2.623,2.623,0,0,1,6.648-2.352ZM20.616.312c3.168,0,5.448-1.848,5.448-4.776A3.763,3.763,0,0,0,23.52-8.28v-.048a3.446,3.446,0,0,0,1.992-3.36c0-2.616-1.968-4.32-4.9-4.32-2.88,0-4.848,1.584-4.92,4.56H18.48a1.9,1.9,0,0,1,2.088-1.9,1.846,1.846,0,0,1,2.064,1.872c0,1.2-.672,1.9-2.3,1.9H18.552v2.568h1.776c1.944,0,2.832.912,2.832,2.376a2.288,2.288,0,0,1-2.592,2.28,2.329,2.329,0,0,1-2.64-2.28h-2.76C15.168-1.488,17.448.312,20.616.312ZM31.1.312a1.855,1.855,0,0,0,1.9-1.9,1.855,1.855,0,0,0-1.9-1.9,1.855,1.855,0,0,0-1.9,1.9A1.855,1.855,0,0,0,31.1.312Z" transform="translate(-1.056 16.008)" fill="#ff8c3c"/>
</svg>
