<svg xmlns="http://www.w3.org/2000/svg" width="32.52" height="16.32" viewBox="0 0 32.52 16.32">
  <path id="パス_2802" data-name="パス 2802" d="M6.648.312A5.31,5.31,0,0,0,12.24-5.3v-5.088a5.31,5.31,0,0,0-5.592-5.616,5.31,5.31,0,0,0-5.592,5.616V-5.3A5.31,5.31,0,0,0,6.648.312Zm0-2.664A2.623,2.623,0,0,1,3.912-5.3v-5.088a2.623,2.623,0,0,1,2.736-2.952,2.623,2.623,0,0,1,2.736,2.952V-5.3A2.623,2.623,0,0,1,6.648-2.352ZM22.3,0h2.856V-3.264h1.536V-5.832H25.152V-15.7H22.3l-7.1,9.96v2.472h7.1Zm-4.08-5.832,4.128-5.952v5.952ZM31.68.312a1.855,1.855,0,0,0,1.9-1.9,1.855,1.855,0,0,0-1.9-1.9,1.855,1.855,0,0,0-1.9,1.9A1.855,1.855,0,0,0,31.68.312Z" transform="translate(-1.056 16.008)" fill="#ff8c3c"/>
</svg>
