<svg xmlns="http://www.w3.org/2000/svg" width="32.184" height="16.32" viewBox="0 0 32.184 16.32">
  <path id="パス_2804" data-name="パス 2804" d="M6.648.312A5.31,5.31,0,0,0,12.24-5.3v-5.088a5.31,5.31,0,0,0-5.592-5.616,5.31,5.31,0,0,0-5.592,5.616V-5.3A5.31,5.31,0,0,0,6.648.312Zm0-2.664A2.623,2.623,0,0,1,3.912-5.3v-5.088a2.623,2.623,0,0,1,2.736-2.952,2.623,2.623,0,0,1,2.736,2.952V-5.3A2.623,2.623,0,0,1,6.648-2.352ZM20.712.312A5.335,5.335,0,0,0,26.3-5.352a4.941,4.941,0,0,0-4.968-5.232A3.435,3.435,0,0,0,18.48-9.312l.528-3.816h6.048V-15.7H16.8l-1.08,8.28,2.544.768a2.6,2.6,0,0,1,2.448-1.488,2.577,2.577,0,0,1,2.712,2.784c0,1.9-1.032,3-2.712,3a2.566,2.566,0,0,1-2.64-2.16H15.144A5.306,5.306,0,0,0,20.712.312Zm10.632,0a1.855,1.855,0,0,0,1.9-1.9,1.855,1.855,0,0,0-1.9-1.9,1.855,1.855,0,0,0-1.9,1.9A1.855,1.855,0,0,0,31.344.312Z" transform="translate(-1.056 16.008)" fill="#ff8c3c"/>
</svg>
