<svg xmlns="http://www.w3.org/2000/svg" width="32.304" height="16.32" viewBox="0 0 32.304 16.32">
  <path id="パス_2806" data-name="パス 2806" d="M6.648.312A5.31,5.31,0,0,0,12.24-5.3v-5.088a5.31,5.31,0,0,0-5.592-5.616,5.31,5.31,0,0,0-5.592,5.616V-5.3A5.31,5.31,0,0,0,6.648.312Zm0-2.664A2.623,2.623,0,0,1,3.912-5.3v-5.088a2.623,2.623,0,0,1,2.736-2.952,2.623,2.623,0,0,1,2.736,2.952V-5.3A2.623,2.623,0,0,1,6.648-2.352ZM20.832.312A5.342,5.342,0,0,0,26.424-5.28c0-3.048-1.944-5.448-4.656-5.448a3.588,3.588,0,0,0-1.656.384L23.568-15.7H20.4l-3.672,5.88A8.083,8.083,0,0,0,15.24-5.328,5.341,5.341,0,0,0,20.832.312Zm0-2.664c-1.656,0-2.688-1.128-2.688-3A2.635,2.635,0,0,1,20.832-8.3,2.635,2.635,0,0,1,23.52-5.352C23.52-3.48,22.488-2.352,20.832-2.352ZM31.464.312a1.855,1.855,0,0,0,1.9-1.9,1.855,1.855,0,0,0-1.9-1.9,1.855,1.855,0,0,0-1.9,1.9A1.855,1.855,0,0,0,31.464.312Z" transform="translate(-1.056 16.008)" fill="#ff8c3c"/>
</svg>
