<svg xmlns="http://www.w3.org/2000/svg" width="32.304" height="16.32" viewBox="0 0 32.304 16.32">
  <path id="パス_2810" data-name="パス 2810" d="M6.648.312A5.31,5.31,0,0,0,12.24-5.3v-5.088a5.31,5.31,0,0,0-5.592-5.616,5.31,5.31,0,0,0-5.592,5.616V-5.3A5.31,5.31,0,0,0,6.648.312Zm0-2.664A2.623,2.623,0,0,1,3.912-5.3v-5.088a2.623,2.623,0,0,1,2.736-2.952,2.623,2.623,0,0,1,2.736,2.952V-5.3A2.623,2.623,0,0,1,6.648-2.352ZM20.832.312C24.144.312,26.4-1.56,26.4-4.464A3.832,3.832,0,0,0,23.784-8.28v-.048a3.463,3.463,0,0,0,2.088-3.36c0-2.616-1.992-4.32-5.04-4.32s-5.04,1.7-5.04,4.32a3.429,3.429,0,0,0,2.088,3.36v.048a3.832,3.832,0,0,0-2.616,3.816C15.264-1.56,17.52.312,20.832.312Zm-.072-9.84a1.869,1.869,0,0,1-2.136-1.92c0-1.08.72-1.9,2.208-1.9s2.208.816,2.208,1.9A1.869,1.869,0,0,1,20.9-9.528Zm.072,7.176c-1.8,0-2.736-.936-2.736-2.376,0-1.488.984-2.328,2.664-2.328H20.9c1.68,0,2.664.84,2.664,2.328C23.568-3.288,22.632-2.352,20.832-2.352ZM31.464.312a1.855,1.855,0,0,0,1.9-1.9,1.855,1.855,0,0,0-1.9-1.9,1.855,1.855,0,0,0-1.9,1.9A1.855,1.855,0,0,0,31.464.312Z" transform="translate(-1.056 16.008)" fill="#ff8c3c"/>
</svg>
