<svg xmlns="http://www.w3.org/2000/svg" width="27.984" height="16.32" viewBox="0 0 27.984 16.32">
  <path id="パス_2814" data-name="パス 2814" d="M3.816,0H6.672V-15.7H.7v2.568h3.12ZM15.888.312A5.31,5.31,0,0,0,21.48-5.3v-5.088a5.31,5.31,0,0,0-5.592-5.616A5.31,5.31,0,0,0,10.3-10.392V-5.3A5.31,5.31,0,0,0,15.888.312Zm0-2.664A2.623,2.623,0,0,1,13.152-5.3v-5.088a2.623,2.623,0,0,1,2.736-2.952,2.623,2.623,0,0,1,2.736,2.952V-5.3A2.623,2.623,0,0,1,15.888-2.352ZM26.784.312a1.855,1.855,0,0,0,1.9-1.9,1.855,1.855,0,0,0-1.9-1.9,1.855,1.855,0,0,0-1.9,1.9A1.855,1.855,0,0,0,26.784.312Z" transform="translate(-0.696 16.008)" fill="#ff8c3c"/>
</svg>
