<svg xmlns="http://www.w3.org/2000/svg" viewBox="0 0 388.35 159.14"><defs><style>.cls-1,.cls-2{fill:#ff7d23;}.cls-2{stroke:#ff7d23;stroke-miterlimit:10;stroke-width:0.5px;}</style></defs><g id="レイヤー_2" data-name="レイヤー 2"><g id="レイヤー_1-2" data-name="レイヤー 1"><rect class="cls-1" x="135.2" y="17" width="99" height="2.84"/><path class="cls-1" d="M134.08,16.34c.72,2.21-.52,5.11-4.13,8.11-3.21,2.67-2.38,5.17-1.4,6,2.85,2.35,7,.28,8.83-4.67s0-9.86-1.55-11.14C134.76,13.73,133.36,14.13,134.08,16.34Z"/><path class="cls-1" d="M156.67,2.87A10.22,10.22,0,0,1,160,7.08c1.31,3.58,1.07,5.82,4.53,5.34,2.47-.34,4-5.62-.53-8.65C157.58-.49,155,1.53,156.67,2.87Z"/><path class="cls-1" d="M173.21,2.87a10.3,10.3,0,0,1,3.3,4.21c1.31,3.58,1.07,5.82,4.53,5.34,2.47-.34,4-5.62-.53-8.65C174.11-.49,171.5,1.53,173.21,2.87Z"/><path class="cls-1" d="M194.71,5.38C197,.7,197.37-.69,199.53.3c1.54.71,5,1.83,5.25,3.48s-3.27,1.49-3.27,1.49a25.76,25.76,0,0,1-7.62,7.41c-2,1.25-3.86.56-2.26-1.92A51.7,51.7,0,0,0,194.71,5.38Z"/><path class="cls-1" d="M227.61,18.28c.76-2.41,1.82-5.29,5.75-2,1.39,1.17,3.27,2.62,3.72,3.44,1.08,2,1.22,3.38-4.37,4.05-1.13.13-5,3.56-7,5-1.49,1.13-3.2.83-1.91-1.61A45,45,0,0,0,227.61,18.28Z"/><path class="cls-1" d="M0,112.18V56.91H3v55.27ZM5.33,82.5V56.91h3V79.63H38.29V56.91h3V82.5Zm33,29.68V87.66H8.36v24.52h-3V84.71h36v27.47Zm5.33,0V56.91h3v55.27Z"/><path class="cls-1" d="M70.44,112.18V56.91h3v55.27Zm5.25,0V56.91h3v55.27Z"/><path class="cls-1" d="M134.48,71.18c-3.86-4.92-7.79-7.3-13.37-7.3-6.56,0-9,2.87-9,6.73,0,5.41,4.84,7,11.56,9.43,8,2.87,16.73,5.82,16.73,17,0,10.33-8.61,16.24-19.68,16.24-8.12,0-14.43-2.79-20.42-10.09l2.14-2c5.74,7.3,12,9.1,18.28,9.1,8.45,0,16.65-4.1,16.65-13.28,0-8.36-6.89-11.32-14.76-14.1-8.69-3.12-13.53-5.25-13.53-12.3,0-5.42,3.77-9.68,12-9.68,5.91,0,10.83,2,15.5,8.28Zm3.85-3.61c-5.74-7.3-11-8.77-16.81-8.77-10.41,0-15.25,5.25-15.25,12.63,0,7.79,7.22,10.9,14.11,13.28,9.59,3.2,14.26,5.82,14.26,13.28,0,5.5-5.24,10.17-13.53,10.17-6.23,0-12-2.29-16.81-8.69l2.38-2.21c3.85,5.08,8.28,7.95,14.43,7.95,7.06,0,10.5-3,10.5-7.22,0-5.82-4.59-7.7-12.14-10.33-7.79-2.7-16.15-5.82-16.15-16.23,0-9.93,7.38-15.58,18.2-15.58,7.55,0,13.45,2.62,19,9.75Z"/><path class="cls-1" d="M156.78,59.86v-3h46.74v3ZM176,112.18V65H156.78V62H179v50.18Zm5.33,0V62h22.22v3H184.33v47.23Z"/><path class="cls-1" d="M216.23,84.46c0-14.92,8.78-28.61,27-28.61s27.14,13.69,27.14,28.78c0,14.92-8.77,28.62-27,28.62S216.23,99.55,216.23,84.46Zm51,.17c0-13.53-7.88-25.83-24-25.83s-23.86,12.3-23.86,25.66c0,13.53,7.87,25.83,24,25.83S267.24,98,267.24,84.63Zm-45.35-.08c0-11.73,6.23-23.7,21.32-23.7s21.48,12.05,21.48,23.7-6.23,23.69-21.32,23.69S221.89,96.19,221.89,84.55Zm39.69,0c0-10.09-5.58-20.75-18.37-20.75S225,74.3,225,84.55c0,10.08,5.57,20.74,18.36,20.74S261.58,94.8,261.58,84.55Z"/><path class="cls-1" d="M329.15,112.18l-17.06-25c6.23-.66,13-4.51,13-13.86,0-8.44-6.48-13.53-14.43-13.53h-18v52.4h-3V56.91H310.7c9.59,0,17.46,5.91,17.46,16.4,0,8.61-4.75,13.61-11.07,15.66l15.83,23.21ZM295,85.37V61.83h15.5c6.89,0,12.3,4.27,12.3,11.56,0,8.37-5.49,12-12.79,12Zm27.47,26.81L307.83,90.12H298v22.06h-3V87.25h14.52l16.64,24.93ZM310,82.5c5.66,0,9.76-3,9.76-9.11,0-5.41-4-8.61-9.27-8.61H298V82.5Z"/><path class="cls-1" d="M359.9,112.18V86.84L340,56.91h3.77l19.19,28.87v26.4ZM346.69,56.91h3.69l13.86,21.81L378.1,56.91h3.69L364.16,83.73Zm18.54,55.27V85.78l19.35-28.87h3.77L368.26,86.84v25.34Z"/><path class="cls-2" d="M142.5,158.77h-1.71V141.55a10.42,10.42,0,0,1-2.52,2.49v-2.19a9.32,9.32,0,0,0,2.46-4h1.77Z"/><path class="cls-2" d="M152.94,139.75a6.73,6.73,0,0,1,4.8-1.92,6.13,6.13,0,0,1,3,.75c2.31,1.17,3.75,3.84,3.87,7a14.68,14.68,0,0,1-2.43,8.43,14.28,14.28,0,0,1-4.86,4.89H155a29,29,0,0,0,5.76-6,12.42,12.42,0,0,0,2.1-7.26q-.14-4-2.88-5.4a4.37,4.37,0,0,0-2.22-.57,5,5,0,0,0-3.57,1.44,4.91,4.91,0,0,0-1.59,3.45,4.57,4.57,0,0,0,1,3.21,4.27,4.27,0,0,0,3.45,1.56,4.52,4.52,0,0,0,2.28-.57v2a6.29,6.29,0,0,1-2.28.42,5.92,5.92,0,0,1-4.77-2.19,6.19,6.19,0,0,1-1.53-4.53A6.69,6.69,0,0,1,152.94,139.75Z"/><path class="cls-2" d="M180.66,158.53a7.11,7.11,0,0,1-2.1.3,8.2,8.2,0,0,1-5.64-2l.75-1.92.06.06a6.27,6.27,0,0,0,4.83,2,7.25,7.25,0,0,0,1.62-.18A4.91,4.91,0,0,0,183.9,152a4.28,4.28,0,0,0-1.77-3.33,5.86,5.86,0,0,0-3.66-1.23,5.48,5.48,0,0,0-4,1.29h-2.22l.78-10.17a.84.84,0,0,1,1-.84l9.72.12v1.86l-8.88-.12-.57,7.05a8,8,0,0,1,4.2-1.08,7.38,7.38,0,0,1,4.92,1.8,6.06,6.06,0,0,1,2.34,4.56A7.05,7.05,0,0,1,180.66,158.53Z"/><path class="cls-2" d="M194.82,139.75a6.73,6.73,0,0,1,4.8-1.92,6.13,6.13,0,0,1,3,.75c2.31,1.17,3.75,3.84,3.87,7a14.68,14.68,0,0,1-2.43,8.43,14.28,14.28,0,0,1-4.86,4.89h-2.37a29,29,0,0,0,5.76-6,12.42,12.42,0,0,0,2.1-7.26q-.14-4-2.88-5.4a4.37,4.37,0,0,0-2.22-.57,5,5,0,0,0-3.57,1.44,4.91,4.91,0,0,0-1.59,3.45,4.57,4.57,0,0,0,1,3.21,4.27,4.27,0,0,0,3.45,1.56,4.52,4.52,0,0,0,2.28-.57v2a6.29,6.29,0,0,1-2.28.42,5.92,5.92,0,0,1-4.77-2.19,6.19,6.19,0,0,1-1.53-4.53A6.69,6.69,0,0,1,194.82,139.75Z"/><path class="cls-2" d="M216.81,151v-2h15v2Z"/></g></g></svg>