<svg xmlns="http://www.w3.org/2000/svg" xmlns:xlink="http://www.w3.org/1999/xlink" width="177.75" height="11.478" viewBox="0 0 177.75 11.478">
  <defs>
    <clipPath id="clip-path">
      <rect id="長方形_357" data-name="長方形 357" width="177.75" height="11.478" transform="translate(0 -0.001)" fill="none"/>
    </clipPath>
  </defs>
  <g id="エアライン_ツーリズム_鉄道領域" data-name="エアライン・ツーリズム・鉄道領域" transform="translate(0 0)">
    <g id="グループ_522" data-name="グループ 522" clip-path="url(#clip-path)">
      <path id="パス_1931" data-name="パス 1931" d="M9.079,8.515a7.018,7.018,0,0,0,1.115-.1v1.739a9.278,9.278,0,0,0-1.115-.06h-7.9A10.011,10.011,0,0,0,0,10.158V8.419a6.476,6.476,0,0,0,1.175.1H4.222V3.622H1.907c-.324,0-.84.024-1.14.048V2.027a8.811,8.811,0,0,0,1.14.071H8.432c.359,0,.779-.036,1.127-.071V3.67c-.36-.024-.78-.048-1.127-.048H5.9V8.515Z" fill="#fff"/>
      <path id="パス_1932" data-name="パス 1932" d="M21.594,2.278a6.042,6.042,0,0,0-.468.624,12.074,12.074,0,0,1-2.89,3.286L17,5.193a7.135,7.135,0,0,0,2.206-2.231H12.959c-.5,0-.9.036-1.463.083V1.378a9.364,9.364,0,0,0,1.463.121h6.464a6.051,6.051,0,0,0,1.212-.108ZM16.7,3.9c0,2.975-.06,5.421-3.334,7.172L11.975,9.93a4.742,4.742,0,0,0,1.26-.66c1.523-1.055,1.811-2.326,1.811-4.293a6.652,6.652,0,0,0-.084-1.08Z" fill="#fff"/>
      <path id="パス_1933" data-name="パス 1933" d="M32.743,4.677a4.446,4.446,0,0,0-.228.5A8.62,8.62,0,0,1,30.74,8.5a8.986,8.986,0,0,1-4.282,2.591l-1.2-1.356a8.084,8.084,0,0,0,4.162-2.1,5.208,5.208,0,0,0,1.235-2.074H24.863c-.288,0-.888.012-1.391.06V4.065c.5.049,1.019.072,1.391.072H30.8a2.5,2.5,0,0,0,.875-.12ZM24.575,1.2a10.115,10.115,0,0,0,1.248.06H30.44a11.3,11.3,0,0,0,1.3-.06V2.746c-.324-.024-.887-.036-1.319-.036H25.823c-.384,0-.9.012-1.248.036Z" fill="#fff"/>
      <path id="パス_1934" data-name="パス 1934" d="M40.977,9.354a8.239,8.239,0,0,0,.108,1.571h-1.9a13.407,13.407,0,0,0,.084-1.571V5.42a23.408,23.408,0,0,1-4.126,1.631l-.863-1.463a18.437,18.437,0,0,0,5.457-2.171,12.667,12.667,0,0,0,3.13-2.71l1.283,1.164a19.634,19.634,0,0,1-3.178,2.578Z" fill="#fff"/>
      <path id="パス_1935" data-name="パス 1935" d="M49.845,7.7A11.364,11.364,0,0,0,54.21,3.034l.936,1.691a12.757,12.757,0,0,1-4.438,4.438,13,13,0,0,1-4.449,1.691L45.251,9.27A12.364,12.364,0,0,0,49.845,7.7m0-3.886-1.224,1.26a24.844,24.844,0,0,0-3-2.591l1.128-1.2a25.24,25.24,0,0,1,3.094,2.53" fill="#fff"/>
      <path id="パス_1936" data-name="パス 1936" d="M60.957,4.306a1.535,1.535,0,1,1-1.535,1.535,1.545,1.545,0,0,1,1.535-1.535" fill="#fff"/>
      <path id="パス_1937" data-name="パス 1937" d="M70.031,5.157l-1.548.563a29.968,29.968,0,0,0-1.378-3.394L68.64,1.8c.371.756,1.115,2.543,1.391,3.359m7.412-3.143a8.389,8.389,0,0,0-.3.936,13.691,13.691,0,0,1-2.015,4.509,10.851,10.851,0,0,1-4.713,3.514L69.071,9.63a9.617,9.617,0,0,0,4.738-3.094A10.942,10.942,0,0,0,75.656,1.5Zm-4.21,2.255L71.722,4.8a30.676,30.676,0,0,0-1.247-3.251l1.5-.491a29.047,29.047,0,0,1,1.259,3.214" fill="#fff"/>
      <path id="パス_1938" data-name="パス 1938" d="M78.624,4.845c.432.036,1.307.072,1.931.072H87c.552,0,1.092-.048,1.4-.072V6.728c-.287-.012-.9-.06-1.4-.06h-6.44c-.684,0-1.487.024-1.931.06Z" fill="#fff"/>
      <path id="パス_1939" data-name="パス 1939" d="M92.423,1.2c-.024.264-.036.528-.036.912V6.164c0,.3.012.768.036,1.044H90.648c.012-.228.06-.7.06-1.056V2.111A8.163,8.163,0,0,0,90.66,1.2Zm5.529-.108c-.024.336-.048.72-.048,1.2V4.665c0,2.579-.5,3.682-1.391,4.666A6.976,6.976,0,0,1,93.6,11.07L92.339,9.75a5.609,5.609,0,0,0,2.938-1.511c.816-.9.972-1.8.972-3.67V2.29a8.461,8.461,0,0,0-.072-1.2Z" fill="#fff"/>
      <path id="パス_1940" data-name="パス 1940" d="M108.7,2.555a5.7,5.7,0,0,0-.42.755A17.527,17.527,0,0,1,106.4,6.6a33.8,33.8,0,0,1,3.346,3.43l-1.367,1.2a26.513,26.513,0,0,0-3.023-3.395,15.727,15.727,0,0,1-4.509,3.358l-1.236-1.3a13.437,13.437,0,0,0,4.918-3.442,9.3,9.3,0,0,0,1.787-2.938H102.25c-.5,0-1.163.072-1.415.084v-1.7a13.142,13.142,0,0,0,1.415.084h4.234a4.387,4.387,0,0,0,1.235-.143l.144.108c-.2-.384-.444-.8-.659-1.128l.947-.4a17.444,17.444,0,0,1,.959,1.642l-.683.289Zm.984-.516A14.228,14.228,0,0,0,108.715.4l.947-.4a16.142,16.142,0,0,1,.971,1.631Z" fill="#fff"/>
      <path id="パス_1941" data-name="パス 1941" d="M120.451,10.938c-.156-.408-.348-.9-.563-1.416-1.956.229-5.589.612-7.1.768-.3.036-.743.1-1.127.144l-.276-1.751c.408,0,.923,0,1.319-.012l.324-.012c.7-1.775,1.727-5.061,2.075-6.308A8.919,8.919,0,0,0,115.39.972l1.907.383a13.653,13.653,0,0,0-.516,1.332c-.384,1.175-1.355,4.221-1.955,5.828,1.463-.144,3.167-.335,4.378-.48a14.564,14.564,0,0,0-1.259-2.194l1.5-.612a36.973,36.973,0,0,1,2.626,4.989Z" fill="#fff"/>
      <path id="パス_1942" data-name="パス 1942" d="M124.977,4.306a1.535,1.535,0,1,1-1.535,1.535,1.545,1.545,0,0,1,1.535-1.535" fill="#fff"/>
      <path id="パス_1943" data-name="パス 1943" d="M139.232,6.656a5.677,5.677,0,0,0,2.578,3.634,5.165,5.165,0,0,0-.959,1.187,6.388,6.388,0,0,1-2.459-3.394,6.947,6.947,0,0,1-3.07,3.394,6.252,6.252,0,0,0-1-1.055c-1.259.288-2.518.54-3.5.744l-.276-1.283c.5-.073,1.1-.181,1.762-.3V6.476H130.68v-1.2h1.631V4.4h-1.055V3.862c-.072.071-.156.144-.228.215a3.919,3.919,0,0,0-.851-.923,7.678,7.678,0,0,0,2.075-2.9h1.223a11.426,11.426,0,0,1,1.991,2.062l-.768.924V4.4h-1.151v.876h1.487v1.2h-1.487V9.354l1.631-.323.084.827a5.293,5.293,0,0,0,2.183-3.2h-2.159V5.337h2.363c.024-.4.035-.792.035-1.163V3.61h-1.115a7.608,7.608,0,0,1-.707,1.5,9.133,9.133,0,0,0-1.164-.66A8.922,8.922,0,0,0,135.933.707l1.308.216c-.072.468-.168.923-.276,1.367h.719V.323h1.38V2.29h2.255V3.61h-2.255v.575q0,.558-.036,1.152h2.578V6.656Zm-7.52.276a13.7,13.7,0,0,1,.42,2.063l-.96.263a10.974,10.974,0,0,0-.371-2.1Zm2.722-3.718a10.847,10.847,0,0,0-1.391-1.679,10.826,10.826,0,0,1-1.175,1.679Zm-.755,5.565a13,13,0,0,0,.419-1.943l1.032.252c-.216.671-.408,1.439-.588,1.931Z" fill="#fff"/>
      <path id="パス_1944" data-name="パス 1944" d="M145.354,8.659a2.953,2.953,0,0,0,2.639,1.175c1.4.06,4.1.024,5.7-.1a7.393,7.393,0,0,0-.443,1.439c-1.44.072-3.851.1-5.278.036a3.992,3.992,0,0,1-3.238-1.331c-.528.468-1.055.935-1.715,1.439l-.7-1.487a15.788,15.788,0,0,0,1.643-1.1V6.2h-1.379V4.893h2.77Zm-.827-5.385a9.074,9.074,0,0,0-1.931-1.9l1.056-.863a9.593,9.593,0,0,1,2,1.811Zm4.03.059c.048-.215.084-.431.12-.647h-2.9V1.535h1.667a5.018,5.018,0,0,0-.551-.864l1.127-.42a4.242,4.242,0,0,1,.78,1.224l-.144.06h1.5a9.912,9.912,0,0,0,.636-1.3l1.415.3c-.216.36-.432.708-.636,1h1.847V2.686h-3.2c-.1.228-.2.443-.3.647h2.627v5.83H146.7V3.333Zm2.567,1.032h-3.083v.624h3.083Zm0,1.559h-3.083v.624h3.083Zm0,1.572h-3.083v.635h3.083Z" fill="#fff"/>
      <path id="パス_1945" data-name="パス 1945" d="M155.711,3.9a10.57,10.57,0,0,1-.744.756,4.134,4.134,0,0,0-.791-1.079A8.545,8.545,0,0,0,156.455.252h1.139a12.858,12.858,0,0,1,2.291,2.267l-.876,1.259a11.439,11.439,0,0,0-1.763-2.087,11.72,11.72,0,0,1-1.1,1.691h2.591V4.57h-3.023Zm3.574,4.773c0,.54-.071.9-.42,1.092a2.659,2.659,0,0,1-1.367.216,4.265,4.265,0,0,0-.323-1.2c.335.011.635.011.743,0s.132-.037.132-.144V6.584h-1v4.834h-1.271V6.584h-1V5.349h4.5Zm2.843,1.14a9.109,9.109,0,0,1-2.711,1.667,7.9,7.9,0,0,0-.959-.936,7.312,7.312,0,0,0,2.507-1.487ZM161.552,2.7c.048-.264.084-.528.12-.792h-2.279V.708h6.081v1.2h-2.243q-.126.414-.252.792h2.159V9.043H159.8V2.7Zm2.219,1.055H161.1V4.51h2.674Zm0,1.727H161.1v.768h2.674Zm0,1.751H161.1V8h2.674Zm-.012,1.907a16.219,16.219,0,0,1,2.039,1.535l-1.128.8A14.4,14.4,0,0,0,162.7,9.847Z" fill="#fff"/>
      <path id="パス_1946" data-name="パス 1946" d="M170.11,8.191c-1.055.623-2.218,1.283-3.2,1.811l-.54-1.439c.336-.145.744-.336,1.188-.54V4.437h-1.08V3.081h1.08V.4h1.331V3.081h.9V4.449h-.9v2.89l.816-.407Zm7.208-3.982a15.343,15.343,0,0,1-1.595,4.174c.2,1.067.48,1.715.768,1.715.168,0,.263-.444.3-1.512a3.2,3.2,0,0,0,.959.792c-.2,1.595-.552,2.051-1.451,2.051-.672,0-1.175-.636-1.548-1.655a8.348,8.348,0,0,1-1.678,1.583,6.325,6.325,0,0,0-1.02-.9,7.8,7.8,0,0,0,1.535-1.271c-1.271.336-2.614.7-3.646.96l-.336-1.332c1.044-.191,2.615-.551,4.126-.887l.108.947c.18-.215.348-.431.5-.659a34.642,34.642,0,0,1-.5-5.037h-3.874v-1.3h3.826c-.012-.551-.024-1.091-.024-1.643h1.356c-.013.552-.013,1.092,0,1.643H176.4a11.369,11.369,0,0,0-1.043-.947l.8-.7A7.583,7.583,0,0,1,177.474,1.4l-.516.479h.528v1.3H175.16c.048,1.091.119,2.111.227,3.022a14.878,14.878,0,0,0,.66-2.243ZM173.4,7.627h-3.083V3.981H173.4Zm-1.115-2.554h-.924V6.536h.924Z" fill="#fff"/>
    </g>
  </g>
</svg>
