<svg xmlns="http://www.w3.org/2000/svg" viewBox="0 0 293.56 46.04"><defs><style>.cls-1{fill:#ff7d23;}</style></defs><g id="レイヤー_2" data-name="レイヤー 2"><g id="レイヤー_1-2" data-name="レイヤー 1"><path class="cls-1" d="M4.93,23.87a9.77,9.77,0,0,1-1.35.26c-.51.06-1.05.06-1.47.09s-.77,0-.93,0c-.41,0-1.18-.38-1.18-.86v-.16a3,3,0,0,1,.32-1,4.53,4.53,0,0,1,.51-.7l3-3.24a8.73,8.73,0,0,0,.73-.76A3.21,3.21,0,0,0,5,16.93a4.21,4.21,0,0,0,.35-1.16c0-.16-.09-.28-.38-.38a1.81,1.81,0,0,1-1.28-.86l-.19-.36a.31.31,0,0,1,0-.19c0-.22.13-.48.13-.73A3.25,3.25,0,0,1,4.06,12a7.55,7.55,0,0,1,.77-1.22,5,5,0,0,0,.87-.92c.06-.13.35-.29.57-.55s.58-.57,1-.92.87-.74,1.19-1,.7-.64,1-.89.58-.48.86-.71a6.84,6.84,0,0,0,1-.76,5.45,5.45,0,0,1,1.12-.84c1-.51.76-.6,1.5-1s.67-.7,1.57-1,.8-.58,1.47-.8S17.82,1,18.4.83s.51-.22,1.12-.38L20.57.16a3,3,0,0,1,.9-.13,3.53,3.53,0,0,1,1.41.1,2.19,2.19,0,0,1,.57.29,1.4,1.4,0,0,1,.71,1.18v.45c-.16.54,0,.67-.39,1.28a11.36,11.36,0,0,1-.67,1,6.58,6.58,0,0,1-.8.93,2.83,2.83,0,0,0-.73.64,3,3,0,0,1-.77.64c-.48.35-.71.48-1,.7s-.61.42-1.06.74l-1.21.73a6.07,6.07,0,0,1-1.7.61,9.26,9.26,0,0,0-1.25.26,1.34,1.34,0,0,1-.35,0c-.45,0-.54,0-.93,0s-.76-.2-.83-.39c-.13-.38-.19-.38-.19-.67a1.44,1.44,0,0,1,.1-.51,2.6,2.6,0,0,1,.41-.71,2.1,2.1,0,0,1,.64-.35,2.05,2.05,0,0,1,.8-.16,1.69,1.69,0,0,1,.74.19c.32.2.41.45.67.45a3.52,3.52,0,0,0,.61.13c.06,0,.13,0,.16,0a1.52,1.52,0,0,1,.7-.13h.19A3.23,3.23,0,0,0,18.46,7c.48-.39.45-.2,1-.64a3.75,3.75,0,0,0,.71-.74,6.75,6.75,0,0,0,.64-1L21,3.87a3.21,3.21,0,0,0,.13-1,.72.72,0,0,0-.67-.77h-.68c-.12,0-.28,0-.44,0a1.11,1.11,0,0,0-.55.13L18,2.5c-.51.25-.89.48-.89.48a12.05,12.05,0,0,0-1.41.73c-.9.55-1.05.58-1.34.77a10.55,10.55,0,0,1-1,.58,9.27,9.27,0,0,0-.93.54,9.8,9.8,0,0,0-1,.74c-.32.25-.58.48-.86.67s-.58.45-.93.77l-.8.73a7.73,7.73,0,0,0-1,1.12c-.09.16-.38.39-.6.67s-.45.58-.64.87-.29.48-.39.64a2.27,2.27,0,0,0-.25.77,1.13,1.13,0,0,0,.25.6c.35.58-.19.23.67.8l.74.39c.35.16.61.28.61.44a1.85,1.85,0,0,1-.19.58,3.87,3.87,0,0,1-.58.77c-.32.35-.7.67-1,1a11.8,11.8,0,0,0-1.25,1.37c-.54.77-.64.68-1,1.28s-.87.9-.87,1.32a2,2,0,0,0,0,.41.84.84,0,0,0,.45.48,1.89,1.89,0,0,0,.77.16h.19L6.53,22l2.27-.48c.29-.06.54-.1.77-.16a4.45,4.45,0,0,1,1-.32,10.2,10.2,0,0,0,1.12-.32c.26,0,.71-.26,1-.32a6.57,6.57,0,0,0,1.22-.48L15,19.36l.7-.39c.48-.19.8-.51,1.06-.51s.38.1.38.39-.73.6-1.12.8c0,0-.51.28-.83.48-.64.32-.61.32-1,.54,0,0-.25.13-.83.38s-1.05.42-1.66.68-.64.12-1.41.41l-.83.29c-.42.13-.54.45-1.12.51a7.9,7.9,0,0,0-1.25.35Z"/><path class="cls-1" d="M36.54,15.39c.55-.26.71-.35,1.25-.58s1.18-.48,2.11-.89a6,6,0,0,1,2-.74,1.4,1.4,0,0,1,1.24,1.09c0,.35-.48.7-.8,1.15a17.7,17.7,0,0,1-1.47,1.51c-.7.73-1.47,1.24-2,1.88-.35.45-1.15,1.38-1.15,1.89,0,.74.61.83,1.12.83a4,4,0,0,0,1.63-.41A8.29,8.29,0,0,0,42.27,20a9,9,0,0,0,1.38-1.38,7.62,7.62,0,0,0,1-1.4,3,3,0,0,0,.51-1.35,1.91,1.91,0,0,0-.57-1.05c-.2-.2-.71-.61-.71-1a.64.64,0,0,1,.16-.36c.45-.57.61-1,1.73-1a.91.91,0,0,1,.61.23c.48.41.57.38.86,1a2.47,2.47,0,0,1,.16.89c0,1.44-.7,2-1.66,3.08a25.13,25.13,0,0,1-1.7,1.92c-.51.44-1.12,1.08-1.79,1.56a12.09,12.09,0,0,1-2.53,1.44,15.37,15.37,0,0,1-2.3.71,6.17,6.17,0,0,1-.77.06,3.73,3.73,0,0,1-2-.48,1.3,1.3,0,0,1-.48-1.09,1.17,1.17,0,0,1,0-.38,5.8,5.8,0,0,1,1.5-2.21,12.3,12.3,0,0,1,1.34-1.15,16.38,16.38,0,0,0,1.64-1.47c.28-.39.76-.55.76-1,0-.13-.06-.2-.19-.2a3.17,3.17,0,0,0-1.18.32c-.45.2-1,.45-1.47.64a9.72,9.72,0,0,1-1.76.58,7.55,7.55,0,0,1-1.54.13c-1,0-.93,0-1.47,0s-.61.06-1.41,1c-.22.25-.61.48-1,.8a5.8,5.8,0,0,1-.89.73,11.61,11.61,0,0,1-1,.67l-.8.45a6,6,0,0,1-.67.42l-1,.48c-.35.22-1,.38-1.44.61a15.22,15.22,0,0,1-1.6.57,12.63,12.63,0,0,1-2.56.39A4.41,4.41,0,0,1,18.14,23a1.25,1.25,0,0,1-.8-1.32,2,2,0,0,1,.39-1.12,6.57,6.57,0,0,1,.73-1.08,4.27,4.27,0,0,0,.58-.84c.1-.22.51-.64.51-.8a.21.21,0,0,0-.19-.16c-.19,0-.38.16-.74.39l-.64.41c-.35.2-.32.16-.51.29s-.09,0-.48.29a7.41,7.41,0,0,1-.86.51,8.49,8.49,0,0,1-.93.51,1.69,1.69,0,0,1-.58.26.26.26,0,0,1-.28-.26c0-.28.38-.48.67-.67a2.86,2.86,0,0,1,.41-.25c.48-.29.68-.45,1.12-.71s.48-.32.87-.57a5.61,5.61,0,0,0,.89-.64,5,5,0,0,1,.52-.36A6.34,6.34,0,0,0,20,16a9.56,9.56,0,0,0,1.21-1c.36-.29.55-.52.8-.74a3.94,3.94,0,0,1,.74-.54,2.55,2.55,0,0,1,1-.39c.54,0,1.28,0,1.5.61a1.36,1.36,0,0,1,.2.74.82.82,0,0,1-.55.73c-.35.19-.8.32-1,.48a3.36,3.36,0,0,0-1.12.93,6.75,6.75,0,0,0-.77.8,3.58,3.58,0,0,0-.77,1.28,5.22,5.22,0,0,0-.48,1.41,1.08,1.08,0,0,0,1.22,1.09c.25,0,.6,0,.73,0a4,4,0,0,0,1.6-.51l1.06-.51a9.92,9.92,0,0,0,1.41-.9,6,6,0,0,0,1.21-1.21,5.11,5.11,0,0,0,.87-1.51l.15-.8A6.09,6.09,0,0,0,29,15c0-.55-.13-.68-.13-1.09s.26-.8.61-.8.73.45,1,.51a1.68,1.68,0,0,1,.7.51,1.67,1.67,0,0,1,.32.35c.39.58.67,1.32,1.86,1.44a4.79,4.79,0,0,0,.93,0A6.11,6.11,0,0,0,36.54,15.39Z"/><path class="cls-1" d="M55.1,22.24a9,9,0,0,1-1.66.48,12.31,12.31,0,0,1-1.79.35c-.55,0-1.7,0-2.11-.42s-.93-.44-1-1a5.58,5.58,0,0,1-.09-1.25,2.67,2.67,0,0,1,1-1.85c.44-.36,1-1.12,1.4-1.44s1.47-1.67,1.92-2,.8-.83,1-1c.86-.8,1.12-1.22,1.66-1.63s.93-1,1.54-1.48.64-.73,1.5-1.47,1-1.15,1.86-1.89,1-1.24,2-1.95a19,19,0,0,1,2.3-1.89A6.35,6.35,0,0,1,66.4,3.1c.22,0,.61,0,.64.55a1.57,1.57,0,0,1-.35,1c-.23.35-.52.38-.8.9s-.84.64-1.16,1.08a5.46,5.46,0,0,1-1,1,6.9,6.9,0,0,0-1.28,1,7.5,7.5,0,0,1-1.09,1c-.32.28-.8.6-1.21,1s-1,1-1.44,1.31-1.15.9-1.54,1.35-1.28.95-1.66,1.4a14.25,14.25,0,0,1-1.41,1.35c-.38.28-.67.76-1.21,1.24a3.3,3.3,0,0,0-1,1.19,2.41,2.41,0,0,0-.38,1.05v.23a1.3,1.3,0,0,0,.93,1.31,2.29,2.29,0,0,0,.89.13,5.45,5.45,0,0,0,1.09-.1c.51-.06.64-.16,1-.19.12,0,.54-.16.7-.19a4.31,4.31,0,0,0,.89-.26l.61-.19.9-.35c.09-.07.41-.16.77-.35s.7-.39.86-.45a4,4,0,0,0,.8-.42c.48-.22.45-.29.7-.32s.39.13.39.39-.32.32-.67.54c0,0-.45.26-.8.48s-.74.38-1.28.67c-.36.19-.58.26-1,.45s-.52.19-.83.35-.42.16-.68.29-.51.16-.77.29A5,5,0,0,1,55.1,22.24Z"/><path class="cls-1" d="M74.4,18.85a5.46,5.46,0,0,1-.9.73,11.44,11.44,0,0,1-1,.67l-.8.45a7,7,0,0,1-.67.42l-1,.48c-.35.22-1,.38-1.44.61a13.76,13.76,0,0,1-1.6.57,12.54,12.54,0,0,1-2.55.39A4.35,4.35,0,0,1,63.07,23a1.25,1.25,0,0,1-.8-1.32,2,2,0,0,1,.39-1.12,6.57,6.57,0,0,1,.73-1.08,4.27,4.27,0,0,0,.58-.84c.09-.22.51-.64.51-.8a.22.22,0,0,0-.19-.16c-.2,0-.39.16-.74.39l-.64.41c-.35.2-.32.16-.51.29s-.1,0-.48.29a6.74,6.74,0,0,1-.87.51,7.88,7.88,0,0,1-.92.51,1.69,1.69,0,0,1-.58.26.27.27,0,0,1-.29-.26c0-.28.39-.48.68-.67a2.86,2.86,0,0,1,.41-.25c.48-.29.67-.45,1.12-.71s.48-.32.86-.57a6.52,6.52,0,0,0,.9-.64,4.08,4.08,0,0,1,.51-.36A6,6,0,0,0,64.89,16a9.68,9.68,0,0,0,1.22-1c.35-.29.54-.52.8-.74a3.64,3.64,0,0,1,.74-.54,2.49,2.49,0,0,1,1-.39c.54,0,1.28,0,1.5.61a1.34,1.34,0,0,1,.19.74.81.81,0,0,1-.54.73c-.35.19-.8.32-1.06.48a3.57,3.57,0,0,0-1.12.93,8.89,8.89,0,0,0-.77.8,3.74,3.74,0,0,0-.76,1.28,5.22,5.22,0,0,0-.48,1.41,1.08,1.08,0,0,0,1.21,1.09c.26,0,.61,0,.74,0a4,4,0,0,0,1.6-.51l1-.51a8.91,8.91,0,0,0,1.41-.9,6.09,6.09,0,0,0,1.22-1.21,4.85,4.85,0,0,0,.86-1.51l.16-.8a6.09,6.09,0,0,0,.07-.92c0-.55-.13-.68-.13-1.09s.25-.8.61-.8.73.45,1,.51a1.68,1.68,0,0,1,.7.51,4,4,0,0,1,.29.32A2.63,2.63,0,0,0,78.4,15.9a5.63,5.63,0,0,0,.93.07,12.29,12.29,0,0,0,2.33-.2l1.79-.35a4,4,0,0,0,.64-.13c1.89-.48,2.31-1.47,3.3-1.47.67,0,1.22.29,1.22,1,0,1-1.25,1.35-2,1.86C85,17.63,83.81,18,83,18.91s-.93,1.25-.93,1.7.19.92.61,1a3.09,3.09,0,0,0,.6.06,6.92,6.92,0,0,0,1-.06,14,14,0,0,0,1.63-.29,7.75,7.75,0,0,0,1-.32l1.38-.48A10.43,10.43,0,0,0,89.57,20l1.05-.51c.16,0,1-.55,1.41-.74s.41-.32.67-.32.38.1.38.39a1.36,1.36,0,0,1-.67.54l-.8.48a9.21,9.21,0,0,1-1.18.67s-.58.35-1.15.61-.29.19-.9.45a7.62,7.62,0,0,0-.89.41c-.45.26-.49.13-1.38.58a13.36,13.36,0,0,1-1.86.58,12.16,12.16,0,0,1-2.78.38,4,4,0,0,1-.86-.1,1.83,1.83,0,0,1-1.76-1.85,3,3,0,0,1,1-2.24c1-1.09,2.91-2.11,2.91-2.59,0-.13-.13-.2-.45-.2-.73,0-1.12.36-1.82.36-.38,0-1.09.19-2.05.19s-.93,0-1.47,0-.7.09-1.63,1C75.13,18.3,74.75,18.53,74.4,18.85ZM98.75,4.38c0,.55-.55,1.09-.71,1.8-.41,1.24-.25,1.47-1.05,1.47a1.3,1.3,0,0,1-1.31-1.28,2.34,2.34,0,0,1,.38-1.15c.74-1.22,1.47-1.64,2-1.64a.49.49,0,0,1,.41.23A.87.87,0,0,1,98.75,4.38Z"/><path class="cls-1" d="M112.67,21.47c-.48.19-.77.26-1.06.38a6.57,6.57,0,0,1-1,.42,15.06,15.06,0,0,1-1.67.51,8.54,8.54,0,0,1-1.15.23c-.45,0-.57.06-.93.06a5.19,5.19,0,0,1-1.5-.16c-.42-.16-1.09-.54-1.09-1.15a3.28,3.28,0,0,1,.32-1.63c.23-.42.48-.64.48-.8a.18.18,0,0,0-.16-.2,1.69,1.69,0,0,0-.93.2,12.39,12.39,0,0,0-1.4.67c-.58.35-1.06.41-1.8.8s-1.24.57-1.76.8-1.66.61-2.14.77a5.66,5.66,0,0,1-1.92.38,1.84,1.84,0,0,1-.41,0,2.06,2.06,0,0,1-.84-.19.64.64,0,0,1-.45-.61,2.09,2.09,0,0,1,.07-.64c.35-.74.8-.83,1.66-1.73.45-.45.77-.7,1-.93a1.57,1.57,0,0,0,.52-.86,1,1,0,0,0,0-.26c0-.16-.07-.25-.23-.25a1.82,1.82,0,0,0-1,.35c-.06.06-.41.25-.54.38a4.21,4.21,0,0,1-.83.51c-.29.2-.32.16-.51.29s-.1,0-.48.29a7.49,7.49,0,0,1-.87.51,7.58,7.58,0,0,1-.93.51,1.73,1.73,0,0,1-.57.26.27.27,0,0,1-.29-.26c0-.28.39-.48.67-.67a3.28,3.28,0,0,1,.42-.25c.48-.29.67-.45,1.12-.71s.48-.32.86-.57a6.52,6.52,0,0,0,.9-.64c.29-.23.61-.39,1-.71a8,8,0,0,1,.83-.57,10.22,10.22,0,0,0,1.41-1c.26-.22.71-.44.93-.64a7.41,7.41,0,0,1,1.12-.76,1.4,1.4,0,0,1,.67-.23c.58,0,.93.19,1,.87a2,2,0,0,1-.44,1.37,6.27,6.27,0,0,0-.68.8c-.28.64-.57.71-.86,1.09s-.64.86-.86,1.12a5.75,5.75,0,0,0-.58.8c-.16.35-.32.29-.32.8,0,.06.16.16.32.16a4.91,4.91,0,0,0,1.41-.22,12.14,12.14,0,0,0,1.66-.58,16.17,16.17,0,0,0,1.6-.67c.61-.35.9-.42,1.31-.64a10.25,10.25,0,0,1,1-.48c.48-.19.6-.39,1-.58a9.41,9.41,0,0,0,.93-.54,4.31,4.31,0,0,0,.86-.58c.36-.32.77-.48,1-.7s.48-.23.83-.58a1.52,1.52,0,0,1,.83-.51c.13,0,.35.1.51.45a2.91,2.91,0,0,1,.26,1.18c0,.32-.22.55-.77,1.06l-.73.64c-.36.38-1,.77-1.19,1.12s-.77.7-.86,1.09a2.27,2.27,0,0,0-.32,1c0,.19.13.32.32.51a1.87,1.87,0,0,0,1.09.22c.38,0,.67-.09,1-.09s.57-.16.86-.19c.64-.1.86-.36,1.44-.45a8.23,8.23,0,0,0,1.21-.42L114,20c.09-.06.45-.19.8-.38s.7-.39.86-.45a4,4,0,0,0,.8-.42,2.57,2.57,0,0,1,.8-.32c.2,0,.29.13.29.39s-.32.32-.67.54c0,0-.45.26-.8.48s-.74.38-1.28.67c-.35.19-.58.26-1,.45a6.34,6.34,0,0,1-.64.29Z"/><path class="cls-1" d="M136.25,16.89c-.83.52-.54.26-1.53.93a24.2,24.2,0,0,0-2.47,1.95,17.24,17.24,0,0,1-1.4,1.16c-.61.48-1.19.92-1.54,1.24s-.83.8-1.34,1.25-.55.61-1.35,1.28-1.89,1.76-2.43,2.27c-.29.29-.67.58-1.44,1.32s-1.34.92-2,1.66a12.53,12.53,0,0,1-2.08,1.57c-1,.77-2.17,1.76-2.94,2.33a37.86,37.86,0,0,0-2.91,2.5c-1,1-1.09,1-2.56,2.46s-1.7,1.73-2.79,2.72-1.72,1.79-2.65,2.75S102.85,46,102.18,46h-.13a1.35,1.35,0,0,1-1-1.28.48.48,0,0,1,.06-.22,6.92,6.92,0,0,1,1-1.25A21.73,21.73,0,0,0,104,41.66c.7-.61,2-1.6,2.72-2.43a18.09,18.09,0,0,1,1.4-1.38c.29-.29.61-.64,1.06-1.05,1.18-1.09,1.22-1.31,2.27-2.37a13.41,13.41,0,0,0,1.47-1.73s.87-1,1.89-2.27c.58-.7,1.79-2.3,2.11-2.75a18.12,18.12,0,0,0,1.48-2.08l1.21-1.76c.39-.55.26-.35.71-.93a2.7,2.7,0,0,0,.41-.9.06.06,0,0,0-.06-.06,3.79,3.79,0,0,1-.51.1,17.49,17.49,0,0,1-1.92.73,15.15,15.15,0,0,0-2,.51,2.74,2.74,0,0,1-.7.1c-.35,0-.58-.06-.77-.06a1.85,1.85,0,0,1-.57-.26,1.88,1.88,0,0,1-.64-1.31,2.61,2.61,0,0,1,.54-1.31,6,6,0,0,1,1.66-1.32,30.92,30.92,0,0,1,3-1.53c.87-.42,3-1.28,3.59-1.51s1.47-.73,2.33-1.05a20.07,20.07,0,0,1,2.88-1.15,6.73,6.73,0,0,1,1.51-.32,1.71,1.71,0,0,1,.8.19c.51.32.57.57.57.86a.9.9,0,0,1-.12.39,3.43,3.43,0,0,1-.55,1A4.71,4.71,0,0,1,128,17.47a4.28,4.28,0,0,1-1.18.48c-.07,0-.1,0-.1-.06s0-.1.13-.2c.29-.44,1.21-.89,1.21-1.56,0-.26-.38-.32-.54-.32a5.81,5.81,0,0,0-1.73.22c-1.18.38-.93.32-2.49.93a15,15,0,0,0-2.66,1.21,22.1,22.1,0,0,0-2.18,1.09c-.76.55-1.66,1-1.66,1.6a.67.67,0,0,0,.74.71c.28,0,.73-.23.92-.23a10.74,10.74,0,0,0,1.73-.45,13.5,13.5,0,0,1,2.31-.67,1,1,0,0,1,.44.07c.74.19.77.28.77.8v.25c0,.48-1.09,1.25-1.31,1.76a11.31,11.31,0,0,1-1.63,2.15L119.55,27c-.67.89-.86,1-1.22,1.53s-1,1.28-1.24,1.6-.74.83-.74,1.06a.12.12,0,0,0,.13.13,6.11,6.11,0,0,0,1.89-1.09c.83-.64,1.21-1,2-1.51,1.19-.8,1.67-1.47,2.59-2.11a16,16,0,0,0,1.7-1.47c.7-.58.86-.77,1.44-1.25s1-1,1.57-1.44.8-.8,1.31-1.18.61-.71,1.63-1.47,1-1,1.79-1.57,1.22-1.09,1.76-1.44c.87-.55,1.16-.9,1.76-1.28,1-.61,1.32-1.06,2-1.06.06,0,.13,0,.22,0,.64.07,1,.39,1,.71a1.09,1.09,0,0,1-.68,1.12C137.92,16.54,137.12,16.35,136.25,16.89Z"/><path class="cls-1" d="M154,22.94c-.86,0-1,.13-1.7.13a2.3,2.3,0,0,1-1.4-.38c-.74-.61-1-1-1-1.57,0-.23,0-.16,0-.64a2.67,2.67,0,0,1,.67-1.86c.48-.41.45-.7,1.31-1.6.45-.45.71-.73,1.22-1.21s1.09-1,1.44-1.38c.64-.74,1.18-1,1.66-1.63.71-.8.74-.67,1.54-1.51s1.15-1,1.54-1.47c.54-.64,1.05-1,1.85-1.79a20.24,20.24,0,0,1,2-1.92c1-.8.86-.8,1.63-1.41.32-.25.93-.7,1.57-1.12a4,4,0,0,1,1.85-.7c.39,0,.68.19.74.77a5.6,5.6,0,0,1,0,.64,3.87,3.87,0,0,1-.67,2.11c-.19.38-.45.64-.8,1.25A9.28,9.28,0,0,1,166,9.34c-.32.39-.93.87-1.41,1.35s-1.21,1-1.89,1.56c0,0-.8.65-1.24,1-.58.48-.9.61-1.48,1a22.74,22.74,0,0,1-2,1.21c-.9.55-1.06.61-2,1.16a5.78,5.78,0,0,0-2.11,1.6,4.21,4.21,0,0,0-.74,1.82c0,.67.45,1.09,1.28,1.22a5.69,5.69,0,0,0,.74.06,11,11,0,0,0,1.54-.29c.06,0,.16,0,.25,0s.55-.16.71-.19a4.31,4.31,0,0,0,.89-.26l.61-.19L160,20c.09-.07.41-.16.76-.35s.71-.39.87-.45a4.65,4.65,0,0,0,.8-.42c.48-.22.44-.29.7-.32s.39.13.39.39-.32.32-.68.54l-.8.48c-.38.22-.73.38-1.28.67-.35.19-.57.26-1,.45s-.51.19-.83.35-.41.16-.67.29-.51.16-.77.29a7.4,7.4,0,0,1-1,.38A9.44,9.44,0,0,1,154,22.94ZM162.43,9c-.93,1-1,1-1.86,1.76-.38.35-.7.67-1.28,1.25s-1.12,1.12-1.66,1.6a9.45,9.45,0,0,0-1.6,1.76c0,.09,0,.13.06.13a11.85,11.85,0,0,0,1.48-.8c.67-.39,1.05-.61,1.6-1,.7-.45.83-.61,1.37-1,.93-.61.93-.77,1.63-1.28,1-.71,1-1,1.7-1.47a8.23,8.23,0,0,0,1.47-1.48,10.49,10.49,0,0,0,1-1.31A2.88,2.88,0,0,0,167,5.57c0-.19-.12-.19-.12-.19a5.52,5.52,0,0,0-2.47,1.69C163.74,7.74,163,8.42,162.43,9Z"/><path class="cls-1" d="M165.25,23.1c-.32,0-.58,0-.77,0-.51,0-.71-.12-1.25-.12a1.93,1.93,0,0,1-1.63-.87,2.41,2.41,0,0,1-.35-1.18,2.83,2.83,0,0,1,.48-1.63c.28-.52.54-.58.89-1.12a15,15,0,0,1,1.44-1.38,9.49,9.49,0,0,1,1.19-1c.38-.36.8-.48,1.34-.9a6.35,6.35,0,0,1,1.09-.7c.38-.16.64-.39,1-.52.64-.25.8-.35,1.28-.57.29-.13.57-.16.86-.29s.55-.1.87-.19a4.69,4.69,0,0,1,1.4-.16.87.87,0,0,1,.52.1.92.92,0,0,1,.44.89,1.6,1.6,0,0,1-.44.93c-.29.38-.32.22-.74.61a11.79,11.79,0,0,1-1.47.86c-.36.22-.74.32-1.28.64-.29.16-.45.22-.71.38a5.8,5.8,0,0,1-.67.36c-.51.25-.48.25-1.12.54-.32.13-.64.38-1,.48a7.12,7.12,0,0,0-1,.45,2,2,0,0,0-.89.73,1.64,1.64,0,0,0-.2.9,1.28,1.28,0,0,0,.32.83,1.47,1.47,0,0,0,1.06.39l1.28,0a11.23,11.23,0,0,0,1.89-.19c.25,0,.8-.2,1.34-.26a8.94,8.94,0,0,0,1.79-.51c.26-.07.42-.16.87-.29s.67-.26.92-.35.87-.39,1.06-.48,1-.51,1.34-.71.61-.35.77-.35a.35.35,0,0,1,.35.39c0,.16-.31.32-.67.54,0,0-.45.26-.8.48s-.73.38-1.28.67a8.22,8.22,0,0,1-1.24.58l-.9.35c-.55.22-.8.26-1.12.42a18.12,18.12,0,0,1-2.3.64l-.48.09a8.23,8.23,0,0,0-1.22.26A13.41,13.41,0,0,1,165.25,23.1Zm6.24-8.86a.21.21,0,0,0-.23-.19,4.36,4.36,0,0,0-1.41.44,11.15,11.15,0,0,0-1.69,1,10.47,10.47,0,0,0-1.12.86,2.2,2.2,0,0,0-.67.83c0,.07.06.1.22.1a5,5,0,0,0,.86-.35c.36-.2.77-.32,1.16-.55s.7-.29,1.12-.57a11.79,11.79,0,0,0,1.21-.74C171.26,14.78,171.49,14.78,171.49,14.24Z"/><path class="cls-1" d="M188.73,22.3a6.86,6.86,0,0,1-1.95.55c-.16,0-.35.06-.57.06a1.89,1.89,0,0,1-1.35-.35,2.89,2.89,0,0,1-.38-.42c-.39-.48-.19-1.37-.58-1.37a2.73,2.73,0,0,0-1.09.44l-1.15.61c-.29.16-.67.29-1,.48a9.09,9.09,0,0,1-1.31.67,5.52,5.52,0,0,1-1.31.32,6.33,6.33,0,0,1-.87,0h-.16c-.89,0-1.34-.29-1.6-.74a2.32,2.32,0,0,1-.35-1,.4.4,0,0,1,0-.19,3.42,3.42,0,0,1,.39-1.32,4,4,0,0,1,.93-1.15c.44-.35.73-.64,1.12-.93.22-.16.51-.28,1-.6a7.87,7.87,0,0,1,1.21-.77,11.15,11.15,0,0,0,1.51-.9c.6-.45,1.28-.54,1.85-1a6.17,6.17,0,0,1,1.41-.67,8.92,8.92,0,0,0,1.09-.42,3.62,3.62,0,0,1,1.34-.38.42.42,0,0,1,.45.38.51.51,0,0,1-.07.23c-.12.32-.19.38-.57.6s-.51.23-.87.45a9.48,9.48,0,0,0-1.08.58c-.36.25-.68.41-1,.64a9.14,9.14,0,0,0-1.21.77,9.12,9.12,0,0,0-1.15.8,4.32,4.32,0,0,1-1.12.7,13.63,13.63,0,0,1-1.06.86c-.42.26-.48.45-.93,1a1.13,1.13,0,0,0-.35.84.59.59,0,0,0,.67.6c.38,0,.29-.06.77-.09s.64-.23,1.15-.32a8.15,8.15,0,0,0,1.44-.64,14,14,0,0,0,1.41-.77,2.55,2.55,0,0,0,1.09-1.18c.16-.23.32-.64.54-1a3.55,3.55,0,0,1,.54-.73c.42-.39.61-.74,1-1.09a2.92,2.92,0,0,1,1.28-.8c.07,0,.1,0,.16,0a.74.74,0,0,1,.68.51v.13a1.49,1.49,0,0,1-.23.67c-.13.19-.48.29-.7.51s-.26.45-.51.77-.26.83-.52,1a1.85,1.85,0,0,0-.35,1,1.63,1.63,0,0,0,.19.87c.32.35.39.51.87.54l.45,0a3.51,3.51,0,0,0,1.21-.19l.93-.32a9.8,9.8,0,0,0,1.28-.51l1.06-.51c.16-.07,1-.55,1.4-.74s.48-.32.74-.32.32.1.32.39c0,.12-.29.35-.67.54l-.8.48c-.64.32-.42.32-1.19.67-.28.13-.57.35-1.15.61s-.29.19-.89.45S189.44,22.05,188.73,22.3Z"/><path class="cls-1" d="M198.75,23.2a2.9,2.9,0,0,1-1.73-.35,1.56,1.56,0,0,1-.61-1.44v-.32a3.19,3.19,0,0,1,1.06-1.89A15.15,15.15,0,0,1,199.1,18c.7-.48.74-.51.74-1.18-.1-.42-.2-.7-.48-.7a6.44,6.44,0,0,0-1,.57c-1.12.74-1.32.93-2.18,1.44l-1.28.77c-.45.29-.83.48-1.18.67a8.49,8.49,0,0,1-.93.51,1.69,1.69,0,0,1-.58.26.27.27,0,0,1-.29-.26c0-.28.39-.48.68-.67s.44-.29.44-.29c.36-.22.52-.35.8-.51s.52-.35.81-.51,1-.61,1.5-1,.64-.51,1.41-1.06c.54-.38,1.4-1.09,2.11-1.69.29-.23.51-.45.77-.68a1.71,1.71,0,0,1,1.05-.41,3,3,0,0,1,.51.06,1.16,1.16,0,0,1,1,1,.58.58,0,0,1-.2.48,2.37,2.37,0,0,0-.73,1.57c-.1.67-.19,1.35-.67,1.63-.29.23-.77.52-1.15.87a2.54,2.54,0,0,0-.65.77,1.71,1.71,0,0,0-.35,1.18c0,.45.39.67,1.54.67l.38-.09c.26,0,.58-.13.87-.16.64-.1,1-.36,1.56-.45a7.63,7.63,0,0,0,1.16-.42l.86-.35c.1-.06.45-.19.8-.38s.7-.39.86-.45a4,4,0,0,0,.8-.42c.48-.22.45-.29.71-.32a.39.39,0,0,1,.38.39c0,.16-.32.32-.67.54,0,0-.45.26-.8.48s-.74.38-1.28.67c-.35.19-.58.26-1,.48a7.58,7.58,0,0,1-.8.39c-.38.19-1.12.48-1.12.48a9.64,9.64,0,0,1-1.15.44,12.08,12.08,0,0,1-1.47.48A6.83,6.83,0,0,1,198.75,23.2Z"/><path class="cls-1" d="M228.79,21.47c-.47.19-.76.26-1,.38a6.67,6.67,0,0,1-1.06.42,14.86,14.86,0,0,1-1.66.51,9.19,9.19,0,0,1-1.15.23c-.45,0-.58.06-.93.06a5.19,5.19,0,0,1-1.5-.16c-.42-.16-1.09-.54-1.09-1.15a3.17,3.17,0,0,1,.32-1.63c.22-.42.48-.64.48-.8a.19.19,0,0,0-.16-.2,1.67,1.67,0,0,0-.93.2,13.23,13.23,0,0,0-1.41.67c-.57.35-1.05.41-1.79.8s-1.25.57-1.76.8-1.66.61-2.14.77a5.66,5.66,0,0,1-1.92.38,2,2,0,0,1-.42,0,2,2,0,0,1-.83-.19.64.64,0,0,1-.45-.61,2.43,2.43,0,0,1,.06-.64c.36-.74.81-.83,1.67-1.73.45-.45.77-.7,1-.93a1.56,1.56,0,0,0,.51-.86,1,1,0,0,0,0-.26c0-.16-.06-.25-.22-.25a1.82,1.82,0,0,0-1,.35,6.34,6.34,0,0,0-.54.38,4.28,4.28,0,0,1-.84.51c-.28.2-.32.16-.51.29s-.09,0-.48.29a7.41,7.41,0,0,1-.86.51,8.49,8.49,0,0,1-.93.51,1.69,1.69,0,0,1-.58.26.26.26,0,0,1-.28-.26c0-.28.38-.48.67-.67a2.65,2.65,0,0,1,.42-.25c.47-.29.67-.45,1.11-.71s.48-.32.87-.57a5.61,5.61,0,0,0,.89-.64c.29-.23.61-.39,1-.71a8,8,0,0,1,.83-.57,10.87,10.87,0,0,0,1.41-1c.25-.22.7-.44.93-.64a7.41,7.41,0,0,1,1.12-.76,1.36,1.36,0,0,1,.67-.23c.57,0,.93.19,1,.87a2,2,0,0,1-.45,1.37,7.3,7.3,0,0,0-.67.8c-.29.64-.58.71-.86,1.09s-.64.86-.87,1.12a6.59,6.59,0,0,0-.57.8c-.16.35-.32.29-.32.8,0,.06.16.16.32.16a4.85,4.85,0,0,0,1.4-.22,12.27,12.27,0,0,0,1.67-.58,16.17,16.17,0,0,0,1.6-.67c.61-.35.89-.42,1.31-.64a10.07,10.07,0,0,1,1-.48c.48-.19.61-.39,1.06-.58a9.41,9.41,0,0,0,.93-.54,4.62,4.62,0,0,0,.86-.58c.35-.32.77-.48,1-.7s.48-.23.84-.58a1.52,1.52,0,0,1,.83-.51c.13,0,.35.1.51.45a3.09,3.09,0,0,1,.26,1.18c0,.32-.23.55-.77,1.06l-.74.64c-.35.38-1,.77-1.18,1.12s-.77.7-.87,1.09a2.41,2.41,0,0,0-.32,1c0,.19.13.32.32.51a1.89,1.89,0,0,0,1.09.22c.39,0,.67-.09,1-.09s.58-.16.87-.19c.64-.1.86-.36,1.44-.45a8.23,8.23,0,0,0,1.21-.42l.87-.35c.09-.06.44-.19.8-.38s.7-.39.86-.45a4,4,0,0,0,.8-.42,2.48,2.48,0,0,1,.8-.32c.19,0,.29.13.29.39s-.32.32-.67.54c0,0-.45.26-.8.48s-.74.38-1.28.67c-.36.19-.58.26-1,.45a6.34,6.34,0,0,1-.64.29Z"/><path class="cls-1" d="M234.78,17.25c.35-.29,1-.71,1-.71.9-.57,1.12-1,2-1.5a1.28,1.28,0,0,1,.67-.23c.51,0,.83.39,1.18.71a1.29,1.29,0,0,1,.45,1,1,1,0,0,1-.1.42,3.44,3.44,0,0,1-.6.73,3.94,3.94,0,0,0-.87,1.06c-.29.61-.41.61-.41.8s-.1.41-.1.54a.89.89,0,0,0,.06.39,1,1,0,0,0,.39.32,8,8,0,0,0,1.69.12c.26,0,.71-.06,1.28-.12a7.74,7.74,0,0,0,1.06-.23l.61-.19L244,20c.1-.07.42-.16.77-.35s.71-.39.87-.45a4.65,4.65,0,0,0,.8-.42c.48-.22.44-.29.7-.32a.39.39,0,0,1,.38.39c0,.16-.32.32-.67.54l-.8.48c-.38.22-.73.38-1.28.67-.35.19-.57.26-1,.45a10,10,0,0,1-1.05.45c-.52.19-1,.35-1.51.51a11.29,11.29,0,0,1-1.5.32,11.42,11.42,0,0,1-1.89.19c-.13,0-1,0-1.09-.06-.83-.26-.73-.26-1.25-.87a1.05,1.05,0,0,1-.32-.73c0-.26,0,0,0-.51,0-.26,0-.32,0-.48.07-.58.52-1,.52-1.35s0-.45-.29-.45a1.66,1.66,0,0,0-.35.13c-.32.16-.2.13-.58.35s-.32.16-.51.29-.1,0-.48.29a7.49,7.49,0,0,1-.87.51,7.88,7.88,0,0,1-.92.51,1.88,1.88,0,0,1-.58.26.27.27,0,0,1-.29-.26c0-.28.39-.48.67-.67a3.28,3.28,0,0,1,.42-.25c.48-.29.67-.45,1.12-.71s.58-.38,1-.64C234.2,17.66,234.56,17.44,234.78,17.25ZM246,5.82c-1.18,0-1.89-1.37-1.89-2.43,0-.7.93-1.28,1.67-1.28a.54.54,0,0,1,.54.58c0,.35,0,.48,0,.73,0,.71.51,1.09.51,1.8C246.81,5.57,246.46,5.82,246,5.82Z"/><path class="cls-1" d="M267.07,21.47c-.48.19-.77.26-1.06.38a7,7,0,0,1-1.05.42,15.74,15.74,0,0,1-1.67.51,8.85,8.85,0,0,1-1.15.23c-.45,0-.58.06-.93.06a5.19,5.19,0,0,1-1.5-.16c-.42-.16-1.09-.54-1.09-1.15a3.17,3.17,0,0,1,.32-1.63c.22-.42.48-.64.48-.8a.18.18,0,0,0-.16-.2,1.69,1.69,0,0,0-.93.2,13.23,13.23,0,0,0-1.41.67c-.57.35-1.05.41-1.79.8s-1.25.57-1.76.8-1.66.61-2.14.77a5.66,5.66,0,0,1-1.92.38,2,2,0,0,1-.42,0,2.05,2.05,0,0,1-.83-.19.64.64,0,0,1-.45-.61,2.09,2.09,0,0,1,.07-.64c.35-.74.8-.83,1.66-1.73.45-.45.77-.7,1-.93a1.5,1.5,0,0,0,.51-.86.74.74,0,0,0,0-.26c0-.16-.07-.25-.23-.25a1.82,1.82,0,0,0-1,.35c-.06.06-.41.25-.54.38a4.52,4.52,0,0,1-.83.51c-.29.2-.32.16-.52.29s-.09,0-.48.29a7.41,7.41,0,0,1-.86.51,8.49,8.49,0,0,1-.93.51,1.73,1.73,0,0,1-.57.26.27.27,0,0,1-.29-.26c0-.28.38-.48.67-.67a2.65,2.65,0,0,1,.42-.25c.48-.29.67-.45,1.12-.71s.48-.32.86-.57a6.52,6.52,0,0,0,.9-.64c.28-.23.6-.39,1-.71a8,8,0,0,1,.83-.57,10.87,10.87,0,0,0,1.41-1c.26-.22.7-.44.93-.64a7.41,7.41,0,0,1,1.12-.76,1.36,1.36,0,0,1,.67-.23c.58,0,.93.19,1,.87a2,2,0,0,1-.45,1.37,7.3,7.3,0,0,0-.67.8c-.29.64-.57.71-.86,1.09s-.64.86-.87,1.12a6.59,6.59,0,0,0-.57.8c-.16.35-.32.29-.32.8,0,.06.16.16.32.16a4.91,4.91,0,0,0,1.41-.22,12.63,12.63,0,0,0,1.66-.58,16.17,16.17,0,0,0,1.6-.67c.61-.35.9-.42,1.31-.64a10.07,10.07,0,0,1,1-.48c.48-.19.61-.39,1.06-.58a9.41,9.41,0,0,0,.93-.54,4.62,4.62,0,0,0,.86-.58c.35-.32.77-.48,1-.7s.47-.23.83-.58a1.52,1.52,0,0,1,.83-.51c.13,0,.35.1.51.45a3.09,3.09,0,0,1,.26,1.18c0,.32-.23.55-.77,1.06l-.74.64c-.35.38-1,.77-1.18,1.12s-.77.7-.86,1.09a2.25,2.25,0,0,0-.33,1c0,.19.13.32.33.51a1.83,1.83,0,0,0,1.08.22c.39,0,.67-.09,1-.09s.58-.16.87-.19c.64-.1.86-.36,1.44-.45a8.23,8.23,0,0,0,1.21-.42l.87-.35c.09-.06.44-.19.8-.38s.7-.39.86-.45a4,4,0,0,0,.8-.42,2.48,2.48,0,0,1,.8-.32c.19,0,.29.13.29.39s-.32.32-.67.54c0,0-.45.26-.8.48s-.74.38-1.28.67c-.36.19-.58.26-1,.45a6.34,6.34,0,0,1-.64.29Z"/><path class="cls-1" d="M290.65,16.89c-.83.52-.54.26-1.54.93a24,24,0,0,0-2.46,1.95,16,16,0,0,1-1.41,1.16c-.61.48-1.18.92-1.53,1.24s-.83.8-1.35,1.25-.54.61-1.34,1.28-1.89,1.76-2.43,2.27c-.29.29-.67.58-1.44,1.32s-1.35.92-2,1.66A12.53,12.53,0,0,1,273,31.52c-1,.77-2.18,1.76-2.94,2.33s-1.89,1.54-2.92,2.5-1.08,1-2.56,2.46-1.69,1.73-2.78,2.72-1.73,1.79-2.65,2.75S257.25,46,256.57,46h-.12a1.35,1.35,0,0,1-1-1.28.48.48,0,0,1,.06-.22,6.92,6.92,0,0,1,1-1.25,19.89,19.89,0,0,0,1.82-1.63,33.89,33.89,0,0,0,2.72-2.43c.52-.58.9-.9,1.41-1.38.29-.29.61-.64,1.06-1.05,1.18-1.09,1.21-1.31,2.27-2.37a14.29,14.29,0,0,0,1.47-1.73s.87-1,1.89-2.27c.58-.7,1.79-2.3,2.11-2.75a17,17,0,0,0,1.47-2.08L274,23.84c.38-.55.26-.35.7-.93a2.57,2.57,0,0,0,.42-.9A.06.06,0,0,0,275,22a3.69,3.69,0,0,1-.52.1,16,16,0,0,1-1.92.73,15.38,15.38,0,0,0-2,.51,2.8,2.8,0,0,1-.7.1c-.35,0-.58-.06-.77-.06a2,2,0,0,1-.58-.26,1.92,1.92,0,0,1-.64-1.31,2.63,2.63,0,0,1,.55-1.31,5.86,5.86,0,0,1,1.66-1.32,30.92,30.92,0,0,1,3-1.53c.87-.42,3-1.28,3.58-1.51s1.48-.73,2.34-1.05A20.07,20.07,0,0,1,282,13.89a6.77,6.77,0,0,1,1.5-.32,1.69,1.69,0,0,1,.8.19c.52.32.58.57.58.86a.82.82,0,0,1-.13.39,3.24,3.24,0,0,1-.54,1,4.71,4.71,0,0,1-1.79,1.47,4.19,4.19,0,0,1-1.19.48c-.06,0-.09,0-.09-.06s0-.1.13-.2c.28-.44,1.21-.89,1.21-1.56,0-.26-.38-.32-.54-.32a5.81,5.81,0,0,0-1.73.22c-1.18.38-.93.32-2.5.93a15.2,15.2,0,0,0-2.65,1.21,22.1,22.1,0,0,0-2.18,1.09c-.77.55-1.66,1-1.66,1.6a.66.66,0,0,0,.73.71c.29,0,.74-.23.93-.23a11,11,0,0,0,1.73-.45,13.65,13.65,0,0,1,2.3-.67,1,1,0,0,1,.45.07c.74.19.77.28.77.8v.25c0,.48-1.09,1.25-1.31,1.76a12.21,12.21,0,0,1-1.63,2.15L274,27c-.67.89-.87,1-1.22,1.53s-1.05,1.28-1.25,1.6-.73.83-.73,1.06a.12.12,0,0,0,.13.13,6,6,0,0,0,1.88-1.09c.84-.64,1.22-1,2-1.51,1.18-.8,1.66-1.47,2.59-2.11a17,17,0,0,0,1.7-1.47c.7-.58.86-.77,1.44-1.25s1-1,1.57-1.44.8-.8,1.31-1.18.61-.71,1.63-1.47,1-1,1.79-1.57,1.22-1.09,1.76-1.44c.86-.55,1.15-.9,1.76-1.28,1-.61,1.31-1.06,2-1.06.06,0,.12,0,.22,0,.64.07,1,.39,1,.71a1.08,1.08,0,0,1-.67,1.12C292.31,16.54,291.51,16.35,290.65,16.89Z"/></g></g></svg>