<svg xmlns="http://www.w3.org/2000/svg" viewBox="0 0 592.84 350.92"><defs><style>.cls-1{isolation:isolate;}.cls-2,.cls-5{fill:none;stroke-miterlimit:10;}.cls-2{stroke:#000;stroke-width:3px;}.cls-3{mix-blend-mode:multiply;}.cls-4{fill:#ff7d23;fill-rule:evenodd;}.cls-5{stroke:#ff7d23;stroke-width:2.2px;}.cls-6{fill:#231815;}</style></defs><g class="cls-1"><g id="レイヤー_2" data-name="レイヤー 2"><g id="レイヤー_1-2" data-name="レイヤー 1"><line class="cls-2" y1="334.54" x2="238.58" y2="334.54"/><g class="cls-3"><path class="cls-4" d="M30.15,291.38c.09-.17.17-.35.26-.52h.77v-.25a3.51,3.51,0,0,1,1.54-.78c.15-.51,0-.22.26-.51v-.26h1c.09-.17.18-.34.26-.51h.51v-.26c.35-.23.46-.2,1-.25v-.77l.77.25v-.25h.52V287h.51v-.26h.51v-.26h.52v-.25l1.54-.52v-.25h1v-.26h.51V285h.51v-.25h.52v-.26h.77l.51-.77c.32-.18.16.16.26.26a5.85,5.85,0,0,0,1.8-1c.7-.2.58-.06.77-.77.75,0,1.38.06,1.8-.26l.25-.51h.52v-.26l3.34-.77v-.26l1-.25v-.26l1-.26c.09-.17.18-.34.26-.51h1.54v-.26h.52v-.26l1.79-.25v-.26h.26v-.26h-.26v-.25c1.74.6,2-.66,3.86-.77v-.78c.27.11,1,.51,1.54.26l.26-.51h.77v-.26a1.6,1.6,0,0,1,1.54-.51v.25l2.82-.77v-.25h.52v-.26H71v-.26h.51v-.25c.55-.19.79.35,1,.25l.51-.77h1.29v-.26c.29,0,.69.51,1.28.26.09-.17.18-.34.26-.51h1.29v-.26h.77v-.26h1.28l.26-.51h.25v.26a8.29,8.29,0,0,1,2.32-.26v-.51h2v-.26c.32,0,.45.48,1,.26l.26-.52,4.88-.25v-.26h4.62s.11-.39.77-.26v.26h.26v-.26c.36,0-.09.17.26.26h2v.26H99v.25a1.9,1.9,0,0,0,1,.26v.51h.51c.09.51.59,1.55.26,2.32l-.51.25v.77l-.52.26c-.08.34-.17.68-.25,1l-.52.25v.52l-.51.26c-.09.25-.17.51-.26.77l-1,.77v.51l-.77.51v.26h-.51c-.09.26-.17.52-.26.77h-.25l-.52.77-.77.26v.51h-.51v.52h-.52c-.17.64-.13.41-.51.77v.25h-.51l-1.29,1.55h-.51v.51h-.52l-.25.51h-.26l-.26.52h-.51L88,287l-.78.26v.51h-.77c-.08.26-.17.51-.25.77-1.4.39-1.81,1.73-3.34,2.06v.51c-1.46.34-1.62,1.48-3.09,1.8-.15.51,0,.22-.25.51v.77h.25v.26l3.09-1v-.26h.51l.26-.51,1.54-.26.77-1h.51l.52-.52h.51v-.25H88l.51-.78,1-.25c.08-.17.17-.34.25-.52h.52l.77-1c.66-.65,1.5-.75,1.8-1.8a7.89,7.89,0,0,0,3.59-2.83H97v-.51h.51v-.26l.77-.51v-.52l2.06-1.79v-.52l1-.26v-.77h.25c.47-.67.89-.74,1-1.79h.51a5.51,5.51,0,0,1,.77-1.8l.52-.26.51-3.08h-.25c-.09-.43-.18-.86-.26-1.29l-.52-.25v-.52l-.51-.51h-.51l-.52-.77h-.77l-.25-.52h-1v-.25l-1-.26v-.26h-1.8v-.25H95.15v-.26h-.26v.26l-1.54-.26v.26H90v.25h-.26v-.25H89.5v.25l-.77-.25a.7.7,0,0,1-.77.25v-.25H87.7v.25H86.41V267h-2v.26H82.82v.25H81.53v.26h-1V268l-.52-.26V268H79v.25H77.68v.26H76.39v.26h-.77V269h-.77v.26l-2,.26v.26H72v.25l-.77-.25-.26.51a17.68,17.68,0,0,1-2.06.51v-.51c.52-.16.23,0,.52-.26.7-.19.58-.06.77-.77a3.14,3.14,0,0,0,1.8-.77l.25-.51.77-.26.52-.77,1-.26.25-.51h.52l.51-.77h.26c.08-.26.17-.52.25-.77h.52l1.28-1.54h.52v-.52c1-.27.8-.77,1.8-1v-.51a5.08,5.08,0,0,0,3.08-2.31h.51v-.52l.77-.25,2.31-2.57h.52c.24-.88.55-.66.77-1.54H89a2.05,2.05,0,0,1,.52-1h.25v-.51H90c.29-.52,0-.63.51-1,0-1.76-1-2.47-2.56-2.57v-.52L84.87,248l-.77.25V248H81v.25H77.94v.26c-.21,0-.67-.43-1.29-.26v.26h-1v.26c-.42.08-.46-.25-.51-.26h-1v.26a.41.41,0,0,1-.51-.26l-.52.26a.46.46,0,0,0-.51-.26v.26h-1.8V249c-1,.3-.51.52-1.28,1a5.15,5.15,0,0,1-.26,1h.26c.08.34.17.69.25,1H70l.26.77,2.57.77v-.26l.77.26v-.26h.51v-.25h.77v-.26l.52.26v-.26h1v-.26l2.57-.25v-.26h.26v.26l1.29-.26v.26h.25v-.26c1.08-.23,2.66.33,3.34-.26a2.64,2.64,0,0,1,1,.26c-1,1.89-3.1,2.87-4.11,4.62h-.51v.52h-.26L79,258.75h-.51l-.77,1-.77.25-1.29,1.8h-.51v.51a5.23,5.23,0,0,0-2.06,1.55l-.25.51h-.52l-.77,1H71L69.71,267l-.77.26v.51h-.51l-.51.77H67.4l-.51.51c-.09.26-.17.52-.26.78-.28.3-1.4.83-1.54,1s-.17.52-.26.77h-.51v.52c-.92-.25-1.08-.86-1.8-1.29v-.51c-1.2-.36-.71-1.18-2.05-1.54-.18-.7-.35-.58-.52-1.29-.72-.19-.74-.46-1.28-.77v-.51c-1.1-.14-1.07-.6-1.8-1v-.51h-.51c-.09-.35-.18-.69-.26-1-.74-.19-.85-.28-1-1h-.51c-.18-.7-.35-.58-.52-1.28h-.51c-.18-.7-.35-.58-.51-1.29H52.5c-.16-.62-.27-.56-.51-1l-.77-.26V259H51v-.26a3.13,3.13,0,0,0-2.57.77c-.08.26-.17.51-.26.77s.45-.05.26.26h-.26v.77l.52.25c.49.78.51,1.3,1.54,1.55A4.59,4.59,0,0,0,53,265.68v.52c1,.32.27.19.77.77l.77.26v.25a1.91,1.91,0,0,0,1,.52c.31,1.2,1,.81,1.55,1.54.08.26.17.51.25.77h.52c.18.74.27.85,1,1v.51h.52v.26a5.22,5.22,0,0,1,1,.77h.25v.51a26.38,26.38,0,0,0-5.14,2.06l-2.31.51c-.08.17-.17.34-.25.52l-1.29.25V277h-.51v.26l-1,.25v.26l-1.54.26v.25h-.52v.26h-1l-.26.51h-1v.26l-1.28.26v.26H44v.25h-.77c-.08.17-.17.34-.25.52H42l-.26.51h-.77v.26h-.51v.25h-.52l-.25.52h-.77c-.09.17-.18.34-.26.51h-.52l-.51.51h-.51v.26h-.52v.26h-.51v.26h-.51v.25H35v.26h-.51v.26H34V285h-.51v.26h-.77l-.26.51h-.77V286h-.51v.26h-.77l-.26.51h-1c-.7.27-1.54.75-2.31,1a7.25,7.25,0,0,0,.77,3.34Zm.51-25.7.52.26v.52l1,.77v.51l1.28,1c.24.39-.1.78.26,1h.77c.09.05.23.36.51.51v.51a2.91,2.91,0,0,1,1.29.77v.26h.51l.26.51h.51l.26.52h.51l.52.77,1.54.51.51.52h.51c.09.17.18.34.26.51h.77v.26H43v.25h2.31V276h.25v-.26c.57,0,1.48.61,2.32.26l.25-.51h1a4.91,4.91,0,0,1,.77-.77v-1h-.51l-.26-.51-3.85-.26v-.26l-1.54-.26c-.87-.35-.76-.71-2.06-.77-.15-.51,0-.22-.26-.51s0,0-.51,0v-.51a5.83,5.83,0,0,0-1.54-.77c-.28-1-.58-.77-1.29-1.29l-.25-.51-1.29-1-1.8-2.83v-.51l-.51-.26-.51-1-1.29-.25v-.26a5.08,5.08,0,0,0-2.31,1v2.05l.51.26ZM25.53,299.6l.51.25v.52h.26v.77l.77.51c.61.89.26,1.43,1.54,1.8V304l.77.25.26.52h.51l.51.77h.52a4.87,4.87,0,0,0,2,.51l.26-.26c.18.08-.06.2.51.26.27-.34.53-.38.77-.77s.11,0,.26-.51a2,2,0,0,1-.51-.77l-1.8-.26v-.52h-.26c-.46-.53-.52-.16-.77-1h-.51c-.09-.26-.17-.52-.26-.77l-.77-.52c-.41-.55.26-.25-.51-.77v-.77a2.26,2.26,0,0,1-1.55-2h-.51l-.51-1.55h-.52c.41-.4,0-.65-.25-1H26c-.09-.35-.17-.69-.26-1h-.51c-.23-1.09-.79-1.38-1-2.31h-.51c-.27-1-.81-1.15-1-2.32h-.77c.4-.33-.19-1.33-.51-1.79l-.78-.52v-.51A3.94,3.94,0,0,0,19.36,285v-.77h-.51c-.2-.7-.07-.58-.77-.77-.21-.8-.61-1.15-.78-2.05l-.77-.26c-.08-.34-.17-.69-.25-1-.45-.1-1.07-.52-1.29-.51v.26a3.9,3.9,0,0,0-2.31.51c-.15.51,0,.22-.26.51a3.61,3.61,0,0,0,2.57,3.6c.32,1.14,1,.92,1.29,2.05h.51l.26.78h.25c.09.25.18.51.26.77l.52.25v.52l.51.25c.08.35.17.69.26,1l.77.52c.08.25.17.51.25.77h.26v.51l1,.77c.08.26.17.51.26.77l.51.26v.77h.26c.08.26.17.51.25.77l.77.51v1h.26a3,3,0,0,1,.77,1.29C25.49,298.4,25,298.72,25.53,299.6ZM112.62,297l-2.06-.26V297H109v.26h-1v.25h-1.29v.26h-1.28v.26h-1v.25h-1.8v.26h-.51v.26H100.8v.25h-.51v.26H99v.26h-.51v.25H97.2v.26h-.77v.26h-1v.25l-1-.25-.26.51h-.51v.26l-2.31.26v.25h-.78v.26l-1.79.26v.25h-.52v.26l-2.31.26v.25h-.77v.26h-.77v.26H83.07V304h-.51v.25l-.51-.25v.25h-.77v.26H80v.26h-.51V305H78.19v.26h-.51v.26H76.39v.25h-.51V306h-.77v.26l-2.06.25c-.08.18-.17.35-.25.52l-1.54.25v.26h-.52v.26H70a5,5,0,0,1-2.57.77l-.51-2.83h-.26v-.51h-.25V304l-.52-.26v-.77H65.6l.26-.52-.51-.25c-.09-.43-.17-.86-.26-1.29h.26c.08-.43.17-.85.25-1.28h.52c.26-2.13,2.14-2.63,2.57-4.63h.51l.51-1.54h.52v-.26a5.22,5.22,0,0,0,1-.77h.25v-.51H72c.1-1.69.77-3.87-.77-5.14v-.26a4.11,4.11,0,0,0-2.57.26c-1.54,0-2.1.55-2.31,1.8h-.52c-.15.51,0,.22-.26.51-.08.18-.17.35-.25.52l-1.29.25v.26h-.51a4.56,4.56,0,0,1-2.57,1v.51l-2.31.77-.26.52H57.9v.25h-.77l-.26.52H56.1V294a1.92,1.92,0,0,1-1.29.51c-.15.51,0,.22-.25.51v.26h-1v.26a1.8,1.8,0,0,1-1,.25v.52a2.48,2.48,0,0,0-1.28.25v.26h-1V297c-1.08.36-1.88,0-2.57.77h-.26v.77h-.25a2.58,2.58,0,0,0,.51,2.05,1.54,1.54,0,0,0,.77.78h.51v.25l2.57-.25c.09-.18.18-.35.26-.52h.51v-.26H53l.51-.77h.77l.51-.77h.52l.51-.51h.52v-.26h.51v-.25h.51v-.26h.52l.25-.51,1-.26a9,9,0,0,1,2.57-1.29v-.51A2.51,2.51,0,0,0,63,295v-.25l.25.25a2.13,2.13,0,0,0,1-1h.26c-.53,1.1-1.51,2.08-1.8,3.34-1.32.36-.66.72-1.29,1.54l-1.28.77c-.14,1.27-.55,3.39,1.28,3.85.28,1.05.92,1.57,1,2.83H63a24.75,24.75,0,0,0,.77,3.85l-2.57.77v.26h-.52v.26l-1.54.25v.26h-.51v.26H57.9v.25h-.77l-.26.52H56.1v.25l-1,.26v.26H54.3V314l-1,.26v.26H52.5v.26h-.77c-.08.17-.17.34-.26.51H50.7l-.25.51h-.52V316h-1l-.25.51h-.77l-.26.52h-.77l-.26.51-2.31.52-.26.51h-.51l-.26.51h-.77v.26l-1.28.26v.51c-1.28.17-1.25.58-2.06,1l-1,.26-.25.51-1,.26-.26.51H35.8V323h-.51l-.26.51h-.51l-.26.51h-.51c-.09.18-.17.35-.26.52h-.77v.26h-.51c-.09.17-.18.34-.26.51l-1,.26-.51.77h-.52l-.51.77-1.54.51-.26.51h-.51v.26a1.86,1.86,0,0,1-1.29.52,1.19,1.19,0,0,1-.77,1c0,1.51.11,1.77,1,2.32h.51c.16.1.18.35.52.51V333h.25v-.26h1.55l.25-.51c.66-.45.51.26.77-.78h.77v-.51l.77-.26.78-1h.51l.51-.77h.52c.08-.18.17-.35.25-.52h.52l.25-.51,1-.26.52-.77h.51l.51-.77h.52v-.26h.51l.26-.51h.51l.26-.51,2.31-.78.26-.51h.51v-.26l1-.25v-.26h1l.25-.51h.52V322h.51v-.26h.77v-.25h.52l.25-.52h.77v-.26l1-.25v-.26h.52v-.26h.77l.25-.51,3.09-1v-.25h.51v-.26h.51c.09-.17.18-.34.26-.52l1.29-.25v-.26h1.28v-.26l2.31-.77v-.25h.52v-.26l.77.26.25-.52H62v-.25l1.28-.26v-.26l1.54-.26a19.94,19.94,0,0,0,1,5.91v2.57h.26v1.8h.26c-.09.26-.18.52-.26.77h.26v4.11c0,.07.32.08.25.52h-.25c-.2.93.34,1.7.25,2.31h-.25c0,.53.25.51.25.51a4.82,4.82,0,0,1-.25,1.8h.25v.26h-.25q-.13,3.21-.26,6.42c.08.26.17.51.26.77h-.26c-.09.86-.17,1.71-.26,2.57-.49-.22-1.28-.59-1.8-.77H63c-.09-.17-.18-.34-.26-.51-.38-.12-1.32.56-2.06.25-.11,0,0-.35-.77-.51a1.89,1.89,0,0,1-.77.51c.09.43.17.86.26,1.29l.77.25v.26H61l.26.51H62c.08.18.17.35.25.52h.52l.51.77,1,.26v.25c.34.26.68.52,1,.77.51.71.29,1,1.28,1.29.83.78,1.68.14,2.83,0,.08-.26.17-.51.25-.77.38-.5.09-4.82,0-5.65h.52a19.49,19.49,0,0,1-.26-4.37h.26c-.09-.26-.17-.52-.26-.77h.26l-.26-.52h.26v-.25H70v-.26h.26v-3.6a31.94,31.94,0,0,0,0-5.65H70c-.07-.42.25-.46.26-.51-.09-1.12-.17-2.23-.26-3.34h-.26l.26-.26v-.26h-.26v-1.54h-.25l.25-.25v-.26h-.25v-1.29H69.2v-2.31h-.26V316h-.25v-.77h-.26l.26-.77a10.83,10.83,0,0,1-.52-2.06c1.84-.22,3.17-1.23,4.88-1.54v-.51l2.83-.26v-.26h.51v-.25l2.32-.52v-.51l2.82-.26v-.25l1-.26v-.26h1.29v-.26h.51v-.25h1.28l.26-.52h.77v-.25L89,306v-.26h.52v-.25l2.57-.26V305h1v-.25h.52v-.26h1.28v-.26h.77V304h1.8v-.26l3.6-.52c.08.18.17.35.26.52h.51V304l3.34-.26v-.26h.51v-.26H107v-.25l1-.26v-.26l1.54-.25.25-.52h1.29v-.25h.51l.26-.52.77.26a3.64,3.64,0,0,1,.77-1.29A3.66,3.66,0,0,0,112.62,297Z"/><path class="cls-5" d="M30.15,291.38c.09-.17.17-.35.26-.52h.77v-.25a3.51,3.51,0,0,1,1.54-.78c.15-.51,0-.22.26-.51v-.26h1c.09-.17.18-.34.26-.51h.51v-.26c.35-.23.46-.2,1-.25v-.77l.77.25v-.25h.52V287h.51v-.26h.51v-.26h.52v-.25l1.54-.52v-.25h1v-.26h.51V285h.51v-.25h.52v-.26h.77l.51-.77c.32-.18.16.16.26.26a5.85,5.85,0,0,0,1.8-1c.7-.2.58-.06.77-.77.75,0,1.38.06,1.8-.26l.25-.51h.52v-.26l3.34-.77v-.26l1-.25v-.26l1-.26c.09-.17.18-.34.26-.51h1.54v-.26h.52v-.26l1.79-.25v-.26h.26v-.26h-.26v-.25c1.74.6,2-.66,3.86-.77v-.78c.27.11,1,.51,1.54.26l.26-.51h.77v-.26a1.6,1.6,0,0,1,1.54-.51v.25l2.82-.77v-.25h.52v-.26H71v-.26h.51v-.25c.55-.19.79.35,1,.25l.51-.77h1.29v-.26c.29,0,.69.51,1.28.26.09-.17.18-.34.26-.51h1.29v-.26h.77v-.26h1.28l.26-.51h.25v.26a8.29,8.29,0,0,1,2.32-.26v-.51h2v-.26c.32,0,.45.48,1,.26l.26-.52,4.88-.25v-.26h4.62s.11-.39.77-.26v.26h.26v-.26c.36,0-.09.17.26.26h2v.26H99v.25a1.9,1.9,0,0,0,1,.26v.51h.51c.09.51.59,1.55.26,2.32l-.51.25v.77l-.52.26c-.08.34-.17.68-.25,1l-.52.25v.52l-.51.26c-.09.25-.17.51-.26.77l-1,.77v.51l-.77.51v.26h-.51c-.09.26-.17.52-.26.77h-.25l-.52.77-.77.26v.51h-.51v.52h-.52c-.17.64-.13.41-.51.77v.25h-.51l-1.29,1.55h-.51v.51h-.52l-.25.51h-.26l-.26.52h-.51L88,287l-.78.26v.51h-.77c-.08.26-.17.51-.25.77-1.4.39-1.81,1.73-3.34,2.06v.51c-1.46.34-1.62,1.48-3.09,1.8-.15.51,0,.22-.25.51v.77h.25v.26l3.09-1v-.26h.51l.26-.51,1.54-.26.77-1h.51l.52-.52h.51v-.25H88l.51-.78,1-.25c.08-.17.17-.34.25-.52h.52l.77-1c.66-.65,1.5-.75,1.8-1.8a7.89,7.89,0,0,0,3.59-2.83H97v-.51h.51v-.26l.77-.51v-.52l2.06-1.79v-.52l1-.26v-.77h.25c.47-.67.89-.74,1-1.79h.51a5.51,5.51,0,0,1,.77-1.8l.52-.26.51-3.08h-.25c-.09-.43-.18-.86-.26-1.29l-.52-.25v-.52l-.51-.51h-.51l-.52-.77h-.77l-.25-.52h-1v-.25l-1-.26v-.26h-1.8v-.25H95.15v-.26h-.26v.26l-1.54-.26v.26H90v.25h-.26v-.25H89.5v.25l-.77-.25a.7.7,0,0,1-.77.25v-.25H87.7v.25H86.41V267h-2v.26H82.82v.25H81.53v.26h-1V268l-.52-.26V268H79v.25H77.68v.26H76.39v.26h-.77V269h-.77v.26l-2,.26v.26H72v.25l-.77-.25-.26.51a17.68,17.68,0,0,1-2.06.51v-.51c.52-.16.23,0,.52-.26.7-.19.58-.06.77-.77a3.14,3.14,0,0,0,1.8-.77l.25-.51.77-.26.52-.77,1-.26.25-.51h.52l.51-.77h.26c.08-.26.17-.52.25-.77h.52l1.28-1.54h.52v-.52c1-.27.8-.77,1.8-1v-.51a5.08,5.08,0,0,0,3.08-2.31h.51v-.52l.77-.25,2.31-2.57h.52c.24-.88.55-.66.77-1.54H89a2.05,2.05,0,0,1,.52-1h.25v-.51H90c.29-.52,0-.63.51-1,0-1.76-1-2.47-2.56-2.57v-.52L84.87,248l-.77.25V248H81v.25H77.94v.26c-.21,0-.67-.43-1.29-.26v.26h-1v.26c-.42.08-.46-.25-.51-.26h-1v.26a.41.41,0,0,1-.51-.26l-.52.26a.46.46,0,0,0-.51-.26v.26h-1.8V249c-1,.3-.51.52-1.28,1a5.15,5.15,0,0,1-.26,1h.26c.08.34.17.69.25,1H70l.26.77,2.57.77v-.26l.77.26v-.26h.51v-.25h.77v-.26l.52.26v-.26h1v-.26l2.57-.25v-.26h.26v.26l1.29-.26v.26h.25v-.26c1.08-.23,2.66.33,3.34-.26a2.64,2.64,0,0,1,1,.26c-1,1.89-3.1,2.87-4.11,4.62h-.51v.52h-.26L79,258.75h-.51l-.77,1-.77.25-1.29,1.8h-.51v.51a5.23,5.23,0,0,0-2.06,1.55l-.25.51h-.52l-.77,1H71L69.71,267l-.77.26v.51h-.51l-.51.77H67.4l-.51.51c-.09.26-.17.52-.26.78-.28.3-1.4.83-1.54,1s-.17.52-.26.77h-.51v.52c-.92-.25-1.08-.86-1.8-1.29v-.51c-1.2-.36-.71-1.18-2.05-1.54-.18-.7-.35-.58-.52-1.29-.72-.19-.74-.46-1.28-.77v-.51c-1.1-.14-1.07-.6-1.8-1v-.51h-.51c-.09-.35-.18-.69-.26-1-.74-.19-.85-.28-1-1h-.51c-.18-.7-.35-.58-.52-1.28h-.51c-.18-.7-.35-.58-.51-1.29H52.5c-.16-.62-.27-.56-.51-1l-.77-.26V259H51v-.26a3.13,3.13,0,0,0-2.57.77c-.08.26-.17.51-.26.77s.45-.05.26.26h-.26v.77l.52.25c.49.78.51,1.3,1.54,1.55A4.59,4.59,0,0,0,53,265.68v.52c1,.32.27.19.77.77l.77.26v.25a1.91,1.91,0,0,0,1,.52c.31,1.2,1,.81,1.55,1.54.08.26.17.51.25.77h.52c.18.74.27.85,1,1v.51h.52v.26a5.22,5.22,0,0,1,1,.77h.25v.51a26.38,26.38,0,0,0-5.14,2.06l-2.31.51c-.08.17-.17.34-.25.52l-1.29.25V277h-.51v.26l-1,.25v.26l-1.54.26v.25h-.52v.26h-1l-.26.51h-1v.26l-1.28.26v.26H44v.25h-.77c-.08.17-.17.34-.25.52H42l-.26.51h-.77v.26h-.51v.25h-.52l-.25.52h-.77c-.09.17-.18.34-.26.51h-.52l-.51.51h-.51v.26h-.52v.26h-.51v.26h-.51v.25H35v.26h-.51v.26H34V285h-.51v.26h-.77l-.26.51h-.77V286h-.51v.26h-.77l-.26.51h-1c-.7.27-1.54.75-2.31,1a7.25,7.25,0,0,0,.77,3.34Zm.51-25.7.52.26v.52l1,.77v.51l1.28,1c.24.39-.1.78.26,1h.77c.09.05.23.36.51.51v.51a2.91,2.91,0,0,1,1.29.77v.26h.51l.26.51h.51l.26.52h.51l.52.77,1.54.51.51.52h.51c.09.17.18.34.26.51h.77v.26H43v.25h2.31V276h.25v-.26c.57,0,1.48.61,2.32.26l.25-.51h1a4.91,4.91,0,0,1,.77-.77v-1h-.51l-.26-.51-3.85-.26v-.26l-1.54-.26c-.87-.35-.76-.71-2.06-.77-.15-.51,0-.22-.26-.51s0,0-.51,0v-.51a5.83,5.83,0,0,0-1.54-.77c-.28-1-.58-.77-1.29-1.29l-.25-.51-1.29-1-1.8-2.83v-.51l-.51-.26-.51-1-1.29-.25v-.26a5.08,5.08,0,0,0-2.31,1v2.05l.51.26ZM25.53,299.6l.51.25v.52h.26v.77l.77.51c.61.89.26,1.43,1.54,1.8V304l.77.25.26.52h.51l.51.77h.52a4.87,4.87,0,0,0,2,.51l.26-.26c.18.08-.06.2.51.26.27-.34.53-.38.77-.77s.11,0,.26-.51a2,2,0,0,1-.51-.77l-1.8-.26v-.52h-.26c-.46-.53-.52-.16-.77-1h-.51c-.09-.26-.17-.52-.26-.77l-.77-.52c-.41-.55.26-.25-.51-.77v-.77a2.26,2.26,0,0,1-1.55-2h-.51l-.51-1.55h-.52c.41-.4,0-.65-.25-1H26c-.09-.35-.17-.69-.26-1h-.51c-.23-1.09-.79-1.38-1-2.31h-.51c-.27-1-.81-1.15-1-2.32h-.77c.4-.33-.19-1.33-.51-1.79l-.78-.52v-.51A3.94,3.94,0,0,0,19.36,285v-.77h-.51c-.2-.7-.07-.58-.77-.77-.21-.8-.61-1.15-.78-2.05l-.77-.26c-.08-.34-.17-.69-.25-1-.45-.1-1.07-.52-1.29-.51v.26a3.9,3.9,0,0,0-2.31.51c-.15.51,0,.22-.26.51a3.61,3.61,0,0,0,2.57,3.6c.32,1.14,1,.92,1.29,2.05h.51l.26.78h.25c.09.25.18.51.26.77l.52.25v.52l.51.25c.08.35.17.69.26,1l.77.52c.08.25.17.51.25.77h.26v.51l1,.77c.08.26.17.51.26.77l.51.26v.77h.26c.08.26.17.51.25.77l.77.51v1h.26a3,3,0,0,1,.77,1.29C25.49,298.4,25,298.72,25.53,299.6ZM112.62,297l-2.06-.26V297H109v.26h-1v.25h-1.29v.26h-1.28v.26h-1v.25h-1.8v.26h-.51v.26H100.8v.25h-.51v.26H99v.26h-.51v.25H97.2v.26h-.77v.26h-1v.25l-1-.25-.26.51h-.51v.26l-2.31.26v.25h-.78v.26l-1.79.26v.25h-.52v.26l-2.31.26v.25h-.77v.26h-.77v.26H83.07V304h-.51v.25l-.51-.25v.25h-.77v.26H80v.26h-.51V305H78.19v.26h-.51v.26H76.39v.25h-.51V306h-.77v.26l-2.06.25c-.08.18-.17.35-.25.52l-1.54.25v.26h-.52v.26H70a5,5,0,0,1-2.57.77l-.51-2.83h-.26v-.51h-.25V304l-.52-.26v-.77H65.6l.26-.52-.51-.25c-.09-.43-.17-.86-.26-1.29h.26c.08-.43.17-.85.25-1.28h.52c.26-2.13,2.14-2.63,2.57-4.63h.51l.51-1.54h.52v-.26a5.22,5.22,0,0,0,1-.77h.25v-.51H72c.1-1.69.77-3.87-.77-5.14v-.26a4.11,4.11,0,0,0-2.57.26c-1.54,0-2.1.55-2.31,1.8h-.52c-.15.51,0,.22-.26.51-.08.18-.17.35-.25.52l-1.29.25v.26h-.51a4.56,4.56,0,0,1-2.57,1v.51l-2.31.77-.26.52H57.9v.25h-.77l-.26.52H56.1V294a1.92,1.92,0,0,1-1.29.51c-.15.51,0,.22-.25.51v.26h-1v.26a1.8,1.8,0,0,1-1,.25v.52a2.48,2.48,0,0,0-1.28.25v.26h-1V297c-1.08.36-1.88,0-2.57.77h-.26v.77h-.25a2.58,2.58,0,0,0,.51,2.05,1.54,1.54,0,0,0,.77.78h.51v.25l2.57-.25c.09-.18.18-.35.26-.52h.51v-.26H53l.51-.77h.77l.51-.77h.52l.51-.51h.52v-.26h.51v-.25h.51v-.26h.52l.25-.51,1-.26a9,9,0,0,1,2.57-1.29v-.51A2.51,2.51,0,0,0,63,295v-.25l.25.25a2.13,2.13,0,0,0,1-1h.26c-.53,1.1-1.51,2.08-1.8,3.34-1.32.36-.66.72-1.29,1.54l-1.28.77c-.14,1.27-.55,3.39,1.28,3.85.28,1.05.92,1.57,1,2.83H63a24.75,24.75,0,0,0,.77,3.85l-2.57.77v.26h-.52v.26l-1.54.25v.26h-.51v.26H57.9v.25h-.77l-.26.52H56.1v.25l-1,.26v.26H54.3V314l-1,.26v.26H52.5v.26h-.77c-.08.17-.17.34-.26.51H50.7l-.25.51h-.52V316h-1l-.25.51h-.77l-.26.52h-.77l-.26.51-2.31.52-.26.51h-.51l-.26.51h-.77v.26l-1.28.26v.51c-1.28.17-1.25.58-2.06,1l-1,.26-.25.51-1,.26-.26.51H35.8V323h-.51l-.26.51h-.51l-.26.51h-.51c-.09.18-.17.35-.26.52h-.77v.26h-.51c-.09.17-.18.34-.26.51l-1,.26-.51.77h-.52l-.51.77-1.54.51-.26.51h-.51v.26a1.86,1.86,0,0,1-1.29.52,1.19,1.19,0,0,1-.77,1c0,1.51.11,1.77,1,2.32h.51c.16.1.18.35.52.51V333h.25v-.26h1.55l.25-.51c.66-.45.51.26.77-.78h.77v-.51l.77-.26.78-1h.51l.51-.77h.52c.08-.18.17-.35.25-.52h.52l.25-.51,1-.26.52-.77h.51l.51-.77h.52v-.26h.51l.26-.51h.51l.26-.51,2.31-.78.26-.51h.51v-.26l1-.25v-.26h1l.25-.51h.52V322h.51v-.26h.77v-.25h.52l.25-.52h.77v-.26l1-.25v-.26h.52v-.26h.77l.25-.51,3.09-1v-.25h.51v-.26h.51c.09-.17.18-.34.26-.52l1.29-.25v-.26h1.28v-.26l2.31-.77v-.25h.52v-.26l.77.26.25-.52H62v-.25l1.28-.26v-.26l1.54-.26a19.94,19.94,0,0,0,1,5.91v2.57h.26v1.8h.26c-.09.26-.18.52-.26.77h.26v4.11c0,.07.32.08.25.52h-.25c-.2.93.34,1.7.25,2.31h-.25c0,.53.25.51.25.51a4.82,4.82,0,0,1-.25,1.8h.25v.26h-.25q-.13,3.21-.26,6.42c.08.26.17.51.26.77h-.26c-.09.86-.17,1.71-.26,2.57-.49-.22-1.28-.59-1.8-.77H63c-.09-.17-.18-.34-.26-.51-.38-.12-1.32.56-2.06.25-.11,0,0-.35-.77-.51a1.89,1.89,0,0,1-.77.51c.09.43.17.86.26,1.29l.77.25v.26H61l.26.51H62c.08.18.17.35.25.52h.52l.51.77,1,.26v.25c.34.26.68.52,1,.77.51.71.29,1,1.28,1.29.83.78,1.68.14,2.83,0,.08-.26.17-.51.25-.77.38-.5.09-4.82,0-5.65h.52a19.49,19.49,0,0,1-.26-4.37h.26c-.09-.26-.17-.52-.26-.77h.26l-.26-.52h.26v-.25H70v-.26h.26v-3.6a31.94,31.94,0,0,0,0-5.65H70c-.07-.42.25-.46.26-.51-.09-1.12-.17-2.23-.26-3.34h-.26l.26-.26v-.26h-.26v-1.54h-.25l.25-.25v-.26h-.25v-1.29H69.2v-2.31h-.26V316h-.25v-.77h-.26l.26-.77a10.83,10.83,0,0,1-.52-2.06c1.84-.22,3.17-1.23,4.88-1.54v-.51l2.83-.26v-.26h.51v-.25l2.32-.52v-.51l2.82-.26v-.25l1-.26v-.26h1.29v-.26h.51v-.25h1.28l.26-.52h.77v-.25L89,306v-.26h.52v-.25l2.57-.26V305h1v-.25h.52v-.26h1.28v-.26h.77V304h1.8v-.26l3.6-.52c.08.18.17.35.26.52h.51V304l3.34-.26v-.26h.51v-.26H107v-.25l1-.26v-.26l1.54-.25.25-.52h1.29v-.25h.51l.26-.52.77.26a3.64,3.64,0,0,1,.77-1.29A3.66,3.66,0,0,0,112.62,297Z"/></g><g class="cls-3"><path class="cls-4" d="M217.53,319.41l-1.77.3v-.3c-.8-.22-.67-.07-.88-.88h-.59v-.59h-.59c-.3-1.06-1.13-1.6-1.77-2.36h-.29V315l-.89-.58v-.59l-.58-.3v-.59l-.59-.29-.3-1.18H209v-.59h-.3c-.19-.59-.39-1.18-.59-1.77h-.29l-.3-2.06h-.29v-.88h-.3v-.89h-.29v-1.76a32.71,32.71,0,0,1-.29-11.49c.09-1.38.19-2.75.29-4.13h.29v-1.18h.3v-.88h.29V285l.89-.59v-.89h.29a.8.8,0,0,0-.29-.88l.29-.89c-.72-.42-.82-.94-1.77-1.17v-.3c-.54-.18-.41.17-.58.3-1.31,0-1.15-.1-1.77.59h-.3c-.09.49-.19,1-.29,1.47h-.3v.88l-.58.3v.59h-.3v.88h-.29v.59h-.3v.59h-.29l-.3.88-.88.59-.3,1.77-.88.59v.88c-.49.82-1,.13-1.18,1.77h-.59c-.39,1.08-.78,2.16-1.18,3.24l-.88.59c-.1.29-.2.59-.29.88h-.3c-.1.4-.2.79-.29,1.18l-.59.3v.59H194c-.1.29-.19.58-.29.88h-.59l-.3.88h-.29V302h-.3v.59l-.58.3v.59l-.89.58v.59l-.59.3c-.1.39-.19.78-.29,1.18l-.59.29V307l-.88.59v.59l-.89.59v.59l-.59.29-.29.89h-.3c-.1.39-.19.78-.29,1.17l-.59.3-.3.88-1.47,1.18c-.1.39-.2.79-.29,1.18l-1.18.88v.59l-.59.3v.59l-1.18.88c-.1.39-.2.79-.29,1.18h-.3c-.1.29-.19.59-.29.88l-.59.3v.59l-1.48.88V323l-.58.29-.3,1.18-.59.3v.59l-.88.59v.58l-.59.3-.3.88h-.29a3,3,0,0,0-.88,1.48h-.59l-.3.58h-.29v.59l-.59.3c-.65.68-1.82,1.67-2.06,2.65a5.46,5.46,0,0,0-2.07,1.47v.3h-.59l-.29.59-1.18.29v.3l-1.77.59v.29a6.19,6.19,0,0,1-3.53-.29c-2.34-.59-2.57-3.62-3.24-5.9v-3.24h-.3l.3-2.35h-.3c-.09-.6.3-.59.3-.59V320h.29l.3-7.07h.29v-1.18h.3V309.1H158v-2.35h.3v-.89h.29v-1.77h.29v-1.17h.3v-2.07h.29v-1.17h.3V298.5h.29l.3-1.77h.29v-.59h.3l-.3-.59h.3V295h.29c.2-.88.39-1.77.59-2.65h.3c.19-.59.39-1.18.58-1.77h.3v-.88l.59-.3v-.58h.29c.53-1.38-.39-2.7-.59-3.54l-2.06-.29v.29h-1.18l-.59.88-1.76.59c-.2.3-.4.59-.59.89h-.89l-.29.59h-.59v.29l-.88.3v.58l-1.48.3c-.41,1.62-.49.62-1.47,1.18-.1.19-.2.39-.29.59h-.59v.29h-.59l-.3.59-.88.29v.3l-1.47.29c-.2.3-.4.59-.59.89h-.89v.29h-.59c-.1.2-.19.4-.29.59h-.59v.3h-.88l-.59.88h-.89v.3l-1.77.29v-.29c-1.91,0-1.81.79-2.94,1.47v1.18h-.3l.3,1.76h.29v.3h.89l.59.88,1.17-.29V302l2.66-.88c.09-.2.19-.39.29-.59l1.18-.3.29-.58,1.77-.59.59-.89,1.47-.29c.35-1.2.13-.34.89-.89.1-.19.19-.39.29-.58h.59l.3-.59h.59c.09-.2.19-.4.29-.59l1.18-.3c.1-.19.19-.39.29-.59h.89l.29-.59,1.18-.29c.1-.2.2-.39.29-.59.86-.57,1.71-.73,2.36-1.47h.3l-.3,1.17h-.29v1.18h-.3v.59h-.29v1.18l-.59.3v1.76h-.3v1.18H156V300h-.3v1.18h-.29v1.18h-.29v2.35c-.7,2.36-.78,5.54-1.48,8v2.65h-.29v2.06H153c-.17.68.36.82.3,1.18H153v3.83c0,.1-.4.07-.29.59H153c-.18,1.46-.76,5.2-.29,7.07H153c.12.56-.22.42-.29.59v.29H153v1.77h.3v1.47h.29V335h.3v.59h.29v.88l.59.3v.58L156,338v.59h.29c.2.3.4.59.59.89h.89v.29h.59c.09.2.19.39.29.59h.88v.29H161v.3l.88-.3h2.06v-.29h.89V340h.88l.3-.59h.58v-.3l1.18-.29c.2-.3.4-.59.59-.89h.59l.59-.88c.76-.68,1.13-.18,1.47-1.47,1.41-.4,1.25-1.4,2.66-1.77.09-.39.19-.79.29-1.18,1-.25,2.43-2.25,2.65-3.24,1.41-.4.35-.26.88-1.18.08-.13.42-.23.59-.59h.59c.36-1.31,1.3-1.47,1.48-2.94h.59a3.26,3.26,0,0,1,.88-1.48h.29v-.59l.59-.29v-.59h.3a2.35,2.35,0,0,0,.59-1.18H184a3.75,3.75,0,0,1,.88-1.77h.29v-.58l.59-.3.3-1.18,1.18-.88v-.59l.59-.3-.3-.58,2.06-1.77v-.59l.89-.59c.1-.39.19-.79.29-1.18l.59-.29.3-1.18,1.17-.89c.56-.78.68-1.53,1.48-2.06V305h.59a2.4,2.4,0,0,1,.59-1.18h.29c.2-.59.39-1.18.59-1.77l.88-.59.3-1.47,1.18-.88c.09-.4.19-.79.29-1.18h.3v-.59l.88-.59v-.59a8.4,8.4,0,0,1,1.47-2.06v-.3h.3v1.77h-.3v.3h.3v5h.29v1.77h.3c.09,1.38.19,2.75.29,4.13h.3v.88h.29v.59h.29L204,310l.59.29v1.18h.29l.3,1.18h.29l.3,1.18.59.29c.09.39.19.79.29,1.18l.59.29c.71,1.07.94,2,2.06,2.66v.58c1.06.29,1.24,1,2.06,1.48v.59l.89.29v.3l.88.29.3.59a11.5,11.5,0,0,0,3.53.88,6.64,6.64,0,0,1,1.77-1.17C218.7,320.7,218.47,319.77,217.53,319.41ZM237,285c0-2.27-.43-2.21-1.17-3.54l-2.36-.29-.3,1.17h-.29v1.77h.29l.3,3.24h-.3v.3h.3c0,2.75.27,2,1.18,3.53a4.29,4.29,0,0,0,1.76-.59C236.73,289.74,238.06,286.08,237,285Zm-12.07,1.47c-.35-1.27.57-1.93,0-2.65-.08-1.34-.42-1.26-.89-2.07-.59-.17-.25.05-.59-.29a4.54,4.54,0,0,0-2.94.59l-.3,2.95h.3v.58h.29l.3,3.25h.29c.1.88.2,1.76.29,2.65l.89.59v.88h.29l.3.88c.59.18.25,0,.59.3,1.28-.17,1-.65,1.76-1.18q-.14-3.24-.29-6.48Z"/><path class="cls-5" d="M217.53,319.41l-1.77.3v-.3c-.8-.22-.67-.07-.88-.88h-.59v-.59h-.59c-.3-1.06-1.13-1.6-1.77-2.36h-.29V315l-.89-.58v-.59l-.58-.3v-.59l-.59-.29-.3-1.18H209v-.59h-.3c-.19-.59-.39-1.18-.59-1.77h-.29l-.3-2.06h-.29v-.88h-.3v-.89h-.29v-1.76a32.71,32.71,0,0,1-.29-11.49c.09-1.38.19-2.75.29-4.13h.29v-1.18h.3v-.88h.29V285l.89-.59v-.89h.29a.8.8,0,0,0-.29-.88l.29-.89c-.72-.42-.82-.94-1.77-1.17v-.3c-.54-.18-.41.17-.58.3-1.31,0-1.15-.1-1.77.59h-.3c-.09.49-.19,1-.29,1.47h-.3v.88l-.58.3v.59h-.3v.88h-.29v.59h-.3v.59h-.29l-.3.88-.88.59-.3,1.77-.88.59v.88c-.49.82-1,.13-1.18,1.77h-.59c-.39,1.08-.78,2.16-1.18,3.24l-.88.59c-.1.29-.2.59-.29.88h-.3c-.1.4-.2.79-.29,1.18l-.59.3v.59H194c-.1.29-.19.58-.29.88h-.59l-.3.88h-.29V302h-.3v.59l-.58.3v.59l-.89.58v.59l-.59.3c-.1.39-.19.78-.29,1.18l-.59.29V307l-.88.59v.59l-.89.59v.59l-.59.29-.29.89h-.3c-.1.39-.19.78-.29,1.17l-.59.3-.3.88-1.47,1.18c-.1.39-.2.79-.29,1.18l-1.18.88v.59l-.59.3v.59l-1.18.88c-.1.39-.2.79-.29,1.18h-.3c-.1.29-.19.59-.29.88l-.59.3v.59l-1.48.88V323l-.58.29-.3,1.18-.59.3v.59l-.88.59v.58l-.59.3-.3.88h-.29a3,3,0,0,0-.88,1.48h-.59l-.3.58h-.29v.59l-.59.3c-.65.68-1.82,1.67-2.06,2.65a5.46,5.46,0,0,0-2.07,1.47v.3h-.59l-.29.59-1.18.29v.3l-1.77.59v.29a6.19,6.19,0,0,1-3.53-.29c-2.34-.59-2.57-3.62-3.24-5.9v-3.24h-.3l.3-2.35h-.3c-.09-.6.3-.59.3-.59V320h.29l.3-7.07h.29v-1.18h.3V309.1H158v-2.35h.3v-.89h.29v-1.77h.29v-1.17h.3v-2.07h.29v-1.17h.3V298.5h.29l.3-1.77h.29v-.59h.3l-.3-.59h.3V295h.29c.2-.88.39-1.77.59-2.65h.3c.19-.59.39-1.18.58-1.77h.3v-.88l.59-.3v-.58h.29c.53-1.38-.39-2.7-.59-3.54l-2.06-.29v.29h-1.18l-.59.88-1.76.59c-.2.3-.4.59-.59.89h-.89l-.29.59h-.59v.29l-.88.3v.58l-1.48.3c-.41,1.62-.49.62-1.47,1.18-.1.19-.2.39-.29.59h-.59v.29h-.59l-.3.59-.88.29v.3l-1.47.29c-.2.3-.4.59-.59.89h-.89v.29h-.59c-.1.2-.19.4-.29.59h-.59v.3h-.88l-.59.88h-.89v.3l-1.77.29v-.29c-1.91,0-1.81.79-2.94,1.47v1.18h-.3l.3,1.76h.29v.3h.89l.59.88,1.17-.29V302l2.66-.88c.09-.2.19-.39.29-.59l1.18-.3.29-.58,1.77-.59.59-.89,1.47-.29c.35-1.2.13-.34.89-.89.1-.19.19-.39.29-.58h.59l.3-.59h.59c.09-.2.19-.4.29-.59l1.18-.3c.1-.19.19-.39.29-.59h.89l.29-.59,1.18-.29c.1-.2.2-.39.29-.59.86-.57,1.71-.73,2.36-1.47h.3l-.3,1.17h-.29v1.18h-.3v.59h-.29v1.18l-.59.3v1.76h-.3v1.18H156V300h-.3v1.18h-.29v1.18h-.29v2.35c-.7,2.36-.78,5.54-1.48,8v2.65h-.29v2.06H153c-.17.68.36.82.3,1.18H153v3.83c0,.1-.4.07-.29.59H153c-.18,1.46-.76,5.2-.29,7.07H153c.12.56-.22.42-.29.59v.29H153v1.77h.3v1.47h.29V335h.3v.59h.29v.88l.59.3v.58L156,338v.59h.29c.2.3.4.59.59.89h.89v.29h.59c.09.2.19.39.29.59h.88v.29H161v.3l.88-.3h2.06v-.29h.89V340h.88l.3-.59h.58v-.3l1.18-.29c.2-.3.4-.59.59-.89h.59l.59-.88c.76-.68,1.13-.18,1.47-1.47,1.41-.4,1.25-1.4,2.66-1.77.09-.39.19-.79.29-1.18,1-.25,2.43-2.25,2.65-3.24,1.41-.4.35-.26.88-1.18.08-.13.42-.23.59-.59h.59c.36-1.31,1.3-1.47,1.48-2.94h.59a3.26,3.26,0,0,1,.88-1.48h.29v-.59l.59-.29v-.59h.3a2.35,2.35,0,0,0,.59-1.18H184a3.75,3.75,0,0,1,.88-1.77h.29v-.58l.59-.3.3-1.18,1.18-.88v-.59l.59-.3-.3-.58,2.06-1.77v-.59l.89-.59c.1-.39.19-.79.29-1.18l.59-.29.3-1.18,1.17-.89c.56-.78.68-1.53,1.48-2.06V305h.59a2.4,2.4,0,0,1,.59-1.18h.29c.2-.59.39-1.18.59-1.77l.88-.59.3-1.47,1.18-.88c.09-.4.19-.79.29-1.18h.3v-.59l.88-.59v-.59a8.4,8.4,0,0,1,1.47-2.06v-.3h.3v1.77h-.3v.3h.3v5h.29v1.77h.3c.09,1.38.19,2.75.29,4.13h.3v.88h.29v.59h.29L204,310l.59.29v1.18h.29l.3,1.18h.29l.3,1.18.59.29c.09.39.19.79.29,1.18l.59.29c.71,1.07.94,2,2.06,2.66v.58c1.06.29,1.24,1,2.06,1.48v.59l.89.29v.3l.88.29.3.59a11.5,11.5,0,0,0,3.53.88,6.64,6.64,0,0,1,1.77-1.17C218.7,320.7,218.47,319.77,217.53,319.41ZM237,285c0-2.27-.43-2.21-1.17-3.54l-2.36-.29-.3,1.17h-.29v1.77h.29l.3,3.24h-.3v.3h.3c0,2.75.27,2,1.18,3.53a4.29,4.29,0,0,0,1.76-.59C236.73,289.74,238.06,286.08,237,285Zm-12.07,1.47c-.35-1.27.57-1.93,0-2.65-.08-1.34-.42-1.26-.89-2.07-.59-.17-.25.05-.59-.29a4.54,4.54,0,0,0-2.94.59l-.3,2.95h.3v.58h.29l.3,3.25h.29c.1.88.2,1.76.29,2.65l.89.59v.88h.29l.3.88c.59.18.25,0,.59.3,1.28-.17,1-.65,1.76-1.18q-.14-3.24-.29-6.48Z"/></g><path class="cls-6" d="M12.08,30.62H2.64V25.86H17V46.77c1.94,3.48,6.9,6.29,13,7a83.42,83.42,0,0,0,8.78.41,208.05,208.05,0,0,0,24-1.54l-3.41,5.82c-5,.41-12.6.88-19.43.88-9.52,0-19.17-.54-25.53-8.11a63.65,63.65,0,0,1-8.64,7,2.78,2.78,0,0,1,.26,1.14c0,.47-.2.74-.47.74s-.67-.2-1.14-.67C3.37,58.29.56,54.94.56,54.94A54.73,54.73,0,0,0,12.08,47.1ZM8.87,2a65.09,65.09,0,0,1,10.18,9.51l-4.22,3.69A47.55,47.55,0,0,0,5.05,4.89ZM24.41,20.5a48.51,48.51,0,0,1-3.28,4.22l-5-1.81C25.08,14.81,28.83,3.75,29.64.54c5.09,1.67,6.09,2.21,6.09,2.81s-.67.8-1.74.8h-.33s-1.34,2.95-3.49,7h10A67.74,67.74,0,0,0,44.71.8c.07,0,6.37,1.41,6.37,2.82,0,.4-.6.8-1.68.8a2.8,2.8,0,0,1-.73-.07S47,7.84,45.25,11.12h13.8v4.22H44.24V21H57.38v4.15H44.24v6.23H57.38v4.16H44.24v7.23H60.06v4.36H28.83v2.88H24.21ZM39.62,21v-5.7H28.83V21Zm0,10.38V25.19H28.83v6.23Zm0,11.39V35.58H28.83v7.23Z"/><path class="cls-6" d="M95.57,36.45c.06-2.28.26-9.25.46-14.21a75.12,75.12,0,0,1-8.57,10.05l-5-2.74c12-9.38,18.5-24.59,19.63-28.48,0,0,3.42,1.14,5.57,2,.6.27.8.61.8.87s-.27.87-1.47.87c-.21,0-.41-.06-.67-.06A104.68,104.68,0,0,1,99.52,17c1,.06,1.87.13,2.08.13,1.07.14,1.54.47,1.54.87s-.81,1.08-2,1.34c-.14,1.68-.2,4-.2,4l-.47,37.06h-5.3Zm18-28.14s-.07-4.56-.2-6.5c0,0,4.49.2,6.37.47.73.06,1.2.47,1.2.87s-.53.94-1.87,1.2c-.07.94-.14,2.15-.14,4.09,0,4.36,0,11.19-.07,18.09,10.59-6.76,15.48-11.92,17.49-15.14a56.11,56.11,0,0,1,4.89,3.89,1.45,1.45,0,0,1,.61,1.07c0,.4-.27.67-.94.67a4.7,4.7,0,0,1-1.48-.27c-4.82,4.69-14.2,12.06-20.57,15.61v18c0,2.62,2,3.22,7.71,3.22,11.26,0,11.39-2.28,11.39-14.61l5.43,4.36c-1,13.33-4,15.28-17,15.28-6,0-12.94-.21-12.94-7.37Z"/><path class="cls-6" d="M208.73,43.22c-4.89,6.09-15.34,13.86-24.79,13.86-14.41,0-15.14-10.85-15.14-18.42,0-8.31,1.27-17.89,1.27-27.4,0-1.68-.07-3.29-.13-5a57.1,57.1,0,0,1,6.9.67c.87.13,1.2.53,1.2.94,0,.6-.73,1.27-1.87,1.4-.47,10.39-2,22.11-2,29.75,0,7.91,1.6,12.4,9.58,12.4,11.19,0,20.3-11.66,22.71-15Z"/><path class="cls-6" d="M230.37,56.75c4.42-8.71,5.36-19.3,5.36-19.3s2.75.54,5,1.14a1.07,1.07,0,0,1,.87.94c0,.4-.47.87-1.88.94a99.09,99.09,0,0,1-4.22,17.15Zm12.26-24.19c-2.68.4-5.43.74-7.84,1-.07,1.07-.47,2.07-.94,2.07s-.73-.4-1.07-1.54a42.18,42.18,0,0,1-1.21-5l4.36-.21c1.47-1.94,3-4,4.42-6.16a47.6,47.6,0,0,0-8-8.24l2.15-3.69c.67.61,1.34,1.14,2,1.75C239.41,8.51,242.63,0,242.63,0s2.81,1.41,5,2.75a1.35,1.35,0,0,1,.53,1c0,.34-.26.67-1,.67a8.21,8.21,0,0,1-1-.13,120.55,120.55,0,0,1-6.7,11.19c1.28,1.34,2.42,2.61,3.29,3.62a100.44,100.44,0,0,0,6.83-12.53A34.08,34.08,0,0,1,254,9.38a1.84,1.84,0,0,1,.74,1.21c0,.4-.34.73-1.28.73a3.64,3.64,0,0,1-.8-.06c-.47.87-6.43,10.31-11.59,17.28,3.95-.4,7.5-.94,9.78-1.34a35.1,35.1,0,0,0-2.75-6.56l3.76-1.75A69.52,69.52,0,0,1,257.17,34l-3.82,2.34c-.27-1.61-.74-3.48-1.27-5.43-1.34.27-3.08.54-5,.88l.13,28.81h-4.69ZM253,53.94a74.87,74.87,0,0,0-4.23-15.41l3.89-1.48a120.62,120.62,0,0,1,4.62,14.34Zm-2.08,3.14c15.21-3.08,15.54-12.73,15.54-19.29a54.82,54.82,0,0,0-.27-5.83s4.76.13,5.83.33c.74.14,1.28.54,1.28.94s-.54.94-1.81,1.28c0,.93-.07,1.6-.07,3.35,0,6.7-.6,17.48-14.81,22.84Zm8.37-41.54h11.8V10.32H257.57V6.1h13.54V4.56s0-1.95-.21-4.16c0,0,4.43.2,5.77.4.67.14,1,.47,1,.87s-.53,1-1.81,1.21a24.22,24.22,0,0,0-.13,2.48V6.1h14.2v4.22h-14.2v5.22h13.53V19.9H259.31Zm-1.14,8.78h32.17v13.6h-4.69V28.54H262.73v9.58h-4.56Zm17.36,13s-.07-2.61-.2-5.49a55.54,55.54,0,0,1,6,.46c.67.14,1.14.47,1.14.88s-.54,1-1.88,1.27c-.13,1.41-.13,3.82-.13,3.82l-.07,15c0,1.13.33,1.74,2.68,1.74,3.75,0,4.76-1.61,4.76-8V46l4.95,4.22c-.8,8-3.68,9.72-10.11,9.72-2.28,0-7.24-.2-7.24-5.5Z"/><path class="cls-6" d="M321.29,53.6c-2.28-3.42-3.69-10.38-3.69-17,0-.67.07-1.41.07-2.08.67-13.13,3.08-22.58,3.48-29.14,0-.34.07-.41.27-.41a.73.73,0,0,1,.34.07s3.28,1.07,5.56,1.74c.67.21,1.14.61,1.14.94s-.54.74-1.95.81c-.8,4.55-3.55,14.33-4.08,23.51-.07,1.41-.27,3.35-.27,5.16,0,2.35.33,3,.54,3s.53-1.07.8-2c.74-2.14,3.95-11.12,3.95-11.12S328.79,30,329.73,32c-.4,1.34-2.08,5.83-2.81,8.58a34.27,34.27,0,0,0-1.48,9.31c0,.8.07,1.61.14,2.41v.2c0,.2-.07.27-.34.34Zm11.19-36.78a.5.5,0,0,1-.07-.27c0-.2.07-.27.27-.27h.13a34.4,34.4,0,0,0,9.92,1.48,56,56,0,0,0,7.84-.61c-.2-4.69-.47-9.24-.74-12.26.6.07,4.76.13,6.17.2,1.07.07,1.54.4,1.54.74s-.61.94-1.68,1.14c-.07.87-.13,2.21-.13,3.82s.06,3.41.06,5.49c3.22-.6,6.5-1.34,9.79-2.21l.2,5c-3.35.73-6.7,1.34-9.92,1.87.07,2.41.14,4.89.14,7.37,0,14.21-1.68,22-16.35,29.75-2.68-1.81-6.37-4-6.37-4,13.2-4.76,17.62-9.85,17.62-24.59,0-2.28-.06-5-.13-7.84a69.79,69.79,0,0,1-9.92.8,31.61,31.61,0,0,1-7.17-.8Z"/><path class="cls-6" d="M385.54,39.33a.37.37,0,0,1-.2-.27.59.59,0,0,1,.2-.4c5-4.69,9.31-8,11.26-10,9.58-9.52,16.95-17.09,16.95-17.49,0-.07,0-.07-.14-.07a3.28,3.28,0,0,0-.67.2c-5.82,2.21-10.85,3.55-16,3.55h-1.07L394,10.05a1,1,0,0,1-.13-.4c0-.14.13-.2.33-.2h.21a33.66,33.66,0,0,0,4.48.26,57.2,57.2,0,0,0,17.22-3.08c.67-.2.94-.67,1.34-.67.61,0,3.82,2.42,4.89,3.29a.89.89,0,0,1,.34.6c0,.4-.47.67-1.41.94-18.69,17.48-18.69,17.48-18.69,17.55h.07a2.59,2.59,0,0,0,.53-.2,30.64,30.64,0,0,1,11.66-2.48c8.64,0,15.88,4.76,15.88,12.53,0,8.91-9.11,17.89-22.38,17.89-6.63,0-15-2.75-15-8.78,0-3.21,2.88-6.7,8.78-6.7s10.72,3.82,10.72,9.25c0,.27-.07.53-.07.8,7.64-1.74,12-7.1,12-12.12,0-6.64-5.16-8.71-10.72-8.71a31.12,31.12,0,0,0-4.36.4c-10.18,1.67-14.94,6.56-19.29,11.79Zm22,10.65c0-3.15-2.27-5.42-6.16-5.42-1.41,0-3.55.33-3.55,2.54,0,3.22,5.76,4.16,8.78,4.16h.8A8.05,8.05,0,0,0,407.58,50Z"/><path class="cls-6" d="M9.2,181.79c18-3.28,21.24-14.14,22.05-24.25H6.72V152h50v5.56H37.28c-.74,10.32-4.69,24.79-22.65,29ZM13.69,138H49.8v5.56H13.69Z"/><path class="cls-6" d="M80,181.93c19.43-6,30-17.83,38.46-35l-16.48.13a69.62,69.62,0,0,1-17.15,16.29l-5.7-3.09a57.06,57.06,0,0,0,23.79-25.72c5.89,1.4,7.3,1.87,7.3,2.54,0,.4-.87.74-1.67.74h-.41c-.87,1.54-1.8,3.08-2.74,4.49,6.56-.07,15.47-.14,15.81-.2.6-.07.8-.67,1.34-.67.74,0,4.56,3.15,4.56,3.95,0,.54-.67.87-1.61,1.07C115.93,165,106,179,85.92,186.15Z"/><path class="cls-6" d="M137,182.33c20-8.31,32.16-25.4,37.85-43.08,0,0,4.22,1.67,6.7,3,.87.47,1.21.94,1.21,1.27,0,.54-.8.88-1.81.88a3.65,3.65,0,0,1-.87-.07c-7,15.81-17.76,32.9-36.72,41.94Z"/><path class="cls-6" d="M202,180.52c20.77-8.24,29.48-22.78,34.7-33.9l-26.26.13v-5.09l28.88-.2c.6,0,.87-.4,1.27-.4a.85.85,0,0,1,.47.2c3.42,2.34,4.22,2.94,4.22,3.48s-.94.8-1.61,1a125.36,125.36,0,0,1-10,16.95,141.66,141.66,0,0,1,20,17.82l-5.3,4.09c-4.75-6.37-12.06-13.27-17.75-17.89a61,61,0,0,1-22.92,17.89Z"/><path class="cls-6" d="M272.18,182c12.93-8,18.89-17.48,21.44-30.55-5.56,0-11.12.07-16.89.07v-5h17.69c.47-3.75.74-7.77.87-12.06a64.46,64.46,0,0,1,6.5.53c1.07.14,1.48.47,1.48.88s-.88,1.14-2.22,1.27c-.2,3.35-.53,6.43-.93,9.31h18.42c-.13,7.17-.67,21.17-3.41,29.21-2.55,7.58-8,9.52-14.21,9.52a39.06,39.06,0,0,1-4.76-.34l-3.41-6.63a51.16,51.16,0,0,0,8.91,1.27c7.57,0,10.32-5.49,11.12-28.07H299.25c-3.56,17.15-11.13,26.2-21.31,34.24Z"/><path class="cls-6" d="M387.49,157.4c-5.77,7.37-20.57,20.84-36.79,25.66-.2.61-.47,1-.87,1-.94,0-5-4.76-5-5.36s.47-1,.47-1.61c0-5.76.07-29.95.07-29.95,0-1.2-.07-4.62-.2-6.5.73.07,5.22.2,6.76.41.94.13,1.41.53,1.41,1s-.8,1.14-2.21,1.27c-.13,1.34-.13,2.75-.13,4.29-.07,11-.14,27.2-.14,29,14-3.48,28.81-17.95,34-26.4Z"/><path class="cls-6" d="M417.43,169.4a38.51,38.51,0,0,0-5.89-13.74l4.49-1.87c2,2.94,5.16,9.11,6.09,13.06Zm-1.07,14.74c14.47-4.56,23.92-15.35,25.19-32.3,0,0,3.42.54,5.56,1.07.47.07,1.08.41,1.08,1s-1,1-1.68,1.14c-2.88,17.49-11.39,26.93-25.06,33.1Zm11.73-17.69a44.45,44.45,0,0,0-5-14.21l4.62-1.47A49.93,49.93,0,0,1,433,164.24Z"/><path class="cls-6" d="M473.38,150.84c5.22,1.47,11.79,4.42,15.34,7.5l-3.08,5.23c-4.15-4-9.51-6.43-15.41-8.44Zm49.11,3.28C512,167.39,498.3,178.51,482.09,184c-.14.87-.47,1.81-1.07,1.81-.94,0-5.77-6-5.9-6.16a.94.94,0,0,1-.13-.4c0-.14.13-.27.47-.34a50.35,50.35,0,0,0,14.33-4.56,80.81,80.81,0,0,0,30.15-26.93Zm-39.73-16.88c5.16,2,11.19,5.76,14.4,9.24l-3.75,4.89c-3.35-4.42-9.11-8.17-14.07-10.45Zm26.8-1.75a31.21,31.21,0,0,1,7.7,7.31l-3.68,2.95a32.62,32.62,0,0,0-7.44-7.84Zm6.43-4.28a31.91,31.91,0,0,1,7.64,6.76l-3.48,3.09a32.45,32.45,0,0,0-7.51-7.37Z"/><path class="cls-6" d="M560.14,180.52c12.6-.94,27-6.57,27-20.57,0-6.9-5.3-15.41-16.89-16.28a18.51,18.51,0,0,1,.13,2.68c0,12.13-9,25.12-12.59,29.41-2.21,2.61-4.49,3.75-6.57,3.75-5,0-10.05-7-10.05-14.27,0-12.46,12.46-26.06,27.81-26.06,13.67,0,23.85,9.45,23.85,20.84,0,15.27-13.8,23.51-26.33,25.66Zm-14.07-15.61c0,5.29,3.29,8.77,5,8.77a4.16,4.16,0,0,0,2.75-1.6c4.35-4.76,11.19-15.68,11.19-25.53,0-.87-.07-1.68-.14-2.55C555.05,146.08,546.07,156.13,546.07,164.91Z"/></g></g></g></svg>