<svg xmlns="http://www.w3.org/2000/svg" viewBox="0 0 135.72 65.87"><defs><style>.cls-1{isolation:isolate;}.cls-2{fill:#ff7d23;}.cls-3{mix-blend-mode:multiply;}</style></defs><g class="cls-1"><g id="レイヤー_2" data-name="レイヤー 2"><g id="レイヤー_1-2" data-name="レイヤー 1"><path class="cls-2" d="M33.54,50.79a9.22,9.22,0,0,0-4.11,7.53,9.1,9.1,0,0,0,4.13,7.52l-2.1,0a9.76,9.76,0,0,1,0-15.11Z"/><path class="cls-2" d="M46,53.18v.13a5.56,5.56,0,0,1-3.44,5.07.11.11,0,0,1-.07,0A7.78,7.78,0,0,0,41,57.47v6H39.6v-.85H37.94v1.43l-1.41,0V51.93H41v5.44c2.93-1.09,3.39-2.91,3.39-4.11v-.08H41.8V51.83h8.08c0,4.74-.4,6.12-2.87,6.12l-.64,0a.13.13,0,0,1-.14-.1,8.54,8.54,0,0,0-1-1.62,9,9,0,0,0,1.63.23c1.09,0,1.39-.45,1.44-3.25Zm-8,.17v3H39.6v-3Zm0,4.39v3.49H39.6V57.74Zm11.44,7.68h-1.5v-.91H43.8v1H42.36V59.13h7Zm-5.58-5v2.68h4.08V60.45Z"/><path class="cls-2" d="M59.54,56.68H57.35a13.86,13.86,0,0,0,2.53,3.25,5.85,5.85,0,0,0-1.36.6h-.05A12,12,0,0,1,57,58c0,1.21.17,3.88.17,4.93v2.63H55.62V62.85c0-1.11.13-3.43.19-4.64a10.86,10.86,0,0,1-2,4.09h0a6.21,6.21,0,0,0-1.49-.5,15,15,0,0,0,3.05-5.11h-2.4v-1.4h2.76l0-1.86c-.7.16-1.71.37-1.81.37s-.05,0-.08,0a6.5,6.5,0,0,0-1-1.15,20.43,20.43,0,0,0,5.31-1.3s.9.75,1.17,1a.37.37,0,0,1,.13.23c0,.08-.07.13-.19.13a1.35,1.35,0,0,1-.4-.1c-.5.18-1,.34-1.61.48v2.23h2.39Zm6.9,8.23H64.87v-1.1H61.68V65H60.15V52.91h6.29ZM61.68,54.28v8.14h3.19V54.28Z"/><path class="cls-2" d="M77.2,54.08H72.07l-.47,3.15A4,4,0,0,1,78,60.48a4.15,4.15,0,0,1-4.37,4.38c-2.37,0-4-1.18-4.2-3.6h2.09a1.88,1.88,0,0,0,2.06,1.94A2.45,2.45,0,0,0,76,60.51c0-1.36-.64-2.63-2.29-2.63a2.3,2.3,0,0,0-2.16,1.35H69.65l.86-6.8H77.2Z"/><path class="cls-2" d="M85.31,64.64h-2V55.48H80.77V54.22c2.19-.16,2.9-1.23,3.14-1.89h1.4Z"/><path class="cls-2" d="M104.25,54.28h-5v2.21h4.23v1.44H99.28v2.71h5.56v1.47H99.28v3.52H97.72V62.11h-7V60.64h2.8V56.49h4.15V54.28H94.63a14.27,14.27,0,0,1-2.37,3.24s-.05,0-.08,0a7.92,7.92,0,0,0-1.67-.57A13.61,13.61,0,0,0,94.45,51s1.06.29,1.63.53c.16.06.24.16.24.22s-.16.21-.46.21h-.08c-.11.29-.24.57-.39.88h8.86Zm-9.14,3.65v2.71h2.61V57.93Z"/><path class="cls-2" d="M108.69,50.76a9.76,9.76,0,0,1,0,15.11l-2.1,0a8.93,8.93,0,0,0,0-15.05Z"/><g class="cls-3"><path class="cls-2" d="M8.52,40V5.88H0V.78H14.22V40Z"/><path class="cls-2" d="M37,40l8.94-13.5V26.4a9.79,9.79,0,0,1-4.62,1.2c-7.38,0-12.42-5.88-12.42-13.2v-.54C28.86,5.64,34.56,0,42.78,0S56.7,5.64,56.7,13.86v.24c0,3.84-1.08,6.84-3.72,10.92L43.26,40Zm14-26.16c0-5.16-3.18-8.58-8.16-8.58s-8.16,3.42-8.16,8.58v.36c0,5.16,3.18,8.52,8.16,8.52s8.16-3.42,8.16-8.52Z"/><path class="cls-2" d="M83.34,40.8c-8.22,0-13.86-4.62-13.86-11.82a9.69,9.69,0,0,1,6.9-9.72v-.12c-3.54-1.44-5.52-4.32-5.52-8.52C70.86,4.14,75.84,0,83.34,0S95.82,4.14,95.82,10.62a8.59,8.59,0,0,1-5.52,8.52v.12A9.69,9.69,0,0,1,97.2,29C97.2,36.18,91.56,40.8,83.34,40.8Zm.36-19.14H83c-4.86,0-7.86,2.52-7.86,6.84,0,4,2.82,7,8.22,7s8.22-3,8.22-7C91.56,24.18,88.56,21.66,83.7,21.66ZM83.34,5.28c-4.56,0-6.84,2.64-6.84,5.88C76.5,14.64,79,16.8,83,16.8h.72c4,0,6.48-2.16,6.48-5.64C90.18,7.92,87.9,5.28,83.34,5.28Z"/><path class="cls-2" d="M135.72,26.94c0,8.22-5.7,13.86-13.92,13.86s-13.92-5.64-13.92-13.86V26.7c0-3.84,1.08-6.84,3.72-10.92l9.72-15h6.3l-8.94,13.5v.12a9.79,9.79,0,0,1,4.62-1.2c7.38,0,12.42,5.88,12.42,13.2ZM130,26.58c0-5.16-3.18-8.52-8.16-8.52s-8.16,3.42-8.16,8.52v.36c0,5.16,3.18,8.58,8.16,8.58S130,32.1,130,26.94Z"/></g></g></g></g></svg>