<svg xmlns="http://www.w3.org/2000/svg" viewBox="0 0 134.1 65.87"><defs><style>.cls-1{isolation:isolate;}.cls-2{fill:#ff7d23;}.cls-3{mix-blend-mode:multiply;}</style></defs><g class="cls-1"><g id="レイヤー_2" data-name="レイヤー 2"><g id="レイヤー_1-2" data-name="レイヤー 1"><path class="cls-2" d="M37.41,50.79a8.93,8.93,0,0,0,0,15.05l-2.09,0a9.77,9.77,0,0,1,0-15.11Z"/><path class="cls-2" d="M53.25,53.47H47.82v5h6.23V60H47.82v5.64H46.17V60H39.9V58.46h6.27v-5H40.71V52H53.25ZM43.39,57.9a14.1,14.1,0,0,0-1.54-3.39L43.26,54a19.21,19.21,0,0,1,1.63,3.27Zm7.09,0a.12.12,0,0,1-.1.08,0,0,0,0,1,0,0,8.64,8.64,0,0,0-1.43-.35,12.46,12.46,0,0,0,1.44-3.72s1.2.31,1.67.48c.26.1.35.2.35.29s-.24.24-.57.26C51.81,54.94,51.08,56.73,50.48,57.92Z"/><path class="cls-2" d="M68.16,53.55h1.36V55H65a23.39,23.39,0,0,0,.7,4.71A12.76,12.76,0,0,0,67,55.9a17.38,17.38,0,0,1,1.86.74.22.22,0,0,1,.16.2c0,.12-.13.23-.4.23a.78.78,0,0,1-.21,0,15.28,15.28,0,0,1-2.13,4.47c.72,1.55,1.46,2,1.7,2,.57,0,.85-1.34,1-2.56a12.33,12.33,0,0,0,1.33,1.48.13.13,0,0,1,0,.09c0,.18-.69,2.79-2.29,2.79-1.1,0-2.14-1.28-2.78-2.55a10.8,10.8,0,0,1-4.07,2.79l-.06,0a9.16,9.16,0,0,0-1.52-1.09,9.42,9.42,0,0,0,5-3.16A24.13,24.13,0,0,1,63.48,55H58.57s0,.92,0,1.78h3.79c0,.34,0,.75,0,1.2a24.18,24.18,0,0,1-.13,3,2.46,2.46,0,0,1-2.76,2.12h-.27a.1.1,0,0,1-.11-.08,6.9,6.9,0,0,0-.74-1.54c-.36,2.66-1.13,3.87-1.21,3.87h0a11.49,11.49,0,0,0-1.81-.4c1.52-1.82,1.74-5,1.74-6.83,0-.74-.06-4.56-.06-4.56h6.39c0-.26,0-.52,0-.79,0-.56,0-1.1-.09-1.73,0,0,1.29.07,1.85.13.19,0,.34.11.34.21s-.15.22-.53.3c0,.66,0,1.28,0,1.88h2.73a6.75,6.75,0,0,0-2.09-1.48l.84-.92a9.44,9.44,0,0,1,2.35,1.58ZM58.6,58.2v0a25.36,25.36,0,0,1-.19,3.17,8.49,8.49,0,0,0,1.15.12c1.19,0,1.36-.75,1.36-2.67,0-.21,0-.43,0-.66Z"/><path class="cls-2" d="M82.35,53.83c-2.52,3.78-4.23,7.74-4.39,10.81H75.77a28.16,28.16,0,0,1,4.3-10.52l-6,.05V52.44h8.26Z"/><path class="cls-2" d="M99.18,54.28h-5v2.21h4.23v1.44H94.22v2.71h5.55v1.47H94.22v3.52H92.65V62.11h-7V60.64h2.8V56.49h4.15V54.28H89.56a14.27,14.27,0,0,1-2.37,3.24s0,0-.08,0a7.89,7.89,0,0,0-1.66-.57A13.69,13.69,0,0,0,89.39,51s1,.28,1.63.52c.16.07.24.17.24.23s-.16.21-.47.21h-.08c-.11.29-.24.57-.38.88h8.85ZM90,57.93v2.71h2.61V57.93Z"/><path class="cls-2" d="M103.62,50.76a9.76,9.76,0,0,1,0,15.11l-2.1,0a8.93,8.93,0,0,0,0-15.05Z"/><g class="cls-3"><path class="cls-2" d="M8.52,40V5.88H0V.78H14.22V40Z"/><path class="cls-2" d="M37,40l8.94-13.5V26.4a9.79,9.79,0,0,1-4.62,1.2c-7.38,0-12.42-5.88-12.42-13.2v-.54C28.86,5.64,34.56,0,42.78,0S56.7,5.64,56.7,13.86v.24c0,3.84-1.08,6.84-3.72,10.92L43.26,40Zm14-26.16c0-5.16-3.18-8.58-8.16-8.58s-8.16,3.42-8.16,8.58v.36c0,5.16,3.18,8.52,8.16,8.52s8.16-3.42,8.16-8.52Z"/><path class="cls-2" d="M77.28,40l8.94-13.5V26.4a9.79,9.79,0,0,1-4.62,1.2c-7.38,0-12.42-5.88-12.42-13.2v-.54C69.18,5.64,74.88,0,83.1,0S97,5.64,97,13.86v.24c0,3.84-1.08,6.84-3.72,10.92L83.58,40Zm14-26.16c0-5.16-3.18-8.58-8.16-8.58s-8.16,3.42-8.16,8.58v.36c0,5.16,3.18,8.52,8.16,8.52s8.16-3.42,8.16-8.52Z"/><path class="cls-2" d="M114.78,5.88,113.34,17h.12c1.68-2.16,4.32-3.42,7.92-3.42,7.08,0,12.72,5.34,12.72,13.2v.48c0,7.86-5.7,13.56-13.92,13.56-7.5,0-13-4.86-13.8-11.76h5.76a7.84,7.84,0,0,0,8,6.48c5,0,8.22-3.48,8.22-8.28v-.48c0-4.8-3.24-8.28-8.22-8.28a7.75,7.75,0,0,0-7.32,4.38l-5.1-1.56L110.4.78h20.46v5.1Z"/></g></g></g></g></svg>