<svg xmlns="http://www.w3.org/2000/svg" viewBox="0 0 122.88 65.87"><defs><style>.cls-1{isolation:isolate;}.cls-2{fill:#ff7d23;}.cls-3{mix-blend-mode:multiply;}</style></defs><g class="cls-1"><g id="レイヤー_2" data-name="レイヤー 2"><g id="レイヤー_1-2" data-name="レイヤー 1"><path class="cls-2" d="M33.63,50.79a8.93,8.93,0,0,0,0,15.05l-2.1,0a9.78,9.78,0,0,1,0-15.11Z"/><path class="cls-2" d="M49.47,53.47H44v5h6.23V60H44v5.64H42.39V60H36.12V58.46h6.27v-5H36.93V52H49.47ZM39.61,57.9a14.1,14.1,0,0,0-1.54-3.39L39.48,54a19.21,19.21,0,0,1,1.63,3.27Zm7.09,0a.12.12,0,0,1-.1.08,0,0,0,0,1,0,0,8.64,8.64,0,0,0-1.43-.35,12.52,12.52,0,0,0,1.44-3.71s1.2.3,1.67.48c.25.09.35.19.35.28s-.24.24-.58.26C48,54.94,47.3,56.73,46.7,57.92Z"/><path class="cls-2" d="M64.38,53.55h1.36V55H61.21a23.39,23.39,0,0,0,.7,4.7,12.66,12.66,0,0,0,1.33-3.84,17.38,17.38,0,0,1,1.86.74.22.22,0,0,1,.16.2c0,.12-.13.23-.4.23a.78.78,0,0,1-.21,0,15.17,15.17,0,0,1-2.13,4.47c.72,1.55,1.46,2,1.7,2,.57,0,.85-1.35,1-2.57a12.33,12.33,0,0,0,1.33,1.48.16.16,0,0,1,0,.09c0,.18-.69,2.79-2.29,2.79-1.1,0-2.14-1.28-2.78-2.55a10.8,10.8,0,0,1-4.07,2.79l-.06,0a9.16,9.16,0,0,0-1.52-1.09,9.42,9.42,0,0,0,5-3.16A24.13,24.13,0,0,1,59.7,55H54.79s0,.91,0,1.77H58.6c0,.34,0,.75,0,1.2a24.51,24.51,0,0,1-.12,3,2.46,2.46,0,0,1-2.76,2.12h-.27a.1.1,0,0,1-.11-.08,6.9,6.9,0,0,0-.74-1.54c-.36,2.66-1.13,3.87-1.21,3.87h0a12.81,12.81,0,0,0-1.81-.4c1.52-1.82,1.74-5,1.74-6.83,0-.74-.06-4.56-.06-4.56h6.39c0-.26,0-.51,0-.79,0-.56-.05-1.1-.09-1.73,0,0,1.29.07,1.85.13.19,0,.34.11.34.21s-.15.22-.53.3c0,.66,0,1.29,0,1.88h2.72a6.64,6.64,0,0,0-2.08-1.48l.84-.92A9.44,9.44,0,0,1,65,52.73Zm-9.56,4.66v0a25.36,25.36,0,0,1-.19,3.17,8.49,8.49,0,0,0,1.15.12c1.19,0,1.36-.75,1.36-2.67,0-.21,0-.43,0-.65Z"/><path class="cls-2" d="M72.21,55.8v0c0-2.19,1.78-3.6,4.08-3.6s3.88,1.18,3.88,3.2a2.67,2.67,0,0,1-1.91,2.71A2.93,2.93,0,0,1,80.6,61.2c0,2.46-2.1,3.65-4.42,3.65-3.54,0-4.32-2.55-4.34-4h2a2.16,2.16,0,0,0,2.37,2.34c1.64,0,2.5-.93,2.5-2.16a2.13,2.13,0,0,0-2.38-2h-.1L75,59V57.29l1.28,0h.1a1.84,1.84,0,0,0,2-1.82c0-1.2-1-1.7-2.06-1.7a2,2,0,0,0-2.15,2Z"/><path class="cls-2" d="M100,54.28H95v2.21h4.23v1.44H95v2.71h5.55v1.47H95v3.52H93.43V62.11h-7V60.64h2.8V56.49h4.15V54.28H90.34A14.27,14.27,0,0,1,88,57.52s0,0-.08,0a7.89,7.89,0,0,0-1.66-.57A13.69,13.69,0,0,0,90.17,51s1,.29,1.63.53c.16.06.24.16.24.22s-.16.21-.47.21h-.08c-.11.29-.24.57-.38.88H100Zm-9.14,3.65v2.71h2.61V57.93Z"/><path class="cls-2" d="M104.4,50.76a9.76,9.76,0,0,1,0,15.11l-2.1,0a9.1,9.1,0,0,0,4.13-7.52,9.19,9.19,0,0,0-4.11-7.53Z"/><g class="cls-3"><path class="cls-2" d="M8.52,40V5.88H0V.78H14.22V40Z"/><path class="cls-2" d="M37,40l8.94-13.5V26.4a9.79,9.79,0,0,1-4.62,1.2c-7.38,0-12.42-5.88-12.42-13.2v-.54C28.86,5.64,34.56,0,42.78,0S56.7,5.64,56.7,13.86v.24c0,3.84-1.08,6.84-3.72,10.92L43.26,40Zm14-26.16c0-5.16-3.18-8.58-8.16-8.58s-8.16,3.42-8.16,8.58v.36c0,5.16,3.18,8.52,8.16,8.52s8.16-3.42,8.16-8.52Z"/><path class="cls-2" d="M77.28,40l8.94-13.5V26.4a9.79,9.79,0,0,1-4.62,1.2c-7.38,0-12.42-5.88-12.42-13.2v-.54C69.18,5.64,74.88,0,83.1,0S97,5.64,97,13.86v.24c0,3.84-1.08,6.84-3.72,10.92L83.58,40Zm14-26.16c0-5.16-3.18-8.58-8.16-8.58s-8.16,3.42-8.16,8.58v.36c0,5.16,3.18,8.52,8.16,8.52s8.16-3.42,8.16-8.52Z"/><path class="cls-2" d="M117.18,40V5.88h-8.52V.78h14.22V40Z"/></g></g></g></g></svg>