<svg xmlns="http://www.w3.org/2000/svg" viewBox="0 0 128.52 65.87"><defs><style>.cls-1{isolation:isolate;}.cls-2{fill:#ff7d23;}.cls-3{mix-blend-mode:multiply;}</style></defs><g class="cls-1"><g id="レイヤー_2" data-name="レイヤー 2"><g id="レイヤー_1-2" data-name="レイヤー 1"><path class="cls-2" d="M29.94,50.79a9.22,9.22,0,0,0-4.11,7.53A9.1,9.1,0,0,0,30,65.84l-2.1,0a9.76,9.76,0,0,1,0-15.11Z"/><path class="cls-2" d="M42.36,53.18v.13a5.56,5.56,0,0,1-3.44,5.07.11.11,0,0,1-.07,0,7.78,7.78,0,0,0-1.42-.88v6H36v-.85H34.34v1.43l-1.41,0V51.93h4.5v5.44c2.93-1.09,3.39-2.91,3.39-4.11v-.08H38.19V51.83h8.09c0,4.74-.4,6.12-2.87,6.12l-.64,0a.13.13,0,0,1-.14-.1,8.54,8.54,0,0,0-1-1.62,9,9,0,0,0,1.63.23c1.09,0,1.39-.45,1.44-3.25Zm-8,.17v3H36v-3Zm0,4.39v3.49H36V57.74Zm11.44,7.68h-1.5v-.91H40.2v1H38.75V59.13h7Zm-5.58-5v2.68h4.08V60.45Z"/><path class="cls-2" d="M55.94,56.68H53.75a14.06,14.06,0,0,0,2.52,3.25,6,6,0,0,0-1.36.6h0A12,12,0,0,1,53.43,58c0,1.21.17,3.88.17,4.93v2.63H52V62.85c0-1.11.13-3.43.19-4.64a11,11,0,0,1-2,4.09h0a6,6,0,0,0-1.48-.5,15,15,0,0,0,3.05-5.11h-2.4v-1.4h2.76l0-1.86c-.7.16-1.71.37-1.81.37s-.05,0-.08,0a6.5,6.5,0,0,0-1-1.15,20.43,20.43,0,0,0,5.31-1.3s.9.75,1.17,1a.37.37,0,0,1,.13.23c0,.08-.07.13-.2.13a1.51,1.51,0,0,1-.4-.1,15.92,15.92,0,0,1-1.6.48v2.23h2.39Zm6.9,8.23H61.27v-1.1H58.08V65H56.55V52.91h6.29ZM58.08,54.28v8.14h3.19V54.28Z"/><path class="cls-2" d="M73.6,54.08H68.47L68,57.23a4,4,0,0,1,6.39,3.25A4.15,4.15,0,0,1,70,64.86c-2.37,0-4-1.18-4.2-3.6h2.09A1.88,1.88,0,0,0,70,63.2a2.45,2.45,0,0,0,2.45-2.69c0-1.36-.64-2.63-2.29-2.63A2.3,2.3,0,0,0,68,59.23H66.05l.86-6.8H73.6Z"/><path class="cls-2" d="M81.71,64.64h-2V55.48H77.17V54.22c2.19-.16,2.9-1.23,3.14-1.89h1.4Z"/><path class="cls-2" d="M100.65,54.28h-5v2.21h4.23v1.44H95.68v2.71h5.56v1.47H95.68v3.52H94.12V62.11h-7V60.64H90V56.49h4.15V54.28H91a14.27,14.27,0,0,1-2.37,3.24s0,0-.08,0a7.92,7.92,0,0,0-1.67-.57A13.61,13.61,0,0,0,90.85,51s1.06.29,1.63.53c.16.06.24.16.24.22s-.16.21-.46.21h-.08c-.11.29-.24.57-.39.88h8.86Zm-9.14,3.65v2.71h2.61V57.93Z"/><path class="cls-2" d="M105.09,50.76a9.77,9.77,0,0,1,0,15.11l-2.09,0a8.93,8.93,0,0,0,0-15.05Z"/><g class="cls-3"><path class="cls-2" d="M8.52,40V5.88H0V.78H14.22V40Z"/><path class="cls-2" d="M37,40l8.94-13.5V26.4a9.79,9.79,0,0,1-4.62,1.2c-7.38,0-12.42-5.88-12.42-13.2v-.54C28.86,5.64,34.56,0,42.78,0S56.7,5.64,56.7,13.86v.24c0,3.84-1.08,6.84-3.72,10.92L43.26,40Zm14-26.16c0-5.16-3.18-8.58-8.16-8.58s-8.16,3.42-8.16,8.58v.36c0,5.16,3.18,8.52,8.16,8.52s8.16-3.42,8.16-8.52Z"/><path class="cls-2" d="M75.66,40H69.48L87.18,6V5.88H68V.78h25.5V5.64Z"/><path class="cls-2" d="M128.52,26.94c0,8.22-5.7,13.86-13.92,13.86s-13.92-5.64-13.92-13.86V26.7c0-3.84,1.08-6.84,3.72-10.92l9.72-15h6.3l-8.94,13.5v.12a9.79,9.79,0,0,1,4.62-1.2c7.38,0,12.42,5.88,12.42,13.2Zm-5.76-.36c0-5.16-3.18-8.52-8.16-8.52s-8.16,3.42-8.16,8.52v.36c0,5.16,3.18,8.58,8.16,8.58s8.16-3.42,8.16-8.58Z"/></g></g></g></g></svg>