<svg xmlns="http://www.w3.org/2000/svg" viewBox="0 0 147.12 65.87"><defs><style>.cls-1{isolation:isolate;}.cls-2{fill:#ff7d23;}.cls-3{mix-blend-mode:multiply;}</style></defs><g class="cls-1"><g id="レイヤー_2" data-name="レイヤー 2"><g id="レイヤー_1-2" data-name="レイヤー 1"><path class="cls-2" d="M38.87,50.79a9.22,9.22,0,0,0-4.11,7.53,9.11,9.11,0,0,0,4.13,7.52l-2.1,0a9.76,9.76,0,0,1,0-15.11Z"/><path class="cls-2" d="M54.71,53.47H49.29v5h6.22V60H49.29v5.64H47.64V60H41.36V58.46h6.28v-5H42.18V52H54.71ZM44.85,57.9a13.68,13.68,0,0,0-1.54-3.39L44.72,54a18.88,18.88,0,0,1,1.64,3.27Zm7.09,0a.11.11,0,0,1-.09.08.06.06,0,0,1,0,0,8.59,8.59,0,0,0-1.42-.35,12.81,12.81,0,0,0,1.44-3.71s1.2.3,1.67.48c.25.09.35.19.35.28s-.24.24-.58.26C53.27,54.94,52.55,56.73,51.94,57.92Z"/><path class="cls-2" d="M69.62,53.55H71V55H66.45a23.3,23.3,0,0,0,.71,4.71,13,13,0,0,0,1.33-3.84,16.68,16.68,0,0,1,1.85.74.2.2,0,0,1,.16.2c0,.12-.12.23-.4.23a.75.75,0,0,1-.2,0,15.7,15.7,0,0,1-2.13,4.47c.72,1.55,1.45,2,1.69,2,.58,0,.85-1.34,1-2.56a12,12,0,0,0,1.32,1.48.11.11,0,0,1,0,.09c0,.18-.69,2.79-2.29,2.79-1.11,0-2.15-1.28-2.79-2.55a10.8,10.8,0,0,1-4.06,2.79l-.07,0a9.16,9.16,0,0,0-1.52-1.09,9.38,9.38,0,0,0,5-3.16A24.18,24.18,0,0,1,65,55H60s0,.92,0,1.78h3.79c0,.34,0,.75,0,1.2a22.2,22.2,0,0,1-.13,3A2.45,2.45,0,0,1,61,63.09h-.27c-.07,0-.1,0-.11-.08a7.37,7.37,0,0,0-.74-1.54c-.37,2.66-1.14,3.87-1.22,3.87h0a12.76,12.76,0,0,0-1.8-.4c1.52-1.82,1.74-5,1.74-6.83,0-.74-.06-4.56-.06-4.56h6.38c0-.26,0-.52,0-.79,0-.56,0-1.1-.1-1.73,0,0,1.3.07,1.86.13.19,0,.33.11.33.21s-.14.22-.52.3c0,.66,0,1.28,0,1.88h2.72A6.76,6.76,0,0,0,67,52.07l.83-.92a9.42,9.42,0,0,1,2.36,1.58ZM60.07,58.2v0a25.36,25.36,0,0,1-.19,3.17,8.33,8.33,0,0,0,1.15.12c1.18,0,1.36-.75,1.36-2.67,0-.21,0-.43,0-.66Z"/><path class="cls-2" d="M79.72,64.64h-2V55.48H75.17V54.22c2.19-.16,2.9-1.23,3.14-1.89h1.41Z"/><path class="cls-2" d="M92.34,53.83c-2.51,3.78-4.22,7.74-4.38,10.81h-2.2a28,28,0,0,1,4.31-10.52l-6,.05V52.44h8.26Z"/><path class="cls-2" d="M109.66,54.28h-5v2.21h4.23v1.44h-4.23v2.71h5.56v1.47h-5.56v3.52h-1.57V62.11H96.18V60.64H99V56.49h4.14V54.28H100a14.27,14.27,0,0,1-2.37,3.24s0,0-.08,0a7.92,7.92,0,0,0-1.67-.57A13.61,13.61,0,0,0,99.86,51s1.06.29,1.63.53c.16.06.24.16.24.22s-.16.21-.46.21h-.08c-.11.29-.24.57-.39.88h8.86Zm-9.14,3.65v2.71h2.6V57.93Z"/><path class="cls-2" d="M114.1,50.76a9.77,9.77,0,0,1,0,15.11l-2.09,0a8.93,8.93,0,0,0,0-15.05Z"/><g class="cls-3"><path class="cls-2" d="M0,40V35.16L14.34,21.72c3-2.82,5-5.64,5-8.94,0-4.32-2.4-7.5-6.84-7.5S5.64,8.4,5.64,13.2v.54H.06V13.2C.06,5.22,4.8,0,12.6,0S25.14,5.46,25.14,12.78c0,5.16-2.46,8.46-6.66,12.3L7.92,34.8v.12H24.66V40Z"/><path class="cls-2" d="M66.66,26.82c0,8.46-5.7,14-13.92,14s-13.92-5.52-13.92-14V14c0-8.46,5.7-14,13.92-14S66.66,5.52,66.66,14ZM61,14c0-5.34-3.18-8.7-8.22-8.7S44.52,8.64,44.52,14V26.82c0,5.34,3.18,8.7,8.22,8.7S61,32.16,61,26.82Z"/><path class="cls-2" d="M107,26.82c0,8.46-5.7,14-13.92,14s-13.92-5.52-13.92-14V14c0-8.46,5.7-14,13.92-14S107,5.52,107,14ZM101.28,14c0-5.34-3.18-8.7-8.22-8.7S84.84,8.64,84.84,14V26.82c0,5.34,3.18,8.7,8.22,8.7s8.22-3.36,8.22-8.7Z"/><path class="cls-2" d="M127.8,5.88,126.36,17h.12c1.68-2.16,4.32-3.42,7.92-3.42,7.08,0,12.72,5.34,12.72,13.2v.48c0,7.86-5.7,13.56-13.92,13.56-7.5,0-13-4.86-13.8-11.76h5.76a7.84,7.84,0,0,0,8,6.48c5,0,8.22-3.48,8.22-8.28v-.48c0-4.8-3.24-8.28-8.22-8.28a7.75,7.75,0,0,0-7.32,4.38l-5.1-1.56L123.42.78h20.46v5.1Z"/></g></g></g></g></svg>