<svg xmlns="http://www.w3.org/2000/svg" viewBox="0 0 135.54 65.87"><defs><style>.cls-1{isolation:isolate;}.cls-2{fill:#ff7d23;}.cls-3{mix-blend-mode:multiply;}</style></defs><g class="cls-1"><g id="レイヤー_2" data-name="レイヤー 2"><g id="レイヤー_1-2" data-name="レイヤー 1"><path class="cls-2" d="M33,50.79a9.22,9.22,0,0,0-4.11,7.53A9.1,9.1,0,0,0,33,65.84l-2.1,0a9.76,9.76,0,0,1,0-15.11Z"/><path class="cls-2" d="M45.43,53.18v.13A5.54,5.54,0,0,1,42,58.38l-.06,0a7.78,7.78,0,0,0-1.42-.88v6H39.07v-.85H37.41v1.43l-1.41,0V51.93h4.5v5.44c2.93-1.09,3.39-2.91,3.39-4.11v-.08H41.26V51.83h8.09c0,4.74-.4,6.12-2.87,6.12l-.64,0a.13.13,0,0,1-.14-.1,8.54,8.54,0,0,0-1-1.62,9,9,0,0,0,1.63.23c1.09,0,1.39-.45,1.44-3.25Zm-8,.17v3h1.66v-3Zm0,4.39v3.49h1.66V57.74Zm11.44,7.68h-1.5v-.91H43.27v1H41.82V59.13h7Zm-5.58-5v2.68h4.08V60.45Z"/><path class="cls-2" d="M59,56.68H56.82a13.86,13.86,0,0,0,2.53,3.25,6.05,6.05,0,0,0-1.37.6h0A12,12,0,0,1,56.5,58c0,1.21.17,3.88.17,4.93v2.63H55.09V62.85c0-1.11.13-3.43.19-4.64a11,11,0,0,1-2,4.09h0a6,6,0,0,0-1.48-.5,15.2,15.2,0,0,0,3.05-5.11h-2.4v-1.4h2.76l0-1.86c-.7.16-1.71.37-1.81.37s-.05,0-.08,0a6.5,6.5,0,0,0-1-1.15,20.43,20.43,0,0,0,5.31-1.3s.9.75,1.17,1a.37.37,0,0,1,.13.23c0,.08-.07.13-.2.13a1.51,1.51,0,0,1-.4-.1,15.92,15.92,0,0,1-1.6.48v2.23H59Zm6.9,8.23H64.34v-1.1H61.15V65H59.62V52.91h6.29ZM61.15,54.28v8.14h3.19V54.28Z"/><path class="cls-2" d="M69,55.8v0c0-2.19,1.77-3.6,4.08-3.6s3.87,1.18,3.87,3.2A2.66,2.66,0,0,1,75,58.08a2.93,2.93,0,0,1,2.34,3.12c0,2.46-2.1,3.65-4.42,3.65-3.54,0-4.32-2.55-4.34-4h2a2.44,2.44,0,0,0,4.87.18,2.14,2.14,0,0,0-2.39-2H73l-1.25,0V57.29l1.28,0h.09a1.85,1.85,0,0,0,2-1.82c0-1.2-1-1.7-2.07-1.7a2,2,0,0,0-2.14,2Z"/><path class="cls-2" d="M87.09,60.35h1.7V62h-1.7v2.67H85.26V62H79.39v-1.4l5.7-8.22h2Zm-5.63,0,3.8,0,0-2.18c0-.48.09-3.21.16-3.92a10,10,0,0,1-.84,1.46Z"/><path class="cls-2" d="M105.08,54.28h-5v2.21h4.23v1.44h-4.23v2.71h5.56v1.47h-5.56v3.52H98.55V62.11h-7V60.64h2.8V56.49h4.15V54.28H95.46a14.27,14.27,0,0,1-2.37,3.24s0,0-.08,0a7.92,7.92,0,0,0-1.67-.57A13.61,13.61,0,0,0,95.28,51s1.06.29,1.63.53c.16.06.24.16.24.22S97,52,96.69,52h-.08c-.11.29-.24.57-.39.88h8.86Zm-9.14,3.65v2.71h2.61V57.93Z"/><path class="cls-2" d="M109.52,50.76a9.78,9.78,0,0,1,0,15.11l-2.1,0a8.93,8.93,0,0,0,0-15.05Z"/><g class="cls-3"><path class="cls-2" d="M8.52,40V5.88H0V.78H14.22V40Z"/><path class="cls-2" d="M37,40l8.94-13.5V26.4a9.79,9.79,0,0,1-4.62,1.2c-7.38,0-12.42-5.88-12.42-13.2v-.54C28.86,5.64,34.56,0,42.78,0S56.7,5.64,56.7,13.86v.24c0,3.84-1.08,6.84-3.72,10.92L43.26,40Zm14-26.16c0-5.16-3.18-8.58-8.16-8.58s-8.16,3.42-8.16,8.58v.36c0,5.16,3.18,8.52,8.16,8.52s8.16-3.42,8.16-8.52Z"/><path class="cls-2" d="M77.76,5.88,76.32,17h.12c1.68-2.16,4.32-3.42,7.92-3.42,7.08,0,12.72,5.34,12.72,13.2v.48c0,7.86-5.7,13.56-13.92,13.56-7.5,0-13-4.86-13.8-11.76h5.76a7.84,7.84,0,0,0,8,6.48c5,0,8.22-3.48,8.22-8.28v-.48c0-4.8-3.24-8.28-8.22-8.28a7.75,7.75,0,0,0-7.32,4.38l-5.1-1.56L73.38.78H93.84v5.1Z"/><path class="cls-2" d="M115.8,40l8.94-13.5V26.4a9.79,9.79,0,0,1-4.62,1.2c-7.38,0-12.42-5.88-12.42-13.2v-.54C107.7,5.64,113.4,0,121.62,0s13.92,5.64,13.92,13.86v.24c0,3.84-1.08,6.84-3.72,10.92L122.1,40Zm14-26.16c0-5.16-3.18-8.58-8.16-8.58s-8.16,3.42-8.16,8.58v.36c0,5.16,3.18,8.52,8.16,8.52s8.16-3.42,8.16-8.52Z"/></g></g></g></g></svg>