<svg xmlns="http://www.w3.org/2000/svg" viewBox="0 0 144.6 65.87"><defs><style>.cls-1{isolation:isolate;}.cls-2{fill:#ff7d23;}.cls-3{mix-blend-mode:multiply;}</style></defs><g class="cls-1"><g id="レイヤー_2" data-name="レイヤー 2"><g id="レイヤー_1-2" data-name="レイヤー 1"><path class="cls-2" d="M39.75,50.79a8.93,8.93,0,0,0,0,15.05l-2.09,0a9.77,9.77,0,0,1,0-15.11Z"/><path class="cls-2" d="M52.4,57h-6v-.82a15.6,15.6,0,0,1-3.06,2.08s0,0,0,0a.19.19,0,0,1-.08,0,8.18,8.18,0,0,0-1.53-1A14.38,14.38,0,0,0,48.73,51s1,.22,1.51.37c.13,0,.21.11.21.19s-.1.18-.35.21a17.23,17.23,0,0,0,7,4.9,8.42,8.42,0,0,0-1.6,1.18.07.07,0,0,1-.06,0h0a19.44,19.44,0,0,1-3-1.94Zm2.18,3.84c0,.64,0,1.31,0,1.62v0c0,1.65-1.33,2-2.62,2l-.48,0c-.05,0-.1,0-.11-.06a6.12,6.12,0,0,0-.88-1.54A8.94,8.94,0,0,0,52,63c.69,0,1.07-.19,1.07-.7V59.84h-3.2v5.82h-1.6V59.84h-4.4V58.51H54.58Zm-2.53-5.22a18.55,18.55,0,0,1-2.74-2.74A17.08,17.08,0,0,1,47,55.61Z"/><path class="cls-2" d="M64.94,56.68H62.75a14.14,14.14,0,0,0,2.53,3.25,6.36,6.36,0,0,0-1.36.59.06.06,0,0,1-.05,0A13.06,13.06,0,0,1,62.43,58c0,1.2.18,3.88.18,4.93v2.63H61V62.85c0-1.11.13-3.43.19-4.65a11.11,11.11,0,0,1-2,4.1h-.05a6.07,6.07,0,0,0-1.49-.5,15.25,15.25,0,0,0,3.06-5.11h-2.4V55.27h2.75l0-1.85c-.7.16-1.71.37-1.81.37s0,0-.08,0a6.5,6.5,0,0,0-1-1.15,20.33,20.33,0,0,0,5.31-1.3s.9.75,1.17,1a.37.37,0,0,1,.13.23c0,.08-.06.13-.19.13a1.35,1.35,0,0,1-.4-.1c-.5.18-1,.34-1.6.48v2.22h2.38Zm6.9,8.23H70.27v-1.1H67.09V65H65.55V52.91h6.29ZM67.09,54.28v8.13h3.18V54.28Z"/><path class="cls-2" d="M78.33,56.6c.1-2.4,1.55-4.4,4.31-4.4s3.92,1.87,3.92,3.38a4.42,4.42,0,0,1-1.66,3.57c-1.09,1-2.55,2.16-3.45,3.06a5.13,5.13,0,0,0-.62.72l5.65-.08v1.79H78.36V63.33a14,14,0,0,1,1.59-2c1-1,2.34-2.16,3.47-3.29a3.26,3.26,0,0,0,1.19-2.36,1.82,1.82,0,0,0-2-1.84c-1.4,0-2.25,1.11-2.28,2.72Z"/><path class="cls-2" d="M106.08,54.28h-5v2.21h4.23v1.44h-4.23v2.71h5.55v1.47h-5.55v3.52H99.55V62.11h-7V60.64h2.8V56.49h4.15V54.28H96.46a14.27,14.27,0,0,1-2.37,3.24s0,0-.08,0a7.89,7.89,0,0,0-1.66-.57A13.69,13.69,0,0,0,96.29,51s1,.28,1.63.52c.16.07.24.17.24.23S98,52,97.69,52h-.08c-.11.29-.24.57-.38.88h8.85Zm-9.14,3.65v2.71h2.61V57.93Z"/><path class="cls-2" d="M110.52,50.76a9.76,9.76,0,0,1,0,15.11l-2.1,0a8.93,8.93,0,0,0,0-15.05Z"/><g class="cls-3"><path class="cls-2" d="M0,40V35.16L14.34,21.72c3-2.82,5-5.64,5-8.94,0-4.32-2.4-7.5-6.84-7.5S5.64,8.4,5.64,13.2v.54H.06V13.2C.06,5.22,4.8,0,12.6,0S25.14,5.46,25.14,12.78c0,5.16-2.46,8.46-6.66,12.3L7.92,34.8v.12H24.66V40Z"/><path class="cls-2" d="M66.66,26.82c0,8.46-5.7,14-13.92,14s-13.92-5.52-13.92-14V14c0-8.46,5.7-14,13.92-14S66.66,5.52,66.66,14ZM61,14c0-5.34-3.18-8.7-8.22-8.7S44.52,8.64,44.52,14V26.82c0,5.34,3.18,8.7,8.22,8.7S61,32.16,61,26.82Z"/><path class="cls-2" d="M80.64,40V35.16L95,21.72c3-2.82,5-5.64,5-8.94,0-4.32-2.4-7.5-6.84-7.5s-6.9,3.12-6.9,7.92v.54H80.7V13.2c0-8,4.74-13.2,12.54-13.2s12.54,5.46,12.54,12.78c0,5.16-2.46,8.46-6.66,12.3L88.56,34.8v.12H105.3V40Z"/><path class="cls-2" d="M144.6,26.82c0,8.46-5.7,14-13.92,14s-13.92-5.52-13.92-14V14c0-8.46,5.7-14,13.92-14S144.6,5.52,144.6,14ZM138.9,14c0-5.34-3.18-8.7-8.22-8.7s-8.22,3.36-8.22,8.7V26.82c0,5.34,3.18,8.7,8.22,8.7s8.22-3.36,8.22-8.7Z"/></g></g></g></g></svg>