<svg xmlns="http://www.w3.org/2000/svg" viewBox="0 0 132.48 65.87"><defs><style>.cls-1{isolation:isolate;}.cls-2{fill:#ff7d23;}.cls-3{mix-blend-mode:multiply;}</style></defs><g class="cls-1"><g id="レイヤー_2" data-name="レイヤー 2"><g id="レイヤー_1-2" data-name="レイヤー 1"><path class="cls-2" d="M32.09,50.79A9.22,9.22,0,0,0,28,58.32a9.11,9.11,0,0,0,4.13,7.52l-2.1,0a9.76,9.76,0,0,1,0-15.11Z"/><path class="cls-2" d="M47.93,53.47H42.51v5h6.22V60H42.51v5.64H40.86V60H34.58V58.46h6.28v-5H35.4V52H47.93ZM38.07,57.9a13.84,13.84,0,0,0-1.53-3.39l1.4-.47a18.88,18.88,0,0,1,1.64,3.27Zm7.09,0a.1.1,0,0,1-.09.08,0,0,0,0,1,0,0,8.88,8.88,0,0,0-1.43-.35,12.52,12.52,0,0,0,1.44-3.71s1.2.3,1.67.48c.25.09.35.19.35.28s-.24.24-.58.26C46.49,54.94,45.77,56.73,45.16,57.92Z"/><path class="cls-2" d="M62.84,53.55H64.2V55H59.67a23.3,23.3,0,0,0,.71,4.71,13,13,0,0,0,1.33-3.84,16.68,16.68,0,0,1,1.85.74.2.2,0,0,1,.16.2c0,.12-.12.23-.4.23a.75.75,0,0,1-.2,0A15.7,15.7,0,0,1,61,61.52c.72,1.55,1.45,2,1.69,2,.58,0,.85-1.34,1-2.56A12,12,0,0,0,65,62.45a.11.11,0,0,1,0,.09c0,.18-.69,2.79-2.29,2.79-1.11,0-2.15-1.28-2.79-2.55a10.8,10.8,0,0,1-4.06,2.79l-.07,0a9.16,9.16,0,0,0-1.52-1.09,9.38,9.38,0,0,0,5-3.16A24.18,24.18,0,0,1,58.17,55H53.26s0,.92,0,1.78h3.8c0,.34,0,.75,0,1.2A22.2,22.2,0,0,1,57,61a2.45,2.45,0,0,1-2.75,2.12h-.27c-.07,0-.1,0-.11-.08a7.37,7.37,0,0,0-.74-1.54c-.37,2.66-1.14,3.87-1.22,3.87h0a13.12,13.12,0,0,0-1.81-.4c1.52-1.82,1.74-5,1.74-6.83,0-.74-.06-4.56-.06-4.56h6.38c0-.26,0-.52,0-.79,0-.56-.05-1.1-.1-1.73,0,0,1.3.07,1.86.13.19,0,.33.11.33.21s-.14.22-.52.3c0,.66,0,1.28,0,1.88h2.72a6.76,6.76,0,0,0-2.08-1.48l.83-.92a9.42,9.42,0,0,1,2.36,1.58ZM53.29,58.2v0a25.36,25.36,0,0,1-.19,3.17,8.33,8.33,0,0,0,1.15.12c1.18,0,1.36-.75,1.36-2.67,0-.21,0-.43,0-.66Z"/><path class="cls-2" d="M67.4,56.6c.1-2.4,1.55-4.4,4.31-4.4s3.92,1.88,3.92,3.38A4.4,4.4,0,0,1,74,59.15c-1.09,1-2.54,2.16-3.44,3.06a4.07,4.07,0,0,0-.62.72l5.65-.08v1.79H67.43V63.33a14,14,0,0,1,1.59-2c1-1,2.33-2.16,3.47-3.29a3.28,3.28,0,0,0,1.18-2.36,1.82,1.82,0,0,0-2-1.84c-1.41,0-2.26,1.11-2.29,2.72Z"/><path class="cls-2" d="M79.54,61.73a1.75,1.75,0,0,0,2,1.48c1.34,0,2.7-1.23,2.72-4.14a3.42,3.42,0,0,1-2.82,1.39,3.78,3.78,0,0,1-4-4,4.13,4.13,0,0,1,4.18-4.24c1.15,0,4.43.33,4.43,6,0,3.46-1,6.69-4.64,6.69-1.9,0-3.62-.91-3.87-3.13Zm-.14-5.37c0,1.41.69,2.47,2.19,2.47A2.38,2.38,0,0,0,84,56.51a2.52,2.52,0,0,0-2.38-2.72A2.39,2.39,0,0,0,79.4,56.36Z"/><path class="cls-2" d="M102.64,54.28h-5v2.21h4.23v1.44H97.67v2.71h5.56v1.47H97.67v3.52H96.11V62.11h-7V60.64H92V56.49h4.15V54.28H93a14.27,14.27,0,0,1-2.37,3.24s-.05,0-.08,0a7.92,7.92,0,0,0-1.67-.57A13.61,13.61,0,0,0,92.84,51s1.06.29,1.63.53c.16.06.24.16.24.22s-.16.21-.46.21h-.08c-.11.29-.24.57-.39.88h8.86ZM93.5,57.93v2.71h2.61V57.93Z"/><path class="cls-2" d="M107.08,50.76a9.76,9.76,0,0,1,0,15.11l-2.1,0a8.93,8.93,0,0,0,0-15.05Z"/><g class="cls-3"><path class="cls-2" d="M0,40V35.16L14.34,21.72c3-2.82,5-5.64,5-8.94,0-4.32-2.4-7.5-6.84-7.5S5.64,8.4,5.64,13.2v.54H.06V13.2C.06,5.22,4.8,0,12.6,0S25.14,5.46,25.14,12.78c0,5.16-2.46,8.46-6.66,12.3L7.92,34.8v.12H24.66V40Z"/><path class="cls-2" d="M66.66,26.82c0,8.46-5.7,14-13.92,14s-13.92-5.52-13.92-14V14c0-8.46,5.7-14,13.92-14S66.66,5.52,66.66,14ZM61,14c0-5.34-3.18-8.7-8.22-8.7S44.52,8.64,44.52,14V26.82c0,5.34,3.18,8.7,8.22,8.7S61,32.16,61,26.82Z"/><path class="cls-2" d="M86.58,40V5.88H78.06V.78H92.28V40Z"/><path class="cls-2" d="M114.6,40h-6.18l17.7-34V5.88H107V.78h25.5V5.64Z"/></g></g></g></g></svg>