<svg xmlns="http://www.w3.org/2000/svg" width="418.469" height="136.551" viewBox="0 0 418.469 136.551">
  <g id="text09" transform="translate(-233 -5396.956)">
    <path id="パス_2973" data-name="パス 2973" d="M26.629-.558A1.214,1.214,0,0,0,27.4-.744a1,1,0,0,0,.372-.744,35.639,35.639,0,0,0,.093-3.627,5.138,5.138,0,0,0,.992.682,5.828,5.828,0,0,0,1.147.5q-.031,1.271-.108,2.464A11.709,11.709,0,0,1,29.7.248,2.683,2.683,0,0,1,28.613,1.8a3.688,3.688,0,0,1-1.829.4H24.893a3.051,3.051,0,0,1-2.077-.651,1.842,1.842,0,0,1-.543-.915,8.383,8.383,0,0,1-.139-1.845v-8a22,22,0,0,1-6.2,11.687,13.934,13.934,0,0,0-1.209-.915,9.444,9.444,0,0,0-1.271-.76,17.82,17.82,0,0,0,4.9-7.254,32.616,32.616,0,0,0,1.8-8.928H16.182V-18.1h4.061V-26.04h2.79V-18.1h6.6v2.728h-6.7l-.093,1.426h1.891V-1.271a.557.557,0,0,0,.217.527,1.146,1.146,0,0,0,.651.186ZM16.4-22.258v2.6H1.643v-2.6H7.626v-3.751H10.54v3.751Zm10.664,3.193a13.566,13.566,0,0,0-1.317-2.511,20.4,20.4,0,0,0-1.938-2.573l2.2-1.054A15.941,15.941,0,0,1,28.04-22.77a15.325,15.325,0,0,1,1.441,2.526ZM10.571-.651A4.254,4.254,0,0,1,10.323.961a1.888,1.888,0,0,1-.868.93,4.163,4.163,0,0,1-1.5.387q-.884.078-2.464.078A7.471,7.471,0,0,0,5.131,1.07,10.5,10.5,0,0,0,4.557-.248l1.736.031L7.347-.248a.539.539,0,0,0,.372-.093.481.481,0,0,0,.093-.341V-9.207H3.224v-8.339H15.066v8.339H10.571ZM5.859-15.128v3.5h6.417v-3.5ZM13.733-1.953a20.589,20.589,0,0,0-.806-2.573,28.426,28.426,0,0,0-1.178-2.728l2.263-.837A28.472,28.472,0,0,1,15.268-5.41a20.079,20.079,0,0,1,.884,2.557Zm-7.44-5.27A25.978,25.978,0,0,1,4.96-3.038,17.414,17.414,0,0,1,3.131.372Q2.728,0,2.077-.512a9.457,9.457,0,0,0-1.085-.76A12.2,12.2,0,0,0,2.573-4.154,21.784,21.784,0,0,0,3.658-7.781ZM52.421-14.26v4.588h6.386V2.263H56.079V1.116H45.818v1.3H43.183V-9.672h6.51V-14.26H41.075v-2.759h8.618v-4.4q-3.131.5-6.448.744A7.761,7.761,0,0,0,42.9-21.9a10.755,10.755,0,0,0-.5-1.194q4.34-.465,8.323-1.193a39.168,39.168,0,0,0,6.4-1.628L59.4-23.684a42.661,42.661,0,0,1-6.975,1.8v4.867h8.215v2.759Zm-12.9-5.859q-1.612-1.147-5.673-3.41l1.612-2.046q1.457.713,3.146,1.612t2.619,1.519Zm-1.457,8.37q-.93-.651-2.6-1.612t-3.1-1.7L33.945-17.2a58.852,58.852,0,0,1,5.7,3.069ZM32.984.124q1.271-1.8,2.883-4.511t2.945-5.285L40.889-7.75a99.972,99.972,0,0,1-5.487,9.8Zm23.1-1.612v-5.58H45.818v5.58ZM68.727-20.77a89.959,89.959,0,0,0-.806,10.912A81.176,81.176,0,0,0,68.944,1.364H65.875a87.614,87.614,0,0,1-.868-11.129,103.749,103.749,0,0,1,.775-11Zm13.95,1.364v2.883H72.447v-2.883ZM75.113-8.4a6.758,6.758,0,0,0-.418,1.473,8.744,8.744,0,0,0-.171,1.565,2.814,2.814,0,0,0,1.085,2.341,4.941,4.941,0,0,0,3.038.883,40.445,40.445,0,0,0,4.588-.248V.589q-.341.062-1.426.124L78.4.806A8.9,8.9,0,0,1,75.02.062,6.326,6.326,0,0,1,72.6-1.752a4.28,4.28,0,0,1-.961-2.527A9.84,9.84,0,0,1,72.2-8.4Zm27.745-9.734q-1.271-1.116-3.425-2.759T95.325-23.9l1.891-2.046q1.8,1.178,3.968,2.759t3.6,2.7ZM105.524-.713a1.713,1.713,0,0,0,1.286-.434,3.064,3.064,0,0,0,.62-1.566,32.066,32.066,0,0,0,.326-3.612,7.45,7.45,0,0,0,1.364.728,10.02,10.02,0,0,0,1.457.512,21.445,21.445,0,0,1-.682,4.4,3.9,3.9,0,0,1-1.411,2.17,4.825,4.825,0,0,1-2.743.651h-5.89a8.128,8.128,0,0,1-2.9-.4,2.493,2.493,0,0,1-1.426-1.4,7.615,7.615,0,0,1-.419-2.852v-.434A47.5,47.5,0,0,1,88.722.775a13.889,13.889,0,0,0-.883-1.194,8.642,8.642,0,0,0-1.007-1.07,44.228,44.228,0,0,0,8.277-4.929V-18.786h3.038V-8.9a50.245,50.245,0,0,0,6.743-7.254,47.074,47.074,0,0,0,4.975-8.06L112.778-23a59.035,59.035,0,0,1-6.355,9.61,53.643,53.643,0,0,1-8.277,8.215v2.7A3.036,3.036,0,0,0,98.3-1.349a.893.893,0,0,0,.558.5,4.352,4.352,0,0,0,1.3.14ZM92.938-16.461Q91.605-9.207,89.59-5.89L86.769-6.975a20.336,20.336,0,0,0,2.108-4.65,33.35,33.35,0,0,0,1.3-5.518Zm17.98.806a49.223,49.223,0,0,1,2.883,4.913,29.948,29.948,0,0,1,1.984,4.634L113-4.712a27.818,27.818,0,0,0-1.845-4.681,45.04,45.04,0,0,0-2.836-5.053Zm29.388,8.68a13.177,13.177,0,0,1-3.441,4.526q4.867,1.3,8.432,2.635l-1.7,2.356A82.627,82.627,0,0,0,134.013-.62a23.913,23.913,0,0,1-5.967,1.984,67.157,67.157,0,0,1-8.169,1.085,8.594,8.594,0,0,0-.45-1.349,5.753,5.753,0,0,0-.635-1.162,45.1,45.1,0,0,0,11.1-1.612q-1.271-.341-3.286-.775-.31-.062-1.178-.248l-.5.682-2.759-.9q1.457-1.891,2.976-4.061H118.3V-9.331h8.463q1.116-1.674,1.581-2.449h-7.9v-8.246h6.758v-2.232h-8.246V-24.8h26.567v2.542h-8.525v2.232h7.378v8.246H131.1l.465.124-1.488,2.325h16.213v2.356ZM129.952-22.258v2.232h4.309v-2.232Zm-6.82,4.557v3.6h4.061v-3.6Zm6.82,3.6h4.309v-3.6h-4.309Zm11.563-3.6h-4.526v3.6h4.526ZM128.495-6.975l-1.55,2.2q3.286.651,6.572,1.457a10.964,10.964,0,0,0,3.565-3.658Zm21.793-8.9v-2.821h3.627q.4-2.015.527-3.1h3.007q-.372,2.046-.589,3.1h3.813v2.821h-4.247q-2.325,10.385-3.069,12.8h-3.1q2.387-8.618,3.162-12.8Zm12.958-2.883q1.116-.093,2.449-.093a30.677,30.677,0,0,1,3.844.217v2.852a31.447,31.447,0,0,0-3.41-.186v7.843a27.094,27.094,0,0,1,3.565,1.581v3.472a19.32,19.32,0,0,0-3.565-2.046V-2.17a8.324,8.324,0,0,1-.171,1.938A3.613,3.613,0,0,1,165.447.93a4.1,4.1,0,0,1-3.658,1.643,8.287,8.287,0,0,1-2.635-.4A5.059,5.059,0,0,1,156.519.31a5.459,5.459,0,0,1-.93-3.255A5.66,5.66,0,0,1,157.341-7.3a6.406,6.406,0,0,1,4.541-1.628,11.281,11.281,0,0,1,1.4.093ZM161.417-.217A2.368,2.368,0,0,0,162.7-.481a1.105,1.105,0,0,0,.48-.713,7.433,7.433,0,0,0,.093-1.38V-5.952a6.628,6.628,0,0,0-1.3-.124,3.639,3.639,0,0,0-2.464.79,3.19,3.19,0,0,0-1.038,2.248A2.393,2.393,0,0,0,159.294-.9,3.372,3.372,0,0,0,161.417-.217ZM182.9-11.005q-.031.279-.093.729t-.186,1.039q1.705,1.674,6.014,6.572l-1.984,2.48q-.775-1.147-2.139-2.914t-2.6-3.193a16.8,16.8,0,0,1-6.138,8.68,10.577,10.577,0,0,0-.961-1.178A7.558,7.558,0,0,0,173.724.186,13.646,13.646,0,0,0,178.157-4.8a18.765,18.765,0,0,0,1.829-6.2H174.1v-2.728h6.076v-5.549h-1.891a22.357,22.357,0,0,1-2.294,4.5,11.553,11.553,0,0,0-1.07-.837q-.7-.5-1.286-.837a14.861,14.861,0,0,0,2.186-4.108,37.049,37.049,0,0,0,1.5-5.41l2.759.527q-.4,1.891-.837,3.472h8.463v2.7h-4.619v5.549h5.487v2.728Zm6.572-12.338h11.346V1.209H197.9V-.775h-5.642V1.55h-2.79Zm2.79,19.871H197.9V-20.615h-5.642Zm32.55-19.313v2.2h-9.951v-2.2h3.689v-3.224h2.666v3.224Zm7.719,12.028a26.763,26.763,0,0,1-3.472,6.913q.713,3.131,1.953,3.255.713.031,1.023-3.844a6.943,6.943,0,0,0,1.8,1.581Q233,2.6,230.919,2.542a3.185,3.185,0,0,1-2.186-1.1A7.982,7.982,0,0,1,227.2-1.519a20.649,20.649,0,0,1-4.619,3.875,7.127,7.127,0,0,0-.713-.806,10.169,10.169,0,0,0-.9-.806,16.762,16.762,0,0,0,2.542-1.86h-5.7V.31h-2.263v-11.9h8.587v9.92a19.9,19.9,0,0,0,2.387-2.666,76.657,76.657,0,0,1-.806-8.9H214.086v-2.387h8.4l-1.86-.4q.279-.961.527-2.247t.372-2.248l2.387.465-.558,1.953q-.465,1.705-.713,2.48h2.976q-.124-4.123-.124-10.354h2.48q-.031,1.457-.031,4.185,0,2.325.062,6.169h5.146v2.387h-5.084q.124,2.728.4,5.828a24.711,24.711,0,0,0,1.86-4.526ZM213.683-24.986v2.263h-7.409v-2.263Zm17.422,7.037a16.8,16.8,0,0,0-1.132-2.759,18.419,18.419,0,0,0-1.72-2.821l2.17-.837a22.947,22.947,0,0,1,1.813,2.743,14.329,14.329,0,0,1,1.225,2.682Zm-16.647-2.945V-18.6H204.91v-2.294Zm3.5.527a12.63,12.63,0,0,1,.651,2.185,12.559,12.559,0,0,1,.279,2.062l-2.108.5a12.02,12.02,0,0,0-.217-2.077,13.515,13.515,0,0,0-.589-2.232Zm-4.247,3.689v2.232H206.15v-2.232Zm-7.564,6.386v-2.263h7.564v2.263Zm15.593.775h-3.937v2.108h3.937ZM213.776-8.37V.682H208.32V2.046h-2.263V-8.37Zm-2.294,2.325H208.32v4.464h3.162Zm6.324,2.821h3.937v-2.2h-3.937Zm36.921-9.021q-6.851.248-10.416,1.953t-3.565,4.836a3.6,3.6,0,0,0,1.395,3.007,5.765,5.765,0,0,0,2.527,1.1,17.528,17.528,0,0,0,3.146.264q2.015,0,4.154-.124t2.759-.217V1.488a58.665,58.665,0,0,1-5.89.31,25.586,25.586,0,0,1-5.983-.527,6.6,6.6,0,0,1-3.8-2.48,7.039,7.039,0,0,1-1.38-4.309,6.348,6.348,0,0,1,1.24-3.937,13.831,13.831,0,0,1,3.6-3.162l-1.488-8.618h3.069l1.178,7.564a28.469,28.469,0,0,1,4.681-1.1q2.139-.294,4.774-.418Zm6.541-5.487v-3.007h15.9a25.875,25.875,0,0,1-1.751,5.41A39.726,39.726,0,0,1,272.3-9.548,46.71,46.71,0,0,0,275.265-5.7,35.122,35.122,0,0,0,278.6-2.48V1.364a31.185,31.185,0,0,1-4.092-3.658q-1.891-2.015-4-4.712a38.456,38.456,0,0,1-4.433,4.681,29.206,29.206,0,0,1-3.208,2.5,22.7,22.7,0,0,1-2.743,1.6v-3.41a29.729,29.729,0,0,0,4.588-3.41,31.117,31.117,0,0,0,8.339-12.679ZM283.247-8.8h8.091l-.4-5.952h-7.688V-17.7h7.471l-.279-4.216h3.038l.31,4.216h8.494v2.945h-8.308l.4,5.952h7.9V-5.8h-7.657l.558,8.06h-3.069l-.558-8.06h-8.308Zm43.121,5.952a17.534,17.534,0,0,1-8.99,4.588V-21.111h2.976V-2.542A19.961,19.961,0,0,0,326.368-6.7Zm-19.22,3.937q.558-1.271,1.178-3.038a32.147,32.147,0,0,0,1.209-4.991A36.013,36.013,0,0,0,310-12.865v-7.9h3.007v7.9a43.449,43.449,0,0,1-.682,7.843,30.755,30.755,0,0,1-1.8,6.107ZM335.7-20.77a89.959,89.959,0,0,0-.806,10.912,81.178,81.178,0,0,0,1.023,11.222h-3.069a87.61,87.61,0,0,1-.868-11.129,103.746,103.746,0,0,1,.775-11Zm13.95,1.364v2.883h-10.23v-2.883ZM342.085-8.4a6.759,6.759,0,0,0-.419,1.473,8.743,8.743,0,0,0-.171,1.565,2.814,2.814,0,0,0,1.085,2.341,4.94,4.94,0,0,0,3.038.883,40.446,40.446,0,0,0,4.588-.248V.589q-.341.062-1.426.124l-3.41.093a8.9,8.9,0,0,1-3.379-.744,6.326,6.326,0,0,1-2.418-1.814,4.28,4.28,0,0,1-.961-2.527,9.839,9.839,0,0,1,.558-4.123Zm26.04-11.935q0,1.054-.031,1.4-.124,7.223-.279,10.99T367.4-2.217a6.8,6.8,0,0,1-.728,2.651,3.4,3.4,0,0,1-.945.946,3.443,3.443,0,0,1-1.256.419,16.4,16.4,0,0,1-1.953.093q-1.116,0-1.705-.031a7.218,7.218,0,0,0-.248-1.5,4.587,4.587,0,0,0-.589-1.38q2.046.093,3.131.093a1.757,1.757,0,0,0,.635-.093.9.9,0,0,0,.418-.434q.465-.62.713-4.061t.434-12h-4.03a61.861,61.861,0,0,1-1.41,11.9,17.984,17.984,0,0,1-4.014,8.06,7.41,7.41,0,0,0-.992-1.116A7.546,7.546,0,0,0,353.71.4a15.606,15.606,0,0,0,3.549-7.161,56.079,56.079,0,0,0,1.194-10.757h-3.937v-2.821h4q.031-1.7.031-5.239H361.4q0,3.534-.031,5.239Zm2.17-1.984h10.757V1.674h-2.914V-.31h-5.084V1.922H370.3Zm2.759,19.251h5.084V-19.53h-5.084Zm16.4-18.166q1.209-.093,2.914-.093.744,0,2.728.062a52.726,52.726,0,0,1,6.231.589v3.069q-2.2-.372-3.441-.527t-3.038-.217h-1.426q-2.108,0-3.968.093Zm7.936,9.207H387.128v-2.914h14.2v2.976l-3.813,3.658a1.652,1.652,0,0,1,.372-.031,1.488,1.488,0,0,1,1.225.558,2.181,2.181,0,0,1,.418,1.488v3.379a2.1,2.1,0,0,0,.341,1.286,1.389,1.389,0,0,0,1.178.449,7.588,7.588,0,0,0,1.938-.155,17.235,17.235,0,0,0,2.124-.527V1.3a19.256,19.256,0,0,1-4.371.527,4.578,4.578,0,0,1-3.193-.868,4.156,4.156,0,0,1-.868-3.1V-5.8a.616.616,0,0,0-.434-.62q-.434-.155-1.333.527l-8.091,7.75V-2.263ZM415.834,1.891a47.734,47.734,0,0,0-3.255-3.612q-1.829-1.844-3.5-3.24l2.542-2.232q1.612,1.333,3.549,3.271t3.3,3.581ZM26.629,53.442a1.214,1.214,0,0,0,.775-.186,1,1,0,0,0,.372-.744,35.639,35.639,0,0,0,.093-3.627,5.138,5.138,0,0,0,.992.682,5.828,5.828,0,0,0,1.147.5q-.031,1.271-.108,2.465a11.709,11.709,0,0,1-.2,1.721,2.683,2.683,0,0,1-1.085,1.55,3.688,3.688,0,0,1-1.829.4H24.893a3.051,3.051,0,0,1-2.077-.651,1.842,1.842,0,0,1-.543-.914,8.383,8.383,0,0,1-.139-1.845v-8a22,22,0,0,1-6.2,11.687,13.934,13.934,0,0,0-1.209-.915,9.444,9.444,0,0,0-1.271-.759,17.82,17.82,0,0,0,4.9-7.254,32.616,32.616,0,0,0,1.8-8.928H16.182V35.9h4.061V27.96h2.79V35.9h6.6v2.728h-6.7l-.093,1.426h1.891V52.729a.557.557,0,0,0,.217.527,1.146,1.146,0,0,0,.651.186ZM16.4,31.742v2.6H1.643v-2.6H7.626V27.991H10.54v3.751Zm10.664,3.193a13.566,13.566,0,0,0-1.317-2.511,20.4,20.4,0,0,0-1.938-2.573l2.2-1.054A15.941,15.941,0,0,1,28.04,31.23a15.325,15.325,0,0,1,1.441,2.526ZM10.571,53.349a4.254,4.254,0,0,1-.248,1.612,1.888,1.888,0,0,1-.868.93,4.163,4.163,0,0,1-1.5.388q-.884.077-2.464.077a7.471,7.471,0,0,0-.356-1.286,10.5,10.5,0,0,0-.574-1.318l1.736.031,1.054-.031a.539.539,0,0,0,.372-.093.481.481,0,0,0,.093-.341V44.793H3.224V36.454H15.066v8.339H10.571ZM5.859,38.872v3.5h6.417v-3.5Zm7.874,13.175a20.589,20.589,0,0,0-.806-2.573,28.426,28.426,0,0,0-1.178-2.728l2.263-.837a28.472,28.472,0,0,1,1.255,2.681,20.079,20.079,0,0,1,.884,2.557Zm-7.44-5.27A25.978,25.978,0,0,1,4.96,50.962a17.414,17.414,0,0,1-1.829,3.41q-.4-.372-1.054-.884a9.457,9.457,0,0,0-1.085-.759,12.2,12.2,0,0,0,1.581-2.883,21.785,21.785,0,0,0,1.085-3.627Zm53.847-4.9a28.3,28.3,0,0,1-3.286,7.812q.589,3.348,1.395,3.348.651,0,.9-4.278a8.532,8.532,0,0,0,1.891,1.581,14.216,14.216,0,0,1-1.194,4.681q-.76,1.364-1.689,1.364-2.077,0-3.193-4.03a21.389,21.389,0,0,1-4.433,4.092,8.849,8.849,0,0,0-.76-.961,12.61,12.61,0,0,0-.914-.961,17.2,17.2,0,0,0,2.821-2.139H45.849v1.891H43.586V41.631h8.339V52.14a20.858,20.858,0,0,0,2.387-2.821,79.775,79.775,0,0,1-.868-9.331H42.16V37.694h2.418a16.24,16.24,0,0,0-.295-1.984,17.729,17.729,0,0,0-.542-2.077l1.922-.434a16.93,16.93,0,0,1,.651,2.108,10.218,10.218,0,0,1,.31,2.015l-1.519.372h4.929l-1.55-.4a38.3,38.3,0,0,0,.93-4.154l2.263.465q-.155.4-.589,1.8-.589,1.829-.775,2.294H53.32q-.186-5.828-.217-9.672h2.542q0,5.921.155,9.672h4.96v2.294H55.893q.217,3.813.434,5.7a31.43,31.43,0,0,0,1.488-4.34Zm-7.657-8.742H42.935V31.8H41.571V56.449H39.153V50.838l-6.6,1.4-.5-2.635,1.922-.341V31.8H32.643V29.231H43v1.7h3.41V28.053h2.48v2.883h3.6Zm6.324,2.17a17.3,17.3,0,0,0-1.286-2.542,22.243,22.243,0,0,0-1.751-2.542L57.691,29.2a19.333,19.333,0,0,1,1.844,2.48,15.593,15.593,0,0,1,1.318,2.48Zm-19.654.434V31.8H36.394v3.937Zm0,6.293V38.1H36.394v3.937Zm10.509,1.674H45.849V46h3.813ZM36.394,48.823l2.759-.527V44.421H36.394Zm9.455,1.519h3.813V47.955H45.849ZM82,43.491a9.575,9.575,0,0,0-.822-3.6,6.186,6.186,0,0,0-2-2.5,4.911,4.911,0,0,0-2.945-.914,75.753,75.753,0,0,1-.465,9.191,15.091,15.091,0,0,1-1.783,5.89,4.189,4.189,0,0,1-3.8,2.185,4.458,4.458,0,0,1-4.138-2.34,12.541,12.541,0,0,1-1.38-6.185,13.568,13.568,0,0,1,1.24-5.642,11.261,11.261,0,0,1,3.333-4.247,9.287,9.287,0,0,1,4.82-1.922q.372-.031,1.116-.031A10.036,10.036,0,0,1,80.29,34.64a8.692,8.692,0,0,1,3.395,3.611,13.375,13.375,0,0,1,1.38,5.58,14.009,14.009,0,0,1-1.007,5.6,10.592,10.592,0,0,1-3.085,4.309,7.583,7.583,0,0,1-4.681,1.751V52.6a4.787,4.787,0,0,0,2.852-1.194A7.494,7.494,0,0,0,81.22,48.28,13.414,13.414,0,0,0,82,43.491ZM70.06,50.838q1.7.093,2.48-3.7a45.231,45.231,0,0,0,.775-8.944l-.031-1.674a5.694,5.694,0,0,0-2.929,1.6,8.78,8.78,0,0,0-2.046,3.178A10.776,10.776,0,0,0,67.58,45.2a10.571,10.571,0,0,0,.635,4.061A2.223,2.223,0,0,0,70.06,50.838ZM93.868,35.524V32.641h12.741v2.945l-2.573,2.046q-.279.217-.542.449a6.5,6.5,0,0,1-.574.45l-.93.744q-.4.341-.977.775t-1.225.961l-1.333,1.023q5.673-.5,11.532-.93v2.883l-4.464.372a9.266,9.266,0,0,0-2.759.744,8.324,8.324,0,0,0-2.682,1.751,4.735,4.735,0,0,0-1.348,2.34,6.6,6.6,0,0,0-.062.682q0,2.914,4.433,3.317,1.3.093,2.573.093.651,0,1.767-.062v2.883q-.992.093-2.077.093a20.222,20.222,0,0,1-2.294-.124,11.937,11.937,0,0,1-3.534-.837A7.154,7.154,0,0,1,96.8,53.333a4.346,4.346,0,0,1-1.07-2.96,4.731,4.731,0,0,1,.093-.93,7.311,7.311,0,0,1,3.1-4.464l-.062-.279-8.122.682V42.5l3.41-.31q1.86-1.333,3.038-2.278t3.441-2.837l1.86-1.55Zm39.153,7.967a9.575,9.575,0,0,0-.822-3.6,6.186,6.186,0,0,0-2-2.5,4.911,4.911,0,0,0-2.945-.914,75.756,75.756,0,0,1-.465,9.191,15.091,15.091,0,0,1-1.783,5.89,4.189,4.189,0,0,1-3.8,2.185,4.458,4.458,0,0,1-4.138-2.34,12.541,12.541,0,0,1-1.38-6.185,13.568,13.568,0,0,1,1.24-5.642,11.261,11.261,0,0,1,3.333-4.247,9.287,9.287,0,0,1,4.82-1.922q.372-.031,1.116-.031a10.036,10.036,0,0,1,5.115,1.255,8.692,8.692,0,0,1,3.395,3.611,13.374,13.374,0,0,1,1.38,5.58,14.009,14.009,0,0,1-1.008,5.6A10.592,10.592,0,0,1,132,53.736a7.583,7.583,0,0,1-4.681,1.751V52.6a4.787,4.787,0,0,0,2.852-1.194,7.494,7.494,0,0,0,2.077-3.131A13.414,13.414,0,0,0,133.021,43.491Zm-11.935,7.347q1.7.093,2.48-3.7a45.231,45.231,0,0,0,.775-8.944l-.031-1.674a5.694,5.694,0,0,0-2.93,1.6,8.78,8.78,0,0,0-2.046,3.178,10.776,10.776,0,0,0-.729,3.906,10.571,10.571,0,0,0,.635,4.061A2.223,2.223,0,0,0,121.086,50.838Zm43.183,2.418a.912.912,0,0,0,.775-.326,2.793,2.793,0,0,0,.372-1.224q.124-.9.186-2.914a5.482,5.482,0,0,0,1.178.667,10.4,10.4,0,0,0,1.426.512,19.037,19.037,0,0,1-.511,3.689,3.192,3.192,0,0,1-1.085,1.8,3.535,3.535,0,0,1-2.092.527h-4.03a6.056,6.056,0,0,1-2.356-.357A2.082,2.082,0,0,1,157,54.465a6.468,6.468,0,0,1-.326-2.325V43.77h-5.208A23.41,23.41,0,0,1,150.21,49.3a11.4,11.4,0,0,1-2.837,4.216,15.147,15.147,0,0,1-5.3,3.115A7.243,7.243,0,0,0,141.3,55.3a7.987,7.987,0,0,0-1.023-1.209A12.587,12.587,0,0,0,145,51.66a8.616,8.616,0,0,0,2.4-3.379,19.041,19.041,0,0,0,1.023-4.51H140.74V40.98h12.09v-5.7h-5.921a22.326,22.326,0,0,1-2.542,4.526q-.527-.341-1.271-.744a13.758,13.758,0,0,0-1.271-.62,17.685,17.685,0,0,0,2.589-4.495,30.758,30.758,0,0,0,1.689-5.332l2.945.558q-.62,2.139-1.054,3.348h4.836V27.991h2.914v4.526h9.827v2.759h-9.827v5.7h12.121v2.79h-8.277v8.37a1.311,1.311,0,0,0,.217.915,1.673,1.673,0,0,0,1.023.2Zm7.812-15.593V34.811h6.293a17.614,17.614,0,0,0,.9-3.038h3.1q-.279,1.085-.93,3.038h7.316v2.852h-8.184a20.363,20.363,0,0,1-1.55,3.069,6.019,6.019,0,0,1,2.418-.558,3.465,3.465,0,0,1,2.325.791,2.9,2.9,0,0,1,.992,2.186v.186q3.069-1.488,6.2-2.79V43.77a58.875,58.875,0,0,0-6.169,2.759v4.216H181.97V47.614l-1.023.62a3.18,3.18,0,0,0-.434.279,4.544,4.544,0,0,0-1.163,1.317,2.775,2.775,0,0,0-.387,1.349,1.821,1.821,0,0,0,.7,1.472,3.146,3.146,0,0,0,1.969.6l7.688-.062v2.883h-7.936a7.017,7.017,0,0,1-3.441-.961,3.913,3.913,0,0,1-1.8-2.325,3.784,3.784,0,0,1-.155-1.178,5.3,5.3,0,0,1,.837-2.774,7.578,7.578,0,0,1,2.325-2.372L182,44.576a2.975,2.975,0,0,0-.48-1.6,1.442,1.442,0,0,0-1.193-.48,4.656,4.656,0,0,0-1.953.511,7.26,7.26,0,0,0-2.139,1.628q-.682.713-4.247,4.681v-4.34q1.984-2.108,3.178-3.627a19.239,19.239,0,0,0,2.217-3.689Zm46.748,15.779a1.239,1.239,0,0,0,.93-.295,2.163,2.163,0,0,0,.4-1.132,27.934,27.934,0,0,0,.186-2.821,7.418,7.418,0,0,0,2.7,1.178,17.175,17.175,0,0,1-.574,3.611,2.948,2.948,0,0,1-1.163,1.7,4.191,4.191,0,0,1-2.2.48H214.52a7.171,7.171,0,0,1-2.511-.341A2.077,2.077,0,0,1,210.8,54.7a6.071,6.071,0,0,1-.341-2.309V46.777h-4.464a13.559,13.559,0,0,1-1.333,4.479,8.526,8.526,0,0,1-2.992,3.131,17.438,17.438,0,0,1-5.564,2.124,7.88,7.88,0,0,0-.713-1.333,7.273,7.273,0,0,0-.93-1.209,16.605,16.605,0,0,0,4.836-1.55,6.479,6.479,0,0,0,2.526-2.294,9.315,9.315,0,0,0,1.1-3.348h-4V29.014h19.716V46.777H213.4v5.611q0,.682.264.868a2.415,2.415,0,0,0,1.193.186ZM201.717,31.587v2.6h14.012v-2.6Zm0,4.96v2.635h14.012V36.547Zm0,5.022v2.666h14.012V41.569Zm30.132,11.408a4.72,4.72,0,0,1-.248,1.7,1.734,1.734,0,0,1-.868.93,3.938,3.938,0,0,1-1.519.45,22.775,22.775,0,0,1-2.511.108,9.248,9.248,0,0,0-.279-1.317,7.439,7.439,0,0,0-.5-1.348q1.24.031,2.728.031a.465.465,0,0,0,.558-.558V45.754l-3.348,1.023-.651-2.79q.62-.155,3.1-.868l.9-.248V36.7h-3.6V34.036h3.6V28.053h2.635v5.983h3.317V36.7h-3.317v5.425l2.976-.868.4,2.6-3.379,1.054Zm15.345-9.8v3.441h5.735v9.734h-2.6v-.992h-8.587v1.085h-2.511V46.622h5.27V43.181h-5.518q-.651,8.773-3.689,13.268-.5-.434-1.209-.945a6,6,0,0,0-1.178-.7,17.669,17.669,0,0,0,2.775-7.208,56.386,56.386,0,0,0,.667-9.006v-9.3H252.8v8.37h-5.611v3.1h6.572v2.418ZM250.077,31.8H239.134v3.348h10.943Zm-5.58,8.959v-3.1h-5.363v.93q0,1.4-.031,2.17Zm5.828,12.276v-4h-8.587v4Zm10.6-20.274q1.209-.093,2.914-.093.744,0,2.728.062a52.725,52.725,0,0,1,6.231.589v3.069q-2.2-.372-3.441-.527t-3.038-.217h-1.426q-2.108,0-3.968.093Zm7.936,9.207H258.6V39.058h14.2v2.976l-3.813,3.658a1.652,1.652,0,0,1,.372-.031,1.488,1.488,0,0,1,1.225.558A2.181,2.181,0,0,1,271,47.707v3.379a2.1,2.1,0,0,0,.341,1.287,1.389,1.389,0,0,0,1.178.449,7.588,7.588,0,0,0,1.938-.155,17.234,17.234,0,0,0,2.124-.527V55.3a19.256,19.256,0,0,1-4.371.527,4.578,4.578,0,0,1-3.193-.868,4.156,4.156,0,0,1-.868-3.1V48.2a.616.616,0,0,0-.434-.62q-.434-.155-1.333.527l-8.091,7.75V51.737ZM281.914,38.5V35.648h4q.217-1.581.279-3.255H289.2q-.093,1.023-.372,3.255h4.34l-.031,2.852H288.61q-.775,5.394-1.488,9.207t-1.674,7.967h-3.224q.961-3.751,1.844-8.277t1.535-8.9Zm11,.992h.93q3.41-.062,4.464-.062l2.759.031v2.976q-1.209-.093-3.844-.093-1.023,0-4.247.062Zm.9,7.967a6.31,6.31,0,0,0-1.24,3.131q0,2.356,4.4,2.356,1.984,0,4.526-.186v2.945q-.155,0-1.132.077T298,55.86q-1.209,0-2.511-.093a11.708,11.708,0,0,1-1.876-.232,6.913,6.913,0,0,1-1.473-.512,4.229,4.229,0,0,1-1.783-1.6,4.806,4.806,0,0,1-.573-2.465,5.914,5.914,0,0,1,.263-1.813,6.659,6.659,0,0,1,.853-1.689ZM6.51,90.423v8.8H3.348V87.354h17.98v5.332a21.522,21.522,0,0,1-1.054,6.743,13.989,13.989,0,0,1-2.821,4.852,15.363,15.363,0,0,1-4.526,3.41,18.281,18.281,0,0,1-5.518,1.736v-3.162a15.852,15.852,0,0,0,3.6-1.054,11.527,11.527,0,0,0,3.193-2.139,11.908,11.908,0,0,0,2.945-4.247,16.032,16.032,0,0,0,1.147-6.2v-2.2Zm20.243,5.921H40.145v3.069H26.753Zm26.04-10.385a14.06,14.06,0,0,1-.341,1.628,15.891,15.891,0,0,1-.5,1.6H62.465v2.945a19.9,19.9,0,0,1-1.519,7.13,15.805,15.805,0,0,1-3.441,5.3,21.229,21.229,0,0,1-4.9,3.627,25.582,25.582,0,0,1-5.735,2.294v-3.162a23.682,23.682,0,0,0,3.922-1.565,17.851,17.851,0,0,0,3.611-2.527,15.076,15.076,0,0,0,3.457-4.51,17.261,17.261,0,0,0,1.5-6.588H50.778a22.754,22.754,0,0,1-6.2,7.037V95.2a16.369,16.369,0,0,0,3.193-4.185,18,18,0,0,0,1.86-5.053Zm15.159,1.147H75.3v3.007H67.952Zm18.6,5.58A25.049,25.049,0,0,1,82.91,100.4a21.652,21.652,0,0,1-5.255,5.394,21.3,21.3,0,0,1-4.821,2.5,23.164,23.164,0,0,1-4.882,1.132v-3.1a22.139,22.139,0,0,0,4.263-.961,13.824,13.824,0,0,0,3.89-2.17A20.938,20.938,0,0,0,83.39,92.686Zm-18.6,1.953H75.3v3.007H67.952Zm23.963,4.092h11.377V93.957H91.264V91.2h14.88v17.887H91.264v-2.759h12.028v-5.053H91.915Zm23.622,1.209h-2.542l-1.519-9.145h2.418Zm5.053,0h-2.511l-1.55-9.145h2.418Zm-7.1,7.13a11.205,11.205,0,0,0,4.913-2.34,12.454,12.454,0,0,0,3.488-4.449,26.283,26.283,0,0,0,1.674-4.526,35.143,35.143,0,0,0,.9-4.9h2.7a35.055,35.055,0,0,1-.62,4.232,29.669,29.669,0,0,1-1.271,4.293,17.907,17.907,0,0,1-2.573,4.65,15.305,15.305,0,0,1-4.185,3.86,13.734,13.734,0,0,1-5.022,1.938Zm37.262-23.219a1.483,1.483,0,0,0-.449-1.116,1.524,1.524,0,0,0-1.1-.434,1.472,1.472,0,0,0-1.085.434,1.511,1.511,0,0,0-.434,1.116A1.483,1.483,0,0,0,149.2,85.37a1.524,1.524,0,0,0,1.1-.434A1.446,1.446,0,0,0,150.753,83.851ZM146.785,81.4a3.436,3.436,0,0,1,4.852,4.867,3.342,3.342,0,0,1-2.434.992,3.387,3.387,0,0,1-3.41-3.41A3.394,3.394,0,0,1,146.785,81.4ZM132.37,90.454v-3.1h17.267v3.658a19.9,19.9,0,0,1-1.225,7.223,17.645,17.645,0,0,1-3.24,5.425,15.257,15.257,0,0,1-3.782,3.131,23.045,23.045,0,0,1-7.006,2.542v-3.069a19.429,19.429,0,0,0,4-1.256,14.18,14.18,0,0,0,3.6-2.34,13.413,13.413,0,0,0,3.286-4.712,21.153,21.153,0,0,0,1.364-7.5Zm22.723,3.1q1.116-.558,3.1-1.333l-.868-5.983h3.038q.062,1.116.264,2.526t.264,1.814a6.812,6.812,0,0,1,.124.806,20.22,20.22,0,0,1,4.557-.806,17.018,17.018,0,0,0-.9-4.5h3.038a16.985,16.985,0,0,1,.6,2.2,19.237,19.237,0,0,1,.294,2.356q6.882.93,6.882,6.479a7.44,7.44,0,0,1-.775,3.534,4.655,4.655,0,0,1-2.17,2.108,7.649,7.649,0,0,1-3.41.744,13.058,13.058,0,0,1-2.542-.279V100.5a12.523,12.523,0,0,0,2.046.186q3.937,0,3.937-3.627a2.926,2.926,0,0,0-1.751-2.837,10.666,10.666,0,0,0-4.635-.853,16.452,16.452,0,0,0-4.743.868q.868,4.65,1.674,8.184t2.015,7.843h-3.069q-1.953-7.13-3.441-15.19l-3.534,1.767ZM204.1,94.577a21.577,21.577,0,0,1-7.688,9.92,34.773,34.773,0,0,0,11.532,3.224,9.57,9.57,0,0,0-.961,1.271,13.248,13.248,0,0,0-.868,1.519,33.933,33.933,0,0,1-12.555-4.216,41.506,41.506,0,0,1-12.586,4.123,8.022,8.022,0,0,0-.682-1.41,8.794,8.794,0,0,0-.93-1.349,41.544,41.544,0,0,0,11.563-3.224,22.655,22.655,0,0,1-5.859-7.347l2.139-.744h-5.177V93.492h10.044V89.245h-11.47V86.393h11.47v-4.4h2.976v4.4h11.563v2.852H195.052v4.247h6.541l.5-.124Zm-16.275,1.767a18.2,18.2,0,0,0,5.89,6.572,18.312,18.312,0,0,0,6.231-6.572Zm28.954,10.912a4.72,4.72,0,0,1-.248,1.705,1.734,1.734,0,0,1-.868.93,3.913,3.913,0,0,1-1.5.45,22.7,22.7,0,0,1-2.527.108,9.248,9.248,0,0,0-.279-1.317,7.439,7.439,0,0,0-.5-1.349l1.705.031,1.023-.031a.666.666,0,0,0,.434-.108.547.547,0,0,0,.124-.419V100.5l-3.441,1.085-.465-2.852,3.906-1.054V90.7h-3.6V88.036h3.6V82.022h2.635v6.014h3.1V90.7h-3.1v6.169l.775-.217,2.17-.651.4,2.635-3.348,1.054Zm20.584-22.94a68.135,68.135,0,0,1-7.579,1.054q-4.449.4-8.882.5a7.886,7.886,0,0,0-.651-2.2q4.278-.155,8.556-.543a62.8,62.8,0,0,0,6.944-.945Zm-.713,15a15.154,15.154,0,0,1-3.937,6.727,21.924,21.924,0,0,0,6.479,2.046,7.517,7.517,0,0,0-.945,1.116,11.326,11.326,0,0,0-.822,1.3,22.123,22.123,0,0,1-6.882-2.666,21.267,21.267,0,0,1-6.324,2.666,11.412,11.412,0,0,0-.728-1.147,6.486,6.486,0,0,0-.853-1.023,21.136,21.136,0,0,0,5.7-2.046,19.257,19.257,0,0,1-3.069-3.348,15.553,15.553,0,0,1-5.921,7.44,6.08,6.08,0,0,0-.837-1.1,6.457,6.457,0,0,0-1.054-.945,12.271,12.271,0,0,0,4.48-4.728,21.658,21.658,0,0,0,2.154-6.588h-4V94.639h4.34l.186-2.015h-3.875V90.33h2.139a26.984,26.984,0,0,0-1.271-3.658l2.2-.589q.434.9.853,1.938t.6,1.689l-1.767.62h8.153q.744-1.147,1.473-2.558a21.592,21.592,0,0,0,1.132-2.526l2.728.837q-1.705,2.79-2.728,4.247h3.379v2.294h-10.23q-.124,1.271-.217,2.015h11.377v2.387H226.858l-.31,1.705h8.029l.5-.062Zm-8.835-9.176a33.793,33.793,0,0,0-.775-4.061l2.294-.4q.589,2.232.868,3.906Zm-.992,10.757a13.322,13.322,0,0,0,3.689,3.844A10.956,10.956,0,0,0,233.4,100.9ZM256.835,81.34h2.356v4.588h-2.356Zm3.689,0h2.356v4.588h-2.356ZM243.257,91.694l2.7-.186,1.054-.062q.062-2.232.062-3.162l-.031-1.922h2.914q.031.62.031,2.015,0,1.86-.062,2.852h3.286a3.866,3.866,0,0,1,3.115,1.255,7.36,7.36,0,0,1,1.286,4.2q.248,2.666.248,4.712a14.015,14.015,0,0,1-1.085,6.138,4.019,4.019,0,0,1-3.751,2.263,13.152,13.152,0,0,1-3.317-.31V106.45a14.133,14.133,0,0,0,2.945.434,1.783,1.783,0,0,0,1.318-.512,2.461,2.461,0,0,0,.635-1.472,31.144,31.144,0,0,0,.279-4.526q0-1.488-.124-3.534a3.693,3.693,0,0,0-.682-2.123,2.07,2.07,0,0,0-1.643-.635h-1.271q-.31,0-1.426.062a62.479,62.479,0,0,1-1.178,8.541,53.456,53.456,0,0,1-2.108,7.176h-3.193a38.47,38.47,0,0,0,2.294-7.052,59.277,59.277,0,0,0,1.333-8.417q-2.015.155-3.627.341Zm17.3-4.4a37.964,37.964,0,0,1,3.317,11.036h-3.286a33.155,33.155,0,0,0-3.255-11.036Zm8.122,6.448h.62q2.945-.062,4.247-.124a40.771,40.771,0,0,0,2.48-5.363h-8.308V85.525h11.811V81.991H282.5v3.534h11.966v2.728h-15q-1.457,2.914-2.852,5.3,6.014-.217,10.788-.341a44.943,44.943,0,0,0-3.5-3.131l2.387-1.426a55.689,55.689,0,0,1,4.542,3.983,29,29,0,0,1,3.456,3.891L291.71,98.2a27.736,27.736,0,0,0-1.86-2.418q-4.34.217-8.54.4l-6.681.295q-2.48.109-3.534.14l-2.294.093ZM291.214,107.5a1.072,1.072,0,0,0,.9-.356,2.864,2.864,0,0,0,.387-1.364q.109-1.008.2-3.395a4.671,4.671,0,0,0,1.163.666,10.432,10.432,0,0,0,1.473.512,21.984,21.984,0,0,1-.527,4.123,3.509,3.509,0,0,1-1.132,1.968,3.636,3.636,0,0,1-2.216.574H287.4a6.434,6.434,0,0,1-2.371-.341,2.017,2.017,0,0,1-1.147-1.162,6.6,6.6,0,0,1-.326-2.34V97.274h2.883v9.114a1.247,1.247,0,0,0,.232.914,1.908,1.908,0,0,0,1.1.2ZM278.6,97.429a23.608,23.608,0,0,1-1.132,6.045,9.525,9.525,0,0,1-2.945,4.139,15.98,15.98,0,0,1-5.967,2.836,8.225,8.225,0,0,0-.744-1.333,7.8,7.8,0,0,0-.93-1.178,14.023,14.023,0,0,0,5.3-2.232,7.143,7.143,0,0,0,2.465-3.3,19.632,19.632,0,0,0,.883-4.976Zm36.3,5.177q3.224,4.371,11.129,5.394a8.89,8.89,0,0,0-1.736,2.511,20.805,20.805,0,0,1-7.564-2.651,13.894,13.894,0,0,1-4.8-5.068,12.894,12.894,0,0,1-4.185,4.309,27.478,27.478,0,0,1-7.719,3.317,9.327,9.327,0,0,0-.775-1.162,8.867,8.867,0,0,0-.992-1.132q7.626-1.953,10.416-5.518h-9.982V100.1H310a12.138,12.138,0,0,0,.465-2.48h-8.277V95.228H310.5V92.872h-8.8v-1.8h-2.635v-6.2h11.5V82.022h2.976v2.852h11.532v6.2h-2.387v1.8H313.41v2.356h8.773v2.387h-8.8a16.3,16.3,0,0,1-.372,2.48h12.648v2.511Zm-13.02-12.121H310.5v-2.2h2.914v2.2h8.711V87.416H301.878Z" transform="translate(233 5422.996)"/>
    <path id="キャッチ上のハイライト" d="M0,0H304V10H0Z" transform="translate(233 5473)" fill="#ff8c3c" style="mix-blend-mode: multiply;isolation: isolate"/>
  </g>
</svg>
