<svg xmlns="http://www.w3.org/2000/svg" width="381.207" height="86.66" viewBox="0 0 381.207 86.66">
  <g id="text03" transform="translate(-233 -1880.34)">
    <path id="パス_2967" data-name="パス 2967" d="M12.71-6.231A46.414,46.414,0,0,0,9.331-9.889V2.449H6.479V-8.99a28.044,28.044,0,0,1-4.34,3.472,11.619,11.619,0,0,0-.667-1.426,9.6,9.6,0,0,0-.76-1.24,23.8,23.8,0,0,0,5.162-4.061A23.917,23.917,0,0,0,9.92-17.67H1.8v-2.635H6.479v-5.7H9.331v5.7H11.47l.5-.093,1.612,1.085a28.043,28.043,0,0,1-3.844,6.665q1.271,1.023,2.589,2.17t2.155,1.891ZM23.1-1.271h6.913V1.581H12.648V-1.271h7.5V-13.423H13.888v-2.79H20.15v-9.548H23.1v9.548h6.262v2.79H23.1Zm16.12-14.911a35.7,35.7,0,0,1-5.394,3.224,9.425,9.425,0,0,0-.744-1.194,9.131,9.131,0,0,0-.961-1.162,31.457,31.457,0,0,0,7.378-4.759,25.879,25.879,0,0,0,5.3-5.906h2.976a28.864,28.864,0,0,0,5.983,6.061,30.316,30.316,0,0,0,7.285,4.17,14.884,14.884,0,0,0-1.829,2.6,37.092,37.092,0,0,1-5.487-3.224v2.418H39.215Zm14.167-.434A37.217,37.217,0,0,1,49.43-19.84a24.972,24.972,0,0,1-3.022-3.348,23.712,23.712,0,0,1-2.821,3.3A38.438,38.438,0,0,1,39.8-16.616Zm-19.5,5.89H59.334v2.7h-14.2q-2.17,4.371-3.286,6.386l11.067-.434a47.926,47.926,0,0,0-3.6-3.689L51.8-7.1a40.222,40.222,0,0,1,4.107,4A30.025,30.025,0,0,1,58.993.868L56.358,2.511A19.381,19.381,0,0,0,54.994.5q-5.58.279-10.85.512t-9.672.419L34.1-1.4l4.588-.155a50.945,50.945,0,0,0,2.883-6.479H33.883Zm30.566-3.72q1.116-.558,3.1-1.333l-.868-5.983h3.038q.062,1.116.263,2.527t.264,1.813a6.813,6.813,0,0,1,.124.806,20.221,20.221,0,0,1,4.557-.806,17.018,17.018,0,0,0-.9-4.495h3.038a16.982,16.982,0,0,1,.6,2.2,19.237,19.237,0,0,1,.295,2.356q6.882.93,6.882,6.479a7.44,7.44,0,0,1-.775,3.534A4.655,4.655,0,0,1,81.9-5.239a7.649,7.649,0,0,1-3.41.744,13.058,13.058,0,0,1-2.542-.279V-7.5A12.523,12.523,0,0,0,78-7.316q3.937,0,3.937-3.627a2.926,2.926,0,0,0-1.751-2.837,10.667,10.667,0,0,0-4.635-.852,16.452,16.452,0,0,0-4.743.868q.868,4.65,1.674,8.184t2.015,7.843H71.424q-1.953-7.13-3.441-15.19L64.449-11.16Zm39.742-11.687a34.328,34.328,0,0,0,6.076,6.758,32.957,32.957,0,0,0,7.347,4.9,13.683,13.683,0,0,0-1.922,2.573,45.221,45.221,0,0,1-7.239-5.255,33.6,33.6,0,0,1-5.6-6.092,32.372,32.372,0,0,1-5.285,6.092,40.7,40.7,0,0,1-7.239,5.378,9.3,9.3,0,0,0-.806-1.163A13.4,13.4,0,0,0,88.5-14.105a35.293,35.293,0,0,0,7.425-5.5,29.351,29.351,0,0,0,5.316-6.525Zm.527,18.073v7.037h11.408v2.6H89.962v-2.6H93.62V-12.152h2.821V-1.023h5.239V-17.608h3.038v6.944h8.587v2.6Zm33.17,3.317a24.485,24.485,0,0,0,4.852,2.558A29.369,29.369,0,0,0,148.4-.527,8.683,8.683,0,0,0,147.374.667a12.778,12.778,0,0,0-.9,1.379,30.135,30.135,0,0,1-6.03-2.356,23.526,23.526,0,0,1-5.068-3.472V2.449h-2.821V-3.565a25.957,25.957,0,0,1-5.068,3.271,32.776,32.776,0,0,1-5.937,2.31,12.7,12.7,0,0,0-.883-1.3A9.205,9.205,0,0,0,119.66-.434a32.3,32.3,0,0,0,5.626-1.736,24.155,24.155,0,0,0,4.82-2.573h-9.579V-7.161h12.028V-9.052h-9.145v-2.17h9.145v-1.86H121.892v-2.294h6.355a13.612,13.612,0,0,0-1.3-2.821l.744-.124h-7.037v-2.418h4.588a16.877,16.877,0,0,0-.976-2.062q-.636-1.163-1.287-2.123l2.511-.837a24.153,24.153,0,0,1,1.457,2.278,13.353,13.353,0,0,1,1.023,2.155l-1.581.589h3.41v-5.3h2.7v5.3h3.069v-5.3h2.728v5.3h3.348l-1.178-.372q.589-.992,1.209-2.294a22.364,22.364,0,0,0,.961-2.294l2.976.744a49.1,49.1,0,0,1-2.573,4.216H147.5v2.418h-5.983q-.589,1.085-1.736,2.945h6.572v2.294H135.377v1.86h9.517v2.17h-9.517v1.891h12.214v2.418Zm-7.967-13.578a12.118,12.118,0,0,1,1.333,2.759l-.9.186H136.9a27.839,27.839,0,0,0,1.364-2.945Zm36.27-8.339h2.356v4.588h-2.356Zm3.689,0h2.356v4.588H169.88ZM152.613-16.306l2.7-.186,1.054-.062q.062-2.232.062-3.162l-.031-1.922h2.914q.031.62.031,2.015,0,1.86-.062,2.852h3.286a3.866,3.866,0,0,1,3.116,1.255,7.36,7.36,0,0,1,1.286,4.2q.248,2.666.248,4.712a14.014,14.014,0,0,1-1.085,6.138A4.019,4.019,0,0,1,162.378,1.8a13.152,13.152,0,0,1-3.317-.31V-1.55a14.134,14.134,0,0,0,2.945.434,1.783,1.783,0,0,0,1.318-.512,2.461,2.461,0,0,0,.635-1.473,31.144,31.144,0,0,0,.279-4.526q0-1.488-.124-3.534a3.693,3.693,0,0,0-.682-2.123,2.07,2.07,0,0,0-1.643-.635h-1.271q-.31,0-1.426.062a62.479,62.479,0,0,1-1.178,8.541,53.456,53.456,0,0,1-2.108,7.177h-3.193a38.47,38.47,0,0,0,2.294-7.053,59.277,59.277,0,0,0,1.333-8.417q-2.015.155-3.627.341Zm17.3-4.4a37.963,37.963,0,0,1,3.317,11.036h-3.286a33.155,33.155,0,0,0-3.255-11.036Zm18.755,2.2q.155-.806.31-2.17H176.948v-2.666h12.307q.093-.9.155-2.79l3.348.155q-.093.992-.341,2.635h11.625v2.666H192.014q-.062.341-.4,2.17h9.083V-4H184.326V-18.507ZM204.321-1.736V.93H181.288V2.48h-2.821V-17.608h2.821V-1.736Zm-6.479-12.586V-16.4H187.054v2.077Zm0,4.123v-2.139H187.054V-10.2Zm0,4.092V-8.246H187.054v2.139ZM222.7-21.359q-.558,1.705-1.054,3.41h12.09V2.48h-2.945V.868H211.916V2.48h-2.79V-17.949h9.548q.4-1.643.682-3.41H207.793v-2.728h27.4v2.728Zm-10.788,6.045V-1.8h3.875V-15.314ZM224.13-12.4v-2.914h-5.766V-12.4Zm6.665,10.6V-15.314h-4.061V-1.8ZM224.13-7.161v-2.945h-5.766v2.945Zm-5.766,2.294V-1.8h5.766V-4.867Zm32.86-11.284h-11.9V-19h11.9V-22.01h2.914V-19H258.6v2.852h-4.464v6.634a11.019,11.019,0,0,1,.9,3.41,14.992,14.992,0,0,1-.45,4.542A11.511,11.511,0,0,1,252.9,2.263h-3.41A11.783,11.783,0,0,0,251.24-.7a9.367,9.367,0,0,0,.635-2.4l-.217-.093a7.241,7.241,0,0,1-2.217,1.535,6.115,6.115,0,0,1-2.557.6,5.43,5.43,0,0,1-2.914-.682,5.383,5.383,0,0,1-2.092-2.232,7.2,7.2,0,0,1-.729-3.317,6.683,6.683,0,0,1,.961-3.6,5.828,5.828,0,0,1,2.139-2.092,6.226,6.226,0,0,1,3.038-.7,5.854,5.854,0,0,1,3.937,1.271Zm.341,8.711a3.629,3.629,0,0,0-.527-1.643,4.049,4.049,0,0,0-1.426-1.441A3.934,3.934,0,0,0,247.5-11.1a3.251,3.251,0,0,0-2.434,1.008,3.524,3.524,0,0,0-.977,2.557,3.846,3.846,0,0,0,.868,2.65,2.92,2.92,0,0,0,2.294.977,4.582,4.582,0,0,0,.9-.093,5.355,5.355,0,0,0,2.294-1.116,3.858,3.858,0,0,0,.822-1.209A2.98,2.98,0,0,0,251.565-7.44Zm13.888-13.175h12.9v2.976l-6.665,5.27a15.419,15.419,0,0,1,3.131-.341,7.634,7.634,0,0,1,2.418.31,5.7,5.7,0,0,1,3.162,2.31,8.029,8.029,0,0,1,1.116,4.231,7.518,7.518,0,0,1-1.054,4.046,7.527,7.527,0,0,1-3.038,2.837A11.464,11.464,0,0,1,272.335,2.2a10.676,10.676,0,0,1-2.976-.4,4.826,4.826,0,0,1-2.635-1.69,4.5,4.5,0,0,1-.992-2.868,3.48,3.48,0,0,1,.527-1.767A3.736,3.736,0,0,1,267.809-6,4.937,4.937,0,0,1,270.1-6.51a6.777,6.777,0,0,1,1.116.093,6.147,6.147,0,0,1,2.992,1.473,10.107,10.107,0,0,1,2.154,3.115,4.42,4.42,0,0,0,1.566-1.705,4.75,4.75,0,0,0,.635-2.325,4.08,4.08,0,0,0-1.38-3.394,6.433,6.433,0,0,0-4.2-1.039,12.392,12.392,0,0,0-4.185.915,12.645,12.645,0,0,0-3.286,2.124L263.283-5.3V-9.083l10.788-8.742q-1.054,0-1.953.031l-6.665.031ZM270.63-4.03a2.288,2.288,0,0,0-1.488.31,1.157,1.157,0,0,0-.527.992,1.78,1.78,0,0,0,.465,1.147,3.212,3.212,0,0,0,1.364.9,6.89,6.89,0,0,0,1.736.217,3.162,3.162,0,0,0,1.612-.31,5.552,5.552,0,0,0-1.286-2.248A3.465,3.465,0,0,0,270.63-4.03Zm25.3-20.956v2.263h-8.618v-2.263ZM308.233-7.75a22.06,22.06,0,0,0,2.961,3.7,18.741,18.741,0,0,0,3.457,2.837A9.4,9.4,0,0,0,313.6-.186a8.494,8.494,0,0,0-.9,1.147,18.427,18.427,0,0,1-3.007-2.837,32.214,32.214,0,0,1-2.79-3.735V2.418h-2.79v-7.75a24.728,24.728,0,0,1-2.867,3.72A17.249,17.249,0,0,1,298,1.147q-.372-.527-.93-1.194a7.066,7.066,0,0,0-.992-1.008,16.366,16.366,0,0,0,3.751-2.821A18.443,18.443,0,0,0,302.87-7.75H297.2v-2.573h6.913v-2.232h-5.859V-24.8h14.725v12.245H306.9v2.232h6.944V-7.75Zm-7.409-14.694v2.635h3.441v-2.635Zm9.486,2.635v-2.635h-3.534v2.635Zm-13.485-1.085V-18.6H285.82v-2.294Zm4,3.317v2.7h3.441v-2.7Zm9.486,2.7v-2.7h-3.534v2.7Zm-14.291-1.8v2.232h-8.835v-2.232Zm-8.835,6.386v-2.263h8.835v2.263ZM296.05-8.37V.744h-6.479v1.3h-2.418V-8.37ZM293.6-6.045h-4.03v4.464h4.03Zm35.712-18.724v9.858h-10.54v-9.858Zm6.479,4.309q.217-.651.589-2.015H330.77v-2.139h14.074v2.139h-5.8q-.713,1.705-.837,2.015h5.518V-6.7H331.855V-20.46Zm-9.145-.341v-1.953h-5.332V-20.8Zm0,3.875V-18.91h-5.332v1.984Zm14.384.434v-1.922h-6.572v1.922Zm0,3.844V-14.57h-6.572v1.922Zm-15.5,11.129a14.365,14.365,0,0,0,3.488.76q1.969.2,4.758.2,9.641,0,11.749-.062a6.235,6.235,0,0,0-.589,1.178,6.68,6.68,0,0,0-.372,1.24H333.777a42.112,42.112,0,0,1-5.828-.341A12.472,12.472,0,0,1,323.733.124a8.953,8.953,0,0,1-3.1-2.821,11.969,11.969,0,0,1-2.294,5.27,5.618,5.618,0,0,0-.775-1.054,6.134,6.134,0,0,0-.961-.9,8.81,8.81,0,0,0,1.736-4,35.5,35.5,0,0,0,.589-5.828h2.356q-.062,1.922-.217,3.472a7.963,7.963,0,0,0,1.984,2.759v-7.688H317.13v-2.2h13.826v2.2h-5.425V-7.75H330.4v2.17h-4.867Zm15.5-7.223V-10.7h-6.572v1.953Zm-.341,2.325A26.744,26.744,0,0,1,343.263-4.5a18.454,18.454,0,0,1,2.108,2.015l-2.077,1.3a18.224,18.224,0,0,0-2.061-2.108,27.679,27.679,0,0,0-2.557-2.046Zm-3.906.868a16.108,16.108,0,0,1-2.48,2.5,19.583,19.583,0,0,1-2.945,2.031,11.481,11.481,0,0,0-1.891-1.736,17.487,17.487,0,0,0,2.806-1.612A10.55,10.55,0,0,0,334.4-6.293ZM353.307-20.77A89.959,89.959,0,0,0,352.5-9.858a81.178,81.178,0,0,0,1.023,11.222h-3.069a87.61,87.61,0,0,1-.868-11.129,103.746,103.746,0,0,1,.775-11Zm13.95,1.364v2.883h-10.23v-2.883ZM359.693-8.4a6.759,6.759,0,0,0-.419,1.473,8.743,8.743,0,0,0-.171,1.565,2.814,2.814,0,0,0,1.085,2.341,4.94,4.94,0,0,0,3.038.883,40.446,40.446,0,0,0,4.588-.248V.589q-.341.062-1.426.124l-3.41.093A8.9,8.9,0,0,1,359.6.062a6.326,6.326,0,0,1-2.418-1.814,4.28,4.28,0,0,1-.961-2.527,9.839,9.839,0,0,1,.558-4.123ZM378.572,1.891a47.734,47.734,0,0,0-3.255-3.612q-1.829-1.844-3.5-3.24l2.542-2.232q1.612,1.333,3.549,3.271t3.3,3.581ZM2.418,44.545V41.507h8.37v-5.3h-7.5V33.168H20.119v3.038H13.857v5.3h7.161v3.038h-7.13a12.339,12.339,0,0,1-1.395,5.239,11.92,11.92,0,0,1-3.069,3.472,16.147,16.147,0,0,1-6.231,2.759V53.008a14.822,14.822,0,0,0,3.131-1.3,8.952,8.952,0,0,0,2.945-2.558,10.279,10.279,0,0,0,1.581-4.6Zm22.909-2.2H38.719v3.069H25.327Zm26.939-9.455q-.992,4.65-1.922,8.122a105.435,105.435,0,0,1-3.6,11.036H58.962a57.231,57.231,0,0,0-3.038-10.292h3.193q1.271,3.255,2.34,6.928a52.854,52.854,0,0,1,1.5,6.433H43.276V51.582q1.3-3.317,2.2-5.828,1.023-2.883,1.984-6.324t1.581-6.541ZM68.2,36.423V33.571H86.8v3.007a13.2,13.2,0,0,0-4.867,1.7q-5.394,3.1-6.324,6.882a8.245,8.245,0,0,0-.248,1.86,5.062,5.062,0,0,0,.434,2.108,4.693,4.693,0,0,0,1.875,2.092,7.15,7.15,0,0,0,3.022.977q1.023.093,1.829.093a18.217,18.217,0,0,0,2.666-.217v2.945a23.041,23.041,0,0,1-2.573.124q-.93,0-2.046-.062a9.34,9.34,0,0,1-5.611-2.2,7.4,7.4,0,0,1-2.573-5.766q0-.31.062-1.054a11.029,11.029,0,0,1,2.247-5.223,20.892,20.892,0,0,1,5.379-4.418ZM81.592,39.43h2.356v4.9H81.592Zm3.689,0h2.356v4.9H85.281Zm15,3.844-3.131,1.24v8.742a4.72,4.72,0,0,1-.248,1.7,1.734,1.734,0,0,1-.868.93,3.913,3.913,0,0,1-1.5.45,22.7,22.7,0,0,1-2.526.109,9.249,9.249,0,0,0-.279-1.318,7.438,7.438,0,0,0-.5-1.348l1.705.031,1.023-.031a.666.666,0,0,0,.434-.109.547.547,0,0,0,.124-.418v-7.75L91.2,46.746l-.713-2.759.93-.31q2.356-.775,3.1-1.054V36.7H90.861V34.036h3.658V28.053h2.635v5.983h2.852V36.7H97.154v4.991l2.6-.992ZM104.9,28.3h2.635V41.755a31.538,31.538,0,0,1-.512,6.076,12.285,12.285,0,0,1-2.061,4.758,12.719,12.719,0,0,1-4.526,3.766,8.792,8.792,0,0,0-.946-1.116,6.988,6.988,0,0,0-1.069-.93,11.418,11.418,0,0,0,4.4-3.627,11.954,11.954,0,0,0,1.86-4.991l-.558.434q-3.6,2.666-3.844,2.852L98.766,46.56q1.55-.9,6.138-4V38.314l-1.953,1.116a18.148,18.148,0,0,0-1.209-3.069,32.067,32.067,0,0,0-1.86-3.348l2.17-1.178a27.739,27.739,0,0,1,1.581,2.635A25.939,25.939,0,0,1,104.9,37.2Zm11.222,25.234a.546.546,0,0,0,.511-.356,3.925,3.925,0,0,0,.248-1.225q.077-.868.14-2.635a6.735,6.735,0,0,0,1.193.7,6.215,6.215,0,0,0,1.256.45,20.1,20.1,0,0,1-.465,3.379,3.387,3.387,0,0,1-.93,1.751,2.551,2.551,0,0,1-1.736.542h-2.976a4.2,4.2,0,0,1-1.937-.356,2.009,2.009,0,0,1-.946-1.24,9.11,9.11,0,0,1-.279-2.589V28.3h2.728v9.92a36.488,36.488,0,0,0,1.783-3.255q.945-1.922,1.535-3.472l2.573,1.333-.558.992q-.217.4-1.348,2.356t-2,3.224l-1.984-1.085V42l.713-.744q1.643,1.364,3.286,2.93a32.569,32.569,0,0,1,2.542,2.651l-1.891,2.046q-.806-1.023-2.077-2.387t-2.573-2.573v8.06a3.2,3.2,0,0,0,.155,1.271q.155.279.682.279Zm12.431-11.718V38.345h-4.929V35.493h4.929V32.424h2.914v3.069h4.03v2.852h-4.03v4.96a5.641,5.641,0,0,1,.992,3.5,9.046,9.046,0,0,1-.356,2.511,6.457,6.457,0,0,1-.977,2.077,1.131,1.131,0,0,0-.279.62.536.536,0,0,0,.186.372,3.6,3.6,0,0,0,.651.465,2.4,2.4,0,0,0,1.023.372,11.276,11.276,0,0,0,1.612.093,5.26,5.26,0,0,0,3.3-.853,3.185,3.185,0,0,0,1.07-2.651,16.234,16.234,0,0,0-.713-4.588h3.007a25.727,25.727,0,0,1,.62,4.154,8.981,8.981,0,0,1-.372,3.1,4.583,4.583,0,0,1-2.418,2.759,10.222,10.222,0,0,1-4.712.961,7.656,7.656,0,0,1-3.829-.775,5.136,5.136,0,0,1-2.031-2.232,5.712,5.712,0,0,1-1.271.248,2.568,2.568,0,0,1-.465.031,3.268,3.268,0,0,1-1.829-.527,3.734,3.734,0,0,1-1.519-1.86,7.383,7.383,0,0,1-.527-2.852,9.7,9.7,0,0,1,.542-3.286,5.807,5.807,0,0,1,1.566-2.433,3.469,3.469,0,0,1,2.387-.915,3.863,3.863,0,0,1,.806.093Zm10.292-9.269a66.575,66.575,0,0,1,3.627,7.657h-3.224a79.588,79.588,0,0,0-3.5-7.657ZM125.426,47.49a4.856,4.856,0,0,0,.372,2.434,1.5,1.5,0,0,0,1.426.791,2,2,0,0,0,1.689-.853,5.034,5.034,0,0,0,.822-2.433,4.04,4.04,0,0,0-.419-2.325,1.83,1.83,0,0,0-1.565-.93Q125.8,44.328,125.426,47.49Zm39.835-17.639a1.483,1.483,0,0,0-.449-1.116,1.524,1.524,0,0,0-1.1-.434,1.472,1.472,0,0,0-1.085.434,1.511,1.511,0,0,0-.434,1.116,1.483,1.483,0,0,0,1.519,1.519,1.524,1.524,0,0,0,1.1-.434A1.446,1.446,0,0,0,165.261,29.851ZM161.293,27.4a3.436,3.436,0,0,1,4.852,4.867,3.342,3.342,0,0,1-2.434.992,3.387,3.387,0,0,1-3.41-3.41A3.394,3.394,0,0,1,161.293,27.4Zm-14.415,9.052v-3.1h17.267v3.658a19.9,19.9,0,0,1-1.225,7.223,17.645,17.645,0,0,1-3.24,5.425,15.257,15.257,0,0,1-3.782,3.131,23.044,23.044,0,0,1-7.006,2.542V52.264a19.43,19.43,0,0,0,4-1.256,14.179,14.179,0,0,0,3.6-2.34,13.413,13.413,0,0,0,3.286-4.712,21.153,21.153,0,0,0,1.364-7.5Zm23.56,18.228V33.788H188.2V54.682Zm3.255-17.825V51.613h11.222V36.857Zm34.131-9.517h2.356v4.588h-2.356Zm3.689,0h2.356v4.588h-2.356Zm-17.081,5.766h7.347v3.007h-7.347Zm18.6,5.58A25.05,25.05,0,0,1,209.39,46.4a21.652,21.652,0,0,1-5.255,5.394,21.3,21.3,0,0,1-4.82,2.5,23.163,23.163,0,0,1-4.883,1.132v-3.1a22.139,22.139,0,0,0,4.262-.961,13.824,13.824,0,0,0,3.891-2.17,20.938,20.938,0,0,0,7.285-10.509Zm-18.6,1.953h7.347v3.007h-7.347Zm23.1,11.439h6.479V39.864h-6.014v-2.7h14.725v2.7H226.8V52.078h6.479v2.7H217.527ZM246.14,31.959a14.06,14.06,0,0,1-.341,1.628,15.891,15.891,0,0,1-.5,1.6h10.509v2.945a19.9,19.9,0,0,1-1.519,7.13,15.805,15.805,0,0,1-3.441,5.3,21.228,21.228,0,0,1-4.9,3.627,25.582,25.582,0,0,1-5.735,2.294V53.318a23.681,23.681,0,0,0,3.921-1.566,17.851,17.851,0,0,0,3.612-2.527,15.076,15.076,0,0,0,3.456-4.51,17.261,17.261,0,0,0,1.5-6.588h-8.587a22.754,22.754,0,0,1-6.2,7.037V41.2a16.369,16.369,0,0,0,3.193-4.185,18,18,0,0,0,1.86-5.053Zm32.147,11.625H265.329V56.263h-3.224V32.083h3.224v8.432h12.958Zm10.106,9.672a4.467,4.467,0,0,1-.263,1.7,1.827,1.827,0,0,1-.853.93,3.938,3.938,0,0,1-1.519.45,22.774,22.774,0,0,1-2.511.109,8.087,8.087,0,0,0-.294-1.349,7.17,7.17,0,0,0-.512-1.317l1.7.031,1.054-.031a.606.606,0,0,0,.4-.109.547.547,0,0,0,.124-.418V45.6q-.093.031-1.953.589l-1.333.4-.651-2.759q1.457-.4,1.519-.4l2.418-.682V36.7H282.1V34.036h3.627V28.053h2.666v5.983h3.038V36.7h-3.038v5.239q1.674-.434,2.883-.837l.372,2.6-3.255,1.023Zm20.925-22.971a56.066,56.066,0,0,1-7.456,1.271q-4.418.5-9.1.744a7.33,7.33,0,0,0-.248-1.132,6.5,6.5,0,0,0-.4-1.069q4.5-.248,8.7-.76a50.657,50.657,0,0,0,6.743-1.194ZM294.407,42.468h-2.573V37.477h12.09q.775-1.24,1.581-2.821a22.15,22.15,0,0,0,1.24-2.852l2.7.837q-1.891,3.41-2.821,4.836h3.534v4.991h-2.666v-2.6H294.407Zm5.828-5.487A13.519,13.519,0,0,0,299.816,35a21.518,21.518,0,0,0-.759-2.263l2.294-.527a21.8,21.8,0,0,1,.806,2.17,13.781,13.781,0,0,1,.5,1.984Zm-5.363.465a15.067,15.067,0,0,0-.7-1.984,16.212,16.212,0,0,0-1.038-2.077l2.17-.713a22.279,22.279,0,0,1,1.147,2.077,9.487,9.487,0,0,1,.713,1.86Zm13.454,6.231a16.6,16.6,0,0,1-5.363,7.812,23.6,23.6,0,0,0,7.564,2.48,7.957,7.957,0,0,0-.961,1.209,9.07,9.07,0,0,0-.744,1.3,22.8,22.8,0,0,1-8.246-3.286,28.538,28.538,0,0,1-8.68,3.193,7.9,7.9,0,0,0-.527-1.318,6.68,6.68,0,0,0-.744-1.224,25.8,25.8,0,0,0,7.719-2.418,17.3,17.3,0,0,1-3.968-5.518l1.55-.465h-2.511V43.088h12.741l.465-.124Zm-11.377,1.767A13.35,13.35,0,0,0,300.7,49.97a12.738,12.738,0,0,0,4.03-4.526ZM331.2,49.257a24.485,24.485,0,0,0,4.852,2.557,29.369,29.369,0,0,0,5.658,1.659,8.684,8.684,0,0,0-1.023,1.194,12.782,12.782,0,0,0-.9,1.38,30.135,30.135,0,0,1-6.03-2.356,23.525,23.525,0,0,1-5.068-3.472v6.231h-2.821V50.435a25.958,25.958,0,0,1-5.069,3.271,32.775,32.775,0,0,1-5.936,2.309,12.7,12.7,0,0,0-.883-1.3,9.2,9.2,0,0,0-1.008-1.147A32.3,32.3,0,0,0,318.6,51.83a24.155,24.155,0,0,0,4.82-2.573h-9.579V46.839h12.028V44.948h-9.145v-2.17h9.145v-1.86H315.208V38.624h6.355a13.614,13.614,0,0,0-1.3-2.821l.744-.124h-7.037V33.261h4.588a16.874,16.874,0,0,0-.977-2.062q-.636-1.163-1.286-2.123l2.511-.837a24.155,24.155,0,0,1,1.457,2.278,13.355,13.355,0,0,1,1.023,2.154l-1.581.589h3.41v-5.3h2.7v5.3h3.069v-5.3h2.728v5.3h3.348l-1.178-.372q.589-.992,1.209-2.294a22.36,22.36,0,0,0,.961-2.294l2.976.744a49.1,49.1,0,0,1-2.573,4.216h4.464v2.418h-5.983q-.589,1.085-1.736,2.945h6.572v2.294H328.693v1.86h9.517v2.17h-9.517v1.891h12.214v2.418Zm-7.967-13.578a12.117,12.117,0,0,1,1.333,2.759l-.9.186h6.541a27.842,27.842,0,0,0,1.364-2.945Z" transform="translate(233 1907)"/>
    <path id="キャッチ上のハイライト" d="M0,0H343.388V10H0Z" transform="translate(233 1957)" fill="#ff8c3c" style="mix-blend-mode: multiply;isolation: isolate"/>
  </g>
</svg>
