<svg xmlns="http://www.w3.org/2000/svg" width="434.558" height="82.768" viewBox="0 0 434.558 82.768">
  <g id="text01" transform="translate(-233 -752.867)">
    <path id="パス_2965" data-name="パス 2965" d="M8.308.4A10.226,10.226,0,0,1,4.03-.419,10.865,10.865,0,0,1,.837-2.635L2.542-4.96a9.726,9.726,0,0,0,2.4,1.783,6.275,6.275,0,0,0,2.93.667,4.325,4.325,0,0,0,3.255-1.318A4.9,4.9,0,0,0,12.4-7.378,4.943,4.943,0,0,0,11.222-10.9,4.129,4.129,0,0,0,8.06-12.152a5.046,5.046,0,0,0-1.8.294A10.056,10.056,0,0,0,4.4-10.85L2.666-12l.682-10.85H14.911v3.038H6.448L5.921-13.95a8.553,8.553,0,0,1,1.535-.6,5.976,5.976,0,0,1,1.6-.2,6.976,6.976,0,0,1,4.991,1.844A7.09,7.09,0,0,1,16-7.5a8.092,8.092,0,0,1-1.069,4.216A7.26,7.26,0,0,1,12.106-.543,7.869,7.869,0,0,1,8.308.4ZM47.151-4.4H36.27V2.449H33.294V-4.4h-14.1v-2.79H24.18v-8.184h9.114v-4.278h-7.1a28.2,28.2,0,0,1-4.464,5.89q-.434-.372-1.209-.961a13.942,13.942,0,0,0-1.3-.9,21.217,21.217,0,0,0,3.891-4.6,27.613,27.613,0,0,0,2.868-5.906l2.914.775q-.465,1.147-1.209,2.914H45.632v2.79H36.27v4.278h8.649v2.7H36.27v5.487H47.151ZM27.063-7.192h6.231v-5.487H27.063Zm48.608-2.17A16.547,16.547,0,0,1,70.649-2.7,26.862,26.862,0,0,0,78.8.031a8.87,8.87,0,0,0-.946,1.163,9.211,9.211,0,0,0-.79,1.317,25.376,25.376,0,0,1-8.742-3.565,29.945,29.945,0,0,1-9.207,3.6,13.872,13.872,0,0,0-.635-1.348,4.676,4.676,0,0,0-.759-1.1,27.4,27.4,0,0,0,8.339-2.852,18.156,18.156,0,0,1-3.1-3.379,22.494,22.494,0,0,1-3.286,2.387,12.227,12.227,0,0,0-.9-1.147,6.292,6.292,0,0,0-1.023-.992,21.626,21.626,0,0,0,4.092-2.744A18.859,18.859,0,0,0,65.1-12.152l-6.7.186-.248-2.6q1.178,0,4.774-.062,1.023-.837,1.767-1.519a30.329,30.329,0,0,0-2.619-2.356,37.06,37.06,0,0,0-3.085-2.263l1.736-1.86.682.434,1.116.744q.961-1.023,1.953-2.294t1.674-2.325l2.511,1.3q-2.6,3.069-4.278,4.712a23.376,23.376,0,0,1,2.356,2.015,61.166,61.166,0,0,0,5.27-5.7l2.573,1.426a95.665,95.665,0,0,1-8.06,7.626q4.8-.062,7.068-.124-.806-1.054-1.984-2.418l2.263-1.209a42.077,42.077,0,0,1,2.9,3.5,19.294,19.294,0,0,1,2,3.193l-2.387,1.395a18.97,18.97,0,0,0-1.209-2.17q-4.464.186-6.882.248a23.366,23.366,0,0,1-1.519,2.2h6.634l.5-.093ZM58.621-25.017a32.727,32.727,0,0,1-3.41,4.03,28.412,28.412,0,0,1-3.937,3.379q-.31-.5-.759-1.116a8.189,8.189,0,0,0-.791-.961,25.745,25.745,0,0,0,3.565-3.007,18.97,18.97,0,0,0,2.728-3.317Zm.62,6.324a34.406,34.406,0,0,1-2.511,3.875V2.511h-2.7V-11.594a29.228,29.228,0,0,1-3.038,2.883q-.217-.465-.729-1.333a12.473,12.473,0,0,0-.853-1.3,26.284,26.284,0,0,0,4.046-3.72A24.289,24.289,0,0,0,56.7-19.592ZM64.79-7.781a15.5,15.5,0,0,0,3.5,3.6,13.682,13.682,0,0,0,3.565-3.689H64.852Zm34.875-2.728a9.575,9.575,0,0,0-.822-3.6,6.186,6.186,0,0,0-2-2.5,4.911,4.911,0,0,0-2.945-.914,75.753,75.753,0,0,1-.465,9.191,15.091,15.091,0,0,1-1.783,5.89,4.189,4.189,0,0,1-3.8,2.186,4.458,4.458,0,0,1-4.138-2.341,12.541,12.541,0,0,1-1.38-6.185,13.568,13.568,0,0,1,1.24-5.642,11.261,11.261,0,0,1,3.333-4.247,9.287,9.287,0,0,1,4.82-1.922q.372-.031,1.116-.031A10.036,10.036,0,0,1,97.96-19.36a8.692,8.692,0,0,1,3.395,3.612,13.375,13.375,0,0,1,1.38,5.58,14.009,14.009,0,0,1-1.007,5.6A10.592,10.592,0,0,1,98.642-.264a7.583,7.583,0,0,1-4.681,1.752V-1.4a4.787,4.787,0,0,0,2.852-1.194A7.494,7.494,0,0,0,98.89-5.72,13.414,13.414,0,0,0,99.665-10.509ZM87.73-3.162q1.7.093,2.48-3.7a45.231,45.231,0,0,0,.775-8.944l-.031-1.674a5.694,5.694,0,0,0-2.929,1.6,8.78,8.78,0,0,0-2.046,3.178A10.776,10.776,0,0,0,85.25-8.8a10.571,10.571,0,0,0,.635,4.061A2.223,2.223,0,0,0,87.73-3.162Zm44.206-18.724V2.356H128.9V.806H113.212V2.48h-2.883V-21.886h7.812a30.536,30.536,0,0,0,1.023-4.154l3.441.4q-1.054,2.759-1.519,3.751ZM128.9-19.127H113.212v3.968H128.9Zm0,6.634H113.212v3.968H128.9ZM113.212-1.86H128.9v-4H113.212Zm44.175-23.684a30.218,30.218,0,0,0,4.061,6.076,30.457,30.457,0,0,0,5.177,4.991,17.1,17.1,0,0,0-1.3,1.24,10.86,10.86,0,0,0-1.116,1.333,30.009,30.009,0,0,1-2.6-2.542q0,.93-.031,1.209-.31,7.161-.713,10.23T159.681.961a3.048,3.048,0,0,1-1.054.884,5.139,5.139,0,0,1-1.488.388,16.072,16.072,0,0,1-1.922.093q-1.4,0-2.883-.093A5.791,5.791,0,0,0,152.039.76a5.989,5.989,0,0,0-.666-1.442q2.2.217,4.371.217a2.709,2.709,0,0,0,.791-.093,1.334,1.334,0,0,0,.542-.341,6.554,6.554,0,0,0,.868-3.023q.341-2.465.558-7.828h-7.161a25.4,25.4,0,0,1-1.457,6.03A13.388,13.388,0,0,1,146.63-.946a17.014,17.014,0,0,1-6.014,3.55,8.856,8.856,0,0,0-.79-1.349A6.572,6.572,0,0,0,138.787.031a14.613,14.613,0,0,0,5.332-2.9A10.973,10.973,0,0,0,146.955-6.8a19.988,19.988,0,0,0,1.256-4.945h-5.8v-2.387a27.991,27.991,0,0,1-2.821,2.511,11.468,11.468,0,0,0-1.147-1.178q-.775-.713-1.3-1.116a23.552,23.552,0,0,0,5.332-5.007,26.8,26.8,0,0,0,3.844-6.556l3.069.9a32.9,32.9,0,0,1-2.867,5.348,33.265,33.265,0,0,1-3.7,4.665h18.662a46.965,46.965,0,0,1-3.766-4.727,43.634,43.634,0,0,1-3.115-5.131Zm12.338,9.207v-2.852h6.293a17.614,17.614,0,0,0,.9-3.038h3.1q-.279,1.085-.93,3.038H186.4v2.852h-8.184a20.363,20.363,0,0,1-1.55,3.069,6.019,6.019,0,0,1,2.418-.558,3.465,3.465,0,0,1,2.325.79,2.9,2.9,0,0,1,.992,2.186v.186q3.069-1.488,6.2-2.79v3.224a58.872,58.872,0,0,0-6.169,2.759v4.216h-2.821V-6.386l-1.023.62a3.18,3.18,0,0,0-.434.279,4.544,4.544,0,0,0-1.163,1.317,2.775,2.775,0,0,0-.387,1.349,1.821,1.821,0,0,0,.7,1.472,3.146,3.146,0,0,0,1.969.6l7.688-.062V2.077h-7.936a7.017,7.017,0,0,1-3.441-.961,3.913,3.913,0,0,1-1.8-2.325,3.784,3.784,0,0,1-.155-1.178,5.3,5.3,0,0,1,.837-2.774,7.578,7.578,0,0,1,2.325-2.372l2.852-1.891a2.975,2.975,0,0,0-.48-1.6,1.442,1.442,0,0,0-1.193-.481,4.657,4.657,0,0,0-1.953.511,7.26,7.26,0,0,0-2.139,1.628q-.682.713-4.247,4.681v-4.34q1.984-2.108,3.178-3.627a19.239,19.239,0,0,0,2.217-3.689Zm47.4-8.308v14.136H195.362V-24.645ZM198.09-22.134v3.348h6.789v-3.348Zm16.182,3.348v-3.348h-6.6v3.348ZM198.09-16.43v3.41h6.789v-3.41Zm16.182,3.41v-3.41h-6.6v3.41ZM208.94-4.03a18.58,18.58,0,0,0-2.712-2.263,32.579,32.579,0,0,0-3.519-2.2l1.891-1.8a28.453,28.453,0,0,1,3.549,2.062,21.143,21.143,0,0,1,2.837,2.217Zm7.254-4.123a36.858,36.858,0,0,1,2.573,3.937,18.618,18.618,0,0,1,1.643,3.6L217.62.558A19.751,19.751,0,0,0,216.054-3.1a35.268,35.268,0,0,0-2.434-3.968ZM192.355-.62a14.256,14.256,0,0,0,1.906-3.24,27.973,27.973,0,0,0,1.41-4.014l2.573.961A26.543,26.543,0,0,1,194.928.806ZM209.87-.775a1.782,1.782,0,0,0,1.085-.264,1.691,1.691,0,0,0,.5-1.023,19.153,19.153,0,0,0,.248-2.5,5.977,5.977,0,0,0,1.193.62,9.272,9.272,0,0,0,1.441.465,13.173,13.173,0,0,1-.6,3.317,2.72,2.72,0,0,1-1.256,1.55,5.291,5.291,0,0,1-2.387.434h-5.766A9.3,9.3,0,0,1,201.5,1.5,2.229,2.229,0,0,1,200.151.419a5.014,5.014,0,0,1-.387-2.217V-7.44h2.914V-1.8q0,.651.356.837a4.1,4.1,0,0,0,1.566.186ZM228.532-20.8q-.124,1.891-.186,3.968-.124,3.813-.186,8.339,0,2.046.109,3.286a5.281,5.281,0,0,0,.542,2.046,1.606,1.606,0,0,0,1.3.9,5.722,5.722,0,0,0,2.294-.651,7.78,7.78,0,0,0,1.953-1.271V-.93A8.493,8.493,0,0,1,232.422.217a8.567,8.567,0,0,1-2.464.651L229.493.9a3.4,3.4,0,0,1-3.162-1.907q-1.054-1.906-1.054-6.216,0-2.79.031-4.433,0-4.65.186-9.145Zm12.989,0a53.419,53.419,0,0,1,1.736,8.215,77.79,77.79,0,0,1,.527,9.765V-.868h-3.038q.031-4.681-.387-10.4a37.621,37.621,0,0,0-1.751-9.532Zm31.465-.961H276.8v2.6h-3.813v3.782h-2.821v-3.782h-4.9v3.782h-2.759v-3.782H258.54v-2.6h3.968v-4.216h2.759v4.216h4.9v-4.216h2.821ZM258.2-10.075l-3.286,1.054v8a4.72,4.72,0,0,1-.248,1.705,1.734,1.734,0,0,1-.868.93,3.938,3.938,0,0,1-1.519.45,22.774,22.774,0,0,1-2.511.109,9.248,9.248,0,0,0-.279-1.317,7.438,7.438,0,0,0-.5-1.349q1.24.031,2.728.031a.547.547,0,0,0,.419-.124.666.666,0,0,0,.109-.434V-8.215l-3.255.992-.651-2.79,3.906-1.054V-17.3h-3.472v-2.666h3.472v-5.983h2.666v5.983h3.069V-17.3h-3.069v5.456l2.883-.837Zm1.55,12.431V-14.167h16.027V2.2h-2.728V.837H262.384V2.356Zm6.634-14.012h-4v3.72h4Zm6.665,3.72v-3.72h-4.092v3.72ZM262.384-5.487v3.782h4V-5.487Zm6.572,3.782h4.092V-5.487h-4.092Zm12.8-17.391q.775.031,2.573.031h4.061q-.5-1.86-.651-2.79h3.069l.155.744q.155.744.465,1.829.558-.031,1.814-.124t2.31-.186l2.666-.248v2.883a55.773,55.773,0,0,1-6.107.5q.4,1.705,1.116,3.937,3.813-.248,6.975-.682v2.821q-1.767.31-6.2.62.4,1.519,1.333,4.4h-3.224l-.434-1.55-.744-2.666-4,.124-5.828.031v-2.79q4.867-.062,9.021-.186l-.992-3.906q-3.1.124-5.394.124l-1.984-.031Zm5.332,12.648A5.73,5.73,0,0,0,285.82-3.6a2.45,2.45,0,0,0,.465,1.4,2.835,2.835,0,0,0,1.7,1.1,15.264,15.264,0,0,0,3.5.294,47.284,47.284,0,0,0,6.541-.5V1.674q-1.395.186-3.286.31t-3.5.124q-4.34,0-6.324-1.271a4.435,4.435,0,0,1-1.984-4.03,4.931,4.931,0,0,1,.263-1.628,5.215,5.215,0,0,1,1.008-1.627Zm24.056,8.339a47.734,47.734,0,0,0-3.255-3.612q-1.829-1.844-3.5-3.24l2.542-2.232q1.612,1.333,3.549,3.271t3.3,3.581ZM3.193,37.477V34.625H8.277q.217-1.891.248-2.542H11.5a18.6,18.6,0,0,0-.341,2.542H22.227v2.852H10.974q-.093.93-.093,1.922l.031,1.581q.372-.093.961-.217a1.248,1.248,0,0,0,.341-.031,17.6,17.6,0,0,1,2.139-.155,10.621,10.621,0,0,1,3.069.4,7.564,7.564,0,0,1,3.844,2.5,7.381,7.381,0,0,1,1.581,4.572,9.78,9.78,0,0,1-.682,3.875,12.106,12.106,0,0,1-1.472,2.6,9.5,9.5,0,0,1-2,1.891H14.508A15.087,15.087,0,0,0,18.414,52.4a8.3,8.3,0,0,0,1.457-4.387,4.318,4.318,0,0,0-2.728-4.185A25.528,25.528,0,0,1,13.3,52.481a9.085,9.085,0,0,1-2.635,2.48,6.168,6.168,0,0,1-2.945.992,3.687,3.687,0,0,1-.558.031,5.4,5.4,0,0,1-1.767-.31,3.959,3.959,0,0,1-2.2-2.092,8.085,8.085,0,0,1-.682-4.2A9.277,9.277,0,0,1,8,41.662V39.647l.062-2.17ZM11.78,50.125a25.054,25.054,0,0,0,1.628-3.379,23.481,23.481,0,0,0,1.038-3.5,7.162,7.162,0,0,0-1.178-.093,6.611,6.611,0,0,0-2.325.372A24.142,24.142,0,0,0,11.78,50.125ZM8,53.008a1.919,1.919,0,0,0,.666-.108,2.9,2.9,0,0,0,.79-.543,15.433,15.433,0,0,1-.806-3.069q-.279-1.7-.465-4.557a7.306,7.306,0,0,0-1.8,1.922,6.834,6.834,0,0,0-1.023,2.666,6.166,6.166,0,0,0-.031.713A3.843,3.843,0,0,0,5.89,52.2a1.848,1.848,0,0,0,1.643.837A2.568,2.568,0,0,0,8,53.008ZM32.457,32.517q-.744,4.278-.992,7.254a14.3,14.3,0,0,1,3.007-4.712,5.476,5.476,0,0,1,3.906-1.891A4.946,4.946,0,0,1,43,35.942q1.519,2.774,1.519,8.417a12.3,12.3,0,0,1-1.426,6.029,9.857,9.857,0,0,1-4.185,4.03,14.958,14.958,0,0,1-6.634,1.535V53.1a12.9,12.9,0,0,0,5.456-1.333,6.949,6.949,0,0,0,2.9-2.93,9.338,9.338,0,0,0,.945-4.479,15.748,15.748,0,0,0-.775-6.076,3.019,3.019,0,0,0-2.6-2.232,4.1,4.1,0,0,0-2.806,1.38,12.911,12.911,0,0,0-2.294,3.146,16.1,16.1,0,0,0-1.318,3.162,10.3,10.3,0,0,0-.155,2.325q0,.93.062,1.736l.031.372h-2.79q-.248-2.511-.248-7.192.217-4.464.806-8.463ZM50.406,38.5V35.648h4q.217-1.581.279-3.255h3.007q-.093,1.023-.372,3.255h4.34L61.628,38.5H57.1q-.775,5.394-1.488,9.207T53.94,55.674H50.716q.961-3.751,1.845-8.277T54.1,38.5Zm11.005.992h.93q3.41-.062,4.464-.062l2.759.031v2.976q-1.209-.093-3.844-.093-1.023,0-4.247.062Zm.9,7.967a6.31,6.31,0,0,0-1.24,3.131q0,2.356,4.4,2.356,1.984,0,4.526-.186v2.945q-.155,0-1.132.077t-2.372.077q-1.209,0-2.511-.093a11.708,11.708,0,0,1-1.876-.232,6.913,6.913,0,0,1-1.472-.512,4.229,4.229,0,0,1-1.783-1.6,4.806,4.806,0,0,1-.574-2.465,5.914,5.914,0,0,1,.264-1.813,6.658,6.658,0,0,1,.853-1.689ZM79.453,33.2q-.124,1.891-.186,3.968-.124,3.813-.186,8.339,0,2.046.108,3.286a5.281,5.281,0,0,0,.543,2.046,1.606,1.606,0,0,0,1.3.9,5.722,5.722,0,0,0,2.294-.651,7.781,7.781,0,0,0,1.953-1.271V53.07a8.716,8.716,0,0,1-4.4,1.8l-.465.031a3.4,3.4,0,0,1-3.162-1.906Q76.2,51.086,76.2,46.777q0-2.79.031-4.433,0-4.65.186-9.145Zm12.989,0a53.417,53.417,0,0,1,1.736,8.215,77.79,77.79,0,0,1,.527,9.765v1.953H91.667q.031-4.681-.387-10.4A37.621,37.621,0,0,0,89.528,33.2Zm24.335,10.075a28.389,28.389,0,0,0,5.177,5.3,27.534,27.534,0,0,0,6.262,3.844,14.233,14.233,0,0,0-2.108,2.48,28.812,28.812,0,0,1-5.735-3.906,34.811,34.811,0,0,1-5.084-5.394V56.418h-3.038V45.723a34.509,34.509,0,0,1-5.037,5.255,30.164,30.164,0,0,1-5.75,3.89q-.372-.527-.992-1.256a14.836,14.836,0,0,0-1.116-1.194,28.147,28.147,0,0,0,6.246-3.875,28.251,28.251,0,0,0,5.131-5.27H100.254V40.422h12V35.71h-9.765V32.858h9.765V27.991h3.038v4.867H125.3V35.71H115.289v4.712h12.183v2.852ZM148.211,44.3a28.581,28.581,0,0,0,5.022,4.96,27.549,27.549,0,0,0,5.983,3.627,12.812,12.812,0,0,0-1.085,1.178,11.348,11.348,0,0,0-.93,1.271,29.922,29.922,0,0,1-5.8-3.952A34.145,34.145,0,0,1,146.32,46V56.449h-3.038V46.064a34.882,34.882,0,0,1-5.068,5.285,29.107,29.107,0,0,1-5.782,3.891,9.7,9.7,0,0,0-.945-1.256,15.73,15.73,0,0,0-1.1-1.163,26.9,26.9,0,0,0,6.029-3.58,28.845,28.845,0,0,0,5.068-4.945H131.13v-2.79h12.152V34.315h-10.7V31.556h10.7V27.991h3.038v3.565h10.943v2.759H146.32v7.192H158.5V44.3Zm1.24-3.689a32.719,32.719,0,0,0,1.566-2.914q.822-1.705,1.348-3.1l3.007.9a50.2,50.2,0,0,1-3.441,5.952Zm-12-5.921a28.444,28.444,0,0,1,1.721,2.961,13.394,13.394,0,0,1,1.069,2.681l-2.728,1.085a16.458,16.458,0,0,0-1.023-2.79,24.951,24.951,0,0,0-1.581-2.976Zm25.172,2.976V34.811h6.293a17.614,17.614,0,0,0,.9-3.038h3.1q-.279,1.085-.93,3.038H179.3v2.852H171.12a20.363,20.363,0,0,1-1.55,3.069,6.019,6.019,0,0,1,2.418-.558,3.465,3.465,0,0,1,2.325.791,2.9,2.9,0,0,1,.992,2.186v.186q3.069-1.488,6.2-2.79V43.77a58.872,58.872,0,0,0-6.169,2.759v4.216h-2.821V47.614l-1.023.62a3.18,3.18,0,0,0-.434.279A4.544,4.544,0,0,0,169.9,49.83a2.775,2.775,0,0,0-.387,1.349,1.821,1.821,0,0,0,.7,1.472,3.146,3.146,0,0,0,1.969.6l7.688-.062v2.883h-7.936a7.017,7.017,0,0,1-3.441-.961,3.913,3.913,0,0,1-1.8-2.325,3.784,3.784,0,0,1-.155-1.178,5.3,5.3,0,0,1,.837-2.774,7.578,7.578,0,0,1,2.325-2.372l2.852-1.891a2.975,2.975,0,0,0-.48-1.6,1.442,1.442,0,0,0-1.193-.48,4.656,4.656,0,0,0-1.953.511,7.26,7.26,0,0,0-2.139,1.628q-.682.713-4.247,4.681v-4.34q1.984-2.108,3.178-3.627a19.239,19.239,0,0,0,2.217-3.689Zm39.463,10.943q3.224,4.371,11.129,5.394a8.889,8.889,0,0,0-1.736,2.511,20.805,20.805,0,0,1-7.564-2.651,13.894,13.894,0,0,1-4.805-5.069,12.893,12.893,0,0,1-4.185,4.309,27.478,27.478,0,0,1-7.719,3.317,9.326,9.326,0,0,0-.775-1.162,8.869,8.869,0,0,0-.992-1.132q7.626-1.953,10.416-5.518h-9.982V46.1h11.315a12.14,12.14,0,0,0,.465-2.48h-8.277V41.228h8.308V38.872h-8.8v-1.8h-2.635v-6.2h11.5V28.022h2.976v2.852h11.532v6.2H209.87v1.8H200.6v2.356h8.773v2.387h-8.8a16.3,16.3,0,0,1-.372,2.48h12.648v2.511Zm-13.02-12.121h8.618v-2.2H200.6v2.2h8.711V33.416H189.069Zm52.576,17.267a.541.541,0,0,0,.5-.248,2.589,2.589,0,0,0,.232-.977q.077-.729.139-2.372a4.572,4.572,0,0,0,1.085.62,8.605,8.605,0,0,0,1.333.465,14.777,14.777,0,0,1-.434,3.069,2.79,2.79,0,0,1-.883,1.488,2.652,2.652,0,0,1-1.628.434h-2.7a4.655,4.655,0,0,1-1.906-.31,1.694,1.694,0,0,1-.915-1.023,6.528,6.528,0,0,1-.248-2.046V46.312h-2.542a17.2,17.2,0,0,1-1.1,4.6,8.625,8.625,0,0,1-2.526,3.348,13.722,13.722,0,0,1-4.774,2.371,7.715,7.715,0,0,0-.7-1.255,5.3,5.3,0,0,0-.915-1.1,12.405,12.405,0,0,0,4.154-1.813,6.482,6.482,0,0,0,2.139-2.557,12.346,12.346,0,0,0,.9-3.6h-2.542V29.262H243.04v17.05h-4.061v6.51a1.337,1.337,0,0,0,.14.775.892.892,0,0,0,.635.155Zm-14.1-5.177Q224.254,49.6,218.3,51.3l-1.86.527-.713-2.759q1.271-.279,4.65-1.178V40.949h-3.72V38.283h3.72V32.238h-4.03V29.572h10.633v2.666h-3.813v6.045h3.5v2.666h-3.5v6.169L227.137,46Zm3.472-16.926v2.573h9.176V31.649Zm0,4.8v2.6h9.176v-2.6Zm0,4.836v2.6h9.176v-2.6Zm29.047-3.441h-11.9V35h11.9V31.99h2.914V35h4.464v2.852h-4.464v6.634a11.019,11.019,0,0,1,.9,3.41,14.991,14.991,0,0,1-.449,4.542,11.511,11.511,0,0,1-1.689,3.828h-3.41a11.782,11.782,0,0,0,1.751-2.96,9.366,9.366,0,0,0,.635-2.4l-.217-.093a7.241,7.241,0,0,1-2.216,1.535,6.115,6.115,0,0,1-2.557.6,5.224,5.224,0,0,1-5.007-2.914,7.2,7.2,0,0,1-.729-3.317,6.683,6.683,0,0,1,.961-3.6,5.828,5.828,0,0,1,2.139-2.092,6.226,6.226,0,0,1,3.038-.7,5.854,5.854,0,0,1,3.937,1.271Zm.341,8.711a3.629,3.629,0,0,0-.527-1.643,4.049,4.049,0,0,0-1.426-1.441,3.934,3.934,0,0,0-2.108-.574,3.251,3.251,0,0,0-2.434,1.007,3.524,3.524,0,0,0-.977,2.557,3.846,3.846,0,0,0,.868,2.651,2.92,2.92,0,0,0,2.294.977,4.581,4.581,0,0,0,.9-.093,5.355,5.355,0,0,0,2.294-1.116,3.858,3.858,0,0,0,.822-1.209A2.981,2.981,0,0,0,260.4,46.56Zm13.888-13.175h12.9v2.976l-6.665,5.27a15.419,15.419,0,0,1,3.131-.341,7.634,7.634,0,0,1,2.418.31,5.7,5.7,0,0,1,3.162,2.31,8.029,8.029,0,0,1,1.116,4.231,7.479,7.479,0,0,1-4.092,6.882A11.464,11.464,0,0,1,281.17,56.2a10.676,10.676,0,0,1-2.976-.4,4.826,4.826,0,0,1-2.635-1.689,4.5,4.5,0,0,1-.992-2.868,3.48,3.48,0,0,1,.527-1.767A3.736,3.736,0,0,1,276.644,48a4.937,4.937,0,0,1,2.294-.512,6.777,6.777,0,0,1,1.116.093,6.147,6.147,0,0,1,2.992,1.472,10.107,10.107,0,0,1,2.154,3.116,4.42,4.42,0,0,0,1.566-1.705,4.75,4.75,0,0,0,.635-2.325,4.08,4.08,0,0,0-1.38-3.395,6.433,6.433,0,0,0-4.2-1.038,12.392,12.392,0,0,0-4.185.914,12.645,12.645,0,0,0-3.286,2.124L272.118,48.7V44.917l10.788-8.742q-1.054,0-1.953.031l-6.665.031Zm5.177,16.585a2.288,2.288,0,0,0-1.488.31,1.157,1.157,0,0,0-.527.992,1.78,1.78,0,0,0,.465,1.147,3.212,3.212,0,0,0,1.364.9,6.89,6.89,0,0,0,1.736.217,3.162,3.162,0,0,0,1.612-.31,5.552,5.552,0,0,0-1.286-2.247A3.465,3.465,0,0,0,279.465,49.97Zm19.127-9.858h-2.7v-7.1h4.464a13.392,13.392,0,0,0-1.069-1.8q-.667-.961-1.349-1.767l2.48-1.116a22.761,22.761,0,0,1,1.689,2.124,11.55,11.55,0,0,1,1.194,2.031l-1.116.527h5.735a15.586,15.586,0,0,0-.914-2.062q-.6-1.162-1.255-2.185l2.511-.93a18.287,18.287,0,0,1,1.488,2.34,14.646,14.646,0,0,1,1.023,2.247l-1.519.589h5.239q.806-1.054,1.643-2.4a27.374,27.374,0,0,0,1.364-2.434l3.038.961q-1.333,1.953-2.883,3.875h4.495v7.1H319.3V35.555H298.592Zm24.025,7.9H310.4v5.177a3.8,3.8,0,0,1-.372,1.86,2.226,2.226,0,0,1-1.3.961,8.893,8.893,0,0,1-2.155.357q-1.286.077-3.642.077a12.979,12.979,0,0,0-1.209-2.79q2.046.093,3.72.093l1.24-.031a1.2,1.2,0,0,0,.62-.155.571.571,0,0,0,.155-.465V48.017h-12.09V45.351h12.09V43.212h1.457a22.867,22.867,0,0,0,3.5-2.325h-11.78V38.376h14.539l.62-.155,1.86,1.395a23.962,23.962,0,0,1-3.317,2.9,28.34,28.34,0,0,1-3.937,2.433v.4h12.214ZM340.473,27.34h2.356v4.588h-2.356Zm3.689,0h2.356v4.588h-2.356ZM326.8,36.795V33.943h8.68v2.945q-.9.837-2.542,2.7a13.231,13.231,0,0,0-2.247,3.549,9.486,9.486,0,0,0-.79,3.7,7.019,7.019,0,0,0,1.255,4.464,4.341,4.341,0,0,0,3.612,1.581,4.178,4.178,0,0,0,3.828-2.062q1.256-2.061,1.255-6.4a25.318,25.318,0,0,0-.465-4.882q-.465-2.371-1.395-5.6h2.418a53.363,53.363,0,0,0,5.58,7.068v4.557a31.639,31.639,0,0,1-3.844-4.867,31.9,31.9,0,0,1,.527,5.177,13.591,13.591,0,0,1-.961,5.115,7.741,7.741,0,0,1-2.743,3.487,7.515,7.515,0,0,1-4.387,1.256,7.037,7.037,0,0,1-5.8-2.48,9.711,9.711,0,0,1-1.829-6.758,14.493,14.493,0,0,1,1.426-5.348,13.815,13.815,0,0,1,3.379-4.355Zm23.963,15.717a16.619,16.619,0,0,0,5.425-2.961,21.63,21.63,0,0,0,4.464-5.007,46.352,46.352,0,0,0-6.355-4.867v-3.5a54.141,54.141,0,0,1,7.874,5.7,35.973,35.973,0,0,0,1.86-4.417,34.648,34.648,0,0,0,1.178-4.728H368.5a42.316,42.316,0,0,1-1.364,5.3,42.375,42.375,0,0,1-2.449,5.735l2.046,2.2.589.589a11.758,11.758,0,0,1,1.023,1.147v4.929a56.155,56.155,0,0,0-5.3-6.014,23.59,23.59,0,0,1-3.395,3.828,28.077,28.077,0,0,1-4.417,3.348,16.187,16.187,0,0,1-4.464,1.968Zm24.955-.155a12.9,12.9,0,0,0,5.875-2.774,15.349,15.349,0,0,0,4.2-5.379,31.119,31.119,0,0,0,2-5.44,43.509,43.509,0,0,0,1.069-5.812H391.9a38.624,38.624,0,0,1-.744,5.022,36.37,36.37,0,0,1-1.519,5.053,21.479,21.479,0,0,1-3.069,5.549,18.757,18.757,0,0,1-4.944,4.588,15.62,15.62,0,0,1-5.906,2.294Zm4.061-9.176h-3.162l-3.224-10.168h3.131Zm20.894,2.759h-2.542l-1.519-9.145h2.418Zm5.053,0h-2.511l-1.55-9.145h2.418Zm-7.1,7.13a11.205,11.205,0,0,0,4.914-2.34,12.454,12.454,0,0,0,3.487-4.449,26.281,26.281,0,0,0,1.674-4.526,35.142,35.142,0,0,0,.9-4.9h2.7a35.052,35.052,0,0,1-.62,4.232,29.669,29.669,0,0,1-1.271,4.293,17.905,17.905,0,0,1-2.573,4.65,15.305,15.305,0,0,1-4.185,3.859,13.734,13.734,0,0,1-5.022,1.938Zm26.226-21.08h2.356v4.9h-2.356Zm3.689,0H430.9v4.9h-2.356Zm6.014,11.594H421.6V56.263h-3.224V32.083H421.6v8.432h12.958Z" transform="translate(233 779)"/>
    <rect id="キャッチ上のハイライト" width="167" height="10" transform="translate(233 775)" fill="#ff8c3c" style="mix-blend-mode: multiply;isolation: isolate"/>
  </g>
</svg>
