<svg xmlns="http://www.w3.org/2000/svg" width="323.268" height="141.59" viewBox="0 0 323.268 141.59">
  <g id="text04" transform="translate(-733 -2486.41)">
    <path id="パス_2968" data-name="パス 2968" d="M2.387-8.8h8.091l-.4-5.952H2.387V-17.7H9.858l-.279-4.216h3.038l.31,4.216h8.494v2.945H13.113l.4,5.952h7.905V-5.8H13.764l.558,8.06H11.253L10.7-5.8H2.387Zm28.4,11.036L29.109-11.5l-3.1.093v-2.7l2.821-.062L28.365-18.1h2.728l.465,3.875,10.7-.341v3.224a10,10,0,0,1-1.829,4.092A14.965,14.965,0,0,1,38.1-4.7a9.289,9.289,0,0,1-2.573,1.627V-6.107a9.313,9.313,0,0,0,4-5.642l-7.688.217L33.511,2.232ZM47.337-20.522h7.936v3.038H47.337Zm18.6,5.208a23.829,23.829,0,0,1-3.6,7.719A21.606,21.606,0,0,1,57.04-2.2a21.3,21.3,0,0,1-4.82,2.5,23.163,23.163,0,0,1-4.882,1.132V-1.767A16.238,16.238,0,0,0,51.46-2.6a14.6,14.6,0,0,0,4.03-2.232,20.587,20.587,0,0,0,7.285-10.478Zm23.777-8.835a1.483,1.483,0,0,0-.45-1.116,1.524,1.524,0,0,0-1.1-.434,1.472,1.472,0,0,0-1.085.434,1.511,1.511,0,0,0-.434,1.116,1.472,1.472,0,0,0,.434,1.085,1.472,1.472,0,0,0,1.085.434,1.524,1.524,0,0,0,1.1-.434A1.446,1.446,0,0,0,89.714-24.149ZM85.746-26.6a3.29,3.29,0,0,1,2.418-.992A3.316,3.316,0,0,1,90.6-26.583,3.316,3.316,0,0,1,91.6-24.149,3.265,3.265,0,0,1,90.6-21.731a3.342,3.342,0,0,1-2.433.992,3.29,3.29,0,0,1-2.418-.992,3.29,3.29,0,0,1-.992-2.418A3.394,3.394,0,0,1,85.746-26.6ZM70.835,1.085q.4-1.054,1.333-3.751a42.967,42.967,0,0,0,1.953-12.927v-5.58H77.19v5.58a57.734,57.734,0,0,1-.434,7.44,36.215,36.215,0,0,1-1.007,4.975q-.6,2.093-1.441,4.263Zm15.9,0A19.089,19.089,0,0,1,85.25-2.759a47.192,47.192,0,0,1-1.612-12.834v-5.58h3.069v5.58a40.871,40.871,0,0,0,.62,7.254,50.886,50.886,0,0,0,2.666,9.424Zm8.928-18.817v-3.007h15.9a25.876,25.876,0,0,1-1.751,5.41A39.726,39.726,0,0,1,106.7-9.548,46.707,46.707,0,0,0,109.662-5.7a35.122,35.122,0,0,0,3.332,3.224V1.364A31.185,31.185,0,0,1,108.9-2.294q-1.891-2.015-4-4.712a38.456,38.456,0,0,1-4.433,4.681,29.207,29.207,0,0,1-3.209,2.5,22.7,22.7,0,0,1-2.743,1.6v-3.41a29.729,29.729,0,0,0,4.588-3.41,31.117,31.117,0,0,0,8.339-12.679Zm21.917,1.4v-2.852h6.293a17.615,17.615,0,0,0,.9-3.038h3.1q-.279,1.085-.93,3.038h7.316v2.852h-8.184a20.364,20.364,0,0,1-1.55,3.069,6.019,6.019,0,0,1,2.418-.558,3.465,3.465,0,0,1,2.325.79,2.9,2.9,0,0,1,.992,2.186v.186q3.069-1.488,6.2-2.79v3.224a58.872,58.872,0,0,0-6.169,2.759v4.216h-2.821V-6.386l-1.023.62a3.18,3.18,0,0,0-.434.279,4.544,4.544,0,0,0-1.163,1.317,2.775,2.775,0,0,0-.387,1.349,1.821,1.821,0,0,0,.7,1.472,3.146,3.146,0,0,0,1.968.6l7.688-.062V2.077h-7.936a7.018,7.018,0,0,1-3.441-.961,3.913,3.913,0,0,1-1.8-2.325,3.784,3.784,0,0,1-.155-1.178,5.3,5.3,0,0,1,.837-2.774,7.578,7.578,0,0,1,2.325-2.372L127.5-9.424a2.975,2.975,0,0,0-.48-1.6,1.442,1.442,0,0,0-1.194-.481,4.656,4.656,0,0,0-1.953.511,7.26,7.26,0,0,0-2.139,1.628q-.682.713-4.247,4.681v-4.34q1.984-2.108,3.177-3.627a19.239,19.239,0,0,0,2.216-3.689Zm50.189-7.688-.5.5a33.414,33.414,0,0,1-2.666,2.635l-1.736-1.023a20.132,20.132,0,0,0,1.333-1.659,17.921,17.921,0,0,0,1.116-1.69ZM166.1-16.771a16.837,16.837,0,0,0-2-1.5q-1.287-.853-2.682-1.659,1.178,5.239,4.588,5.456.558.093.806-2.325a6.771,6.771,0,0,0,1.705,1.55,5.722,5.722,0,0,1-.9,2.542,1.971,1.971,0,0,1-1.643.806,3.412,3.412,0,0,1-.527-.031,6.327,6.327,0,0,1-4.929-3.023,18.048,18.048,0,0,1-2.108-6.959h-16.4v-2.6h18.817a27.167,27.167,0,0,0,.341,3.441l.961-.9q1.55.744,3.178,1.721a21.536,21.536,0,0,1,2.5,1.69Zm.372,13.826a28.44,28.44,0,0,0-4.619-3.007Q162.9-.434,166.129-.186q.31.031.511-.729A15.878,15.878,0,0,0,167-3.193a7.365,7.365,0,0,0,.822.93,6.325,6.325,0,0,0,.852.713,7.49,7.49,0,0,1-.868,3.069,1.905,1.905,0,0,1-1.674.961,5.033,5.033,0,0,1-.62-.062,5.7,5.7,0,0,1-3.937-2,10.472,10.472,0,0,1-2.046-4.371,38.251,38.251,0,0,1-.837-6.4h-4.123V2.077h-2.79V-10.354h-4.433a23.448,23.448,0,0,1-1.317,7.084,13.686,13.686,0,0,1-4.077,5.72A13.839,13.839,0,0,0,140.91,1.4a7.871,7.871,0,0,0-1.132-.9,12.271,12.271,0,0,0,3.6-4.883,18.854,18.854,0,0,0,1.209-5.968h-4.278V-13.02h4.309v-3.41a30.306,30.306,0,0,1-3.131,1.3,10.117,10.117,0,0,0-.775-1.178,9.955,9.955,0,0,0-.9-1.085A28.707,28.707,0,0,0,144.4-19a13.975,13.975,0,0,0,3.472-2.108l2.511.961a17.472,17.472,0,0,1-3.007,2.232v4.9h4.4v-7.967h2.79v7.967h6.7q.062,3.038.31,5.332l.589-.558q1.581.744,3.317,1.736a21.1,21.1,0,0,1,2.7,1.767Zm-3.6-5.208a19.112,19.112,0,0,0,1.38-1.643q.729-.961,1.162-1.674l2.449,1.209a45.01,45.01,0,0,1-3.286,3.131ZM185.783-26.66h2.356v4.588h-2.356Zm3.689,0h2.356v4.588h-2.356ZM172.112-17.2v-2.852h8.68v2.945q-.9.837-2.542,2.7A13.231,13.231,0,0,0,176-10.866a9.486,9.486,0,0,0-.79,3.7A7.019,7.019,0,0,0,176.467-2.7a4.341,4.341,0,0,0,3.611,1.581,4.178,4.178,0,0,0,3.828-2.062q1.256-2.061,1.256-6.4a25.318,25.318,0,0,0-.465-4.882q-.465-2.372-1.4-5.6h2.418a53.366,53.366,0,0,0,5.58,7.068v4.557a31.639,31.639,0,0,1-3.844-4.867,31.9,31.9,0,0,1,.527,5.177,13.591,13.591,0,0,1-.961,5.115A7.742,7.742,0,0,1,184.279.481a7.515,7.515,0,0,1-4.387,1.256,7.037,7.037,0,0,1-5.8-2.48A9.711,9.711,0,0,1,172.267-7.5a14.493,14.493,0,0,1,1.426-5.348,13.815,13.815,0,0,1,3.379-4.355Zm46.283,6.789h2.976v12.8h-2.976V.558H200.074V2.449H197.16V-10.416h2.914v8.153h7.471V-12.276h-9.207V-23.1h2.883v8.029h6.324V-25.792h2.945v10.726h6.634v-8.06h3.038v10.85H210.49V-2.263h7.9Zm10.23-11.408h2.914V-4.8a5.486,5.486,0,0,0,.651,3.1,2.941,2.941,0,0,0,2.294,1.023,10.015,10.015,0,0,0,3.968-.93,27,27,0,0,0,3.363-1.736,39.047,39.047,0,0,0,3.27-2.17v3.41a31.516,31.516,0,0,1-3.007,2.077,15.771,15.771,0,0,1-7.409,2.263A5.8,5.8,0,0,1,230.128.4a8.011,8.011,0,0,1-1.5-5.3Zm22.041,4.247v-2.852h18.6v3.007a13.2,13.2,0,0,0-4.867,1.7q-5.394,3.1-6.324,6.882a8.246,8.246,0,0,0-.248,1.86,5.062,5.062,0,0,0,.434,2.108,4.693,4.693,0,0,0,1.875,2.092,7.15,7.15,0,0,0,3.023.977q1.023.093,1.829.093a18.217,18.217,0,0,0,2.666-.217V1.023a23.042,23.042,0,0,1-2.573.124q-.93,0-2.046-.062a9.34,9.34,0,0,1-5.611-2.2,7.4,7.4,0,0,1-2.573-5.766q0-.31.062-1.054a11.029,11.029,0,0,1,2.248-5.223,20.892,20.892,0,0,1,5.378-4.418ZM26.536,32.114V56.356H23.5v-1.55H7.812V56.48H4.929V32.114h7.812a30.536,30.536,0,0,0,1.023-4.154l3.441.4q-1.054,2.759-1.519,3.751ZM23.5,34.873H7.812v3.968H23.5Zm0,6.634H7.812v3.968H23.5ZM7.812,52.14H23.5v-4H7.812ZM54.653,32.548a48.914,48.914,0,0,1,3.627,4.526,31.013,31.013,0,0,1,2.666,4.34L58.28,42.933q-.465-.992-1.333-2.542l-11.1.713-5.115.341-.341-2.914q2.046-.062,2.976-.124,1.116-2.263,2.2-5.161t1.736-5.316l3.317.775a103.25,103.25,0,0,1-4.154,9.548l8.8-.434q-1.705-2.387-3.131-4.03ZM39.742,33.726a14.6,14.6,0,0,0-2.511-1.767,32.475,32.475,0,0,0-3.255-1.674l1.581-2.17A26.334,26.334,0,0,1,38.812,29.6a15.8,15.8,0,0,1,2.635,1.7ZM38.13,41.817a17.123,17.123,0,0,0-2.651-1.674,27.213,27.213,0,0,0-3.271-1.488l1.581-2.2a28.915,28.915,0,0,1,3.3,1.348,16.673,16.673,0,0,1,2.682,1.535Zm4.836,14.632V43.894H58.125V56.356H55.211V55.147H45.756v1.3Zm-9.7-2.325q1.271-1.891,2.852-4.588T39,44.3l2.17,1.922a110.764,110.764,0,0,1-5.456,9.8ZM55.211,46.56H45.756v5.921h9.455ZM72.168,28.921a51.407,51.407,0,0,1-2.6,6.262v21.2H66.805V39.957q-1.178,1.705-2.294,3.038a13.013,13.013,0,0,0-.744-1.5,14.348,14.348,0,0,0-.868-1.41,27.19,27.19,0,0,0,3.689-5.317,40.467,40.467,0,0,0,2.883-6.619ZM84.227,36.64a37.85,37.85,0,0,0,3.5,7.254,22.658,22.658,0,0,0,4.495,5.425,11.052,11.052,0,0,0-1.162,1.054,9.431,9.431,0,0,0-1.038,1.24,25.049,25.049,0,0,1-4.061-5.487,47.987,47.987,0,0,1-3.348-7.285v9.517H87.2v2.6H82.615v5.3H79.794v-5.3H75.175v-2.6h4.619V39.027a44.79,44.79,0,0,1-3.425,7.223,25.6,25.6,0,0,1-4.2,5.456,7.981,7.981,0,0,0-.914-1.147,9.261,9.261,0,0,0-1.132-1.054,21.93,21.93,0,0,0,4.573-5.456,39.554,39.554,0,0,0,3.58-7.409H71.486V33.912h8.308V28.146h2.821v5.766h8.866V36.64Zm11.222,2.914q1.116-.558,3.1-1.333l-.868-5.983h3.038q.062,1.116.263,2.527t.264,1.813a6.813,6.813,0,0,1,.124.806,20.221,20.221,0,0,1,4.557-.806,17.018,17.018,0,0,0-.9-4.495h3.038a16.982,16.982,0,0,1,.6,2.2,19.237,19.237,0,0,1,.295,2.356q6.882.93,6.882,6.479a7.44,7.44,0,0,1-.775,3.534,4.655,4.655,0,0,1-2.17,2.108,7.649,7.649,0,0,1-3.41.744,13.058,13.058,0,0,1-2.542-.279V46.5a12.523,12.523,0,0,0,2.046.186q3.937,0,3.937-3.627a2.926,2.926,0,0,0-1.751-2.837,10.667,10.667,0,0,0-4.635-.852,16.452,16.452,0,0,0-4.743.868q.868,4.65,1.674,8.184t2.015,7.843h-3.069q-1.953-7.13-3.441-15.19L95.449,42.84Zm39.742-11.687a34.327,34.327,0,0,0,6.076,6.758,32.957,32.957,0,0,0,7.347,4.9,13.683,13.683,0,0,0-1.922,2.573,45.221,45.221,0,0,1-7.238-5.255,33.6,33.6,0,0,1-5.6-6.092,32.372,32.372,0,0,1-5.286,6.092,40.7,40.7,0,0,1-7.238,5.379,9.3,9.3,0,0,0-.806-1.163A13.4,13.4,0,0,0,119.5,39.9a35.293,35.293,0,0,0,7.425-5.5,29.352,29.352,0,0,0,5.316-6.525Zm.527,18.073v7.037h11.408v2.6H120.962v-2.6h3.658V41.848h2.821V52.977h5.239V36.392h3.038v6.944H144.3v2.6Zm33.17,3.317a24.485,24.485,0,0,0,4.852,2.557,29.369,29.369,0,0,0,5.658,1.659,8.683,8.683,0,0,0-1.023,1.194,12.778,12.778,0,0,0-.9,1.38,30.135,30.135,0,0,1-6.03-2.356,23.525,23.525,0,0,1-5.068-3.472v6.231h-2.821V50.435a25.958,25.958,0,0,1-5.068,3.271,32.776,32.776,0,0,1-5.937,2.309,12.7,12.7,0,0,0-.883-1.3,9.2,9.2,0,0,0-1.007-1.147,32.3,32.3,0,0,0,5.626-1.736,24.156,24.156,0,0,0,4.82-2.573h-9.579V46.839h12.028V44.948h-9.145v-2.17h9.145v-1.86H152.892V38.624h6.355a13.612,13.612,0,0,0-1.3-2.821l.744-.124h-7.037V33.261h4.588a16.879,16.879,0,0,0-.977-2.062q-.635-1.163-1.286-2.123l2.511-.837a24.158,24.158,0,0,1,1.457,2.278,13.354,13.354,0,0,1,1.023,2.154l-1.581.589h3.41v-5.3h2.7v5.3h3.069v-5.3h2.728v5.3h3.348l-1.178-.372q.589-.992,1.209-2.294a22.364,22.364,0,0,0,.961-2.294l2.976.744a49.1,49.1,0,0,1-2.573,4.216H178.5v2.418h-5.983q-.589,1.085-1.736,2.945h6.572v2.294H166.377v1.86h9.517v2.17h-9.517v1.891h12.214v2.418Zm-7.967-13.578a12.118,12.118,0,0,1,1.333,2.759l-.9.186H167.9a27.839,27.839,0,0,0,1.364-2.945Zm22.258.744V33.571h18.6v3.007a13.2,13.2,0,0,0-4.867,1.7q-5.394,3.1-6.324,6.882a8.245,8.245,0,0,0-.248,1.86,5.062,5.062,0,0,0,.434,2.108,4.693,4.693,0,0,0,1.876,2.092,7.15,7.15,0,0,0,3.022.977q1.023.093,1.829.093a18.216,18.216,0,0,0,2.666-.217v2.945a23.041,23.041,0,0,1-2.573.124q-.93,0-2.046-.062a9.34,9.34,0,0,1-5.611-2.2,7.4,7.4,0,0,1-2.573-5.766q0-.31.062-1.054a11.029,11.029,0,0,1,2.248-5.223,20.892,20.892,0,0,1,5.378-4.418Zm13.392,3.007h2.356v4.9h-2.356Zm3.689,0h2.356v4.9H200.26Zm33.728-4.371-.031,1.24q-.155,7.1-.294,10.7t-.372,5.472a6.682,6.682,0,0,1-.636,2.5,2.757,2.757,0,0,1-.821.837,3.341,3.341,0,0,1-1.1.372,15.1,15.1,0,0,1-1.829.093q-.806,0-1.209-.031a8.9,8.9,0,0,0-.248-1.3,5.094,5.094,0,0,0-.465-1.209q1.674.093,2.542.093a1.072,1.072,0,0,0,.512-.108,1.147,1.147,0,0,0,.387-.388q.434-.62.667-4.014t.387-11.734h-2.263v.744a49.092,49.092,0,0,1-.992,10.23,17.9,17.9,0,0,1-3.875,8.029,8.614,8.614,0,0,0-.977-.806,9.532,9.532,0,0,0-1.1-.713l.5-.589-1.054.124q-4.681.558-8.68.961l-.4-2.418q1.519-.093,3.41-.279l1.674-.124V50.435h-4.371V48.3h4.371V46.529H213.4V37.477h4.309v-1.7h-4.65V33.6h4.65v-1.55q-1.271.124-4.185.341a9.214,9.214,0,0,0-.527-1.8q-.837,2.449-1.519,4V56.48h-2.6V39.833a23.362,23.362,0,0,1-2.294,3.41,10.053,10.053,0,0,0-.558-1.472,17.019,17.019,0,0,0-.775-1.566,28.335,28.335,0,0,0,3.286-5.425,39.245,39.245,0,0,0,2.449-6.634l2.573.682q-.4,1.271-.5,1.55a80.356,80.356,0,0,0,10.261-1.457L224.812,31a37.626,37.626,0,0,1-4.65.775V33.6h4.712v1.457h1.86V28.115h2.48v6.944Zm-7.254,2.511H224.75v-1.8h-4.588v1.7h4.464v9.052h-4.464V48.3h4.526v2.139h-4.526v2.077l4.061-.372a20.5,20.5,0,0,0,2-6.355,50.7,50.7,0,0,0,.512-7.44Zm-11.377,1.736v1.8H217.9v-1.8Zm4.557,1.8h2.7v-1.8h-2.7Zm-4.557,1.7V44.7H217.9V42.809Zm4.557,1.891h2.7V42.809h-2.7Zm34.5-11.966-6.324,4.96a66.287,66.287,0,0,0-5.146,4.34q-.9.806-.9,1.333,0,.5,1.054,1.488,2.914,2.914,5.053,4.836,4.061,3.751,6.572,5.952h-4.588l-5.983-5.673L242.3,48.2a15.948,15.948,0,0,1-1.705-1.8,4.615,4.615,0,0,1-1.55-3.193,4.11,4.11,0,0,1,1.829-3.193l2.6-2.232q.651-.527,2.635-2.17,3.472-2.79,3.565-2.883ZM275,28.828a5.142,5.142,0,0,0-.031.62,7.873,7.873,0,0,1-.062.9,44.28,44.28,0,0,0,1.271,7.688,28.453,28.453,0,0,0,4.014,8.773,19.191,19.191,0,0,0,8.2,6.913,8.678,8.678,0,0,0-1.24,1.162,9.962,9.962,0,0,0-.961,1.256,20.037,20.037,0,0,1-8.138-6.944,32.645,32.645,0,0,1-4.417-9.765,31.844,31.844,0,0,1-4.139,9.5,22.334,22.334,0,0,1-7.8,7.238,8.688,8.688,0,0,0-1.054-1.178,10.578,10.578,0,0,0-1.333-1.085,19.9,19.9,0,0,0,8-7.347,26.487,26.487,0,0,0,3.457-8.587,59.238,59.238,0,0,0,.945-8.308l.031-.837Zm34.317,12.927Q302.467,42,298.9,43.708t-3.565,4.836a3.6,3.6,0,0,0,1.4,3.007,5.765,5.765,0,0,0,2.526,1.1,17.528,17.528,0,0,0,3.147.264q2.015,0,4.154-.124t2.759-.217v2.914a58.665,58.665,0,0,1-5.89.31,25.587,25.587,0,0,1-5.983-.527,6.6,6.6,0,0,1-3.8-2.48,7.039,7.039,0,0,1-1.38-4.309,6.348,6.348,0,0,1,1.24-3.937,13.831,13.831,0,0,1,3.6-3.162l-1.488-8.618h3.069l1.178,7.564a28.469,28.469,0,0,1,4.681-1.1q2.139-.295,4.774-.419Zm11.315,14.136a47.735,47.735,0,0,0-3.255-3.611q-1.829-1.844-3.5-3.239l2.542-2.232q1.612,1.333,3.549,3.271t3.3,3.581ZM26.877,107.752a.541.541,0,0,0,.5-.248,2.589,2.589,0,0,0,.233-.977q.077-.728.139-2.371a4.572,4.572,0,0,0,1.085.62,8.606,8.606,0,0,0,1.333.465,14.777,14.777,0,0,1-.434,3.069,2.79,2.79,0,0,1-.884,1.488,2.652,2.652,0,0,1-1.628.434h-2.7a4.654,4.654,0,0,1-1.906-.31A1.694,1.694,0,0,1,21.7,108.9a6.528,6.528,0,0,1-.248-2.046v-6.541H18.91a17.2,17.2,0,0,1-1.1,4.6,8.625,8.625,0,0,1-2.527,3.348,13.722,13.722,0,0,1-4.774,2.372,7.715,7.715,0,0,0-.7-1.256,5.294,5.294,0,0,0-.915-1.1,12.406,12.406,0,0,0,4.154-1.813,6.482,6.482,0,0,0,2.139-2.558,12.346,12.346,0,0,0,.9-3.6H13.547V83.262H28.272v17.05H24.211v6.51a1.337,1.337,0,0,0,.14.775.892.892,0,0,0,.635.155Zm-14.1-5.177Q9.486,103.6,3.534,105.3l-1.86.527-.713-2.759q1.271-.279,4.65-1.178V94.949H1.891V92.283h3.72V86.238H1.581V83.572H12.214v2.666H8.4v6.045h3.5v2.666H8.4v6.169L12.369,100Zm3.472-16.926v2.573H25.42V85.649Zm0,4.8v2.6H25.42v-2.6Zm0,4.836v2.6H25.42v-2.6Zm25.978,5.3q-5.456,2.79-9.052,4.495L32.054,102.2q1.333-.527,4.03-1.674V91.291h-3.41V88.563h3.41V82.3H38.75v6.262h3.131v2.728H38.75v8.06l2.852-1.3ZM58.59,82.828V93H44.268V82.828ZM55.924,86.92V84.9H46.872V86.92Zm0,4V88.873H46.872v2.046Zm-7.688,6.014a15.239,15.239,0,0,1-1.147,1.86H60.047l-.062,1.085q-.372,4.619-.775,6.727a6.436,6.436,0,0,1-1.023,2.821,2.58,2.58,0,0,1-.806.6,3.278,3.278,0,0,1-1.054.263q-.868.062-1.736.062-.9,0-1.364-.031a6.679,6.679,0,0,0-.2-1.209A3.745,3.745,0,0,0,52.576,108a20.915,20.915,0,0,0,2.418.124,2.049,2.049,0,0,0,.573-.062.857.857,0,0,0,.388-.279q.744-.837,1.24-6.665h-1.86a24.631,24.631,0,0,1-2.65,5.394,15.616,15.616,0,0,1-3.58,4.03,8.022,8.022,0,0,0-.93-.837,8.625,8.625,0,0,0-1.147-.775,13.464,13.464,0,0,0,3.317-3.286,22.245,22.245,0,0,0,2.573-4.526H50.468a23.7,23.7,0,0,1-3.3,4.557,20.443,20.443,0,0,1-4.077,3.534,5.633,5.633,0,0,0-.853-.914,8.987,8.987,0,0,0-1.069-.822,16.558,16.558,0,0,0,3.6-2.682,21.9,21.9,0,0,0,3.1-3.674h-2.6a20.627,20.627,0,0,1-3.813,3.317,10.84,10.84,0,0,0-.93-.945,9.985,9.985,0,0,0-1.023-.853,16.82,16.82,0,0,0,3.286-2.5,16.094,16.094,0,0,0,2.573-3.209H41.385V94.484H60.76v2.449Zm16.43-6.51V87.571h18.6v3.007a13.2,13.2,0,0,0-4.867,1.7q-5.394,3.1-6.324,6.882a8.245,8.245,0,0,0-.248,1.86,5.062,5.062,0,0,0,.434,2.108,4.693,4.693,0,0,0,1.875,2.092,7.15,7.15,0,0,0,3.022.977q1.023.093,1.829.093a18.217,18.217,0,0,0,2.666-.217v2.945a23.042,23.042,0,0,1-2.573.124q-.93,0-2.046-.062a9.34,9.34,0,0,1-5.611-2.2,7.4,7.4,0,0,1-2.573-5.766q0-.31.062-1.054A11.029,11.029,0,0,1,71.16,94.84a20.892,20.892,0,0,1,5.379-4.418ZM78.058,93.43h2.356v4.9H78.058Zm3.689,0H84.1v4.9H81.747Zm15.314-.868h-3.41v17.856H90.892V92.562H87.265V89.927h3.627V81.991h2.759v7.936h3.41Zm9.083-5.022a10.716,10.716,0,0,1-2.651,4.371,14.14,14.14,0,0,1-4.975,3.007,6.389,6.389,0,0,0-.651-1.054,6.511,6.511,0,0,0-.806-.93,11.568,11.568,0,0,0,4.061-2.2,8.437,8.437,0,0,0,2.232-3.193H98.332V85.215h5.673a24.7,24.7,0,0,0,.372-3.224h2.7a24.7,24.7,0,0,1-.372,3.224h7.533a7.548,7.548,0,0,1-.093,1.023,43.946,43.946,0,0,1-.62,4.991,4.728,4.728,0,0,1-.9,2.2,2.46,2.46,0,0,1-.852.62,3.918,3.918,0,0,1-1.132.248q-.868.062-1.86.062-.961,0-1.488-.031a6.315,6.315,0,0,0-.217-1.287,3.9,3.9,0,0,0-.5-1.162q1.643.124,2.914.124a2.7,2.7,0,0,0,.574-.047.934.934,0,0,0,.387-.2q.62-.62.961-4.216Zm9.176,10.509-.031,1.054q-.155,5.3-.356,7.5a6.694,6.694,0,0,1-.666,2.852,2.362,2.362,0,0,1-.713.635,2.536,2.536,0,0,1-.93.264,9.451,9.451,0,0,1-1.488.093l-1.054-.031a9.792,9.792,0,0,0-.217-1.24,4.675,4.675,0,0,0-.4-1.116,13.242,13.242,0,0,0,1.922.124,1.193,1.193,0,0,0,.48-.077.71.71,0,0,0,.295-.263,5.1,5.1,0,0,0,.434-2.031q.155-1.659.279-5.534h-2.2a20.839,20.839,0,0,1-1.488,5.921,11.372,11.372,0,0,1-3.1,4.185,7.137,7.137,0,0,0-.713-.992,4.113,4.113,0,0,0-.9-.837A8.6,8.6,0,0,0,107,105.163a17.553,17.553,0,0,0,1.162-4.882h-2.511V98.049h2.7q.062-1.023.124-3.131h2.542q-.062,2.108-.124,3.131Zm-10.385,0-.031,1.023q-.155,5.394-.388,7.579a6.568,6.568,0,0,1-.7,2.806,1.813,1.813,0,0,1-.651.635,2.536,2.536,0,0,1-.93.264,7.789,7.789,0,0,1-1.364.093l-.992-.031a6.6,6.6,0,0,0-.186-1.193,4.133,4.133,0,0,0-.4-1.07,15.786,15.786,0,0,0,1.8.093.78.78,0,0,0,.713-.341,5.2,5.2,0,0,0,.434-2.062q.155-1.69.279-5.564h-1.984a23.1,23.1,0,0,1-1.426,5.967,11.272,11.272,0,0,1-2.976,4.263,5.288,5.288,0,0,0-.7-.946,6.6,6.6,0,0,0-.883-.853,9.071,9.071,0,0,0,2.418-3.472,18.652,18.652,0,0,0,1.147-4.96h-2.7V98.049H98.27q.062-.992.124-3.038h2.449q-.062,2.046-.124,3.038Zm41.54-8.99-.031,1.24q-.155,7.1-.294,10.7t-.372,5.471a6.682,6.682,0,0,1-.636,2.5,2.756,2.756,0,0,1-.821.837,3.341,3.341,0,0,1-1.1.372,15.1,15.1,0,0,1-1.829.093q-.806,0-1.209-.031a8.9,8.9,0,0,0-.248-1.3,5.094,5.094,0,0,0-.465-1.209q1.674.093,2.542.093a1.072,1.072,0,0,0,.512-.109,1.147,1.147,0,0,0,.387-.387q.434-.62.667-4.015t.387-11.733H141.7v.744a49.092,49.092,0,0,1-.992,10.23,17.9,17.9,0,0,1-3.875,8.029,8.615,8.615,0,0,0-.977-.806,9.532,9.532,0,0,0-1.1-.713l.5-.589-1.054.124q-4.681.558-8.68.961l-.4-2.418q1.519-.093,3.41-.279l1.674-.124v-2.294h-4.371V102.3H130.2v-1.767h-4.309V91.477H130.2v-1.7h-4.65V87.6h4.65v-1.55q-1.271.124-4.185.341a9.214,9.214,0,0,0-.527-1.8q-.837,2.449-1.519,4V110.48h-2.6V93.833a23.362,23.362,0,0,1-2.294,3.41,10.054,10.054,0,0,0-.558-1.472,17.022,17.022,0,0,0-.775-1.565,28.334,28.334,0,0,0,3.286-5.425,39.244,39.244,0,0,0,2.449-6.634l2.573.682q-.4,1.271-.5,1.55a80.356,80.356,0,0,0,10.261-1.457L137.3,85a37.626,37.626,0,0,1-4.65.775V87.6h4.712v1.457h1.86V82.115h2.48v6.944Zm-7.254,2.511h-1.984v-1.8h-4.588v1.7h4.464v9.052h-4.464V102.3h4.526v2.139h-4.526v2.077l4.061-.372a20.5,20.5,0,0,0,2-6.355,50.7,50.7,0,0,0,.512-7.44Zm-11.377,1.736v1.8h2.542v-1.8Zm4.557,1.8h2.7v-1.8h-2.7Zm-4.557,1.7V98.7h2.542V96.809ZM132.4,98.7h2.7V96.809h-2.7Zm29.884-6.851h-11.9V89h11.9V85.99H165.2V89h4.464v2.852H165.2v6.634a11.019,11.019,0,0,1,.9,3.41,14.992,14.992,0,0,1-.45,4.542,11.511,11.511,0,0,1-1.689,3.828h-3.41A11.783,11.783,0,0,0,162.3,107.3a9.367,9.367,0,0,0,.635-2.4l-.217-.093a7.241,7.241,0,0,1-2.217,1.535,6.115,6.115,0,0,1-2.557.6,5.224,5.224,0,0,1-5.007-2.914,7.2,7.2,0,0,1-.729-3.317,6.683,6.683,0,0,1,.961-3.6,5.828,5.828,0,0,1,2.139-2.093,6.226,6.226,0,0,1,3.038-.7,5.854,5.854,0,0,1,3.937,1.271Zm.341,8.711a3.629,3.629,0,0,0-.527-1.643,4.049,4.049,0,0,0-1.426-1.441,3.934,3.934,0,0,0-2.108-.574,3.251,3.251,0,0,0-2.434,1.007,3.524,3.524,0,0,0-.977,2.558,3.846,3.846,0,0,0,.868,2.65,2.92,2.92,0,0,0,2.294.977,4.581,4.581,0,0,0,.9-.093,5.355,5.355,0,0,0,2.294-1.116,3.858,3.858,0,0,0,.822-1.209A2.98,2.98,0,0,0,162.626,100.56Zm13.888-13.175h12.9v2.976l-6.665,5.27a15.419,15.419,0,0,1,3.131-.341,7.634,7.634,0,0,1,2.418.31,5.7,5.7,0,0,1,3.162,2.31,8.029,8.029,0,0,1,1.116,4.231,7.479,7.479,0,0,1-4.092,6.882A11.464,11.464,0,0,1,183.4,110.2a10.676,10.676,0,0,1-2.976-.4,4.826,4.826,0,0,1-2.635-1.689,4.5,4.5,0,0,1-.992-2.868,3.48,3.48,0,0,1,.527-1.767A3.736,3.736,0,0,1,178.87,102a4.937,4.937,0,0,1,2.294-.512,6.777,6.777,0,0,1,1.116.093,6.147,6.147,0,0,1,2.992,1.472,10.107,10.107,0,0,1,2.154,3.116,4.42,4.42,0,0,0,1.566-1.7,4.75,4.75,0,0,0,.635-2.325,4.08,4.08,0,0,0-1.38-3.395,6.433,6.433,0,0,0-4.2-1.038,12.392,12.392,0,0,0-4.185.914,12.645,12.645,0,0,0-3.286,2.124l-2.232,1.953V98.917l10.788-8.742q-1.054,0-1.953.031l-6.665.031Zm5.177,16.585a2.288,2.288,0,0,0-1.488.31,1.157,1.157,0,0,0-.527.992,1.78,1.78,0,0,0,.465,1.147,3.212,3.212,0,0,0,1.364.9,6.889,6.889,0,0,0,1.736.217,3.162,3.162,0,0,0,1.612-.31,5.552,5.552,0,0,0-1.286-2.247A3.465,3.465,0,0,0,181.691,103.97Zm19.127-9.858h-2.7v-7.1h4.464a13.394,13.394,0,0,0-1.07-1.8q-.667-.961-1.348-1.767l2.48-1.116a22.758,22.758,0,0,1,1.689,2.123,11.549,11.549,0,0,1,1.193,2.031l-1.116.527h5.735a15.584,15.584,0,0,0-.914-2.062q-.6-1.163-1.256-2.186l2.511-.93a18.283,18.283,0,0,1,1.488,2.34A14.645,14.645,0,0,1,213,86.424l-1.519.589h5.239q.806-1.054,1.643-2.4a27.372,27.372,0,0,0,1.364-2.433l3.038.961q-1.333,1.953-2.883,3.875h4.495v7.1h-2.852V89.555H200.818Zm24.025,7.9H212.629v5.177a3.8,3.8,0,0,1-.372,1.86,2.226,2.226,0,0,1-1.3.961,8.893,8.893,0,0,1-2.154.356q-1.286.077-3.643.077a12.979,12.979,0,0,0-1.209-2.79q2.046.093,3.72.093l1.24-.031a1.2,1.2,0,0,0,.62-.155.571.571,0,0,0,.155-.465v-5.084h-12.09V99.351h12.09V97.212h1.457a22.868,22.868,0,0,0,3.5-2.325h-11.78V92.376H217.4l.62-.155,1.86,1.395a23.962,23.962,0,0,1-3.317,2.9,28.338,28.338,0,0,1-3.937,2.434v.4h12.214ZM242.7,81.34h2.356v4.588H242.7Zm3.689,0h2.356v4.588h-2.356Zm-17.36,9.455V87.943h8.68v2.945q-.9.837-2.542,2.7a13.232,13.232,0,0,0-2.247,3.549,9.486,9.486,0,0,0-.79,3.7,7.019,7.019,0,0,0,1.256,4.464A4.341,4.341,0,0,0,237,106.884a4.178,4.178,0,0,0,3.828-2.062q1.256-2.062,1.256-6.4a25.318,25.318,0,0,0-.465-4.882q-.465-2.372-1.4-5.6h2.418a53.366,53.366,0,0,0,5.58,7.068v4.557a31.639,31.639,0,0,1-3.844-4.867,31.9,31.9,0,0,1,.527,5.177,13.591,13.591,0,0,1-.961,5.115,7.742,7.742,0,0,1-2.743,3.488,7.515,7.515,0,0,1-4.387,1.256,7.037,7.037,0,0,1-5.8-2.48,9.711,9.711,0,0,1-1.829-6.758,14.493,14.493,0,0,1,1.426-5.348,13.815,13.815,0,0,1,3.379-4.355Z" transform="translate(733 2514)"/>
    <path id="キャッチ上のハイライト" d="M0,0H148V10H0Z" transform="translate(733 2618)" fill="#ff8c3c" style="mix-blend-mode: multiply;isolation: isolate"/>
  </g>
</svg>
