<svg xmlns="http://www.w3.org/2000/svg" width="352.905" height="136.83" viewBox="0 0 352.905 136.83">
  <g id="text02" transform="translate(-733 -1289.893)">
    <path id="パス_2966" data-name="パス 2966" d="M24.645-22.568a21.651,21.651,0,0,1-8.525,8.4A43.589,43.589,0,0,1,3.348-9.362a7.972,7.972,0,0,0-.573-1.318,6.474,6.474,0,0,0-.76-1.163,38.68,38.68,0,0,0,11.067-3.627,26.848,26.848,0,0,0-4.867-3.162q-1.922.992-4.03,1.86A9.107,9.107,0,0,0,3.3-17.918a6.858,6.858,0,0,0-1.039-.992,30.284,30.284,0,0,0,6.882-3.224A19.268,19.268,0,0,0,13.764-26.1l3.193.713q-.93,1.023-1.767,1.829h7.13l.465-.124Zm-12.4,1.426q-.713.527-1.612,1.085,1.395.713,2.759,1.566a18.875,18.875,0,0,1,2.2,1.566,19.5,19.5,0,0,0,4.836-4.216Zm16.74,9.393a19.345,19.345,0,0,1-8.742,9.672A42.426,42.426,0,0,1,5.642,2.48a8.556,8.556,0,0,0-.511-1.364A7.025,7.025,0,0,0,4.4-.155,38.752,38.752,0,0,0,17.3-3.6a26.055,26.055,0,0,0-2.5-1.969,29.268,29.268,0,0,0-2.837-1.783Q9.61-6.231,7.13-5.332A7.523,7.523,0,0,0,6.355-6.51a7.2,7.2,0,0,0-.961-1.054,34.584,34.584,0,0,0,8.044-3.549,21.114,21.114,0,0,0,5.317-4.449l3.193.744a26.306,26.306,0,0,1-2.108,2.17h6.727l.5-.124ZM16.771-10.168q-1.116.775-2.2,1.426,1.519.837,2.976,1.829A20.107,20.107,0,0,1,19.9-5.084a16.323,16.323,0,0,0,5.022-5.084ZM55.645-5.58a12.805,12.805,0,0,0,5.487,4.34,9.39,9.39,0,0,0-.977,1.1,8.711,8.711,0,0,0-.822,1.225,15.268,15.268,0,0,1-6.262-6.417V-.589a4.224,4.224,0,0,1-.263,1.674,1.943,1.943,0,0,1-.915.93,4.29,4.29,0,0,1-1.566.387q-.945.078-2.65.078a7.4,7.4,0,0,0-.295-1.318A9.789,9.789,0,0,0,46.9-.124a27.989,27.989,0,0,0,2.883.031A.543.543,0,0,0,50.174-.2a.543.543,0,0,0,.109-.388V-11.718h-7.6v-2.418h7.6v-1.922H44.206v-2.2h6.076V-20H43.338V-22.32H46.9a22.036,22.036,0,0,0-1.4-2.852l2.263-.775a14.725,14.725,0,0,1,1.054,1.8,14.831,14.831,0,0,1,.744,1.705l-.341.124h4.557q.434-.837.9-1.906t.713-1.844l2.883.775q-1.24,2.108-1.8,2.976h3.627V-20H53.072v1.736H59.4v2.2H53.072v1.922h7.5v2.418h-7.5v1.3a20.429,20.429,0,0,0,1.581,3.379q.9-.837,1.86-1.891a21.236,21.236,0,0,0,1.581-1.922L60.3-9.3A35.323,35.323,0,0,1,56.11-5.239ZM41.478-7.6q-.5-1.178-2.108-4.092V2.418H36.7V-10.7a27.729,27.729,0,0,1-3.317,7.44,13.258,13.258,0,0,0-1.364-2.48,23.3,23.3,0,0,0,2.558-4.96A39.223,39.223,0,0,0,36.456-16.8H32.674v-2.666H36.7v-6.541H39.37v6.541h3.317V-16.8H39.37V-15.1q.558.775,1.767,2.573T43-9.7Zm4.061-3.131q.93.961,1.813,2.031A13.065,13.065,0,0,1,48.67-6.851L46.562-5.394a18.745,18.745,0,0,0-1.286-1.922q-.852-1.147-1.721-2.108Zm4.185,7.471Q46.438-1.333,42.811.651l-1.3-2.418q2.108-.961,7.471-3.844ZM64.511-15.872v-2.821h3.627q.4-2.015.527-3.1h3.007q-.372,2.046-.589,3.1H74.9v2.821H70.649Q68.324-5.487,67.58-3.069h-3.1q2.387-8.618,3.162-12.8Zm12.958-2.883q1.116-.093,2.449-.093a30.678,30.678,0,0,1,3.844.217v2.852a31.447,31.447,0,0,0-3.41-.186v7.843a27.094,27.094,0,0,1,3.565,1.581v3.472a19.32,19.32,0,0,0-3.565-2.046V-2.17a8.324,8.324,0,0,1-.171,1.938A3.613,3.613,0,0,1,79.67.93a4.1,4.1,0,0,1-3.658,1.643,8.287,8.287,0,0,1-2.635-.4A5.059,5.059,0,0,1,70.742.31a5.459,5.459,0,0,1-.93-3.255A5.66,5.66,0,0,1,71.563-7.3a6.406,6.406,0,0,1,4.542-1.628,11.281,11.281,0,0,1,1.395.093ZM75.64-.217a2.368,2.368,0,0,0,1.286-.264,1.105,1.105,0,0,0,.48-.713,7.432,7.432,0,0,0,.093-1.38V-5.952a6.628,6.628,0,0,0-1.3-.124,3.639,3.639,0,0,0-2.465.79,3.19,3.19,0,0,0-1.038,2.248A2.393,2.393,0,0,0,73.517-.9,3.372,3.372,0,0,0,75.64-.217Zm30.628-4.526a24.485,24.485,0,0,0,4.852,2.558,29.369,29.369,0,0,0,5.658,1.659A8.683,8.683,0,0,0,115.754.667a12.78,12.78,0,0,0-.9,1.379A30.135,30.135,0,0,1,108.826-.31a23.525,23.525,0,0,1-5.069-3.472V2.449h-2.821V-3.565A25.958,25.958,0,0,1,95.868-.295a32.776,32.776,0,0,1-5.937,2.31,12.7,12.7,0,0,0-.883-1.3A9.205,9.205,0,0,0,88.04-.434,32.3,32.3,0,0,0,93.666-2.17a24.155,24.155,0,0,0,4.821-2.573H88.908V-7.161h12.028V-9.052H91.791v-2.17h9.145v-1.86H90.272v-2.294h6.355a13.612,13.612,0,0,0-1.3-2.821l.744-.124H89.032v-2.418H93.62a16.877,16.877,0,0,0-.976-2.062q-.636-1.163-1.287-2.123l2.511-.837a24.153,24.153,0,0,1,1.457,2.278,13.354,13.354,0,0,1,1.023,2.155l-1.581.589h3.41v-5.3h2.7v5.3h3.069v-5.3h2.728v5.3h3.348l-1.178-.372q.589-.992,1.209-2.294a22.362,22.362,0,0,0,.961-2.294l2.976.744a49.1,49.1,0,0,1-2.573,4.216h4.464v2.418h-5.983q-.589,1.085-1.736,2.945h6.572v2.294H103.757v1.86h9.517v2.17h-9.517v1.891h12.214v2.418ZM98.3-18.321a12.118,12.118,0,0,1,1.333,2.759l-.9.186h6.541a27.843,27.843,0,0,0,1.364-2.945Zm40.238,5.983a17.658,17.658,0,0,0,4.107,2.883A23.792,23.792,0,0,0,147.715-7.5a11.129,11.129,0,0,0-1.038,1.147,10.6,10.6,0,0,0-.915,1.3,23.593,23.593,0,0,1-5.828-2.821V2.387h-2.976V-8.37h2.294a20.059,20.059,0,0,1-4.061-3.968h-3.317A19.707,19.707,0,0,1,127.751-8.4h2.573v1.984a9.954,9.954,0,0,1-1.38,5.177q-1.38,2.325-5.472,3.906a5.823,5.823,0,0,0-.822-1.209A9.175,9.175,0,0,0,121.52.31q3.534-1.24,4.7-2.976a6.76,6.76,0,0,0,1.162-3.844V-8.122a26.1,26.1,0,0,1-6.169,3.193,13.878,13.878,0,0,0-.883-1.255,8.169,8.169,0,0,0-1.039-1.132,25.329,25.329,0,0,0,4.929-2.062,18.994,18.994,0,0,0,4.123-2.961h-5.611V-24.986h21.452v12.648ZM125.581-22.63v2.821H131.9V-22.63Zm15.624,2.821V-22.63h-6.386v2.821Zm-15.624,2.232v2.883H131.9v-2.883Zm15.624,2.883v-2.883h-6.386v2.883Zm27.745,2.449Q162.1-12,158.534-10.292t-3.565,4.836a3.6,3.6,0,0,0,1.395,3.007,5.765,5.765,0,0,0,2.527,1.1,17.528,17.528,0,0,0,3.146.264q2.015,0,4.154-.124t2.759-.217V1.488a58.665,58.665,0,0,1-5.89.31,25.586,25.586,0,0,1-5.983-.527,6.6,6.6,0,0,1-3.8-2.48,7.039,7.039,0,0,1-1.38-4.309,6.348,6.348,0,0,1,1.24-3.937,13.831,13.831,0,0,1,3.6-3.162l-1.488-8.618h3.069l1.178,7.564a28.469,28.469,0,0,1,4.681-1.1q2.139-.294,4.774-.418Zm32.24.124A28.3,28.3,0,0,1,197.9-4.309q.589,3.348,1.4,3.348.651,0,.9-4.278a8.532,8.532,0,0,0,1.891,1.581A14.216,14.216,0,0,1,200.9,1.023q-.759,1.364-1.689,1.364-2.077,0-3.193-4.03a21.389,21.389,0,0,1-4.433,4.092,8.849,8.849,0,0,0-.759-.961,12.611,12.611,0,0,0-.915-.961,17.2,17.2,0,0,0,2.821-2.139H186.9V.279h-2.263V-12.369h8.339V-1.86a20.858,20.858,0,0,0,2.387-2.821,79.775,79.775,0,0,1-.868-9.331H183.21v-2.294h2.418a16.238,16.238,0,0,0-.295-1.984,17.73,17.73,0,0,0-.542-2.077l1.922-.434a16.928,16.928,0,0,1,.651,2.108,10.218,10.218,0,0,1,.31,2.015l-1.519.372h4.929l-1.55-.4a38.294,38.294,0,0,0,.93-4.154l2.263.465q-.155.4-.589,1.8-.589,1.829-.775,2.294h3.007q-.186-5.828-.217-9.672H196.7q0,5.921.155,9.672h4.96v2.294h-4.867q.217,3.813.434,5.7a31.432,31.432,0,0,0,1.488-4.34Zm-7.657-8.742h-9.548V-22.2h-1.364V2.449H180.2V-3.162l-6.6,1.4L173.1-4.4l1.922-.341V-22.2h-1.333v-2.573h10.354v1.7h3.41v-2.883h2.48v2.883h3.6Zm6.324,2.17a17.3,17.3,0,0,0-1.286-2.542,22.244,22.244,0,0,0-1.752-2.542l1.922-1.023a19.333,19.333,0,0,1,1.845,2.48,15.593,15.593,0,0,1,1.317,2.48Zm-19.654.434V-22.2h-2.759v3.937Zm0,6.293V-15.9h-2.759v3.937Zm10.509,1.674H186.9V-8h3.813ZM177.444-5.177,180.2-5.7V-9.579h-2.759ZM186.9-3.658h3.813V-6.045H186.9Zm46,3.193V1.86H214.4V-.465h8.184V-2.48h-6.448V-4.712h6.448v-1.86h-6.169V-16.616h6.169v-1.736h-7.316v-2.294h7.316v-1.736q-3.565.217-6.231.248a4.8,4.8,0,0,0-.232-1.069,7.469,7.469,0,0,0-.419-1.069q4.123-.155,8.215-.527a66.531,66.531,0,0,0,6.6-.868l1.705,2.108a48.618,48.618,0,0,1-6.851.961v1.953h6.913v2.294H225.37v1.736h6.355V-6.572H225.37v1.86h6.448V-2.48H225.37V-.465ZM214.582-6.789a38.394,38.394,0,0,0-2.418-3.6V2.387h-2.79V-10.137a36.9,36.9,0,0,1-1.907,4.061,21.813,21.813,0,0,1-2.061,3.162,14.023,14.023,0,0,0-1.4-2.666,22.251,22.251,0,0,0,2.728-4.061A35.827,35.827,0,0,0,209-14.663h-4.4v-2.728h4.774v-4.216q-1.643.372-4.185.713a7.2,7.2,0,0,0-.341-1.116,9.834,9.834,0,0,0-.5-1.116q2.79-.465,5.41-1.116a27.834,27.834,0,0,0,4.262-1.364l1.984,2.2a37.922,37.922,0,0,1-3.844,1.209v4.805h3.627v2.728h-3.627v1.426q.682.589,2.17,2.123t1.922,2.061Zm4.371-7.781v2.077h3.627V-14.57Zm10.137,0h-3.72v2.077h3.72ZM218.953-8.618h3.627V-10.7h-3.627Zm10.137,0V-10.7h-3.72v2.077Zm7.285-7.719v-2.852h6.293a17.614,17.614,0,0,0,.9-3.038h3.1q-.279,1.085-.93,3.038h7.316v2.852h-8.184a20.363,20.363,0,0,1-1.55,3.069,6.019,6.019,0,0,1,2.418-.558,3.465,3.465,0,0,1,2.325.79,2.9,2.9,0,0,1,.992,2.186v.186q3.069-1.488,6.2-2.79v3.224a58.875,58.875,0,0,0-6.169,2.759v4.216h-2.821V-6.386l-1.023.62a3.18,3.18,0,0,0-.434.279,4.544,4.544,0,0,0-1.163,1.317,2.775,2.775,0,0,0-.387,1.349,1.821,1.821,0,0,0,.7,1.472,3.146,3.146,0,0,0,1.969.6l7.688-.062V2.077h-7.936a7.017,7.017,0,0,1-3.441-.961,3.913,3.913,0,0,1-1.8-2.325,3.784,3.784,0,0,1-.155-1.178,5.3,5.3,0,0,1,.837-2.774,7.578,7.578,0,0,1,2.325-2.372l2.852-1.891a2.975,2.975,0,0,0-.48-1.6,1.442,1.442,0,0,0-1.193-.481,4.657,4.657,0,0,0-1.953.511,7.26,7.26,0,0,0-2.139,1.628q-.682.713-4.247,4.681v-4.34q1.984-2.108,3.178-3.627a19.239,19.239,0,0,0,2.217-3.689Zm25.916-7.874h21.266V2.232h-3.038V.186H265.2V2.232h-2.914Zm18.228,2.821H265.2v4.4h15.314Zm0,7.13H265.2V-9.8h15.314ZM265.2-2.635h15.314V-7.068H265.2Zm35.557-7.6-3.875,1.116V-.775a4.439,4.439,0,0,1-.279,1.767,1.853,1.853,0,0,1-.93.93A5.2,5.2,0,0,1,294,2.341a22.308,22.308,0,0,1-2.666.077,7.376,7.376,0,0,0-.31-1.271A11.116,11.116,0,0,0,290.5-.217a29.215,29.215,0,0,0,2.945.031.66.66,0,0,0,.465-.124.66.66,0,0,0,.124-.465v-7.5q-1.24.372-3.751,1.054l-.744-2.79,1.333-.31q3.968-1.023,3.162-.806V-17.3h-4.061v-2.666h4.061v-6.014h2.852v6.014h3.379V-17.3h-3.379v5.363l.744-.186q2.17-.589,2.759-.775Zm12.71-5.859a2.122,2.122,0,0,0,1.225-.279,1.669,1.669,0,0,0,.558-1.023,18.062,18.062,0,0,0,.295-2.418,5.6,5.6,0,0,0,1.178.6,9.773,9.773,0,0,0,1.426.45,12.283,12.283,0,0,1-.62,3.271,2.8,2.8,0,0,1-1.317,1.55,5.787,5.787,0,0,1-2.558.45h-6.665a10.229,10.229,0,0,1-3.023-.341,2.369,2.369,0,0,1-1.457-1.163,5.356,5.356,0,0,1-.418-2.372v-8.556h2.852v4.371q2.666-.589,5.131-1.333a31.976,31.976,0,0,0,4.076-1.488l2.139,2.108a58.183,58.183,0,0,1-11.346,3.038v1.86a1.546,1.546,0,0,0,.171.822.932.932,0,0,0,.635.356,8.182,8.182,0,0,0,1.457.093ZM302.064,2.418V-11.253h14.694V2.263h-2.852V1.023h-9.114V2.418ZM313.906-8.866h-9.114v2.6h9.114ZM304.792-1.3h9.114V-4h-9.114Zm29.016-14.849H321.9V-19h11.9V-22.01h2.914V-19h4.464v2.852h-4.464v6.634a11.02,11.02,0,0,1,.9,3.41,14.992,14.992,0,0,1-.449,4.542,11.511,11.511,0,0,1-1.69,3.829h-3.41A11.782,11.782,0,0,0,333.823-.7a9.366,9.366,0,0,0,.635-2.4l-.217-.093a7.241,7.241,0,0,1-2.216,1.535,6.115,6.115,0,0,1-2.558.6,5.43,5.43,0,0,1-2.914-.682,5.384,5.384,0,0,1-2.092-2.232,7.2,7.2,0,0,1-.728-3.317,6.683,6.683,0,0,1,.961-3.6,5.828,5.828,0,0,1,2.139-2.092,6.225,6.225,0,0,1,3.038-.7,5.854,5.854,0,0,1,3.937,1.271Zm.341,8.711a3.629,3.629,0,0,0-.527-1.643,4.049,4.049,0,0,0-1.426-1.441,3.934,3.934,0,0,0-2.108-.574,3.251,3.251,0,0,0-2.434,1.008,3.524,3.524,0,0,0-.977,2.557,3.846,3.846,0,0,0,.868,2.65,2.92,2.92,0,0,0,2.294.977,4.582,4.582,0,0,0,.9-.093,5.355,5.355,0,0,0,2.294-1.116,3.858,3.858,0,0,0,.822-1.209A2.981,2.981,0,0,0,334.149-7.44ZM8.308,54.4a9.474,9.474,0,0,1-7.44-3.131L2.6,48.978A7.414,7.414,0,0,0,8,51.489a4.667,4.667,0,0,0,3.147-1.023,3.483,3.483,0,0,0,1.194-2.79,3.518,3.518,0,0,0-1.55-3.084q-1.55-1.07-5.208-1.069V40.887q5.983,0,5.983-4a3.106,3.106,0,0,0-.93-2.387,3.733,3.733,0,0,0-2.573-.9A6.566,6.566,0,0,0,3.5,35.741l-1.86-2.232A9.653,9.653,0,0,1,8.184,30.75a7.752,7.752,0,0,1,5.053,1.566,5.272,5.272,0,0,1,1.922,4.325,5.332,5.332,0,0,1-1.038,3.3A6.178,6.178,0,0,1,11.222,42v.155a6.567,6.567,0,0,1,3.394,2.015,5.363,5.363,0,0,1,1.318,3.689,5.959,5.959,0,0,1-1.023,3.487,6.621,6.621,0,0,1-2.759,2.263A9.168,9.168,0,0,1,8.308,54.4Zm10.726-2.48a53.579,53.579,0,0,0,7.7-8q2.5-3.41,2.5-6.138a4.468,4.468,0,0,0-.992-3.054A3.629,3.629,0,0,0,25.358,33.6q-2.294,0-4.495,2.542L18.848,34.16A11.722,11.722,0,0,1,22.026,31.6a8,8,0,0,1,3.766-.853,7.409,7.409,0,0,1,3.627.853,5.975,5.975,0,0,1,2.4,2.4,7.342,7.342,0,0,1,.852,3.6,11.768,11.768,0,0,1-2.185,6.433,42.72,42.72,0,0,1-6.154,7.146,36.177,36.177,0,0,1,3.72-.217h5.7V54H19.034ZM40.517,40.112h-2.7v-7.1h4.464a13.4,13.4,0,0,0-1.069-1.8q-.666-.961-1.348-1.767l2.48-1.116a22.757,22.757,0,0,1,1.689,2.124,11.549,11.549,0,0,1,1.194,2.031l-1.116.527h5.735a15.584,15.584,0,0,0-.914-2.062q-.6-1.162-1.256-2.185l2.511-.93a18.285,18.285,0,0,1,1.488,2.34A14.645,14.645,0,0,1,52.7,32.424l-1.519.589H56.42q.806-1.054,1.643-2.4a27.373,27.373,0,0,0,1.364-2.434l3.038.961q-1.333,1.953-2.883,3.875h4.5v7.1H61.225V35.555H40.517Zm24.025,7.9H52.328v5.177a3.8,3.8,0,0,1-.372,1.86,2.226,2.226,0,0,1-1.3.961,8.893,8.893,0,0,1-2.154.357q-1.286.077-3.642.077a12.979,12.979,0,0,0-1.209-2.79q2.046.093,3.72.093l1.24-.031a1.2,1.2,0,0,0,.62-.155.571.571,0,0,0,.155-.465V48.017H37.293V45.351h12.09V43.212H50.84a22.868,22.868,0,0,0,3.5-2.325H42.563V38.376H57.1l.62-.155,1.86,1.395a23.961,23.961,0,0,1-3.317,2.9,28.339,28.339,0,0,1-3.937,2.433v.4H64.542Zm31.682-.186-3.813.651v7.936H89.559v-7.44l-9.765,1.643-.434-2.759,10.2-1.705V27.991h2.852v17.7l3.379-.558Zm-18.352-.868a34.084,34.084,0,0,0-2.418-4.092V56.418h-2.79V43.863A29.024,29.024,0,0,1,68.7,51.086a17.047,17.047,0,0,0-1.4-2.666,22.069,22.069,0,0,0,2.728-4.076,34.646,34.646,0,0,0,2.232-5.007H67.7v-2.7h4.96V32.486q-.992.186-3.224.527l-.682.093a5.568,5.568,0,0,0-.31-1.1,9.391,9.391,0,0,0-.5-1.132q2.821-.465,5.487-1.116a27.433,27.433,0,0,0,4.371-1.395l1.643,2.356a31.644,31.644,0,0,1-4,1.178V36.64h4.34v2.7h-4.34v.434q.651.682,2.17,2.48T79.608,44.7Zm8.556-10.819a16.685,16.685,0,0,0-2.046-2.2,30.6,30.6,0,0,0-2.759-2.294l1.891-1.643a31.92,31.92,0,0,1,2.79,2.17,17.222,17.222,0,0,1,2.139,2.139ZM85.653,44.3a16.515,16.515,0,0,0-2.232-2.309,29.552,29.552,0,0,0-2.945-2.309L82.305,38a33.837,33.837,0,0,1,3.022,2.232,17.6,17.6,0,0,1,2.278,2.17ZM106.206,54.4a9.111,9.111,0,0,1-3.813-.775,6.33,6.33,0,0,1-2.666-2.17,5.392,5.392,0,0,1-.961-3.131,5.925,5.925,0,0,1,1.162-3.658,8.635,8.635,0,0,1,2.929-2.48v-.155A6.377,6.377,0,0,1,99.789,36.7a5.6,5.6,0,0,1,3.178-5.162,7.415,7.415,0,0,1,3.332-.729,7.278,7.278,0,0,1,3.41.76,5.411,5.411,0,0,1,2.247,2.139,6.215,6.215,0,0,1,.79,3.146,5.671,5.671,0,0,1-.883,3.038,8.086,8.086,0,0,1-2.123,2.325v.155q3.844,2.17,3.844,6.045a5.273,5.273,0,0,1-.93,3.038,6.343,6.343,0,0,1-2.6,2.154A8.9,8.9,0,0,1,106.206,54.4Zm1.488-13.082a5.742,5.742,0,0,0,2.046-4.247,3.823,3.823,0,0,0-.93-2.65,3.277,3.277,0,0,0-2.573-1.038,3.2,3.2,0,0,0-2.34.9,3.237,3.237,0,0,0-.915,2.418,3.348,3.348,0,0,0,1.209,2.712A12.867,12.867,0,0,0,107.694,41.321ZM106.268,51.83a4.185,4.185,0,0,0,2.852-.946,3.219,3.219,0,0,0,1.085-2.557,3.431,3.431,0,0,0-.713-2.2,5.909,5.909,0,0,0-1.813-1.5,30.72,30.72,0,0,0-3.085-1.41,6.239,6.239,0,0,0-1.953,2.077,5.317,5.317,0,0,0-.713,2.7,3.5,3.5,0,0,0,1.24,2.759A4.538,4.538,0,0,0,106.268,51.83ZM124.527,54.4a6.805,6.805,0,0,1-4.014-1.256,8.335,8.335,0,0,1-2.821-3.813,16.822,16.822,0,0,1-1.039-6.308,17.765,17.765,0,0,1,1.178-6.944,8.793,8.793,0,0,1,3.131-4.046,7.669,7.669,0,0,1,4.309-1.287,7.56,7.56,0,0,1,5.7,2.449l-1.953,2.17a5.2,5.2,0,0,0-1.612-1.224,4.325,4.325,0,0,0-1.953-.48,4.575,4.575,0,0,0-3.875,2.062q-1.488,2.061-1.612,6.649a7.539,7.539,0,0,1,2.356-1.922,5.629,5.629,0,0,1,2.6-.713,6.137,6.137,0,0,1,4.7,1.829,7.5,7.5,0,0,1,1.721,5.332,8.135,8.135,0,0,1-.915,3.906,6.749,6.749,0,0,1-2.48,2.651A6.5,6.5,0,0,1,124.527,54.4Zm-.248-12.059a4.3,4.3,0,0,0-2.17.651,6.805,6.805,0,0,0-2.077,2.015A10.467,10.467,0,0,0,121.458,50a3.523,3.523,0,0,0,3.038,1.674,3.116,3.116,0,0,0,2.542-1.3,5.465,5.465,0,0,0,1.023-3.472,5.165,5.165,0,0,0-.976-3.379A3.437,3.437,0,0,0,124.279,42.344Zm10.881,9.331H149.3V36.795H135.16V33.788h17.267V54.682H135.16Zm22.878-9.331H171.43v3.069H158.038Zm18.879-6.076V33.261h15.9a25.875,25.875,0,0,1-1.751,5.41,39.726,39.726,0,0,1-3.115,5.781,46.7,46.7,0,0,0,2.96,3.844,35.124,35.124,0,0,0,3.333,3.224v3.844a31.185,31.185,0,0,1-4.092-3.658q-1.891-2.015-4-4.712a38.457,38.457,0,0,1-4.433,4.681,29.207,29.207,0,0,1-3.208,2.5,22.7,22.7,0,0,1-2.743,1.6v-3.41a29.729,29.729,0,0,0,4.588-3.41A31.116,31.116,0,0,0,188.7,36.268Zm36.27-8.928h2.356v4.588h-2.356Zm3.689,0h2.356v4.588h-2.356ZM199.609,37.694l2.7-.186,1.054-.062q.062-2.232.062-3.162l-.031-1.922H206.3q.031.62.031,2.015,0,1.86-.062,2.852h3.286a3.866,3.866,0,0,1,3.116,1.255,7.36,7.36,0,0,1,1.286,4.2q.248,2.666.248,4.712a14.014,14.014,0,0,1-1.085,6.138,4.019,4.019,0,0,1-3.751,2.263,13.152,13.152,0,0,1-3.317-.31V52.45a14.134,14.134,0,0,0,2.945.434,1.783,1.783,0,0,0,1.318-.511,2.461,2.461,0,0,0,.635-1.472,31.144,31.144,0,0,0,.279-4.526q0-1.488-.124-3.534a3.693,3.693,0,0,0-.682-2.124,2.07,2.07,0,0,0-1.643-.635h-1.271q-.31,0-1.426.062a62.479,62.479,0,0,1-1.178,8.541A53.456,53.456,0,0,1,202.8,55.86h-3.193a38.47,38.47,0,0,0,2.294-7.053,59.276,59.276,0,0,0,1.333-8.417q-2.015.155-3.627.341Zm17.3-4.4a37.964,37.964,0,0,1,3.317,11.036h-3.286a33.155,33.155,0,0,0-3.255-11.036Zm7.5,18.383h14.136V36.795H224.409V33.788h17.267V54.682H224.409Zm24.459-18.538h16.12V36.02h-16.12ZM248,43.491V40.546h18.352a16.784,16.784,0,0,1-1.1,6.014,11.436,11.436,0,0,1-3.022,4.464,14.914,14.914,0,0,1-4.061,2.728,18.82,18.82,0,0,1-3.488,1.3q-1.689.434-3.828.775V52.667a20.2,20.2,0,0,0,6.262-1.86,11.369,11.369,0,0,0,3.612-2.852,9.421,9.421,0,0,0,2.092-4.464ZM284.642,27.34H287v4.588h-2.356Zm3.689,0h2.356v4.588h-2.356Zm2.2,11.129H282.5V56.015H279.62V38.469h-7.936v-3.1h7.874V31.835h3.007v3.534h7.967ZM276.024,42.22q-.031,3.844-.31,6.494t-.868,6.215H271.87q.682-4.154.992-6.758a55.179,55.179,0,0,0,.341-5.952Zm12.989,0a55.179,55.179,0,0,0,.341,5.952q.31,2.6.992,6.758H287.37q-.589-3.565-.868-6.215t-.31-6.494ZM20.026,81.712h9.982v2.666h-7.1v17.267H20.026ZM43.71,101.769a46.414,46.414,0,0,0-3.379-3.658v12.338H37.479V99.01a28.045,28.045,0,0,1-4.34,3.472,11.619,11.619,0,0,0-.667-1.426,9.6,9.6,0,0,0-.76-1.24A25.385,25.385,0,0,0,40.92,90.33H32.8V87.695h4.681v-5.7h2.852v5.7H42.47l.5-.093,1.612,1.085a28.043,28.043,0,0,1-3.844,6.665q1.271,1.023,2.589,2.17t2.154,1.891Zm10.385,4.96h6.913v2.852H43.648v-2.852h7.5V94.577H44.888v-2.79H51.15V82.239H54.1v9.548h6.262v2.79H54.1Zm16.12-14.911a35.7,35.7,0,0,1-5.394,3.224,9.426,9.426,0,0,0-.744-1.194,9.132,9.132,0,0,0-.961-1.162,31.457,31.457,0,0,0,7.378-4.758,25.879,25.879,0,0,0,5.3-5.906h2.976a28.864,28.864,0,0,0,5.983,6.061,30.317,30.317,0,0,0,7.285,4.17,14.884,14.884,0,0,0-1.829,2.6,37.093,37.093,0,0,1-5.487-3.224V94.05H70.215Zm14.167-.434A37.217,37.217,0,0,1,80.43,88.16a24.972,24.972,0,0,1-3.023-3.348,23.712,23.712,0,0,1-2.821,3.3A38.438,38.438,0,0,1,70.8,91.384Zm-19.5,5.89H90.334v2.7h-14.2q-2.17,4.371-3.286,6.386l11.067-.434a47.924,47.924,0,0,0-3.6-3.689L82.8,100.9a40.222,40.222,0,0,1,4.107,4,30.024,30.024,0,0,1,3.085,3.968l-2.635,1.643a19.379,19.379,0,0,0-1.364-2.015q-5.58.279-10.85.511t-9.672.419l-.372-2.821,4.588-.155a50.944,50.944,0,0,0,2.883-6.479H64.883ZM113,97.491a9.575,9.575,0,0,0-.822-3.6,6.186,6.186,0,0,0-2-2.5,4.911,4.911,0,0,0-2.945-.914,75.753,75.753,0,0,1-.465,9.191,15.091,15.091,0,0,1-1.783,5.89,4.189,4.189,0,0,1-3.8,2.186,4.458,4.458,0,0,1-4.138-2.34,12.541,12.541,0,0,1-1.38-6.185,13.568,13.568,0,0,1,1.24-5.642,11.261,11.261,0,0,1,3.333-4.247,9.287,9.287,0,0,1,4.82-1.922q.372-.031,1.116-.031a10.036,10.036,0,0,1,5.115,1.256,8.692,8.692,0,0,1,3.395,3.611,13.375,13.375,0,0,1,1.38,5.58,14.009,14.009,0,0,1-1.007,5.6,10.592,10.592,0,0,1-3.085,4.309,7.583,7.583,0,0,1-4.681,1.751v-2.883a4.787,4.787,0,0,0,2.852-1.194,7.494,7.494,0,0,0,2.077-3.131A13.415,13.415,0,0,0,113,97.491Zm-11.935,7.347q1.7.093,2.48-3.7a45.231,45.231,0,0,0,.775-8.943l-.031-1.674a5.694,5.694,0,0,0-2.929,1.6,8.78,8.78,0,0,0-2.046,3.178A10.776,10.776,0,0,0,98.58,99.2a10.571,10.571,0,0,0,.635,4.061A2.223,2.223,0,0,0,101.06,104.838Zm32.426-17.577v2.945h-2.573V84.874h6.975V81.929H140.8v2.945h7.192v4.9h-2.666V87.261Zm3.286,2.542a35.857,35.857,0,0,1-1.705,4.774v15.841h-2.356V99.01a16.933,16.933,0,0,1-1.4,1.829,12.97,12.97,0,0,0-1.457-1.953l.62-.775-1.24.5-.248-1.178-2.108.124v12.865H124.4V97.739l-1.984.124q-1.829.124-2.418.155l-.279-2.511,2.325-.124q1.178-1.612,1.581-2.263a28.218,28.218,0,0,0-3.751-4.464L121.3,86.8l.9.868q.682-1.271,1.364-2.821t1.116-2.852l2.48.9q-2.232,4.4-3.441,6.355.837.961,1.333,1.643a60.111,60.111,0,0,0,2.914-5.332l2.325,1.054q-3.286,5.425-5.7,8.618l3.627-.186a21.956,21.956,0,0,0-1.116-2.573l1.953-.775a23.872,23.872,0,0,1,1.256,2.681,23.035,23.035,0,0,1,.883,2.619,23.452,23.452,0,0,0,1.829-3.751,30.438,30.438,0,0,0,1.271-4.061Zm6.882,3.007-.775,2.7h4.65v14.725h-2.511v-1.116h-5.456v1.271h-2.356V95.507h3.1q.31-1.488.527-2.7h-4.247V90.454h11.563V92.81Zm1.364,8.277V97.832h-5.456v3.255Zm-15.593-1.519a21.147,21.147,0,0,1,.976,2.868,22.308,22.308,0,0,1,.574,2.713l-2.077.651a19.333,19.333,0,0,0-.527-2.744,24.5,24.5,0,0,0-.93-2.9Zm-5.828.558a36.912,36.912,0,0,1-.79,4.371,17.534,17.534,0,0,1-1.193,3.472,6.777,6.777,0,0,0-.93-.512q-.62-.294-1.116-.48a22.7,22.7,0,0,0,1.736-7.254Zm15.965,6.7h5.456V103.35h-5.456Zm12.865-23.467h25.7v27h-3.007v-1.4H155.31v1.4h-2.883ZM155.31,106.2h19.809V86.114H155.31Zm9.3-12.586a13.182,13.182,0,0,0-.744-2.7,24.466,24.466,0,0,0-1.333-2.976l2.263-.775a22.884,22.884,0,0,1,1.411,2.9,14.96,14.96,0,0,1,.852,2.682Zm8.866-4.836a32.248,32.248,0,0,1-5.952,9.734,36.75,36.75,0,0,1,5.921,4l-1.767,2.263A38.864,38.864,0,0,0,165.6,100.5a30.489,30.489,0,0,1-7.564,5.177q-.31-.465-.883-1.194a10.113,10.113,0,0,0-1.007-1.132,26.82,26.82,0,0,0,6.944-4.278,59.284,59.284,0,0,0-5.766-2.759l1.581-1.953q2.883,1.147,6.138,2.821a26.293,26.293,0,0,0,5.673-9.114ZM159.4,94.329a17.263,17.263,0,0,0-1.038-2.558,26.764,26.764,0,0,0-1.566-2.805l2.139-.9a27.293,27.293,0,0,1,1.721,2.743,11.821,11.821,0,0,1,1.069,2.465Zm32.3,16.4h-9.982v-2.666h7.1V90.795H191.7Zm36.7-29.388h2.356v4.588h-2.356Zm3.689,0h2.356v4.588H232.1ZM214.83,91.694l2.7-.186,1.054-.062q.062-2.232.062-3.162l-.031-1.922h2.914q.031.62.031,2.015,0,1.86-.062,2.852h3.286a3.866,3.866,0,0,1,3.116,1.255,7.36,7.36,0,0,1,1.286,4.2q.248,2.666.248,4.712a14.014,14.014,0,0,1-1.085,6.138A4.019,4.019,0,0,1,224.6,109.8a13.152,13.152,0,0,1-3.317-.31V106.45a14.133,14.133,0,0,0,2.945.434,1.783,1.783,0,0,0,1.318-.512,2.461,2.461,0,0,0,.635-1.472,31.144,31.144,0,0,0,.279-4.526q0-1.488-.124-3.534a3.693,3.693,0,0,0-.682-2.123,2.07,2.07,0,0,0-1.643-.635h-1.271q-.31,0-1.426.062a62.479,62.479,0,0,1-1.178,8.541,53.456,53.456,0,0,1-2.108,7.176H214.83a38.47,38.47,0,0,0,2.294-7.052,59.277,59.277,0,0,0,1.333-8.417q-2.015.155-3.627.341Zm17.3-4.4a37.964,37.964,0,0,1,3.317,11.036h-3.286A33.155,33.155,0,0,0,228.9,87.292Zm15.934,5.983,3.162-3.069H241.056V87.354h15.066v2.232l-4.4,3.689ZM246.14,99.32a14.5,14.5,0,0,0-1.922,2.279,3.584,3.584,0,0,0-.651,1.938,3,3,0,0,0,.558,1.674,3.067,3.067,0,0,0,1.751,1.038,15.32,15.32,0,0,0,3.518.357q2.263,0,4-.155t3.658-.465v3.038a58.485,58.485,0,0,1-8.339.527,10.65,10.65,0,0,1-6.03-1.488,4.749,4.749,0,0,1-2.061-4.216,6.418,6.418,0,0,1,.558-2.542,6.67,6.67,0,0,1,1.55-1.984Zm24.831-6.045,3.162-3.069H263.965V87.354h15.066v2.232l-4.4,3.689Zm-1.922,6.045a14.5,14.5,0,0,0-1.922,2.279,3.584,3.584,0,0,0-.651,1.938,3,3,0,0,0,.558,1.674,3.067,3.067,0,0,0,1.751,1.038,15.32,15.32,0,0,0,3.518.357q2.263,0,4-.155t3.658-.465v3.038a58.486,58.486,0,0,1-8.339.527,10.649,10.649,0,0,1-6.029-1.488,4.749,4.749,0,0,1-2.061-4.216,6.418,6.418,0,0,1,.558-2.542,6.669,6.669,0,0,1,1.55-1.984Zm20.646-12.09a89.959,89.959,0,0,0-.806,10.912,81.178,81.178,0,0,0,1.023,11.222h-3.069a87.61,87.61,0,0,1-.868-11.129,103.746,103.746,0,0,1,.775-11.005Zm13.95,1.364v2.883h-10.23V88.594ZM296.081,99.6a6.759,6.759,0,0,0-.419,1.473,8.743,8.743,0,0,0-.171,1.565,2.814,2.814,0,0,0,1.085,2.34,4.94,4.94,0,0,0,3.038.883,40.445,40.445,0,0,0,4.588-.248v2.976q-.341.062-1.426.124l-3.41.093a8.9,8.9,0,0,1-3.379-.744,6.326,6.326,0,0,1-2.418-1.813,4.28,4.28,0,0,1-.961-2.526,9.839,9.839,0,0,1,.558-4.123Zm13.857-8.122V88.625h5.084q.217-1.891.248-2.542h2.976a18.6,18.6,0,0,0-.341,2.542h11.067v2.852H317.719q-.093.93-.093,1.922l.031,1.581q.372-.093.961-.217a1.248,1.248,0,0,0,.341-.031,17.594,17.594,0,0,1,2.139-.155,10.621,10.621,0,0,1,3.069.4,7.563,7.563,0,0,1,3.844,2.5,7.381,7.381,0,0,1,1.581,4.572,9.781,9.781,0,0,1-.682,3.875,12.106,12.106,0,0,1-1.473,2.6,9.5,9.5,0,0,1-2,1.891h-4.185a15.087,15.087,0,0,0,3.906-4.014,8.3,8.3,0,0,0,1.457-4.387,4.318,4.318,0,0,0-2.728-4.185,25.528,25.528,0,0,1-3.844,8.649,9.085,9.085,0,0,1-2.635,2.48,6.169,6.169,0,0,1-2.945.992,3.687,3.687,0,0,1-.558.031,5.4,5.4,0,0,1-1.767-.31,3.959,3.959,0,0,1-2.2-2.093,8.085,8.085,0,0,1-.682-4.2,9.278,9.278,0,0,1,5.487-7.719V93.647l.062-2.17Zm8.587,12.648a25.054,25.054,0,0,0,1.628-3.379,23.481,23.481,0,0,0,1.039-3.5,7.163,7.163,0,0,0-1.178-.093,6.611,6.611,0,0,0-2.325.372A24.141,24.141,0,0,0,318.525,104.125Zm-3.782,2.883a1.918,1.918,0,0,0,.667-.109,2.9,2.9,0,0,0,.79-.542,15.435,15.435,0,0,1-.806-3.069q-.279-1.7-.465-4.557a7.307,7.307,0,0,0-1.8,1.922,6.833,6.833,0,0,0-1.023,2.666,6.167,6.167,0,0,0-.031.713,3.843,3.843,0,0,0,.558,2.17,1.848,1.848,0,0,0,1.643.837A2.568,2.568,0,0,0,314.743,107.008Zm22.1-19.623h12.9v2.976l-6.665,5.27a15.419,15.419,0,0,1,3.131-.341,7.634,7.634,0,0,1,2.418.31,5.7,5.7,0,0,1,3.162,2.31,8.029,8.029,0,0,1,1.116,4.231,7.479,7.479,0,0,1-4.092,6.882,11.465,11.465,0,0,1-5.084,1.178,10.676,10.676,0,0,1-2.976-.4,4.826,4.826,0,0,1-2.635-1.689,4.5,4.5,0,0,1-.992-2.868,3.48,3.48,0,0,1,.527-1.767A3.736,3.736,0,0,1,339.2,102a4.937,4.937,0,0,1,2.294-.512,6.777,6.777,0,0,1,1.116.093,6.147,6.147,0,0,1,2.992,1.472,10.107,10.107,0,0,1,2.154,3.116,4.42,4.42,0,0,0,1.566-1.7,4.75,4.75,0,0,0,.635-2.325,4.08,4.08,0,0,0-1.38-3.395,6.433,6.433,0,0,0-4.2-1.038,12.392,12.392,0,0,0-4.185.914,12.645,12.645,0,0,0-3.286,2.124l-2.232,1.953V98.917l10.788-8.742q-1.054,0-1.953.031l-6.665.031Zm5.177,16.585a2.288,2.288,0,0,0-1.488.31,1.157,1.157,0,0,0-.527.992,1.78,1.78,0,0,0,.465,1.147,3.212,3.212,0,0,0,1.364.9,6.889,6.889,0,0,0,1.736.217,3.162,3.162,0,0,0,1.612-.31,5.552,5.552,0,0,0-1.286-2.247A3.465,3.465,0,0,0,342.023,103.97Z" transform="translate(733 1315.995)"/>
    <path id="キャッチ上のハイライト" d="M0,0H293V10H0Z" transform="translate(733 1366)" fill="#ff8c3c" style="mix-blend-mode: multiply;isolation: isolate"/>
  </g>
</svg>
