<svg xmlns="http://www.w3.org/2000/svg" width="435.853" height="136.706" viewBox="0 0 435.853 136.706">
  <g id="text10" transform="translate(-732.147 -5987.96)">
    <path id="パス_2974" data-name="パス 2974" d="M12.524-6.913a4.988,4.988,0,0,1-.155,1.348,1.438,1.438,0,0,1-.558.821,2.245,2.245,0,0,1-.93.419,7.394,7.394,0,0,1-1.426.109,5.7,5.7,0,0,0-.232-1.225,5.622,5.622,0,0,0-.481-1.194h1.4a.3.3,0,0,0,.217-.062.422.422,0,0,0,.062-.279V-17.7H8.432V2.449H5.983V-17.7H4.154v13.8H1.984V-20.243h4v-5.735H8.432v5.735h4.092Zm.961-17.608h15.9v2.356h-15.9Zm1.457,4.278H27.931v7.378H14.942Zm10.416,5.208v-3.007H17.422v3.007ZM13.578,2.418V-10.819H29.109V2.356H26.443v-.93H16.151v.992ZM19.9-8.525H16.151v2.7H19.9Zm6.541,2.7v-2.7H22.351v2.7ZM16.151-.837H19.9V-3.565H16.151Zm6.2,0h4.092V-3.565H22.351ZM37.82-13.95q0,11.129-3.379,16.368a14.148,14.148,0,0,0-1.209-.9,7.1,7.1,0,0,0-1.24-.713,17.079,17.079,0,0,0,2.371-6.619,54.153,54.153,0,0,0,.574-8.138v-7.967H45.911v-4.092h2.976v4.092H60.419v2.759H37.82ZM58.032,2.542A26.889,26.889,0,0,0,56.854-.217Q47.771.4,37.913.961l-.279-2.976,3.689-.124q1.271-3.286,2.527-7.533t1.968-7.75l3.255.713q-.961,3.627-2.232,7.533T44.392-2.263l11.129-.5a63.738,63.738,0,0,0-4.03-6.169l2.635-1.178a65.69,65.69,0,0,1,4.061,5.89,31.881,31.881,0,0,1,2.759,5.394ZM80.91-21.266l-6.324,4.96a66.287,66.287,0,0,0-5.146,4.34q-.9.806-.9,1.333,0,.5,1.054,1.488,2.914,2.914,5.053,4.836Q78.709-.558,81.22,1.643H76.632L70.649-4.03,68.789-5.8a15.949,15.949,0,0,1-1.705-1.8,4.615,4.615,0,0,1-1.55-3.193,4.11,4.11,0,0,1,1.829-3.193l2.6-2.232q.651-.527,2.635-2.17,3.472-2.79,3.565-2.883Zm25.265,7.006v4.588h6.386V2.263h-2.728V1.116H99.572v1.3H96.937V-9.672h6.51V-14.26H94.829v-2.759h8.618v-4.4q-3.131.5-6.448.744a7.762,7.762,0,0,0-.341-1.224,10.756,10.756,0,0,0-.5-1.194q4.34-.465,8.323-1.193a39.169,39.169,0,0,0,6.4-1.628l2.263,2.232a42.661,42.661,0,0,1-6.975,1.8v4.867h8.215v2.759Zm-12.9-5.859q-1.612-1.147-5.673-3.41l1.612-2.046q1.457.713,3.147,1.612t2.619,1.519Zm-1.457,8.37q-.93-.651-2.6-1.612t-3.1-1.7L87.7-17.2a58.851,58.851,0,0,1,5.7,3.069ZM86.738.124q1.271-1.8,2.883-4.511t2.945-5.285L94.643-7.75a99.971,99.971,0,0,1-5.487,9.8Zm23.1-1.612v-5.58H99.572v5.58ZM145.421,1.55H132.37v.868h-2.635V-7.688a20.725,20.725,0,0,1-1.581,1.643q-.372-.434-.914-.977a10.128,10.128,0,0,0-.946-.852l.279-.248H124.31V-3.1l3.782-.9.279,2.48-11.16,2.79-.5-2.666,1.488-.31V-12.152h2.2V-2.2l1.55-.341V-14.725h-3.627v-9.827h8.835v9.827H124.31V-10.6h3.255v1.457a20.322,20.322,0,0,0,2.123-2.914,20.1,20.1,0,0,0,1.566-3.131H128.34v-2.077h5.053v-1.767h-4.526v-1.984h4.526v-1.736h-4.929v-2.077h7.409v9.641h-3.1l1.364.372q-.4.9-1.023,2.077H136.9q.713-1.581,1.054-2.449h-1.023v-2.077h5.146v-1.767h-4.681v-1.984h4.681v-1.736h-5.115v-2.077h7.626v9.641h-5.363l1.519.4-1.178,2.046h5.27v2.325h-5.859v1.829H143.9v1.953h-4.929v1.922H143.9v1.953h-4.929V-.806h6.448ZM120.714-22.165v5.053h3.937v-5.053ZM136.493-8.587v-1.829H132.37v1.829Zm0,3.875V-6.634H132.37v1.922ZM132.37-2.759V-.806h4.123V-2.759Zm28.675-13.392h-11.9V-19h11.9V-22.01h2.914V-19h4.464v2.852h-4.464v6.634a11.019,11.019,0,0,1,.9,3.41,14.992,14.992,0,0,1-.45,4.542,11.511,11.511,0,0,1-1.689,3.829h-3.41A11.782,11.782,0,0,0,161.061-.7a9.367,9.367,0,0,0,.635-2.4l-.217-.093a7.241,7.241,0,0,1-2.217,1.535,6.115,6.115,0,0,1-2.557.6,5.43,5.43,0,0,1-2.914-.682A5.383,5.383,0,0,1,151.7-3.968a7.2,7.2,0,0,1-.729-3.317,6.683,6.683,0,0,1,.961-3.6,5.828,5.828,0,0,1,2.139-2.092,6.226,6.226,0,0,1,3.038-.7,5.854,5.854,0,0,1,3.937,1.271Zm.341,8.711a3.629,3.629,0,0,0-.527-1.643,4.049,4.049,0,0,0-1.426-1.441,3.934,3.934,0,0,0-2.108-.574,3.251,3.251,0,0,0-2.434,1.008,3.524,3.524,0,0,0-.977,2.557,3.846,3.846,0,0,0,.868,2.65,2.92,2.92,0,0,0,2.294.977,4.582,4.582,0,0,0,.9-.093,5.355,5.355,0,0,0,2.294-1.116,3.858,3.858,0,0,0,.821-1.209A2.98,2.98,0,0,0,161.386-7.44Zm13.888-13.175h12.9v2.976l-6.665,5.27a15.419,15.419,0,0,1,3.131-.341,7.634,7.634,0,0,1,2.418.31,5.7,5.7,0,0,1,3.162,2.31,8.029,8.029,0,0,1,1.116,4.231,7.518,7.518,0,0,1-1.054,4.046,7.527,7.527,0,0,1-3.038,2.837A11.464,11.464,0,0,1,182.156,2.2a10.676,10.676,0,0,1-2.976-.4,4.826,4.826,0,0,1-2.635-1.69,4.5,4.5,0,0,1-.992-2.868,3.48,3.48,0,0,1,.527-1.767A3.736,3.736,0,0,1,177.63-6a4.937,4.937,0,0,1,2.294-.511,6.777,6.777,0,0,1,1.116.093,6.147,6.147,0,0,1,2.992,1.473,10.107,10.107,0,0,1,2.154,3.115,4.42,4.42,0,0,0,1.566-1.705,4.75,4.75,0,0,0,.635-2.325,4.08,4.08,0,0,0-1.38-3.394,6.433,6.433,0,0,0-4.2-1.039,12.392,12.392,0,0,0-4.185.915,12.644,12.644,0,0,0-3.286,2.124L173.1-5.3V-9.083l10.788-8.742q-1.054,0-1.953.031l-6.665.031ZM180.451-4.03a2.288,2.288,0,0,0-1.488.31,1.157,1.157,0,0,0-.527.992,1.78,1.78,0,0,0,.465,1.147,3.212,3.212,0,0,0,1.364.9A6.889,6.889,0,0,0,182-.465a3.162,3.162,0,0,0,1.612-.31,5.552,5.552,0,0,0-1.286-2.248A3.465,3.465,0,0,0,180.451-4.03ZM223.51-19.22q-.279,7.254-.543,11.191a55.307,55.307,0,0,1-.651,6.014A6.783,6.783,0,0,1,221.278.868a3.058,3.058,0,0,1-1.147,1.039,4.784,4.784,0,0,1-1.581.388,13.284,13.284,0,0,1-2.108.124q-1.271,0-2.666-.093a7.647,7.647,0,0,0-.31-1.5,4.622,4.622,0,0,0-.651-1.38q2.418.186,4.619.186a2.346,2.346,0,0,0,.79-.109,1.268,1.268,0,0,0,.542-.419q.744-.744,1.163-4.557t.729-12.4H211.2a24.106,24.106,0,0,1-2.728,4.154,15.247,15.247,0,0,0-2.542-1.736,18.82,18.82,0,0,0,3.131-4.65A32.079,32.079,0,0,0,211.3-26.04l2.945.682a43.9,43.9,0,0,1-1.7,4.743H223.51Zm-18.259,3.1a29.188,29.188,0,0,1,1.829,3.333,17.243,17.243,0,0,1,1.147,3.022l-2.2,1.054a13.8,13.8,0,0,0-.558-1.736l-2.294.155V2.48H200.6V-10.137l-4.836.279-.248-2.542,2.17-.062q.713-.93,1.8-2.418a30.494,30.494,0,0,0-3.906-4.34l1.4-1.922.837.744q.744-1.3,1.441-2.837a26.878,26.878,0,0,0,1.1-2.774l2.6.93q-2.387,4.526-3.534,6.231a15.305,15.305,0,0,1,1.519,1.8,51.6,51.6,0,0,0,3.131-5.394l2.449,1.054a94.331,94.331,0,0,1-6.169,8.8l4.123-.155q-.651-1.364-1.3-2.48Zm8.742,10.7a20.586,20.586,0,0,0-1.6-3.41,37.709,37.709,0,0,0-2.372-3.72L212.35-13.7a35.142,35.142,0,0,1,2.5,3.612,19.176,19.176,0,0,1,1.689,3.363Zm-7.967-3.007q.62,1.395,1.193,3.038a23.474,23.474,0,0,1,.822,2.821l-2.294.806a18.324,18.324,0,0,0-.729-2.775q-.543-1.628-1.163-3.178Zm-6.51.589a37.465,37.465,0,0,1-.853,4.387A19.7,19.7,0,0,1,197.439.062a5.279,5.279,0,0,0-1.007-.574q-.7-.326-1.193-.512a22.982,22.982,0,0,0,1.829-7.254ZM231.384,0a54.951,54.951,0,0,1,.852-7.6,29.186,29.186,0,0,1,1.922-6.215,33.444,33.444,0,0,1,3.487-6H226.92v-3.038h14.694v2.2a29.7,29.7,0,0,0-3.952,6.247,24.8,24.8,0,0,0-1.876,6.215A71.759,71.759,0,0,0,235.042,0Zm24.552-20.956q-.124,3.844-.31,5.735H269.39l-.031,1.333q-.4,7.378-.884,10.587T267.1.9a3.184,3.184,0,0,1-1.209.914,6.05,6.05,0,0,1-1.7.357,17.576,17.576,0,0,1-2.015.093q-1.023,0-3.379-.124a6.875,6.875,0,0,0-.326-1.426,5.463,5.463,0,0,0-.667-1.4q2.17.186,5.518.186a1.678,1.678,0,0,0,1.178-.372q.682-.589,1.069-3.224t.7-8.339H255.254a25.687,25.687,0,0,1-2.837,8.758,16.115,16.115,0,0,1-6.246,6.154,5.375,5.375,0,0,0-.883-1.209A10.653,10.653,0,0,0,244.094.155a14.022,14.022,0,0,0,5.735-5.425,20.142,20.142,0,0,0,2.434-6.9,74.151,74.151,0,0,0,.7-8.789h-7.843v-2.821h26.939v2.821Zm34.875-4.216a5.142,5.142,0,0,0-.031.62,7.873,7.873,0,0,1-.062.9,44.28,44.28,0,0,0,1.271,7.688A28.453,28.453,0,0,0,296-7.192a19.191,19.191,0,0,0,8.2,6.913,8.678,8.678,0,0,0-1.24,1.163A9.962,9.962,0,0,0,302,2.139,20.037,20.037,0,0,1,293.864-4.8a32.645,32.645,0,0,1-4.417-9.765,31.843,31.843,0,0,1-4.139,9.5,22.334,22.334,0,0,1-7.8,7.239A8.688,8.688,0,0,0,276.458.992a10.578,10.578,0,0,0-1.333-1.085,19.9,19.9,0,0,0,8-7.347,26.487,26.487,0,0,0,3.457-8.587,59.238,59.238,0,0,0,.945-8.308l.031-.837Zm34.255,14.663a9.574,9.574,0,0,0-.822-3.6,6.186,6.186,0,0,0-2-2.5,4.911,4.911,0,0,0-2.945-.914,75.755,75.755,0,0,1-.465,9.191,15.091,15.091,0,0,1-1.783,5.89,4.189,4.189,0,0,1-3.8,2.186,4.458,4.458,0,0,1-4.138-2.341,12.541,12.541,0,0,1-1.38-6.185,13.568,13.568,0,0,1,1.24-5.642,11.261,11.261,0,0,1,3.332-4.247,9.287,9.287,0,0,1,4.82-1.922q.372-.031,1.116-.031a10.036,10.036,0,0,1,5.115,1.255,8.693,8.693,0,0,1,3.395,3.612,13.375,13.375,0,0,1,1.379,5.58,14.008,14.008,0,0,1-1.008,5.6,10.592,10.592,0,0,1-3.084,4.309,7.583,7.583,0,0,1-4.681,1.752V-1.4a4.787,4.787,0,0,0,2.852-1.194,7.494,7.494,0,0,0,2.077-3.131A13.414,13.414,0,0,0,325.066-10.509ZM313.131-3.162q1.705.093,2.48-3.7a45.232,45.232,0,0,0,.775-8.944l-.031-1.674a5.694,5.694,0,0,0-2.93,1.6,8.78,8.78,0,0,0-2.046,3.178,10.775,10.775,0,0,0-.729,3.906,10.571,10.571,0,0,0,.636,4.061A2.223,2.223,0,0,0,313.131-3.162ZM359.2-22.227v2.759H333.374v-2.759h11.315v-3.782h2.976v3.782ZM343.573-10.788a31.823,31.823,0,0,0-3.472-2.883,19.437,19.437,0,0,1-4.96,5.3,10.752,10.752,0,0,0-1.085-.977q-.744-.6-1.24-.946a14.713,14.713,0,0,0,4.107-3.829,17.589,17.589,0,0,0,2.651-5.254l2.914.651a27.463,27.463,0,0,1-1.178,2.883,36.757,36.757,0,0,1,4,3.007ZM360.1-4.712H347.665v7.13h-2.976v-7.13H332.568V-7.471h12.121V-9.517h1.984a11.77,11.77,0,0,0-1.922-1.581,14.227,14.227,0,0,0,4.154-3.441,14.056,14.056,0,0,0,2.573-4.774l2.914.558A16.312,16.312,0,0,1,353-15.531q1.829,1.24,3.6,2.558a33.047,33.047,0,0,1,2.759,2.247l-2.015,2.139a49.38,49.38,0,0,0-5.828-4.681,17.62,17.62,0,0,1-3.875,3.751h.031v2.046H360.1Zm21.08-.031a24.484,24.484,0,0,0,4.852,2.558,29.369,29.369,0,0,0,5.658,1.659A8.684,8.684,0,0,0,390.662.667a12.782,12.782,0,0,0-.9,1.379,30.135,30.135,0,0,1-6.03-2.356,23.525,23.525,0,0,1-5.068-3.472V2.449h-2.821V-3.565a25.958,25.958,0,0,1-5.069,3.271,32.775,32.775,0,0,1-5.936,2.31,12.7,12.7,0,0,0-.883-1.3,9.2,9.2,0,0,0-1.008-1.147,32.3,32.3,0,0,0,5.626-1.736,24.155,24.155,0,0,0,4.82-2.573h-9.579V-7.161h12.028V-9.052H366.7v-2.17h9.145v-1.86H365.18v-2.294h6.355a13.614,13.614,0,0,0-1.3-2.821l.744-.124H363.94v-2.418h4.588a16.875,16.875,0,0,0-.977-2.062q-.636-1.163-1.286-2.123l2.511-.837a24.155,24.155,0,0,1,1.457,2.278,13.354,13.354,0,0,1,1.023,2.155l-1.581.589h3.41v-5.3h2.7v5.3h3.069v-5.3h2.728v5.3h3.348l-1.178-.372q.589-.992,1.209-2.294a22.36,22.36,0,0,0,.961-2.294l2.976.744a49.1,49.1,0,0,1-2.573,4.216h4.464v2.418H384.8q-.589,1.085-1.736,2.945h6.572v2.294H378.665v1.86h9.517v2.17h-9.517v1.891h12.214v2.418Zm-7.967-13.578a12.117,12.117,0,0,1,1.333,2.759l-.9.186h6.541a27.842,27.842,0,0,0,1.364-2.945ZM422.127-1.3v2.79H394.6V-1.3h12.276v-7.13H398.04v-2.759h8.835v-6.2h-6.882a26.549,26.549,0,0,1-3.069,4.805,12.437,12.437,0,0,0-1.24-.9q-.806-.527-1.395-.837A19.244,19.244,0,0,0,397.56-19.2a34.995,34.995,0,0,0,2.34-6.34l2.976.682a48.012,48.012,0,0,1-1.612,4.65h5.611v-5.766h2.976v5.766h10.788v2.821H409.851v6.2h9.641v2.759h-9.641V-1.3Zm7.688-6.324a4.691,4.691,0,0,1,2.434.651A4.832,4.832,0,0,1,434-5.193a4.8,4.8,0,0,1,.651,2.434A4.716,4.716,0,0,1,434-.341a4.867,4.867,0,0,1-1.751,1.767,4.691,4.691,0,0,1-2.434.651,4.716,4.716,0,0,1-2.418-.651,4.952,4.952,0,0,1-1.783-1.767,4.632,4.632,0,0,1-.667-2.418,4.632,4.632,0,0,1,.667-2.418A5.078,5.078,0,0,1,427.4-6.96,4.632,4.632,0,0,1,429.815-7.626Zm0,7.843a2.87,2.87,0,0,0,2.108-.868,2.87,2.87,0,0,0,.868-2.108,2.87,2.87,0,0,0-.868-2.108,2.87,2.87,0,0,0-2.108-.868,2.87,2.87,0,0,0-2.108.868,2.87,2.87,0,0,0-.868,2.108,2.87,2.87,0,0,0,.868,2.108A2.87,2.87,0,0,0,429.815.217ZM29.047,32.517v2.759H12.369A37.572,37.572,0,0,1,8.68,41.507v14.88H5.8V44.855a24.782,24.782,0,0,1-3.224,2.7q-.248-.589-.667-1.4a12.607,12.607,0,0,0-.76-1.3,24.8,24.8,0,0,0,7.967-9.579H1.984V32.517h8.37a34.469,34.469,0,0,0,1.519-4.557l3.007.744q-.682,2.108-1.333,3.813ZM21.235,45.01v8h7.781v2.7H10.509v-2.7h7.812v-8H11.687V42.344h6.634v-5.58h2.914v5.58h6.6V45.01Zm14.942-4.9h-2.7v-7.1h4.464a13.4,13.4,0,0,0-1.069-1.8q-.666-.961-1.348-1.767l2.48-1.116A22.757,22.757,0,0,1,39.7,30.455a11.549,11.549,0,0,1,1.194,2.031l-1.116.527h5.735a15.584,15.584,0,0,0-.915-2.062q-.6-1.162-1.255-2.185l2.511-.93a18.285,18.285,0,0,1,1.488,2.34,14.645,14.645,0,0,1,1.023,2.247l-1.519.589H52.08q.806-1.054,1.643-2.4a27.371,27.371,0,0,0,1.364-2.434l3.038.961q-1.333,1.953-2.883,3.875h4.495v7.1H56.885V35.555H36.177Zm24.025,7.9H47.988v5.177a3.8,3.8,0,0,1-.372,1.86,2.226,2.226,0,0,1-1.3.961,8.893,8.893,0,0,1-2.154.357q-1.286.077-3.643.077a12.979,12.979,0,0,0-1.209-2.79q2.046.093,3.72.093l1.24-.031a1.2,1.2,0,0,0,.62-.155.571.571,0,0,0,.155-.465V48.017H32.953V45.351h12.09V43.212H46.5A22.868,22.868,0,0,0,50,40.887H38.223V38.376H52.762l.62-.155,1.86,1.395a23.962,23.962,0,0,1-3.317,2.9,28.34,28.34,0,0,1-3.937,2.433v.4H60.2Zm18.724-14.6H89.993V48.234H86.986V46.56h-8.06v9.858H75.919V46.56H67.89v1.829H65.007V33.416H75.919V28.022h3.007ZM67.89,43.739h8.029v-7.5H67.89Zm11.036,0h8.06v-7.5h-8.06Zm20.8-10.509a89.959,89.959,0,0,0-.806,10.912,81.176,81.176,0,0,0,1.023,11.222H96.875a87.614,87.614,0,0,1-.868-11.129,103.749,103.749,0,0,1,.775-11.005Zm13.95,1.364v2.883h-10.23V34.594ZM106.113,45.6a6.758,6.758,0,0,0-.418,1.472,8.744,8.744,0,0,0-.171,1.566,2.814,2.814,0,0,0,1.085,2.34,4.941,4.941,0,0,0,3.038.883,40.446,40.446,0,0,0,4.588-.248v2.976q-.341.062-1.426.124l-3.41.093a8.9,8.9,0,0,1-3.379-.744,6.326,6.326,0,0,1-2.418-1.813,4.28,4.28,0,0,1-.961-2.527A9.84,9.84,0,0,1,103.2,45.6Zm13.454-9.362a29.066,29.066,0,0,1,9.8-1.953,13.312,13.312,0,0,1,5.239.961,7.472,7.472,0,0,1,3.627,3.054,10,10,0,0,1,1.178,5.131,9.778,9.778,0,0,1-4.046,8.385q-4.046,2.961-11.95,3.023V51.954a19.361,19.361,0,0,0,6.572-.883,10.76,10.76,0,0,0,4.743-2.93,6.777,6.777,0,0,0,1.767-4.712,5.782,5.782,0,0,0-1.891-4.635q-1.891-1.628-5.859-1.627a15.39,15.39,0,0,0-4.107.542q-1.968.543-5.068,1.721Zm25.823,1.891V35.307h3.627q.4-2.015.527-3.1h3.007q-.372,2.046-.589,3.1h3.813v2.821h-4.247q-2.325,10.385-3.069,12.8h-3.1q2.387-8.618,3.162-12.8Zm12.958-2.883q1.116-.093,2.449-.093a30.678,30.678,0,0,1,3.844.217v2.852a31.448,31.448,0,0,0-3.41-.186v7.843a27.094,27.094,0,0,1,3.565,1.581v3.472a19.319,19.319,0,0,0-3.565-2.046V51.83a8.324,8.324,0,0,1-.171,1.938,3.613,3.613,0,0,1-.512,1.162,4.1,4.1,0,0,1-3.658,1.643,8.287,8.287,0,0,1-2.635-.4,5.058,5.058,0,0,1-2.635-1.86,5.459,5.459,0,0,1-.93-3.255,5.66,5.66,0,0,1,1.752-4.355,6.406,6.406,0,0,1,4.541-1.628,11.281,11.281,0,0,1,1.4.093Zm-1.829,18.538a2.368,2.368,0,0,0,1.286-.264,1.105,1.105,0,0,0,.48-.713,7.433,7.433,0,0,0,.093-1.38V48.048a6.627,6.627,0,0,0-1.3-.124,3.639,3.639,0,0,0-2.464.791,3.19,3.19,0,0,0-1.038,2.247A2.393,2.393,0,0,0,154.4,53.1,3.372,3.372,0,0,0,156.519,53.783ZM184.45,27.34h2.356v4.588H184.45Zm3.689,0H190.5v4.588h-2.356ZM170.872,37.694l2.7-.186,1.054-.062q.062-2.232.062-3.162l-.031-1.922h2.914q.031.62.031,2.015,0,1.86-.062,2.852h3.286a3.866,3.866,0,0,1,3.116,1.255,7.36,7.36,0,0,1,1.286,4.2q.248,2.666.248,4.712a14.014,14.014,0,0,1-1.085,6.138,4.019,4.019,0,0,1-3.751,2.263,13.152,13.152,0,0,1-3.317-.31V52.45a14.134,14.134,0,0,0,2.945.434,1.783,1.783,0,0,0,1.318-.511,2.461,2.461,0,0,0,.635-1.472,31.144,31.144,0,0,0,.279-4.526q0-1.488-.124-3.534a3.693,3.693,0,0,0-.682-2.124,2.07,2.07,0,0,0-1.643-.635h-1.271q-.31,0-1.426.062a62.479,62.479,0,0,1-1.178,8.541,53.456,53.456,0,0,1-2.108,7.177h-3.193a38.47,38.47,0,0,0,2.294-7.053,59.276,59.276,0,0,0,1.333-8.417q-2.015.155-3.627.341Zm17.3-4.4a37.963,37.963,0,0,1,3.317,11.036H188.2a33.155,33.155,0,0,0-3.255-11.036Zm9.579.093h12.9v2.976l-6.665,5.27a15.419,15.419,0,0,1,3.131-.341,7.634,7.634,0,0,1,2.418.31,5.7,5.7,0,0,1,3.162,2.31,8.029,8.029,0,0,1,1.116,4.231,7.479,7.479,0,0,1-4.092,6.882,11.464,11.464,0,0,1-5.084,1.178,10.676,10.676,0,0,1-2.976-.4,4.826,4.826,0,0,1-2.635-1.689,4.5,4.5,0,0,1-.992-2.868,3.48,3.48,0,0,1,.527-1.767A3.736,3.736,0,0,1,200.1,48a4.937,4.937,0,0,1,2.294-.512,6.777,6.777,0,0,1,1.116.093,6.147,6.147,0,0,1,2.992,1.472,10.107,10.107,0,0,1,2.154,3.116,4.42,4.42,0,0,0,1.566-1.705,4.75,4.75,0,0,0,.635-2.325,4.08,4.08,0,0,0-1.38-3.395,6.433,6.433,0,0,0-4.2-1.038,12.392,12.392,0,0,0-4.185.914,12.645,12.645,0,0,0-3.286,2.124L195.579,48.7V44.917l10.788-8.742q-1.054,0-1.953.031l-6.665.031Zm5.177,16.585a2.288,2.288,0,0,0-1.488.31,1.157,1.157,0,0,0-.527.992,1.78,1.78,0,0,0,.465,1.147,3.212,3.212,0,0,0,1.364.9,6.89,6.89,0,0,0,1.736.217,3.162,3.162,0,0,0,1.612-.31,5.552,5.552,0,0,0-1.286-2.247A3.465,3.465,0,0,0,202.926,49.97Zm30.008-22.63h2.356v4.588h-2.356Zm3.689,0h2.356v4.588h-2.356ZM219.7,38.5V35.648h4q.217-1.581.279-3.255h3.007q-.093,1.023-.372,3.255h4.34l-.031,2.852h-4.526q-.775,5.394-1.488,9.207t-1.674,7.967h-3.224q.961-3.751,1.844-8.277t1.535-8.9Zm11.005.992h.93q3.41-.062,4.464-.062l2.759.031v2.976q-1.209-.093-3.844-.093-1.023,0-4.247.062Zm.9,7.967a6.31,6.31,0,0,0-1.24,3.131q0,2.356,4.4,2.356,1.984,0,4.526-.186v2.945q-.155,0-1.132.077t-2.371.077q-1.209,0-2.511-.093a11.708,11.708,0,0,1-1.876-.232,6.913,6.913,0,0,1-1.473-.512,4.229,4.229,0,0,1-1.783-1.6,4.806,4.806,0,0,1-.573-2.465,5.914,5.914,0,0,1,.263-1.813,6.658,6.658,0,0,1,.853-1.689Zm27.4-6.944H252.65V37.663h6.355V32.3h2.914v5.363H265.3v2.852h-3.379v5.208a21.748,21.748,0,0,1-.7,5.875,16.542,16.542,0,0,1-1.968,4.449h-3.131a14.453,14.453,0,0,0,1.023-1.953,20.452,20.452,0,0,0,1.86-8.432Zm-9.3-7.409a89.774,89.774,0,0,0-.806,10.881,78.133,78.133,0,0,0,.992,11.253h-3.007q-.434-3.255-.651-5.8t-.248-5.332a96.714,96.714,0,0,1,.806-11.005Zm20.708,3.317V33.571h18.6v3.007a13.2,13.2,0,0,0-4.867,1.7q-5.394,3.1-6.324,6.882a8.245,8.245,0,0,0-.248,1.86,5.062,5.062,0,0,0,.434,2.108,4.693,4.693,0,0,0,1.876,2.092,7.15,7.15,0,0,0,3.022.977q1.023.093,1.829.093a18.216,18.216,0,0,0,2.666-.217v2.945a23.041,23.041,0,0,1-2.573.124q-.93,0-2.046-.062a9.34,9.34,0,0,1-5.611-2.2,7.4,7.4,0,0,1-2.573-5.766q0-.31.062-1.054a11.029,11.029,0,0,1,2.247-5.223,20.892,20.892,0,0,1,5.379-4.418Zm13.392,3.007h2.356v4.9h-2.356Zm3.689,0h2.356v4.9h-2.356Zm6.758-1.3V35.307h3.627q.4-2.015.527-3.1h3.007q-.372,2.046-.589,3.1h3.813v2.821H300.39q-2.325,10.385-3.069,12.8h-3.1q2.387-8.618,3.162-12.8Zm12.958-2.883q1.116-.093,2.449-.093a30.678,30.678,0,0,1,3.844.217v2.852a31.448,31.448,0,0,0-3.41-.186v7.843a27.093,27.093,0,0,1,3.565,1.581v3.472a19.319,19.319,0,0,0-3.565-2.046V51.83a8.323,8.323,0,0,1-.171,1.938,3.613,3.613,0,0,1-.511,1.162,4.1,4.1,0,0,1-3.658,1.643,8.287,8.287,0,0,1-2.635-.4,5.058,5.058,0,0,1-2.635-1.86,5.459,5.459,0,0,1-.93-3.255A5.66,5.66,0,0,1,301.3,46.7a6.406,6.406,0,0,1,4.542-1.628,11.281,11.281,0,0,1,1.395.093Zm-1.829,18.538a2.368,2.368,0,0,0,1.286-.264,1.105,1.105,0,0,0,.48-.713,7.435,7.435,0,0,0,.093-1.38V48.048a6.627,6.627,0,0,0-1.3-.124,3.64,3.64,0,0,0-2.465.791,3.19,3.19,0,0,0-1.038,2.247,2.393,2.393,0,0,0,.822,2.139A3.372,3.372,0,0,0,305.381,53.783Zm30.163-21.049-6.324,4.96a66.287,66.287,0,0,0-5.146,4.34q-.9.806-.9,1.333,0,.5,1.054,1.488,2.914,2.914,5.053,4.836,4.061,3.751,6.572,5.952h-4.588l-5.983-5.673-1.86-1.767a15.945,15.945,0,0,1-1.7-1.8,4.615,4.615,0,0,1-1.55-3.193A4.11,4.11,0,0,1,322,40.019l2.6-2.232q.651-.527,2.635-2.17,3.472-2.79,3.565-2.883ZM28.4,85.773v2.759H2.573V85.773H13.888V81.991h2.976v3.782ZM12.772,97.212A31.822,31.822,0,0,0,9.3,94.329a19.437,19.437,0,0,1-4.96,5.3,10.753,10.753,0,0,0-1.085-.976q-.744-.6-1.24-.946A14.713,14.713,0,0,0,6.122,93.88a17.589,17.589,0,0,0,2.651-5.255l2.914.651a27.464,27.464,0,0,1-1.178,2.883,36.76,36.76,0,0,1,4,3.007ZM29.3,103.288H16.864v7.13H13.888v-7.13H1.767v-2.759H13.888V98.483h1.984A11.77,11.77,0,0,0,13.95,96.9,14.227,14.227,0,0,0,18.1,93.461a14.056,14.056,0,0,0,2.573-4.774l2.914.558a16.311,16.311,0,0,1-1.4,3.224q1.829,1.24,3.6,2.557a33.046,33.046,0,0,1,2.759,2.248l-2.015,2.139a49.38,49.38,0,0,0-5.828-4.681,17.62,17.62,0,0,1-3.875,3.751h.031v2.046H29.3Zm21.08-.031a24.485,24.485,0,0,0,4.852,2.558,29.369,29.369,0,0,0,5.658,1.659,8.682,8.682,0,0,0-1.023,1.193,12.782,12.782,0,0,0-.9,1.38,30.135,30.135,0,0,1-6.029-2.356,23.525,23.525,0,0,1-5.069-3.472v6.231H45.043v-6.014a25.958,25.958,0,0,1-5.068,3.271,32.776,32.776,0,0,1-5.937,2.31,12.7,12.7,0,0,0-.884-1.3,9.2,9.2,0,0,0-1.007-1.147,32.3,32.3,0,0,0,5.626-1.736,24.155,24.155,0,0,0,4.821-2.573H33.015v-2.418H45.043V98.948H35.9v-2.17h9.145v-1.86H34.379V92.624h6.355a13.613,13.613,0,0,0-1.3-2.821l.744-.124H33.139V87.261h4.588A16.877,16.877,0,0,0,36.75,85.2q-.636-1.163-1.286-2.123l2.511-.837a24.154,24.154,0,0,1,1.457,2.279,13.353,13.353,0,0,1,1.023,2.154l-1.581.589h3.41v-5.3h2.7v5.3H48.05v-5.3h2.728v5.3h3.348l-1.178-.372q.589-.992,1.209-2.294a22.363,22.363,0,0,0,.961-2.294l2.976.744a49.1,49.1,0,0,1-2.573,4.216h4.464v2.418H54q-.589,1.085-1.736,2.945h6.572v2.294H47.864v1.86h9.517v2.17H47.864v1.891H60.078v2.418ZM42.408,89.679a12.118,12.118,0,0,1,1.333,2.759l-.9.186h6.541a27.842,27.842,0,0,0,1.364-2.945ZM89,98.638a16.547,16.547,0,0,1-5.022,6.665,26.862,26.862,0,0,0,8.153,2.728,8.87,8.87,0,0,0-.946,1.162,9.211,9.211,0,0,0-.79,1.318,25.376,25.376,0,0,1-8.742-3.565,29.945,29.945,0,0,1-9.207,3.6,13.872,13.872,0,0,0-.635-1.349,4.676,4.676,0,0,0-.759-1.1,27.4,27.4,0,0,0,8.339-2.852,18.156,18.156,0,0,1-3.1-3.379,22.5,22.5,0,0,1-3.286,2.387,12.228,12.228,0,0,0-.9-1.147,6.292,6.292,0,0,0-1.023-.992,21.626,21.626,0,0,0,4.092-2.743,18.859,18.859,0,0,0,3.255-3.519l-6.7.186-.248-2.6q1.178,0,4.774-.062,1.023-.837,1.767-1.519a30.329,30.329,0,0,0-2.619-2.356,37.064,37.064,0,0,0-3.085-2.263l1.736-1.86.682.434,1.116.744q.961-1.023,1.953-2.294t1.674-2.325L82,83.231q-2.6,3.069-4.278,4.712a23.376,23.376,0,0,1,2.356,2.015,61.165,61.165,0,0,0,5.27-5.7l2.573,1.426a95.664,95.664,0,0,1-8.06,7.626q4.8-.062,7.068-.124-.806-1.054-1.984-2.418L87.2,89.555a42.077,42.077,0,0,1,2.9,3.5,19.294,19.294,0,0,1,2,3.193l-2.387,1.395a18.971,18.971,0,0,0-1.209-2.17q-4.464.186-6.882.248a23.366,23.366,0,0,1-1.519,2.2h6.634l.5-.093ZM71.951,82.983a32.728,32.728,0,0,1-3.41,4.03A28.413,28.413,0,0,1,64.6,90.392q-.31-.5-.76-1.116a8.189,8.189,0,0,0-.791-.961,25.745,25.745,0,0,0,3.565-3.007,18.97,18.97,0,0,0,2.728-3.317Zm.62,6.324a34.405,34.405,0,0,1-2.511,3.875v17.329h-2.7V96.406a29.229,29.229,0,0,1-3.038,2.883q-.217-.465-.728-1.333a12.472,12.472,0,0,0-.853-1.3,26.284,26.284,0,0,0,4.045-3.72,24.288,24.288,0,0,0,3.24-4.526Zm5.549,10.912a15.5,15.5,0,0,0,3.5,3.6,13.682,13.682,0,0,0,3.565-3.689H78.182Zm17.453-7.471V89.865h4.743l.155-3.565h2.976l-.186,3.565h7.533v2.883h-7.657q-.093.868-.171,2.123t-.108,2.248h5.8V99.94H102.8q-.093,1.023-.093,1.922a6.834,6.834,0,0,0,1.069,4.294,4.238,4.238,0,0,0,3.488,1.317,4.375,4.375,0,0,0,3.209-1.116,4.33,4.33,0,0,0,1.131-3.224,19.535,19.535,0,0,0-.682-4.247h2.852a16.048,16.048,0,0,1,.775,4.557,7.219,7.219,0,0,1-1.426,4.526q-1.86,2.449-6.138,2.449-3.72,0-5.472-2.325a10.393,10.393,0,0,1-1.751-6.386q0-1.147.062-1.767H95.573V97.119h4.371q0-.4.031-.93l.062-1.054.124-2.387Zm24.645-1.271V88.625H125.3q.217-1.891.248-2.542h2.976a18.6,18.6,0,0,0-.341,2.542h11.067v2.852H128q-.093.93-.093,1.922l.031,1.581q.372-.093.961-.217a1.248,1.248,0,0,0,.341-.031,17.593,17.593,0,0,1,2.139-.155,10.621,10.621,0,0,1,3.069.4,7.564,7.564,0,0,1,3.844,2.5,7.381,7.381,0,0,1,1.581,4.572,9.78,9.78,0,0,1-.682,3.875,12.106,12.106,0,0,1-1.473,2.6,9.5,9.5,0,0,1-2,1.891h-4.185a15.087,15.087,0,0,0,3.906-4.014,8.3,8.3,0,0,0,1.457-4.387,4.318,4.318,0,0,0-2.728-4.185,25.528,25.528,0,0,1-3.844,8.649,9.085,9.085,0,0,1-2.635,2.48,6.169,6.169,0,0,1-2.945.992,3.687,3.687,0,0,1-.558.031,5.4,5.4,0,0,1-1.767-.31,3.959,3.959,0,0,1-2.2-2.093,8.085,8.085,0,0,1-.682-4.2,9.277,9.277,0,0,1,5.487-7.719V93.647l.062-2.17Zm8.587,12.648a25.054,25.054,0,0,0,1.627-3.379,23.483,23.483,0,0,0,1.039-3.5,7.163,7.163,0,0,0-1.178-.093,6.611,6.611,0,0,0-2.325.372A24.142,24.142,0,0,0,128.805,104.125Zm-3.782,2.883a1.919,1.919,0,0,0,.666-.109,2.9,2.9,0,0,0,.791-.542,15.433,15.433,0,0,1-.806-3.069q-.279-1.7-.465-4.557a7.306,7.306,0,0,0-1.8,1.922,6.834,6.834,0,0,0-1.023,2.666,6.166,6.166,0,0,0-.031.713,3.843,3.843,0,0,0,.558,2.17,1.848,1.848,0,0,0,1.643.837A2.568,2.568,0,0,0,125.023,107.008Zm20.057-14.88V89.307h3.627q.4-2.015.527-3.1h3.007q-.372,2.046-.589,3.1h3.813v2.821h-4.247q-2.325,10.385-3.069,12.8h-3.1q2.387-8.618,3.162-12.8Zm12.958-2.883q1.116-.093,2.449-.093a30.677,30.677,0,0,1,3.844.217v2.852a31.448,31.448,0,0,0-3.41-.186v7.843a27.1,27.1,0,0,1,3.565,1.581v3.472a19.319,19.319,0,0,0-3.565-2.046v2.945a8.324,8.324,0,0,1-.171,1.938,3.613,3.613,0,0,1-.512,1.162,4.1,4.1,0,0,1-3.658,1.643,8.287,8.287,0,0,1-2.635-.4,5.058,5.058,0,0,1-2.635-1.86,5.459,5.459,0,0,1-.93-3.255,5.66,5.66,0,0,1,1.752-4.355,6.406,6.406,0,0,1,4.541-1.628,11.281,11.281,0,0,1,1.4.093Zm-1.829,18.538a2.368,2.368,0,0,0,1.286-.263,1.105,1.105,0,0,0,.48-.713,7.433,7.433,0,0,0,.093-1.38v-3.379a6.628,6.628,0,0,0-1.3-.124,3.639,3.639,0,0,0-2.464.791,3.19,3.19,0,0,0-1.038,2.247,2.393,2.393,0,0,0,.821,2.139A3.372,3.372,0,0,0,156.209,107.783ZM170.283,92.5V89.648h4q.217-1.581.279-3.255h3.007q-.093,1.023-.372,3.255h4.34l-.031,2.852h-4.526q-.775,5.394-1.488,9.207t-1.674,7.967h-3.224q.961-3.751,1.844-8.277t1.535-8.9Zm11.005.992h.93q3.41-.062,4.464-.062l2.759.031v2.976q-1.209-.093-3.844-.093-1.023,0-4.247.062Zm.9,7.967a6.31,6.31,0,0,0-1.24,3.131q0,2.356,4.4,2.356,1.984,0,4.526-.186v2.945q-.155,0-1.132.077t-2.371.077q-1.209,0-2.511-.093a11.707,11.707,0,0,1-1.876-.232,6.913,6.913,0,0,1-1.473-.511,4.229,4.229,0,0,1-1.783-1.6,4.806,4.806,0,0,1-.573-2.465,5.914,5.914,0,0,1,.263-1.813,6.658,6.658,0,0,1,.853-1.689Zm30.473-3.968a9.575,9.575,0,0,0-.821-3.6,6.186,6.186,0,0,0-2-2.5,4.911,4.911,0,0,0-2.945-.914,75.755,75.755,0,0,1-.465,9.191,15.091,15.091,0,0,1-1.783,5.89,4.189,4.189,0,0,1-3.8,2.186,4.458,4.458,0,0,1-4.139-2.34,12.542,12.542,0,0,1-1.38-6.185,13.568,13.568,0,0,1,1.24-5.642,11.261,11.261,0,0,1,3.332-4.247,9.287,9.287,0,0,1,4.821-1.922q.372-.031,1.116-.031a10.036,10.036,0,0,1,5.115,1.256,8.692,8.692,0,0,1,3.395,3.611,13.375,13.375,0,0,1,1.379,5.58,14.009,14.009,0,0,1-1.007,5.6,10.592,10.592,0,0,1-3.085,4.309,7.583,7.583,0,0,1-4.681,1.751v-2.883a4.787,4.787,0,0,0,2.852-1.194,7.494,7.494,0,0,0,2.077-3.131A13.414,13.414,0,0,0,212.66,97.491Zm-11.935,7.347q1.705.093,2.48-3.7a45.231,45.231,0,0,0,.775-8.943l-.031-1.674a5.694,5.694,0,0,0-2.929,1.6,8.78,8.78,0,0,0-2.046,3.178,10.776,10.776,0,0,0-.729,3.906,10.571,10.571,0,0,0,.635,4.061A2.223,2.223,0,0,0,200.725,104.838Zm45.787-16.275-.062,1.426q-.341,6.479-.682,10.215a44.474,44.474,0,0,1-.806,5.719,6.9,6.9,0,0,1-1.147,2.79,3.717,3.717,0,0,1-1.24,1.023,4.841,4.841,0,0,1-1.612.4,18.084,18.084,0,0,1-2.015.093q-1.426,0-2.914-.093a7.091,7.091,0,0,0-.341-1.5,6.275,6.275,0,0,0-.682-1.472q2.046.186,4.712.186a3.016,3.016,0,0,0,.837-.093,1.414,1.414,0,0,0,.589-.372q.806-.744,1.318-4.294t.915-11.083h-9.7a28.015,28.015,0,0,1-2.914,10.664A21.1,21.1,0,0,1,222.3,110.6a8.274,8.274,0,0,0-1.023-1.225,11.686,11.686,0,0,0-1.209-1.1,19.709,19.709,0,0,0,7.812-7.455,23.243,23.243,0,0,0,2.728-9.316H221V88.563h9.765v-6.51H233.8v6.51Zm30.6,22.1a15,15,0,0,0-.93-2.108q-6.169.527-10.478.868l-4.743.4-.341-2.821q5.053-.31,7.75-.5v-4.588h-6.51V93.4h6.51V90.547l-6.975.465-.372-2.728,2.635-.124q.868-1.426,1.72-3.131a31.5,31.5,0,0,0,1.38-3.131l3.069.775q-1.457,2.728-3.1,5.363l1.984-.093q4.03-.217,5.363-.31a27.556,27.556,0,0,0-1.922-2.294l2.387-1.116a34.165,34.165,0,0,1,2.837,3.3,18.651,18.651,0,0,1,1.969,3.085l-2.573,1.24a14.02,14.02,0,0,0-1.023-1.829l-4.619.31V93.4h6.665v8.525h-6.665v4.4l3.565-.279q-.868-1.333-1.8-2.511l2.325-1.054a30.867,30.867,0,0,1,2.651,3.627,18.527,18.527,0,0,1,1.751,3.41Zm-16.895-14.26-.062,1.209q-.248,5.859-.589,8.386a6.887,6.887,0,0,1-.992,3.271,2.844,2.844,0,0,1-.9.759,3.342,3.342,0,0,1-1.209.294,16.74,16.74,0,0,1-1.984.093q-.558,0-1.8-.062a7.771,7.771,0,0,0-.294-1.442,6.293,6.293,0,0,0-.574-1.379,32.352,32.352,0,0,0,3.379.155,2.377,2.377,0,0,0,.682-.077.934.934,0,0,0,.434-.295,5.146,5.146,0,0,0,.667-2.34q.263-1.907.48-6.03h-3.906l-.186,1.426-2.542-.4q.31-1.829.574-4.557t.419-5.084h5.642V86.176h-6.138V83.6h8.866v9.331h-6.045l-.31,3.472Zm4.278,3.1h3.875V95.817h-3.875Zm10.54-3.689h-3.906v3.689h3.906ZM287.06,87.2q-.124,1.891-.186,3.968-.124,3.813-.186,8.339,0,2.046.108,3.286a5.282,5.282,0,0,0,.543,2.046,1.606,1.606,0,0,0,1.3.9,5.722,5.722,0,0,0,2.294-.651,7.781,7.781,0,0,0,1.953-1.271v3.255a8.716,8.716,0,0,1-4.4,1.8l-.465.031a3.4,3.4,0,0,1-3.162-1.907q-1.054-1.907-1.054-6.215,0-2.79.031-4.433,0-4.65.186-9.145Zm12.989,0a53.419,53.419,0,0,1,1.736,8.215,77.793,77.793,0,0,1,.527,9.765v1.953h-3.038q.031-4.681-.388-10.4a37.62,37.62,0,0,0-1.751-9.533Zm28.613,9.765a27.426,27.426,0,0,0,3.177,5.332,18.284,18.284,0,0,0,3.984,3.968,8.338,8.338,0,0,0-1.116,1.054,13.274,13.274,0,0,0-1.054,1.3,21.9,21.9,0,0,1-3.116-3.488,34.665,34.665,0,0,1-2.805-4.541v9.827h-2.914v-9.889a27.762,27.762,0,0,1-3.332,4.681,18.985,18.985,0,0,1-3.922,3.41,11.267,11.267,0,0,0-.915-1.194,8.14,8.14,0,0,0-1.038-1.038,17.468,17.468,0,0,0,4.7-3.906,23.623,23.623,0,0,0,3.612-5.518h-6.2V94.205h7.1V89.617h-5.983V86.858h5.983v-4.65h2.914v4.65H334.3v2.759h-6.572v4.588h7.688v2.759Zm-11.9,5.89h-5.952v2.418h-2.635V84.75h8.587ZM314.123,87.54h-3.317v12.524h3.317ZM350.982,89.9q-.155,2.6-.4,4.588h12.09a12.7,12.7,0,0,1-.093,1.333,85.554,85.554,0,0,1-.961,9.393,8.4,8.4,0,0,1-1.457,3.937,3.116,3.116,0,0,1-1.224.868,5.946,5.946,0,0,1-1.69.31q-.93.062-1.829.062-1.581,0-3.41-.093a5.241,5.241,0,0,0-.31-1.426,5.847,5.847,0,0,0-.682-1.395q2.511.217,5.177.217a3.981,3.981,0,0,0,.883-.077,1.389,1.389,0,0,0,.6-.326,5.673,5.673,0,0,0,1.1-2.945,64.519,64.519,0,0,0,.759-7.13h-9.424a21.987,21.987,0,0,1-3.208,7.859,16.5,16.5,0,0,1-6.65,5.534,7.713,7.713,0,0,0-.93-1.3,6.863,6.863,0,0,0-1.147-1.085,14.5,14.5,0,0,0,5.983-4.681,16.332,16.332,0,0,0,2.728-6.092,48.352,48.352,0,0,0,.9-7.549h-9.176V87.137H350.8v-5.27h2.945v5.27H366.2V89.9Zm23.653-2.666a89.959,89.959,0,0,0-.806,10.912,81.178,81.178,0,0,0,1.023,11.222h-3.069a87.61,87.61,0,0,1-.868-11.129,103.746,103.746,0,0,1,.775-11.005Zm13.95,1.364v2.883h-10.23V88.594ZM381.021,99.6a6.759,6.759,0,0,0-.419,1.473,8.743,8.743,0,0,0-.171,1.565,2.814,2.814,0,0,0,1.085,2.34,4.94,4.94,0,0,0,3.038.883,40.445,40.445,0,0,0,4.588-.248v2.976q-.341.062-1.426.124l-3.41.093a8.9,8.9,0,0,1-3.379-.744,6.326,6.326,0,0,1-2.418-1.813,4.28,4.28,0,0,1-.961-2.526,9.839,9.839,0,0,1,.558-4.123Z" transform="translate(731 6014)"/>
    <path id="キャッチ上のハイライト" d="M0,0H244V10H0Z" transform="translate(924 6010)" fill="#ff8c3c" style="mix-blend-mode: multiply;isolation: isolate"/>
  </g>
</svg>
