<svg xmlns="http://www.w3.org/2000/svg" width="449.043" height="140.66" viewBox="0 0 449.043 140.66">
  <g id="text06" transform="translate(-733 -3623.34)">
    <path id="パス_2970" data-name="パス 2970" d="M29.326-17.112V-14.6H6.572v2.387a43.106,43.106,0,0,1-.729,7.89A17.834,17.834,0,0,1,3.255,2.387,12.78,12.78,0,0,0,2.17,1.38,7.277,7.277,0,0,0,1.054.558a15.336,15.336,0,0,0,2.2-5.828,41.459,41.459,0,0,0,.558-6.944v-4.9h5.8a13.785,13.785,0,0,0-.573-1.767,18.973,18.973,0,0,0-.821-1.829l1.116-.279H3.441V-23.5H14.105V-26.04h2.883V-23.5H27.776v2.511h-4.4l.4.093L23-19.561q-.62,1.147-1.426,2.449Zm-18.29-3.875a16.067,16.067,0,0,1,.9,1.845,8.116,8.116,0,0,1,.527,1.72l-1.116.31h8.339l-.775-.248a29.507,29.507,0,0,0,1.426-3.627ZM19.468-.62h9.7V1.829H7.347V-.62h9.3V-4.03H9.889V-6.262h6.758V-9.114h-5.3A17.126,17.126,0,0,1,9.238-6.386q-.4-.31-1.1-.744a9.737,9.737,0,0,0-1.194-.651,12.931,12.931,0,0,0,2.279-2.775,16.845,16.845,0,0,0,1.658-3.457l2.573.589q-.4,1.085-.837,2.015h4.03V-13.95h2.821v2.542H27.4v2.294H19.468v2.852h7.1V-4.03h-7.1ZM43.586-23.9a35.589,35.589,0,0,1,2.341,3.611,17.218,17.218,0,0,1,1.534,3.364l-2.573,1.054a17.2,17.2,0,0,0-.682-1.736L32.519-16.9l-.248-2.759,2.356-.093q.744-1.488,1.457-3.224A31.014,31.014,0,0,0,37.2-26.1l3.007.682q-1.147,2.728-2.573,5.549l5.3-.248a31.889,31.889,0,0,0-1.767-2.852ZM52.08-12.4a7.466,7.466,0,0,1-2.527-.326,2.023,2.023,0,0,1-1.194-1.116,6.072,6.072,0,0,1-.341-2.309v-9.8H50.9v4.836a47.283,47.283,0,0,0,6.448-2.728l1.86,2.077A67.845,67.845,0,0,1,50.9-18.755v2.573q0,.775.279.992a2.287,2.287,0,0,0,1.24.217h4.216a1.218,1.218,0,0,0,.853-.248,1.7,1.7,0,0,0,.387-.93,17.813,17.813,0,0,0,.186-2.2,4.691,4.691,0,0,0,1.193.636,8.157,8.157,0,0,0,1.41.418,11.712,11.712,0,0,1-.542,3.022,2.641,2.641,0,0,1-1.131,1.457,4.35,4.35,0,0,1-2.108.418ZM45.353-.682A4.125,4.125,0,0,1,45.09.961a1.943,1.943,0,0,1-.915.93,4.583,4.583,0,0,1-1.6.387q-.945.078-2.619.078a11.378,11.378,0,0,0-.387-1.3A8.6,8.6,0,0,0,39-.248q2.077.093,3.007.031a.537.537,0,0,0,.4-.109A.607.607,0,0,0,42.5-.713V-3.658H36.8V2.387H34.1V-15.035H45.353ZM42.5-12.617H36.8v2.2h5.7ZM56.854-.341a1.247,1.247,0,0,0,.914-.294A2.062,2.062,0,0,0,58.2-1.721a20.374,20.374,0,0,0,.2-2.527,7.032,7.032,0,0,0,1.225.62,11.135,11.135,0,0,0,1.348.465A14.37,14.37,0,0,1,60.4.124a2.86,2.86,0,0,1-1.147,1.581A4.144,4.144,0,0,1,57.1,2.17H52.111A7.487,7.487,0,0,1,49.6,1.845,2.079,2.079,0,0,1,48.376.729a5.731,5.731,0,0,1-.357-2.279V-11.625h2.852v4.588a32.881,32.881,0,0,0,6.789-3.1l1.86,2.108A42.349,42.349,0,0,1,50.871-4.65v3.069a1.271,1.271,0,0,0,.295,1.008,2.406,2.406,0,0,0,1.317.233ZM36.8-5.859h5.7V-8.215H36.8Zm43-8.587a26.818,26.818,0,0,0,4.634,8.7A18.278,18.278,0,0,0,91.667-.31,10.274,10.274,0,0,0,90.5.946a9.115,9.115,0,0,0-.977,1.442,19.8,19.8,0,0,1-7.146-5.565,30.53,30.53,0,0,1-4.82-8.727A21.519,21.519,0,0,1,65.6,2.387a7.239,7.239,0,0,0-.977-1.271A11.1,11.1,0,0,0,63.4-.031a18.581,18.581,0,0,0,7.859-5.952,22.454,22.454,0,0,0,3.767-8.463H64.015v-2.976H75.547q.217-1.767.279-3.441t.093-4.03v-1.085H79.05q-.031,2.666-.109,4.6t-.326,3.952H91.109v2.976ZM101.215,1.891A47.734,47.734,0,0,0,97.96-1.721q-1.829-1.844-3.5-3.24L97-7.192q1.612,1.333,3.549,3.271t3.3,3.581ZM129.3-24.025h20.615V1.984h-3.069V.093h-14.6V2.108H129.3Zm17.546,2.914h-14.6v7.564h14.6Zm-14.6,18.29h14.6V-10.7h-14.6Zm40.548-11.625a26.817,26.817,0,0,0,4.634,8.7A18.278,18.278,0,0,0,184.667-.31,10.274,10.274,0,0,0,183.5.946a9.116,9.116,0,0,0-.977,1.442,19.8,19.8,0,0,1-7.145-5.565,30.53,30.53,0,0,1-4.821-8.727A21.519,21.519,0,0,1,158.6,2.387a7.239,7.239,0,0,0-.976-1.271A11.1,11.1,0,0,0,156.4-.031a18.581,18.581,0,0,0,7.858-5.952,22.454,22.454,0,0,0,3.767-8.463H157.015v-2.976h11.532q.217-1.767.279-3.441t.093-4.03v-1.085h3.131q-.031,2.666-.109,4.6t-.326,3.952h12.493v2.976ZM194.215,1.891a47.737,47.737,0,0,0-3.255-3.612q-1.829-1.844-3.5-3.24L190-7.192q1.612,1.333,3.549,3.271t3.3,3.581Zm39.711-22.475h11.067V-5.766h-3.007V-7.44h-8.06V2.418h-3.007V-7.44H222.89v1.829h-2.883V-20.584h10.912v-5.394h3.007ZM222.89-10.261h8.029v-7.5H222.89Zm11.036,0h8.06v-7.5h-8.06ZM266.135-8.9Q269.483-2.015,278.1-.31A8.8,8.8,0,0,0,277.078.961a9.416,9.416,0,0,0-.806,1.4,19.082,19.082,0,0,1-7.766-3.7,18.065,18.065,0,0,1-4.914-6.618,14.945,14.945,0,0,1-4.262,6.076,23.151,23.151,0,0,1-8.385,4.34,9.361,9.361,0,0,0-.7-1.3,8.05,8.05,0,0,0-.915-1.24,21.7,21.7,0,0,0,7.518-3.689A12.7,12.7,0,0,0,260.71-8.9H249.674v-2.821h3.286V-21.855h8.9v-4.123h2.914v4.123h9.486v10.137h3.1V-8.9Zm-4.619-2.821a23.066,23.066,0,0,0,.341-4.34v-2.976h-5.983v7.316Zm3.255-4.309a28.974,28.974,0,0,1-.279,4.309h6.727v-7.316h-6.448Zm32.023,1.581a26.818,26.818,0,0,0,4.634,8.7A18.278,18.278,0,0,0,308.667-.31,10.276,10.276,0,0,0,307.5.946a9.114,9.114,0,0,0-.977,1.442,19.8,19.8,0,0,1-7.146-5.565,30.529,30.529,0,0,1-4.82-8.727A21.519,21.519,0,0,1,282.6,2.387a7.238,7.238,0,0,0-.977-1.271,11.1,11.1,0,0,0-1.225-1.147,18.582,18.582,0,0,0,7.859-5.952,22.454,22.454,0,0,0,3.766-8.463h-11v-2.976h11.532q.217-1.767.279-3.441t.093-4.03v-1.085h3.131q-.031,2.666-.108,4.6t-.326,3.952h12.493v2.976Zm15.717-1.426v-2.821h3.627q.4-2.015.527-3.1h3.007q-.372,2.046-.589,3.1H322.9v2.821h-4.247q-2.325,10.385-3.069,12.8h-3.1q2.387-8.618,3.162-12.8Zm12.958-2.883q1.116-.093,2.449-.093a30.677,30.677,0,0,1,3.844.217v2.852a31.447,31.447,0,0,0-3.41-.186v7.843a27.093,27.093,0,0,1,3.565,1.581v3.472a19.319,19.319,0,0,0-3.565-2.046V-2.17a8.323,8.323,0,0,1-.171,1.938A3.613,3.613,0,0,1,327.67.93a4.1,4.1,0,0,1-3.658,1.643,8.287,8.287,0,0,1-2.635-.4A5.058,5.058,0,0,1,318.742.31a5.459,5.459,0,0,1-.93-3.255A5.66,5.66,0,0,1,319.564-7.3a6.406,6.406,0,0,1,4.542-1.628,11.281,11.281,0,0,1,1.395.093ZM323.64-.217a2.368,2.368,0,0,0,1.286-.264,1.105,1.105,0,0,0,.48-.713,7.435,7.435,0,0,0,.093-1.38V-5.952a6.628,6.628,0,0,0-1.3-.124,3.64,3.64,0,0,0-2.465.79A3.19,3.19,0,0,0,320.7-3.038,2.393,2.393,0,0,0,321.517-.9,3.372,3.372,0,0,0,323.64-.217ZM349.091-26.66h2.356v4.588h-2.356Zm3.689,0h2.356v4.588H352.78Zm2.17,14.415Q348.1-12,344.534-10.292t-3.565,4.836a3.6,3.6,0,0,0,1.4,3.007,5.765,5.765,0,0,0,2.526,1.1,17.528,17.528,0,0,0,3.147.264q2.015,0,4.154-.124t2.759-.217V1.488a58.665,58.665,0,0,1-5.89.31,25.587,25.587,0,0,1-5.983-.527,6.6,6.6,0,0,1-3.8-2.48,7.039,7.039,0,0,1-1.38-4.309,6.348,6.348,0,0,1,1.24-3.937,13.831,13.831,0,0,1,3.6-3.162l-1.488-8.618h3.069l1.178,7.564a28.469,28.469,0,0,1,4.681-1.1q2.139-.294,4.774-.418ZM366.327,1.891a47.734,47.734,0,0,0-3.255-3.612q-1.829-1.844-3.5-3.24l2.542-2.232q1.612,1.333,3.549,3.271t3.3,3.581ZM8.308,54.4a10.226,10.226,0,0,1-4.278-.821A10.865,10.865,0,0,1,.837,51.365L2.542,49.04a9.726,9.726,0,0,0,2.4,1.782,6.275,6.275,0,0,0,2.93.667,4.325,4.325,0,0,0,3.255-1.317A4.9,4.9,0,0,0,12.4,46.622,4.943,4.943,0,0,0,11.222,43.1,4.129,4.129,0,0,0,8.06,41.848a5.046,5.046,0,0,0-1.8.294A10.056,10.056,0,0,0,4.4,43.15L2.666,42l.682-10.85H14.911v3.038H6.448L5.921,40.05a8.553,8.553,0,0,1,1.535-.6,5.976,5.976,0,0,1,1.6-.2,6.976,6.976,0,0,1,4.991,1.845A7.09,7.09,0,0,1,16,46.5a8.092,8.092,0,0,1-1.069,4.216,7.26,7.26,0,0,1-2.821,2.743A7.869,7.869,0,0,1,8.308,54.4ZM35.464,39.554a26.818,26.818,0,0,0,4.635,8.7,18.278,18.278,0,0,0,7.238,5.44,10.274,10.274,0,0,0-1.162,1.256,9.115,9.115,0,0,0-.976,1.442,19.8,19.8,0,0,1-7.146-5.565,30.53,30.53,0,0,1-4.82-8.726A21.519,21.519,0,0,1,21.266,56.387a7.239,7.239,0,0,0-.976-1.271,11.1,11.1,0,0,0-1.225-1.147,18.581,18.581,0,0,0,7.858-5.952,22.454,22.454,0,0,0,3.767-8.463H19.685V36.578H31.217q.217-1.767.279-3.441t.093-4.03V28.022H34.72q-.031,2.666-.108,4.6t-.326,3.952H46.779v2.976Zm18.383.558h-2.7v-7.1h4.464a13.4,13.4,0,0,0-1.069-1.8q-.666-.961-1.348-1.767l2.48-1.116a22.757,22.757,0,0,1,1.689,2.124,11.549,11.549,0,0,1,1.194,2.031l-1.116.527h5.735a15.584,15.584,0,0,0-.915-2.062q-.6-1.162-1.255-2.185l2.511-.93a18.285,18.285,0,0,1,1.488,2.34,14.645,14.645,0,0,1,1.023,2.247l-1.519.589H69.75q.806-1.054,1.643-2.4a27.373,27.373,0,0,0,1.364-2.434l3.038.961q-1.333,1.953-2.883,3.875h4.495v7.1H74.555V35.555H53.847Zm24.025,7.9H65.658v5.177a3.8,3.8,0,0,1-.372,1.86,2.226,2.226,0,0,1-1.3.961,8.893,8.893,0,0,1-2.154.357q-1.286.077-3.643.077a12.979,12.979,0,0,0-1.209-2.79q2.046.093,3.72.093l1.24-.031a1.2,1.2,0,0,0,.62-.155.571.571,0,0,0,.155-.465V48.017H50.623V45.351h12.09V43.212H64.17a22.868,22.868,0,0,0,3.5-2.325H55.893V38.376H70.432l.62-.155,1.86,1.395a23.961,23.961,0,0,1-3.317,2.9,28.34,28.34,0,0,1-3.937,2.433v.4H77.872Zm4.9-10.323,2.7-.186,1.054-.062q.062-2.232.062-3.162l-.031-1.922h2.914q.031.62.031,2.015,0,1.86-.062,2.852h3.286a3.866,3.866,0,0,1,3.116,1.255,7.36,7.36,0,0,1,1.286,4.2q.248,2.666.248,4.712a14.014,14.014,0,0,1-1.085,6.138A4.019,4.019,0,0,1,92.535,55.8a13.152,13.152,0,0,1-3.317-.31V52.45a14.133,14.133,0,0,0,2.945.434,1.783,1.783,0,0,0,1.317-.511,2.461,2.461,0,0,0,.635-1.472,31.145,31.145,0,0,0,.279-4.526q0-1.488-.124-3.534a3.693,3.693,0,0,0-.682-2.124,2.07,2.07,0,0,0-1.643-.635H90.675q-.31,0-1.426.062a62.48,62.48,0,0,1-1.178,8.541,53.453,53.453,0,0,1-2.108,7.177H82.77a38.469,38.469,0,0,0,2.294-7.053A59.275,59.275,0,0,0,86.4,40.391q-2.015.155-3.627.341Zm17.3-4.4a37.964,37.964,0,0,1,3.317,11.036H100.1a33.155,33.155,0,0,0-3.255-11.036Zm10.881-.465q1.364-.093,2.7-.093a63.912,63.912,0,0,1,8.091.589v2.914a48.208,48.208,0,0,0-7.688-.62q-.868,0-3.1.062ZM108.5,47.645V39.4h2.914v5.115a12.04,12.04,0,0,1,6.479-2.79q.31-.031.93-.031a7.726,7.726,0,0,1,3.5.775,6.544,6.544,0,0,1,3.689,6.262,6.323,6.323,0,0,1-2.511,5.441q-2.511,1.844-7.44,1.844a36.591,36.591,0,0,1-5.487-.465V52.636a33.488,33.488,0,0,0,5.549.5,11.2,11.2,0,0,0,4.154-.589,4.544,4.544,0,0,0,2.092-1.519,3.871,3.871,0,0,0,.729-2.356,3.734,3.734,0,0,0-1.349-3.038,5.146,5.146,0,0,0-3.395-1.116,6.6,6.6,0,0,0-1.085.093,7.7,7.7,0,0,0-2.619.883,25.292,25.292,0,0,0-2.589,1.689,4.849,4.849,0,0,1-.62.465Zm26.2-12.214a13.5,13.5,0,0,0-1.814-2.589,29.108,29.108,0,0,0-2.589-2.681l2.294-1.457a31.147,31.147,0,0,1,2.65,2.589,14.729,14.729,0,0,1,1.907,2.5ZM144.46,31H138.2V29.076h8.711v5.549h-5.828v1.147q0,.465.186.589a1.875,1.875,0,0,0,.868.124h2.945q.527,0,.682-.233a2.858,2.858,0,0,0,.217-1.132,3.878,3.878,0,0,0,.93.465,6.333,6.333,0,0,0,1.147.31,3.376,3.376,0,0,1-.759,2.031,2.729,2.729,0,0,1-1.907.542h-3.534a6.323,6.323,0,0,1-1.968-.232,1.525,1.525,0,0,1-.93-.791,3.99,3.99,0,0,1-.264-1.643V32.672h5.766Zm10.013,0h-6.262V29.076h8.773v5.549h-5.8v1.147q0,.465.2.589a2.093,2.093,0,0,0,.915.124h3.131a.776.776,0,0,0,.7-.264,2.979,2.979,0,0,0,.233-1.193,6.033,6.033,0,0,0,2.077.806,3.437,3.437,0,0,1-.775,2.077,2.738,2.738,0,0,1-1.922.558h-3.782a6.346,6.346,0,0,1-1.953-.232,1.575,1.575,0,0,1-.961-.806,3.9,3.9,0,0,1-.279-1.659v-3.1h5.7Zm3.813,14.477v2.2H137.7v-2.2H143V42.933h-4.34V40.794H143V38.81h2.728v1.984H150.1V38.81h2.759v1.984h4.464v2.139h-4.464v2.542Zm-21.762,4.464q1.922,3.131,7.316,3.317,1.178.062,4.464.062,6.479,0,10.478-.279-.248.558-.512,1.348a8.8,8.8,0,0,0-.357,1.379q-3.875.155-9.083.155-2.294,0-4.96-.062a14.836,14.836,0,0,1-5.037-.977,8.454,8.454,0,0,1-3.457-2.619q-1.953,2.015-4,3.875l-1.457-2.728a48.937,48.937,0,0,0,3.937-3.224v-7.5h-3.534V40.019h6.2Zm9.207-7.006v2.542H150.1V42.933Zm.9,5.7a17.491,17.491,0,0,1-2.79,2.092,29.817,29.817,0,0,1-3.379,1.813q-.372-.372-1.007-.915a12.093,12.093,0,0,0-1.1-.852,27.842,27.842,0,0,0,3.239-1.41,13.577,13.577,0,0,0,2.5-1.6Zm8.463,3.968a19.878,19.878,0,0,0-2.4-1.783q-1.5-.976-3.053-1.782l2.046-1.24q1.736.806,3.487,1.813a25.758,25.758,0,0,1,2.837,1.845Zm17.639-8.556-4.216,1.023v8.06a4.439,4.439,0,0,1-.294,1.813,2.019,2.019,0,0,1-1.008.977,6.062,6.062,0,0,1-1.751.388q-1.1.108-2.992.108a5.49,5.49,0,0,0-.279-1.3,8.491,8.491,0,0,0-.558-1.364q1.8.062,2.449.062l1.023-.031a.845.845,0,0,0,.48-.155.661.661,0,0,0,.139-.5V45.723q-1.333.341-4.123.961l-.682-2.79q1.333-.248,4.8-.961V36.764h-4.34V34.1h4.34V27.991h2.79V34.1h4v2.666h-4v5.549q1.922-.4,3.968-.9Zm10.075-1.581a23.707,23.707,0,0,0,2.743,7.115,11.269,11.269,0,0,0,4.6,4.387,7.161,7.161,0,0,0-1.085,1.162,10.8,10.8,0,0,0-.93,1.38,13.573,13.573,0,0,1-5.193-5.379,29.964,29.964,0,0,1-2.992-8.665h-3.224q-.434,9.486-4.774,13.981A8.978,8.978,0,0,0,170.9,55.38a7.492,7.492,0,0,0-1.147-.884,13.047,13.047,0,0,0,3.348-6.262,36.954,36.954,0,0,0,.806-8.06V29.727h14.6V42.468Zm2.821-10.013h-8.835v7.316h8.835Zm19.623,10.85a10.445,10.445,0,0,0-2.34-1.845,5.484,5.484,0,0,0-2.62-.573,5.064,5.064,0,0,0-3.069,1.054,8.311,8.311,0,0,0-2.387,2.883l-2.728-1.488a11.353,11.353,0,0,1,3.611-4.139,8.158,8.158,0,0,1,4.6-1.41,8.571,8.571,0,0,1,3.8.821,12.406,12.406,0,0,1,3.363,2.527,10.445,10.445,0,0,0,2.34,1.845,5.484,5.484,0,0,0,2.62.574,5.064,5.064,0,0,0,3.069-1.054,8.311,8.311,0,0,0,2.387-2.883l2.728,1.488a11.353,11.353,0,0,1-3.612,4.139,8.158,8.158,0,0,1-4.6,1.41,8.571,8.571,0,0,1-3.8-.821A12.406,12.406,0,0,1,205.251,43.305Zm46.531,2.2h-4.867V56.418h-2.852V45.506h-4.991a18.867,18.867,0,0,1-1.705,6.278A12.707,12.707,0,0,1,233.12,56.7a7.315,7.315,0,0,0-.9-1.116,8.941,8.941,0,0,0-1.085-.992,9.726,9.726,0,0,0,3.674-3.937,15.044,15.044,0,0,0,1.41-5.146h-4.8V42.747h4.929v-5.58h-4.123V34.439h4.867a18.141,18.141,0,0,0-1.023-2.557,28.643,28.643,0,0,0-1.519-2.806l2.48-.992a30.009,30.009,0,0,1,1.674,2.806,12.882,12.882,0,0,1,1.054,2.5l-2.418,1.054h8.339l-2.139-.9q.744-1.209,1.519-2.806a29.033,29.033,0,0,0,1.209-2.806l3.007,1.054a56.892,56.892,0,0,1-3.379,5.456H251.1v2.728h-4.185v5.58h4.867ZM232.934,28.921A48.493,48.493,0,0,1,229.9,35.09V56.356h-2.728V39.244a38.557,38.557,0,0,1-3.038,3.6q-.217-.5-.729-1.442t-.852-1.472a27.986,27.986,0,0,0,4.34-5.3,35.169,35.169,0,0,0,3.348-6.572ZM239.2,42.747h4.867v-5.58H239.2Zm40.641-9.176a17.8,17.8,0,0,1-3.844,4.96,23.789,23.789,0,0,0,7.254,2.418q-.4.5-.868,1.178a10.517,10.517,0,0,0-.713,1.178,24.263,24.263,0,0,1-7.75-3.193,26.9,26.9,0,0,1-7.471,3.441,7.078,7.078,0,0,0-.635-.977,12.5,12.5,0,0,0-.884-1.069v9.827h-2.511V31.742h2.511v4.123a18.632,18.632,0,0,0,3.069-3.565,20.556,20.556,0,0,0,2.232-4.34l2.635.651a22.817,22.817,0,0,1-1.209,2.635h10.6v2.325Zm-17.3-4.681q-1.054,3.069-2.387,6.045V56.418h-2.728V39.988a32,32,0,0,1-2.48,3.441q-.186-.527-.651-1.519a13.4,13.4,0,0,0-.806-1.519,29.674,29.674,0,0,0,3.612-5.5,40.4,40.4,0,0,0,2.775-6.743Zm7.75,4.712a14.061,14.061,0,0,0,3.472,3.534,13.217,13.217,0,0,0,3.069-3.565h-6.51Zm-5.363,7.657a23.728,23.728,0,0,0,6.851-2.728,18.019,18.019,0,0,1-2.852-3.038,23.047,23.047,0,0,1-2.294,2.449,17.309,17.309,0,0,0-1.705-1.364ZM276.52,42.9a14.926,14.926,0,0,1-3.488,2.511,26.44,26.44,0,0,1-4.418,1.891,9.607,9.607,0,0,0-1.581-1.674,25.132,25.132,0,0,0,4.154-1.55A11.8,11.8,0,0,0,274.35,42Zm2.914,2.852a15.193,15.193,0,0,1-4.5,3.3,31.909,31.909,0,0,1-6.138,2.31,9.972,9.972,0,0,0-1.426-1.86,31.607,31.607,0,0,0,5.781-1.907,13,13,0,0,0,4.139-2.712Zm2.945,3.6q-4.216,4.991-15.159,6.944a10.44,10.44,0,0,0-.667-1.178,7.784,7.784,0,0,0-.822-1.085,39.265,39.265,0,0,0,8.525-2.108,14.147,14.147,0,0,0,5.642-3.6ZM287.8,32.176h2.914V49.195a5.486,5.486,0,0,0,.651,3.1,2.941,2.941,0,0,0,2.294,1.023,10.015,10.015,0,0,0,3.968-.93,27,27,0,0,0,3.363-1.736,39.047,39.047,0,0,0,3.271-2.17v3.41a31.514,31.514,0,0,1-3.007,2.077,15.771,15.771,0,0,1-7.409,2.263,5.8,5.8,0,0,1-4.542-1.829,8.011,8.011,0,0,1-1.5-5.3Zm22.041,4.247V33.571h18.6v3.007a13.2,13.2,0,0,0-4.867,1.7q-5.394,3.1-6.324,6.882a8.245,8.245,0,0,0-.248,1.86,5.062,5.062,0,0,0,.434,2.108,4.693,4.693,0,0,0,1.876,2.092,7.15,7.15,0,0,0,3.022.977q1.023.093,1.829.093a18.216,18.216,0,0,0,2.666-.217v2.945a23.041,23.041,0,0,1-2.573.124q-.93,0-2.046-.062a9.34,9.34,0,0,1-5.611-2.2,7.4,7.4,0,0,1-2.573-5.766q0-.31.062-1.054a11.029,11.029,0,0,1,2.247-5.223,20.892,20.892,0,0,1,5.379-4.418ZM17.794,93.554a26.818,26.818,0,0,0,4.635,8.7,18.278,18.278,0,0,0,7.238,5.441,10.274,10.274,0,0,0-1.162,1.256,9.116,9.116,0,0,0-.976,1.441,19.8,19.8,0,0,1-7.146-5.564A30.53,30.53,0,0,1,15.562,96.1,21.519,21.519,0,0,1,3.6,110.387a7.239,7.239,0,0,0-.977-1.271A11.1,11.1,0,0,0,1.4,107.969a18.581,18.581,0,0,0,7.858-5.952,22.454,22.454,0,0,0,3.767-8.463H2.015V90.578H13.547q.217-1.767.279-3.441t.093-4.03V82.022H17.05q-.031,2.666-.108,4.6t-.326,3.952H29.109v2.976Zm41.6-7.781v2.759H33.573V85.773H44.888V81.991h2.976v3.782ZM43.772,97.212A31.823,31.823,0,0,0,40.3,94.329a19.437,19.437,0,0,1-4.96,5.3,10.753,10.753,0,0,0-1.085-.976q-.744-.6-1.24-.946a14.713,14.713,0,0,0,4.108-3.828,17.589,17.589,0,0,0,2.651-5.255l2.914.651a27.464,27.464,0,0,1-1.178,2.883,36.76,36.76,0,0,1,4,3.007ZM60.3,103.288H47.864v7.13H44.888v-7.13H32.767v-2.759H44.888V98.483h1.984A11.77,11.77,0,0,0,44.95,96.9,14.227,14.227,0,0,0,49.1,93.461a14.056,14.056,0,0,0,2.573-4.774l2.914.558a16.311,16.311,0,0,1-1.4,3.224q1.829,1.24,3.6,2.557a33.046,33.046,0,0,1,2.759,2.248l-2.015,2.139a49.38,49.38,0,0,0-5.828-4.681,17.62,17.62,0,0,1-3.875,3.751h.031v2.046H60.3Zm16.926-17.05a15.506,15.506,0,0,1-2.635,2.573,7.32,7.32,0,0,0-1.038-.775,8.616,8.616,0,0,0-1.132-.62,12.818,12.818,0,0,0,2.79-2.527,12.1,12.1,0,0,0,1.8-2.9l2.6.4a15.439,15.439,0,0,1-.961,1.767H88.6l.434-.093,1.922.5a26.562,26.562,0,0,1-1.457,2.5,14.079,14.079,0,0,1-1.55,2l-2.263-.713a14.682,14.682,0,0,0,1.55-2.108H82.956a5.9,5.9,0,0,0,2.48,3.193,15.366,15.366,0,0,0,6.231,1.86,7.481,7.481,0,0,0-.837,1.132,6.488,6.488,0,0,0-.62,1.225q-1.178-.217-2.387-.527v12.307H67.611V92.965h6.231a7.9,7.9,0,0,0-.589-1.023,5.781,5.781,0,0,0-.682-.868,13.5,13.5,0,0,0,5.255-1.72,5.429,5.429,0,0,0,2.216-3.116Zm-5.859.837A26.7,26.7,0,0,0,68.4,85.757q-1.875-.728-3.518-1.225l1.271-1.953q1.581.4,3.472,1.069a27.13,27.13,0,0,1,3.007,1.225Zm1.085,3.472q-2.294.775-5.549,1.736L64.573,93l-1.147-2.542q2.139-.434,8.742-2.17Zm14.88,2.418a11.475,11.475,0,0,1-3.549-1.7A8.014,8.014,0,0,1,81.654,88.9a7.288,7.288,0,0,1-2.542,2.434,15.848,15.848,0,0,1-4.371,1.627ZM84.94,96.53V94.794H70.4V96.53Zm0,3.5V98.266H70.4v1.767Zm0,3.565v-1.8H70.4v1.8ZM75.3,106.7a31.089,31.089,0,0,1-4.418,2.139,43.653,43.653,0,0,1-5.068,1.705,15.519,15.519,0,0,0-2.17-2.139,47,47,0,0,0,5.022-1.271,20.567,20.567,0,0,0,4-1.643Zm6.789-1.147q2.542.868,5.084,1.844t4.185,1.752l-3.317,1.364a39,39,0,0,0-3.674-1.736q-2.279-.961-4.634-1.767Zm38.6-19.561a22.418,22.418,0,0,1-4.836,8.153,20.928,20.928,0,0,0,7.378,3.813,10.117,10.117,0,0,0-.93,1.116,14.191,14.191,0,0,0-.868,1.3q-.682-.248-1.023-.4v10.385h-2.79V109.24h-7.657v1.209h-2.666v-10.23q-1.085.5-2.077.837a12.982,12.982,0,0,0-.744-1.209,7.785,7.785,0,0,0-.9-1.116l.186-.062q-.558-1.023-2.015-3.224v14.973h-2.7V97.026a29.417,29.417,0,0,1-3.689,7.812,11.34,11.34,0,0,0-1.4-2.573,22.9,22.9,0,0,0,2.774-4.991,37.75,37.75,0,0,0,2.031-6.138H94.674V88.47h4.371V81.991h2.7V88.47h3.782v1.674a22.184,22.184,0,0,0,3.1-3.751,21.876,21.876,0,0,0,2.263-4.433l2.759.744q-.5,1.24-1.178,2.573h5.89l.527-.124Zm-9.92,2.2a17.817,17.817,0,0,0,3.1,4.154,18.855,18.855,0,0,0,3.193-4.588h-6.014Zm-6.417,10.292a23.732,23.732,0,0,0,7.626-4.371,23.125,23.125,0,0,1-2.821-3.751,28.657,28.657,0,0,1-2.728,2.883,9.076,9.076,0,0,0-1.039-.992q-.7-.589-1.193-.93l.217-.186h-2.666V92.19q.961,1.054,3.379,4.03a2.756,2.756,0,0,0,.279.341,1.5,1.5,0,0,1,.186.217Zm14.167.62a23.569,23.569,0,0,1-4.588-3.1,25.222,25.222,0,0,1-4.433,3.1Zm-8.556,7.626h7.657v-5.177h-7.657Zm34.1-10.974q-6.851.248-10.416,1.953t-3.565,4.836a3.6,3.6,0,0,0,1.395,3.007,5.765,5.765,0,0,0,2.527,1.1,17.528,17.528,0,0,0,3.146.264q2.015,0,4.154-.124t2.759-.217v2.914a58.666,58.666,0,0,1-5.89.31,25.587,25.587,0,0,1-5.983-.527,6.6,6.6,0,0,1-3.8-2.48,7.039,7.039,0,0,1-1.38-4.309,6.348,6.348,0,0,1,1.24-3.937,13.831,13.831,0,0,1,3.6-3.162l-1.488-8.618h3.069l1.178,7.564a28.469,28.469,0,0,1,4.681-1.1q2.139-.295,4.774-.419Zm19.9-11h12.059v2.511H149.265V84.75h11.749V81.96h2.945Zm-9.641,4H171v6.479H154.318Zm13.764,4.5V90.733H157.108v2.511Zm6.882,13.95a4.248,4.248,0,0,1-.295,1.752,2,2,0,0,1-1.069.976,5.985,5.985,0,0,1-1.876.388q-1.132.077-3.24.077a7.613,7.613,0,0,0-.357-1.333,14.209,14.209,0,0,0-.542-1.333h-8.277v1.488H156.8v-8.184h11.718v6.7l1.55.031a10.69,10.69,0,0,0,1.364-.062.872.872,0,0,0,.512-.109.508.508,0,0,0,.139-.418V99.32H153.388v11.129h-2.821V96.9h24.4Zm-9.021-1.488v-2.635h-6.634v2.635Zm18.724-12.059q0,11.315-3.131,16.771a10.037,10.037,0,0,0-1.162-.883,7.984,7.984,0,0,0-1.194-.7,18.484,18.484,0,0,0,2.2-6.773,62.4,62.4,0,0,0,.527-8.416V84.9h11.16V81.991h3.007V84.9h11.284v2.573H184.667ZM202.4,97.894H190.154v-4.96h-4.588V90.578h4.588V88.222h2.728v2.356h6.7V88.222H202.4v2.356h4.743v2.356H202.4Zm-2.821-4.96h-6.7v2.728h6.7Zm5.7,7.44a14.866,14.866,0,0,1-5.766,6.014,40.865,40.865,0,0,0,8.4,1.643,7.477,7.477,0,0,0-.914,1.162,10.979,10.979,0,0,0-.76,1.318,34.6,34.6,0,0,1-9.827-2.573,40.619,40.619,0,0,1-10.54,2.542,11.241,11.241,0,0,0-.527-1.271,6.212,6.212,0,0,0-.682-1.147,41.956,41.956,0,0,0,8.866-1.7,16.838,16.838,0,0,1-4.278-4l1.395-.527h-4.743V99.506h17.081l.527-.093Zm-13.268,1.457a13,13,0,0,0,4.5,3.348,14.5,14.5,0,0,0,4.588-3.348Zm46.5,1.395h-6.851v4.309a3.644,3.644,0,0,1-.31,1.689,2.022,2.022,0,0,1-1.116.883,8.472,8.472,0,0,1-2,.326q-1.224.077-3.426.077a9.963,9.963,0,0,0-.387-1.271,12.7,12.7,0,0,0-.542-1.271q1.86.062,4.309.062a.9.9,0,0,0,.512-.155.56.56,0,0,0,.139-.434v-4.216H210.831v-2.449h18.011V98.7H213.807V88.47h9.331V86.7H211.575V84.254h11.563V82.022h2.821v2.232H237.8V86.7H225.959V88.47h9.672V98.7h-3.968v2.077h6.851ZM216.5,90.485v2.139h6.634V90.485Zm16.306,0h-6.851v2.139h6.851ZM216.5,94.546v2.108h6.634V94.546Zm16.306,2.108V94.546h-6.851v2.108Zm-12.8,12.493a14.531,14.531,0,0,0-1.984-2.17,30.337,30.337,0,0,0-2.635-2.2l2.17-1.55a33.3,33.3,0,0,1,2.682,2.092,16,16,0,0,1,2.061,2.062Zm34.286-25.823V94.856H245.83v15.562h-2.852V83.324Zm14.229,23.4a4.78,4.78,0,0,1-.357,2.077,2.321,2.321,0,0,1-1.224,1.085,8.409,8.409,0,0,1-2.2.419q-1.364.109-3.782.108a6.786,6.786,0,0,0-.372-1.472,10.048,10.048,0,0,0-.651-1.5q1.24.062,3.441.062h1.395a1.076,1.076,0,0,0,.635-.186.786.786,0,0,0,.171-.589V94.887h-8.742V83.324h11.687ZM251.6,85.742H245.83v2.2H251.6Zm13.981,0h-5.983v2.2h5.983ZM245.83,92.5H251.6V90.082H245.83Zm13.764.062h5.983v-2.48h-5.983Zm40.951,1.8h-12.4v11.656H298.9V108.9H274.567v-2.883h10.509V94.36H272.862V91.508h12.214V82.053h3.069v9.455h12.4Zm3.937-2.7V88.811h6.293a17.614,17.614,0,0,0,.9-3.038h3.1q-.279,1.085-.93,3.038h7.316v2.852h-8.184a20.365,20.365,0,0,1-1.55,3.069,6.019,6.019,0,0,1,2.418-.558,3.465,3.465,0,0,1,2.325.791,2.9,2.9,0,0,1,.992,2.186v.186q3.069-1.488,6.2-2.79V97.77a58.875,58.875,0,0,0-6.169,2.759v4.216h-2.821v-3.131l-1.023.62a3.182,3.182,0,0,0-.434.279,4.544,4.544,0,0,0-1.162,1.317,2.775,2.775,0,0,0-.388,1.349,1.821,1.821,0,0,0,.7,1.472,3.146,3.146,0,0,0,1.968.6l7.688-.062v2.883h-7.936a7.018,7.018,0,0,1-3.441-.961,3.913,3.913,0,0,1-1.8-2.325,3.784,3.784,0,0,1-.155-1.178,5.3,5.3,0,0,1,.837-2.774,7.578,7.578,0,0,1,2.325-2.371l2.852-1.891a2.975,2.975,0,0,0-.48-1.6,1.442,1.442,0,0,0-1.193-.48,4.656,4.656,0,0,0-1.953.511,7.26,7.26,0,0,0-2.139,1.628q-.682.713-4.247,4.681v-4.34q1.984-2.108,3.177-3.627a19.239,19.239,0,0,0,2.217-3.689Zm49.476,15.314a4.679,4.679,0,0,1-.326,1.938,2.1,2.1,0,0,1-1.07,1.039,6.051,6.051,0,0,1-1.953.449q-1.209.109-3.286.078a8.373,8.373,0,0,0-.388-1.426,9.187,9.187,0,0,0-.6-1.4q1.054.062,2.945.062h1.147a.884.884,0,0,0,.558-.186.783.783,0,0,0,.155-.558V86.238H331.142v24.273h-2.79v-27h25.606ZM348.9,89.028v2.449H333.4V89.028Zm-1.55,15.283H337.59v2.17h-2.666V94.329h12.431Zm-2.666-7.564h-7.1v5.146h7.1Zm38.13-2.79v3.1h3.317V99.6h-3.317v7.626a4.042,4.042,0,0,1-.31,1.767,1.963,1.963,0,0,1-1.054.93,5.944,5.944,0,0,1-1.86.388q-1.116.077-3.224.077a8.273,8.273,0,0,0-.357-1.317,11.565,11.565,0,0,0-.574-1.38q1.736.062,3.906.062a.9.9,0,0,0,.512-.155.561.561,0,0,0,.139-.434V99.6H368.714V97.057H380v-3.1H368.621V91.415H376V88h-6.2V85.494H376V81.96h2.883v3.534h6.386V88h-6.386v3.41h7.533v2.542ZM368.094,83.944v20.491h-6.448v2.6H358.98v-23.1Zm-2.728,2.6h-3.72v6.231h3.72Zm-3.72,15.314h3.72V95.321h-3.72Zm11.005-1.488a33.7,33.7,0,0,1,2.294,2.681,14.017,14.017,0,0,1,1.581,2.465l-2.449,1.488a14.215,14.215,0,0,0-1.535-2.573,28.539,28.539,0,0,0-2.216-2.728Zm43.927-13.888q-1.023,9.672-4.743,15.872a16.83,16.83,0,0,0,6.014,5.425,10.608,10.608,0,0,0-1.085,1.132,9.229,9.229,0,0,0-.9,1.225,19.4,19.4,0,0,1-5.828-5.208,20.76,20.76,0,0,1-5.921,5.146,10.879,10.879,0,0,0-.822-1.178,7.653,7.653,0,0,0-.977-1.054v2.542h-2.79v-5.3l-10.447,1.705-.527-2.883,1.4-.186,1.519-.186V86.517H389.2V83.851h15.19v2.232h9.827l.5-.093Zm-17.05.031h-5.3v3.6h5.3Zm2.79,21.173a17.6,17.6,0,0,0,6.014-5.394,43.8,43.8,0,0,1-4.4-12.741L406.72,89a38.544,38.544,0,0,0,3.348,10.478A33.971,33.971,0,0,0,413.416,88.9h-9.827V86.517h-1.271Zm-8.091-15v3.782h5.3V92.686Zm0,10.478,5.3-.744V99.072h-5.3Zm34.782-20a27.716,27.716,0,0,1-3.534,4.076,28.24,28.24,0,0,1-4.216,3.395q-.248-.5-.7-1.225a12.878,12.878,0,0,0-.79-1.162,26.363,26.363,0,0,0,3.673-2.914,16.649,16.649,0,0,0,2.775-3.255Zm17.2-.248V93.306H431.272V82.921ZM443.3,87.106V85.029h-9.238v2.077Zm-13.857,2.728a35.3,35.3,0,0,1-2.6,3.844v16.74h-2.79V96.871a35.394,35.394,0,0,1-3.255,3.007q-.217-.527-.667-1.472a10.982,10.982,0,0,0-.79-1.442,27.465,27.465,0,0,0,4.169-3.689,25.516,25.516,0,0,0,3.395-4.464ZM443.3,91.167V89.09h-9.238v2.077Zm4.743,11.036H443.61v5.239a4,4,0,0,1-.279,1.689,1.752,1.752,0,0,1-1.023.853,5.419,5.419,0,0,1-1.751.387q-1.038.077-2.96.077a10.646,10.646,0,0,0-.388-1.286q-.263-.728-.543-1.317,1.8.062,2.449.062l1.023-.031a.975.975,0,0,0,.465-.124.446.446,0,0,0,.124-.372V102.2H428.792v-2.48h11.935V97.46H429.536V95.073h17.918V97.46H443.61v2.263h4.433Zm-14.818.186q1.085.992,2.17,2.17a17.312,17.312,0,0,1,1.643,2.015l-2.17,1.55a16.534,16.534,0,0,0-1.581-2.092q-1.054-1.225-2.108-2.279Z" transform="translate(734 3650)"/>
    <path id="キャッチ上のハイライト" d="M0,0H303V10H0Z" transform="translate(733 3754)" fill="#ff8c3c" style="mix-blend-mode: multiply;isolation: isolate"/>
  </g>
</svg>
