<svg xmlns="http://www.w3.org/2000/svg" width="397.048" height="137.233" viewBox="0 0 397.048 137.233">
  <g id="text08" transform="translate(-732.24 -4805.34)">
    <path id="パス_2972" data-name="パス 2972" d="M14.136-19.716a23.6,23.6,0,0,1-3.1,4.681,10.038,10.038,0,0,0-1.162-.884,14.77,14.77,0,0,0-1.287-.791,17.8,17.8,0,0,0,2.93-4.108,24.656,24.656,0,0,0,2.062-5.223l2.852.62q-.4,1.364-1.085,3.1h14.1v2.6ZM7.75-20.243a13.141,13.141,0,0,0-2.2-1.736A29.964,29.964,0,0,0,2.7-23.653L4.309-25.73A25.029,25.029,0,0,1,7.254-24.2a11.989,11.989,0,0,1,2.232,1.658Zm-1.395,8A14.164,14.164,0,0,0,4.123-13.9,24.838,24.838,0,0,0,1.24-15.469l1.612-2.108a24.569,24.569,0,0,1,2.93,1.426A12.559,12.559,0,0,1,8.06-14.57ZM27.342-8.463q-.155,2.635-.31,4.092h2.759v2.48H26.722a7.405,7.405,0,0,1-.992,3.007,2.55,2.55,0,0,1-.945.868,4.132,4.132,0,0,1-1.318.341,11,11,0,0,1-1.581.093q-1.116,0-2.325-.093A5.7,5.7,0,0,0,19.329,1.1a4.925,4.925,0,0,0-.48-1.162q1.86.155,3.41.155A2.029,2.029,0,0,0,22.925,0a.905.905,0,0,0,.449-.372,3.827,3.827,0,0,0,.589-1.519H13.454L13.206-.465,10.447-.713Q11.1-4,11.749-8.463H8.959V-11.1H12.09q.434-3.007.744-6.2H27.776l-.062,1.271q-.031,1.3-.155,3.286,0,.589-.062,1.643h2.511v2.635ZM15.221-14.787,14.756-11.1h3.627q.248-2.666.341-3.689Zm9.61,3.689.186-3.689H21.2q-.093,1.333-.341,3.689ZM1.891.5Q2.976-1.457,4.278-4.2T6.572-9.486L8.866-7.874Q6.882-2.759,4.5,2.077ZM14.415-8.463l-.372,2.7q-.093.465-.217,1.395h3.813l.5-4.092Zm9.92,4.092q.217-1.891.341-4.092H20.615q-.248,2.48-.465,4.092Zm30.287-7.316a26.386,26.386,0,0,0,6.82,4.557,8.74,8.74,0,0,0-1.132,1.162A7.879,7.879,0,0,0,59.4-4.65a26.232,26.232,0,0,1-4.774-3.224V2.356H51.646V-10.7a34.121,34.121,0,0,1-4.247-5.58A34.389,34.389,0,0,1,42.532-4.9a23.229,23.229,0,0,1-7.6,7.13,10.1,10.1,0,0,0-1.116-1.194A6.765,6.765,0,0,0,32.612.093a21.57,21.57,0,0,0,8.8-8.587,36.861,36.861,0,0,0-5.332-4.03q-.837,1.085-1.829,2.139a12.784,12.784,0,0,0-1.163-.992q-.759-.589-1.255-.9a21.092,21.092,0,0,0,4.371-5.874,36.042,36.042,0,0,0,2.976-7.89l2.852.589a41.156,41.156,0,0,1-1.271,4.03H45.88l.527-.093,1.922.651-.465,2.635,1.116-.434a23.214,23.214,0,0,0,2.666,3.875V-25.978h2.976ZM39.649-18.693a30.35,30.35,0,0,1-2.077,3.968A38.98,38.98,0,0,1,42.749-11.1a33.694,33.694,0,0,0,2.294-7.6Zm24.8,4.247q1.116-.558,3.1-1.333l-.868-5.983h3.038q.062,1.116.263,2.527t.264,1.813a6.813,6.813,0,0,1,.124.806,20.221,20.221,0,0,1,4.557-.806,17.018,17.018,0,0,0-.9-4.495h3.038a16.982,16.982,0,0,1,.6,2.2,19.237,19.237,0,0,1,.295,2.356q6.882.93,6.882,6.479a7.44,7.44,0,0,1-.775,3.534A4.655,4.655,0,0,1,81.9-5.239a7.649,7.649,0,0,1-3.41.744,13.058,13.058,0,0,1-2.542-.279V-7.5A12.523,12.523,0,0,0,78-7.316q3.937,0,3.937-3.627a2.926,2.926,0,0,0-1.751-2.837,10.667,10.667,0,0,0-4.635-.852,16.452,16.452,0,0,0-4.743.868q.868,4.65,1.674,8.184t2.015,7.843H71.424q-1.953-7.13-3.441-15.19L64.449-11.16Zm39.742-11.687a34.328,34.328,0,0,0,6.076,6.758,32.957,32.957,0,0,0,7.347,4.9,13.683,13.683,0,0,0-1.922,2.573,45.221,45.221,0,0,1-7.239-5.255,33.6,33.6,0,0,1-5.6-6.092,32.372,32.372,0,0,1-5.285,6.092,40.7,40.7,0,0,1-7.239,5.378,9.3,9.3,0,0,0-.806-1.163A13.4,13.4,0,0,0,88.5-14.105a35.293,35.293,0,0,0,7.425-5.5,29.351,29.351,0,0,0,5.316-6.525Zm.527,18.073v7.037h11.408v2.6H89.962v-2.6H93.62V-12.152h2.821V-1.023h5.239V-17.608h3.038v6.944h8.587v2.6Zm33.17,3.317a24.485,24.485,0,0,0,4.852,2.558A29.369,29.369,0,0,0,148.4-.527,8.683,8.683,0,0,0,147.374.667a12.778,12.778,0,0,0-.9,1.379,30.135,30.135,0,0,1-6.03-2.356,23.526,23.526,0,0,1-5.068-3.472V2.449h-2.821V-3.565a25.957,25.957,0,0,1-5.068,3.271,32.776,32.776,0,0,1-5.937,2.31,12.7,12.7,0,0,0-.883-1.3A9.205,9.205,0,0,0,119.66-.434a32.3,32.3,0,0,0,5.626-1.736,24.155,24.155,0,0,0,4.82-2.573h-9.579V-7.161h12.028V-9.052h-9.145v-2.17h9.145v-1.86H121.892v-2.294h6.355a13.612,13.612,0,0,0-1.3-2.821l.744-.124h-7.037v-2.418h4.588a16.877,16.877,0,0,0-.976-2.062q-.636-1.163-1.287-2.123l2.511-.837a24.153,24.153,0,0,1,1.457,2.278,13.353,13.353,0,0,1,1.023,2.155l-1.581.589h3.41v-5.3h2.7v5.3h3.069v-5.3h2.728v5.3h3.348l-1.178-.372q.589-.992,1.209-2.294a22.364,22.364,0,0,0,.961-2.294l2.976.744a49.1,49.1,0,0,1-2.573,4.216H147.5v2.418h-5.983q-.589,1.085-1.736,2.945h6.572v2.294H135.377v1.86h9.517v2.17h-9.517v1.891h12.214v2.418Zm-7.967-13.578a12.118,12.118,0,0,1,1.333,2.759l-.9.186H136.9a27.839,27.839,0,0,0,1.364-2.945Zm39.649,6.076q-6.851.248-10.416,1.953t-3.565,4.836a3.6,3.6,0,0,0,1.395,3.007,5.765,5.765,0,0,0,2.527,1.1,17.528,17.528,0,0,0,3.146.264q2.015,0,4.154-.124t2.759-.217V1.488a58.665,58.665,0,0,1-5.89.31,25.586,25.586,0,0,1-5.983-.527,6.6,6.6,0,0,1-3.8-2.48,7.039,7.039,0,0,1-1.38-4.309,6.348,6.348,0,0,1,1.24-3.937,13.831,13.831,0,0,1,3.6-3.162l-1.488-8.618h3.069l1.178,7.564a28.469,28.469,0,0,1,4.681-1.1q2.139-.294,4.774-.418Zm5.89-5.518a29.066,29.066,0,0,1,9.8-1.953,13.312,13.312,0,0,1,5.239.961,7.472,7.472,0,0,1,3.627,3.054,10,10,0,0,1,1.178,5.13,9.778,9.778,0,0,1-4.046,8.386Q187.209.775,179.3.837V-2.046a19.361,19.361,0,0,0,6.572-.884,10.76,10.76,0,0,0,4.743-2.93,6.777,6.777,0,0,0,1.767-4.712,5.782,5.782,0,0,0-1.891-4.634q-1.891-1.628-5.859-1.628a15.39,15.39,0,0,0-4.107.543q-1.968.543-5.069,1.72Zm25.823,1.891v-2.821h3.627q.4-2.015.527-3.1h3.007q-.372,2.046-.589,3.1h3.813v2.821h-4.247q-2.325,10.385-3.069,12.8h-3.1q2.387-8.618,3.162-12.8Zm12.958-2.883q1.116-.093,2.449-.093a30.677,30.677,0,0,1,3.844.217v2.852a31.447,31.447,0,0,0-3.41-.186v7.843a27.094,27.094,0,0,1,3.565,1.581v3.472a19.32,19.32,0,0,0-3.565-2.046V-2.17a8.324,8.324,0,0,1-.171,1.938A3.613,3.613,0,0,1,216.442.93a4.1,4.1,0,0,1-3.658,1.643,8.287,8.287,0,0,1-2.635-.4A5.059,5.059,0,0,1,207.514.31a5.459,5.459,0,0,1-.93-3.255A5.66,5.66,0,0,1,208.336-7.3a6.406,6.406,0,0,1,4.541-1.628,11.281,11.281,0,0,1,1.4.093ZM212.412-.217A2.368,2.368,0,0,0,213.7-.481a1.105,1.105,0,0,0,.48-.713,7.433,7.433,0,0,0,.093-1.38V-5.952a6.628,6.628,0,0,0-1.3-.124,3.639,3.639,0,0,0-2.464.79,3.19,3.19,0,0,0-1.038,2.248A2.393,2.393,0,0,0,210.288-.9,3.372,3.372,0,0,0,212.412-.217ZM240.343-26.66H242.7v4.588h-2.356Zm3.689,0h2.356v4.588h-2.356ZM226.765-16.306l2.7-.186,1.054-.062q.062-2.232.062-3.162l-.031-1.922h2.914q.031.62.031,2.015,0,1.86-.062,2.852h3.286a3.866,3.866,0,0,1,3.116,1.255,7.36,7.36,0,0,1,1.286,4.2q.248,2.666.248,4.712a14.014,14.014,0,0,1-1.085,6.138A4.019,4.019,0,0,1,236.53,1.8a13.152,13.152,0,0,1-3.317-.31V-1.55a14.134,14.134,0,0,0,2.945.434,1.783,1.783,0,0,0,1.318-.512,2.461,2.461,0,0,0,.635-1.473,31.144,31.144,0,0,0,.279-4.526q0-1.488-.124-3.534a3.693,3.693,0,0,0-.682-2.123,2.07,2.07,0,0,0-1.643-.635H234.67q-.31,0-1.426.062a62.479,62.479,0,0,1-1.178,8.541,53.456,53.456,0,0,1-2.108,7.177h-3.193a38.47,38.47,0,0,0,2.294-7.053,59.277,59.277,0,0,0,1.333-8.417q-2.015.155-3.627.341Zm17.3-4.4A37.963,37.963,0,0,1,247.38-9.672h-3.286a33.155,33.155,0,0,0-3.255-11.036ZM256-21.483q-.744,4.278-.992,7.254a14.3,14.3,0,0,1,3.007-4.712,5.476,5.476,0,0,1,3.906-1.891,4.946,4.946,0,0,1,4.619,2.774q1.519,2.774,1.519,8.417a12.3,12.3,0,0,1-1.426,6.03,9.857,9.857,0,0,1-4.185,4.03,14.958,14.958,0,0,1-6.634,1.535V-.9a12.9,12.9,0,0,0,5.456-1.333,6.949,6.949,0,0,0,2.9-2.929,9.338,9.338,0,0,0,.945-4.48,15.748,15.748,0,0,0-.775-6.076,3.019,3.019,0,0,0-2.6-2.232,4.1,4.1,0,0,0-2.805,1.38,12.91,12.91,0,0,0-2.294,3.146,16.1,16.1,0,0,0-1.318,3.162,10.3,10.3,0,0,0-.155,2.325q0,.93.062,1.736l.031.372h-2.79q-.248-2.511-.248-7.192.217-4.464.806-8.463Zm17.639,5.611v-2.821h3.627q.4-2.015.527-3.1H280.8q-.372,2.046-.589,3.1h3.813v2.821h-4.247q-2.325,10.385-3.069,12.8h-3.1q2.387-8.618,3.162-12.8ZM286.6-18.755q1.116-.093,2.449-.093a30.677,30.677,0,0,1,3.844.217v2.852a31.447,31.447,0,0,0-3.41-.186v7.843a27.093,27.093,0,0,1,3.565,1.581v3.472a19.319,19.319,0,0,0-3.565-2.046V-2.17a8.323,8.323,0,0,1-.171,1.938A3.613,3.613,0,0,1,288.8.93a4.1,4.1,0,0,1-3.658,1.643,8.287,8.287,0,0,1-2.635-.4A5.058,5.058,0,0,1,279.868.31a5.459,5.459,0,0,1-.93-3.255A5.66,5.66,0,0,1,280.69-7.3a6.406,6.406,0,0,1,4.542-1.628,11.281,11.281,0,0,1,1.395.093ZM284.766-.217a2.368,2.368,0,0,0,1.286-.264,1.105,1.105,0,0,0,.48-.713,7.435,7.435,0,0,0,.093-1.38V-5.952a6.628,6.628,0,0,0-1.3-.124,3.64,3.64,0,0,0-2.465.79,3.19,3.19,0,0,0-1.038,2.248A2.393,2.393,0,0,0,282.643-.9,3.372,3.372,0,0,0,284.766-.217ZM312.7-26.66h2.356v4.588H312.7Zm3.689,0h2.356v4.588h-2.356ZM299.119-16.306l2.7-.186,1.054-.062q.062-2.232.062-3.162l-.031-1.922h2.914q.031.62.031,2.015,0,1.86-.062,2.852h3.286a3.865,3.865,0,0,1,3.116,1.255,7.361,7.361,0,0,1,1.286,4.2q.248,2.666.248,4.712a14.015,14.015,0,0,1-1.085,6.138A4.019,4.019,0,0,1,308.884,1.8a13.152,13.152,0,0,1-3.317-.31V-1.55a14.134,14.134,0,0,0,2.945.434,1.783,1.783,0,0,0,1.317-.512,2.461,2.461,0,0,0,.636-1.473,31.144,31.144,0,0,0,.279-4.526q0-1.488-.124-3.534a3.694,3.694,0,0,0-.682-2.123,2.07,2.07,0,0,0-1.643-.635h-1.271q-.31,0-1.426.062a62.483,62.483,0,0,1-1.178,8.541,53.451,53.451,0,0,1-2.108,7.177h-3.193a38.468,38.468,0,0,0,2.294-7.053,59.277,59.277,0,0,0,1.333-8.417q-2.015.155-3.627.341Zm17.3-4.4a37.964,37.964,0,0,1,3.317,11.036h-3.286a33.156,33.156,0,0,0-3.255-11.036Zm10.881-.465q1.364-.093,2.7-.093a63.913,63.913,0,0,1,8.091.589v2.914a48.208,48.208,0,0,0-7.688-.62q-.868,0-3.1.062ZM324.849-6.355V-14.6h2.914v5.115a12.04,12.04,0,0,1,6.479-2.79q.31-.031.93-.031a7.726,7.726,0,0,1,3.5.775,6.544,6.544,0,0,1,3.689,6.262,6.323,6.323,0,0,1-2.511,5.44q-2.511,1.845-7.44,1.845a36.591,36.591,0,0,1-5.487-.465V-1.364a33.488,33.488,0,0,0,5.549.5,11.2,11.2,0,0,0,4.154-.589,4.544,4.544,0,0,0,2.092-1.519,3.871,3.871,0,0,0,.728-2.356A3.734,3.734,0,0,0,338.1-8.37a5.146,5.146,0,0,0-3.395-1.116,6.6,6.6,0,0,0-1.085.093A7.7,7.7,0,0,0,331-8.51a25.291,25.291,0,0,0-2.589,1.689,4.85,4.85,0,0,1-.62.465Zm25.544-7.533h-2.7v-7.1h4.464a13.392,13.392,0,0,0-1.069-1.8q-.667-.961-1.349-1.767l2.48-1.116a22.761,22.761,0,0,1,1.689,2.124,11.55,11.55,0,0,1,1.194,2.031l-1.116.527h5.735a15.586,15.586,0,0,0-.914-2.062q-.6-1.162-1.255-2.185l2.511-.93a18.287,18.287,0,0,1,1.488,2.34,14.646,14.646,0,0,1,1.023,2.247l-1.519.589H366.3q.806-1.054,1.643-2.4a27.374,27.374,0,0,0,1.364-2.434l3.038.961q-1.333,1.953-2.883,3.875h4.495v7.1H371.1v-4.557H350.393Zm24.025,7.905H362.2V-.806a3.8,3.8,0,0,1-.372,1.86,2.226,2.226,0,0,1-1.3.961,8.893,8.893,0,0,1-2.155.357q-1.286.077-3.642.077a12.979,12.979,0,0,0-1.209-2.79q2.046.093,3.72.093l1.24-.031a1.2,1.2,0,0,0,.62-.155.571.571,0,0,0,.155-.465V-5.983h-12.09V-8.649h12.09v-2.139h1.457a22.867,22.867,0,0,0,3.5-2.325h-11.78v-2.511h14.539l.62-.155,1.86,1.395a23.962,23.962,0,0,1-3.317,2.9A28.341,28.341,0,0,1,362.2-9.052v.4h12.214ZM392.243-26.66H394.6v4.588h-2.356Zm3.689,0h2.356v4.588h-2.356Zm-14.2,5.7q1.488-.093,3.286-.093.806,0,2.728.062,2.976.124,6.572.589v3.007a29.481,29.481,0,0,0-6.572-.713h-1.767q-2.821,0-4.247.031Zm7.533,7.285q1.023,2.945,1.628,5.131a32.836,32.836,0,0,1,.884,4.169,13.37,13.37,0,0,1,.124,1.829,4.861,4.861,0,0,1-.4,2.2,3.507,3.507,0,0,1-3.348,2.108,5.884,5.884,0,0,1-1.023-.093A14.6,14.6,0,0,1,384.4.961V-1.984a10.74,10.74,0,0,0,2.666.651,3.543,3.543,0,0,0,.713.093,1.032,1.032,0,0,0,.9-.387,2.332,2.332,0,0,0,.279-1.318q0-.279-.062-1.085a33.355,33.355,0,0,0-1.147-4.821,38.375,38.375,0,0,0-1.674-4.82ZM378.417-.527q.279-4,.465-5.673.4-3.131,1.023-6.045h2.883a46.347,46.347,0,0,0-1.054,6.2q-.372,3.72-.4,5.518Zm16.616,0q-.031-1.8-.4-5.518a46.343,46.343,0,0,0-1.054-6.2h2.883q.62,2.914,1.023,6.045.186,1.674.465,5.673ZM3.007,54V31.153H6.6V54Zm18.476.4a9.846,9.846,0,0,1-5.192-1.4,9.535,9.535,0,0,1-3.627-4.061,14.054,14.054,0,0,1-1.318-6.293,13.977,13.977,0,0,1,1.349-6.324,9.943,9.943,0,0,1,3.689-4.139,9.818,9.818,0,0,1,5.255-1.441,8.321,8.321,0,0,1,3.658.806,9.015,9.015,0,0,1,2.821,2.077l-1.953,2.294A6.083,6.083,0,0,0,21.7,33.881a5.942,5.942,0,0,0-3.472,1.054,6.813,6.813,0,0,0-2.356,3.007,11.581,11.581,0,0,0-.837,4.588,12.276,12.276,0,0,0,.806,4.666,6.74,6.74,0,0,0,2.278,3.022,5.834,5.834,0,0,0,3.487,1.054,5.986,5.986,0,0,0,2.744-.62,8.2,8.2,0,0,0,2.309-1.8l1.922,2.263A9.021,9.021,0,0,1,21.483,54.4ZM37.262,54V34.191h-6.7V31.153H47.585v3.038H40.858V54ZM76.911,28.983v6.6H60.76v-6.6ZM60.264,49.133q-6.758,1.984-10.075,2.883l-.62-2.728L53.6,48.3V41.569H50.251V39.027H53.6V32.7H49.941V30.161h9.734V32.7H56.2v6.324H59.21v2.542H56.2v6.014l3.751-1.023Zm5.27-15.593V31H63.116V33.54Zm4.433,0V31H67.456V33.54Zm4.495,0V31H71.92V33.54Zm-15.128,5.8V36.981h18.91v2.356Zm18.29,9.92a26.3,26.3,0,0,1-4.03,2.48,13.239,13.239,0,0,0,4.681,2.449,9.753,9.753,0,0,0-1.86,2.263A14.024,14.024,0,0,1,71.781,53.5a17.431,17.431,0,0,1-3.425-4.526l-.248.217v7.254h-2.7V51.3a31.778,31.778,0,0,1-6.51,3.441q-.31-.465-.806-1.069a7.4,7.4,0,0,0-.9-.945,29.7,29.7,0,0,0,4.96-2.139,26.206,26.206,0,0,0,4.433-2.945H61.256V40.794H76.291v6.851H70.153a12.021,12.021,0,0,0,1.922,2.7A20.579,20.579,0,0,0,73.9,49.1q.992-.744,1.705-1.333ZM63.8,42.9v2.6h9.827V42.9Zm45.384-5.022H90.3V35.524h4.712A10.682,10.682,0,0,0,93.992,32.8l1.364-.31H91.2V30.223h7.006v-2.17h2.821v2.17h7.5v2.263h-4.092l1.333.279q-.248.434-.45.837t-.388.713l-.62,1.209h4.867ZM91.14,47.149Q88.5,48.42,83.08,50.962l-1.488.682-1.023-2.852q.992-.341,4-1.612V38.1H81.189V35.4h3.379V28.363h2.666V35.4h3.038v2.7H87.234V46l3.255-1.426Zm5.487-14.663a12.27,12.27,0,0,1,.667,1.441,8.84,8.84,0,0,1,.418,1.349l-.961.248H102.3l-.682-.155a21.215,21.215,0,0,0,1.24-2.883Zm9.734,21.3a.55.55,0,0,0,.465-.2,1.7,1.7,0,0,0,.217-.791q.062-.589.124-1.891a4.066,4.066,0,0,0,1.054.589,9.08,9.08,0,0,0,1.333.434,11.458,11.458,0,0,1-.434,2.666,2.374,2.374,0,0,1-.884,1.3,2.92,2.92,0,0,1-1.6.372h-2.759a4.855,4.855,0,0,1-1.922-.295,1.646,1.646,0,0,1-.9-.976,6.1,6.1,0,0,1-.248-1.984V48.792h-2.79a10.559,10.559,0,0,1-1.271,3.441,7.747,7.747,0,0,1-2.573,2.5,15.383,15.383,0,0,1-4.5,1.751,8.218,8.218,0,0,0-.7-1.271,7.078,7.078,0,0,0-.883-1.147,11.861,11.861,0,0,0,5.022-1.922A6.012,6.012,0,0,0,95.2,48.792H92.287V39.337H107.57v9.455h-4.03v4.185a1.136,1.136,0,0,0,.124.667q.124.139.651.139ZM95.015,41.2V43.15h9.765V41.2Zm0,3.751v1.984h9.765V44.948Zm17.949-5.394q1.116-.558,3.1-1.333l-.868-5.983h3.038q.062,1.116.263,2.527t.264,1.813a6.813,6.813,0,0,1,.124.806,20.221,20.221,0,0,1,4.557-.806,17.018,17.018,0,0,0-.9-4.495h3.038a16.982,16.982,0,0,1,.6,2.2,19.237,19.237,0,0,1,.295,2.356q6.882.93,6.882,6.479a7.44,7.44,0,0,1-.775,3.534,4.655,4.655,0,0,1-2.17,2.108,7.649,7.649,0,0,1-3.41.744,13.058,13.058,0,0,1-2.542-.279V46.5a12.523,12.523,0,0,0,2.046.186q3.937,0,3.937-3.627A2.926,2.926,0,0,0,128.7,40.22a10.667,10.667,0,0,0-4.635-.852,16.452,16.452,0,0,0-4.743.868q.868,4.65,1.674,8.184t2.015,7.843h-3.069q-1.953-7.13-3.441-15.19l-3.534,1.767ZM151.528,27.34h2.356v4.588h-2.356Zm3.689,0h2.356v4.588h-2.356ZM138.415,45.2h8.091l-.4-5.952h-7.688V36.3h7.471l-.279-4.216h3.038l.31,4.216h8.494v2.945h-8.308l.4,5.952h7.9V48.2h-7.657l.558,8.06h-3.069l-.558-8.06h-8.308Zm28.4,11.036L165.137,42.5l-3.1.093V39.9l2.821-.062-.465-3.937h2.728l.465,3.875,10.7-.341v3.224a10,10,0,0,1-1.829,4.092,14.965,14.965,0,0,1-2.325,2.558,9.289,9.289,0,0,1-2.573,1.627V47.893a9.313,9.313,0,0,0,4-5.642l-7.688.217,1.674,13.764Zm17.577-23.095h16.12V36.02h-16.12Zm-.868,10.354V40.546h18.352a16.784,16.784,0,0,1-1.1,6.014,11.435,11.435,0,0,1-3.022,4.464,14.914,14.914,0,0,1-4.061,2.728,18.82,18.82,0,0,1-3.487,1.3q-1.69.434-3.829.775V52.667a20.2,20.2,0,0,0,6.262-1.86,11.369,11.369,0,0,0,3.612-2.852,9.421,9.421,0,0,0,2.092-4.464Zm25.017-11.16h3.069V45.072h-3.069ZM213,53.039a9.8,9.8,0,0,0,4.774-2.573,9.991,9.991,0,0,0,2.062-3.224,12.065,12.065,0,0,0,.822-4.464V32.331h3.069V42.778q-.031,6.789-4.154,10.292a14.285,14.285,0,0,1-3.224,2.124A17.017,17.017,0,0,1,213,56.325ZM229.71,42.344H243.1v3.069H229.71Zm18.135-12.989h25.7v27h-3.007v-1.4H250.728v1.4h-2.883ZM250.728,52.2h19.809V32.114H250.728Zm9.3-12.586a13.182,13.182,0,0,0-.744-2.7,24.466,24.466,0,0,0-1.333-2.976l2.263-.775a22.888,22.888,0,0,1,1.411,2.9,14.957,14.957,0,0,1,.852,2.682Zm8.866-4.836a32.247,32.247,0,0,1-5.952,9.734,36.75,36.75,0,0,1,5.921,4L267.1,50.776A38.866,38.866,0,0,0,261.02,46.5a30.489,30.489,0,0,1-7.564,5.177q-.31-.465-.883-1.194a10.113,10.113,0,0,0-1.007-1.132,26.82,26.82,0,0,0,6.944-4.278,59.284,59.284,0,0,0-5.766-2.759l1.581-1.953q2.883,1.147,6.138,2.821a26.294,26.294,0,0,0,5.673-9.114ZM254.82,40.329a17.263,17.263,0,0,0-1.038-2.557,26.764,26.764,0,0,0-1.566-2.806l2.139-.9a27.292,27.292,0,0,1,1.721,2.743,11.821,11.821,0,0,1,1.069,2.465Zm38.161,3.131h12.4v2.077H277.915V43.46h12.152V41.972H280.054v-1.86h10.013V38.686H280.8V36.857h9.269V35.338H277.946V33.261h12.121V31.773h-8.9V30.006h8.9V27.9h2.914v2.108h8.711v3.255h3.658v2.077h-3.658v3.348h-8.711v1.426h10.23v1.86h-10.23Zm0-11.687v1.488h5.859V31.773Zm0,3.565v1.519h5.859V35.338Zm-11.16,21.173v-9.7h20.026V56.48h-2.914v-.9H284.642v.93Zm17.112-7.843H284.642v1.55h14.291Zm-14.291,4.991h14.291V52.016H284.642ZM325.779,44.2v2.325h10.075v9.7h-2.666v-1.3h-7.409v1.488h-2.6V36.7h-1.829V33.385l-1.8,2.015a21.222,21.222,0,0,0-1.8-2.48,24.151,24.151,0,0,0-2.294-2.449,28.081,28.081,0,0,1-4.34,5.735H314.4V33.447h2.449v2.759h3.317V46.5h-7.223v5.177l4.154-.992a24.47,24.47,0,0,0-1.488-2.418l2.263-1.023a35.3,35.3,0,0,1,2.263,3.658,19.055,19.055,0,0,1,1.488,3.379l-2.48,1.147a18.476,18.476,0,0,0-.961-2.6q-1.984.589-4.573,1.287t-3.767,1.038l-.62.186-.837-2.666,2.015-.434V36.888q.031-.031-.806.713a5.533,5.533,0,0,0-.837-1.023,6.267,6.267,0,0,0-.992-.837,19.5,19.5,0,0,0,3.534-3.674,20.765,20.765,0,0,0,2.387-4.076h2.7a36.968,36.968,0,0,1,2.759,2.589,22.232,22.232,0,0,1,2.2,2.588V31.277h6.045V27.96h2.79v3.317h6.386V36.7h-2.015v7.5Zm8.091-10.571h-9.951V36.3h9.951ZM317.6,38.314h-4.65v2.015h4.65Zm14.322,3.565V38.624h-6.138v3.255Zm-18.972,2.48h4.65V42.282h-4.65Zm20.243,4.557h-7.409v3.565h7.409Zm7.471-10.788V35.307h3.627q.4-2.015.527-3.1h3.007q-.372,2.046-.589,3.1h3.813v2.821H346.8q-2.325,10.385-3.069,12.8h-3.1q2.387-8.618,3.162-12.8Zm12.958-2.883q1.116-.093,2.449-.093a30.678,30.678,0,0,1,3.844.217v2.852a31.448,31.448,0,0,0-3.41-.186v7.843a27.093,27.093,0,0,1,3.565,1.581v3.472a19.319,19.319,0,0,0-3.565-2.046V51.83a8.323,8.323,0,0,1-.171,1.938,3.613,3.613,0,0,1-.511,1.162,4.1,4.1,0,0,1-3.658,1.643,8.287,8.287,0,0,1-2.635-.4,5.058,5.058,0,0,1-2.635-1.86,5.459,5.459,0,0,1-.93-3.255,5.66,5.66,0,0,1,1.751-4.355,6.406,6.406,0,0,1,4.542-1.628,11.281,11.281,0,0,1,1.395.093Zm-1.829,18.538a2.368,2.368,0,0,0,1.286-.264,1.105,1.105,0,0,0,.48-.713,7.435,7.435,0,0,0,.093-1.38V48.048a6.627,6.627,0,0,0-1.3-.124,3.64,3.64,0,0,0-2.465.791,3.19,3.19,0,0,0-1.038,2.247,2.393,2.393,0,0,0,.822,2.139A3.372,3.372,0,0,0,351.788,53.783ZM377.239,27.34H379.6v4.588h-2.356Zm3.689,0h2.356v4.588h-2.356Zm2.17,14.415q-6.851.248-10.416,1.953t-3.565,4.836a3.6,3.6,0,0,0,1.4,3.007,5.765,5.765,0,0,0,2.526,1.1,17.528,17.528,0,0,0,3.147.264q2.015,0,4.154-.124t2.759-.217v2.914a58.665,58.665,0,0,1-5.89.31,25.587,25.587,0,0,1-5.983-.527,6.6,6.6,0,0,1-3.8-2.48,7.039,7.039,0,0,1-1.38-4.309,6.348,6.348,0,0,1,1.24-3.937,13.831,13.831,0,0,1,3.6-3.162L369.4,32.765h3.069l1.178,7.564a28.469,28.469,0,0,1,4.681-1.1q2.139-.295,4.774-.419Zm11.377,14.136a47.735,47.735,0,0,0-3.255-3.611q-1.829-1.844-3.5-3.239l2.542-2.232q1.612,1.333,3.549,3.271t3.3,3.581Zm-392,34V86.951H21.7v3.72a15.831,15.831,0,0,1-2.2,5.487,12.438,12.438,0,0,1-2.573,2.992,11.13,11.13,0,0,1-2.48,1.565V97.057a6.174,6.174,0,0,0,1.86-1.659,11.367,11.367,0,0,0,1.6-2.682,7.191,7.191,0,0,0,.635-2.821Zm0,17.05A9.41,9.41,0,0,0,5.3,105.365a8.254,8.254,0,0,0,2.387-3.3,14.043,14.043,0,0,0,.961-5.41V94.7h3.007V96.84a18.582,18.582,0,0,1-.992,5.983A9.918,9.918,0,0,1,8,106.946a16.009,16.009,0,0,1-2.744,2.062,12.73,12.73,0,0,1-2.775,1.256ZM34.5,85.959a14.06,14.06,0,0,1-.341,1.628,15.891,15.891,0,0,1-.5,1.6H44.175v2.945a19.9,19.9,0,0,1-1.519,7.13,15.805,15.805,0,0,1-3.441,5.3,21.229,21.229,0,0,1-4.9,3.627,25.582,25.582,0,0,1-5.735,2.294v-3.162a23.681,23.681,0,0,0,3.921-1.565,17.851,17.851,0,0,0,3.611-2.527,15.076,15.076,0,0,0,3.457-4.51,17.261,17.261,0,0,0,1.5-6.588H32.488a22.754,22.754,0,0,1-6.2,7.037V95.2a16.369,16.369,0,0,0,3.193-4.185,18,18,0,0,0,1.86-5.053Zm15.748,1.178H67.022v2.945H50.251ZM49.383,98.08V95.2H67.859V98.08H61.411a15.533,15.533,0,0,1-1.441,5.688,9.829,9.829,0,0,1-2.93,3.425,14.334,14.334,0,0,1-6.789,2.573V106.76a11.33,11.33,0,0,0,3.41-.93,7.739,7.739,0,0,0,3.178-2.682,10.2,10.2,0,0,0,1.41-5.068Zm39.029-7.471A23.8,23.8,0,0,1,86.2,94.081a21.7,21.7,0,0,1-2.93,3.317v13.175H80.507V99.816a32.227,32.227,0,0,1-7.905,4.4V101.4a31.72,31.72,0,0,0,4.309-2.263A21.9,21.9,0,0,0,81.3,95.616a25.58,25.58,0,0,0,3.828-5.007ZM104.5,81.34h2.356v4.588H104.5Zm3.689,0h2.356v4.588H108.19ZM93.155,90.454v-3.1h17.267v3.658a19.9,19.9,0,0,1-1.225,7.223,17.645,17.645,0,0,1-3.239,5.425,15.257,15.257,0,0,1-3.782,3.131,23.045,23.045,0,0,1-7.006,2.542v-3.069a19.429,19.429,0,0,0,4-1.256,14.18,14.18,0,0,0,3.6-2.34,13.413,13.413,0,0,0,3.286-4.712,21.153,21.153,0,0,0,1.364-7.5Zm23.87-3.317h16.12V90.02h-16.12Zm-.868,10.354V94.546h18.352a16.784,16.784,0,0,1-1.1,6.014,11.435,11.435,0,0,1-3.023,4.464,14.914,14.914,0,0,1-4.061,2.728,18.82,18.82,0,0,1-3.488,1.3q-1.69.434-3.828.775v-3.162a20.2,20.2,0,0,0,6.262-1.86,11.369,11.369,0,0,0,3.611-2.852,9.421,9.421,0,0,0,2.092-4.464Zm23.219-1.147h13.392v3.069H139.376Zm18.352-8.556h16.678v3.069H157.728Zm17.329,17.825v3.069H157.139v-3.069Zm4.9-18.135h7.936v3.038h-7.936Zm18.6,5.208a23.829,23.829,0,0,1-3.6,7.719,21.606,21.606,0,0,1-5.3,5.394,21.3,21.3,0,0,1-4.82,2.5,23.164,23.164,0,0,1-4.883,1.132v-3.193a16.237,16.237,0,0,0,4.123-.837,14.6,14.6,0,0,0,4.03-2.232,20.587,20.587,0,0,0,7.285-10.478ZM215.388,81.34h2.356v4.588h-2.356Zm3.689,0h2.356v4.588h-2.356Zm-7.409,4.619a14.06,14.06,0,0,1-.341,1.628,15.891,15.891,0,0,1-.5,1.6H221.34v2.945a19.9,19.9,0,0,1-1.519,7.13,15.805,15.805,0,0,1-3.441,5.3,21.228,21.228,0,0,1-4.9,3.627,25.582,25.582,0,0,1-5.735,2.294v-3.162a23.681,23.681,0,0,0,3.921-1.565,17.851,17.851,0,0,0,3.612-2.527,15.076,15.076,0,0,0,3.456-4.51,17.261,17.261,0,0,0,1.5-6.588h-8.587a22.754,22.754,0,0,1-6.2,7.037V95.2a16.369,16.369,0,0,0,3.193-4.185,18,18,0,0,0,1.86-5.053ZM252.4,82.983v6.6H236.251v-6.6Zm-16.647,20.15q-6.758,1.984-10.075,2.883l-.62-2.728,4.03-.992V95.569h-3.348V93.027h3.348V86.7h-3.658V84.161h9.734V86.7h-3.472v6.324H234.7v2.542h-3.007v6.014l3.751-1.023Zm5.27-15.593V85h-2.418V87.54Zm4.433,0V85h-2.511V87.54Zm4.5,0V85h-2.542V87.54Zm-15.128,5.8V90.981h18.91v2.356Zm18.29,9.92a26.3,26.3,0,0,1-4.03,2.48,13.239,13.239,0,0,0,4.681,2.449,9.753,9.753,0,0,0-1.86,2.263,14.024,14.024,0,0,1-4.635-2.945,17.431,17.431,0,0,1-3.426-4.526l-.248.217v7.254h-2.7V105.3a31.778,31.778,0,0,1-6.51,3.441q-.31-.465-.806-1.07a7.4,7.4,0,0,0-.9-.946,29.7,29.7,0,0,0,4.96-2.139,26.206,26.206,0,0,0,4.433-2.945h-5.332V94.794h15.035v6.851h-6.138a12.021,12.021,0,0,0,1.922,2.7,20.578,20.578,0,0,0,1.829-1.24q.992-.744,1.7-1.333ZM239.289,96.9v2.6h9.827V96.9Zm45.384-5.022H265.794V89.524h4.712a10.683,10.683,0,0,0-1.023-2.728l1.364-.31h-4.154V84.223H273.7v-2.17h2.821v2.17h7.5v2.263H279.93l1.333.279q-.248.434-.449.837t-.388.713l-.62,1.209h4.867Zm-18.042,9.269q-2.635,1.271-8.06,3.813l-1.488.682-1.023-2.852q.992-.341,4-1.612V92.1H256.68V89.4h3.379V82.363h2.666V89.4h3.038v2.7h-3.038V100l3.255-1.426Zm5.487-14.663a12.27,12.27,0,0,1,.666,1.441,8.842,8.842,0,0,1,.419,1.349l-.961.248h5.549l-.682-.155a21.216,21.216,0,0,0,1.24-2.883Zm9.734,21.3a.55.55,0,0,0,.465-.2,1.7,1.7,0,0,0,.217-.79q.062-.589.124-1.891a4.066,4.066,0,0,0,1.054.589,9.081,9.081,0,0,0,1.333.434,11.459,11.459,0,0,1-.434,2.666,2.374,2.374,0,0,1-.883,1.3,2.92,2.92,0,0,1-1.6.372h-2.759a4.855,4.855,0,0,1-1.922-.295,1.646,1.646,0,0,1-.9-.977,6.1,6.1,0,0,1-.248-1.984v-4.216h-2.79a10.559,10.559,0,0,1-1.271,3.441,7.747,7.747,0,0,1-2.573,2.5,15.384,15.384,0,0,1-4.495,1.752,8.219,8.219,0,0,0-.7-1.271,7.078,7.078,0,0,0-.884-1.147,11.861,11.861,0,0,0,5.022-1.922,6.012,6.012,0,0,0,2.077-3.348h-2.914V93.337h15.283v9.455h-4.03v4.185a1.136,1.136,0,0,0,.124.667q.124.139.651.139ZM270.506,95.2V97.15h9.765V95.2Zm0,3.751v1.984h9.765V98.948Zm17.825-7.285V88.811h6.293a17.614,17.614,0,0,0,.9-3.038h3.1q-.279,1.085-.93,3.038h7.316v2.852h-8.184a20.365,20.365,0,0,1-1.55,3.069,6.019,6.019,0,0,1,2.418-.558,3.465,3.465,0,0,1,2.325.791,2.9,2.9,0,0,1,.992,2.186v.186q3.069-1.488,6.2-2.79V97.77a58.875,58.875,0,0,0-6.169,2.759v4.216H298.22v-3.131l-1.023.62a3.182,3.182,0,0,0-.434.279,4.544,4.544,0,0,0-1.162,1.317,2.775,2.775,0,0,0-.388,1.349,1.821,1.821,0,0,0,.7,1.472,3.146,3.146,0,0,0,1.968.6l7.688-.062v2.883h-7.936a7.018,7.018,0,0,1-3.441-.961,3.913,3.913,0,0,1-1.8-2.325,3.784,3.784,0,0,1-.155-1.178,5.3,5.3,0,0,1,.837-2.774,7.578,7.578,0,0,1,2.325-2.371l2.852-1.891a2.975,2.975,0,0,0-.48-1.6,1.442,1.442,0,0,0-1.193-.48,4.656,4.656,0,0,0-1.953.511,7.26,7.26,0,0,0-2.139,1.628q-.682.713-4.247,4.681v-4.34q1.984-2.108,3.177-3.627a19.239,19.239,0,0,0,2.217-3.689Zm48.515-4.092a15.914,15.914,0,0,1-2.976,5.7,15.277,15.277,0,0,0,5.518,2.852,6.711,6.711,0,0,0-.884,1.054,8.306,8.306,0,0,0-.728,1.209,16.793,16.793,0,0,1-5.673-3.348A19.456,19.456,0,0,1,326.12,98.3a7.988,7.988,0,0,0-.744-1.069,8.883,8.883,0,0,0-.9-1.007,16.114,16.114,0,0,0,5.921-2.976,19.242,19.242,0,0,1-2.263-3.5,14.482,14.482,0,0,1-1.674,1.86A19.084,19.084,0,0,0,324.88,89.9v3.038h-4.588q1.24.589,2.557,1.256t2.186,1.132l-1.426,1.86q-.589-.465-1.736-1.193t-2.2-1.349v3.5H317.13V94.67a21.676,21.676,0,0,1-2.325,2.015,16.827,16.827,0,0,1-2.387,1.519,10.615,10.615,0,0,0-.79-.961,7.069,7.069,0,0,0-.884-.837,15.939,15.939,0,0,0,2.79-1.472,16.607,16.607,0,0,0,2.542-2h-3.937V87.168h4.991V85.8h-5.8V83.789h5.8v-1.8h2.542v1.8H325.5V85.8h-5.828v1.364h5.208v2.139a13,13,0,0,0,2.526-3.224,17.42,17.42,0,0,0,1.659-4.092l2.635.62a23.018,23.018,0,0,1-.992,2.7h8.153v2.263Zm-7.285.031a14.694,14.694,0,0,0,2.511,3.937,12.025,12.025,0,0,0,2.046-3.968h-4.557Zm-15.128,1.333V91.1h2.7v-2.17Zm8.06,2.17v-2.17h-2.821V91.1Zm3.844,14.26v2.108h12.648v2.387H311.054v-2.387h4.836v-5.022h2.728v5.022h4.9v-6.262H313.007V98.917H337v2.294H326.337v1.984h8.494v2.17Zm23.839-22.506a53.7,53.7,0,0,1-2.418,6.107v21.452H345.03V93.988a30.769,30.769,0,0,1-2.48,3.41,14.558,14.558,0,0,0-.651-1.535q-.465-.977-.775-1.5a29.675,29.675,0,0,0,3.612-5.5,40.4,40.4,0,0,0,2.774-6.743Zm4.743,6.634V87.2h-4.712V84.657h4.712V82.208h2.666v2.449h5.239V82.208h2.728v2.449h4.557V87.2h-4.557v2.294h-2.728V87.2h-5.239v2.294ZM370.233,93H353.214V97.15q0,8.959-2.945,13.33a9.32,9.32,0,0,0-1.007-.977,7.612,7.612,0,0,0-1.1-.822A13.254,13.254,0,0,0,350.1,103.5a39.725,39.725,0,0,0,.48-6.386V90.454h19.654Zm-.744,14.849a3.963,3.963,0,0,1-.2,1.41,1.487,1.487,0,0,1-.76.79,4.406,4.406,0,0,1-1.364.326q-.806.077-2.294.077a6.458,6.458,0,0,0-.263-1.132,7.468,7.468,0,0,0-.419-1.069,21.2,21.2,0,0,0,2.387,0,.689.689,0,0,0,.341-.108.421.421,0,0,0,.093-.326v-2.325h-3.875v4.805H360.84v-4.805h-3.658v4.929h-2.418v-15.5h14.725ZM360.84,97.088h-3.658v2.294h3.658Zm6.169,0h-3.875v2.294h3.875Zm-9.827,6.479h3.658V101.3h-3.658Zm5.952,0h3.875V101.3h-3.875Z" transform="translate(731 4832)"/>
    <path id="キャッチ上のハイライト" d="M0,0H268V10H0Z" transform="translate(733 4828)" fill="#ff8c3c" style="mix-blend-mode: multiply;isolation: isolate"/>
  </g>
</svg>
