<svg xmlns="http://www.w3.org/2000/svg" width="415.865" height="136.83" viewBox="0 0 415.865 136.83">
  <g id="text07" transform="translate(-233.961 -4214.836)">
    <path id="パス_2971" data-name="パス 2971" d="M5.177-13.888H2.48v-7.1H6.944a13.4,13.4,0,0,0-1.069-1.8q-.667-.961-1.348-1.767l2.48-1.116A22.757,22.757,0,0,1,8.7-23.545a11.549,11.549,0,0,1,1.193,2.031l-1.116.527h5.735a15.584,15.584,0,0,0-.915-2.062q-.6-1.162-1.255-2.185l2.511-.93a18.285,18.285,0,0,1,1.488,2.34,14.645,14.645,0,0,1,1.023,2.247l-1.519.589H21.08q.806-1.054,1.643-2.4a27.372,27.372,0,0,0,1.364-2.434l3.038.961q-1.333,1.953-2.883,3.875h4.495v7.1H25.885v-4.557H5.177ZM29.2-5.983H16.988V-.806a3.8,3.8,0,0,1-.372,1.86,2.226,2.226,0,0,1-1.3.961,8.893,8.893,0,0,1-2.155.357q-1.287.077-3.642.077A12.979,12.979,0,0,0,8.308-.341q2.046.093,3.72.093l1.24-.031a1.2,1.2,0,0,0,.62-.155A.571.571,0,0,0,14.043-.9V-5.983H1.953V-8.649h12.09v-2.139H15.5A22.868,22.868,0,0,0,19-13.113H7.223v-2.511H21.762l.62-.155,1.86,1.395a23.962,23.962,0,0,1-3.317,2.9,28.34,28.34,0,0,1-3.937,2.434v.4H29.2ZM41.943-7.037a46.981,46.981,0,0,0-2.325-4.309V2.418h-2.7V-10.788a29.585,29.585,0,0,1-3.5,7.626,7.723,7.723,0,0,0-.6-1.3,14.848,14.848,0,0,0-.791-1.271,23.575,23.575,0,0,0,2.666-4.976,39.769,39.769,0,0,0,1.984-6.153h-4V-19.53h4.247v-6.479h2.7v6.479h3.565v2.666H39.618v1.984q.589.744,1.906,2.666t2.031,3.038Zm18.476-14.57v2.666H43.493v-2.666h6.944v-4.4H53.32v4.4Zm-4.464,3.224a38.76,38.76,0,0,1,2.9,3.333,19.875,19.875,0,0,1,2.092,3.178l-2.418,1.395a20.787,20.787,0,0,0-1.968-3.208,33.955,33.955,0,0,0-2.837-3.457ZM49.941-17.2a25.926,25.926,0,0,1-2.387,3.813A19.728,19.728,0,0,1,44.64-10.23a7.936,7.936,0,0,0-.9-.945,12.574,12.574,0,0,0-1.054-.884,16.42,16.42,0,0,0,2.619-2.852,19.653,19.653,0,0,0,2.03-3.379Zm7.285,4.991a24.6,24.6,0,0,1-3.6,7.347A18.657,18.657,0,0,0,61.008-.031a8.527,8.527,0,0,0-1.07,1.178,12.363,12.363,0,0,0-.945,1.364A20.556,20.556,0,0,1,51.77-2.635a21.862,21.862,0,0,1-8.091,5.177A9.311,9.311,0,0,0,43,1.38q-.465-.7-.806-1.132A19.14,19.14,0,0,0,50.034-4.8a28.384,28.384,0,0,1-3.658-7.1l2.48-.713A20.657,20.657,0,0,0,51.8-7.068,18.621,18.621,0,0,0,54.312-12.8Zm25.637-9.114a30.471,30.471,0,0,1-2.7,4.185A26.485,26.485,0,0,1,76.787-13.3V2.418h-3.1V-10.6A38.865,38.865,0,0,1,64.2-5.239V-8.4a40.244,40.244,0,0,0,5.146-2.7,27.425,27.425,0,0,0,5.27-4.231,28.792,28.792,0,0,0,4.557-6Zm18.538-.186h2.356v4.9H101.4Zm3.689,0h2.356v4.9H105.09ZM87.2-5.425v-5.642q1.767-2.666,5.332-8.463A4.007,4.007,0,0,1,93.5-20.6a1.951,1.951,0,0,1,1.147-.325,1.914,1.914,0,0,1,1.286.388A4.754,4.754,0,0,1,96.8-19.5q.418.651.574.9.713,1.116,1.209,1.8l1.984,2.976,5.828,8.866V.372L94.984-16.988a.587.587,0,0,0-.171-.2.205.205,0,0,0-.2.016.491.491,0,0,0-.248.31Zm24.4-15.1h7.936v3.038H111.6Zm18.6,5.208A23.829,23.829,0,0,1,126.6-7.6,21.606,21.606,0,0,1,121.3-2.2a21.3,21.3,0,0,1-4.821,2.5A23.163,23.163,0,0,1,111.6,1.426V-1.767a16.238,16.238,0,0,0,4.123-.837,14.6,14.6,0,0,0,4.03-2.232,20.587,20.587,0,0,0,7.285-10.478Zm22.32,4.9H139.562V2.263h-3.224v-24.18h3.224v8.432H152.52Zm5.642-5.89,2.7-.186,1.054-.062q.062-2.232.062-3.162l-.031-1.922h2.914q.031.62.031,2.015,0,1.86-.062,2.852h3.286a3.866,3.866,0,0,1,3.116,1.255,7.36,7.36,0,0,1,1.286,4.2q.248,2.666.248,4.712a14.014,14.014,0,0,1-1.085,6.138A4.019,4.019,0,0,1,167.927,1.8a13.152,13.152,0,0,1-3.317-.31V-1.55a14.134,14.134,0,0,0,2.945.434,1.783,1.783,0,0,0,1.318-.512,2.461,2.461,0,0,0,.635-1.473,31.144,31.144,0,0,0,.279-4.526q0-1.488-.124-3.534a3.693,3.693,0,0,0-.682-2.123,2.07,2.07,0,0,0-1.643-.635h-1.271q-.31,0-1.426.062a62.479,62.479,0,0,1-1.178,8.541,53.456,53.456,0,0,1-2.108,7.177h-3.193a38.47,38.47,0,0,0,2.294-7.053,59.277,59.277,0,0,0,1.333-8.417q-2.015.155-3.627.341Zm17.3-4.4a37.964,37.964,0,0,1,3.317,11.036h-3.286a33.155,33.155,0,0,0-3.255-11.036Zm10.881-.465q1.364-.093,2.7-.093a63.913,63.913,0,0,1,8.091.589v2.914a48.208,48.208,0,0,0-7.688-.62q-.868,0-3.1.062ZM183.892-6.355V-14.6h2.914v5.115a12.04,12.04,0,0,1,6.479-2.79q.31-.031.93-.031a7.726,7.726,0,0,1,3.5.775,6.544,6.544,0,0,1,3.689,6.262A6.323,6.323,0,0,1,198.9.171q-2.511,1.845-7.44,1.845a36.591,36.591,0,0,1-5.487-.465V-1.364a33.488,33.488,0,0,0,5.549.5,11.2,11.2,0,0,0,4.154-.589,4.544,4.544,0,0,0,2.092-1.519,3.871,3.871,0,0,0,.729-2.356,3.734,3.734,0,0,0-1.348-3.038,5.146,5.146,0,0,0-3.395-1.116,6.6,6.6,0,0,0-1.085.093,7.7,7.7,0,0,0-2.619.883,25.292,25.292,0,0,0-2.589,1.689,4.849,4.849,0,0,1-.62.465Zm23.064-18.29h25.7v27h-3.007V.961H209.839v1.4h-2.883ZM209.839-1.8h19.809V-21.886H209.839Zm9.3-12.586a13.182,13.182,0,0,0-.744-2.7,24.466,24.466,0,0,0-1.333-2.976l2.263-.775a22.884,22.884,0,0,1,1.411,2.9,14.96,14.96,0,0,1,.852,2.681Zm8.866-4.836a32.248,32.248,0,0,1-5.952,9.734,36.75,36.75,0,0,1,5.921,4l-1.767,2.263A38.865,38.865,0,0,0,220.131-7.5a30.489,30.489,0,0,1-7.564,5.177q-.31-.465-.883-1.194a10.113,10.113,0,0,0-1.007-1.132,26.82,26.82,0,0,0,6.944-4.278,59.283,59.283,0,0,0-5.766-2.759l1.581-1.953q2.883,1.147,6.138,2.821a26.293,26.293,0,0,0,5.673-9.114Zm-14.074,5.549a17.263,17.263,0,0,0-1.038-2.557,26.765,26.765,0,0,0-1.566-2.806l2.139-.9a27.292,27.292,0,0,1,1.721,2.743,11.821,11.821,0,0,1,1.069,2.465Zm38.161,3.131h12.4v2.077H237.026V-10.54h12.152v-1.488H239.165v-1.86h10.013v-1.426h-9.269v-1.829h9.269v-1.519H237.057v-2.077h12.121v-1.488h-8.9v-1.767h8.9V-26.1h2.914v2.108H260.8v3.255h3.658v2.077H260.8v3.348h-8.711v1.426h10.23v1.86h-10.23Zm0-11.687v1.488h5.859v-1.488Zm0,3.565v1.519h5.859v-1.519ZM240.932,2.511v-9.7h20.026V2.48h-2.914v-.9H243.753v.93Zm17.112-7.843H243.753v1.55h14.291ZM243.753-.341h14.291V-1.984H243.753ZM284.89-9.8v2.325h10.075v9.7H292.3V.93H284.89V2.418h-2.6V-17.3h-1.829v-3.317l-1.8,2.015a21.222,21.222,0,0,0-1.8-2.48,24.151,24.151,0,0,0-2.294-2.449,28.081,28.081,0,0,1-4.34,5.735h3.286v-2.759h2.449v2.759h3.317V-7.5h-7.223v5.177l4.154-.992a24.471,24.471,0,0,0-1.488-2.418l2.263-1.023A35.3,35.3,0,0,1,279.248-3.1,19.055,19.055,0,0,1,280.736.279l-2.48,1.147a18.476,18.476,0,0,0-.961-2.6q-1.984.589-4.573,1.287t-3.767,1.039l-.62.186L267.5-1.333l2.015-.434V-17.112q.031-.031-.806.713a5.533,5.533,0,0,0-.837-1.023,6.267,6.267,0,0,0-.992-.837,19.5,19.5,0,0,0,3.534-3.674,20.763,20.763,0,0,0,2.387-4.076h2.7a36.968,36.968,0,0,1,2.759,2.589,22.232,22.232,0,0,1,2.2,2.588v-1.891H286.5V-26.04h2.79v3.317h6.386V-17.3h-2.015v7.5Zm8.091-10.571H283.03V-17.7h9.951Zm-16.275,4.681h-4.65v2.015h4.65Zm14.322,3.565v-3.255H284.89v3.255Zm-18.972,2.48h4.65v-2.077h-4.65ZM292.3-5.084H284.89v3.565H292.3Zm11.439-13.361A13.635,13.635,0,0,0,301.77-21a27.655,27.655,0,0,0-2.806-2.62l2.2-1.612a35.435,35.435,0,0,1,2.852,2.511,12.884,12.884,0,0,1,2.046,2.449Zm5.8-4.4v1.953h-2.542v-4.092H326.12v4.092h-2.666v-1.953Zm5.487,21.266V-4.123h-8.463v-2.17h8.463V-7.812h-6.479v-8.866h6.479v-1.55h-7.316v-2.077h7.316v-1.922h2.821v1.922h7.44v2.077h-7.44v1.55h6.7v8.866h-6.7v1.519h8.742v2.17h-8.742v2.542Zm-4-13.237v1.674h4v-1.674Zm10.943,0h-4.123v1.674h4.123ZM305.226-4.061a6.011,6.011,0,0,0,2.79,2.356,12.745,12.745,0,0,0,4.433.9q1.147.062,4.371.062,6.262,0,10.261-.279a10.259,10.259,0,0,0-.527,1.349,13.135,13.135,0,0,0-.4,1.473q-3.782.155-8.866.155-2.2,0-4.867-.062A14.726,14.726,0,0,1,307.443.93a8.369,8.369,0,0,1-3.426-2.6Q302.281.031,299.832,2.17L298.406-.682a40.967,40.967,0,0,0,4.061-3.162v-7.471h-3.72v-2.666h6.479Zm5.8-5.611h4v-1.736h-4Zm10.943,0v-1.736h-4.123v1.736Zm34.813-11.5v6.262H354.02v-3.813H333.746v3.813H331.08v-6.262h4.092a19.358,19.358,0,0,0-2.325-3.348l2.511-1.054a23.694,23.694,0,0,1,1.659,2.061,12.113,12.113,0,0,1,1.163,1.907l-.961.434h5.487a14.537,14.537,0,0,0-.93-1.953q-.62-1.116-1.271-2.108l2.511-.868a17.936,17.936,0,0,1,1.426,2.17,14.833,14.833,0,0,1,.992,2.046l-1.829.713h5.425q.775-.992,1.612-2.279a24.25,24.25,0,0,0,1.364-2.34l3.069.961q-1.643,2.2-2.914,3.658ZM344.937-9.424l-.9,2.232h10.6V2.449h-2.883V1.364H336.226V2.48h-2.759V-7.192h7.75q.124-.4.232-.806t.2-.775a5.4,5.4,0,0,1,.155-.651h-6.014v-7.285h16.213v7.285Zm-6.479-5.146v2.976h10.726V-14.57Zm13.3,13.454V-4.681H336.226v3.565Zm27.714-18.1V-16.4h-6.479v3.069h5.952v2.821h-5.952V-6.82a15.777,15.777,0,0,1,3.1,1.271,22.86,22.86,0,0,1,2.883,1.984V.124a23.8,23.8,0,0,0-5.983-3.968v1.395a5.785,5.785,0,0,1-.775,3.255,3.815,3.815,0,0,1-1.751,1.38,7.415,7.415,0,0,1-2.682.418,7.247,7.247,0,0,1-4.371-1.24,4.484,4.484,0,0,1-1.829-3.6,5.413,5.413,0,0,1,.992-3.162A4.788,4.788,0,0,1,364.7-7.037a8.277,8.277,0,0,1,3.178-.558,13.937,13.937,0,0,1,2.232.186v-3.1h-7.967V-13.33h7.967V-16.4h-8.525V-19.22h8.525v-2.542h2.883v2.542Zm-9.362,14.6a10.468,10.468,0,0,0-2.139-.248,4.739,4.739,0,0,0-2.526.6,1.993,1.993,0,0,0-.977,1.814,1.886,1.886,0,0,0,.852,1.643,3.941,3.941,0,0,0,2.279.589,2.786,2.786,0,0,0,1.767-.512,2.057,2.057,0,0,0,.744-1.5Zm14.539-12.958v-2.852h18.6v3.007a13.2,13.2,0,0,0-4.867,1.7q-5.394,3.1-6.324,6.882a8.245,8.245,0,0,0-.248,1.86,5.062,5.062,0,0,0,.434,2.108,4.693,4.693,0,0,0,1.876,2.092,7.15,7.15,0,0,0,3.022.977q1.023.093,1.829.093a18.216,18.216,0,0,0,2.666-.217V1.023a23.041,23.041,0,0,1-2.573.124q-.93,0-2.046-.062a9.34,9.34,0,0,1-5.611-2.2,7.4,7.4,0,0,1-2.573-5.766q0-.31.062-1.054a11.029,11.029,0,0,1,2.247-5.223,20.892,20.892,0,0,1,5.379-4.418ZM398.04-14.57H400.4v4.9H398.04Zm3.689,0h2.356v4.9h-2.356ZM414.191,1.891a47.734,47.734,0,0,0-3.255-3.612q-1.829-1.844-3.5-3.24l2.542-2.232q1.612,1.333,3.549,3.271t3.3,3.581ZM5.177,40.112H2.48v-7.1H6.944a13.4,13.4,0,0,0-1.069-1.8q-.667-.961-1.348-1.767l2.48-1.116A22.757,22.757,0,0,1,8.7,30.455a11.549,11.549,0,0,1,1.193,2.031l-1.116.527h5.735a15.584,15.584,0,0,0-.915-2.062q-.6-1.162-1.255-2.185l2.511-.93a18.285,18.285,0,0,1,1.488,2.34,14.645,14.645,0,0,1,1.023,2.247l-1.519.589H21.08q.806-1.054,1.643-2.4a27.372,27.372,0,0,0,1.364-2.434l3.038.961q-1.333,1.953-2.883,3.875h4.495v7.1H25.885V35.555H5.177Zm24.025,7.9H16.988v5.177a3.8,3.8,0,0,1-.372,1.86,2.226,2.226,0,0,1-1.3.961,8.893,8.893,0,0,1-2.155.357q-1.287.077-3.642.077a12.979,12.979,0,0,0-1.209-2.79q2.046.093,3.72.093l1.24-.031a1.2,1.2,0,0,0,.62-.155.571.571,0,0,0,.155-.465V48.017H1.953V45.351h12.09V43.212H15.5A22.868,22.868,0,0,0,19,40.887H7.223V38.376H21.762l.62-.155,1.86,1.395a23.961,23.961,0,0,1-3.317,2.9,28.34,28.34,0,0,1-3.937,2.433v.4H29.2ZM60.326,52.7v2.79H32.8V52.7H45.074v-7.13H36.239V42.809h8.835v-6.2H38.192a26.55,26.55,0,0,1-3.069,4.805,12.435,12.435,0,0,0-1.24-.9q-.806-.527-1.4-.837A19.243,19.243,0,0,0,35.758,34.8a34.994,34.994,0,0,0,2.34-6.34l2.976.682a48.012,48.012,0,0,1-1.612,4.65h5.611V28.022H48.05v5.766H58.838v2.821H48.05v6.2h9.641v2.759H48.05V52.7ZM91.295,52.6v2.821H63.829V52.6h12.09V45.754H66.712v-2.79h9.207V36.795H65.224V33.974h13.02a31.574,31.574,0,0,0-2.34-2.216q-1.38-1.194-2.651-2.093l2.356-1.643q1.55,1.054,3.209,2.434a23.866,23.866,0,0,1,2.589,2.434l-1.519,1.085h9.858v2.821H79.081v6.169h9.3v2.79h-9.3V52.6Zm11.873-23.684a51.407,51.407,0,0,1-2.6,6.262v21.2H97.805V39.957q-1.178,1.705-2.294,3.038a13.013,13.013,0,0,0-.744-1.5,14.35,14.35,0,0,0-.868-1.41,27.19,27.19,0,0,0,3.689-5.317,40.467,40.467,0,0,0,2.883-6.619Zm12.059,7.719a37.85,37.85,0,0,0,3.5,7.254,22.658,22.658,0,0,0,4.495,5.425,11.052,11.052,0,0,0-1.162,1.054,9.431,9.431,0,0,0-1.038,1.24,25.049,25.049,0,0,1-4.061-5.487,47.987,47.987,0,0,1-3.348-7.285v9.517H118.2v2.6h-4.588v5.3h-2.821v-5.3h-4.619v-2.6h4.619V39.027a44.79,44.79,0,0,1-3.425,7.223,25.6,25.6,0,0,1-4.2,5.456,7.981,7.981,0,0,0-.914-1.147,9.261,9.261,0,0,0-1.132-1.054,21.93,21.93,0,0,0,4.573-5.456,39.554,39.554,0,0,0,3.58-7.409h-6.789V33.912h8.308V28.146h2.821v5.766h8.866V36.64Zm11.439-.217V33.571h18.6v3.007a13.2,13.2,0,0,0-4.867,1.7q-5.394,3.1-6.324,6.882a8.245,8.245,0,0,0-.248,1.86,5.062,5.062,0,0,0,.434,2.108,4.693,4.693,0,0,0,1.876,2.092,7.15,7.15,0,0,0,3.022.977q1.023.093,1.829.093a18.216,18.216,0,0,0,2.666-.217v2.945a23.041,23.041,0,0,1-2.573.124q-.93,0-2.046-.062a9.34,9.34,0,0,1-5.611-2.2,7.4,7.4,0,0,1-2.573-5.766q0-.31.062-1.054a11.029,11.029,0,0,1,2.248-5.223,20.892,20.892,0,0,1,5.378-4.418Zm13.392,3.007h2.356v4.9h-2.356Zm3.689,0H146.1v4.9h-2.356Zm20.925-11.563a34.328,34.328,0,0,0,6.076,6.758,32.957,32.957,0,0,0,7.347,4.9,13.683,13.683,0,0,0-1.922,2.573,45.221,45.221,0,0,1-7.238-5.255,33.6,33.6,0,0,1-5.6-6.092,32.372,32.372,0,0,1-5.286,6.092,40.7,40.7,0,0,1-7.238,5.379,9.3,9.3,0,0,0-.806-1.163,13.4,13.4,0,0,0-1.023-1.162,35.293,35.293,0,0,0,7.424-5.5,29.352,29.352,0,0,0,5.316-6.525ZM165.2,45.94v7.037h11.408v2.6H150.443v-2.6H154.1V41.848h2.821V52.977h5.239V36.392H165.2v6.944h8.587v2.6Zm15.624-16h27.342V32.61H195.827v3.038h5.983V49.505H187.085V35.648h5.859V32.61H180.823ZM204.445,51.83V35.245h2.821V56.356h-2.821v-1.8h-19.84v1.86h-2.821V35.245h2.821V51.83ZM189.5,38.035v3.379h3.627V38.035Zm9.8,3.379V38.035h-3.658v3.379Zm-9.8,2.294v3.41h3.627v-3.41Zm9.8,3.41v-3.41h-3.658v3.41Zm19.995-5.363h4.774V46.5h-4.774Zm32.4,6.851q3.224,4.371,11.129,5.394a8.89,8.89,0,0,0-1.736,2.511,20.805,20.805,0,0,1-7.564-2.651,13.894,13.894,0,0,1-4.8-5.069,12.894,12.894,0,0,1-4.185,4.309,27.478,27.478,0,0,1-7.719,3.317,9.326,9.326,0,0,0-.775-1.162,8.869,8.869,0,0,0-.992-1.132q7.626-1.953,10.416-5.518h-9.982V46.1h11.315a12.14,12.14,0,0,0,.465-2.48h-8.277V41.228h8.308V38.872h-8.8v-1.8h-2.635v-6.2h11.5V28.022h2.976v2.852h11.532v6.2H259.47v1.8H250.2v2.356h8.773v2.387h-8.8a16.3,16.3,0,0,1-.372,2.48h12.648v2.511Zm-13.02-12.121h8.618v-2.2H250.2v2.2h8.711V33.416H238.669Zm51.46,17.391a1.588,1.588,0,0,0,1.007-.264,1.611,1.611,0,0,0,.465-.961,18.02,18.02,0,0,0,.233-2.186,7.292,7.292,0,0,0,1.147.6,7.011,7.011,0,0,0,1.24.418,11.984,11.984,0,0,1-.573,2.945,2.667,2.667,0,0,1-1.163,1.457,4.483,4.483,0,0,1-2.17.434h-5.859a7.685,7.685,0,0,1-2.6-.341,2.119,2.119,0,0,1-1.256-1.163,6.285,6.285,0,0,1-.356-2.4V45.568l-1.612.775-1.054-2.387,2.666-1.24v-4.4q-.527.713-.961,1.209a12.064,12.064,0,0,0-1.039-1.039q-.7-.635-1.132-.976a13.918,13.918,0,0,0,1.519-1.984h-6.913l-.093,3.844H277.3l-.031,1.209q-.093,5.487-.2,8.308t-.326,4.309a4.687,4.687,0,0,1-.62,2.015,2.242,2.242,0,0,1-.775.806,2.687,2.687,0,0,1-1.085.31,12.5,12.5,0,0,1-2.015.124l-1.209-.031a8.127,8.127,0,0,0-.264-1.348,5.5,5.5,0,0,0-.48-1.224q1.147.093,2.6.093h.124a.9.9,0,0,0,.806-.434,7.919,7.919,0,0,0,.512-2.961q.171-2.5.264-8.541h-3.131a49.29,49.29,0,0,1-1.24,8.37,17.122,17.122,0,0,1-2.7,6.045,8.745,8.745,0,0,0-.977-1.069,6.421,6.421,0,0,0-1.132-.883,14.268,14.268,0,0,0,2.217-4.914,36.3,36.3,0,0,0,1.023-6.215q.264-3.286.326-7.812h-3.193V32.858h5.146V28.022H273.7v4.836h5.115v2.356a23.917,23.917,0,0,0,2.79-7.254l2.852.589q-.527,2.077-1.054,3.565h10.416v2.635h-11.5a20.606,20.606,0,0,1-1.891,3.286h2.387v3.472l2.356-1.085V35.741h2.449v3.534L290.377,38l.248-.186.5-.341,1.767.651-.124.4q0,7.967-.124,8.835a2.057,2.057,0,0,1-.388,1.224,2.092,2.092,0,0,1-.977.667,6.659,6.659,0,0,1-2.418.248,11.241,11.241,0,0,0-.2-1.147,4.05,4.05,0,0,0-.357-1.023q.5.031,1.364.031a.551.551,0,0,0,.372-.109.753.753,0,0,0,.186-.418q.093-.558.093-6.014l-2.7,1.271v8.959h-2.449V43.243l-2.356,1.116V52.45a2.237,2.237,0,0,0,.139.93.777.777,0,0,0,.512.388,4.946,4.946,0,0,0,1.24.108Zm19.53-16.027h-11.9V35h11.9V31.99h2.914V35h4.464v2.852h-4.464v6.634a11.02,11.02,0,0,1,.9,3.41,14.992,14.992,0,0,1-.449,4.542,11.511,11.511,0,0,1-1.69,3.828h-3.41a11.782,11.782,0,0,0,1.751-2.96,9.366,9.366,0,0,0,.635-2.4l-.217-.093a7.241,7.241,0,0,1-2.216,1.535,6.115,6.115,0,0,1-2.558.6,5.224,5.224,0,0,1-5.007-2.914,7.2,7.2,0,0,1-.728-3.317,6.683,6.683,0,0,1,.961-3.6,5.828,5.828,0,0,1,2.139-2.092,6.226,6.226,0,0,1,3.038-.7,5.854,5.854,0,0,1,3.937,1.271ZM310,46.56a3.629,3.629,0,0,0-.527-1.643,4.049,4.049,0,0,0-1.426-1.441,3.934,3.934,0,0,0-2.108-.574,3.251,3.251,0,0,0-2.434,1.007,3.524,3.524,0,0,0-.977,2.557,3.846,3.846,0,0,0,.868,2.651,2.92,2.92,0,0,0,2.294.977,4.581,4.581,0,0,0,.9-.093,5.355,5.355,0,0,0,2.294-1.116,3.858,3.858,0,0,0,.822-1.209A2.981,2.981,0,0,0,310,46.56Zm13.888-13.175h12.9v2.976l-6.665,5.27a15.419,15.419,0,0,1,3.131-.341,7.634,7.634,0,0,1,2.418.31,5.7,5.7,0,0,1,3.162,2.31,8.029,8.029,0,0,1,1.116,4.231,7.479,7.479,0,0,1-4.092,6.882A11.464,11.464,0,0,1,330.77,56.2a10.676,10.676,0,0,1-2.976-.4,4.826,4.826,0,0,1-2.635-1.689,4.5,4.5,0,0,1-.992-2.868,3.48,3.48,0,0,1,.527-1.767A3.736,3.736,0,0,1,326.244,48a4.937,4.937,0,0,1,2.294-.512,6.777,6.777,0,0,1,1.116.093,6.147,6.147,0,0,1,2.992,1.472,10.107,10.107,0,0,1,2.154,3.116,4.42,4.42,0,0,0,1.566-1.705A4.75,4.75,0,0,0,337,48.141a4.08,4.08,0,0,0-1.38-3.395,6.433,6.433,0,0,0-4.2-1.038,12.392,12.392,0,0,0-4.185.914,12.645,12.645,0,0,0-3.286,2.124L321.718,48.7V44.917l10.788-8.742q-1.054,0-1.953.031l-6.665.031Zm5.177,16.585a2.288,2.288,0,0,0-1.488.31,1.157,1.157,0,0,0-.527.992,1.78,1.78,0,0,0,.465,1.147,3.212,3.212,0,0,0,1.364.9,6.89,6.89,0,0,0,1.736.217,3.162,3.162,0,0,0,1.612-.31,5.552,5.552,0,0,0-1.286-2.247A3.465,3.465,0,0,0,329.065,49.97ZM11.005,85.556h6.572v2.573H11.005V90.7H17.05v6.076a3.853,3.853,0,0,1-.2,1.38,1.5,1.5,0,0,1-.728.79,3.251,3.251,0,0,1-1.255.341q-.729.062-2.248.062a6.455,6.455,0,0,0-.264-1.132,6.562,6.562,0,0,0-.45-1.1,18.4,18.4,0,0,0,2.232,0,.3.3,0,0,0,.372-.372v-3.5h-3.5v6.417q1.116.651,3.146,2t3.208,2.155l-1.519,2.48q-1.209-1.147-4.836-3.906v8H8.37v-8.525A31.659,31.659,0,0,1,5.487,105.8a17.6,17.6,0,0,1-3.131,2.914,17.3,17.3,0,0,0-1.4-2.6A20.776,20.776,0,0,0,5.146,102.3,22.06,22.06,0,0,0,8.37,97.429V93.244H5.084v5.983H2.573V90.7h5.8V88.129H1.643V85.556H8.37V82.208h2.635Zm17.484,21.3a4.756,4.756,0,0,1-.326,1.984,2.235,2.235,0,0,1-1.1,1.054,6.164,6.164,0,0,1-2,.45q-1.256.109-3.333.077a10.039,10.039,0,0,0-.372-1.41q-.279-.853-.558-1.5,1.085.062,2.976.062h1.178a.961.961,0,0,0,.573-.186.687.687,0,0,0,.17-.527V82.611h2.79ZM21.886,85.4v17.112H19.158V85.4Zm37.479,4.96a43.374,43.374,0,0,1-2.759,12.307,14.865,14.865,0,0,0,4.526,5.487,13.707,13.707,0,0,0-.961,1.1,8.06,8.06,0,0,0-.806,1.162,15.939,15.939,0,0,1-4.092-5.084,18.246,18.246,0,0,1-4.557,5.177,15.082,15.082,0,0,0-1.705-1.612,2.637,2.637,0,0,1-.248.372,1.806,1.806,0,0,1-.7.573,3.247,3.247,0,0,1-.945.233q-.744.062-1.612.062-.837,0-1.3-.031a4.693,4.693,0,0,0-.171-1.178,4.263,4.263,0,0,0-.45-1.116,17.843,17.843,0,0,0,2.2.124,1.029,1.029,0,0,0,.806-.279,2.483,2.483,0,0,0,.341-1.147q.124-.9.217-2.79H44.423a10.432,10.432,0,0,1-4.557,6.944,14.689,14.689,0,0,0-1.922-1.705,9.514,9.514,0,0,0,4.309-8.339v-.961H39.06V97.305h4.588V95.166H40.269V85h2.976a25.521,25.521,0,0,0,.682-3.038L47,82.332l-.4,1.085Q46.159,84.626,46,85h3.937v7.471A40.036,40.036,0,0,0,52.39,81.96l2.666.465q-.4,2.821-.93,5.3h6.7v2.635Zm-21.173-2.7a14.22,14.22,0,0,0-2.062-1.689,25.991,25.991,0,0,0-2.619-1.628L35.123,82.3a19.4,19.4,0,0,1,2.7,1.473,11.976,11.976,0,0,1,2.108,1.659Zm4.433-.589V89.09h4.867V87.075Zm10.726,3.658a45.758,45.758,0,0,0,1.829,8.525,45.07,45.07,0,0,0,1.612-8.9H53.444Zm-16.337,4.96a13.989,13.989,0,0,0-2.124-1.659,20.215,20.215,0,0,0-2.65-1.5l1.612-2.108a29.846,29.846,0,0,1,2.79,1.457,11.6,11.6,0,0,1,2.077,1.488Zm5.611-4.65v2.046h4.867V91.043Zm7.161,10.323-.062.992a31.113,31.113,0,0,1-.527,5.952,15.721,15.721,0,0,0,4.743-5.89,40.221,40.221,0,0,1-2.046-7.781,20.191,20.191,0,0,1-1.24,2.325,16.044,16.044,0,0,0-1.612-1.8H46.314v2.139H51v2.356H44.7v1.705Zm-10.54-1.085q-1.736,5.053-3.875,9.8l-2.6-1.488q.961-1.891,2.108-4.6t2.046-5.223ZM82,97.491a9.575,9.575,0,0,0-.822-3.6,6.186,6.186,0,0,0-2-2.5,4.911,4.911,0,0,0-2.945-.914,75.753,75.753,0,0,1-.465,9.191,15.091,15.091,0,0,1-1.783,5.89,4.189,4.189,0,0,1-3.8,2.186,4.458,4.458,0,0,1-4.138-2.34,12.541,12.541,0,0,1-1.38-6.185,13.568,13.568,0,0,1,1.24-5.642,11.261,11.261,0,0,1,3.333-4.247,9.287,9.287,0,0,1,4.82-1.922q.372-.031,1.116-.031a10.036,10.036,0,0,1,5.115,1.256,8.692,8.692,0,0,1,3.395,3.611,13.375,13.375,0,0,1,1.38,5.58,14.009,14.009,0,0,1-1.007,5.6,10.592,10.592,0,0,1-3.085,4.309,7.583,7.583,0,0,1-4.681,1.751v-2.883a4.787,4.787,0,0,0,2.852-1.194,7.494,7.494,0,0,0,2.077-3.131A13.415,13.415,0,0,0,82,97.491ZM70.06,104.838q1.7.093,2.48-3.7a45.231,45.231,0,0,0,.775-8.943l-.031-1.674a5.694,5.694,0,0,0-2.929,1.6,8.78,8.78,0,0,0-2.046,3.178A10.776,10.776,0,0,0,67.58,99.2a10.571,10.571,0,0,0,.635,4.061A2.223,2.223,0,0,0,70.06,104.838ZM90.923,91.477V88.625h5.084q.217-1.891.248-2.542h2.976a18.6,18.6,0,0,0-.341,2.542h11.067v2.852H98.7q-.093.93-.093,1.922l.031,1.581q.372-.093.961-.217a1.248,1.248,0,0,0,.341-.031,17.593,17.593,0,0,1,2.139-.155,10.621,10.621,0,0,1,3.069.4,7.564,7.564,0,0,1,3.844,2.5,7.381,7.381,0,0,1,1.581,4.572,9.78,9.78,0,0,1-.682,3.875,12.106,12.106,0,0,1-1.472,2.6,9.5,9.5,0,0,1-2,1.891h-4.185a15.087,15.087,0,0,0,3.906-4.014,8.3,8.3,0,0,0,1.457-4.387,4.318,4.318,0,0,0-2.728-4.185,25.528,25.528,0,0,1-3.844,8.649,9.085,9.085,0,0,1-2.635,2.48,6.168,6.168,0,0,1-2.945.992,3.687,3.687,0,0,1-.558.031,5.4,5.4,0,0,1-1.767-.31,3.959,3.959,0,0,1-2.2-2.093,8.085,8.085,0,0,1-.682-4.2,9.277,9.277,0,0,1,5.487-7.719V93.647l.062-2.17Zm8.587,12.648a25.054,25.054,0,0,0,1.628-3.379,23.481,23.481,0,0,0,1.038-3.5A7.163,7.163,0,0,0,101,97.15a6.611,6.611,0,0,0-2.325.372A24.142,24.142,0,0,0,99.51,104.125Zm-3.782,2.883a1.919,1.919,0,0,0,.666-.109,2.9,2.9,0,0,0,.791-.542,15.433,15.433,0,0,1-.806-3.069q-.279-1.7-.465-4.557a7.306,7.306,0,0,0-1.8,1.922,6.834,6.834,0,0,0-1.023,2.666,6.166,6.166,0,0,0-.031.713,3.843,3.843,0,0,0,.558,2.17,1.848,1.848,0,0,0,1.643.837A2.568,2.568,0,0,0,95.728,107.008Zm22.1-19.623h12.9v2.976l-6.665,5.27a15.419,15.419,0,0,1,3.131-.341,7.634,7.634,0,0,1,2.418.31,5.7,5.7,0,0,1,3.162,2.31,8.029,8.029,0,0,1,1.116,4.231,7.479,7.479,0,0,1-4.092,6.882,11.464,11.464,0,0,1-5.084,1.178,10.676,10.676,0,0,1-2.976-.4,4.826,4.826,0,0,1-2.635-1.689,4.5,4.5,0,0,1-.992-2.868,3.48,3.48,0,0,1,.527-1.767,3.736,3.736,0,0,1,1.55-1.472,4.937,4.937,0,0,1,2.294-.512,6.777,6.777,0,0,1,1.116.093,6.147,6.147,0,0,1,2.992,1.472,10.107,10.107,0,0,1,2.155,3.116,4.42,4.42,0,0,0,1.566-1.7,4.75,4.75,0,0,0,.635-2.325,4.08,4.08,0,0,0-1.38-3.395,6.433,6.433,0,0,0-4.2-1.038,12.392,12.392,0,0,0-4.185.914,12.645,12.645,0,0,0-3.286,2.124l-2.232,1.953V98.917l10.788-8.742q-1.054,0-1.953.031l-6.665.031Zm5.177,16.585a2.288,2.288,0,0,0-1.488.31,1.157,1.157,0,0,0-.527.992,1.78,1.78,0,0,0,.465,1.147,3.212,3.212,0,0,0,1.364.9,6.889,6.889,0,0,0,1.736.217,3.162,3.162,0,0,0,1.612-.31,5.552,5.552,0,0,0-1.287-2.247A3.465,3.465,0,0,0,123.008,103.97ZM139.345,99.2h8.091l-.4-5.952h-7.688V90.3h7.471l-.279-4.216h3.038l.31,4.216h8.494v2.945h-8.308l.4,5.952h7.9V102.2h-7.657l.558,8.06h-3.069l-.558-8.06h-8.308Zm28.4,11.036L166.067,96.5l-3.1.093v-2.7l2.821-.062-.465-3.937h2.728l.465,3.875,10.695-.341v3.224a10,10,0,0,1-1.829,4.092,14.965,14.965,0,0,1-2.325,2.557,9.289,9.289,0,0,1-2.573,1.628v-3.038a9.313,9.313,0,0,0,4-5.642l-7.688.217,1.674,13.764Zm16.554-22.754h7.936v3.038h-7.936Zm18.6,5.208a23.829,23.829,0,0,1-3.6,7.719A21.606,21.606,0,0,1,194,105.8a21.3,21.3,0,0,1-4.82,2.5,23.164,23.164,0,0,1-4.883,1.132v-3.193a16.237,16.237,0,0,0,4.123-.837,14.6,14.6,0,0,0,4.03-2.232,20.587,20.587,0,0,0,7.285-10.478Zm23.777-8.835a1.483,1.483,0,0,0-.45-1.116,1.524,1.524,0,0,0-1.1-.434,1.472,1.472,0,0,0-1.085.434,1.511,1.511,0,0,0-.434,1.116,1.483,1.483,0,0,0,1.519,1.519,1.524,1.524,0,0,0,1.1-.434A1.446,1.446,0,0,0,226.672,83.851ZM222.7,81.4a3.436,3.436,0,0,1,4.852,4.867,3.342,3.342,0,0,1-2.434.992,3.387,3.387,0,0,1-3.41-3.41A3.394,3.394,0,0,1,222.7,81.4Zm-14.911,27.683q.4-1.054,1.333-3.751a42.967,42.967,0,0,0,1.953-12.927v-5.58h3.069v5.58a57.734,57.734,0,0,1-.434,7.44,36.214,36.214,0,0,1-1.007,4.976q-.6,2.092-1.442,4.262Zm15.9,0a19.088,19.088,0,0,1-1.488-3.844A47.192,47.192,0,0,1,220.6,92.407v-5.58h3.069v5.58a40.871,40.871,0,0,0,.62,7.254,50.887,50.887,0,0,0,2.666,9.424Zm8.928-18.817V87.261h15.9a25.875,25.875,0,0,1-1.751,5.41,39.726,39.726,0,0,1-3.115,5.781,46.708,46.708,0,0,0,2.96,3.844,35.12,35.12,0,0,0,3.333,3.224v3.844a31.185,31.185,0,0,1-4.092-3.658q-1.891-2.015-4-4.712a38.457,38.457,0,0,1-4.433,4.681,29.206,29.206,0,0,1-3.208,2.5,22.7,22.7,0,0,1-2.743,1.6v-3.41a29.729,29.729,0,0,0,4.588-3.41A31.117,31.117,0,0,0,244.4,90.268Zm23.188-3.131h16.12V90.02h-16.12Zm-.868,10.354V94.546H273.3a16.784,16.784,0,0,1-1.1,6.014,11.436,11.436,0,0,1-3.022,4.464,14.914,14.914,0,0,1-4.061,2.728,18.82,18.82,0,0,1-3.488,1.3q-1.689.434-3.828.775v-3.162a20.2,20.2,0,0,0,6.262-1.86,11.369,11.369,0,0,0,3.612-2.852,9.421,9.421,0,0,0,2.092-4.464Zm42.067-10.819a30.474,30.474,0,0,1-2.7,4.185,26.483,26.483,0,0,1-3.379,3.844v15.717h-3.1V97.4a38.865,38.865,0,0,1-9.486,5.363V99.6a40.246,40.246,0,0,0,5.146-2.7,27.426,27.426,0,0,0,5.27-4.231,28.792,28.792,0,0,0,4.557-6ZM302,90.454v-3.1h17.267v3.658a22.073,22.073,0,0,1-1.194,7.021,16.852,16.852,0,0,1-3.27,5.627,15.258,15.258,0,0,1-3.782,3.131,23.044,23.044,0,0,1-7.006,2.542v-3.069a19.43,19.43,0,0,0,4-1.256,14.18,14.18,0,0,0,3.6-2.34,13.413,13.413,0,0,0,3.286-4.712,21.153,21.153,0,0,0,1.364-7.5Z" transform="translate(233 4241)"/>
    <path id="キャッチ上のハイライト" d="M0,0H295V10H0Z" transform="translate(234 4291)" fill="#ff8c3c" style="mix-blend-mode: multiply;isolation: isolate"/>
  </g>
</svg>
