<svg xmlns="http://www.w3.org/2000/svg" width="362.204" height="140.164" viewBox="0 0 362.204 140.164">
  <g id="text05" transform="translate(-228 -3032.836)">
    <path id="パス_2969" data-name="パス 2969" d="M17.453-15.221V2.511h-3.1V-12.648a39.309,39.309,0,0,1-5.3,8.184A33.551,33.551,0,0,1,2.263,1.8V-1.953A33.406,33.406,0,0,0,8.2-8.076a27.923,27.923,0,0,0,3.983-7.146H2.325v-2.945H14.353v-3.875h3.1v3.875h3.534v2.945ZM29.388-8.06H26.846L25.327-17.2h2.418Zm5.053,0H31.93L30.38-17.2H32.8Zm-7.1,7.13a11.205,11.205,0,0,0,4.914-2.341,12.454,12.454,0,0,0,3.487-4.449,26.283,26.283,0,0,0,1.674-4.526,35.143,35.143,0,0,0,.9-4.9h2.7a35.055,35.055,0,0,1-.62,4.232,29.671,29.671,0,0,1-1.271,4.293,17.907,17.907,0,0,1-2.573,4.65,15.305,15.305,0,0,1-4.185,3.86,13.734,13.734,0,0,1-5.022,1.938ZM54.064-22.041a14.06,14.06,0,0,1-.341,1.628,15.891,15.891,0,0,1-.5,1.6H63.736v2.945a19.9,19.9,0,0,1-1.519,7.13,15.805,15.805,0,0,1-3.441,5.3,21.229,21.229,0,0,1-4.9,3.627A25.582,25.582,0,0,1,48.143,2.48V-.682a23.682,23.682,0,0,0,3.922-1.566,17.851,17.851,0,0,0,3.611-2.527,15.076,15.076,0,0,0,3.457-4.51,17.261,17.261,0,0,0,1.5-6.588H52.049a22.754,22.754,0,0,1-6.2,7.037V-12.8a16.369,16.369,0,0,0,3.193-4.185,18,18,0,0,0,1.86-5.053Zm15.779,4.309v-3.007h15.9a25.876,25.876,0,0,1-1.751,5.41,39.726,39.726,0,0,1-3.116,5.781A46.707,46.707,0,0,0,83.84-5.7,35.122,35.122,0,0,0,87.172-2.48V1.364A31.185,31.185,0,0,1,83.08-2.294q-1.891-2.015-4-4.712a38.456,38.456,0,0,1-4.433,4.681,29.207,29.207,0,0,1-3.209,2.5,22.7,22.7,0,0,1-2.743,1.6v-3.41a29.729,29.729,0,0,0,4.588-3.41,31.117,31.117,0,0,0,8.339-12.679Zm22.351.186v-3.1h17.267v3.658a22.072,22.072,0,0,1-1.193,7.022A16.853,16.853,0,0,1,105-4.34a15.257,15.257,0,0,1-3.782,3.131,23.045,23.045,0,0,1-7.006,2.542V-1.736a19.429,19.429,0,0,0,4-1.256,14.18,14.18,0,0,0,3.6-2.341,13.413,13.413,0,0,0,3.286-4.712,21.153,21.153,0,0,0,1.364-7.5Zm35.526,2.759h2.945v2.635H127.72V2.635h-2.759V-9.7a34.122,34.122,0,0,1-4.449,6.7,27.965,27.965,0,0,1-5.627,5.146V-1.209A27.664,27.664,0,0,0,119.8-6.293a24.828,24.828,0,0,0,3.333-5.859h-8.184v-2.635h10.013v-3.224h2.759Zm7.006,3.131h13.392v3.069H134.726ZM160.27-22.01h2.356v4.9H160.27Zm3.689,0h2.356v4.9h-2.356Zm6.014,11.594H157.015V2.263h-3.224v-24.18h3.224v8.432h12.958Zm20.336-4.03a26.817,26.817,0,0,0,4.634,8.7A18.278,18.278,0,0,0,202.182-.31,10.274,10.274,0,0,0,201.02.946a9.116,9.116,0,0,0-.977,1.442A19.8,19.8,0,0,1,192.9-3.178a30.53,30.53,0,0,1-4.821-8.727A21.519,21.519,0,0,1,176.111,2.387a7.239,7.239,0,0,0-.976-1.271A11.1,11.1,0,0,0,173.91-.031a18.581,18.581,0,0,0,7.858-5.952,22.454,22.454,0,0,0,3.767-8.463H174.53v-2.976h11.532q.217-1.767.279-3.441t.093-4.03v-1.085h3.131q-.031,2.666-.109,4.6t-.326,3.952h12.493v2.976Zm18.383.558h-2.7v-7.1h4.464a13.394,13.394,0,0,0-1.07-1.8q-.667-.961-1.348-1.767l2.48-1.116a22.759,22.759,0,0,1,1.689,2.124,11.549,11.549,0,0,1,1.193,2.031l-1.116.527h5.735a15.584,15.584,0,0,0-.914-2.062q-.6-1.162-1.256-2.185l2.511-.93a18.283,18.283,0,0,1,1.488,2.34,14.645,14.645,0,0,1,1.023,2.247l-1.519.589H224.6q.806-1.054,1.643-2.4a27.373,27.373,0,0,0,1.364-2.434l3.038.961q-1.333,1.953-2.883,3.875h4.495v7.1H229.4v-4.557H208.692Zm24.025,7.905H220.5V-.806a3.8,3.8,0,0,1-.372,1.86,2.226,2.226,0,0,1-1.3.961,8.893,8.893,0,0,1-2.154.357q-1.286.077-3.643.077a12.98,12.98,0,0,0-1.209-2.79q2.046.093,3.72.093l1.24-.031a1.2,1.2,0,0,0,.62-.155.571.571,0,0,0,.155-.465V-5.983h-12.09V-8.649h12.09v-2.139h1.457a22.868,22.868,0,0,0,3.5-2.325h-11.78v-2.511h14.539l.62-.155,1.86,1.395a23.962,23.962,0,0,1-3.317,2.9A28.339,28.339,0,0,1,220.5-9.052v.4h12.214Zm4.247-8.463q1.116-.558,3.1-1.333l-.868-5.983h3.038q.062,1.116.264,2.527t.264,1.813a6.812,6.812,0,0,1,.124.806,20.221,20.221,0,0,1,4.557-.806,17.018,17.018,0,0,0-.9-4.495h3.038a16.985,16.985,0,0,1,.6,2.2,19.237,19.237,0,0,1,.294,2.356q6.882.93,6.882,6.479a7.44,7.44,0,0,1-.775,3.534,4.655,4.655,0,0,1-2.17,2.108,7.649,7.649,0,0,1-3.41.744,13.058,13.058,0,0,1-2.542-.279V-7.5a12.523,12.523,0,0,0,2.046.186q3.937,0,3.937-3.627A2.926,2.926,0,0,0,252.7-13.78a10.667,10.667,0,0,0-4.635-.852,16.452,16.452,0,0,0-4.743.868q.868,4.65,1.674,8.184t2.015,7.843h-3.069q-1.953-7.13-3.441-15.19l-3.534,1.767ZM2.914,33.788H19.592v3.069H2.914ZM20.243,51.613v3.069H2.325V51.613Zm4.681.682H35.092l.744-12.09H25.792V37.446H38.843l-.961,14.849h3.286v2.759H24.924Zm20.584-9.951H58.9v3.069H45.508Zm18.786.093H77.965V36.485H63.519V33.416H81.158V54.651H63.519V51.582H77.965V45.289H64.294Zm22.32-.093h13.392v3.069H86.614Zm26.04-10.385a14.058,14.058,0,0,1-.341,1.628,15.891,15.891,0,0,1-.5,1.6h10.509v2.945a19.9,19.9,0,0,1-1.519,7.13,15.805,15.805,0,0,1-3.441,5.3,21.229,21.229,0,0,1-4.9,3.627,25.582,25.582,0,0,1-5.735,2.294V53.318a23.681,23.681,0,0,0,3.922-1.566,17.851,17.851,0,0,0,3.612-2.527,15.076,15.076,0,0,0,3.456-4.51,17.261,17.261,0,0,0,1.5-6.588h-8.587a22.754,22.754,0,0,1-6.2,7.037V41.2a16.369,16.369,0,0,0,3.193-4.185,18,18,0,0,0,1.86-5.053Zm37.293-3.534h2.883V56.108h-2.883Zm-14.818,9.7a48.524,48.524,0,0,1-.449,6.9,21.343,21.343,0,0,1-1.844,6.076,16.417,16.417,0,0,1-4.061,5.316,6.088,6.088,0,0,0-.9-1.147,13.247,13.247,0,0,0-1.147-1.085,14.524,14.524,0,0,0,3.55-4.7,18.836,18.836,0,0,0,1.612-5.332,42.855,42.855,0,0,0,.387-6.03v-9.61h2.852Zm5.828-8.928h2.821V54.372h-2.821Zm-9.889,7.006q-1.116,6.107-2.666,8.649l-2.48-1.023a17.458,17.458,0,0,0,1.628-3.8,30.568,30.568,0,0,0,1.038-4.51Zm15.066-.4a39.826,39.826,0,0,1,2.092,4.014,20.5,20.5,0,0,1,1.286,3.518l-2.356,1.3a23.027,23.027,0,0,0-1.256-3.7,39.317,39.317,0,0,0-1.937-4.014Zm-8.463.279a37.638,37.638,0,0,1,1.55,4.061,23.492,23.492,0,0,1,.9,3.627l-2.48,1.116a24.367,24.367,0,0,0-.837-3.7,44.406,44.406,0,0,0-1.457-4.2Zm46.779-2.356v2.852H158.689V33.726h11.222V27.991h3.007v5.735Zm.93,18.569v2.883H157.7V52.295h15.469a71.031,71.031,0,0,0,2.2-6.975q1.085-4.061,1.705-7.5l3.286.62Q179.49,42,178.374,45.77t-2.17,6.525Zm-19.871-1.271a39.882,39.882,0,0,0-.915-5.967,46.105,46.105,0,0,0-1.844-6.34l2.728-.744a45.274,45.274,0,0,1,1.953,6.278,41.193,41.193,0,0,1,1.023,6Zm39.277-11.47a26.817,26.817,0,0,0,4.634,8.7,18.278,18.278,0,0,0,7.238,5.44,10.274,10.274,0,0,0-1.162,1.256,9.116,9.116,0,0,0-.977,1.442,19.8,19.8,0,0,1-7.145-5.565,30.53,30.53,0,0,1-4.821-8.726,21.519,21.519,0,0,1-11.966,14.291,7.239,7.239,0,0,0-.976-1.271,11.1,11.1,0,0,0-1.225-1.147,18.581,18.581,0,0,0,7.858-5.952,22.454,22.454,0,0,0,3.767-8.463H189.007V36.578h11.532q.217-1.767.279-3.441t.093-4.03V28.022h3.131q-.031,2.666-.109,4.6t-.326,3.952H216.1v2.976Zm18.383.558h-2.7v-7.1h4.464a13.394,13.394,0,0,0-1.07-1.8q-.667-.961-1.348-1.767L225,28.332a22.759,22.759,0,0,1,1.689,2.124,11.549,11.549,0,0,1,1.194,2.031l-1.116.527H232.5a15.584,15.584,0,0,0-.914-2.062q-.6-1.162-1.256-2.185l2.511-.93a18.287,18.287,0,0,1,1.488,2.34,14.645,14.645,0,0,1,1.023,2.247l-1.519.589h5.239q.806-1.054,1.643-2.4a27.373,27.373,0,0,0,1.364-2.434l3.038.961q-1.333,1.953-2.883,3.875h4.495v7.1h-2.852V35.555H223.169Zm24.025,7.9H234.98v5.177a3.8,3.8,0,0,1-.372,1.86,2.226,2.226,0,0,1-1.3.961,8.893,8.893,0,0,1-2.154.357q-1.286.077-3.643.077a12.978,12.978,0,0,0-1.209-2.79q2.046.093,3.72.093l1.24-.031a1.2,1.2,0,0,0,.62-.155.571.571,0,0,0,.155-.465V48.017h-12.09V45.351h12.09V43.212h1.457a22.868,22.868,0,0,0,3.5-2.325h-11.78V38.376h14.539l.62-.155,1.86,1.395a23.962,23.962,0,0,1-3.317,2.9,28.339,28.339,0,0,1-3.937,2.433v.4h12.214Zm4.309-9.889V35.307h3.627q.4-2.015.527-3.1h3.007q-.372,2.046-.589,3.1h3.813v2.821h-4.247q-2.325,10.385-3.069,12.8h-3.1q2.387-8.618,3.162-12.8Zm12.958-2.883q1.116-.093,2.449-.093a30.678,30.678,0,0,1,3.844.217v2.852a31.448,31.448,0,0,0-3.41-.186v7.843a27.093,27.093,0,0,1,3.565,1.581v3.472a19.319,19.319,0,0,0-3.565-2.046V51.83a8.323,8.323,0,0,1-.171,1.938,3.613,3.613,0,0,1-.511,1.162A4.1,4.1,0,0,1,263,56.573a8.287,8.287,0,0,1-2.635-.4,5.058,5.058,0,0,1-2.635-1.86,5.459,5.459,0,0,1-.93-3.255,5.66,5.66,0,0,1,1.751-4.355,6.406,6.406,0,0,1,4.542-1.628,11.281,11.281,0,0,1,1.395.093Zm-1.829,18.538a2.368,2.368,0,0,0,1.286-.264,1.105,1.105,0,0,0,.48-.713,7.435,7.435,0,0,0,.093-1.38V48.048a6.627,6.627,0,0,0-1.3-.124,3.64,3.64,0,0,0-2.465.791,3.19,3.19,0,0,0-1.038,2.247,2.393,2.393,0,0,0,.822,2.139A3.372,3.372,0,0,0,262.632,53.783ZM288.083,27.34h2.356v4.588h-2.356Zm3.689,0h2.356v4.588h-2.356Zm2.17,14.415q-6.851.248-10.416,1.953t-3.565,4.836a3.6,3.6,0,0,0,1.4,3.007,5.765,5.765,0,0,0,2.526,1.1,17.528,17.528,0,0,0,3.147.264q2.015,0,4.154-.124t2.759-.217v2.914a58.665,58.665,0,0,1-5.89.31,25.587,25.587,0,0,1-5.983-.527,6.6,6.6,0,0,1-3.8-2.48,7.039,7.039,0,0,1-1.38-4.309,6.348,6.348,0,0,1,1.24-3.937,13.831,13.831,0,0,1,3.6-3.162l-1.488-8.618h3.069l1.178,7.564a28.469,28.469,0,0,1,4.681-1.1q2.139-.295,4.774-.419Zm11.377,14.136a47.735,47.735,0,0,0-3.255-3.611q-1.829-1.844-3.5-3.239l2.542-2.232q1.612,1.333,3.549,3.271t3.3,3.581ZM14.136,88.284a23.6,23.6,0,0,1-3.1,4.681,10.039,10.039,0,0,0-1.162-.883,14.769,14.769,0,0,0-1.287-.79,17.8,17.8,0,0,0,2.93-4.107,24.656,24.656,0,0,0,2.062-5.224l2.852.62q-.4,1.364-1.085,3.1h14.1v2.6ZM7.75,87.757a13.142,13.142,0,0,0-2.2-1.736A29.965,29.965,0,0,0,2.7,84.347L4.309,82.27A25.03,25.03,0,0,1,7.254,83.8a11.989,11.989,0,0,1,2.232,1.659Zm-1.395,8A14.164,14.164,0,0,0,4.123,94.1,24.838,24.838,0,0,0,1.24,92.531l1.612-2.108a24.569,24.569,0,0,1,2.93,1.426A12.559,12.559,0,0,1,8.06,93.43Zm20.987,3.782q-.155,2.635-.31,4.092h2.759v2.48H26.722a7.405,7.405,0,0,1-.992,3.007,2.55,2.55,0,0,1-.945.868,4.131,4.131,0,0,1-1.318.341,11,11,0,0,1-1.581.093q-1.116,0-2.325-.093a5.7,5.7,0,0,0-.233-1.224,4.925,4.925,0,0,0-.48-1.162q1.86.155,3.41.155a2.029,2.029,0,0,0,.667-.093.905.905,0,0,0,.449-.372,3.827,3.827,0,0,0,.589-1.519H13.454l-.248,1.426-2.759-.248q.651-3.286,1.3-7.75H8.959V96.9H12.09q.434-3.007.744-6.2H27.776l-.062,1.271q-.031,1.3-.155,3.286,0,.589-.062,1.643h2.511v2.635ZM15.221,93.213,14.756,96.9h3.627q.248-2.666.341-3.689Zm9.61,3.689.186-3.689H21.2q-.093,1.333-.341,3.689ZM1.891,108.5q1.085-1.953,2.387-4.7t2.294-5.285l2.294,1.612q-1.984,5.115-4.371,9.951Zm12.524-8.959-.372,2.7q-.093.465-.217,1.395h3.813l.5-4.092Zm9.92,4.092q.217-1.891.341-4.092H20.615q-.248,2.48-.465,4.092Zm30.287-7.316a26.386,26.386,0,0,0,6.82,4.557,8.739,8.739,0,0,0-1.132,1.162,7.879,7.879,0,0,0-.914,1.317,26.232,26.232,0,0,1-4.774-3.224v10.23H51.646V97.305a34.121,34.121,0,0,1-4.247-5.58A34.389,34.389,0,0,1,42.532,103.1a23.229,23.229,0,0,1-7.6,7.13,10.1,10.1,0,0,0-1.116-1.194,6.765,6.765,0,0,0-1.209-.945,21.57,21.57,0,0,0,8.8-8.587,36.861,36.861,0,0,0-5.332-4.03q-.837,1.085-1.829,2.139a12.782,12.782,0,0,0-1.163-.992q-.759-.589-1.255-.9a21.092,21.092,0,0,0,4.371-5.874,36.042,36.042,0,0,0,2.976-7.89l2.852.589a41.155,41.155,0,0,1-1.271,4.03H45.88l.527-.093,1.922.651-.465,2.635,1.116-.434a23.214,23.214,0,0,0,2.666,3.875V82.022h2.976ZM39.649,89.307a30.35,30.35,0,0,1-2.077,3.968A38.98,38.98,0,0,1,42.749,96.9a33.7,33.7,0,0,0,2.294-7.6Zm25.017,15.748h4.991V89.183H65.565V86.92a19.926,19.926,0,0,0,2.805-.729,10.154,10.154,0,0,0,2.155-1.038h2.7v19.9h4.464V108H64.666ZM88.5,108.4a6.131,6.131,0,0,1-5.41-3.038q-1.968-3.038-1.968-8.866,0-5.8,1.968-8.773a6.4,6.4,0,0,1,10.819.016q1.968,2.991,1.968,8.757,0,5.828-1.968,8.866A6.131,6.131,0,0,1,88.5,108.4Zm0-2.821a3.231,3.231,0,0,0,2.914-2.186,16.808,16.808,0,0,0,1.054-6.9q0-4.681-1.054-6.8a3.061,3.061,0,0,0-5.828,0q-1.054,2.124-1.054,6.8a16.808,16.808,0,0,0,1.054,6.9A3.231,3.231,0,0,0,88.5,105.582Zm26.629-12.028a26.818,26.818,0,0,0,4.634,8.7,18.278,18.278,0,0,0,7.239,5.441,10.274,10.274,0,0,0-1.162,1.256,9.115,9.115,0,0,0-.977,1.441,19.8,19.8,0,0,1-7.146-5.564A30.53,30.53,0,0,1,112.9,96.1a21.519,21.519,0,0,1-11.966,14.291,7.239,7.239,0,0,0-.977-1.271,11.1,11.1,0,0,0-1.225-1.147,18.581,18.581,0,0,0,7.859-5.952,22.454,22.454,0,0,0,3.767-8.463H99.355V90.578h11.532q.217-1.767.279-3.441t.093-4.03V82.022h3.131q-.031,2.666-.109,4.6t-.326,3.952h12.493v2.976Zm18.383.558h-2.7v-7.1h4.464a13.394,13.394,0,0,0-1.07-1.8q-.667-.961-1.348-1.767l2.48-1.116a22.758,22.758,0,0,1,1.689,2.123,11.549,11.549,0,0,1,1.194,2.031l-1.116.527h5.735a15.584,15.584,0,0,0-.914-2.062q-.6-1.163-1.256-2.186l2.511-.93a18.286,18.286,0,0,1,1.488,2.34,14.645,14.645,0,0,1,1.023,2.247l-1.519.589h5.239q.806-1.054,1.643-2.4a27.372,27.372,0,0,0,1.364-2.433l3.038.961q-1.333,1.953-2.883,3.875h4.495v7.1h-2.852V89.555H133.517Zm24.025,7.9H145.328v5.177a3.8,3.8,0,0,1-.372,1.86,2.226,2.226,0,0,1-1.3.961,8.893,8.893,0,0,1-2.154.356q-1.286.077-3.643.077a12.978,12.978,0,0,0-1.209-2.79q2.046.093,3.72.093l1.24-.031a1.2,1.2,0,0,0,.62-.155.571.571,0,0,0,.155-.465v-5.084h-12.09V99.351h12.09V97.212h1.457a22.868,22.868,0,0,0,3.5-2.325h-11.78V92.376H150.1l.62-.155,1.86,1.395a23.962,23.962,0,0,1-3.317,2.9,28.338,28.338,0,0,1-3.937,2.434v.4h12.214ZM179.4,95.755q-6.851.248-10.416,1.953t-3.565,4.836a3.6,3.6,0,0,0,1.395,3.007,5.765,5.765,0,0,0,2.527,1.1,17.528,17.528,0,0,0,3.146.264q2.015,0,4.154-.124t2.759-.217v2.914a58.666,58.666,0,0,1-5.89.31,25.587,25.587,0,0,1-5.983-.527,6.6,6.6,0,0,1-3.8-2.48,7.039,7.039,0,0,1-1.38-4.309,6.348,6.348,0,0,1,1.24-3.937,13.831,13.831,0,0,1,3.6-3.162l-1.488-8.618h3.069l1.178,7.564a28.469,28.469,0,0,1,4.681-1.1q2.139-.295,4.774-.419Zm23.095,1.736a9.575,9.575,0,0,0-.821-3.6,6.186,6.186,0,0,0-2-2.5,4.911,4.911,0,0,0-2.945-.914,75.755,75.755,0,0,1-.465,9.191,15.091,15.091,0,0,1-1.783,5.89,4.189,4.189,0,0,1-3.8,2.186,4.458,4.458,0,0,1-4.139-2.34,12.542,12.542,0,0,1-1.38-6.185,13.568,13.568,0,0,1,1.24-5.642,11.261,11.261,0,0,1,3.332-4.247,9.287,9.287,0,0,1,4.821-1.922q.372-.031,1.116-.031a10.036,10.036,0,0,1,5.115,1.256,8.692,8.692,0,0,1,3.395,3.611,13.375,13.375,0,0,1,1.38,5.58,14.009,14.009,0,0,1-1.007,5.6,10.592,10.592,0,0,1-3.085,4.309,7.583,7.583,0,0,1-4.681,1.751v-2.883a4.787,4.787,0,0,0,2.852-1.194,7.494,7.494,0,0,0,2.077-3.131A13.414,13.414,0,0,0,202.492,97.491Zm-11.935,7.347q1.705.093,2.48-3.7a45.231,45.231,0,0,0,.775-8.943l-.031-1.674a5.694,5.694,0,0,0-2.929,1.6,8.78,8.78,0,0,0-2.046,3.178,10.776,10.776,0,0,0-.729,3.906,10.571,10.571,0,0,0,.635,4.061A2.223,2.223,0,0,0,190.557,104.838Zm30.008-16.461a46.62,46.62,0,0,1-2.449,13.671,24.329,24.329,0,0,1,3.1,3.317l-1.86,2.325a23.958,23.958,0,0,0-2.542-2.914,15.321,15.321,0,0,1-5.394,5.673,12.325,12.325,0,0,0-.806-1.24,9.256,9.256,0,0,0-.9-1.085,12.358,12.358,0,0,0,5.022-5.332q-1.023-.93-2.294-1.953l-.279,1.147-2.356-1.333q.992-3.844,2.139-9.765h-2.418V88.222h2.914q.682-3.689,1.054-6.231l2.759.279q-.434,2.542-1.085,5.952h3.224l.465-.062Zm10.106-.031v3.193H236.9v11.532a4.439,4.439,0,0,1-.217,1.535,1.659,1.659,0,0,1-.775.883,3.355,3.355,0,0,1-1.317.4,15.9,15.9,0,0,1-2.124.062,6.284,6.284,0,0,0-.31-1.256,12.26,12.26,0,0,0-.5-1.256,16.539,16.539,0,0,0,2.108,0,.372.372,0,0,0,.294-.093.487.487,0,0,0,.077-.31v-8.9h-3.472v16.244h-2.79V94.143h-3.317V105.8H221.9V91.539h5.983V88.346h-7.037V85.773h7.037V81.991h2.79v3.782h7.316v2.573Zm-16.027,2.542q-.589,2.976-1.519,7.1,1.178.868,2.759,2.17a36.505,36.505,0,0,0,1.86-9.269Zm48.112,5.8a27.859,27.859,0,0,0,2.945,5.239,17.844,17.844,0,0,0,3.6,3.875,10.069,10.069,0,0,0-1.085,1.054,9.507,9.507,0,0,0-.93,1.178,20.123,20.123,0,0,1-3.053-3.689,35.841,35.841,0,0,1-2.712-4.9v10.974h-2.852V99.847a29.018,29.018,0,0,1-2.79,4.882,18.538,18.538,0,0,1-3.379,3.674,10.205,10.205,0,0,0-1.705-1.984l-.775.961a22.19,22.19,0,0,0-2.2-2.573,15.375,15.375,0,0,1-5.394,5.642,12.325,12.325,0,0,0-.806-1.24,9.256,9.256,0,0,0-.9-1.085,12.627,12.627,0,0,0,5.022-5.3q-1.271-1.178-2.294-1.984l-.279,1.147-2.356-1.333q.992-3.844,2.139-9.765h-2.418V88.222h2.914q.682-3.689,1.054-6.231l2.759.279q-.434,2.542-1.085,5.952h3.224l.465-.062,1.705.217a45.432,45.432,0,0,1-2.48,13.7,21.339,21.339,0,0,1,2.79,2.976l-.031.031a19.806,19.806,0,0,0,3.162-3.751,23.542,23.542,0,0,0,2.387-4.65h-5.7V94.019h6.975V89.493h-5.921V86.8h5.921V81.991h2.852V86.8h6.014v2.7h-6.014v4.526h7.068v2.666Zm-17.112-5.8q-.589,2.976-1.519,7.1,1.178.868,2.759,2.17a36.505,36.505,0,0,0,1.86-9.269Zm35.526,10.075a46.983,46.983,0,0,0-2.325-4.309v13.764h-2.7V97.212a29.585,29.585,0,0,1-3.5,7.626,7.722,7.722,0,0,0-.6-1.3,14.858,14.858,0,0,0-.79-1.271,23.575,23.575,0,0,0,2.666-4.976,39.771,39.771,0,0,0,1.984-6.153h-4V88.47h4.247V81.991h2.7V88.47h3.565v2.666h-3.565V93.12q.589.744,1.906,2.666t2.03,3.038Zm18.476-14.57v2.666H282.72V86.393h6.944v-4.4h2.883v4.4Zm-4.464,3.224a38.766,38.766,0,0,1,2.9,3.333,19.876,19.876,0,0,1,2.092,3.177l-2.418,1.4a20.791,20.791,0,0,0-1.969-3.209,33.958,33.958,0,0,0-2.837-3.457Zm-6.014,1.178a25.927,25.927,0,0,1-2.387,3.813,19.729,19.729,0,0,1-2.914,3.162,7.939,7.939,0,0,0-.9-.945,12.575,12.575,0,0,0-1.054-.883,16.42,16.42,0,0,0,2.619-2.852,19.652,19.652,0,0,0,2.031-3.379Zm7.285,4.991a24.6,24.6,0,0,1-3.6,7.347,18.657,18.657,0,0,0,7.378,4.836,8.526,8.526,0,0,0-1.069,1.178,12.363,12.363,0,0,0-.945,1.364A20.556,20.556,0,0,1,291,105.365a21.862,21.862,0,0,1-8.091,5.177,9.309,9.309,0,0,0-.682-1.162q-.465-.7-.806-1.132a19.14,19.14,0,0,0,7.843-5.053,28.383,28.383,0,0,1-3.658-7.1l2.48-.713a20.658,20.658,0,0,0,2.945,5.549,18.621,18.621,0,0,0,2.511-5.735Zm33.79-10.013v2.852H303.211V85.773h11.966V81.929h2.976v3.844ZM322.4,89.059q2.325,1.519,4.65,3.395a28.652,28.652,0,0,1,3.565,3.3l-2.542,1.984a26.839,26.839,0,0,0-3.441-3.379q-2.294-1.953-4.588-3.565Zm-8.556,1.3a28.942,28.942,0,0,1-3.937,4.2,32.33,32.33,0,0,1-4.619,3.456q-.434-.465-1.163-1.162t-1.224-1.1a26.094,26.094,0,0,0,4.464-2.929,19.254,19.254,0,0,0,3.5-3.581Zm10.044,5.053a22.984,22.984,0,0,1-4.867,7.564,27.158,27.158,0,0,0,12.059,4.712,8.981,8.981,0,0,0-1.008,1.256,14.679,14.679,0,0,0-.914,1.5,27.2,27.2,0,0,1-12.431-5.456,32.805,32.805,0,0,1-12.4,5.549,10.482,10.482,0,0,0-.822-1.364q-.574-.837-1.008-1.364a30.736,30.736,0,0,0,12.059-4.867A24.268,24.268,0,0,1,310,95.538l2.759-.837a18.493,18.493,0,0,0,4.03,6.293,17.592,17.592,0,0,0,4.03-6.448Zm26.195-9.579V81.991h2.945v3.844h8.649V88.47H351.385q-1.488,2.79-2.356,4.247,2.418-.062,7.285-.248-.868-.992-2.108-2.17l2.2-1.178a33.886,33.886,0,0,1,3.224,3.224,19.09,19.09,0,0,1,2.356,3.193L359.569,96.9a13.694,13.694,0,0,0-1.3-2.046l-5.425.279-10.044.5-.31-2.728,3.565-.093a30.319,30.319,0,0,0,2.046-4.34H342.24V85.835ZM340.6,87.726a14.9,14.9,0,0,0-2.4-1.783,25.848,25.848,0,0,0-3.085-1.659l1.581-2.077a24.024,24.024,0,0,1,3.085,1.5,16.322,16.322,0,0,1,2.5,1.689Zm-1.581,8.184a15.245,15.245,0,0,0-2.48-1.705,29.7,29.7,0,0,0-3.131-1.581l1.581-2.17a30.809,30.809,0,0,1,3.146,1.442,18.144,18.144,0,0,1,2.558,1.565Zm5.8.713h2.6v3.131a17.986,17.986,0,0,1-.914,5.921,9.9,9.9,0,0,1-3.7,4.681,8.389,8.389,0,0,0-.93-.977,9.112,9.112,0,0,0-1.085-.883,8.407,8.407,0,0,0,3.24-3.937,14.312,14.312,0,0,0,.79-4.867Zm14.477,11.036a.925.925,0,0,0,.558-.124q.186-.124.31-.806.031-.682.093-3.007a7.459,7.459,0,0,0,1.953,1.054,17.139,17.139,0,0,1-.31,3.565,2.023,2.023,0,0,1-.93,1.271,1.74,1.74,0,0,1-.682.279,4.132,4.132,0,0,1-.868.093h-1.55a3.41,3.41,0,0,1-1.023-.155,1.78,1.78,0,0,1-.806-.5,1.959,1.959,0,0,1-.512-.946,9.923,9.923,0,0,1-.139-2.03V96.623h2.635v9.92a1.888,1.888,0,0,0,.155.992.605.605,0,0,0,.434.124Zm-9.207,1.457V96.871h2.542v12.245Zm-8.091-9.021q-2.542,5.456-5.177,9.92l-2.48-1.829q1.209-1.891,2.728-4.619t2.728-5.3Z" transform="translate(228 3059)"/>
    <path id="キャッチ上のハイライト" d="M0,0H160V10H0Z" transform="translate(228 3163)" fill="#ff8c3c" style="mix-blend-mode: multiply;isolation: isolate"/>
  </g>
</svg>
