<svg xmlns="http://www.w3.org/2000/svg" viewBox="0 0 297.41 159.11"><defs><style>.cls-1,.cls-2{fill:#72c05f;}.cls-2{stroke:#72c05f;stroke-miterlimit:10;stroke-width:0.5px;}</style></defs><g id="レイヤー_2" data-name="レイヤー 2"><g id="レイヤー_1-2" data-name="レイヤー 1"><path class="cls-1" d="M0,62.52v-3H46.74v3Zm19.19,52.32V67.61H0v-3H22.22v50.19Zm5.33,0V64.65H46.74v3H27.55v47.23Z"/><path class="cls-1" d="M54.53,87.12c0-14.92,8.77-28.62,27-28.62s27.14,13.7,27.14,28.79c0,14.92-8.77,28.61-27,28.61S54.53,102.21,54.53,87.12Zm51,.17c0-13.53-7.87-25.83-24-25.83S57.65,73.76,57.65,87.12c0,13.53,7.87,25.83,24,25.83S105.53,100.65,105.53,87.29ZM60.19,87.2c0-11.72,6.23-23.69,21.32-23.69S103,75.56,103,87.2s-6.23,23.7-21.32,23.7S60.19,98.85,60.19,87.2Zm39.69,0c0-10.08-5.58-20.74-18.37-20.74S63.3,77,63.3,87.2C63.3,97.29,68.88,108,81.67,108S99.88,97.45,99.88,87.2Z"/><path class="cls-1" d="M128.33,114.84V92.37h15.74c9.68,0,15.42-5.82,15.42-15.17,0-8.94-6.23-14.68-15.33-14.68H126v52.32h-3V59.57h21.16c10.9,0,18.28,6.81,18.28,17.63,0,11.23-6.72,18.12-18.37,18.12H131.36v19.52Zm0-24.52V64.57h15.58c8,0,13.2,5,13.2,12.79,0,8.45-4.51,13-13.28,13Zm15.5-2.87c6.8,0,10.25-3.69,10.25-10.09,0-6-3.94-10-10.17-10H131.36V87.45Z"/><path class="cls-1" d="M177.61,114.84V59.57h3v55.27Zm5.25,0V59.57h3v55.27Z"/><path class="cls-1" d="M248.13,106.39c-5.08,6.15-11.56,9.51-20.66,9.51-17.47,0-25.59-14.1-25.59-28.61,0-14.68,8.12-28.79,25.59-28.79,9.59,0,16.15,3.69,20.66,9.6l-2.21,2c-5.42-6.24-9.93-8.61-18.45-8.61C212.13,61.46,205,74.08,205,87.29c0,13,7.3,25.66,22.63,25.66,7.3,0,12.87-2.29,18.29-8.53ZM244.19,103c-5.08,6.15-9.92,8-16.4,8-13.69,0-20.25-11.81-20.25-23.7s6.23-23.69,20.09-23.69c6.81,0,11.89,2.05,16.56,8l-2.37,2.13a16.59,16.59,0,0,0-14.19-7.21c-11.73,0-17,10.41-17,20.74s5.24,20.75,17,20.75c5.82,0,10-1.8,14.19-7.22Z"/><path class="cls-1" d="M291.43,73.84c-3.86-4.92-7.8-7.3-13.37-7.3-6.56,0-9,2.87-9,6.72,0,5.42,4.84,7.06,11.56,9.43,8,2.87,16.73,5.83,16.73,17,0,10.33-8.61,16.23-19.68,16.23-8.12,0-14.43-2.78-20.42-10.08l2.13-2c5.74,7.3,12,9.1,18.29,9.1,8.45,0,16.64-4.1,16.64-13.28,0-8.37-6.88-11.32-14.76-14.11C270.84,82.45,266,80.32,266,73.26c0-5.41,3.78-9.67,12.06-9.67,5.9,0,10.82,2,15.5,8.28Zm3.85-3.61c-5.74-7.3-11-8.77-16.81-8.77-10.42,0-15.25,5.24-15.25,12.62,0,7.79,7.21,10.91,14.1,13.29,9.59,3.2,14.27,5.82,14.27,13.28,0,5.5-5.25,10.17-13.53,10.17-6.23,0-12.06-2.3-16.81-8.69l2.38-2.22c3.85,5.09,8.28,8,14.43,8,7.05,0,10.5-3,10.5-7.22,0-5.82-4.6-7.71-12.14-10.33-7.79-2.71-16.16-5.82-16.16-16.24,0-9.92,7.39-15.58,18.21-15.58,7.54,0,13.45,2.63,18.94,9.76Z"/><path class="cls-2" d="M70.7,156a.11.11,0,0,1,.09,0v2a10,10,0,0,1-7-.24c-.81-.3-1.77-.63-2.85-1a9.63,9.63,0,0,1-4.41,2,2.48,2.48,0,0,1-2.52-1.14,2.42,2.42,0,0,1-.24-1,2.65,2.65,0,0,1,.42-1.38,3,3,0,0,1,2.61-1.17,5.31,5.31,0,0,1,.69,0,23.16,23.16,0,0,1,3.18.72,18.85,18.85,0,0,0,3.54-4.05,15.74,15.74,0,0,0,2.25-4.89,5.52,5.52,0,0,0,.12-1.23,5.18,5.18,0,0,0-1.08-3.21,4.82,4.82,0,0,0-3.93-2,5.24,5.24,0,0,0-3.78,1.56,4.78,4.78,0,0,0-1.62,3.57,5.14,5.14,0,0,0,.6,2.88l.63.81-1.83.39a8.14,8.14,0,0,1-1.17-4.08,6.51,6.51,0,0,1,2.13-4.86,6.77,6.77,0,0,1,5-2.1,6.42,6.42,0,0,1,5.34,2.7,6.82,6.82,0,0,1,1.47,4.29,6.29,6.29,0,0,1-.21,1.68c-.72,3-2.61,6.06-5.64,9.06l1.92.69a7.78,7.78,0,0,0,3,.63A6.41,6.41,0,0,0,70.7,156Zm-13.35-.27a3.41,3.41,0,0,0-1.11.12c-.45.12-.66.33-.66.6s.33.6,1,.57a5.82,5.82,0,0,0,2.7-.93Z"/><path class="cls-2" d="M88.27,138.76a7.5,7.5,0,0,1,2.4,2.31,13.23,13.23,0,0,1,0,14.58,7.5,7.5,0,0,1-2.4,2.31,5.9,5.9,0,0,1-3.11.9,5.78,5.78,0,0,1-3.09-.9,7.39,7.39,0,0,1-2.43-2.31,13.38,13.38,0,0,1,0-14.58,7.39,7.39,0,0,1,2.43-2.31,5.74,5.74,0,0,1,3.09-.87A5.86,5.86,0,0,1,88.27,138.76Zm-3.11,1a5.1,5.1,0,0,0-4,2.43,11.56,11.56,0,0,0,0,12.39,5.18,5.18,0,0,0,4,2.43c3.24,0,5.88-3.9,5.88-8.64S88.4,139.75,85.16,139.75Z"/><path class="cls-2" d="M117.55,156a.11.11,0,0,1,.09,0v2a9.39,9.39,0,0,1-3.36.51,9.29,9.29,0,0,1-3.59-.75c-.81-.3-1.77-.63-2.86-1a9.6,9.6,0,0,1-4.4,2,2.48,2.48,0,0,1-2.52-1.14,2.42,2.42,0,0,1-.24-1,2.65,2.65,0,0,1,.42-1.38,3,3,0,0,1,2.61-1.17,5.31,5.31,0,0,1,.69,0,22.75,22.75,0,0,1,3.17.72,18.85,18.85,0,0,0,3.54-4.05,15.74,15.74,0,0,0,2.25-4.89,5.52,5.52,0,0,0,.13-1.23,5.24,5.24,0,0,0-1.08-3.21,4.82,4.82,0,0,0-3.94-2,5.22,5.22,0,0,0-3.77,1.56,4.78,4.78,0,0,0-1.62,3.57,5.14,5.14,0,0,0,.6,2.88l.63.81-1.83.39a8.14,8.14,0,0,1-1.17-4.08,6.51,6.51,0,0,1,2.13-4.86,6.77,6.77,0,0,1,5-2.1,6.42,6.42,0,0,1,5.34,2.7,6.82,6.82,0,0,1,1.47,4.29,6.29,6.29,0,0,1-.21,1.68c-.72,3-2.6,6.06-5.64,9.06l1.92.69a7.78,7.78,0,0,0,3,.63A6.41,6.41,0,0,0,117.55,156Zm-13.34-.27a3.41,3.41,0,0,0-1.11.12c-.45.12-.66.33-.66.6s.33.6,1,.57a5.75,5.75,0,0,0,2.69-.93Z"/><path class="cls-2" d="M135.43,138.76a7.61,7.61,0,0,1,2.4,2.31,13.23,13.23,0,0,1,0,14.58,7.61,7.61,0,0,1-2.4,2.31,6,6,0,0,1-3.12.9,5.78,5.78,0,0,1-3.09-.9,7.39,7.39,0,0,1-2.43-2.31,13.38,13.38,0,0,1,0-14.58,7.39,7.39,0,0,1,2.43-2.31,5.74,5.74,0,0,1,3.09-.87A5.92,5.92,0,0,1,135.43,138.76Zm-3.12,1a5.1,5.1,0,0,0-4.05,2.43,11.56,11.56,0,0,0,0,12.39,5.18,5.18,0,0,0,4.05,2.43c3.24,0,5.88-3.9,5.88-8.64S135.55,139.75,132.31,139.75Z"/><path class="cls-2" d="M149.17,149v-2h15v2Z"/><path class="cls-2" d="M191.26,156a.11.11,0,0,1,.09,0v2a10,10,0,0,1-7-.24c-.81-.3-1.77-.63-2.85-1a9.63,9.63,0,0,1-4.41,2,2.48,2.48,0,0,1-2.52-1.14,2.41,2.41,0,0,1-.23-1,2.63,2.63,0,0,1,.41-1.38,3,3,0,0,1,2.61-1.17,5.31,5.31,0,0,1,.69,0,23.16,23.16,0,0,1,3.18.72,18.85,18.85,0,0,0,3.54-4.05,15.74,15.74,0,0,0,2.25-4.89,5.52,5.52,0,0,0,.12-1.23,5.18,5.18,0,0,0-1.08-3.21,4.82,4.82,0,0,0-3.93-2,5.24,5.24,0,0,0-3.78,1.56,4.78,4.78,0,0,0-1.62,3.57,5.14,5.14,0,0,0,.6,2.88l.63.81-1.83.39a8.24,8.24,0,0,1-1.17-4.08,6.51,6.51,0,0,1,2.13-4.86,6.77,6.77,0,0,1,5-2.1,6.42,6.42,0,0,1,5.34,2.7,6.82,6.82,0,0,1,1.47,4.29,6.29,6.29,0,0,1-.21,1.68c-.72,3-2.61,6.06-5.64,9.06l1.92.69a7.78,7.78,0,0,0,3,.63A6.41,6.41,0,0,0,191.26,156Zm-13.35-.27a3.41,3.41,0,0,0-1.11.12c-.45.12-.65.33-.65.6s.32.6,1,.57a5.82,5.82,0,0,0,2.7-.93Z"/><path class="cls-2" d="M208.24,138.76a7.61,7.61,0,0,1,2.4,2.31,13.23,13.23,0,0,1,0,14.58,7.61,7.61,0,0,1-2.4,2.31,6,6,0,0,1-3.12.9A5.78,5.78,0,0,1,202,158a7.39,7.39,0,0,1-2.43-2.31,13.38,13.38,0,0,1,0-14.58,7.39,7.39,0,0,1,2.43-2.31,5.74,5.74,0,0,1,3.09-.87A5.92,5.92,0,0,1,208.24,138.76Zm-3.12,1a5.1,5.1,0,0,0-4.05,2.43,11.56,11.56,0,0,0,0,12.39,5.18,5.18,0,0,0,4.05,2.43c3.24,0,5.88-3.9,5.88-8.64S208.36,139.75,205.12,139.75Z"/><path class="cls-2" d="M237.52,156a.11.11,0,0,1,.09,0v2a10,10,0,0,1-7-.24c-.81-.3-1.77-.63-2.85-1a9.63,9.63,0,0,1-4.41,2,2.48,2.48,0,0,1-2.52-1.14,2.42,2.42,0,0,1-.24-1,2.65,2.65,0,0,1,.42-1.38,3,3,0,0,1,2.61-1.17,5.31,5.31,0,0,1,.69,0,23.16,23.16,0,0,1,3.18.72,18.85,18.85,0,0,0,3.54-4.05,15.74,15.74,0,0,0,2.25-4.89,5.52,5.52,0,0,0,.12-1.23,5.18,5.18,0,0,0-1.08-3.21,4.82,4.82,0,0,0-3.93-2,5.24,5.24,0,0,0-3.78,1.56,4.78,4.78,0,0,0-1.62,3.57,5.14,5.14,0,0,0,.6,2.88l.63.81-1.83.39a8.14,8.14,0,0,1-1.17-4.08,6.51,6.51,0,0,1,2.13-4.86,6.77,6.77,0,0,1,5-2.1,6.42,6.42,0,0,1,5.34,2.7,6.82,6.82,0,0,1,1.47,4.29,6.29,6.29,0,0,1-.21,1.68c-.72,3-2.61,6.06-5.64,9.06l1.92.69a7.78,7.78,0,0,0,3,.63A6.41,6.41,0,0,0,237.52,156Zm-13.35-.27a3.41,3.41,0,0,0-1.11.12c-.45.12-.66.33-.66.6s.33.6,1,.57a5.82,5.82,0,0,0,2.7-.93Z"/><path class="cls-2" d="M249.76,158.77h-1.71V141.55a10.42,10.42,0,0,1-2.52,2.49v-2.19a9.32,9.32,0,0,0,2.46-4h1.77Z"/><rect class="cls-1" x="106.73" y="17" width="99" height="2.84"/><path class="cls-1" d="M105.61,16.34c.72,2.21-.52,5.11-4.14,8.11-3.21,2.67-2.37,5.17-1.39,6,2.85,2.35,7,.28,8.83-4.67s0-9.86-1.55-11.14C106.29,13.73,104.89,14.13,105.61,16.34Z"/><path class="cls-1" d="M128.2,2.87a10.22,10.22,0,0,1,3.31,4.21c1.31,3.58,1.06,5.82,4.53,5.34,2.46-.34,4-5.62-.53-8.65C129.11-.49,126.5,1.53,128.2,2.87Z"/><path class="cls-1" d="M144.73,2.87A10.22,10.22,0,0,1,148,7.08c1.31,3.58,1.07,5.82,4.53,5.34,2.47-.34,4-5.62-.53-8.65C145.64-.49,143,1.53,144.73,2.87Z"/><path class="cls-1" d="M166.24,5.38C168.55.7,168.9-.69,171.06.3c1.54.71,5,1.83,5.25,3.48S173,5.27,173,5.27a25.76,25.76,0,0,1-7.62,7.41c-2,1.25-3.86.56-2.27-1.92A51.82,51.82,0,0,0,166.24,5.38Z"/><path class="cls-1" d="M199.14,18.28c.76-2.41,1.82-5.29,5.74-2,1.4,1.17,3.28,2.62,3.73,3.44,1.08,2,1.22,3.38-4.37,4.05-1.13.13-5,3.56-7,5-1.48,1.13-3.2.83-1.9-1.61A46.32,46.32,0,0,0,199.14,18.28Z"/></g></g></svg>