<svg xmlns="http://www.w3.org/2000/svg" viewBox="0 0 336.96 63.76"><defs><style>.cls-1{fill:#fff;}</style></defs><g id="レイヤー_2" data-name="レイヤー 2"><g id="レイヤー_1-2" data-name="レイヤー 1"><path class="cls-1" d="M21.61,17.75A4.08,4.08,0,0,0,26,22c1.13,0,4.52-.38,4.52-4.27,0-3-2.76-3.94-4.44-3.94H26L24,13.87V11.4l2.08.09h.12a3.73,3.73,0,0,0,3.77-3.6c0-1.28-.81-3.22-3.86-3.22A3.59,3.59,0,0,0,22.24,8.3H19.58c0-2.53,1.79-5.89,6.55-5.89,3.45,0,6.27,1.74,6.27,5.36a4.63,4.63,0,0,1-3.72,4.73c2.79.38,4.44,2.7,4.44,5.57,0,4.24-3.48,6.3-7.25,6.3s-6.9-2.24-7-6.62Z"/><path class="cls-1" d="M39.12,22.1A18.53,18.53,0,0,1,41,19.46c1.71-2.06,4.49-4.38,6.61-6.58a6.57,6.57,0,0,0,2.15-4.53A3.43,3.43,0,0,0,46.05,4.9c-2.52,0-4.14,2.06-4.23,4.88l-2.7,0c.32-4.07,2.47-7.26,7.05-7.26s6.32,3.19,6.32,5.69-.78,4.29-3,6.41c-2,1.89-4.73,4.15-6.1,5.71-.43.5-.81,1-1,1.25l10-.11V24H39.12Z"/><path class="cls-1" d="M61.51,15.75H74.19a6.21,6.21,0,0,0-2.3-1.88l2-.85a8,8,0,0,1,1,.67A21.5,21.5,0,0,0,78,11.4l-11,.09v-2H79.93c.14,0,.26-.17.43-.17s1.31,1,1.48,1.19a.77.77,0,0,1,.18.38c0,.23-.26.32-.67.37A49.72,49.72,0,0,1,76.13,15a4.79,4.79,0,0,1,.43.75H87.33l0,2.15H77.2a11.84,11.84,0,0,1,.12,1.74v.08c0,4.88-3.31,6-5.69,6A6.32,6.32,0,0,1,70,25.55l-1.57-2.9a10.74,10.74,0,0,0,3.43.73c1.71,0,3.22-.78,3.22-3.66v0A11.86,11.86,0,0,0,75,17.9H61.51ZM62.58,5.31h5.48a14.57,14.57,0,0,0-2.72-4.15l2-.78A15,15,0,0,1,70.1,4.52s-1.08.53-1.63.79h5.4a13.68,13.68,0,0,0-2-4.61l2-.5A12.2,12.2,0,0,1,76,4.67s-1.1.41-1.71.64h4A20,20,0,0,0,80.83.2,17.55,17.55,0,0,1,83.38,1c.26.11.41.26.41.4s-.29.35-.93.35h-.09a25,25,0,0,1-2.23,3.54h5.6v6.55H83.79V7.31l-18.92,0v4.5H62.58Z"/><path class="cls-1" d="M101.24,21.61c0-2.2.14-7.51.23-9.86a34.45,34.45,0,0,1-3.94,7.51l-2.29-.87a25.65,25.65,0,0,0,5.59-9.25H96.48v-2h4.79v-4c-2,.35-3.54.49-3.54.49L96.51,1.91s5.95-.11,8.82-1.91c0,0,1.25.93,1.57,1.22a1,1,0,0,1,.4.64c0,.14-.11.23-.32.23a1.9,1.9,0,0,1-.75-.21,28.82,28.82,0,0,1-2.81.85V7.16h4.23v2h-4a30.52,30.52,0,0,0,4.41,6.29l-2,.9a35.84,35.84,0,0,1-2.87-5.25c.06,2.23.23,10.12.23,10.56v4.47h-2.2Zm5.22-3.07,10.33-2.67v-13s0-1.39-.09-2.58c0,0,2.12.06,2.73.14.32.06.49.21.49.38s-.26.41-.81.52c-.06.73-.06,1.69-.06,1.69V15.29l3-.76.46,2.06-3.42.9V26h-2.26V18.07L107,20.62Zm2.38-9.93a25.32,25.32,0,0,1,5.77,3.72l-1.22,1.94a22.5,22.5,0,0,0-5.71-4Zm1.28-6.41a26.28,26.28,0,0,1,5.28,4.38L114,8.32a22.08,22.08,0,0,0-5.28-4.55Z"/><path class="cls-1" d="M137.06,9.72A3.28,3.28,0,1,1,133.78,13,3.29,3.29,0,0,1,137.06,9.72Z"/><path class="cls-1" d="M155,8c0-3,2.5-5.6,6.59-5.6S168,4.9,168,7.8a4.81,4.81,0,0,1-3.54,4.93A5.31,5.31,0,0,1,168.73,18c0,4-3,6.41-7,6.41-4.38,0-7.4-2.41-7.4-6.26a5.46,5.46,0,0,1,4-5.46A4.81,4.81,0,0,1,155,8Zm6.47,5.83c-2.38,0-4.55,1.45-4.55,4.26v.06c0,2.72,2.35,4.06,4.73,4.06a4.19,4.19,0,0,0,4.38-4.12c0-2.84-2.15-4.26-4.5-4.26Zm.09-2.32c2.18,0,3.86-1.22,3.86-3.66,0-2-1.45-3.42-3.92-3.42-2.29,0-3.94,1.33-3.94,3.54C157.59,10.41,159.5,11.52,161.59,11.52Z"/><path class="cls-1" d="M187,7.4c-.21-1.74-1.45-2.64-3.28-2.64-2.76,0-5.05,2.67-5.17,8.21a6,6,0,0,1,5.17-2.85c4.2,0,6.38,3.43,6.38,7s-1.94,7.31-6.93,7.31-7.26-4.2-7.26-10.24,2-11.63,7.81-11.63c3.28,0,5.77,2.06,5.94,4.85Zm.37,9.89c0-2.09-1-5-4-5a4.55,4.55,0,0,0-4.58,4.52c0,2.21,1.16,5.34,4.26,5.34S187.31,19.67,187.34,17.29Z"/><path class="cls-1" d="M199.61,19.17H215V8.73H199.75V6.29h17.73V22.86H215V21.64H199.61Z"/><path class="cls-1" d="M229,11.75h22.13v2.43H229Z"/><path class="cls-1" d="M259.06,21.7c9-3.57,12.76-9.87,15-14.68l-11.37.06V4.87l12.5-.08c.26,0,.38-.18.55-.18a.4.4,0,0,1,.21.09c1.48,1,1.82,1.27,1.82,1.51s-.4.34-.69.43A54.38,54.38,0,0,1,272.78,14a61.19,61.19,0,0,1,8.64,7.72l-2.29,1.77a48.22,48.22,0,0,0-7.69-7.75,26.32,26.32,0,0,1-9.92,7.75Z"/><path class="cls-1" d="M289.25,23.61a109.53,109.53,0,0,0,7-13.25c-.44.08-.87.2-1.31.29a19,19,0,0,1-3.92.52h-.43L289.86,9a.29.29,0,0,1,0-.14c0-.09,0-.09.11-.09H290a14.78,14.78,0,0,0,2.15.15,38.4,38.4,0,0,0,4.9-.58A23.08,23.08,0,0,0,298.56,2s2.09.35,2.78.55c.35.09.52.23.52.41s-.37.43-.95.46c-.15.76-.79,2.79-1.37,4.47l.64-.12a5.18,5.18,0,0,1,1-.08c3,0,3.8,2.37,3.8,5.65,0,8.91-4,10.33-6.35,10.33a5.42,5.42,0,0,1-3.11-1l-.32-3.07a5.16,5.16,0,0,0,3.51,1.65,3.28,3.28,0,0,0,3.16-2.46,19,19,0,0,0,.88-5.66c0-2.12-.44-3.51-2.06-3.51a16.22,16.22,0,0,0-1.89.26c-1.91,4.61-4.12,8.85-6.9,14.16ZM308,7.66c3.69,2.2,6.33,5.07,6.59,7.86l-2.09,1.13a.43.43,0,0,1-.18.06c-.05,0-.08-.06-.11-.18-.35-2.72-2.12-5.59-6.18-7.6-.09,0-.15-.11-.15-.14a.2.2,0,0,1,.12-.15Zm.61-4.38a12.15,12.15,0,0,1,3.83,2.58L311.2,7.34a12.59,12.59,0,0,0-3.77-2.82Zm2.44-2.15a12.62,12.62,0,0,1,3.74,2.32L313.61,5a12,12,0,0,0-3.71-2.55Z"/><path class="cls-1" d="M0,49.69H24.63v2.52H0Z"/><path class="cls-1" d="M33.61,48.21a.3.3,0,0,1-.09-.14c0-.06.06-.09.18-.12,4.44-.7,8.76-4,15.08-4,7.54,0,7.78,5.68,7.78,6.78,0,6.56-8.36,9.81-15.32,9.81h-.09c-1-1.08-2.38-2.32-2.38-2.32h.9c8.18,0,14.28-3,14.28-7.6,0-1.08-.47-4.59-5.23-4.59-5.74,0-9.63,3.46-13.28,4.41Z"/><path class="cls-1" d="M74,59.7c5.45-.41,11.69-2.85,11.69-8.91,0-3-2.29-6.67-7.31-7a7.58,7.58,0,0,1,.06,1.16c0,5.25-3.89,10.88-5.45,12.74a3.87,3.87,0,0,1-2.85,1.62c-2.17,0-4.35-3-4.35-6.18,0-5.39,5.4-11.28,12-11.28,5.92,0,10.33,4.09,10.33,9,0,6.61-6,10.18-11.4,11.11Zm-6.09-6.76c0,2.29,1.42,3.8,2.15,3.8a1.77,1.77,0,0,0,1.18-.7C73.14,54,76.1,49.25,76.1,45c0-.38,0-.73-.06-1.1C71.81,44.79,67.92,49.14,67.92,52.94Z"/><path class="cls-1" d="M97.24,53.05l9.4-1.82-1-4.59-8.06,1.57L97.09,46l8-1.57-.47-2.17s-.34-1.51-.58-2.3c.7-.08,2.56-.34,2.82-.34s.61.11.61.29-.26.43-.7.63c.09.64.35,1.89.35,1.89l.35,1.54,7.83-1.51.46,2.29L108,46.21l1,4.55,9.22-1.8.46,2.3-9.19,1.79,2,9-2.32.49-2-9L97.7,55.35Z"/><path class="cls-1" d="M134,52.39c-2.06.49-4,1-5.1,1.24l-.67-2c1.16-.23,3.16-.69,5.37-1.19l-.64-2.75s-.26-1.22-.46-1.83c0,0,1.88-.23,2.58-.26h.11c.35,0,.5.11.5.26s-.24.43-.64.61c.08.64.29,1.54.29,1.54l.43,1.91c3.74-.87,7.31-1.74,7.4-1.77s.29-.26.49-.26,2,.73,2,1.1c0,.18-.26.35-.52.44a28.74,28.74,0,0,1-4.52,6.93L138,55.78a18.8,18.8,0,0,0,4.24-5.42c-1.28.35-3.66.93-6.12,1.51l2.44,10.81-2.21.38Z"/><path class="cls-1" d="M157.44,42.15a18.08,18.08,0,0,1,6.5,5l-2,2.15a17.25,17.25,0,0,0-6.24-5.66Zm19.12,6.35C172,54.07,166,58.74,159,60.83c-.12.49-.26.75-.46.75-.38,0-2.32-2.26-2.58-2.7a.18.18,0,0,1-.06-.14c0-.06.06-.12.2-.15,8.06-1.13,15.32-7.13,19.46-13.08Z"/><path class="cls-1" d="M182,58.59c4.35-3.45,6.9-9.34,8-14.15l2.64.72c-2,6.47-4.58,11.67-7.63,14.54Zm21.72.58a39,39,0,0,0-8-14l2.11-1c3.22,3.31,7.49,10,8.65,13.75Zm-.14-19.75a3.44,3.44,0,1,1-3.43,3.45A3.42,3.42,0,0,1,203.56,39.42Zm1.71,3.45a1.72,1.72,0,0,0-1.71-1.71,1.7,1.7,0,1,0,1.71,1.71Z"/><path class="cls-1" d="M215.09,59.7c9-3.57,12.77-9.87,15-14.68l-11.37.06V42.87l12.5-.08c.26,0,.38-.18.55-.18a.35.35,0,0,1,.2.09c1.48,1,1.83,1.27,1.83,1.51s-.4.34-.69.43A54.54,54.54,0,0,1,228.81,52a61.26,61.26,0,0,1,8.65,7.72l-2.29,1.77a48.22,48.22,0,0,0-7.69-7.75,26.47,26.47,0,0,1-9.92,7.75Z"/><path class="cls-1" d="M245.14,44.35a.39.39,0,0,1-.06-.17c0-.09.09-.18.26-.18,4.24,0,9.52-1.79,19.73-2.93a2.92,2.92,0,0,0,.34-.08,1.1,1.1,0,0,1,.38-.12,5.87,5.87,0,0,1,1.13,2.38.23.23,0,0,1-.26.26,1.42,1.42,0,0,1-.46-.14,9.31,9.31,0,0,0-3.37.69c-2.78,1.08-7.68,5.4-7.68,9.26,0,4.84,5.54,6,9.42,6.12l-2.14,2.49c-2.76-.41-9.58-2.12-9.58-8.24,0-2.9,2.06-6.79,6.56-9.83-4.9.67-9.49,2.29-13,2.78Zm19.32,1.19a16.21,16.21,0,0,1,2.72,3.92l-1.68.93a14.33,14.33,0,0,0-2.61-4Zm3-1a13.62,13.62,0,0,1,2.7,3.51l-1.62,1a14.71,14.71,0,0,0-2.58-3.65Z"/><path class="cls-1" d="M278.72,53.75H291.4a6.21,6.21,0,0,0-2.3-1.88l2-.85a8,8,0,0,1,1,.67,21.5,21.5,0,0,0,3.16-2.29l-11,.09v-2h12.91c.14,0,.26-.17.43-.17s1.31,1,1.48,1.19a.77.77,0,0,1,.18.38c0,.23-.26.32-.67.37A49.72,49.72,0,0,1,293.34,53a4.79,4.79,0,0,1,.43.75h10.77l0,2.15h-10.1a11.84,11.84,0,0,1,.12,1.74v.08c0,4.88-3.31,6-5.69,6a6.32,6.32,0,0,1-1.65-.21l-1.57-2.9a10.74,10.74,0,0,0,3.43.73c1.71,0,3.22-.78,3.22-3.66v0a11.86,11.86,0,0,0-.09-1.77H278.72Zm1.07-10.44h5.48a14.57,14.57,0,0,0-2.72-4.15l2-.78a15,15,0,0,1,2.79,4.14s-1.08.53-1.63.79h5.4a13.68,13.68,0,0,0-2-4.61l2-.5a12.2,12.2,0,0,1,2.14,4.47s-1.1.41-1.71.64h3.95A20,20,0,0,0,298,38.2a17.55,17.55,0,0,1,2.55.79c.26.11.41.26.41.4s-.29.35-.93.35H300a25,25,0,0,1-2.23,3.54h5.6v6.55H301V45.31l-18.92,0v4.5h-2.29Z"/><path class="cls-1" d="M318.42,55.78c-1.71,1.34-4.46,3.42-5.89,4.73a.93.93,0,0,1,.12.41.26.26,0,0,1-.26.29.71.71,0,0,1-.44-.15,24.77,24.77,0,0,1-2-1.65c-.06,0-.08-.06-.08-.09s.05-.09.14-.15c1.86-1.16,5.92-4.09,7.89-5.56Zm-.81,2.64a8,8,0,0,0,4.47,1.45c2.29,0,3-1.51,3-2.52,0-1.39-.9-2.41-3-4.47a5,5,0,0,1-1.77-3.34c0-1.56,1.34-2.9,3.31-4.17.18-.12.29-.21.29-.32a.35.35,0,0,0-.11-.23A22.32,22.32,0,0,1,321,41.33l1.24-1.62c0-.06.06-.06.09-.06s.14.06.2.18A15.52,15.52,0,0,0,327.15,45c.41.2.7.26.7.55,0,0-.41,1.68-.78,1.68a1.16,1.16,0,0,1-.38-.08,2.3,2.3,0,0,0-.81-.12c-1.22,0-3.4,1.22-3.4,2.41,0,.61.44,1.28,1.31,2.09,2.06,2,3.83,3.8,3.83,6.09,0,1.8-1.45,4.55-5.83,4.55a9.43,9.43,0,0,1-3.46-.69Zm13-6.87c2.62,1.21,5.84,3.8,6.18,6.26l-2.08,1.36c-.06,0-.09.06-.12.06s-.09-.06-.12-.17c-.26-2.67-3-5.19-5.77-6.15Zm.27-8.65A14.63,14.63,0,0,1,334,46.44l-1.66,1.25a12.08,12.08,0,0,0-3-3.72Zm3-1.48A12.86,12.86,0,0,1,337,44.53l-1.63,1.3a11.66,11.66,0,0,0-3-3.28Z"/></g></g></svg>