<svg xmlns="http://www.w3.org/2000/svg" viewBox="0 0 804.43 45.12"><defs><style>.cls-1{fill:#fff;}</style></defs><g id="レイヤー_2" data-name="レイヤー 2"><g id="レイヤー_1-2" data-name="レイヤー 1"><path class="cls-1" d="M0,8H7.58A35.53,35.53,0,0,0,10.27.86c.19,0,5,.39,5,1.25,0,.39-.68.72-1.68.77,0,.1-1.35,3-2.45,5.09H29V43.73H25.73V40.9H3.22v3.17H0Zm25.73,9.55V11H3.22v6.53Zm0,9.94V20.59H3.22v6.87Zm0,10.37V30.58H3.22v7.25Z"/><path class="cls-1" d="M45.12,23C54,18.19,59.76,7.34,61,3c4,1.34,4.56,2,4.56,2.4S64.9,6,64.18,6a2.28,2.28,0,0,1-.58,0c-2.4,4.71-6.91,13.49-14.88,19Zm.72,18.1C60.05,38.6,62.69,28.51,63.5,21.75H56.11v-3H79.92c0,5.62-.38,14.5-1.82,19s-4.56,5.66-8.74,5.66a30.35,30.35,0,0,1-3.6-.24l-2.3-3.84a37,37,0,0,0,5.95.77c2.45,0,4.66-.72,5.52-3.45C76,33.17,76.51,26,76.51,21.75H67.06c-.82,6.09-3.51,18.48-17.86,22.13Zm27-38.31C77,11,82.75,17.52,89.81,21.55L86.12,24.1C80.69,20.31,73.87,11.43,70,4.13Z"/><path class="cls-1" d="M119.09,37.3c8.54-.67,19.2-4.95,19.2-15,0-6.09-4.9-11.52-12.62-12,0,.58.09,1.2.09,1.83,0,8.44-5.81,17.23-8.54,20.59-1.68,2.11-3.41,3.17-5.09,3.17-2.88,0-7-4-7-10,0-8.83,8.93-18.43,19.78-18.43,9.93,0,16.94,6.77,16.94,14.88,0,10.66-9.79,16.51-18.82,18.1ZM108.34,25.78c0,3.6,2.2,6.53,3.64,6.53,2.88,0,10.32-11.62,10.32-19.88,0-.62,0-1.29-.09-1.92C115,11.86,108.34,19.2,108.34,25.78Z"/><path class="cls-1" d="M158.16,38.74A47.45,47.45,0,0,0,178.61,22l-17.43,0V19h18.2V12.29h-16V9.22h16v-4s0-2.45-.15-4c4.85,0,5,.67,5,.91,0,.39-.58.82-1.59,1-.09,1.2-.09,2.59-.09,2.59V9.22h16.08v3.07H182.55V19h18.28v3.12L183.17,22c2.69,3.6,9.84,12,20.93,16.09l-3.84,2.49c-8.79-4.41-15.07-11.76-17.91-15.55.1,2.4.24,6.19.24,9.74l0,8.93h-3.41l.05-8.88c0-2.06.19-6.62.29-9.6A52.2,52.2,0,0,1,161.66,41Z"/><path class="cls-1" d="M216,39.56a45.37,45.37,0,0,0,20.4-15.51l-17.66.14v-3H237V11H220.42V8H237V4.61s-.05-1.68-.1-3.31a38,38,0,0,1,4,.28c.58.1.82.34.82.58s-.58.82-1.54,1c-.09,1-.09,2.21-.09,2.21V8h16.65v3H240.1V21.22h4a54.54,54.54,0,0,0,4-9.12c.24.09,2.2.57,3.45,1.1.58.24.87.53.87.77s-.44.53-1.25.53h-.34c-1,2.21-2.69,5.18-3.55,6.72h11.23v3l-17.9-.14a46.85,46.85,0,0,0,20.74,14.83l-3.75,2.5a49.53,49.53,0,0,1-17.66-14.31c.14,3.22.28,9.89.28,16.76h-3.26l0-7.54c0-2.64.09-6.39.19-8.93a49.51,49.51,0,0,1-17.62,14.4ZM228.1,12.39a30.71,30.71,0,0,1,4.12,7.48l-2.83,1.25a34,34,0,0,0-4-7.82Z"/><path class="cls-1" d="M274.66,26.64c-.15-.05-.24-.09-.24-.19a.23.23,0,0,1,.09-.19,61.67,61.67,0,0,0,9.79-14.07c-.38.05-2.3.2-3.5.2a8.83,8.83,0,0,1-4.8-1.2l-.34-3.41v0c0-.15,0-.19.15-.19a.33.33,0,0,1,.19,0,10.43,10.43,0,0,0,5.52,1.83,30.13,30.13,0,0,0,4-.29,45,45,0,0,0,2.12-6.24c.91.1,3.21.58,3.74.67s.91.43.91.72-.52.72-1.73.77c-.43,1.15-1.05,2.5-1.58,3.65a93.83,93.83,0,0,0,9.55-2.07l-.09,3.17c-3.84.87-7.59,1.49-10.8,2a53.59,53.59,0,0,1-4.85,7.49,1.37,1.37,0,0,0-.19.29s.14-.1.28-.24A10.63,10.63,0,0,1,290,16.47c3.12,0,4.94,2,5.57,5.08,1.68-.76,3.36-1.48,5.08-2.16,2.31-1,4.85-1.87,6.58-2.59l2.4,3c.05.09.1.14.1.19s-.1.14-.24.19a70.37,70.37,0,0,0-13.68,4.42c-.05,2-.24,6.62-.34,8.35l-3.36.33c.05-1.53.29-5,.38-7-7,3.79-7.53,6.43-7.53,7.58,0,1.49.77,4.52,8.3,4.52a43,43,0,0,0,10.47-1.83l-.63,4a41.41,41.41,0,0,1-9.69,1.2c-8.07,0-11.57-3.6-11.57-7.59,0-3.79,3.07-7.15,10.7-11.14-.19-2.68-1.1-4.08-3.65-4.08h0c-3.46,0-8.74,5.38-10.76,8.69Z"/><path class="cls-1" d="M327.94,40.13a25.58,25.58,0,0,0,3,.34c1.35,0,2.5-.39,2.5-2V26.74q-1.67.72-3.6,1.44A2.57,2.57,0,0,1,330,29c0,.48-.24.81-.53.81s-.43-.14-.67-.53c-.77-1.1-1.82-3.21-2-3.45,2.5-.77,4.71-1.54,6.63-2.26V13.63h-5.62V10.8h5.62V4.46s0-2-.15-3.4c.2,0,4.71.09,4.71,1,0,.34-.43.68-1.35.82-.09.86-.14,2.16-.14,2.16V10.8h5.09v2.83h-5.09v8.64c2.3-1,4-1.87,5-2.4l.34,2.88c-1.63.87-3.31,1.73-5.33,2.64v9c0,2.35.1,4.13.1,4.47,0,4-2.74,4.8-5.81,4.8h-.91Zm14.35-32.5h7c0-1.73-.05-3-.05-3.12,0-.29,0-2-.09-3.12,4.17,0,4.46.67,4.46.91s-.48.68-1.39.82a14.22,14.22,0,0,0-.15,2V7.63h6.53V4.51c0-.29,0-2-.09-3.12,4.17,0,4.46.67,4.46.91s-.48.68-1.39.82a14.22,14.22,0,0,0-.15,2V7.63h8.21v2.88h-8.21v6.2h-2.83v-6.2H352v6.2H349.2l.05-6.2h-7ZM343.78,19h23.81V43.4h-2.93V41h-18v2.84h-2.88Zm10.13,9.22V21.79h-7.25v6.44Zm0,10V30.92h-7.25v7.34Zm10.75-10V21.79h-7.87v6.44Zm0,10V30.92h-7.87v7.34Z"/><path class="cls-1" d="M404.21,42.24c-2-4-5.14-7.48-10.37-13.25-1.2-1.29-2.78-2.68-4-4.08a5.57,5.57,0,0,1-1.59-3.79,6.66,6.66,0,0,1,1.87-4.37c1.49-1.68,3.22-3.12,4.81-4.65,1.39-1.3,3.12-2.79,4.75-4.42A36,36,0,0,0,403.54,3c.09-.19.19-.24.24-.24a41.58,41.58,0,0,1,3,3.36,1.56,1.56,0,0,1,.43.92c0,.24-.19.43-.52.43a1.91,1.91,0,0,1-1-.34c-1.4,1.3-3.17,2.83-4.42,3.94-5.09,4.22-7.39,6.1-8.79,7.82a3.36,3.36,0,0,0-.86,2.12,2.81,2.81,0,0,0,.48,1.53,37.55,37.55,0,0,0,3.94,3.94c3.79,3.74,10,9.74,12.33,14.26Z"/><path class="cls-1" d="M437.57,0h13.15V3h-10V41.67h-3.17Z"/><path class="cls-1" d="M465.6,28.75h19.2v-.28a30.58,30.58,0,0,0-.14-3.08c4.46,0,4.8.53,4.8.87s-.48.77-1.39.91a11.51,11.51,0,0,0-.1,1.49v.09h19.39v3H488V44.12H484.8V31.78H465.6ZM467,6.67H484.8V4.08s-.05-1.68-.09-2.78c3.55.19,4.89.38,4.89,1,0,.33-.48.72-1.44.91a10.54,10.54,0,0,0-.09,1.53l-.05,2h18.14v3H467Zm0,18.2a23.9,23.9,0,0,0,9.74-14c.05,0,4.27.34,4.27,1.15,0,.34-.52.63-1.53.67a19.23,19.23,0,0,1-.82,2.21,16.93,16.93,0,0,0,7.35,6.34l-3,2a18.23,18.23,0,0,1-5.62-5.76,28.16,28.16,0,0,1-7,8.78Zm18.67-1.59c6.19-4.41,7.73-11.85,7.83-12.48.24,0,2.49.39,3.36.58.62.14.86.38.86.62s-.48.63-1.39.63h-.15a20.13,20.13,0,0,1-1,2.92,25.81,25.81,0,0,0,10.56,8.31l-3.41,2.06a28.71,28.71,0,0,1-8.45-7.68A23.94,23.94,0,0,1,489,24.58Z"/><path class="cls-1" d="M529.68,22.66a27.67,27.67,0,0,1-4.9,4.41l-3-1.72c4.37-2.45,10.27-8.93,12.53-14.45,2.3,1.39,3.55,2.16,3.55,2.83,0,.29-.29.48-.77.48a2.76,2.76,0,0,1-.81-.14,61.26,61.26,0,0,1-4.32,6c.67,0,1.15,0,1.24,0,.68.15,1,.34,1,.63s-.52.77-1.39,1l0,22.17h-3.16Zm-7.44-9.46A27.53,27.53,0,0,0,533,1.2c1.3.53,3.65,1.73,3.65,2.4,0,.34-.43.53-1.06.53a1.94,1.94,0,0,1-.53,0c-2.35,3.7-5.47,8.07-9.79,11Zm11.42,27.94a29.83,29.83,0,0,0,14.5-5.47,25.86,25.86,0,0,1-4.37-5.62,33.66,33.66,0,0,1-6.48,5.43l-3.07-1.64A32.85,32.85,0,0,0,547,21.41c-2.78.24-5.71.48-8.64.62,0,.87-.29,1.44-.62,1.44-.77,0-1.68-3.93-1.73-4.32h1.63c1.54,0,3.12,0,4.71-.09,1.1-1,2.25-2,3.31-3a47.26,47.26,0,0,0-7.92-6.77l1.92-2c.86.62,1.77,1.29,2.59,1.92a44.86,44.86,0,0,0,5.86-8c2.78,1.1,3.74,1.82,3.74,2.3,0,.29-.38.48-1,.48a4.06,4.06,0,0,1-.67,0,59.46,59.46,0,0,1-6,6.91c1.44,1.3,2.69,2.45,3.5,3.26a81.8,81.8,0,0,0,8.45-9.6c.19.1,3.6,2.21,3.6,3,0,.28-.29.48-.77.48a3.12,3.12,0,0,1-1.05-.2s-6,6.1-11.57,11c4.94-.34,9.6-.82,12.72-1.25a27.94,27.94,0,0,0-3-3.65l2.31-1.34c.38.38,4.9,5,6.86,9.5l-2.73,2.07A30.72,30.72,0,0,0,560.55,20c-2.26.29-7.49.86-13.54,1.39.34.14,2.11.72,2.83,1,.43.14.63.33.63.48,0,.33-.68.62-1.44.62-.34.43-.82.91-1.2,1.44h9.26c.19,0,.43-.24.62-.24s.15,0,.2.05a15.87,15.87,0,0,1,1.82,1.15.52.52,0,0,1,.24.43c0,.24-.29.48-.77.63a32.34,32.34,0,0,1-6.62,8.64,26,26,0,0,0,14.16,4.08L563.47,43a25.94,25.94,0,0,1-13.15-5.42,32.49,32.49,0,0,1-13.73,6.33ZM546.1,27.36c-.19.24-.39.48-.58.77a22.71,22.71,0,0,0,4.8,5.76,26.61,26.61,0,0,0,5.33-6.53Z"/><path class="cls-1" d="M615,38.07a104.37,104.37,0,0,1-12.29.77c-8.16,0-13.2-1.83-13.2-8.69,0-3.51.43-19.59.43-19.59,0-1.39,0-2.59,0-3.7,4.75,0,5.19.53,5.19.87s-.48.81-1.44.91c0,.58,0,.72-.44,11.76,5.43-1.63,13.93-4.89,18.63-8.21.86.77,3.31,3.08,3.31,3.94,0,.29-.24.38-.57.38a2.86,2.86,0,0,1-1.4-.48,135.59,135.59,0,0,1-20.06,7.78c-.1,2.54-.15,4.51-.15,4.9,0,4.27.72,6.57,9.17,6.57a83.64,83.64,0,0,0,14.26-1.39Zm-.72-31.78a22.82,22.82,0,0,1,5.57,5.57l-2.45,1.82a21,21,0,0,0-5.33-5.86Zm4.46-2.69a21.49,21.49,0,0,1,5.62,5.23L622,10.75a22.27,22.27,0,0,0-5.43-5.57Z"/><path class="cls-1" d="M641.52,15.94c3.7,1,8.35,3.21,10.75,5.28l-1.92,3.31c-2.88-2.74-6.72-4.51-10.85-5.86Zm35.09,2c-7.06,8.92-17.23,17.52-28.8,21.36,0,.72-.24,1.25-.67,1.25-.63,0-3.51-3.22-4-3.94,0-.1-.09-.14-.09-.24s.09-.19.33-.24c15.08-2.45,27.27-15.89,31.64-22.42ZM648.24,6.14a31.28,31.28,0,0,1,10.13,6.53L656,15.75c-2.21-3-6.39-5.67-9.84-7.3ZM667.63,5a26.51,26.51,0,0,1,5.62,5.24l-2.35,1.92a27.78,27.78,0,0,0-5.43-5.57Zm4.23-3a27.06,27.06,0,0,1,5.66,4.94l-2.3,2a32.36,32.36,0,0,0-5.47-5.33Z"/><path class="cls-1" d="M698.11,36.63h19.35V29.76H699.17V26.69h18.29V21h-19.3V18h22.51V41h-3.21V39.7H698.11Z"/><path class="cls-1" d="M742.37,8.11c3.84,1.78,8.54,5.48,10.51,8.21L750,19.49c-2.25-3.79-6.67-7.2-10.13-9.17Zm31.54,10.18c-7.35,9.07-17.57,17-29.09,20.31-.05.86-.29,1.24-.63,1.24-.67,0-3.74-3.64-4-4a.35.35,0,0,1-.1-.24c0-.09,0-.14.29-.19,13.54-1.82,25.73-12.58,32-21.46Z"/><path class="cls-1" d="M791.28,42.1h10V3.46h3.17V45.12H791.28Z"/></g></g></svg>