<svg xmlns="http://www.w3.org/2000/svg" viewBox="0 0 511.24 97.08"><defs><style>.cls-1{fill:#fff;}</style></defs><g id="レイヤー_2" data-name="レイヤー 2"><g id="レイヤー_1-2" data-name="レイヤー 1"><path class="cls-1" d="M32.78,26.93c.31,6.34,5.46,6.47,6.69,6.47,1.72,0,6.86-.57,6.86-6.47,0-4.62-4.18-6-6.73-6h-.13L36.35,21V17.29l3.16.14h.18A5.66,5.66,0,0,0,45.41,12c0-1.94-1.23-4.89-5.85-4.89-1.67,0-5.55.67-5.81,5.51H29.7c0-3.83,2.73-8.94,10-8.94,5.23,0,9.5,2.64,9.5,8.14A7,7,0,0,1,43.52,19c4.22.57,6.73,4.09,6.73,8.45,0,6.42-5.28,9.54-11,9.54s-10.47-3.38-10.69-10Z"/><path class="cls-1" d="M59.36,33.53a28,28,0,0,1,2.86-4c2.59-3.13,6.82-6.65,10-10,2.11-2.25,3.26-4.4,3.26-6.87,0-3-2.25-5.23-5.64-5.23-3.82,0-6.29,3.12-6.42,7.39l-4.09,0c.48-6.17,3.74-11,10.69-11s9.59,4.84,9.59,8.63-1.18,6.51-4.57,9.72c-3,2.87-7.18,6.3-9.24,8.67-.66.75-1.24,1.54-1.5,1.9l15.23-.18v3.92H59.36Z"/><path class="cls-1" d="M93.32,23.9h19.24A9.56,9.56,0,0,0,109.08,21l3-1.27a10.8,10.8,0,0,1,1.54,1,32.6,32.6,0,0,0,4.8-3.48l-16.72.14v-3h19.58c.22,0,.39-.26.66-.26a10.67,10.67,0,0,1,2.24,1.8,1.22,1.22,0,0,1,.27.58c0,.35-.4.48-1,.57a75.1,75.1,0,0,1-7.92,5.63,6.77,6.77,0,0,1,.66,1.15h16.33l0,3.25H117.13a19,19,0,0,1,.18,2.64v.13c0,7.4-5,9.16-8.63,9.16a9.81,9.81,0,0,1-2.51-.31l-2.37-4.4a16.2,16.2,0,0,0,5.19,1.1c2.6,0,4.89-1.19,4.89-5.55v-.08a17.65,17.65,0,0,0-.14-2.69H93.32ZM95,8.05h8.32a22.23,22.23,0,0,0-4.14-6.29l3-1.19a22.91,22.91,0,0,1,4.22,6.29s-1.63.8-2.46,1.19h8.18a20.76,20.76,0,0,0-3-7l3-.75a18.3,18.3,0,0,1,3.26,6.77s-1.67.62-2.6,1h6A29.6,29.6,0,0,0,122.63.31a26.6,26.6,0,0,1,3.88,1.19c.39.17.61.39.61.61s-.44.53-1.41.53h-.13A37.4,37.4,0,0,1,122.19,8h8.5V18h-3.57V11.09l-28.69,0v6.82H95Z"/><path class="cls-1" d="M153.61,32.78c0-3.34.22-11.39.35-15a52.64,52.64,0,0,1-6,11.4L144.5,27.9c5-4.8,7.92-12.32,8.49-14h-6.6v-3h7.26V4.8c-3,.52-5.37.74-5.37.74L146.43,2.9s9-.17,13.38-2.9c0,0,1.89,1.41,2.38,1.85a1.53,1.53,0,0,1,.61,1c0,.22-.17.35-.48.35a3,3,0,0,1-1.15-.31,43.31,43.31,0,0,1-4.26,1.28v6.73h6.42v3h-6.07A46.93,46.93,0,0,0,164,23.41l-3,1.37a52.84,52.84,0,0,1-4.35-8c.09,3.39.35,15.36.35,16v6.78h-3.34Zm7.92-4.66,15.66-4.05V4.36s0-2.12-.13-3.92c0,0,3.21.09,4.14.22.48.09.75.31.75.57s-.4.62-1.24.79c-.08,1.1-.08,2.56-.08,2.56V23.19l4.48-1.14.71,3.12-5.19,1.37V39.39h-3.44v-12l-14.87,3.87Zm3.61-15s5.63,2.6,8.75,5.63L172,21.65c-3-3.34-8.66-6.07-8.66-6.07Zm1.93-9.73s5.28,3.3,8,6.65L173,12.63c-2.86-3.78-8-6.91-8-6.91Z"/><path class="cls-1" d="M208,14.74a5,5,0,1,1-5,5A5,5,0,0,1,208,14.74Z"/><path class="cls-1" d="M235.22,12.15c0-4.63,3.79-8.5,10-8.5s9.73,3.79,9.73,8.19a7.33,7.33,0,0,1-5.37,7.48A8,8,0,0,1,256,27.37c0,6.12-4.62,9.73-10.65,9.73-6.65,0-11.23-3.66-11.23-9.51a8.26,8.26,0,0,1,6.12-8.27A7.32,7.32,0,0,1,235.22,12.15ZM245,21c-3.61,0-6.91,2.2-6.91,6.47v.09c0,4.13,3.56,6.16,7.17,6.16A6.37,6.37,0,0,0,252,27.46c0-4.31-3.26-6.47-6.82-6.47Zm.13-3.52c3.3,0,5.85-1.85,5.85-5.54,0-3.08-2.2-5.2-5.94-5.2-3.47,0-6,2-6,5.37C239.1,15.8,242,17.47,245.17,17.47Z"/><path class="cls-1" d="M283.67,11.22c-.31-2.64-2.2-4-5-4-4.18,0-7.66,4.05-7.83,12.45a9.08,9.08,0,0,1,7.83-4.31c6.38,0,9.68,5.19,9.68,10.6,0,5.2-2.95,11.09-10.52,11.09-7.79,0-11-6.38-11-15.53,0-9,3-17.65,11.84-17.65,5,0,8.76,3.13,9,7.35Zm.57,15c0-3.17-1.49-7.57-6-7.57a6.92,6.92,0,0,0-6.95,6.86c0,3.35,1.76,8.1,6.47,8.1C282.26,33.62,284.2,29.84,284.24,26.23Z"/><path class="cls-1" d="M302.85,29.09h23.33V13.25H303.07V9.55H330V34.68h-3.78V32.83H302.85Z"/><path class="cls-1" d="M347.51,17.82h33.58v3.7H347.51Z"/><path class="cls-1" d="M393.05,32.92c13.64-5.42,19.37-15,22.8-22.27l-17.25.09V7.39l19-.13c.4,0,.58-.26.84-.26a.56.56,0,0,1,.31.13c2.24,1.54,2.77,1.93,2.77,2.29s-.61.53-1.06.66a83,83,0,0,1-6.55,11.13A92.67,92.67,0,0,1,427,32.92l-3.47,2.68a74.16,74.16,0,0,0-11.67-11.75,40,40,0,0,1-15,11.75Z"/><path class="cls-1" d="M438.86,35.82a166,166,0,0,0,10.65-20.11c-.66.13-1.32.31-2,.44a27.86,27.86,0,0,1-5.95.79h-.66l-1.14-3.34a.53.53,0,0,1,0-.22c0-.13,0-.13.17-.13H440a23.66,23.66,0,0,0,3.26.22,58.69,58.69,0,0,0,7.44-.88A34.56,34.56,0,0,0,453,3.08s3.17.53,4.23.84c.53.13.79.35.79.61s-.57.66-1.45.71c-.22,1.14-1.19,4.22-2.07,6.77l1-.17a7.9,7.9,0,0,1,1.45-.13c4.58,0,5.76,3.6,5.76,8.58,0,13.51-6,15.66-9.63,15.66a8.24,8.24,0,0,1-4.71-1.54l-.49-4.66a7.78,7.78,0,0,0,5.33,2.51c2,0,3.87-1.15,4.8-3.74a29.36,29.36,0,0,0,1.32-8.59c0-3.21-.66-5.32-3.13-5.32a23.43,23.43,0,0,0-2.86.4c-2.9,7-6.25,13.42-10.47,21.47Zm28.51-24.2c5.59,3.34,9.6,7.7,10,11.92l-3.17,1.72a.62.62,0,0,1-.26.09c-.09,0-.13-.09-.18-.27-.52-4.13-3.21-8.49-9.37-11.53-.13-.08-.22-.17-.22-.22s.09-.17.18-.22ZM468.3,5a18.75,18.75,0,0,1,5.81,3.92l-1.94,2.24a19.38,19.38,0,0,0-5.72-4.27ZM472,1.72a18.94,18.94,0,0,1,5.68,3.52l-1.85,2.33a18,18,0,0,0-5.63-3.87Z"/><path class="cls-1" d="M0,75.73H37.36v3.83H0Z"/><path class="cls-1" d="M51,73.49a.44.44,0,0,1-.14-.22c0-.09.09-.13.27-.18C57.86,72,64.42,67,74,67c11.44,0,11.8,8.63,11.8,10.3,0,9.94-12.68,14.87-23.24,14.87h-.13c-1.59-1.63-3.61-3.52-3.61-3.52h1.36c12.41,0,21.65-4.49,21.65-11.53,0-1.63-.7-7-7.92-7-8.71,0-14.61,5.24-20.15,6.69Z"/><path class="cls-1" d="M112.29,90.92C120.56,90.3,130,86.6,130,77.41c0-4.54-3.47-10.12-11.08-10.7a13,13,0,0,1,.08,1.76c0,8-5.89,16.51-8.27,19.32-1.45,1.72-3,2.47-4.31,2.47-3.3,0-6.6-4.58-6.6-9.38,0-8.18,8.18-17.12,18.26-17.12,9,0,15.67,6.21,15.67,13.69,0,10-9.07,15.45-17.3,16.86Zm-9.24-10.26c0,3.48,2.16,5.77,3.26,5.77a2.73,2.73,0,0,0,1.8-1.06c2.86-3.12,7.35-10.3,7.35-16.76,0-.58,0-1.11-.09-1.68C109,68.3,103.05,74.9,103.05,80.66Z"/><path class="cls-1" d="M147.53,80.84l14.26-2.77-1.54-7L148,73.49l-.71-3.43,12.15-2.38-.71-3.3s-.52-2.29-.88-3.48c1.06-.13,3.88-.52,4.27-.52.62,0,.93.17.93.44s-.4.66-1.06,1c.13,1,.53,2.86.53,2.86l.53,2.34L175,64.69l.7,3.48-11.84,2.28,1.55,6.91,14-2.73.7,3.48-14,2.73,3,13.64-3.52.75-3-13.73-14.3,2.82Z"/><path class="cls-1" d="M203.24,79.83c-3.13.75-6,1.45-7.75,1.89l-1-3c1.76-.36,4.8-1.06,8.14-1.81l-1-4.18s-.39-1.85-.7-2.77c0,0,2.86-.35,3.92-.4H205c.53,0,.75.18.75.4s-.35.66-1,.92c.13,1,.44,2.34.44,2.34l.66,2.9c5.68-1.32,11.09-2.64,11.22-2.68.36-.09.44-.4.75-.4s3,1.1,3,1.67c0,.27-.4.53-.79.66a44,44,0,0,1-6.87,10.52L209.4,85a28.69,28.69,0,0,0,6.42-8.23c-1.93.52-5.54,1.4-9.28,2.28l3.7,16.42-3.35.57Z"/><path class="cls-1" d="M238.88,64.29A27.29,27.29,0,0,1,248.73,72l-3,3.26c-2.15-3.61-6.16-6.78-9.46-8.59Zm29,9.64c-7,8.45-16.07,15.53-26.71,18.7-.18.75-.4,1.15-.71,1.15-.57,0-3.52-3.44-3.92-4.1a.34.34,0,0,1-.08-.22c0-.08.08-.17.31-.22C249,87.53,260,78.42,266.29,69.4Z"/><path class="cls-1" d="M276.1,89.24c6.6-5.23,10.47-14.17,12.1-21.47l4,1.1c-3,9.81-7,17.69-11.58,22Zm33,.88c-1.94-6.68-6.38-14.69-12.19-21.25l3.21-1.54c4.89,5,11.36,15.09,13.12,20.86Zm-.22-30a5.22,5.22,0,1,1-5.19,5.23A5.18,5.18,0,0,1,308.84,60.16Zm2.6,5.23a2.6,2.6,0,0,0-2.6-2.59,2.58,2.58,0,0,0,0,5.15A2.6,2.6,0,0,0,311.44,65.39Z"/><path class="cls-1" d="M326.35,90.92C340,85.5,345.71,76,349.14,68.65l-17.25.09V65.39l19-.13c.4,0,.57-.26.84-.26a.56.56,0,0,1,.3.13c2.25,1.54,2.78,1.93,2.78,2.29s-.62.53-1.06.66a82.1,82.1,0,0,1-6.56,11.13,93.3,93.3,0,0,1,13.12,11.71L356.8,93.6a73.69,73.69,0,0,0-11.66-11.75A40.12,40.12,0,0,1,330.09,93.6Z"/><path class="cls-1" d="M371.93,67.64a.72.72,0,0,1-.09-.27c0-.13.14-.26.4-.26,6.43,0,14.43-2.73,29.92-4.45a3.15,3.15,0,0,0,.53-.13,1.64,1.64,0,0,1,.57-.17c.4,0,1.72,3,1.72,3.6a.35.35,0,0,1-.4.4,2.14,2.14,0,0,1-.7-.22,14.24,14.24,0,0,0-5.1,1.06c-4.23,1.63-11.67,8.18-11.67,14,0,7.34,8.41,9.1,14.31,9.28l-3.26,3.79c-4.18-.62-14.52-3.22-14.52-12.5,0-4.4,3.12-10.3,9.94-14.92-7.43,1-14.39,3.48-19.71,4.22Zm29.31,1.8a24.6,24.6,0,0,1,4.14,5.94l-2.56,1.41a21.79,21.79,0,0,0-4-6.12Zm4.53-1.54a21.34,21.34,0,0,1,4.1,5.33l-2.47,1.54a21.92,21.92,0,0,0-3.92-5.55Z"/><path class="cls-1" d="M422.88,81.9h19.23A9.43,9.43,0,0,0,438.64,79l3-1.27a10.8,10.8,0,0,1,1.54,1,32.6,32.6,0,0,0,4.8-3.48l-16.72.14v-3h19.58c.22,0,.39-.26.66-.26a10.67,10.67,0,0,1,2.24,1.8,1.22,1.22,0,0,1,.27.58c0,.35-.4.48-1,.57a75.1,75.1,0,0,1-7.92,5.63,6.77,6.77,0,0,1,.66,1.15h16.33l0,3.25H446.69a19,19,0,0,1,.18,2.64v.13c0,7.4-5,9.16-8.63,9.16a9.81,9.81,0,0,1-2.51-.31l-2.37-4.4a16.2,16.2,0,0,0,5.19,1.1c2.6,0,4.89-1.19,4.89-5.55v-.08a17.65,17.65,0,0,0-.14-2.69H422.88Zm1.63-15.85h8.32a22.23,22.23,0,0,0-4.14-6.29l3-1.19a22.91,22.91,0,0,1,4.22,6.29s-1.63.8-2.46,1.19h8.18a20.76,20.76,0,0,0-3-7l3-.75a18.3,18.3,0,0,1,3.26,6.77s-1.67.62-2.6,1h6a29.6,29.6,0,0,0,3.91-7.74,26.23,26.23,0,0,1,3.87,1.19c.4.17.62.39.62.61s-.44.53-1.41.53h-.13A37.4,37.4,0,0,1,451.75,66h8.5V76h-3.57V69.09l-28.69,0v6.82h-3.48Z"/><path class="cls-1" d="M483.12,85c-2.59,2-6.77,5.19-8.93,7.17a1.44,1.44,0,0,1,.17.61c0,.31-.17.45-.39.45a1.06,1.06,0,0,1-.66-.23,36.83,36.83,0,0,1-3-2.5c-.09,0-.13-.09-.13-.14s.09-.13.22-.22c2.82-1.76,9-6.2,12-8.44Zm-1.23,4a12.18,12.18,0,0,0,6.78,2.2c3.47,0,4.62-2.29,4.62-3.83,0-2.11-1.37-3.65-4.49-6.77-1.89-1.9-2.69-3.57-2.69-5.07,0-2.37,2-4.4,5-6.33.27-.18.44-.31.44-.49a.53.53,0,0,0-.17-.35c-.84-1-3.61-3.56-4.45-5.28l1.89-2.46c.05-.09.09-.09.14-.09s.21.09.3.26c1,2.33,5.11,6.73,7.09,7.79.61.31,1.05.4,1.05.84,0,0-.61,2.55-1.18,2.55a1.93,1.93,0,0,1-.58-.13,3.66,3.66,0,0,0-1.23-.18c-1.85,0-5.15,1.85-5.15,3.65,0,.93.66,1.94,2,3.17,3.13,3,5.81,5.77,5.81,9.24,0,2.73-2.2,6.91-8.84,6.91a14.18,14.18,0,0,1-5.24-1ZM501.6,78.55c4,1.85,8.85,5.77,9.38,9.51l-3.17,2.06c-.09,0-.13.09-.18.09s-.13-.09-.17-.26c-.4-4-4.54-7.88-8.76-9.33Zm.4-13.11a21.59,21.59,0,0,1,4.8,5.37l-2.51,1.89a18.15,18.15,0,0,0-4.62-5.64Zm4.58-2.25c.66.49,3.69,2.86,4.66,4.71l-2.46,2a17.56,17.56,0,0,0-4.54-5Z"/></g></g></svg>