<svg xmlns="http://www.w3.org/2000/svg" viewBox="0 0 771.89 43.2"><defs><style>.cls-1{fill:#fff;}</style></defs><g id="レイヤー_2" data-name="レイヤー 2"><g id="レイヤー_1-2" data-name="レイヤー 1"><path class="cls-1" d="M0,40.42c3-6,3.26-13.15,3.31-13.68.39.09,2.4.38,3.56.72.38.09.57.29.57.53s-.43.67-1.3.76a56,56,0,0,1-2.59,12ZM8.11,22.85c-1.63.34-3.36.62-5.18.91-.05.87-.29,1.44-.63,1.44s-.52-.29-.76-1c-.48-1.34-1-3.55-1-3.55,1.1-.05,2.3-.14,3.45-.29C5,19,6,17.57,7,16.08a35,35,0,0,0-5.62-5.86L2.78,7.63c.48.43,1,.82,1.44,1.25A39.49,39.49,0,0,0,8.5,0c1.29.53,4,1.78,4,2.4,0,.24-.29.43-.77.43a4,4,0,0,1-.62-.09,67.43,67.43,0,0,1-4.85,8.2c.91,1,1.68,1.88,2.3,2.6a72.35,72.35,0,0,0,4.8-8.93c3.22,1.63,3.84,1.92,3.84,2.64,0,.24-.19.38-.62.38a2.4,2.4,0,0,1-.77-.09c-.29.52-4.46,7.34-8.06,12.33,2.25-.33,4.32-.72,5.71-1.05a24.55,24.55,0,0,0-1.58-3.51l2.78-1a57.33,57.33,0,0,1,3.36,9.4l-2.78,1.2c-.29-1.2-.58-2.3-.87-3.36-.86.2-2,.44-3.21.68l.09,20.88H8Zm6.1,13.3a42.67,42.67,0,0,0-1.59-9.27l2.69-.67a59.43,59.43,0,0,1,1.88,9Zm1.15,3.07c2.69-2.83,3.84-7.11,4.42-10.27a32.35,32.35,0,0,1,3.26.67c.43.14.67.33.67.57s-.38.58-1.1.68A28.78,28.78,0,0,1,19.15,40Zm.48-26.12c4.71-2.73,7.44-7.29,9-11.8,0,0,2.4.52,3.21.76.58.2.82.44.82.68s-.53.67-1.44.67c-1.15,2.73-4,8.21-7.92,11.23Zm23.24,9.27a18.6,18.6,0,0,0-1.59-2.54C34.8,20.21,26,21.51,20.4,22c0,.58-.24,1.16-.57,1.16s-.39-.2-.63-.72-1-3.41-1-3.41c1.59,0,3.36-.19,5.14-.34A42.91,42.91,0,0,0,27.55,8.26s2.21.52,3.61,1c.57.14.81.38.81.57,0,.34-.53.58-1.44.63-.33.81-1.92,4.75-3.6,8,3.27-.39,6.34-.77,8.45-1.11a41.59,41.59,0,0,0-3.84-3.7s2-1,2.78-1.34c0,0,5.76,5.09,7.83,8.5Zm-14.6,7.3v-.53a17.1,17.1,0,0,0-.14-2.55c4.46,0,4.75.34,4.75.68s-.48.76-1.25.86c-.05.72-.24,6.91-.24,9,0,1.63.72,2.16,3.75,2.16,3.5,0,4.22-.82,4.22-5.19l3.51,3.12c-.48,4.13-2.26,5.14-7.83,5.14-5.09,0-6.91-1.25-6.91-4.08v-.1Zm5-7.83a36.14,36.14,0,0,1,6.39,7.44L33,31.2a28.87,28.87,0,0,0-6-7.82ZM34.18,1.25c2,4.17,7.44,9,10.7,10.61l-3.84,2A36.67,36.67,0,0,1,31.2,2.21Zm5.42,26.5a33.27,33.27,0,0,1,5.62,9.36l-3.46,1.2a26.74,26.74,0,0,0-5.18-9.51Z"/><path class="cls-1" d="M62.83,18.72A45,45,0,0,0,84.39.14s2.4.48,4.08,1a.65.65,0,0,1,.52.58c0,.29-.38.62-1.53.67a46.23,46.23,0,0,0,21.12,15.12l-4.18,3.07a46.66,46.66,0,0,1-8.25-4.94V19H75.41V15.7a55.19,55.19,0,0,1-8.88,5.66Zm9,6.29L99.36,25V42.82l-3.6,0V40.23H75.36v2.83h-3.5Zm23.9,11.76V28.32H75.36v8.45Zm.15-21.26A53.91,53.91,0,0,1,85.49,5.14,53.27,53.27,0,0,1,75.6,15.51Z"/><path class="cls-1" d="M129.12,26.16h21A10.38,10.38,0,0,0,146.31,23l3.26-1.39a12.21,12.21,0,0,1,1.68,1.1A34.66,34.66,0,0,0,156.48,19l-18.24.15V15.84H159.6c.24,0,.44-.29.72-.29s2.16,1.68,2.45,2a1.36,1.36,0,0,1,.29.63c0,.38-.43.52-1.1.62a81.34,81.34,0,0,1-8.65,6.14,8.5,8.5,0,0,1,.72,1.25h17.81l0,3.55H155.09a20.87,20.87,0,0,1,.19,2.88v.15c0,8.06-5.47,10-9.41,10a11,11,0,0,1-2.73-.33l-2.59-4.8a17.87,17.87,0,0,0,5.66,1.2c2.83,0,5.33-1.3,5.33-6v-.1a19.51,19.51,0,0,0-.15-2.93H129.12ZM130.9,8.88H140A24.1,24.1,0,0,0,135.46,2l3.26-1.3a24.78,24.78,0,0,1,4.61,6.86s-1.78.87-2.69,1.3h8.93a22.94,22.94,0,0,0-3.31-7.63l3.31-.82a20.06,20.06,0,0,1,3.55,7.39s-1.82.68-2.83,1.06h6.53A32.64,32.64,0,0,0,161.09.43a29.81,29.81,0,0,1,4.23,1.3c.43.19.67.43.67.67s-.48.58-1.54.58h-.14a42.52,42.52,0,0,1-3.7,5.85h9.27V19.68H166V12.19l-31.3,0v7.44H130.9Z"/><path class="cls-1" d="M194.16,1.58H205a.84.84,0,0,1,.48-.24s2.64,1.73,2.64,2.31c0,.24-.24.43-.86.67a80.29,80.29,0,0,1-3.51,10.9,13.81,13.81,0,0,1,3.84,8.93c0,8-4.84,8.3-7.2,8.3l-2.21-4a15.21,15.21,0,0,0,2.6.29c1,0,3.21-.15,3.21-4.32a12.17,12.17,0,0,0-3.88-8.64,69.45,69.45,0,0,0,3.26-11.09h-5.57V43.2h-3.6Zm8.45,38.65C213,38.21,216,32.79,216,24.39v-.2h-7V20.88h26.16v3.31H227L227,37.73c0,.58.38,1.35,1.92,1.35,2.4,0,3.55-1,3.55-6.44L236,35.48c-.62,7-4.13,7.1-7.44,7.1-1.49,0-5.18-.1-5.18-4l.09-14.36h-3.93c-.15,9.36-2.93,15.37-13.06,19Zm5.71-34.95h10.85V4.08s0-2.64-.14-3.74c0,0,3.64.24,4.7.33.53,0,.86.34.86.63s-.43.72-1.53,1c-.05.57-.1,1.92-.1,1.92v1.1h11.76v9.17h-3.21v2H211.25V14.35h-2.93ZM231,13.2V8.64H212V13.2Z"/><path class="cls-1" d="M260.07,36.92c12.86-2.36,15.21-10.13,15.79-17.38H258.29v-4H294.1v4H280.18c-.53,7.39-3.36,17.76-16.23,20.78Zm3.21-31.4h25.88v4H263.28Z"/><path class="cls-1" d="M314.83,37c13.92-4.32,21.51-12.77,27.56-25.06l-11.81.1a49.87,49.87,0,0,1-12.29,11.66l-4.08-2.2a41,41,0,0,0,17-18.44c4.22,1,5.23,1.35,5.23,1.83,0,.28-.62.52-1.2.52H335c-.62,1.11-1.29,2.21-2,3.22,4.7-.05,11.09-.1,11.33-.14.43-.05.57-.48,1-.48s3.26,2.25,3.26,2.83c0,.38-.48.62-1.15.77-6.82,13.29-14,23.28-28.33,28.42Z"/><path class="cls-1" d="M360.29,37.3c14.35-5.95,23-18.19,27.12-30.87,0,0,3,1.2,4.8,2.16.63.34.87.67.87.91,0,.39-.58.63-1.3.63a2.6,2.6,0,0,1-.62-.05c-5,11.33-12.73,23.57-26.31,30.05Z"/><path class="cls-1" d="M412.13,36C427,30.1,433.25,19.68,437,11.71l-18.81.1V8.16L438.87,8c.43,0,.62-.29.91-.29a.7.7,0,0,1,.34.14c2.44,1.68,3,2.11,3,2.5s-.67.57-1.15.72a89.69,89.69,0,0,1-7.16,12.14A101.25,101.25,0,0,1,449.14,36l-3.79,2.93a80.82,80.82,0,0,0-12.72-12.82,43.67,43.67,0,0,1-16.42,12.82Z"/><path class="cls-1" d="M466.7,37.06c9.27-5.71,13.54-12.53,15.37-21.89-4,0-8,.05-12.1.05V11.67h12.67c.34-2.69.53-5.57.63-8.65a46.33,46.33,0,0,1,4.65.39c.77.09,1.06.33,1.06.62s-.63.82-1.59.91c-.14,2.4-.38,4.61-.67,6.68h13.2c-.09,5.13-.48,15.17-2.44,20.93-1.83,5.42-5.72,6.81-10.18,6.81a26.55,26.55,0,0,1-3.41-.24l-2.45-4.75a36.75,36.75,0,0,0,6.39.91c5.42,0,7.39-3.93,8-20.11H486.1c-2.55,12.29-8,18.77-15.27,24.53Z"/><path class="cls-1" d="M554.84,19.44c-4.13,5.28-14.74,14.93-26.36,18.39-.14.43-.33.72-.62.72-.67,0-3.55-3.41-3.55-3.84s.33-.72.33-1.16c0-4.12.05-21.45.05-21.45,0-.87-.05-3.32-.15-4.66.53,0,3.75.14,4.85.29.68.09,1,.38,1,.72s-.57.81-1.58.91a30.08,30.08,0,0,0-.1,3.07c-.05,7.88-.09,19.49-.09,20.79,10-2.5,20.64-12.87,24.38-18.91Z"/><path class="cls-1" d="M580.85,28a27.66,27.66,0,0,0-4.23-9.84l3.22-1.34a35.66,35.66,0,0,1,4.37,9.36Zm-.77,10.57c10.37-3.27,17.14-11,18-23.14,0,0,2.45.38,4,.77a.8.8,0,0,1,.76.72c0,.48-.72.72-1.2.81-2.06,12.53-8.16,19.3-17.95,23.72Zm8.4-12.68a31.81,31.81,0,0,0-3.55-10.17l3.31-1.06A35.58,35.58,0,0,1,592,24.34Z"/><path class="cls-1" d="M625.73,14.74c3.74,1,8.45,3.17,11,5.37l-2.21,3.75c-3-2.88-6.81-4.61-11-6.05Zm35.19,2.35c-7.49,9.5-17.33,17.47-28.95,21.41-.1.62-.34,1.3-.77,1.3-.67,0-4.13-4.28-4.22-4.42a.67.67,0,0,1-.1-.29c0-.1.1-.19.34-.24a36.8,36.8,0,0,0,10.27-3.26,57.92,57.92,0,0,0,21.6-19.3ZM632.45,5a30.69,30.69,0,0,1,10.32,6.63l-2.69,3.5C637.68,12,633.55,9.26,630,7.63Zm19.2-1.25A22.26,22.26,0,0,1,657.17,9l-2.64,2.11a23.43,23.43,0,0,0-5.33-5.62ZM656.26.67a23.11,23.11,0,0,1,5.47,4.85l-2.49,2.21a23.26,23.26,0,0,0-5.38-5.28Z"/><path class="cls-1" d="M709.73,38.74a43,43,0,0,1-10.9,1.39c-6.91,0-15.36-1.82-15.36-9.07,0-5.23,4.61-8.64,9.7-10.85a14,14,0,0,1-1.39-6.58c.05-1.44.19-3.36.19-5.9V6.53c0-1.25-.05-2.64-.14-4.18V2.16c0-.19,0-.24.24-.24.81,0,3.93.58,4.65.72.39.1.82.29.82.58s-.34.52-1.25.81c-.24,3.65-.53,7.78-.53,8.83v.68a11.42,11.42,0,0,0,1,5.28c1.68-.53,3.31-1,4.8-1.39,2.21-.58,4.47-1,6.29-1.54H708a.3.3,0,0,1,.33.34v4.22c-6.91.19-21.07,3.36-21.07,10.37,0,3.6,4.08,5.37,10.17,5.37a42,42,0,0,0,13.16-2.3Z"/><path class="cls-1" d="M736.18,39.6c-1.64-2.44-2.55-7.63-2.55-12.33,0-.63,0-1.25,0-1.83.53-9.31,2.54-16.7,3-21.74.05-.2.14-.29.33-.29h.1s2.59.53,4.18,1c.52.19.76.43.76.67s-.57.72-1.68.72c-.67,3.31-2.64,10.66-3.21,17.9,0,1.11-.19,2.45-.19,3.8,0,1.53.14,2.25.28,2.25s.29-.09,3.65-9.31c0,0,1,2.06,1.59,3.55-2.84,7-3.36,10.56-3.36,12.92a13.58,13.58,0,0,0,.14,2Zm8.4-27.84a.33.33,0,0,1-.05-.19c0-.15.05-.19.19-.19h.1a25.44,25.44,0,0,0,6.81,1.1A36.34,36.34,0,0,0,757.3,12V9.6c0-2.21,0-4.32-.1-6.72l3.84.24c1,0,1.44.34,1.44.67s-.48.67-1.44.91c-.09,1.16-.19,2.55-.19,3.12-.05,1.2-.05,2.4-.1,3.56,2.5-.44,5.09-1,7.69-1.59l.14,3.6c-2.69.53-5.33,1-7.83,1.4,0,5.52.34,10.32.53,13.92a32.42,32.42,0,0,1,10.61,5.95l-3.17,3a21.93,21.93,0,0,0-7.15-5.48c-.24,4.66-4.18,7-8.4,7-4.61,0-8.64-2.73-8.64-6,0-2.83,3.12-5.67,9.55-5.67a30.56,30.56,0,0,1,3.75.29c-.15-2.73-.39-7.44-.48-12.57a60.64,60.64,0,0,1-7,.62,19.42,19.42,0,0,1-4.9-.62Zm9.26,18.77c-3.26,0-5.71,1.1-5.71,2.64,0,1.39,2.21,2.59,5,2.59a4.58,4.58,0,0,0,5-4.61A15.44,15.44,0,0,0,753.84,30.53Z"/></g></g></svg>