<svg xmlns="http://www.w3.org/2000/svg" viewBox="0 0 357.38 94.73"><defs><style>.cls-1{fill:#fff;}</style></defs><g id="レイヤー_2" data-name="レイヤー 2"><g id="レイヤー_1-2" data-name="レイヤー 1"><path class="cls-1" d="M0,6.22H6.64A32.16,32.16,0,0,0,9,0c.17,0,4.33.34,4.33,1.09,0,.34-.59.63-1.47.67,0,.09-1.18,2.65-2.15,4.46H25.37V37.51H22.52V35H2.81v2.78H0Zm22.52,8.36V8.86H2.81v5.72Zm0,8.69v-6H2.81v6Zm0,9.08V26H2.81v6.35Z"/><path class="cls-1" d="M39.48,19.37c7.77-4.21,12.81-13.7,13.86-17.52,3.49,1.17,4,1.76,4,2.1s-.54.54-1.17.54a2.19,2.19,0,0,1-.51,0c-2.1,4.12-6,11.81-13,16.64Zm.63,15.83C52.54,33,54.85,24.2,55.57,18.27H49.1v-2.6H69.93c0,4.91-.33,12.68-1.59,16.63s-4,5-7.65,5a26.72,26.72,0,0,1-3.15-.21l-2-3.36a32.76,32.76,0,0,0,5.2.67c2.15,0,4.08-.63,4.84-3C66.53,28.27,67,22,67,18.27H58.68C58,23.61,55.61,34.45,43.05,37.64ZM63.72,1.68c3.69,7.14,8.69,12.9,14.87,16.42l-3.24,2.23C70.61,17,64.64,9.24,61.28,2.86Z"/><path class="cls-1" d="M104.2,31.88c7.48-.58,16.81-4.32,16.81-13.1,0-5.34-4.29-10.08-11.05-10.5,0,.5.08,1.05.08,1.59,0,7.4-5.08,15.08-7.47,18-1.47,1.85-3,2.78-4.46,2.78-2.52,0-6.09-3.53-6.09-8.74C92,14.2,99.83,5.8,109.33,5.8c8.69,0,14.83,5.92,14.83,13,0,9.33-8.57,14.45-16.47,15.84ZM94.79,21.8c0,3.15,1.94,5.71,3.2,5.71,2.52,0,9-10.16,9-17.39,0-.54,0-1.13-.09-1.68C100.59,9.62,94.79,16.05,94.79,21.8Z"/><path class="cls-1" d="M138.39,33.14a41.43,41.43,0,0,0,17.89-14.61l-15.24,0V15.88H157V10H143V7.31h14V3.82s0-2.14-.13-3.53c4.24,0,4.37.59,4.37.8s-.51.72-1.39.84c-.08,1.05-.08,2.27-.08,2.27V7.31H173.8V10H159.73v5.88h16v2.73l-15.46-.08c2.36,3.15,8.62,10.5,18.32,14.07l-3.36,2.18c-7.69-3.86-13.19-10.29-15.67-13.61.09,2.1.21,5.42.21,8.53l0,7.81h-3l0-7.77c0-1.8.17-5.8.25-8.4a45.71,45.71,0,0,1-15.66,13.78Z"/><path class="cls-1" d="M189,33.86a39.73,39.73,0,0,0,17.85-13.57l-15.46.13V17.81H207.4V8.86H192.86V6.22H207.4V3.28s0-1.47-.09-2.9c.55,0,2.15,0,3.49.25.51.08.72.29.72.5s-.51.72-1.35.89c-.08.84-.08,1.93-.08,1.93V6.22h14.57V8.86H210.09v9h3.48a47.07,47.07,0,0,0,3.49-8,31.15,31.15,0,0,1,3,1c.51.21.76.46.76.67s-.38.46-1.09.46h-.3c-.88,1.93-2.35,4.54-3.1,5.88h9.83v2.65l-15.67-.13a41,41,0,0,0,18.14,13l-3.27,2.19A43.52,43.52,0,0,1,209.92,23c.12,2.81.25,8.65.25,14.66h-2.86l.05-6.6c0-2.31.08-5.58.16-7.81a43.37,43.37,0,0,1-15.41,12.6Zm10.62-23.78a27.23,27.23,0,0,1,3.62,6.55l-2.48,1.1a29.87,29.87,0,0,0-3.49-6.85Z"/><path class="cls-1" d="M240.32,22.56c-.12,0-.21-.09-.21-.17a.24.24,0,0,1,.09-.17,54.57,54.57,0,0,0,8.57-12.31c-.34.05-2,.17-3.07.17A7.72,7.72,0,0,1,241.5,9l-.29-3V6c0-.13,0-.17.12-.17a.27.27,0,0,1,.17,0,9.17,9.17,0,0,0,4.83,1.6,27.66,27.66,0,0,0,3.49-.25,41,41,0,0,0,1.85-5.47c.79.09,2.81.51,3.27.59s.8.38.8.63-.46.63-1.51.67c-.38,1-.93,2.19-1.39,3.2A83.74,83.74,0,0,0,261.2,5l-.08,2.77c-3.36.76-6.64,1.31-9.45,1.73a47,47,0,0,1-4.25,6.55l-.17.25c.05,0,.13-.08.26-.21a9.29,9.29,0,0,1,6.26-2.48c2.73,0,4.32,1.77,4.87,4.45,1.47-.67,2.94-1.3,4.45-1.89,2-.84,4.24-1.63,5.76-2.26l2.1,2.64c0,.09.08.13.08.17s-.08.13-.21.17a61.62,61.62,0,0,0-12,3.86c0,1.73-.21,5.8-.3,7.31l-2.94.3c0-1.35.26-4.37.34-6.18-6.09,3.32-6.59,5.63-6.59,6.64,0,1.3.67,4,7.26,4a37.36,37.36,0,0,0,9.16-1.6l-.55,3.49a36.13,36.13,0,0,1-8.48,1c-7.06,0-10.13-3.15-10.13-6.64,0-3.32,2.69-6.26,9.37-9.74-.17-2.36-1-3.58-3.19-3.58h0c-3,0-7.65,4.71-9.41,7.61Z"/><path class="cls-1" d="M286.94,34.36a22.31,22.31,0,0,0,2.61.3c1.17,0,2.18-.34,2.18-1.73V22.64q-1.44.63-3.15,1.26a1.93,1.93,0,0,1,.13.67c0,.42-.21.72-.46.72s-.38-.13-.59-.46c-.68-1-1.6-2.82-1.73-3,2.19-.67,4.12-1.34,5.8-2V11.17h-4.91V8.7h4.91V3.15s0-1.72-.12-3c.16,0,4.11.08,4.11.88,0,.29-.38.59-1.17.71-.09.76-.13,1.89-.13,1.89v5h4.45v2.47h-4.45v7.57c2-.89,3.49-1.64,4.37-2.11l.29,2.53c-1.43.75-2.9,1.51-4.66,2.31v7.85c0,2.06.08,3.61.08,3.91,0,3.53-2.39,4.2-5.08,4.2h-.8ZM299.5,5.92h6.09c0-1.51,0-2.64,0-2.73,0-.25,0-1.76-.08-2.73,3.65,0,3.91.59,3.91.8s-.43.59-1.22.71A12.66,12.66,0,0,0,308,3.7V5.92h5.71V3.19c0-.25,0-1.76-.08-2.73,3.65,0,3.91.59,3.91.8s-.42.59-1.22.71a12.66,12.66,0,0,0-.13,1.73V5.92h7.19V8.44h-7.19v5.42h-2.48V8.44H308v5.42h-2.48l0-5.42H299.5Zm1.31,10h20.83V37.22h-2.56V35.16H303.33v2.48h-2.52Zm8.86,8.06V18.32h-6.34v5.62Zm0,8.78V26.3h-6.34v6.42Zm9.41-8.78V18.32h-6.89v5.62Zm0,8.78V26.3h-6.89v6.42Z"/><path class="cls-1" d="M353.69,36.21c-1.73-3.49-4.5-6.55-9.08-11.59-1.05-1.14-2.43-2.36-3.49-3.57a4.93,4.93,0,0,1-1.38-3.32,5.82,5.82,0,0,1,1.64-3.83c1.3-1.47,2.81-2.73,4.2-4.07,1.22-1.13,2.73-2.44,4.16-3.87a31.82,31.82,0,0,0,3.36-4.07c.08-.17.17-.21.21-.21s0,0,2.64,2.94a1.34,1.34,0,0,1,.38.8c0,.21-.17.38-.46.38a1.71,1.71,0,0,1-.84-.3C353.81,6.64,352.26,8,351.17,9c-4.46,3.69-6.47,5.33-7.69,6.84a2.92,2.92,0,0,0-.76,1.85,2.55,2.55,0,0,0,.42,1.35,33,33,0,0,0,3.45,3.44c3.31,3.28,8.73,8.53,10.79,12.48Z"/><path class="cls-1" d="M20.1,55.24H31.61v2.65H22.87V91.71H20.1Z"/><path class="cls-1" d="M44.62,80.41H61.43v-.26a25,25,0,0,0-.13-2.68c3.91,0,4.2.46,4.2.75s-.42.67-1.22.8a11,11,0,0,0-.08,1.3v.09h17v2.64h-17v10.8H61.43V83.05H44.62Zm1.26-19.33H61.43V58.81s0-1.47-.09-2.43c3.11.17,4.29.33,4.29.84,0,.29-.42.63-1.26.8a8.08,8.08,0,0,0-.09,1.34l0,1.72H80.12v2.61H45.88Zm0,15.92a20.88,20.88,0,0,0,8.52-12.26s3.74.29,3.74,1c0,.29-.46.54-1.34.58a16.47,16.47,0,0,1-.72,1.94,14.84,14.84,0,0,0,6.43,5.54L60,75.53a15.73,15.73,0,0,1-4.92-5,24.74,24.74,0,0,1-6.13,7.69Zm16.34-1.38C67.69,71.75,69,65.24,69.11,64.7c.21,0,2.19.33,2.94.5.55.13.76.34.76.55s-.42.54-1.22.54h-.12a20.05,20.05,0,0,1-.93,2.56,22.67,22.67,0,0,0,9.24,7.27l-3,1.81a25.2,25.2,0,0,1-7.39-6.72,21,21,0,0,1-4.33,5.54Z"/><path class="cls-1" d="M100.69,75.07a24.29,24.29,0,0,1-4.28,3.87l-2.65-1.52c3.83-2.14,9-7.81,11-12.64,2,1.22,3.11,1.89,3.11,2.48,0,.25-.26.42-.68.42a2.14,2.14,0,0,1-.71-.13,52.17,52.17,0,0,1-3.78,5.25c.59,0,1,0,1.09,0,.59.12.84.29.84.54s-.46.67-1.22.88l0,19.41h-2.77ZM94.18,66.8a24.13,24.13,0,0,0,9.46-10.51c1.13.47,3.19,1.52,3.19,2.1,0,.3-.38.47-.93.47a1.48,1.48,0,0,1-.46,0c-2.06,3.24-4.79,7.06-8.57,9.58Zm10,24.44a26.1,26.1,0,0,0,12.69-4.78A23.31,23.31,0,0,1,113,81.54a29.32,29.32,0,0,1-5.67,4.75l-2.68-1.43A28.75,28.75,0,0,0,115.82,74c-2.44.21-5,.42-7.56.55,0,.75-.26,1.26-.55,1.26-.67,0-1.47-3.45-1.51-3.79h1.43c1.34,0,2.73,0,4.11-.08,1-.84,2-1.72,2.9-2.6a40.64,40.64,0,0,0-6.93-5.93l1.68-1.76c.76.55,1.55,1.13,2.27,1.68a38.63,38.63,0,0,0,5.12-7c2.44,1,3.28,1.6,3.28,2,0,.25-.34.42-.88.42a3.13,3.13,0,0,1-.59,0,50.34,50.34,0,0,1-5.21,6c1.26,1.13,2.35,2.14,3.07,2.85a71.74,71.74,0,0,0,7.39-8.4c.17.09,3.15,1.93,3.15,2.65,0,.25-.25.42-.67.42a2.74,2.74,0,0,1-.92-.17s-5.21,5.34-10.13,9.62c4.33-.29,8.4-.71,11.13-1.09a23.64,23.64,0,0,0-2.64-3.19l2-1.18c.34.34,4.29,4.41,6,8.32l-2.39,1.8a28.42,28.42,0,0,0-1.68-3.61c-2,.25-6.56.76-11.85,1.22.29.12,1.85.63,2.48.88.38.13.54.3.54.42,0,.3-.58.55-1.26.55-.29.38-.71.8-1.05,1.26h8.11c.17,0,.38-.21.55-.21a.23.23,0,0,1,.17,0,12.16,12.16,0,0,1,1.59,1,.43.43,0,0,1,.21.38c0,.21-.25.42-.67.54a28.21,28.21,0,0,1-5.8,7.56A22.64,22.64,0,0,0,133.12,90l-2.85,2.9a22.69,22.69,0,0,1-11.51-4.74,28.61,28.61,0,0,1-12,5.54Zm10.88-12c-.17.21-.33.42-.5.67a19.74,19.74,0,0,0,4.2,5,23.41,23.41,0,0,0,4.66-5.71Z"/><path class="cls-1" d="M175.33,88.56a91.11,91.11,0,0,1-10.75.67c-7.14,0-11.55-1.6-11.55-7.61,0-3.06.38-17.13.38-17.13,0-1.22,0-2.27,0-3.24,4.16,0,4.54.46,4.54.76s-.42.71-1.26.8c0,.5,0,.63-.38,10.29,4.75-1.43,12.18-4.29,16.3-7.19.76.68,2.9,2.69,2.9,3.45,0,.25-.21.33-.5.33a2.42,2.42,0,0,1-1.22-.42,119.05,119.05,0,0,1-17.56,6.81c-.09,2.23-.13,4-.13,4.28,0,3.74.63,5.76,8,5.76a72.79,72.79,0,0,0,12.47-1.22Zm-.63-27.81a19.77,19.77,0,0,1,4.88,4.87l-2.15,1.6a18.47,18.47,0,0,0-4.66-5.13Zm3.91-2.36A18.88,18.88,0,0,1,183.52,63l-2.05,1.68a19.45,19.45,0,0,0-4.75-4.87Z"/><path class="cls-1" d="M198.55,69.19A28.34,28.34,0,0,1,208,73.81l-1.68,2.9a24.79,24.79,0,0,0-9.49-5.13Zm30.71,1.72c-6.17,7.82-15.08,15.34-25.2,18.7,0,.63-.21,1.09-.59,1.09-.55,0-3.07-2.82-3.53-3.45a.42.42,0,0,1-.08-.21c0-.08.08-.16.29-.21,13.19-2.14,23.86-13.9,27.68-19.61ZM204.44,60.62a27.31,27.31,0,0,1,8.86,5.71L211.2,69c-1.93-2.6-5.59-5-8.61-6.38Zm17-1a23.44,23.44,0,0,1,4.91,4.58l-2.06,1.68A24.29,24.29,0,0,0,219.52,61ZM225.1,57a23.48,23.48,0,0,1,5,4.32l-2,1.77a27.9,27.9,0,0,0-4.78-4.67Z"/><path class="cls-1" d="M248.07,87.3H265v-6H249V78.6h16v-5H248.12V71h19.7V91.08H265V90H248.07Z"/><path class="cls-1" d="M286.8,62.34a27.53,27.53,0,0,1,9.2,7.19l-2.52,2.77c-2-3.32-5.84-6.3-8.87-8Zm27.6,8.91C308,79.19,299,86.08,288.94,89c0,.75-.25,1.09-.55,1.09-.58,0-3.27-3.19-3.48-3.53a.32.32,0,0,1-.09-.21c0-.08.05-.12.26-.17,11.84-1.59,22.51-11,28-18.77Z"/><path class="cls-1" d="M329.59,92.08h8.74V58.27h2.77V94.73H329.59Z"/></g></g></svg>