<svg xmlns="http://www.w3.org/2000/svg" viewBox="0 0 857.81 45.12"><defs><style>.cls-1{fill:#fff;}</style></defs><g id="レイヤー_2" data-name="レイヤー 2"><g id="レイヤー_1-2" data-name="レイヤー 1"><path class="cls-1" d="M0,4.75H13.15V3.89s0-1.44-.14-2.79c3.74,0,4.61.39,4.61.87,0,.33-.48.77-1.44.91,0,.1-.05.34-.05,1.58v.29h9.6V3.89s0-1.44-.14-2.79c3.74,0,4.6.39,4.6.87,0,.33-.48.77-1.44.91a13.57,13.57,0,0,0-.09,1.58v.29h13.2V7.49H28.66V9.41H25.73V7.49h-9.6V9.41h-3V7.49H0ZM.91,41.14H1.3c8.16,0,13.87-1.58,18.05-3.55a44.82,44.82,0,0,0-7.25-3.41l2.49-1.78A53.06,53.06,0,0,1,22.27,36a25.9,25.9,0,0,0,6.15-5.62H15.36A40.26,40.26,0,0,1,3.55,36.68L.38,34.61C8,32.79,13.92,28.42,17.71,25H4.18v5.33H.91V22.51H40.85v7.83H37.54V25.06h-16c-.81.72-2.16,1.82-3.64,3.07l12.33-.05c.29,0,.58-.29.87-.29s2.21,1.3,2.21,1.83c0,.24-.34.43-.92.62C28.56,34.85,22.08,43.35,3.79,44.16ZM4.7,10.66H37.4v9.93H34.47V19.44H7.58v1.2H4.7Zm9.65,6.57V13H7.58v4.27Zm10.23,0V13h-7.3v4.27Zm9.89,0V13h-7v4.27Z"/><path class="cls-1" d="M58.37,20.59c-.1,0-.1-.09-.1-.19s.1-.14.19-.19A38,38,0,0,0,67,17.09l1.34-.67c-1.48-3.22-2.78-6.24-3.74-8.88a27.79,27.79,0,0,1,4-.87c.49,0,.68.19.68.39s-.29.67-.87,1A65,65,0,0,0,71,15.07a83.37,83.37,0,0,1,8.59-3.88A16.2,16.2,0,0,0,75,4.56l2.83-1.1a16.85,16.85,0,0,1,4.94,6.62,22,22,0,0,1,6.15-1c5.9,0,9.07,3.07,9.07,7.06,0,2.49-2.25,9.93-12.77,9.93a25.08,25.08,0,0,1-4.7-.48l-1.92-3.84a28.87,28.87,0,0,0,7,1.06c6.14,0,8.78-3.84,8.78-6.58,0-.38-.05-4.36-6-4.36-4.42,0-9.84,2.35-16.27,5.8,1,2.26,2.2,4.56,3.36,6.82,2.88,5.62,5.85,11.23,7.82,15.75L79.73,42c-1-3.26-1.34-4.27-10.18-22.85l-1.1.58a46.3,46.3,0,0,1-7.2,3.55Z"/><path class="cls-1" d="M113.47,23.33c2.07-5.14,2.07-14,2.07-14.83,1.15,0,3.69.14,3.69.86,0,.29-.38.58-1.15.77v.24c0,2.59-.67,10.18-1.73,13.49Zm6.67-18.67s0-2.12-.09-3.32c4,0,4.56.53,4.56.87s-.43.72-1.35.91c0,.53-.09,1.68-.09,1.68V44.07h-3ZM126.05,18a83.17,83.17,0,0,0-2-9.21l2.12-.63c.14.34,1.58,5.33,2.4,9Zm1,22.23h13.68V36.82H130V34.23h10.66V30.58h-7.2v1.53l-2.59,0V16.71h22.7V32H151V30.58h-7.58v3.65h11.81v2.59H143.38v3.36H157.3v2.59H127Zm1.39-28.71h7.73a15.61,15.61,0,0,0-1.82-3.74l2.49-.67a12.13,12.13,0,0,1,2.07,3.84l-1.83.57h8.16A26.17,26.17,0,0,0,146.74,7c3.46.67,3.94,1,3.94,1.34s-.44.53-1.49.58c0,0-.44,1.1-1.15,2.54h8.44v2.4H128.4Zm.91-7.29H140.5c-.05-.39-.1-2-.15-3,1.68,0,4.47.14,4.47.82,0,.28-.43.62-1.35.76,0,.34-.09,1.06-.09,1.4h11.9v2.4h-26Zm11.38,18.14V19h-7.2v3.31Zm0,5.86V24.63h-7.2v3.55ZM151,22.32V19h-7.58v3.31Zm0,5.86V24.63h-7.58v3.55Z"/><path class="cls-1" d="M173.86,37.25c-.15,0-.2-.09-.2-.19a.35.35,0,0,1,.1-.19c2-2.93,4.75-6.63,6.72-9.6a86.42,86.42,0,0,0,5.28-9.36l.1-1.49a27.5,27.5,0,0,1-8.07,3.69l-2.25-3a.81.81,0,0,1-.1-.24.17.17,0,0,1,.19-.19c3.75-.05,8.21-2.07,10.47-3.17.28-3.36.48-6.58.48-8.64v-1c4,0,4.65.43,4.65.81s-.38.58-1.2.72c-.38,3.7-1,8.5-1.39,13.4,6.72-7.25,11-9.07,13.78-9.07,3.17,0,4.41,2.44,4.41,6.33a27.09,27.09,0,0,1-.43,4.56,55.47,55.47,0,0,0-1.34,9.65c0,2.11.57,3.75,2.59,3.75,2.59,0,6.39-2.79,7.87-4.28l.2,4.32a13.78,13.78,0,0,1-8.31,3.41c-3.12,0-5.66-1.77-5.66-6.53v-.14a55.23,55.23,0,0,1,1.2-9.31,38.56,38.56,0,0,0,.57-5.57c0-2.5-.67-3.22-1.92-3.22-.91,0-4.41.34-13.39,10.42l-.05.67c-.19,2.59-.33,5.52-.33,8.59,0,2.79.09,5.67.33,8.55l-3.65.24V39.6c0-4.84.2-10.32.58-14.4l0-.43c-2.5,4.46-5.14,9.22-7.59,13.35Z"/><path class="cls-1" d="M234.91,26.64c-.14-.05-.24-.09-.24-.19a.24.24,0,0,1,.1-.19,62,62,0,0,0,9.79-14.07c-.38.05-2.3.2-3.5.2a8.83,8.83,0,0,1-4.8-1.2l-.34-3.41v0c0-.15.05-.19.14-.19a.36.36,0,0,1,.2,0,10.4,10.4,0,0,0,5.52,1.83,30.3,30.3,0,0,0,4-.29,45,45,0,0,0,2.11-6.24c.92.1,3.22.58,3.75.67s.91.43.91.72S252,5,250.8,5c-.43,1.15-1.05,2.5-1.58,3.65a93.83,93.83,0,0,0,9.55-2.07l-.1,3.17c-3.84.87-7.58,1.49-10.8,2A52.66,52.66,0,0,1,243,19.25a2,2,0,0,0-.2.29s.15-.1.29-.24a10.62,10.62,0,0,1,7.15-2.83c3.12,0,4.95,2,5.57,5.08,1.68-.76,3.36-1.48,5.09-2.16,2.3-1,4.85-1.87,6.58-2.59l2.4,3c0,.09.09.14.09.19s-.09.14-.24.19a70.37,70.37,0,0,0-13.68,4.42c-.05,2-.24,6.62-.33,8.35l-3.36.33c0-1.53.28-5,.38-7-7,3.79-7.54,6.43-7.54,7.58,0,1.49.77,4.52,8.31,4.52A42.82,42.82,0,0,0,264,36.53l-.62,4a41.51,41.51,0,0,1-9.7,1.2c-8.06,0-11.57-3.6-11.57-7.59,0-3.79,3.08-7.15,10.71-11.14-.19-2.68-1.11-4.08-3.65-4.08h0c-3.45,0-8.74,5.38-10.75,8.69Z"/><path class="cls-1" d="M289.54,28H307a13.26,13.26,0,0,0,.19-2c.05-.67.05-1.39.1-2.16H294.1V21.07h13.2V17H293.52V14.31H307.3c-.05-2-.05-3.41-.1-3.84,4.08,0,4.61.48,4.61.81s-.67.82-1.54.91v2.12h14V17h-14l-.05,4h13.49v2.79H310.13v2.59A10.43,10.43,0,0,1,310,28h18.33v2.93l-17.09-.15c2,3.55,6.92,9.07,19.83,9.07-.19.24-2.88,3.46-2.88,3.46-11.67-.62-17.19-7.54-19.25-11.47-2,4.51-6.91,9.89-19.06,12-.14-.19-2.21-2.55-2.69-3,11.43-1.29,16.85-5.23,19-10l-16.61.15Zm-.15-21.85h17.86V4.46a31.55,31.55,0,0,0-.19-3.26c.38,0,2.64.1,4.22.29.58.05.91.33.91.67s-.48.82-1.53,1a17.29,17.29,0,0,0-.1,1.82V6.14h17.81V15h-3.26V9h-32.5v5.95h-3.22Z"/><path class="cls-1" d="M352.37,19.15H346.8V16.32h5.57V7h-6.05V4.08h15.22V7h-6.05v9.36H361v2.83h-5.47v11c3.31-1.35,5.9-2.64,7.1-3.27l.05,3.12a116.59,116.59,0,0,1-14.45,6.29,3.63,3.63,0,0,1,.1.67c0,.53-.19,1-.48,1s-.48-.24-.82-.76c-.86-1.4-1.63-3.17-1.77-3.41,2.44-.67,4.89-1.49,7.15-2.35Zm2.25,22.09c12.2-.77,14.89-5.67,15.13-13.11h-2v2H364.8V2.69h19.92V30h-2.93V28.13H379c-.05,3.12-.09,9.65-.09,9.89,0,1.63.67,2,3.07,2,3.55,0,4.08-1.39,4.37-7.64L389.43,35c-.82,6.67-2.26,7.87-7.88,7.87-3.21,0-5.66-.43-5.66-4v-.15l.05-10.56h-3.12c-.24,7.78-3.17,14.5-15.17,15.94Zm27.17-31.11V5.57H367.73v4.56Zm0,7.54V13H367.73v4.71Zm0,7.87v-5H367.73v5Z"/><path class="cls-1" d="M406.27,11.33a.42.42,0,0,1,0-.24c0-.1,0-.19.24-.19h.1c1.15.09,2.26.14,3.41.14a64.26,64.26,0,0,0,6.77-.43c3-.34,6.48-.63,10.08-.86-.1-2.5-.24-4.81-.43-6.44,3.45,0,5,.1,5,.77,0,.38-.48.77-1.35.86-.09,1.06-.14,2.69-.19,4.61,3.31-.19,6.72-.28,9.89-.28,1.49,0,2.88,0,4.22,0l-.14,3.56a81.93,81.93,0,0,0-9.79-.58c-1.44,0-2.84.05-4.23.1,0,3.16,0,6.43,0,8.4a11.45,11.45,0,0,1,1.92,6.57c0,5.57-4.22,11.57-13.25,14.84-1.67-1.06-3.84-2.31-4.17-2.5,2.35-.48,13.44-3.46,14.3-11.57a6.28,6.28,0,0,1-5.76,3.27A6.56,6.56,0,0,1,416.16,25a7.21,7.21,0,0,1,7.35-7.25,7.79,7.79,0,0,1,3.45.72V16.85c0-1.34,0-2.83,0-4.32-3.88.29-7.48.72-10.65,1.2a75.9,75.9,0,0,1-9.12,1.06Zm17.24,9.17a3.94,3.94,0,0,0-4.28,4,3.6,3.6,0,0,0,3.6,3.79c3.51,0,4.08-3.31,4.08-6.38A4.12,4.12,0,0,0,423.51,20.5Z"/><path class="cls-1" d="M459.74,29a.25.25,0,0,1-.19-.2.27.27,0,0,1,.15-.24c2.92-2.73,5.47-4.75,6.81-6,4-3.6,13.78-13.54,13.78-14,0-.1-.05-.1-.14-.1a2.47,2.47,0,0,0-.44.1A33.06,33.06,0,0,1,468,11.19c-.33,0-.67,0-1,0L465.7,8.06a.56.56,0,0,1-.05-.28c0-.1.05-.15.19-.15H466a22.83,22.83,0,0,0,3.22.19,39.59,39.59,0,0,0,12.24-2.2c.48-.15.63-.48,1-.48.63,0,3.46,2.3,3.46,2.59s-.58.43-1.06.81c-3.41,2.89-13.68,12.82-13.53,12.82a2.05,2.05,0,0,0,.38-.14,22.29,22.29,0,0,1,8.88-1.92c6.19,0,11.14,3.41,11.14,8.78,0,7.06-7.25,12.77-15.89,12.77-5.91,0-10.61-2.64-10.61-6.14,0-3.12,3.12-4.61,6.1-4.61,4.65,0,7.48,3,7.48,6.62,0,.24,0,.48,0,.72,7.05-1.58,9.26-6.48,9.26-9,0-5-3.94-6.48-8-6.48-9.6,0-14.69,5.81-17.13,8.69Zm15.7,7.77c0-1.44-.57-4.12-4.56-4.12-2.06,0-2.78,1-2.78,2,0,1.78,2.93,3.22,6.72,3.22h.53A10.34,10.34,0,0,0,475.44,36.72Z"/><path class="cls-1" d="M521,0H534.1V3h-10V41.67H521Z"/><path class="cls-1" d="M553,33.31c8.83-4.22,17.66-14.06,20.06-19.68l-17.23.1V10.56H573.7V4.22c0-.28-.05-1.77-.1-2.92,1.92,0,4.66.24,4.66.86,0,.34-.43.67-1.3.82-.09.76-.09,1.92-.09,1.92v5.66H595.4v3.17l-18-.1c2.74,6,11.72,14.88,20.5,18.44-.24.19-4,2.78-4,2.78-7.59-4.9-14.6-12.58-17-17.23a6.51,6.51,0,0,1-.29-1.44c0,3,.33,12.43.33,14.35v.67h9.32v2.93h-9.32V44h-3.26V34.13h-9.31V31.2h9.31v-.67c0-1.39.19-9.74.29-13.49a1.51,1.51,0,0,1-.19.63c-1.92,4.32-9,12.57-17,18.09Z"/><path class="cls-1" d="M620.21,28.37c-1.73.86-3.6,1.73-5.71,2.59a2.57,2.57,0,0,1,.14.77c0,.43-.19.77-.48.77s-1-.43-2.74-3.89c3.17-1.1,6.15-2.35,8.79-3.55V13.44h-3.79a39.82,39.82,0,0,1-1.83,7.68l-3.12-.48c2.45-5.47,2.83-12.43,2.93-16.37,1.68,0,4,.24,4,.87,0,.24-.33.52-1.2.76-.05,1-.19,2.69-.43,4.71h3.41V4c0-.62-.05-1.49-.15-2.93.39,0,2.36,0,3.7.29.62.1.86.34.86.58s-.62.81-1.29.91a11,11,0,0,0-.1,1.63v6.1h4.66v2.83h-4.66V23.67c2.55-1.25,4.47-2.36,5.43-2.88l.24,3c-1.59.91-3.46,2-5.67,3.12V44.07h-3Zm8.26,12.29c10.8-6.87,14.11-20.16,15.36-28.9h-3.89c-1.63,6.67-5,15.94-11.67,21.07L625,31.49c7-4.56,10.22-13.25,11.81-19.73h-3.65a39.64,39.64,0,0,1-4.46,7.44L625.39,18c5.38-5,7.78-15.17,8.12-16.8a31.08,31.08,0,0,1,3.6.62c.33.1.62.34.62.63s-.38.57-1.39.67a56,56,0,0,1-2.07,6h18.58c-.33,27.41-.43,34.71-11.18,34.71-.68,0-1.35,0-2-.1l-2.16-3.65a28.13,28.13,0,0,0,4.32.44c6.67,0,7.44-5,7.78-28.76H647c-.87,7.49-3.84,22.51-14.88,30.29Z"/><path class="cls-1" d="M684.39,37.3c8.54-.67,19.2-4.95,19.2-15,0-6.09-4.9-11.52-12.63-12,0,.58.1,1.2.1,1.83,0,8.44-5.81,17.23-8.55,20.59-1.68,2.11-3.4,3.17-5.09,3.17-2.88,0-7-4-7-10,0-8.83,8.93-18.43,19.78-18.43,9.94,0,17,6.77,17,14.88,0,10.66-9.8,16.51-18.82,18.1ZM673.63,25.78c0,3.6,2.21,6.53,3.65,6.53,2.88,0,10.32-11.62,10.32-19.88,0-.62-.05-1.29-.09-1.92C680.26,11.86,673.63,19.2,673.63,25.78Z"/><path class="cls-1" d="M730.42,38.84a12.83,12.83,0,0,0,3.84.81c2.06,0,3.65-1.1,3.65-4.94v-.1a16.18,16.18,0,0,0-.15-2.26c-3.6.48-7.49,1-10.85,1.49v.29c0,.77-.29,1.2-.62,1.2s-.43-.14-.58-.53c-.33-1-1-3.45-1.05-3.74,3.84-.24,8.3-.72,12.29-1.25a9.35,9.35,0,0,0-2.69-3.12l2.73-.86a7.11,7.11,0,0,1,.92.81A21.33,21.33,0,0,0,741,23.52l-8,.15c-1.73,1.15-4,2.49-6.15,3.6l-2.78-1.92a42,42,0,0,0,12.91-8H725V14.79h9.07V9.6h-7.05V7.15h7.05V4.46c0-.86-.09-2.68-.09-3,0,0,4.56.1,4.56.91,0,.34-.58.72-1.44.87a18.76,18.76,0,0,0-.15,2v2h6V9.36a31.59,31.59,0,0,0,2.92-6c.1,0,3.89,1.06,3.89,1.68,0,.29-.48.58-1.34.58h-.24a40.82,40.82,0,0,1-5.71,9.17h4.08v2.54h-6a29.37,29.37,0,0,1-4.41,3.94H743c.28,0,.57-.24.76-.24a4.73,4.73,0,0,1,1.88,1.77c0,.24-.39.39-.92.43a57,57,0,0,1-5.42,5.14c.24.34.38.67.58,1,3.93-.58,7.1-1.11,8.25-1.44,0,0,0,1.73.1,2.64-1.59.38-4.37.86-7.59,1.34a10.66,10.66,0,0,1,.29,2.5c0,4.32-1.87,8.16-6.43,8.16a10.91,10.91,0,0,1-2.35-.29Zm8.64-24.05A34.63,34.63,0,0,0,742.8,9.6H737v5.19Zm1.05,27.12A27.87,27.87,0,0,0,754.56,31a39.12,39.12,0,0,1-4.32-14c-.72,1.59-1.49,3.12-2.3,4.52l-3.07-1.25c5.13-6.77,7.24-18,7.39-18.87,3.93.77,4.22,1.39,4.22,1.63s-.43.63-1.25.63H755c-.39,1.39-1,3.45-1.78,5.81h13.54v2.83h-3.55C762.58,19.68,761,26,758,31.11a26.84,26.84,0,0,0,11,9.65l-3.6,2.16a31,31,0,0,1-9.22-9,29.73,29.73,0,0,1-12.38,9.89Zm12.15-29.62a40.66,40.66,0,0,0,4,15.74,40.17,40.17,0,0,0,3.84-15.74Z"/><path class="cls-1" d="M783.36,5.28h18.77V3.79a27.31,27.31,0,0,0-.19-3c4.17.14,5.13.19,5.13.91,0,.33-.57.77-1.58,1,0,.77-.1,1.53-.1,1.77v.82h19.16V8.11H800.74c-.72,1.3-1.87,3.41-3.07,5.28,5.76-.19,11.56-.52,15.5-.86-2.26-1.49-4.22-2.59-4.8-2.88l2.3-1.44a117.67,117.67,0,0,1,12.44,7.54l-2.4,2.54a44.38,44.38,0,0,0-4.13-3.41c-4,.34-20,1.49-29.19,1.73v.1c0,.72-.33,1.48-.72,1.48-.86,0-1.82-4.75-1.82-4.75,1.34.05,2.88.05,4.46.05s3.36,0,5.14-.05a52.87,52.87,0,0,0,2.78-5.33H783.36Zm7.73,14.11h25.78V31.92c0,2.21.09,6.24.09,6.24v.15c0,4.65-3.79,5.37-7.39,5.37-.67,0-1.34,0-2,0l-2.21-3.51a38.81,38.81,0,0,0,4.71.43c2.45,0,3.79-.62,3.79-2.68V35.24H794.16V44L791.09,44ZM813.89,26V22.08H794.16V26Zm0,6.67V28.56H794.16v4.08Z"/><path class="cls-1" d="M844.66,42.1h10V3.46h3.17V45.12H844.66Z"/></g></g></svg>