<svg xmlns="http://www.w3.org/2000/svg" viewBox="0 0 285.63 64.72"><defs><style>.cls-1{fill:#fff;}</style></defs><g id="レイヤー_2" data-name="レイヤー 2"><g id="レイヤー_1-2" data-name="レイヤー 1"><path class="cls-1" d="M0,2.12H7.92V1.57A15.31,15.31,0,0,0,7.83,0s1.42,0,2.53.17c.31.06.46.21.46.35s-.26.44-.84.55a7.05,7.05,0,0,0-.06.9v.15h5.6V1.57A15.31,15.31,0,0,0,15.43,0S16.88,0,18,.17c.31.06.46.21.46.35s-.26.44-.84.55a7.05,7.05,0,0,0-.06.9v.15h7.92V4H17.52V5h-2V4H9.92V5h-2V4H0Zm.49,22H1a24.72,24.72,0,0,0,10.61-2,22.26,22.26,0,0,0-4.26-2l1.77-1.22A32.34,32.34,0,0,1,13.58,21a14.76,14.76,0,0,0,3.53-3.19H9.54a25.09,25.09,0,0,1-7.22,3.92L.12,20.28a24.61,24.61,0,0,0,10.41-5.63H2.73v3.13H.52V12.91H24.89v4.87H22.62V14.65H13.2c-.47.38-1.13,1-1.95,1.65h7.2c.17,0,.35-.23.52-.23a4.31,4.31,0,0,1,1.51,1.25c0,.17-.26.26-.64.4-2.38,2.9-6.38,8-17.4,8.44ZM2.78,5.71h20v6.07h-2v-.61h-16v.64h-2Zm5.86,4V7.28H4.79V9.66Zm6.15,0V7.28H10.65V9.66Zm6,0V7.28h-4V9.66Z"/><path class="cls-1" d="M33.73,11.72a.23.23,0,0,1-.06-.12c0-.06.12-.11.14-.11a23.89,23.89,0,0,0,5.34-2l.64-.32c-.9-1.94-1.68-3.77-2.21-5.3,0,0,1.57-.38,2.44-.53a1.06,1.06,0,0,1,.29,0c.29,0,.44.12.44.24s-.24.4-.61.61a32.57,32.57,0,0,0,1.48,4.11c1.62-.81,3.3-1.62,5-2.26a9.78,9.78,0,0,0-2.76-3.88l1.94-.79a10.26,10.26,0,0,1,3.05,4,14,14,0,0,1,3.71-.55C56.27,4.79,58,6.87,58,9.17c0,2.64-2.27,6.09-7.83,6.09A16.31,16.31,0,0,1,47.24,15L45.91,12.3a18.91,18.91,0,0,0,4.53.72c3.68,0,5.07-2.35,5.07-3.85,0-1.31-1-2.5-3.42-2.5-2.21,0-4.93.93-9.66,3.48,2.17,4.67,5.1,9.78,6.76,13.61l-2.47,1.16c-1-3.31-3.71-8.76-6.06-13.81l-.49.29a28.14,28.14,0,0,1-4.47,2.18Z"/><path class="cls-1" d="M65.66,13.43c1.13-2.7,1.21-7,1.21-8.44V4.5s1.31.11,1.8.17c.32.06.61.2.61.38s-.17.32-.67.43v.15a37.24,37.24,0,0,1-1,8.18Zm4-11.28s0-1.37-.06-2c0,0,1.91.06,2.49.18.32.06.5.2.5.38s-.23.37-.81.52c0,.23-.06.9-.06.9v24H69.69Zm3.57,8.21A49.15,49.15,0,0,0,72,4.64l1.42-.41s1,3.2,1.48,5.57Zm.63,13.19H82.1V21.76H75.69V20H82.1V18H78v.84H76.21V9.43H90.08V18.8h-1.8V18H83.93v2H91v1.75H83.93v1.79h8.38v1.8H73.89Zm.85-17.31h4.55a7.3,7.3,0,0,0-1.1-2.09l1.71-.44A5.85,5.85,0,0,1,81.2,6l-.78.24h4.44a15.44,15.44,0,0,0,.93-2.56s1.5.29,2,.44c.35.09.55.23.55.4s-.23.29-.87.32c0,0-.26.61-.67,1.4h5V7.89H74.74Zm.58-4.41H82c0-.35-.06-1.28-.09-1.74,0,0,1.89.14,2.32.14s.61.18.61.35S84.6,1,84,1a6.06,6.06,0,0,0-.06.79h7.11V3.45H75.32Zm6.78,11V11H78v1.8Zm0,3.54v-2H78v2Zm6.18-3.54V11H83.93v1.8Zm0,3.54v-2H83.93v2Z"/><path class="cls-1" d="M100.6,22c-.09,0-.12-.06-.12-.12a.2.2,0,0,1,.06-.14c1.22-1.77,3-4.06,4.21-5.92a53.32,53.32,0,0,0,3.13-5.54l.06-.78a17.86,17.86,0,0,1-4.76,2.23l-1.51-2.06a.18.18,0,0,1,0-.15.12.12,0,0,1,.11-.11,18.14,18.14,0,0,0,6.38-1.83c.18-2.06.29-4,.29-5.19,0-.26,0-.49,0-.67,0,0,1.71.06,2.4.15.41,0,.61.2.61.34s-.23.35-.67.41c-.2,2-.55,5-.84,7.86,3.31-3.48,5.89-5.25,8.21-5.25,1.89,0,2.73,1.39,2.73,3.83a19,19,0,0,1-.29,2.87,31.73,31.73,0,0,0-.81,5.75c0,2,1,2.14,1.48,2.14,1.59,0,4-1.88,4.84-2.81l.12,3a8.48,8.48,0,0,1-5.23,2.2c-1.91,0-3.48-1.13-3.48-4.12V18a30.71,30.71,0,0,1,.76-5.59,23,23,0,0,0,.35-3.28c0-1.48-.41-1.86-1.08-1.86-2.38,0-7,5.14-7.89,6.18l0,.52c-.12,1.25-.18,3-.18,4.93,0,1.71.06,3.57.2,5.31l-2.43.17c0-.6,0-1.27,0-2,0-2.43.11-5.25.29-7l.06-.46c-1.42,2.55-2.93,5.28-4.33,7.63Z"/><path class="cls-1" d="M136,15.58a.15.15,0,0,1-.12-.15.11.11,0,0,1,0-.09,33.6,33.6,0,0,0,2.29-2.63,48.29,48.29,0,0,0,3.63-5.78c-.35,0-1.3.12-1.86.12A5.11,5.11,0,0,1,137,6.32L136.76,4V4c0-.05,0-.08.09-.08a.33.33,0,0,1,.15,0A6.87,6.87,0,0,0,140.33,5h.09c.64,0,1.39-.06,2.29-.15A24.12,24.12,0,0,0,144,1.07c.38,0,3,.35,3,.9,0,.23-.37.44-1,.47-.23.63-.58,1.39-.9,2.08a55.43,55.43,0,0,0,5.6-1.24l-.06,2.2c-2.44.52-4.64.9-6.47,1.16a34.94,34.94,0,0,1-2.9,4.3c-.06.05-.06.08-.06.08l.12-.08a6.62,6.62,0,0,1,4.38-1.66c1.71,0,2.81,1.19,3.25,3,.93-.43,1.91-.84,2.9-1.22,1.42-.61,2.93-1.13,4-1.56l1.63,2.08c0,.06.05.09.05.12s-.08.12-.14.15a36,36,0,0,0-8.27,2.58c0,1.27-.14,4-.2,5l-2.29.2c0-.81.14-2.76.2-4a7,7,0,0,1-.7.4c-2,1.25-3.51,2.53-3.51,3.86,0,2.53,4,2.58,4.7,2.58a27.69,27.69,0,0,0,6.59-1.1l-.44,2.7a26,26,0,0,1-5.89.75c-5.22,0-7.13-2.46-7.13-4.78,0-3,3.57-5.19,6.41-6.7-.12-1.51-.64-2.27-2-2.27-2,0-5.25,3.37-6.44,5.28Z"/><path class="cls-1" d="M167.68,16.19h10.53a9.18,9.18,0,0,0,.17-2.21h-7.95V12h7.95V9.86h-8.27V8h8.27c0-.79,0-1.48-.06-2.12a22,22,0,0,1,2.44.17c.41.06.58.21.58.32s-.41.47-.9.55A10,10,0,0,0,180.38,8h8.44V9.86h-8.44V12h8.1V14h-8.1v1c0,.4-.08,1.25-.08,1.25h11v2L181,18.13c1.16,2.09,4,5.13,11.63,5.13H193l-2,2.38c-7.08-.35-10.3-4.35-11.52-6.73-1.24,2.64-4.29,5.83-11.45,7.05,0,0-1.63-1.88-1.86-2.09,6.87-.69,10.15-3,11.43-5.74l-9.92.09ZM167.59,3h10.73V2s0-1-.08-1.94c0,0,1.68,0,2.81.17.29,0,.55.23.55.41s-.26.43-1,.58c0,.2,0,.69,0,.93V3h10.73V8.53h-2.21V5H169.77V8.47h-2.18Z"/><path class="cls-1" d="M204.13,11.17h-3.3v-2h3.3V3.77h-3.59v-2h9.19v2h-3.48v5.4h3.19v2h-3.19v6.32c2.09-.87,3.63-1.65,4.23-2v2.15a69.13,69.13,0,0,1-8.73,3.85,1.93,1.93,0,0,1,.06.41c0,.32-.11.58-.29.58s-.32-.15-.55-.52c-.55-.93-1.13-2.24-1.13-2.24,1.51-.43,3-.92,4.29-1.42Zm1.45,13c7.63-.38,8.91-3.51,9-7.66h-.93v1l-2,0V1h12.27V17.49h-2v-1h-1.42c0,1.95-.06,5.63-.06,5.78.06.92.32,1.13,1.74,1.13,2,0,2.33-.41,2.47-4.61l2.12,1.79c-.47,4.07-1.34,4.82-4.88,4.82-2.35,0-3.53-.41-3.53-2.64,0-1.94,0-4.73.05-6.27h-1.65c-.17,4.35-1.54,8.74-9.08,9.61ZM221.94,5.42V2.93h-8.27V5.42Zm0,4.56V7.4h-8.27V10Zm0,4.7,0-2.73h-8.27l0,2.73Z"/><path class="cls-1" d="M235.25,6.15a.33.33,0,0,1,0-.15c0-.08.06-.14.26-.14.7.06,1.42.09,2.12.09a35.61,35.61,0,0,0,3.57-.21c1.85-.17,4.09-.37,6.46-.55-.08-1.51-.17-2.9-.29-3.83,2.88,0,3.28.15,3.28.47s-.29.46-.75.49c-.06.55-.09,1.57-.12,2.73,2.09-.12,4.27-.18,6.27-.18.75,0,1.51,0,2.23,0l-.06,2.44A48.94,48.94,0,0,0,252,7c-.78,0-1.56,0-2.32.06v4.9a6.5,6.5,0,0,1,1.28,4c0,3.25-2.52,7.08-8.18,9.06-1.25-.76-2.87-1.72-2.87-1.72,4.32-.75,7.77-3.48,8.38-5.1.18-.49.32-.93.44-1.34a4,4,0,0,1-3.34,1.69,4.07,4.07,0,0,1-4.15-4v-.05A4.4,4.4,0,0,1,245.72,10a4.86,4.86,0,0,1,2,.37c0-1,0-2.11,0-3.24-2.32.14-4.49.4-6.29.69a54.08,54.08,0,0,1-5.54.64Zm10.5,5.8a2.21,2.21,0,0,0-2.41,2.23,2.07,2.07,0,0,0,2.06,2.18c.58,0,2.29,0,2.29-3.71A2.53,2.53,0,0,0,245.75,12Z"/><path class="cls-1" d="M266.08,16.91a.16.16,0,0,1-.09-.12.26.26,0,0,1,.09-.17c2.17-2,4-3.48,4.87-4.32,4.15-4.12,7.34-7.4,7.34-7.57s0,0-.06,0a1.14,1.14,0,0,0-.29.09A19.52,19.52,0,0,1,271,6.32h-.47l-.81-2.09a.35.35,0,0,1-.06-.17c0-.06.06-.09.15-.09h.08a14.18,14.18,0,0,0,2,.12,24.88,24.88,0,0,0,7.45-1.33c.29-.09.41-.29.58-.29A10.53,10.53,0,0,1,282,3.89a.37.37,0,0,1,.15.26c0,.17-.21.29-.61.4-8.1,7.57-8.1,7.57-8.1,7.6h0a.91.91,0,0,0,.23-.08A13.31,13.31,0,0,1,278.75,11c3.74,0,6.88,2.06,6.88,5.43,0,3.86-3.95,7.74-9.69,7.74-2.87,0-6.5-1.19-6.5-3.8,0-1.39,1.25-2.9,3.8-2.9s4.64,1.66,4.64,4c0,.12,0,.24,0,.35,3.31-.75,5.19-3.07,5.19-5.25,0-2.87-2.23-3.77-4.64-3.77a13,13,0,0,0-1.88.18c-4.41.72-6.47,2.84-8.36,5.1Zm9.54,4.61A2.37,2.37,0,0,0,273,19.17c-.61,0-1.54.15-1.54,1.11,0,1.39,2.5,1.79,3.8,1.79h.35A3.31,3.31,0,0,0,275.62,21.52Z"/><path class="cls-1" d="M40.44,37.39h8.13v2.09h-6V62.71H40.44Z"/><path class="cls-1" d="M58.39,57.41c5-2.41,10.68-8.45,12-11.61l-10.3.09V43.66H70.86V39.77s0-.87-.08-1.62a22.76,22.76,0,0,1,2.61.2c.29,0,.43.17.43.32s-.23.37-.75.46a8.83,8.83,0,0,0-.06,1v3.51H84.15v2.23L73.36,45.8c1.56,3.54,7.16,8.79,12.33,10.85L83,58.59c-4.47-3-8.68-7.48-10.18-10.26.08,2.32.2,6.64.2,7.63v.2h5.54v2H73v5.86H70.83V58.19H65.29v-2h5.54V56c0-.76.12-5.05.18-7.46-1.34,2.64-5.57,7.34-10.12,10.62Z"/><path class="cls-1" d="M97.54,54.77c-1,.49-2.14,1-3.33,1.5a1.36,1.36,0,0,1,.08.44c0,.29-.14.46-.32.46a.57.57,0,0,1-.4-.26,16.38,16.38,0,0,1-1.39-2.29C94.12,54,96,53.2,97.54,52.47V45.69H95.42a26.46,26.46,0,0,1-1,4.55l-2.18-.32A26.82,26.82,0,0,0,94,40s1.48.09,2,.18c.32.05.67.17.67.34s-.2.27-.72.44c0,.55-.12,1.57-.26,2.78h1.85V39.62A12.23,12.23,0,0,0,97.46,38a19.2,19.2,0,0,1,2.55.17c.35.06.46.18.46.29s-.46.53-.81.58a4.7,4.7,0,0,0-.06.87v3.77h2.67v2H99.6v5.8c1.6-.78,2.73-1.45,3.22-1.74l.18,2.09c-.93.55-2.06,1.19-3.4,1.88V64.11H97.54Zm4.82,7.16c6.58-4,8.58-12,9.31-17.26h-2.06c-1,4.06-3,9.54-7.14,12.65l-2.2-1c4.32-2.64,6.24-7.74,7.19-11.69h-1.94a23.49,23.49,0,0,1-2.76,4.5l-2.2-.9c3.6-3.19,5-10.21,5-10.21a24.38,24.38,0,0,1,2.41.4.44.44,0,0,1,.34.35c0,.18-.17.32-.78.41a34,34,0,0,1-1.22,3.62h11.14c0,4.36,0,14.16-1.33,17.9C115.18,63.35,113,64,110.6,64c-.44,0-.85,0-1.28-.06l-1.48-2.49a23.21,23.21,0,0,0,2.81.32c3.54,0,4.38-1.83,4.5-17.06h-1.31c-.52,4.53-2.29,13.55-9,18.25Z"/><path class="cls-1" d="M134.66,59.76c5.46-.41,11.69-2.85,11.69-8.91,0-3-2.29-6.67-7.31-7.05A7.52,7.52,0,0,1,139.1,45c0,5.25-3.89,10.88-5.45,12.74a3.86,3.86,0,0,1-2.84,1.62c-2.18,0-4.35-3-4.35-6.18,0-5.39,5.39-11.28,12-11.28,5.92,0,10.33,4.09,10.33,9,0,6.61-6,10.18-11.4,11.11ZM128.57,53c0,2.29,1.42,3.8,2.15,3.8a1.78,1.78,0,0,0,1.19-.7c1.88-2.06,4.84-6.79,4.84-11.05,0-.38,0-.73-.06-1.1C132.46,44.85,128.57,49.2,128.57,53Z"/><path class="cls-1" d="M161.2,60.71a7.2,7.2,0,0,0,2.43.58c1.19,0,2.09-.69,2.09-3a9.94,9.94,0,0,0-.08-1.24c-2.18.32-4.53.63-6.39.92v.15c0,.52-.2.78-.4.78s-.23-.08-.32-.29c-.18-.52-.73-2.58-.73-2.58,2.21-.11,4.85-.4,7.25-.72a6.76,6.76,0,0,0-1.59-1.8l1.89-.58a3.72,3.72,0,0,1,.49.4,11.07,11.07,0,0,0,1.65-1.62l-4.64.09c-1.07.72-2.32,1.42-3.6,2.11l-1.88-1.3A26.56,26.56,0,0,0,165,48h-7V46.24h5.42V43.31h-4.21V41.63h4.21V40c0-.55-.09-1.8-.09-1.8s1.95.15,2.41.21.58.2.58.34-.32.47-.87.53c0,0-.09.72-.09,1.21v1.14h3.54v1.16a15.55,15.55,0,0,0,1.63-3.51s2,.69,2.35.84c.14.06.23.14.23.26s-.29.38-.87.38h-.09a22.53,22.53,0,0,1-3.39,5.48h2.32v1.54a34.65,34.65,0,0,0,3.33-9.63s2,.55,2.33.66.52.32.52.47-.26.34-.81.34h-.18c-.23.79-.61,2-1.07,3.4h8.12v2h-2.12a27.46,27.46,0,0,1-3,11.34A16.63,16.63,0,0,0,184.75,62l-2.46,1.42A17.74,17.74,0,0,1,177,58.25a18.86,18.86,0,0,1-7.28,5.68L167,62.69a17.15,17.15,0,0,0,8.73-6.39,23.2,23.2,0,0,1-2.58-8c-.38.78-.76,1.56-1.16,2.29l-2.15-.93A15.13,15.13,0,0,0,170.94,48H167.4A21.81,21.81,0,0,1,165,50.18h3.94c.24,0,.38-.14.5-.14s1.16.93,1.16,1.22-.29.2-.58.23a33.54,33.54,0,0,1-3.25,3c.11.18.2.38.29.55a45.51,45.51,0,0,0,4.93-.87v.38A12.14,12.14,0,0,0,172,56a42,42,0,0,1-4.44.79,6.33,6.33,0,0,1,.14,1.42v.08c0,2.56-1.13,5-3.88,5a5.28,5.28,0,0,1-1.48-.21Zm5.25-14.47a24,24,0,0,0,2.14-2.93h-3.22v2.93ZM174.63,45a22.93,22.93,0,0,0,2.29,9.22A23.87,23.87,0,0,0,179.09,45Z"/><path class="cls-1" d="M191.76,40.44h11.32V39.28a9.78,9.78,0,0,0-.09-1.45c2.75.11,3.33.17,3.33.58,0,.2-.32.43-.95.52a7.77,7.77,0,0,0-.06,1v.47h11.51v2h-8.06c1,.58,5.63,3.13,7.25,4.35l-1.56,1.83A30.38,30.38,0,0,0,212,46.5c-2.52.2-12.3.93-17.72,1.07,0,.47-.21.93-.44.93s-.32-.17-.46-.61c-.23-.67-.7-2.52-.7-2.52.9.06,1.92.06,3,.06.9,0,1.86,0,2.84,0,.61-1,1.16-2.12,1.57-3h-8.3Zm4.64,8.61h15.78v7.11c0,2,0,3.77.06,4.2v.18c0,3.1-2.55,3.36-4.78,3.36h-.85l-1.53-2.43a21.66,21.66,0,0,0,2.9.29c1.48,0,2.2-.41,2.2-1.57V58.86H198.46v5.19H196.4Zm13.78,4V50.88H198.46v2.17Zm0,4V54.85H198.46v2.24Zm-1.83-14.68h-5.94c-.47.78-1.1,1.94-1.71,2.93,3.27-.09,6.58-.26,8.9-.47-1.48-.95-2.61-1.59-2.61-1.59Z"/><path class="cls-1" d="M227.37,62.63h6V39.39h2.15V64.72h-8.13Z"/></g></g></svg>