<svg xmlns="http://www.w3.org/2000/svg" width="20.123" height="20.795" viewBox="0 0 20.123 20.795">
  <g id="グループ_2" data-name="グループ 2" transform="translate(-184.238 -221.114)">
    <g id="グループ_1" data-name="グループ 1">
      <path id="パス_1" data-name="パス 1" d="M197.15,237.681a9.958,9.958,0,0,0,2.463,1.574l-1.131,2.654a6.7,6.7,0,0,1-1.345-.686q-.153-.089-2.069-1.663a7.269,7.269,0,0,1-3.453.8,6.587,6.587,0,0,1-5.339-2.47q-2.037-2.468-2.038-7.153t2.053-7.16a6.664,6.664,0,0,1,5.381-2.463,6.58,6.58,0,0,1,5.33,2.47q2.038,2.468,2.039,7.153a14.756,14.756,0,0,1-.453,3.91A9.748,9.748,0,0,1,197.15,237.681Zm-2.476-2.12a10.422,10.422,0,0,0,.012-9.661,3.727,3.727,0,0,0-6.084,0,8.017,8.017,0,0,0-1.19,4.837,8.227,8.227,0,0,0,1.188,4.907,3.56,3.56,0,0,0,2.951,1.593,3.053,3.053,0,0,0,1.258-.267,8.658,8.658,0,0,0-1.9-1.168l.864-2.145A9.984,9.984,0,0,1,194.674,235.561Z" fill="#464646"/>
      <path id="パス_2" data-name="パス 2" d="M201.441,240.043v-3.568h2.92v3.568Z" fill="#464646"/>
    </g>
  </g>
</svg>
