<svg xmlns="http://www.w3.org/2000/svg" width="45" height="45" viewBox="0 0 45 45">
  <g id="グループ_648" data-name="グループ 648" transform="translate(-1233.333 -699.613)">
    <path id="パス_3745" data-name="パス 3745" d="M1275.883,714.692a21.4,21.4,0,0,0-4.937-7.692l-.1-.1h0c-.04-.04-.078-.078-.12-.117l0,0c-.121-.121-.246-.241-.372-.353a21.377,21.377,0,0,0-23.617-3.662c-.189.089-.378.181-.564.276a21.443,21.443,0,0,0-10.621,12.315c-.053.16-.106.323-.155.486l-.006.017c-.034.11-.067.224-.1.337-.079.27-.151.539-.217.815-.026.094-.047.19-.068.286a21.4,21.4,0,0,0,13.486,24.893c.092.034.186.068.281.1.563.2,1.14.373,1.725.524.1.025.206.051.31.074a21.382,21.382,0,0,0,20.139-5.663,20.969,20.969,0,0,0,1.967-2.265,21.394,21.394,0,0,0,2.97-20.27Z" fill="#fff"/>
    <g id="グループ_647" data-name="グループ 647">
      <path id="パス_3746" data-name="パス 3746" d="M1276.938,714.3a22.258,22.258,0,0,0-1.406-3.065,22.52,22.52,0,0,0-3.79-5.032l-.1-.1h0c-.043-.042-.083-.082-.127-.123l0,0c-.127-.127-.259-.254-.391-.371a22.5,22.5,0,0,0-24.859-3.856c-.2.095-.4.191-.594.291A22.569,22.569,0,0,0,1234.482,715c-.056.169-.112.341-.164.512l-.006.018c-.036.116-.07.236-.1.355-.083.284-.158.568-.227.857-.028.1-.05.2-.072.3a22.524,22.524,0,0,0,14.2,26.2c.1.036.2.071.3.1.593.209,1.2.393,1.816.551.107.027.217.054.327.078a22.5,22.5,0,0,0,21.2-5.961,22.043,22.043,0,0,0,2.07-2.384,22.517,22.517,0,0,0,3.126-21.336Zm-35.274,21.981a20.079,20.079,0,0,1-5.644-17.176c.682.477,1.927,1.145,1.943,1.148a.542.542,0,0,0,.166.022,2.355,2.355,0,0,0,.346-.038,2.9,2.9,0,0,1,.374-.039.493.493,0,0,1,.091.006.9.9,0,0,1,.162.291.862.862,0,0,0,.343.472,3.9,3.9,0,0,0,1.03.18c.17.019.345.04.434.055a1.822,1.822,0,0,1,.1.316,1.146,1.146,0,0,0,.381.729,11.838,11.838,0,0,1,1.131,1.03.226.226,0,0,0,.159.066.2.2,0,0,0,.111-.032c.027-.015.618-.361.824-.49a.687.687,0,0,1,.188.121c.011.324.052,1.4.054,1.614a4.7,4.7,0,0,1-.985,1.023.22.22,0,0,0-.081.161c0,.061-.056,1.478,0,2.047a5.905,5.905,0,0,0,1.26,2,11.488,11.488,0,0,0,.513,1.237,22.167,22.167,0,0,0,1.978,1.559v3.357a1.5,1.5,0,0,0,.264.821.662.662,0,0,1,.127.3v2.35a1.487,1.487,0,0,0,.213.768A20.145,20.145,0,0,1,1241.664,736.283Zm31.52-22.453a2.975,2.975,0,0,0-1.008-.391l-.448-.057c-.223-.448-.111-1.455-.9-1.232s-3.358.672-3.918.784-1.231,1.007-1.679,1.679-1.679,2.8-1.9,3.134a12.48,12.48,0,0,0-.336,3.022c0,.561,2.464,2.912,3.247,3.023a16.069,16.069,0,0,0,3.47-.559c.56-.113.9.671,1.343.671s1.007.224.56.9-.448,1.006,0,1.454a3.74,3.74,0,0,1,.783,3.471,2.417,2.417,0,0,0,.224,2.574,3.4,3.4,0,0,1,.2.432,20.347,20.347,0,0,1-2.826,3.551,20.078,20.078,0,0,1-19.506,5.15c.007-.028.013-.059.018-.091a.6.6,0,0,0-.148-.477.669.669,0,0,0,.3-.284,1.133,1.133,0,0,0,.108-.629l.109,0a1.414,1.414,0,0,0,.828-.2,1.3,1.3,0,0,0,.329-1.291c.029.012.059.026.086.035a.265.265,0,0,0,.1.015c.358,0,.755-.644.861-1.07a8.834,8.834,0,0,1,.337-.839,4.228,4.228,0,0,0,.508-1.542,1.894,1.894,0,0,1,1.166-.755c.647-.129.877-.367,1.122-1.163a8.245,8.245,0,0,0,.287-2.552,3.386,3.386,0,0,1,.62-1.069,2.831,2.831,0,0,0,.669-1.255,1.851,1.851,0,0,0-1-1.419,3.926,3.926,0,0,0-1.666-.39c-.138-.012-.26-.023-.316-.034s-.141-.108-.212-.184a1.16,1.16,0,0,0-.7-.434.9.9,0,0,0-.116-.007,1.758,1.758,0,0,0-.589.132,1.458,1.458,0,0,1-.479.117.566.566,0,0,1-.137-.016.586.586,0,0,1-.121-.041.557.557,0,0,1,.25-.281c.171-.114.333-.365.147-.934a4.1,4.1,0,0,0-.475-.943,1.381,1.381,0,0,0-1.2-.528c-.193,0-.381.019-.574.036h-.042c-.195,0-.309-.172-.531-.534a5.481,5.481,0,0,0-.462-.674,1.871,1.871,0,0,0-1.55-.578c-.07,0-.137,0-.2,0h-.161a1.43,1.43,0,0,1-.193-.009,2.79,2.79,0,0,1-.738-.3,2.733,2.733,0,0,0-.768-.312l-.056,0c-.32,0-.683.372-1.2.935-.128.14-.294.32-.381.4-.018-.02-.04-.046-.058-.068a.947.947,0,0,0-.448-.354.479.479,0,0,0-.148-.025.7.7,0,0,0-.423.189.516.516,0,0,1-.3.142.474.474,0,0,1-.216-.066c-.309-.169-.207-.816-.126-1.335a4.315,4.315,0,0,0,.075-.652c0-.43-.254-.476-.361-.476a.892.892,0,0,0-.321.081,1.309,1.309,0,0,1-.443.1.627.627,0,0,1-.2-.034c-.128-.042-.184-.086-.193-.113-.031-.086.134-.338.255-.525.056-.085.114-.174.17-.265.233-.389.354-.675.231-.892a.447.447,0,0,0-.419-.2,1.4,1.4,0,0,0-.268.029,1.206,1.206,0,0,1-.22.021,1.313,1.313,0,0,1-.235-.024.994.994,0,0,0-.148-.019c-.309,0-.347.307-.363.44a.737.737,0,0,1-.827.7c-.037,0-.072,0-.11-.005-.522-.033-.744-.4-.744-1.231a1.121,1.121,0,0,1,.224-.738c.083-.136.186-.308.312-.56a1.36,1.36,0,0,1,.776-.786c.083-.039.168-.079.256-.129a.344.344,0,0,1,.163-.058.408.408,0,0,1,.114.03.825.825,0,0,0,.307.064.916.916,0,0,0,.123-.008.661.661,0,0,0,.575-.525c.01-.022.018-.046.03-.076a.392.392,0,0,0,.067.018,3.25,3.25,0,0,0,.972.137c.161,0,.277,0,.362.007a1.85,1.85,0,0,0,.548,1.589.775.775,0,0,0,.553.331c.574,0,.623-.966.623-2.042,0-.65.246-.828.976-1.349l.047-.035a3.567,3.567,0,0,0,.86-.938,3.075,3.075,0,0,1,.915-.949,15.451,15.451,0,0,1,1.669-.821,9.734,9.734,0,0,0,1.7-.87,1.1,1.1,0,0,0,.233-1.118c-.076-.476-.054-.574.136-.631a8.656,8.656,0,0,1,1.006-.2,7.768,7.768,0,0,0,1.581-.367c.563-.21.693-.511.7-.728a.929.929,0,0,0-.572-.8c-.121-.061-.135-.358-.144-.622a1.3,1.3,0,0,0-.244-.9.623.623,0,0,0-.462-.188,2.161,2.161,0,0,0-.787.229,6.257,6.257,0,0,1-.647.237.266.266,0,0,1-.065.011c-.088,0-.15-.182-.228-.437-.12-.377-.3-.942-.916-.942a1.146,1.146,0,0,0-.226.022c-.791.158-.976,1.006-1.11,1.625a1.856,1.856,0,0,1-.187.6c-.465,0-.615.3-.761.586a2.107,2.107,0,0,1-.4.6.534.534,0,0,1-.237.162c-.038-.035-.1-.308.148-.795a.8.8,0,0,0,.076-.746c-.168-.284-.566-.3-1.025-.32-.184-.009-.374-.016-.565-.04-.363-.046-.458-.138-.463-.157a.371.371,0,0,1,.1-.194,20.055,20.055,0,0,1,22.3,1.238,3.762,3.762,0,0,1-.37.773.694.694,0,0,0-.111.617,9.31,9.31,0,0,0,1.287-.28.542.542,0,0,0,.2-.295c.114.1.226.193.335.295-.266.241-.552.494-.649.56-.167.111-.727.28-.951.39s.671.505.671.672,0,.952-.336,1.007-1.9.056-1.9.056a9.322,9.322,0,0,0-.392,1.959,1.952,1.952,0,0,0,1.287.505,7.3,7.3,0,0,0,1.456-.559l.447-1.008.9-.953s.672.279.9.056a3.223,3.223,0,0,1,.672-.446s.448.838.727.951l.055.024v0q.484.668.907,1.376l0,0v0l0,.01a.261.261,0,0,0,.051.081,20.252,20.252,0,0,1,1.222,2.421A2.482,2.482,0,0,1,1273.184,713.83Z" fill="#a046b4"/>
    </g>
  </g>
</svg>
