<svg xmlns="http://www.w3.org/2000/svg" width="50" height="27.885" viewBox="0 0 50 27.885">
  <g id="グループ_1" data-name="グループ 1" transform="translate(-784 -419.768)">
    <rect id="長方形_1" data-name="長方形 1" width="47.12" height="24.335" transform="translate(785.44 421.543)" fill="#fff"/>
    <path id="パス_1" data-name="パス 1" d="M784,419.768v27.885h50V419.768Zm2.884,18.671v-9.462a5.954,5.954,0,0,0,5.539-5.938c0-.13-.02-.256-.028-.386h11.083a14.485,14.485,0,0,0,0,22.116H792.4c.008-.13.028-.256.028-.388A5.96,5.96,0,0,0,786.884,438.439Zm27.678-7.668v2.217H810.9l-.393.61v1.465h4.052v2.2H810.51v3.019h-2.518v-3.019h-4.053v-2.2h4.053V433.6l-.394-.612h-3.659v-2.217h2.233l-1.855-2.888h2.415l2.517,3.917,2.519-3.917h2.417l-1.855,2.888Zm5.09,2.94a13.671,13.671,0,0,0-5.131-11.058H825.6c-.008.13-.027.256-.027.386a5.958,5.958,0,0,0,5.542,5.938v9.462a5.963,5.963,0,0,0-5.542,5.942c0,.132.019.258.027.388H814.521A13.68,13.68,0,0,0,819.652,433.711Z" fill="#a046b4"/>
  </g>
</svg>
