<svg xmlns="http://www.w3.org/2000/svg" viewBox="0 0 67.52 15.71"><g id="レイヤー_2" data-name="レイヤー 2"><g id="レイヤー_4" data-name="レイヤー 4"><line x1="0.35" y1="0.35" x2="15.35" y2="15.35" fill="none" stroke="#000" stroke-miterlimit="10"/><line x1="0.35" y1="15.35" x2="15.35" y2="0.35" fill="none" stroke="#000" stroke-miterlimit="10"/><path d="M26.87,13.26A10.72,10.72,0,0,0,27,14.94H25.85a11.48,11.48,0,0,0,.09-1.7V3.48a15.1,15.1,0,0,0-.06-1.65,13.15,13.15,0,0,0,1.56.06h2.21a12.12,12.12,0,0,0,1.53-.06c0,.45-.05.84-.05,1.43V5.13c0,.6,0,1,.05,1.36-.33,0-.91,0-1.53,0H26.87Zm0-9.44h3.39V2.61H26.87Zm0,1.92h3.39V4.55H26.87ZM29.39,9A9.74,9.74,0,0,0,28,9.09V8.18a11.58,11.58,0,0,0,1.42.07h3.36V8.08A4.1,4.1,0,0,0,32.69,7h1a6.32,6.32,0,0,0-.06.91v.32h.93A11.63,11.63,0,0,0,36,8.18v.91A9.87,9.87,0,0,0,34.61,9h-.94l0,4.13c0,.9-.33,1.17-1.47,1.17-.39,0-.81,0-1.34-.08a3.14,3.14,0,0,0-.23-.94,7.9,7.9,0,0,0,1.59.18c.46,0,.6-.11.58-.48l0-3.65a12.57,12.57,0,0,1-4.53,4,3,3,0,0,0-.63-.75A11.43,11.43,0,0,0,32.12,9Zm8.7,4.49c0,1-.28,1.21-1.52,1.21a12.34,12.34,0,0,1-1.34-.06,3.42,3.42,0,0,0-.29-1,10.84,10.84,0,0,0,1.53.15c.59,0,.69-.06.69-.44V6.47H34.21c-.66,0-1.2,0-1.53,0,0-.48,0-.79,0-1.38V3.26c0-.56,0-.95,0-1.43a12.68,12.68,0,0,0,1.54.06h2.35a13.51,13.51,0,0,0,1.59-.06,16.08,16.08,0,0,0-.07,1.65Zm-4.5-9.68h3.57V2.61H33.59Zm0,1.92h3.57V4.55H33.59Z"/><path d="M44.29,2.28a21.5,21.5,0,0,0-.2,3.15C44,7.24,44,9.27,44,9.94c0,.18,0,.57,0,.9a2.35,2.35,0,0,0,.7,1.8,2.82,2.82,0,0,0,1.88.59,4.29,4.29,0,0,0,4-2.61,8.43,8.43,0,0,0,.74-2.36A4.93,4.93,0,0,0,52.43,9a9.35,9.35,0,0,1-1.66,3.4,5.28,5.28,0,0,1-4.23,1.86,3.55,3.55,0,0,1-2.82-1,4.14,4.14,0,0,1-.83-3.07c0-1,0-1.38.13-6.11,0-.44,0-.71,0-1a5.39,5.39,0,0,0-.06-.8Zm4.21.42a11.07,11.07,0,0,1,1.59,2.08l-.78.44a9.61,9.61,0,0,0-1.56-2.1Zm1.44-.79A13.06,13.06,0,0,1,51.53,4l-.78.44a10.26,10.26,0,0,0-1.56-2.11Z"/><path d="M58.06,2.69a7.31,7.31,0,0,0,1.41.09c1.24,0,3.24-.09,4.59-.2a1.58,1.58,0,0,0,.71-.16l.63.82c-.21.1-.28.17-.76.63a39.38,39.38,0,0,1-4.93,4.26l0,0a7.6,7.6,0,0,1,3.68-.94c2.5,0,4.11,1.23,4.11,3.15,0,2.34-2.17,3.89-5.5,3.89-2.12,0-3.33-.78-3.33-2.16a2,2,0,0,1,2.17-1.76,3.06,3.06,0,0,1,2.48,1.23A4.2,4.2,0,0,1,64,13c1.58-.43,2.41-1.35,2.41-2.62,0-1.44-1.2-2.3-3.23-2.3a9.6,9.6,0,0,0-6.31,2.57l-.68-1a16.71,16.71,0,0,0,2.1-1.53c1.61-1.28,4-3.36,5-4.38l.21-.21.06-.06.06-.06,0,0-.14,0c-.47.08-2.27.19-4.55.27a5.54,5.54,0,0,0-.81.07Zm2.82,8.53c-.75,0-1.22.36-1.22.93a1,1,0,0,0,.6.91,3.84,3.84,0,0,0,1.68.35A5.32,5.32,0,0,0,63,13.3C62.71,11.94,62,11.22,60.88,11.22Z"/></g></g></svg>